<svg xmlns="http://www.w3.org/2000/svg" viewBox="0 0 11 76.81"><path d="M6.73 67.43v-1c0-.44-.08-.78-.1-1.09 0-.59-.12-1.18-.14-1.78-.06-1.68-.09-3.36-.11-5v-5.7c0-.09-.07-1.11-.07-1.28s-.09-1.35-.11-1.67 0-.74 0-1.11a20 20 0 000-2.68v-.82a.41.41 0 010-.11 4.09 4.09 0 000-.59c0-2.31-.07-4.62-.19-6.93 0-.81-.1-1.61-.07-2.43v-4.36a16.87 16.87 0 010-2.06c0-.4.08-1.16.06-1.55 0-.73-.07-1.09-.1-1.82-.07-1.62-.11-3.25-.15-4.87V19.3a8.56 8.56 0 000-2 7.61 7.61 0 01-.13-1.81c.07-1.1 0-2.18 0-3.28v-5c0-.51.11-1 .07-1.51a32.34 32.34 0 01.08-3.66c0-.54-.29-1.84-.63-2s-.44.05-.65 0C4-.16 3.21.66 3.22 1.38s.09 1.54.11 2.31 0 1.6 0 2.4c0 .64.23 1.27.21 1.89s.08 1.3 0 2a28 28 0 000 3.17c0 2.34.05 4.71 0 7.06 0 1.49.11 3 .14 4.45.09 4.05.13 8.1.26 12.15 0 1 0 2 .06 3a31.09 31.09 0 010 3.74 1.34 1.34 0 010 .2 16.52 16.52 0 000 2v3.91c0 1.49.11 3 .15 4.45.06 2.76.11 5.51.17 8.27 0 1.53-.3 3.06-.29 4.54a2.87 2.87 0 00.21 1.12c.15.34.11.45.22.56a.67.67 0 00.6.17c.78 0 1.75-.59 1.67-1.34z" fill="currentColor"/><path d="M5.92 76.8c1.47-.06 5.66-9.11 5-9.69S.79 66.78 0 67.62c-.43.51 4.61 9.25 5.92 9.18z" fill="currentColor"/></svg>