<svg xmlns="http://www.w3.org/2000/svg" viewBox="0 0 17.32 13.7"><path d="M15.81 0c.57-.11 1.18 0 1.4.59A4.43 4.43 0 0116.54 4a7.73 7.73 0 01-1.09 1.2l-.63.55-.31.25a1.53 1.53 0 01-.25.19s-.16.15-.25.25l-.29.35c-.19.24-.37.48-.54.74-.66 1-1.27 2-1.92 3l-.5.77-.29.42-.45.6a5.79 5.79 0 01-1 1 2 2 0 01-.56.28c-.19 0-.4.15-.62.08a2.27 2.27 0 01-1.41-.84 9.12 9.12 0 01-.6-.76l-.28-.41-.21-.32c-.43-.68-.83-1.34-1.26-2A35.25 35.25 0 012 5.82a15.71 15.71 0 00-.91-1.6 7.6 7.6 0 01-1-1.48A1.7 1.7 0 012.21.47c.84.41 1.52 2 2 2.91.66 1.25 1.26 2.51 2 3.71l1.23 2.14.31.51.07.12a.81.81 0 00.11.2c0 .1.14 0 .19 0a1.35 1.35 0 00.23-.06l.15-.18.18-.24.37-.49.7-1a19 19 0 001-1.74l1-1.88.25-.29L14.44 1a2.59 2.59 0 011.37-1z" fill="currentColor"/></svg>