<svg xmlns="http://www.w3.org/2000/svg" viewBox="0 0 33.68 208.94"><path d="M4.07 28.9a49.21 49.21 0 01-.77-5.35 23.67 23.67 0 01.15-4.76c0-.32 1-.74 1.51-.65s1.24.8 1.21 1.15c-.27 2.71-.59 5.42-.73 8.16a6 6 0 01-.07 1.42c-.06.19-.54.37-.82.36s-.46-.31-.48-.33zm1.28 7.54c1 .23 1.05 1 1.22 1.68.36 1.42.52 2.78.92 4.16a8.69 8.69 0 00.93 2.78c.41.59.38 1-.17 1.76a.43.43 0 01-.43.06C6.06 45 5.26 42.7 4.32 40.27c-.2-.49-.43-.94-.64-1.42a1.85 1.85 0 011.67-2.41zm.44-27.51c.08-1.45.53-3.83.66-4.86a14.81 14.81 0 01.47-3A2.44 2.44 0 018.17 0c.15-.08.56.4.85.63 1.22 1 .35 2 .09 3s-1.45 3.8-1.63 4.91c-.2 1.28-.52 1.39-1.59.67-.15-.1-.15-.44-.1-.28zM32 70.33a15.32 15.32 0 00-.92-4.9 19.29 19.29 0 00-1.9-3.9c-.07-.1 0-.31.14-.55a2.4 2.4 0 01.79-.87A1.84 1.84 0 0131 60a1.35 1.35 0 01.89.31 11.88 11.88 0 011.62 4.09 15.45 15.45 0 01.09 4.4 5 5 0 01-.26 1.5 1.22 1.22 0 01-.89.36c-.27-.02-.45-.31-.45-.33zm-1.79 7.33c.73.68.23 1.46-.12 2.13a18.63 18.63 0 01-2.93 3.84 27.55 27.55 0 00-2.22 2.24c-.43.63-.92.73-1.72.39a.47.47 0 01-.17-.4c1.25-2.13 2.82-3.9 3.84-6a8.62 8.62 0 00.46-1.29c.26-.85 1.57-1.38 2.86-.91zm-8.07-22.08l-4.59-1.29a13.85 13.85 0 01-2.93-.86 2.22 2.22 0 01-.91-1.43c-.05-.16.51-.46.79-.71a1.45 1.45 0 011.5-.39c.46.16.92.5 1.4.69s1.4.68 2.34 1.16a24.44 24.44 0 002.5 1.17c1.33.48 1.29.8.2 1.62-.15.12-.44.05-.3.04zm-5.55 64.87c-.61-1.89-1.29-3.43-1.77-5a24.21 24.21 0 01-1-4.65c0-.33.85-1 1.32-1s1.39.48 1.45.83l1.13 8.18a5.13 5.13 0 01.16 1.44c0 .21-.48.46-.76.48s-.5-.26-.53-.28zm1.79 7.46c1 .27 1 1.12 1.14 1.83a32.34 32.34 0 01.09 4.62 26.3 26.3 0 00-.28 3.15c.07.77-.24 1.16-1.08 1.4-.1 0-.37-.12-.38-.21-.2-1.22-.29-2.4-.38-3.58a34.88 34.88 0 00-.51-3.55c-.1-.48-.27-.94-.41-1.41a1.88 1.88 0 011.81-2.25zm-3.79-27.4a15.92 15.92 0 01.41-2.65c.23-.92.49-1.77.66-2.28a11 11 0 011.1-2.91 2.33 2.33 0 011.51-.75c.16 0 .43.54.64.83.92 1.23-.11 2-.56 2.86-.23.47-.76 1.3-1.19 2.18a9.37 9.37 0 00-.88 2.32c-.19 1.23-.48 1.36-1.58.68-.15-.1-.16-.45-.11-.28zm-1.14 74.61c.08-2 .09-3.67.23-5.34a31.17 31.17 0 01.67-4.62c.07-.3 1.09-.66 1.55-.54s1.2.89 1.12 1.25c-.52 2.74-1.21 5.43-1.92 8.12a6 6 0 01-.37 1.39c-.1.18-.61.25-.88.17s-.38-.4-.4-.43zm-.88 7.62c.85.56.6 1.37.49 2.07a29.82 29.82 0 01-1.24 4.41 24.2 24.2 0 00-1.07 2.94c-.13.76-.53 1.06-1.4 1.08-.11 0-.33-.2-.32-.29.24-2.47.85-4.68 1.08-7.15a14.62 14.62 0 000-1.48 1.88 1.88 0 012.46-1.58zm4.05-27.3c0-1.44.06-3.83 0-4.84a24.31 24.31 0 01-.14-2.94 2.42 2.42 0 011-1.33c.13-.1.64.26 1 .41 1.4.65.8 1.86.74 2.93s-.86 4.09-.91 5.22c-.08 1.32-.41 1.44-1.53.82-.2-.09-.22-.43-.16-.27zM6.08 208.93c1.89.16 8.77-10.73 8-11.59s-12.9-2.1-14.02-1.16c-.68.58 4.33 12.61 6.02 12.75z" fill="currentColor"/></svg>