<svg xmlns="http://www.w3.org/2000/svg" viewBox="0 0 16.78 309.81"><path d="M10.65 309.81c1.89-.16 6.89-12 6-12.75s-13.11 0-14.06 1.15c-.54.68 6.41 11.78 8.06 11.6zM1.39 26.39C1 24.6.69 23.12.48 21.61a24.13 24.13 0 01-.24-4.24c0-.28 1-.77 1.43-.73s1.33.58 1.33.91c0 2.51-.14 5-.24 7.51a5.12 5.12 0 01-.06 1.3c-.06.17-.54.33-.82.32s-.46-.27-.49-.29zm.93 6.88c1 .3.92 1.06 1 1.69a27.13 27.13 0 01-.09 4.13 18.29 18.29 0 00-.27 2.82c.07.69-.23 1-1.07 1.27-.1 0-.37-.09-.38-.17-.42-2.22-.4-4.29-.8-6.51-.08-.44-.23-.87-.35-1.3-.26-.88.64-1.91 1.96-1.93zM1 8.32C.73 6.99.56 4.87.41 3.99A14.27 14.27 0 010 1.29C0 .85.48.36.86-.01c.12-.1.66.19 1 .3 1.45.49 1 1.61 1 2.57s-.41 3.73-.33 4.74c.07 1.22-.23 1.39-1.43.95-.17-.06-.23-.36-.1-.23zm1.14 67.99c-.36-1.78-.72-3.27-.93-4.78A24.09 24.09 0 011 67.29c0-.28.94-.77 1.42-.74s1.33.58 1.34.91c0 2.5-.12 5-.21 7.51a4.7 4.7 0 010 1.3c-.06.18-.54.34-.82.33s-.56-.28-.59-.29zm.98 6.87c1 .3.93 1 1 1.69a25.93 25.93 0 01-.07 4.12 18.15 18.15 0 00-.26 2.82c.08.68-.22 1-1.06 1.28a.48.48 0 01-.39-.17c-.42-2.22-.41-4.29-.83-6.5a12.77 12.77 0 00-.36-1.31c-.24-.86.61-1.89 1.97-1.93zM1.59 58.24c-.23-1.25-.41-3.45-.59-4.36a15.48 15.48 0 01-.4-2.66c0-.44.47-.93.86-1.28.12-.1.66.19 1 .3 1.45.48 1 1.6 1 2.56s-.39 3.73-.3 4.74c.09 1.19-.2 1.34-1.4.93-.18-.06-.25-.36-.17-.23zm1.63 67.98c-.37-1.78-.74-3.26-1-4.77a25 25 0 01-.22-4.23c0-.29.94-.78 1.42-.75s1.33.57 1.34.9c0 2.5-.08 5-.15 7.5a4.67 4.67 0 01-.05 1.3c0 .18-.53.35-.81.34s-.5-.27-.53-.29zm1.01 6.87c1 .29.94 1 1 1.68a25.91 25.91 0 010 4.13 19.4 19.4 0 00-.23 2.82c.08.69-.22 1.05-1 1.29a.48.48 0 01-.39-.17c-.44-2.21-.44-4.28-.87-6.5-.09-.44-.25-.87-.37-1.3-.37-.87.5-1.91 1.86-1.95zm-1.68-24.93c-.24-1.29-.43-3.45-.6-4.36a14.45 14.45 0 01-.43-2.66c0-.44.46-.93.84-1.28.12-.11.66.18 1 .29 1.46.47 1 1.59 1 2.55s-.36 3.74-.27 4.75c.1 1.19-.19 1.34-1.39.94-.16-.06-.24-.4-.15-.23zm2.05 67.96c-.38-1.77-.76-3.25-1-4.76a25 25 0 01-.32-4.23c0-.28.94-.79 1.42-.76s1.34.56 1.34.89c.06 2.5 0 5-.09 7.51a5.11 5.11 0 010 1.3c-.06.18-.54.35-.81.34s-.51-.27-.54-.29zm1.06 6.87c1 .28.94 1 1 1.67a25.89 25.89 0 010 4.13 18.14 18.14 0 00-.22 2.82c.09.69-.21 1-1 1.3a.46.46 0 01-.39-.17c-.46-2.21-.47-4.28-.92-6.49-.09-.44-.25-.86-.38-1.3-.29-.87.54-1.91 1.91-1.96zm-1.84-24.92c-.25-1.29-.45-3.45-.62-4.36a14.43 14.43 0 01-.46-2.65c0-.44.46-.94.84-1.29.11-.1.66.18 1 .29 1.46.46 1 1.58 1 2.54s-.34 3.74-.24 4.75c.11 1.19-.19 1.34-1.39.95-.14-.06-.22-.31-.13-.23zm2.48 67.92c-.4-1.77-.79-3.25-1-4.75a24.17 24.17 0 01-.37-4.25c0-.28.93-.79 1.41-.77s1.34.56 1.35.89c.07 2.5 0 5-.06 7.51a5.12 5.12 0 010 1.3c0 .18-.53.35-.81.34a.82.82 0 01-.52-.27zm1.1 6.89c1 .27.95 1 1 1.67a27.11 27.11 0 010 4.13 19.32 19.32 0 00-.21 2.82c.09.68-.2 1.05-1 1.3a.46.46 0 01-.39-.17c-.47-2.2-.49-4.27-1-6.48-.09-.44-.25-.86-.38-1.3-.21-.86.58-1.86 1.98-1.97zm-2-24.89c-.26-1.28-.47-3.44-.65-4.35a15.35 15.35 0 01-.47-2.65c0-.44.46-.94.83-1.29.12-.11.66.17 1 .27 1.46.45 1 1.58 1 2.54s-.32 3.74-.22 4.75c.12 1.19-.17 1.35-1.38 1-.12-.12-.2-.42-.11-.27zm2.91 67.91c-.4-1.77-.81-3.24-1.06-4.74a25.09 25.09 0 01-.37-4.23c0-.29.93-.8 1.4-.78s1.35.55 1.36.88c.09 2.49 0 5 0 7.5a4.69 4.69 0 010 1.3c0 .18-.53.36-.81.36s-.49-.27-.52-.29zm1.14 6.85c1 .27 1 1 1 1.67a27.09 27.09 0 010 4.13 18 18 0 00-.19 2.82c.1.68-.19 1.05-1 1.31-.11 0-.38-.09-.39-.17-.49-2.2-.52-4.27-1-6.47-.1-.44-.26-.87-.4-1.3-.21-.87.62-1.92 1.98-1.99zM7.3 257.86c-.26-1.28-.49-3.44-.68-4.35a14.33 14.33 0 01-.48-2.65c0-.43.44-.94.82-1.29.11-.11.66.16 1 .27 1.46.44 1 1.57 1 2.53s-.29 3.74-.18 4.75c.12 1.19-.17 1.35-1.38 1-.11-.13-.19-.39-.1-.26z" fill="currentColor"/></svg>