<svg xmlns="http://www.w3.org/2000/svg" viewBox="0 0 20.38 307.36"><path d="M14.25 307.36c1.89-.16 6.89-12 6-12.75s-13.11 0-14.06 1.15c-.55.68 6.36 11.78 8.06 11.6zM5.9 35.78c-.44-.88-.88-1.76-1.37-2.6-.23-.39-.71-.65-.84-1.06a4.94 4.94 0 01-.48-1.48c.08-.9.74-1.54.83-2.43 0-.13.29-.62.41-1a3 3 0 01.33-.49c.14-.14.37-.17.5-.31.3-.31.84-.72.79-1-.16-.71-.41-1.76-.89-2-1.55-.66-.88-2.67-2.07-3.45 0 0-.34-.3-.31-.38.11-.35-.41-.44-.3-.79 0 0 .08-.39 0-.41.05-.51.9-.79 1-1.29.07-.31.63-.67.74-.81.88-1.14 1.39-1 1.51-2.14a3.82 3.82 0 00-.34-2.1 5.35 5.35 0 01-.71-1.46c-.22-.94-.63-1.83-.94-2.74a1.48 1.48 0 01-.1-.66c.2-.52.44-.62.55-1.18.07-.33.23-.82.33-1.15a2.2 2.2 0 01.37-.84 2.65 2.65 0 00.57-.81 7.48 7.48 0 01.42-.66 4 4 0 000-.92c.1-.6.1-.8-.34-1.18A1.28 1.28 0 004.3.05l-.77.56a3.15 3.15 0 00-.45 1.1c-.29 1.09-1.45 1.72-1.44 3 0 .17-.25.33-.27.51C1.3 5.81 1 6 1 6.54c0 .2 0 .52-.08.58-.16.42-.47 1.09.08 1.63a3.69 3.69 0 01.84 1.38 16.06 16.06 0 01.8 2.55 2 2 0 010 1.16c-.37.53-1 .87-1.34 1.4a6.43 6.43 0 00-1 2c-.12 1.3-.64 1.58.42 3.3.23.38.09.93.27 1.34a4.49 4.49 0 00.79 1.22c.5.53.35 1.11.3 1.73 0 .29.25.63.18.89a11.19 11.19 0 01-1 2.28c0 .05-.07.07-.12.12a.65.65 0 01-.09.08 23 23 0 01-.71 2.56A5.22 5.22 0 002 34.36a2.75 2.75 0 01.7.84c-.21.28-.46.53-.69.8l3.91-.05a.26.26 0 00-.02-.17z" fill="currentColor"/><path d="M6.85 91.91c-.44-.87-.89-1.74-1.39-2.58-.23-.39-.71-.65-.85-1.05a4.73 4.73 0 01-.48-1.49c.07-.89.73-1.54.81-2.43 0-.13.29-.62.4-1a3.08 3.08 0 01.33-.5c.13-.14.36-.17.5-.31.29-.31.83-.73.78-1-.17-.71-.43-1.75-.91-2-1.55-.64-.9-2.66-2.09-3.43 0 0-.34-.3-.31-.38.11-.35-.42-.44-.31-.79 0 0 .08-.39 0-.41.05-.51.89-.8 1-1.29.07-.32.63-.68.73-.82.94-1.08 1.4-.99 1.51-2.08a3.65 3.65 0 00-.35-2.1 5.68 5.68 0 01-.72-1.46c-.23-.93-.64-1.82-1-2.73 0-.12.06-.29.11-.43a9.05 9.05 0 00.62-1.56c.07-.33-.07-.68 0-1 .19-.6.8-1 1-1.54 0-.08-.11-.28-.1-.29a3.47 3.47 0 00.94-2.64c-.25-.79-.66-.88-.78-1.73 0-.08-.16-.14-.2-.23-.47-1.18-1.37-1.82-1.62-3.1-.15-.74.48-1.62.66-2.47.09-.47-.11-1 0-1.48s.5-1.13.55-1.71a4.59 4.59 0 00-.85-3.05c-.57-.67-1.38-1-1.71-1.93-.54-1.44.52-2.12 1.05-3a12.42 12.42 0 011.63-1.78.62.62 0 00.11-.2L2 36c-.32.38-.63.77-1 1.13a4.47 4.47 0 00-.95 1.64 9.73 9.73 0 00.06 2.53 4.09 4.09 0 001.26 2.24c1 .6.93 1.59 1.25 2.4.53 1.32-.54 2.37-.71 3.59-.14 1-1.12 1.86-.35 3 .39.56.77 1.14 1.13 1.72a12.77 12.77 0 001.27 2c.67.72 0 1.15-.17 1.67-.29 1.1-1.44 1.74-1.42 3 0 .18-.25.34-.26.52-.07.58-.35.77-.38 1.35 0 .2 0 .52-.07.59-.15.41-.45 1 .12 1.58a3.63 3.63 0 01.85 1.37 15.12 15.12 0 01.81 2.55 1.75 1.75 0 010 1.16c-.36.53-.95.88-1.32 1.41a6.46 6.46 0 00-1 2c-.09 1.3-.6 1.62.47 3.34.23.37.1.93.28 1.33a4.18 4.18 0 00.8 1.21c.5.53.36 1.12.31 1.73 0 .3.25.63.19.89a12.42 12.42 0 01-1 2.25c0 .05-.08.07-.11.11H2s-.06 0-.09.09a21.3 21.3 0 01-.7 2.55 5.2 5.2 0 001.71 3.59 2.63 2.63 0 01.7.83c-.21.28-.46.54-.69.81l3.91-.08a.29.29 0 00.01-.19zm1.35 56.13c-.45-.87-.9-1.74-1.41-2.57-.24-.39-.71-.64-.86-1.05a4.87 4.87 0 01-.49-1.48c.06-.89.72-1.55.79-2.44 0-.13.29-.62.39-1a3.08 3.08 0 01.33-.5c.13-.14.37-.18.5-.32.29-.31.83-.73.77-1-.17-.71-.44-1.75-.92-1.94-1.56-.64-.91-2.66-2.11-3.42 0 0-.35-.29-.32-.38.11-.35-.42-.43-.31-.78 0 0 .07-.4 0-.42 0-.5.88-.8 1-1.3.06-.31.62-.68.72-.82.87-1.16 1.38-1.07 1.48-2.16a3.75 3.75 0 00-.37-2.1 5.48 5.48 0 01-.73-1.45c-.23-.93-.66-1.81-1-2.73 0-.11.06-.29.11-.42a8.8 8.8 0 00.61-1.57c.06-.33-.07-.67 0-1 .18-.61.79-1 1-1.54 0-.08-.11-.29-.1-.3a3.45 3.45 0 00.92-2.64c-.26-.79-.67-.87-.8-1.72 0-.09-.15-.14-.2-.24-.53-1.17-1.43-1.8-1.69-3-.15-.73.47-1.62.64-2.47.1-.46-.11-1 0-1.47s.49-1.14.54-1.72a4.59 4.59 0 00-.88-3c-.57-.67-1.39-1-1.73-1.92-.54-1.43.51-2.12 1-3a11.79 11.79 0 011.61-1.79.49.49 0 00.11-.2l-3.91.08c-.32.38-.62.77-1 1.13A4.39 4.39 0 001 94.95a10.09 10.09 0 00.08 2.52 4 4 0 001.27 2.23c1 .6.93 1.58 1.26 2.39.54 1.32-.53 2.37-.68 3.6-.13 1-1.11 1.86-.33 3 .4.56.77 1.13 1.15 1.71a13.27 13.27 0 001.27 2c.68.71 0 1.14-.15 1.67-.28 1.09-1.43 1.74-1.4 3 0 .17-.25.33-.26.52-.06.57-.34.77-.37 1.34 0 .21 0 .53-.07.59-.14.42-.44 1.06.13 1.59a3.77 3.77 0 01.87 1.36 15.83 15.83 0 01.83 2.55 1.87 1.87 0 010 1.15c-.36.54-1 .89-1.32 1.42a6.6 6.6 0 00-1 2c-.07 1.3-.58 1.62.5 3.33.24.38.11.93.29 1.34a4.09 4.09 0 00.81 1.2c.5.53.36 1.11.32 1.73 0 .29.26.63.2.89a12.4 12.4 0 01-1 2.25v.05a1.09 1.09 0 01-.11.1l-.09.09c0 .84-.56 1.66-.67 2.56a5.19 5.19 0 001.71 3.59 2.59 2.59 0 01.76.82c-.21.29-.45.54-.68.81l3.91-.1a.29.29 0 00-.03-.21zm1.74 56.12c-.46-.86-.91-1.73-1.43-2.56-.24-.39-.71-.64-.86-1.05a4.82 4.82 0 01-.5-1.47c0-.9.7-1.55.77-2.45 0-.12.28-.62.39-1a2.48 2.48 0 01.32-.5c.13-.15.36-.18.5-.33.29-.31.82-.73.76-1-.17-.71-.45-1.75-.93-1.94-1.57-.62-.94-2.65-2.14-3.4 0 0-.35-.29-.32-.37.1-.36-.42-.44-.32-.79 0 0 .07-.4 0-.41 0-.51.88-.81 1-1.31.06-.32.62-.68.72-.83.86-1.16 1.36-1.08 1.46-2.17a3.79 3.79 0 00-.36-2.04 5.68 5.68 0 01-.75-1.45c-.23-.93-.67-1.81-1-2.72 0-.11 0-.29.1-.43a8.76 8.76 0 00.6-1.57c.06-.33-.08-.67 0-1 .17-.61.78-1 1-1.55 0-.08-.11-.28-.1-.29a3.44 3.44 0 00.9-2.65c-.26-.79-.67-.87-.81-1.72 0-.08-.15-.14-.2-.23-.54-1.17-1.44-1.8-1.71-3-.16-.73.46-1.63.62-2.47.09-.47-.12-1 0-1.48s.48-1.14.52-1.72a4.56 4.56 0 00-.89-3c-.58-.66-1.4-1-1.74-1.91-.56-1.43.49-2.12 1-3a12.35 12.35 0 011.6-1.8.64.64 0 00.11-.2l-3.91.1c-.32.39-.62.78-1 1.14a4.64 4.64 0 00-.94 1.66 10.58 10.58 0 00.1 2.52 4.06 4.06 0 001.29 2.22c1 .59 1 1.57 1.28 2.38.55 1.31-.51 2.38-.66 3.6-.12 1-1.09 1.88-.3 3 .39.56.78 1.13 1.15 1.71a14.12 14.12 0 001.29 2c.69.71 0 1.14-.14 1.67-.27 1.1-1.42 1.75-1.38 3 0 .17-.24.34-.26.52 0 .58-.33.77-.35 1.35 0 .2 0 .53-.07.59-.14.42-.43 1.06.14 1.58a3.67 3.67 0 01.88 1.36 16.12 16.12 0 01.85 2.54 1.86 1.86 0 010 1.15c-.35.54-.94.9-1.3 1.44a6.21 6.21 0 00-1 2c-.07 1.3-.57 1.63.52 3.33.23.37.11.93.29 1.33a4.36 4.36 0 00.83 1.2c.5.52.36 1.11.33 1.73 0 .29.26.62.2.88a12.47 12.47 0 01-1 2.26c0 .05-.08.06-.11.1l-.09.08a22.62 22.62 0 01-.66 2.57A5.19 5.19 0 006 202.83a2.71 2.71 0 01.71.82c-.2.29-.45.54-.68.82l3.91-.14a.25.25 0 000-.17z" fill="currentColor"/><path d="M12.08 260.27c-.46-.87-.93-1.73-1.45-2.56-.24-.38-.72-.63-.87-1a5 5 0 01-.51-1.48c.05-.89.69-1.55.75-2.45 0-.13.28-.62.38-1a3.16 3.16 0 01.33-.51c.12-.14.36-.18.49-.32.29-.32.82-.75.76-1-.18-.7-.47-1.74-1-1.93-1.57-.61-.95-2.64-2.16-3.39 0 0-.35-.28-.33-.36.11-.36-.42-.43-.32-.79 0 0 .07-.4 0-.41 0-.51.88-.82 1-1.31.06-.32.61-.69.71-.84.85-1.17 1.36-1.09 1.45-2.18a3.8 3.8 0 00-.4-2.09 5.18 5.18 0 01-.75-1.44c-.25-.93-.69-1.81-1-2.72 0-.11.05-.29.1-.43a9.56 9.56 0 00.59-1.57c.06-.33-.08-.67 0-1 .17-.61.78-1 .94-1.56 0-.08-.11-.28-.1-.29a3.46 3.46 0 00.88-2.65c-.27-.79-.68-.87-.82-1.72 0-.08-.16-.13-.2-.23-.55-1.17-1.46-1.78-1.74-3-.16-.73.45-1.63.61-2.48.09-.47-.13-1 0-1.48s.48-1.14.52-1.73a4.53 4.53 0 00-.92-3c-.58-.67-1.4-1-1.75-1.9-.57-1.43.48-2.13 1-3a11.79 11.79 0 011.56-1.91.59.59 0 00.1-.21l-3.93.14c-.31.38-.61.78-.94 1.14a4.6 4.6 0 00-.92 1.67 10.58 10.58 0 00.11 2.52 4.11 4.11 0 001.31 2.21c1 .58 1 1.57 1.3 2.37.56 1.31-.5 2.38-.64 3.61-.11 1-1.08 1.88-.28 3 .4.56.78 1.12 1.17 1.7a13.23 13.23 0 001.3 2c.69.7 0 1.14-.13 1.67-.26 1.1-1.41 1.76-1.36 3.05 0 .17-.24.34-.25.52-.05.58-.33.78-.35 1.35 0 .21 0 .53-.06.6-.13.42-.43 1 .15 1.58a3.58 3.58 0 01.89 1.35 15.7 15.7 0 01.86 2.53 1.81 1.81 0 010 1.15c-.35.55-.94.91-1.3 1.45a6.75 6.75 0 00-1 2c0 1.31-.55 1.64.55 3.33.24.37.12.93.3 1.33a4.59 4.59 0 00.83 1.2c.51.51.38 1.1.35 1.72 0 .29.26.62.21.89a11.78 11.78 0 01-.88 2.13v.05a1.09 1.09 0 01-.11.1l-.08.08a24.71 24.71 0 01-.64 2.57 5.2 5.2 0 001.76 3.56 2.74 2.74 0 01.73.82c-.21.29-.45.55-.67.82l3.9-.16a.26.26 0 00-.03-.11zm-1.47 33.49a1.08 1.08 0 01.2.33 5.13 5.13 0 00.74 1.62 1.19 1.19 0 00.4.34c.39.21.72-.14 1.11-.3a1.54 1.54 0 00.65-1.16 3.09 3.09 0 00-.42-1.9 5.5 5.5 0 01-.77-1.44c-.25-.93-.69-1.8-1-2.71 0-.11.05-.29.1-.43a9.82 9.82 0 00.57-1.57c.06-.34-.08-.68 0-1 .16-.61.77-1 .93-1.57 0-.08-.12-.28-.11-.29a3.49 3.49 0 00.87-2.66c-.28-.79-.69-.86-.83-1.71 0-.08-.17-.14-.21-.23-.56-1.16-1.47-1.77-1.76-3-.17-.73.44-1.63.59-2.48.09-.47-.13-1-.06-1.48s.47-1.15.51-1.73a4.58 4.58 0 00-.94-3c-.59-.66-1.41-1-1.77-1.89-.58-1.42.47-2.13 1-3a11.85 11.85 0 011.59-1.86.47.47 0 00.1-.2l-3.9.16c-.31.39-.61.79-.94 1.15a4.64 4.64 0 00-.91 1.67 10.67 10.67 0 00.13 2.53 4.19 4.19 0 001.32 2.2c1 .57 1 1.55 1.32 2.36.57 1.3-.48 2.38-.61 3.61-.11 1-1.07 1.89-.26 3 .4.56.79 1.12 1.18 1.69a12.67 12.67 0 001.31 1.94c.7.7 0 1.15-.12 1.67-.25 1.11-1.39 1.77-1.33 3.06 0 .17-.24.35-.25.53 0 .57-.32.77-.34 1.35 0 .21 0 .53-.05.6-.14.42-.43 1.06.16 1.57a3.66 3.66 0 01.89 1.35 15.8 15.8 0 01.89 2.53 3.69 3.69 0 01.02.35z" fill="currentColor"/></svg>