<svg xmlns="http://www.w3.org/2000/svg" viewBox="0 0 18.5 311.81"><path d="M12.37 311.81c1.89-.15 6.89-12 6-12.75s-13.11 0-14 1.15c-.6.68 6.31 11.78 8 11.6z" fill="currentColor"/><path d="M14.55 298.99c-.16-1.67 0-2.47 0-4.22 0-1.45-.35-3.47-.44-4.82-.17-2.64-.5-5.23-.64-7.88q-.6-11.17-1-22.36l-.25-7.37v-.77c-.11-3.38-.21-6.76-.37-10.14-.1-1.9-.32-6.59-.29-7 0-.71-.32-4.92-.35-5.65 0-.55-.41-6-.5-7.42v-4.9c0-3 0-8.85-.31-11.91l-.23-3.56v-.5c0-.78-.06-1.69-.14-2.6-.38-10.24-.64-20.49-1.17-30.73-.18-3.58-.39-7.12-.39-10.76 0-6.43-.14-12.9-.26-19.35-.06-3-.39-5-.23-9.13 0-1.78.14-5.12.08-6.86-.11-3.23-.27-4.85-.39-8.09Q7.29 102.15 7 91.35c0-1.89 0-3.8.07-5.68A62.71 62.71 0 007 76.99a56.29 56.29 0 01-.4-8c.15-4.84-.11-9.66-.17-14.54-.1-7.74-.19-14.63 0-22.35 0-2.24.3-4.51.18-6.7-.3-5.47.08-10.38.18-16.22C6.77 6.73 6 .99 5.05.27c-.53-.4-1.18.21-1.72-.15C2.08-.71 0 2.87 0 6.1c.05 3.41.23 6.82.29 10.23S.28 23.46.4 26.99c.11 2.82.63 5.64.59 8.4-.06 2.94.26 5.78.06 8.93-.29 4.54.09 9.35.13 14 .11 10.36.3 20.91.31 31.31 0 6.61.45 13.32.61 19.78.48 18 .84 35.92 1.55 53.88l.42 13.42c.19 6.07.53 10.63.34 16.58v1.05c0 2.82.09 6 .25 8.86.15 5.78.32 11.57.42 17.32.1 6.61.64 13.31.92 19.77l1.57 36.7c.15 6.79-.34 13.61-.09 20.17a21.83 21.83 0 00.73 5 19.2 19.2 0 00.67 2.48 1.45 1.45 0 001.63.71c1.87-.36 4.34-3.03 4.04-6.36z" fill="currentColor"/></svg>