<svg xmlns="http://www.w3.org/2000/svg" viewBox="0 0 11 75.7"><path d="M6.21 29.25a3.74 3.74 0 010-.66c0-.22-.09-.53-.1-.74 0-.41-.12-.81-.13-1.23 0-1.15-.07-2.3-.09-3.46v-.6H6a3.85 3.85 0 000-.48 1.28 1.28 0 010-.33s-.06-.23-.06-.27a.94.94 0 01-.09-.18l-2.08.05c0 .23.08.47.1.7V23l.07 2.84c0 1.05-.31 2.11-.31 3.12a1.55 1.55 0 00.2.77c.15.23.11.3.22.38a.93.93 0 00.6.12c.66-.06 1.63-.47 1.56-.98zm-.35-9.17v-.28a.26.26 0 000-.17 19.57 19.57 0 00-.12-2 2.42 2.42 0 010-.71 9.24 9.24 0 00.07-1.28c0-.2-.1-.33 0-.61a2.23 2.23 0 00.08-.45c0-.21-.06-.32-.08-.53 0-.48-.08-.95-.1-1.43a1.19 1.19 0 01.06-.37.83.83 0 000-.58.72.72 0 01-.11-.53 3.86 3.86 0 000-1V6.92a12 12 0 00.08-1.45A27.87 27.87 0 015.81 2c0-.52-.28-1.76-.62-1.91S4.74.1 4.54 0c-.47-.15-1.26.63-1.25 1.33l.11 2.22v2.31c0 .61.23 1.22.21 1.81v1.8a2.64 2.64 0 000 .93c0 .68 0 1.38-.06 2.07a11.2 11.2 0 00.1 1.3c.05 1.19 0 2.38.13 3.56v.89a3.07 3.07 0 01-.05 1.09v.06a1.14 1.14 0 000 .37 2.48 2.48 0 010 .72c.66 0 1.46.06 2.13 0a.45.45 0 000-.2.86.86 0 010-.18z" fill="currentColor"/><path d="M5.88 26.38a5.4 5.4 0 010-.87c0-.38.08-1.11.06-1.49s0-.61 0-.87v-.44c0-.47-.07-.95-.1-1.42a1.67 1.67 0 01.06-.38.71.71 0 000-.57.72.72 0 01-.11-.53 3.16 3.16 0 000-1v-.79a2.93 2.93 0 01-.1-.65c-.53.07-1.11.11-1.66.15a1.51 1.51 0 01-.17.52.74.74 0 010 .12c-.13.3 0 .61 0 .92v2.07a11.37 11.37 0 00.09 1.31v3.84a3.11 3.11 0 011.93.08zM5.31 45.1a.73.73 0 01-.78-.1 1.14 1.14 0 01-.33-1.06 14.11 14.11 0 00-.09-3.11c0-1.12 0-2.29-.11-3.41a9.87 9.87 0 00-.28-2.72 1.57 1.57 0 01.55-1.95 1.3 1.3 0 011.07-.11c.7.23.79 1.24.83 1.86s-.29 1.09-.27 1.74c0 .32-.06.64-.07 1 0 1.13 0 2.27-.07 3.41 0 .53-.17 1-.23 1.58s.17 1.06.14 1.59c-.02.27-.01 1.1-.36 1.28zM3.84 49c0-.37 0-1.49.55-1.53a1.1 1.1 0 01.68.27 8.68 8.68 0 01.9.7 1.18 1.18 0 01.34.46c.17.49-.09 1.06-.09 1.56A19.31 19.31 0 015.69 53c-.14.95.15 1.76-.66 2.27-.23-.24-.6-.56-.64-.91-.18-1.7-.39-3.36-.53-5.15a2.46 2.46 0 01-.02-.21zm.35 11.35a1.73 1.73 0 01.22-1c.46-.76 1.81-.94 1.93.15a6.46 6.46 0 01-.22 1.79c-.06.43-.38 1.84-.94 1.44a4.07 4.07 0 01-.93-2 2.83 2.83 0 01-.06-.38zm1.44 8.46c-1 .15-1.77-1.55-1.19-2.32a1.36 1.36 0 012-.07c.39.64-.03 2.21-.81 2.39z" fill="currentColor"/><path d="M5.92 75.7c1.47-.07 5.66-9.11 5-9.7S.79 65.68 0 66.51c-.43.49 4.61 9.25 5.92 9.19z" fill="currentColor"/></svg>