<svg xmlns="http://www.w3.org/2000/svg" viewBox="0 0 33.94 208.83"><path d="M10.3 196.5c.27-1.18.52-1.71.84-2.94.27-1 .54-2.46.76-3.42.42-1.87.82-3.72 1.24-5.6 1.25-5.27 2.41-10.57 3.43-15.9.33-1.76.68-3.52 1-5.28l.07-.42v-.14c.44-2.42.75-4.87 1.07-7.32.15-1.38.48-4.79.53-5.1.1-.51.2-3.6.24-4.13s.11-4.39.12-5.43.06-2.39.1-3.58a64 64 0 00-.31-8.72l-.29-2.62v-.37a13.76 13.76 0 00-.24-1.89c-.86-7.49-3.37-14.67-2.6-21.67a17.54 17.54 0 012.24-6.93c2.19-3.86 5.33-7.28 8.3-11a58 58 0 003.9-5.59 27.28 27.28 0 002.26-4.72c.19-.59.35-1.11.46-1.61a13.43 13.43 0 00.29-1.43 10.84 10.84 0 00.18-1.45 13.18 13.18 0 00.07-1.72 13 13 0 00-2.71-8.09 17.39 17.39 0 00-6.7-5c-1.31-.53-2.55-1.1-3.85-1.64L15 50.37a12.41 12.41 0 01-4.48-3 17.48 17.48 0 01-4.05-8.73 49.85 49.85 0 01-.74-7.84 73.49 73.49 0 01.21-7.9c.13-1.59.39-3.19.52-4.74A62.72 62.72 0 018.61 6.84c.4-1.65 1.21-5.67 1-6.3C9.4.18 9 .5 8.78.17c-.4-.78-2.24 1.36-2.86 3.67S4.8 8.73 4.36 11.2s-.88 5.17-1.09 7.77c-.17 2.07 0 4.16-.14 6.18s.06 4.24 0 6.54a35.62 35.62 0 001.49 10.37 18.4 18.4 0 002.61 5.46 16.16 16.16 0 004.52 4.17c3.43 2.18 7.17 3.29 10.48 4.79a20.6 20.6 0 015.7 3.42A9.82 9.82 0 0131 65.24 15.66 15.66 0 0129.84 74a27.22 27.22 0 01-2.09 4.14A39.05 39.05 0 0125 81.97c-2 2.51-4.15 5-6.11 7.65a27.94 27.94 0 00-4.6 9 27.85 27.85 0 00-.57 10.1c.49 4.49 1.45 7.69 1.91 11.91l.08.64v.1c.11 1 .26 2.07.42 3.13s.23 2.15.34 3.15a106.23 106.23 0 01.38 12.35c-.17 4.72-.37 9.53-.89 14.14a241.68 241.68 0 01-4.66 25.93c-1.19 4.75-2.76 9.41-4 14a23.68 23.68 0 00-.66 3.55 18.06 18.06 0 00-.19 1.82c0 .49.28.73.63.76.97.11 2.69-1.36 3.22-3.7z" fill="currentColor"/><path d="M6.08 208.83c1.89.15 8.77-10.73 8-11.59s-12.9-2.11-14.02-1.17c-.68.58 4.33 12.62 6.02 12.76z" fill="currentColor"/></svg>