<svg xmlns="http://www.w3.org/2000/svg" viewBox="0 0 11 74.95"><path d="M5.7 18.79c-.33-.46-.66-.92-1-1.35-.17-.21-.53-.34-.63-.56s-.38-.56-.35-.78c.05-.47.55-.81.62-1.27 0-.07.22-.33.3-.54a3.18 3.18 0 01.26-.26c.1-.07.27-.09.37-.16s.63-.39.59-.51c-.12-.38-.31-.92-.66-1-1.17-.33-.66-1.39-1.55-1.8 0 0-.25-.15-.23-.19s-.31-.23-.23-.42c0 0 .06-.21 0-.21 0-.27.67-.43.75-.69s.47-.35.55-.43c.66-.6 1-.56 1.13-1.13a1.44 1.44 0 00-.25-1.1 2.56 2.56 0 01-.54-.77 14.61 14.61 0 00-.71-1.43c0-.06-.11-.27-.07-.35.15-.27.33-.33.41-.62a5.09 5.09 0 01.25-.6A1.15 1.15 0 015 2.14c.15-.13.36-.27.43-.43s.21-.24.29-.39 0-.35 0-.49c0-.3.07-.41-.26-.61a1.26 1.26 0 00-1-.19l-.57.3a1.3 1.3 0 00-.34.58c-.22.57-1.09.91-1.08 1.59 0 .09-.19.17-.2.27-.05.3-.26.4-.29.71 0 .11 0 .27-.06.31-.11.22-.34.55.09.83a1.86 1.86 0 01.63.72 6.32 6.32 0 01.6 1.33c.05.2.11.47 0 .61s-.72.47-1 .75a3.23 3.23 0 00-.77 1c-.07.69-.45.85.33 1.76.18.19.07.48.2.7a2.55 2.55 0 00.6.63c.37.28.26.59.22.91 0 .15.18.33.14.47a5.74 5.74 0 01-.78 1.2s-.06 0-.09.06l-.09.08c0 .44-.44.87-.53 1.34s.64 1.56 1.24 1.89a1.79 1.79 0 01.53.43c-.16.15-.35.29-.53.43l2.94-.05a.15.15 0 00.05-.09zm.45 29.5c-.33-.45-.65-.91-1-1.35-.18-.21-.53-.34-.64-.56s-.38-.56-.35-.78c.06-.46.56-.81.62-1.27 0-.07.23-.33.31-.53a3.08 3.08 0 01.25-.27c.1-.07.28-.09.38-.16s.63-.39.59-.51c-.12-.37-.31-.92-.67-1-1.16-.33-.65-1.39-1.54-1.8 0 0-.26-.15-.24-.19.09-.19-.31-.23-.22-.42 0 0 .06-.21 0-.21 0-.27.68-.43.76-.69s.47-.35.55-.43c.66-.6 1-.56 1.13-1.13a1.49 1.49 0 00-.26-1.1 2.52 2.52 0 01-.53-.77 14.61 14.61 0 00-.71-1.43c0-.06 0-.15.08-.23a4.28 4.28 0 00.48-.82c.05-.17 0-.35 0-.52s.61-.51.74-.81c0-.05-.08-.15-.07-.16.4-.17.87-1.06.72-1.39s-.5-.46-.58-.9c0-.05-.12-.08-.15-.12-.39-.62-1.06-.95-1.24-1.61-.11-.38.36-.85.5-1.3.07-.24-.08-.52 0-.77s.38-.6.42-.91a1.92 1.92 0 00-.63-1.6c-.43-.35-1-.53-1.28-1-.4-.76.4-1.12.8-1.59a8 8 0 011.22-.94.24.24 0 00.09-.11l-2.94.05c-.24.2-.47.4-.72.59a2.49 2.49 0 00-.73.87c0 .55-.14.8 0 1.33a2.13 2.13 0 00.94 1.17c.74.31.69.83.93 1.25.39.69-.42 1.25-.55 1.89s-.84 1-.26 1.57c.29.29.56.59.84.9a7 7 0 00.94 1c.5.37 0 .6-.14.88-.21.57-1.08.91-1.07 1.59 0 .09-.19.18-.21.27 0 .3-.26.4-.28.71 0 .11 0 .27-.06.31-.11.22-.34.55.08.83a2 2 0 01.64.72 6.14 6.14 0 01.59 1.34c.06.19.12.47 0 .6s-.72.47-1 .75-.74.78-.76 1c-.07.69-.46.86.33 1.76.17.19.07.48.2.7a2.38 2.38 0 00.6.63c.37.28.25.59.22.91 0 .15.18.33.13.47a5.37 5.37 0 01-.72 1.24.47.47 0 01-.09.06l-.07.05c0 .44-.44.87-.54 1.34s.62 1.55 1.23 1.88a1.7 1.7 0 01.52.43c-.16.15-.35.29-.52.43h2.93s.03-.12.01-.14z" fill="currentColor"/><path d="M4.22 65.87a.49.49 0 01.14.18 2.42 2.42 0 00.51.86.85.85 0 00.3.19c.29.12.54-.07.84-.14s.47-.27.52-.6a1.28 1.28 0 00-.27-1 2.75 2.75 0 01-.54-.77A12.57 12.57 0 005 63.16c0-.06 0-.15.08-.23a4.23 4.23 0 00.47-.82v-.52c0-.17.6-.51.74-.81 0 0-.08-.15-.07-.16.4-.17.86-1.06.71-1.39s-.49-.46-.57-.9c0-.05-.12-.08-.15-.12-.32-.62-.99-.97-1.21-1.61-.11-.38.37-.85.5-1.3.08-.24-.07-.52 0-.77s.37-.6.42-.91a1.87 1.87 0 00-.64-1.59c-.42-.36-1-.54-1.28-1-.39-.76.4-1.12.8-1.59a8.65 8.65 0 011.23-.94.24.24 0 00.08-.11H3.18c-.24.2-.47.41-.73.59s-.73.72-.72.87c0 .55-.14.8 0 1.33a2.11 2.11 0 00.93 1.17c.75.31.69.83.93 1.25.4.69-.41 1.25-.54 1.89s-.85 1-.27 1.57c.29.29.57.59.85.9a7 7 0 00.94 1c.5.38 0 .6-.14.88-.22.57-1.09.91-1.08 1.59 0 .09-.18.18-.2.27-.05.3-.26.41-.29.71 0 .11 0 .28-.05.31-.11.22-.35.55.08.83a1.86 1.86 0 01.63.72 6.18 6.18 0 01.6 1.34 1.25 1.25 0 01.1.26z" fill="currentColor"/><path d="M5.92 74.95c1.47-.07 5.66-9.11 5-9.7S.79 64.92 0 65.76c-.43.48 4.61 9.25 5.92 9.19z" fill="currentColor"/></svg>