<svg xmlns="http://www.w3.org/2000/svg" viewBox="0 0 35.68 216.73"><path d="M21.33 148.83a4.5 4.5 0 01.14-.87v-1c0-.55-.06-1.1 0-1.65l.13-4.67v-6.3l-.15-2.66c0-.5-.08-1.36-.12-2.13s-.14-1.43-.14-1.55c0-.37-.32-2.57-.36-2.94 0-.15-.21-1.15-.37-2-.95.09-1.79.4-2.74.49.23 1.26.33 2.54.49 3.8s.31 2.53.35 3.78c.07 1.56.22 3.12.2 4.68v3.52a5.81 5.81 0 010 .59v.32l-.1 3.75c-.11 1.38-.64 2.74-.75 4.07a1.9 1.9 0 00.19 1c.16.33.11.42.23.54a1.3 1.3 0 00.79.23c.88.17 2.24-.3 2.21-1zM18.32 110s-.06-.47-.13-1-.14-1.2-.16-1.61V107c0-.54-.06-1.16-.1-1.8a19.92 19.92 0 012.37-10 58.15 58.15 0 016.27-8.83c1.62-2 3.26-4 4.81-6.35a27 27 0 003.26-6.56 18.27 18.27 0 001-7.49c0-.61-.19-1.16-.28-1.7s-.31-1.06-.52-1.59a14 14 0 00-.77-1.64c-.17-.29-.32-.6-.52-.91l-.67-1a9 9 0 00-.82-1 9 9 0 00-1.06-.97 16.14 16.14 0 00-2.17-1.61A35.71 35.71 0 0023.22 53a62.8 62.8 0 01-7.06-3 13.81 13.81 0 01-5.35-4.61A13.52 13.52 0 019.24 42 49.39 49.39 0 018 36.2a30.65 30.65 0 01-.53-5.69c0-3.46 0-6.9.3-10.37.11-1.38.26-2.71.44-4 .09-.66.17-1.31.29-2l.16-1 .08-.49v-.3c.21-1 .43-2 .72-3.1.15-.62.44-1.21.54-1.83a25.91 25.91 0 011.34-4.39c.2-.65.35-2.31 0-2.65-.21-.19-.58-.12-.8-.31C10-.29 8.7.37 8.42 1.28s-.49 1.94-.73 2.91-.57 2-.76 3c-.16.82-.07 1.68-.28 2.46A10.9 10.9 0 006.42 11c0 .21-.07.42-.11.64l-.08.32-.05.19-.09.42a66.15 66.15 0 00-1.17 10.21A90 90 0 005 34.27a29.37 29.37 0 002.79 11.51 14.76 14.76 0 005.32 5.71 38.92 38.92 0 006.69 3.16 40.57 40.57 0 018.53 4 12.55 12.55 0 013.06 3.11 10 10 0 011.47 4 17 17 0 01-1.49 8.83 34 34 0 01-5 7.95c-2 2.51-4.16 5-6.09 7.68a31.54 31.54 0 00-3.13 5.43 24.78 24.78 0 00-1.79 6l-.09.69v.11a24.49 24.49 0 00-.1 4.21c.22 2.81.65 5.27 1.09 8a6.16 6.16 0 003 .35c-.12-.69-.23-1.32-.39-2.08-.25-.93-.43-1.93-.55-2.93z" fill="currentColor"/><path d="M21.23 144.94a9 9 0 01.09-1.16c0-.52.18-1.49.19-2s0-.83 0-1.18v-2.32a112.8 112.8 0 00-1.16-15.79c-.23-1.37-.35-2.77-.56-4.13-.33-2.24-.65-4.13-1.12-6.18a26.44 26.44 0 01-.81-5.62 22.42 22.42 0 011.57-9.7 32.35 32.35 0 014.46-7.07c1.36-1.89 2.88-3.72 4.42-5.63a6.82 6.82 0 01-2.59-.34c-1.23 1.45-2.52 2.86-3.81 4.31l-.12.12-.84 1a25.7 25.7 0 00-4.95 9.4 29.38 29.38 0 00-.42 11.76c.5 3.85 1.41 7.54 1.85 11.22a116.08 116.08 0 011.31 14.08v3.94l-.06 1.86-.1 3.14a4.19 4.19 0 012.65.29zm-4.4 24.68a1 1 0 01-1-.4 1.54 1.54 0 01-.15-1.48 16.57 16.57 0 00.67-4.05c.21-1.48.57-3 .64-4.48 0-1.09.47-2.54.17-3.62a2.1 2.1 0 011.07-2.46 1.78 1.78 0 011.43 0c.87.42.86 1.79.77 2.63s-.59 1.4-.7 2.26c-.06.42-.21.83-.29 1.25-.25 1.51-.55 3-.87 4.49-.16.69-.46 1.34-.69 2s-.06 1.44-.23 2.13c-.1.51-.31 1.6-.82 1.73zm-3.02 4.58c.1-.48.46-1.91 1.16-1.82a1.44 1.44 0 01.8.56 11.92 11.92 0 011 1.16 1.77 1.77 0 01.31.72c.08.68-.44 1.35-.6 2a24.85 24.85 0 01-1.51 3.24c-.48 1.18-.39 2.33-1.59 2.71a2.54 2.54 0 01-.53-1.38c.3-2.27.68-4.56.94-6.85-.02-.12 0-.23.02-.34zM10.55 189a2.37 2.37 0 01.64-1.22c.84-.82 2.64-.59 2.43.87a8.7 8.7 0 01-.9 2.23c-.23.53-1.14 2.24-1.72 1.52a5.61 5.61 0 01-.52-2.84 3.43 3.43 0 01.07-.56zm-1.14 11.38h-.08c-1.39-.18-1.71-2.62-.69-3.4a1.82 1.82 0 012.64.64c.3.93-.8 2.8-1.87 2.76zm-2.76 15.2a1.71 1.71 0 01.14.62.3.3 0 010 .23.38.38 0 01-.38.09c-1.1-.2-2.56-1.94-3.32-3.37A43 43 0 01.45 206l-.17-.58-.08-.29a2.31 2.31 0 01-.09-.36 3.78 3.78 0 01-.11-.92 1.08 1.08 0 01.11-.4c0-.06.1-.1.09-.19l.15-.15a2.66 2.66 0 01.71-.3 5.38 5.38 0 01.77-.13c.36 0 .71-.05 1.07-.07h2.08c1.38 0 2.75.12 4.12.26q1.71.17 3.42.48l.86.17.43.1.52.14a2.28 2.28 0 011.17.66c.05.22.21.39.17.62a2.06 2.06 0 01-.09.68 5.66 5.66 0 01-.19.58c-.05.13-.09.26-.15.38s-.22.49-.33.73c-.24.47-.49.92-.75 1.37-.52.9-1.07 1.76-1.65 2.61s-1.09 1.53-1.62 2.29a13.23 13.23 0 01-1.71 2.15 3.29 3.29 0 01-1.37.83c-.44.12-.82.05-.95-.15s0-.38 0-.56a.89.89 0 01.2-.57c.54-.69 2.23-2.6 3.06-3.77a37.3 37.3 0 003.25-5.17c.13-.27.25-.54.36-.8v-.11c-.07-.09.1 0-.68-.23-1.17-.26-2.41-.44-3.64-.6a43 43 0 00-7.38-.43h-.4c-.06 0 0 .09 0 .14l.06.18a11.62 11.62 0 00.39 1.18c.3.8.63 1.6 1 2.39a57.15 57.15 0 002.58 5.34 19 19 0 01.99 2.08z" fill="currentColor"/></svg>