<svg xmlns="http://www.w3.org/2000/svg" viewBox="0 0 33.98 208.83"><path d="M19.63 148.83a5.38 5.38 0 01.13-.87v-2.65l.13-4.67v-6.3l-.14-2.66c0-.5-.08-1.36-.13-2.13s-.14-1.43-.14-1.55c0-.37-.32-2.57-.35-2.94 0-.15-.21-1.15-.38-2-.94.09-1.78.4-2.73.49.23 1.26.32 2.54.49 3.8s.31 2.53.35 3.78c.06 1.56.22 3.12.2 4.68v4.43l-.1 3.75c-.11 1.38-.65 2.74-.75 4.07a2 2 0 00.18 1c.17.33.11.42.24.54a1.26 1.26 0 00.79.23c.91.17 2.24-.3 2.21-1zM16.62 110s-.06-.47-.14-1-.13-1.2-.15-1.61v-.35c0-.54-.07-1.16-.1-1.8a19.92 19.92 0 012.37-10 57.45 57.45 0 016.27-8.83c1.62-2 3.26-4 4.8-6.35a26.65 26.65 0 003.27-6.56 18.1 18.1 0 001-7.49 14 14 0 00-.28-1.7c-.17-.53-.3-1.06-.51-1.59a15.79 15.79 0 00-.77-1.64c-.17-.29-.32-.6-.52-.91l-.67-1a8.17 8.17 0 00-.83-1 8.94 8.94 0 00-1.07-1.06 16.8 16.8 0 00-2.17-1.61 36.13 36.13 0 00-5.6-2.5 62 62 0 01-7.06-3 13.67 13.67 0 01-5.35-4.61A13.18 13.18 0 017.54 42a51.51 51.51 0 01-1.26-5.8 30.68 30.68 0 01-.52-5.69c0-3.46 0-6.9.3-10.37.11-1.38.26-2.71.44-4 .09-.66.17-1.31.28-2l.16-1 .06-.43.06-.3c.2-1 .42-2 .71-3.1.16-.62.45-1.21.55-1.83a25.85 25.85 0 011.35-4.39c.21-.65.36-2.31 0-2.65-.23-.19-.6-.12-.82-.31C8.33-.29 7 .37 6.72 1.28S6.23 3.22 6 4.19s-.57 2-.76 3c-.16.82-.08 1.68-.29 2.46A10.87 10.87 0 004.72 11c0 .21-.07.42-.12.64l-.07.32v.19l-.09.42a65 65 0 00-1.22 10.21 91.83 91.83 0 00.08 11.49 29.55 29.55 0 002.78 11.51 14.86 14.86 0 005.33 5.71 39.19 39.19 0 006.68 3.16c3.05 1.19 6.07 2.26 8.53 4a12.21 12.21 0 013.06 3.11 10 10 0 011.48 4 17.11 17.11 0 01-1.49 8.83 34 34 0 01-5 7.95c-2 2.51-4.15 5-6.08 7.68a30.28 30.28 0 00-3.13 5.43 24.35 24.35 0 00-1.79 6l-.1.69v.11a25.52 25.52 0 00-.11 4.21c.23 2.81.65 5.27 1.1 8a6.15 6.15 0 003 .35c-.12-.69-.24-1.32-.4-2.08-.25-.93-.42-1.93-.54-2.93z" fill="currentColor"/><path d="M19.53 144.94a7.51 7.51 0 01.09-1.16c0-.52.18-1.49.18-2v-3.5a111.31 111.31 0 00-1.16-15.79c-.22-1.37-.34-2.77-.55-4.13-.34-2.24-.65-4.13-1.13-6.18a27.09 27.09 0 01-.81-5.62 22.43 22.43 0 011.58-9.7 32.31 32.31 0 014.45-7.07c1.37-1.89 2.89-3.72 4.42-5.63a6.87 6.87 0 01-2.6-.34c-1.22 1.45-2.51 2.86-3.8 4.31l-.12.12-.84 1a25.55 25.55 0 00-5 9.36 29.2 29.2 0 00-.42 11.76c.5 3.85 1.4 7.54 1.85 11.22A116.05 116.05 0 0117 135.71v5.8l-.1 3.14a4.21 4.21 0 012.63.29zm-4.41 24.68a1 1 0 01-1-.4 1.51 1.51 0 01-.15-1.48 16.57 16.57 0 00.67-4.05c.2-1.48.57-3 .63-4.48 0-1.09.48-2.54.17-3.62a2.11 2.11 0 011.08-2.46 1.78 1.78 0 011.43 0c.87.42.85 1.79.77 2.63s-.6 1.4-.71 2.26c-.05.42-.2.83-.28 1.25-.26 1.51-.56 3-.88 4.49-.16.69-.46 1.34-.68 2s-.06 1.44-.24 2.13c-.09.51-.29 1.6-.81 1.73zm-3.01 4.58c.09-.48.46-1.91 1.16-1.82a1.44 1.44 0 01.8.56 10.55 10.55 0 011 1.16 1.54 1.54 0 01.31.72c.08.68-.44 1.35-.59 2a26.23 26.23 0 01-1.51 3.24c-.48 1.18-.39 2.33-1.6 2.71a2.6 2.6 0 01-.52-1.38c.3-2.27.67-4.56.94-6.85-.03-.12-.01-.23.01-.34zM8.85 189a2.43 2.43 0 01.63-1.22c.85-.82 2.65-.59 2.44.87a8.73 8.73 0 01-.91 2.23c-.22.53-1.14 2.24-1.72 1.52a5.5 5.5 0 01-.51-2.84 3.43 3.43 0 01.07-.56zm-1.14 11.38h-.08c-1.4-.18-1.71-2.62-.69-3.4a1.81 1.81 0 012.63.64c.31.93-.79 2.8-1.86 2.76z" fill="currentColor"/><path d="M6.08 208.83c1.89.15 8.77-10.73 8-11.59s-12.9-2.11-14.02-1.17c-.68.58 4.33 12.62 6.02 12.76z" fill="currentColor"/></svg>