<svg xmlns="http://www.w3.org/2000/svg" viewBox="0 0 35.68 213.07"><path d="M12 196.5c.27-1.18.52-1.71.84-2.94.27-1 .54-2.46.76-3.42.42-1.87.82-3.72 1.24-5.6 1.25-5.27 2.41-10.57 3.43-15.9.33-1.76.68-3.52 1-5.28 0-.14 0-.3.07-.42v-.14c.44-2.42.75-4.87 1.07-7.32.15-1.38.48-4.79.54-5.1.09-.51.19-3.6.23-4.13s.11-4.39.12-5.43.06-2.39.11-3.58a65.68 65.68 0 00-.32-8.72l-.25-2.62v-.37a13.76 13.76 0 00-.24-1.89c-.86-7.49-3.37-14.67-2.6-21.67a17.54 17.54 0 012.24-6.93c2.19-3.86 5.33-7.28 8.3-11a58 58 0 003.9-5.59 27.28 27.28 0 002.26-4.72 15.09 15.09 0 00.46-1.61 13.43 13.43 0 00.29-1.43 10.84 10.84 0 00.18-1.45A14 14 0 0033 59.46a17.39 17.39 0 00-6.7-5c-1.3-.56-2.61-1.13-3.87-1.67l-5.66-2.42a12.41 12.41 0 01-4.48-3 17.48 17.48 0 01-4-8.73 49.85 49.85 0 01-.74-7.84 76.14 76.14 0 01.12-7.9c.13-1.59.39-3.19.52-4.74a62.72 62.72 0 012.15-11.3c.4-1.65 1.21-5.67.95-6.3-.16-.36-.61 0-.78-.37-.4-.78-2.24 1.36-2.86 3.67S6.53 8.73 6.09 11.2 5.21 16.37 5 18.97c-.16 2.07 0 4.16-.14 6.18s.06 4.24 0 6.54a35.62 35.62 0 001.49 10.37A18.65 18.65 0 009 47.52a16.3 16.3 0 004.52 4.17c3.39 2.21 7.13 3.29 10.48 4.79a20.6 20.6 0 015.66 3.42 9.82 9.82 0 013.05 5.33 15.48 15.48 0 01-1.16 8.76 27.22 27.22 0 01-2.09 4.14 39.05 39.05 0 01-2.74 3.83c-2 2.51-4.15 5-6.11 7.65a27.94 27.94 0 00-4.6 9 27.62 27.62 0 00-.56 10.1c.48 4.49 1.44 7.69 1.9 11.91l.08.64v.1c.12 1 .26 2.07.42 3.13s.23 2.15.34 3.15a106.23 106.23 0 01.38 12.35c-.17 4.72-.36 9.53-.89 14.14A239.22 239.22 0 0113 180.12c-1.19 4.75-2.76 9.41-4 14a22.57 22.57 0 00-.67 3.55 18.06 18.06 0 00-.19 1.82c0 .49.28.73.63.76 1.01.06 2.73-1.41 3.23-3.75z" fill="currentColor"/><path d="M13.31 204.37c.28-.46.54-.92.78-1.39.12-.24.23-.48.34-.71s.11-.28.16-.42a1 1 0 00.08-.41c0-.16-.22-.18-.34-.22a2.71 2.71 0 00-.41-.09l-.68-.12c-2.1-.32-4.25-.5-6.39-.7a26.55 26.55 0 00-3.65-.21 2 2 0 00-.76.13c-.18 0-.14.24-.11.35a2.62 2.62 0 00.09.33l.31.79c.28.69.6 1.45 1.2 2.79.16.42 1.36 3.13 1.58 3.53a6.17 6.17 0 00.73 1.12c.26.35.6.58.83.91s.58 1 .77 1.2a.17.17 0 010 .1.47.47 0 00-.06.09 1.61 1.61 0 00-.3 1.13c0 .19 0 .4-.33.48a1.73 1.73 0 01-1.22-.31 6.79 6.79 0 01-2.08-2.41 41.11 41.11 0 01-2.34-5.11c-.33-.87-.65-1.75-.94-2.66l-.21-.72a10.7 10.7 0 01-.3-1.21 3 3 0 010-1.15 4.92 4.92 0 01.24-.45l.06-.13c-.1-.08 0 0 0 0v-.05l.18-.19a3.45 3.45 0 01.66-.35 6.65 6.65 0 011.87-.29h1.12c.72 0 1.43.05 2.14.1 1.41.1 2.81.26 4.2.45l2.1.33 1.05.2.55.11c.28.08.59.14.87.23a2.67 2.67 0 011.39.82 2.9 2.9 0 01.24.72 2 2 0 01-.07.8 5.57 5.57 0 01-.27.85l-.18.42-.12.29-.48 1a36.55 36.55 0 01-3.83 5.82 10.57 10.57 0 01-2.15 2.18 2.94 2.94 0 01-1.28.53c-.41.07-.85-.13-.88-.44a5.5 5.5 0 00.5-1.14 14.49 14.49 0 01.51-1.44 5.13 5.13 0 011.15-1.2c1.22-.42 2.15-1.85 3-3.14.26-.44.47-.79.68-1.14z" fill="currentColor"/></svg>