<svg xmlns="http://www.w3.org/2000/svg" viewBox="0 0 11 74.6"><path d="M5.75 68.74c-1.57.38-3.37-.12-4-3.31 0-.24.42-1.08.41-1.66-.05-6.71-.16-11.42-.22-14.11-.11-4.53-.35-7-.37-11.57 0-4.08.35-2.12.35-6.2 0-2.76-.34-3.5-.38-6.25-.07-4.82.08-5.62 0-10.44 0-2.3-.09-4.62-.34-6.91A10.4 10.4 0 013.06.44c.66-.85 3.66-.29 4.38.31 1.21 1 .62 2.78.28 4.05a34.73 34.73 0 00-1.13 9c0 6.45.36 6.86.52 13.32.09 3.22-.13 6.46-.05 9.68.13 4.85.36 3.65.52 8.5.11 3.53-.06 3 .1 6.57a35.17 35.17 0 00.48 4.12c0 .28.11 2.38.08 2.68a35.26 35.26 0 000 3.56c.04.5 1.69 6.63-2.49 6.51z" fill="currentColor"/><path d="M5.92 74.6c1.47-.07 5.66-9.11 5-9.7S.79 64.58 0 65.41c-.43.51 4.61 9.25 5.92 9.19z" fill="currentColor"/></svg>