<svg xmlns="http://www.w3.org/2000/svg" viewBox="0 0 19.4 17.07"><path d="M18.05 0c.68-.14 1.24.11 1.33.76a5.25 5.25 0 01-1.13 3.4c-1.15 1.42-2.86 2.36-4.15 3.69a31.28 31.28 0 00-2.46 2.86q-.56.73-1.05 1.5c-.1.15-.49.77-.75 1.24S9.31 14.52 9 15.1l-.92 2a4 4 0 01-.44-.65l-.45-.72-.89-1.44c-.55-.88-1.29-2-1.56-2.38-.87-1.21-1.6-2.52-2.37-3.8a16 16 0 00-1.04-1.75A9.41 9.41 0 01.19 4.77a1.65 1.65 0 012-2.37c.87.43 1.7 2.15 2.25 3.07.78 1.32 1.51 2.67 2.34 4 .4.62 1 1.6.9 1.45a2.85 2.85 0 00.17.35l.15-.22.1-.11.05-.06.25-.34c.67-.89 1.38-1.73 2.1-2.54 1.07-1.2 2-2.43 3-3.64s2-2.23 3-3.34A3 3 0 0118.05 0z" fill="currentColor"/></svg>