<svg xmlns="http://www.w3.org/2000/svg" viewBox="0 0 17.02 308.96"><path d="M10.89 308.96c1.89-.16 6.89-12 6-12.75s-13.11 0-14.06 1.15c-.54.68 6.37 11.78 8.06 11.6zM3.58 20.35c-.1.33-.37.62-.25 1 .22.71-.28.86-.63 1a1.89 1.89 0 01-2.07-.29c-.63-.57-.35-.92-.27-1.59.09-.88.66-1.92 1.56-1.88a1.73 1.73 0 01.92.49 3.35 3.35 0 01.57.42 1.17 1.17 0 01.18.48.77.77 0 01-.01.37zm-.8 7.86c.16.14.76.38.84.75.74 2.27-1.16 2.76-1.84 2.6s-1.41-.48-1.46-.83c-.21-1.69.49-2.41 2.46-2.52zM0 2.24c0-.1.05-.1.07-.21A10.35 10.35 0 00.24.82C.31.44.44.38.83.24a1.58 1.58 0 011.62 0c.46.23.63.46.91 1.21.35.89-.36 1.69-1.46 2.13a.76.76 0 01-.61 0C1 3.39.72 3.14.45 2.92S0 2.57 0 2.24zm3.62 9.49c-.2.83-1.81 1.68-2.25 1.4C.75 12.72 0 11.89 0 11.25s.84-1.37 1.31-2.06a2.17 2.17 0 012.31 2.54zm.48 46.05c-.1.33-.36.62-.25 1 .23.7-.27.85-.62 1a1.86 1.86 0 01-2.06-.27c-.63-.54-.36-.93-.29-1.57.09-.87.66-1.92 1.56-1.88a1.87 1.87 0 01.92.48 3.35 3.35 0 01.57.42 1.34 1.34 0 01.19.48.77.77 0 01-.02.34zm-.76 7.87c.16.13.76.37.85.74C4.93 68.66 3 69.14 2.36 69s-1.42-.48-1.47-.86c-.22-1.65.48-2.38 2.45-2.49zM.45 39.69c0-.06 0-.13.06-.21a10.58 10.58 0 00.16-1.21c.07-.39.2-.44.59-.59a1.58 1.58 0 011.62 0c.46.22.63.45.92 1.2.35.91-.32 1.66-1.45 2.16a.79.79 0 01-.62 0 10.72 10.72 0 01-.84-.67c-.36-.3-.5-.35-.44-.68zm3.65 9.45c-.19.84-1.8 1.69-2.24 1.41-.62-.41-1.39-1.22-1.38-1.86s.84-1.37 1.3-2.06a2.17 2.17 0 012.32 2.51zm.7 46.07c-.09.33-.36.62-.24 1 .23.71-.27.86-.62 1a1.88 1.88 0 01-2.07-.26c-.63-.54-.35-.93-.29-1.56.09-.88.65-1.93 1.55-1.89a1.7 1.7 0 01.92.47 3.07 3.07 0 01.58.42 1.35 1.35 0 01.18.47.7.7 0 01-.01.35zm-.72 7.87c.16.13.76.37.85.74.76 2.26-1.14 2.76-1.82 2.61s-1.42-.47-1.47-.82c-.23-1.68.46-2.41 2.44-2.53zM1.07 77.14c0-.06 0-.13.05-.21a10 10 0 00.16-1.21c.06-.38.2-.44.59-.59a1.58 1.58 0 011.61 0c.47.22.64.45.93 1.2.35.91-.31 1.66-1.44 2.17a.83.83 0 01-.62 0c-.29-.2-.57-.44-.84-.66s-.51-.38-.44-.7zm3.69 9.44c-.19.84-1.79 1.71-2.23 1.43-.63-.41-1.4-1.23-1.39-1.87s.86-1.38 1.29-2.07a2.16 2.16 0 012.33 2.51zm.92 46.05c-.1.34-.36.63-.24 1 .23.7-.27.86-.62 1a1.88 1.88 0 01-2.06-.25c-.63-.54-.37-.93-.3-1.57.08-.87.64-1.93 1.54-1.89a1.73 1.73 0 01.92.47 3.07 3.07 0 01.58.42 1.29 1.29 0 01.19.47.77.77 0 01-.01.35zM5 140.51c.17.13.76.36.85.73.77 2.26-1.12 2.77-1.8 2.63s-1.42-.47-1.47-.82c-.25-1.68.42-2.41 2.42-2.54zm-3.14-25.94v-.21a8.33 8.33 0 00.2-1.22c.07-.38.2-.44.59-.59a1.55 1.55 0 011.61 0c.47.22.64.45.94 1.19.35.91-.31 1.67-1.43 2.18a.79.79 0 01-.62 0 8.81 8.81 0 01-.85-.66c-.36-.3-.5-.36-.44-.69zm3.73 9.44c-.18.84-1.77 1.71-2.22 1.43-.63-.4-1.4-1.22-1.4-1.86s.82-1.38 1.29-2.07a2.15 2.15 0 012.33 2.5zm1.14 46.04c-.09.34-.36.63-.23 1 .23.7-.26.86-.61 1a1.87 1.87 0 01-2.07-.24c-.64-.53-.37-.93-.31-1.56.08-.88.63-1.94 1.53-1.9a1.74 1.74 0 01.93.46c.18.15.43.23.58.42a1.23 1.23 0 01.19.47.77.77 0 01-.01.35zm-.65 7.88c.16.13.76.36.86.73.78 2.26-1.11 2.78-1.8 2.63-.54-.11-1.42-.45-1.47-.8-.25-1.68.44-2.42 2.41-2.56zm-3.25-25.92a1 1 0 010-.21 10.45 10.45 0 00.17-1.21c.07-.39.2-.44.59-.6a1.55 1.55 0 011.61 0c.47.22.64.44.94 1.19.36.9-.3 1.67-1.42 2.18a.79.79 0 01-.62 0c-.29-.19-.57-.43-.85-.65s-.48-.37-.42-.7zm3.78 9.42c-.19.84-1.78 1.72-2.22 1.44-.63-.4-1.41-1.21-1.41-1.85s.82-1.39 1.28-2.08a2.17 2.17 0 012.35 2.49zM8 207.46c-.09.34-.36.63-.23 1 .24.69-.26.86-.61 1a1.87 1.87 0 01-2.07-.23c-.63-.53-.37-.93-.31-1.56.08-.88.62-1.94 1.52-1.91a1.74 1.74 0 01.93.46c.18.15.43.22.58.41a1.29 1.29 0 01.19.51.66.66 0 010 .32zm-.66 7.88c.17.14.77.37.87.73.78 2.26-1.1 2.78-1.78 2.64s-1.43-.45-1.49-.79c-.25-1.69.43-2.42 2.4-2.58zM4 189.44v-.21a10 10 0 00.14-1.21c.06-.39.19-.44.58-.6a1.55 1.55 0 011.61-.05c.47.21.65.44 1 1.18.36.91-.29 1.67-1.41 2.19a.79.79 0 01-.62 0 9.08 9.08 0 01-.85-.65c-.39-.27-.54-.32-.45-.65zm3.79 9.4c-.18.85-1.76 1.73-2.21 1.46-.63-.4-1.41-1.21-1.41-1.85s.8-1.39 1.26-2.09a2.17 2.17 0 012.36 2.48zm1.57 46.03c-.09.34-.35.63-.22 1 .24.7-.26.87-.6 1a1.85 1.85 0 01-2.07-.22c-.64-.52-.38-.92-.33-1.56.08-.87.62-1.94 1.52-1.92a1.86 1.86 0 01.93.46c.18.15.43.22.58.41a1.31 1.31 0 01.2.47.77.77 0 01-.01.36zm-.58 7.89c.17.13.77.35.87.72.8 2.25-1.09 2.79-1.77 2.65s-1.43-.45-1.48-.79c-.26-1.68.41-2.42 2.38-2.58zm-3.49-25.89a1 1 0 010-.21 10.38 10.38 0 00.13-1.21c.06-.39.19-.45.58-.61a1.55 1.55 0 011.61 0c.47.21.65.43.95 1.17.37.91-.28 1.68-1.4 2.2a.76.76 0 01-.61 0 10.65 10.65 0 01-.86-.64c-.31-.32-.46-.37-.4-.7zm3.87 9.38c-.16.89-1.76 1.74-2.16 1.47-.63-.4-1.41-1.21-1.42-1.85s.8-1.39 1.25-2.09a2.17 2.17 0 012.33 2.47zm1.78 46.02c-.09.34-.35.64-.22 1 .25.69-.25.86-.59 1a1.87 1.87 0 01-2.08-.22c-.64-.52-.38-.92-.33-1.55.07-.88.61-1.95 1.51-1.93a1.78 1.78 0 01.93.46 2.92 2.92 0 01.59.4 1.29 1.29 0 01.19.47.66.66 0 010 .37zm-.54 7.87c.17.13.77.35.87.72.81 2.25-1.07 2.79-1.75 2.66s-1.44-.38-1.52-.77c-.24-1.68.43-2.42 2.4-2.61zm-3.62-25.85v-.21a10.32 10.32 0 00.22-1.22c.06-.38.19-.44.58-.6a1.56 1.56 0 011.61-.06c.47.2.65.43.95 1.17.38.9-.27 1.67-1.39 2.2a.81.81 0 01-.61 0 10.77 10.77 0 01-.86-.65c-.41-.25-.55-.3-.5-.63zm3.92 9.36c-.17.85-1.75 1.75-2.2 1.48-.64-.39-1.42-1.2-1.43-1.84s.79-1.39 1.24-2.09a2.16 2.16 0 012.39 2.45z" fill="currentColor"/></svg>