<svg xmlns="http://www.w3.org/2000/svg" viewBox="0 0 16.65 307.82"><path d="M10.52 307.81c1.89-.15 6.89-12 6-12.74s-13.11 0-14 1.15c-.6.68 6.31 11.78 8 11.59zm-.85-51.5a6.48 6.48 0 010-.87c0-.3-.13-.71-.15-1-.05-.55-.18-1.08-.22-1.63l-.13-2.3-.17-4.33-.2-5.84v-.61l-.3-8c-.07-1.51-.23-5.22-.22-5.56 0-.56-.21-3.9-.24-4.47 0-.22-.15-1.75-.22-3-.95 0-1.82.31-2.77.28.19 4 .37 7.95.55 11.82l.59 14.51.3 6.57c0 1.4-.35 2.81-.31 4.17a2 2 0 00.29 1c.21.3.16.4.3.51a1.29 1.29 0 00.81.13c.92-.12 2.2-.69 2.09-1.38zm-2.44-57.93s-.1-2.86-.14-4.18v-.55c0-.87-.06-1.87-.12-2.89q-.57-17-1.15-34.07c-.16-4-.33-7.91-.38-11.94-.08-7.13-.29-14.3-.42-21.45-.07-3.38-.27-5.61-.25-10.13v-7.61c-.11-3.58-.17-5.38-.29-9l-.63-23.89v-6.3c0-3.42 0-6.37-.14-9.63-.16-3-.28-5.59-.26-8.93 0-5.37-.14-10.72-.19-16.13-.05-4.29-.09-8.34-.13-12.4V9.25a16 16 0 00.11-1.94 39.06 39.06 0 01.13-4.68C3.38 1.94 3 .27 2.54.07 2.27 0 2 .14 1.68 0 1.06-.2 0 .83 0 1.77s.1 2 .13 2.95 0 2.06 0 3.08c0 .41.1.82.16 1.22 0 .2.06.4.08.61v.95c0 3.26.15 6.41.07 9.9C.38 25.5.6 30.85.65 36.05c.13 11.49.28 23.18.42 34.71.06 7.33.36 14.77.51 21.93.45 19.91.89 39.82 1.54 59.73.15 5 .3 9.92.44 14.88.21 6.73.47 11.79.49 18.38v1.16c0 2 .09 4.07.16 6.16.2 4.14.34 7.89.42 12 .9.64 2 1.4 2.89 1.27 0-1.07 0-2.06-.12-3.26-.07-1.45-.13-3.01-.17-4.63z" fill="currentColor"/><path d="M9.14 252.5a8.91 8.91 0 010-1.16c0-.51.07-1.48 0-2-.17-3.09-.25-4.64-.41-7.73q-.51-12-1-23.92c-.08-2.09-.11-4.2-.14-6.29 0-3.42-.08-6.37-.31-9.63-.22-3-.39-5.58-.43-8.92-.07-5.37-.32-10.71-.49-16.12-.13-4.62-.25-9-.37-13.34-.18-3.63-.33-7.28-.44-11a7.65 7.65 0 01-2.16 2.17c.06 2.91.06 5.83 0 8.74v2.26c0 5 .3 10.37.45 15.57.34 11.49.7 23.17 1.05 34.7.19 7.32.62 14.76.91 21.92l.61 14.68a4.07 4.07 0 012.73.07zm.51 25.84a1.45 1.45 0 01-1.49.25 2.76 2.76 0 01-1.53-1.83c-.12-1 .47-2.12.48-3.18 0-1.48-.25-2.95-.35-4.43-.07-.95 0-1.93-.12-2.87a16.94 16.94 0 01-.08-2.57 6.43 6.43 0 000-1.16 2.89 2.89 0 01-.15-1.12c.19-1 2.24-1.28 2.92-.69.52.46.34 1.57.34 2.19 0 .89-.08 1.77 0 2.66.1 2.14 0 4.28 0 6.42 0 .91.22 1.8.32 2.69s.13 1.71.18 2.57a1.34 1.34 0 01-.52 1.07zm-.19 13.55a3.42 3.42 0 01-1.06 0 1.34 1.34 0 01-.73-.41 2.19 2.19 0 01-.48-2.17 8.9 8.9 0 000-2.87 9.16 9.16 0 01.07-3.09 2.14 2.14 0 01.74-1.14c.61-.46 1.37-.6 1.81.15a5.31 5.31 0 01.42 2.92c-.15 1.34.5 2.76.72 4.15a2 2 0 01-.22 1.34 2.5 2.5 0 01-1.27 1.12zm-.19 7.53a3.66 3.66 0 01-.83-.35 1.93 1.93 0 01-.23-3.28c.64-.53 2.27-.59 2.72.18a4.07 4.07 0 01.44 1.33c.09 1.11-.25 2.04-2.1 2.12z" fill="currentColor"/></svg>