<svg xmlns="http://www.w3.org/2000/svg" viewBox="0 0 11 72.84"><path d="M5.9 12.46c-.07.2-.28.38-.19.6.17.43-.21.53-.47.61a1.63 1.63 0 01-1.55-.17c-.47-.32-.26-.57-.21-.95a1.27 1.27 0 011.18-1.16 1.55 1.55 0 01.69.29c.13.1.31.14.42.26a.65.65 0 01.14.29.44.44 0 01-.01.23zm-.6 4.78c.13.09.57.23.64.46.55 1.39-.87 1.69-1.38 1.6s-1.07-.29-1.1-.51c-.16-.99.36-1.43 1.84-1.55zM3.2 1.38a.93.93 0 010-.13 5 5 0 00.12-.74c.05-.24.16-.27.45-.36A1.38 1.38 0 015 .13c.35.13.48.27.69.73s-.22 1.02-1.07 1.38a.76.76 0 01-.47 0c-.22-.12-.42-.27-.63-.41s-.37-.25-.32-.45zm2.72 5.79a1.82 1.82 0 01-1.68.87c-.47-.24-1-.75-1-1.14s.62-.85 1-1.27c1.42-.05 1.76.98 1.68 1.54zm.33 28.23c-.07.21-.27.39-.18.61.17.43-.21.52-.48.6a1.64 1.64 0 01-1.54-.16c-.47-.33-.26-.57-.21-1A1.27 1.27 0 015 34.33a1.42 1.42 0 01.69.3 2.05 2.05 0 01.43.26.65.65 0 01.14.29.33.33 0 01-.01.22zm-.59 4.84c.12.08.57.23.63.45.55 1.39-.87 1.7-1.38 1.6s-1.06-.29-1.1-.5c-.16-1.04.37-1.49 1.85-1.55zM3.55 24.32a1 1 0 000-.13 4.78 4.78 0 00.13-.74c0-.23.15-.27.44-.36a1.42 1.42 0 011.21 0c.35.14.48.28.69.74s-.24 1-1.09 1.32a.66.66 0 01-.46 0c-.22-.12-.43-.27-.63-.4s-.33-.22-.29-.43zm2.72 5.8a1.84 1.84 0 01-1.67.87c-.47-.25-1-.76-1-1.15s.63-.84 1-1.26c1.4-.05 1.77.98 1.67 1.54zm.34 28.23c-.07.2-.28.38-.19.6.17.43-.21.53-.47.61a1.63 1.63 0 01-1.55-.17c-.47-.32-.26-.57-.21-.95a1.27 1.27 0 011.18-1.2 1.55 1.55 0 01.69.29c.13.1.31.14.42.26a.65.65 0 01.14.29.44.44 0 01-.01.27zM6 63.17c.13.09.57.23.64.46.55 1.39-.87 1.69-1.38 1.6s-1.07-.29-1.1-.51C4 63.69 4.53 63.24 6 63.17zM3.91 47.24a.93.93 0 010-.13 5 5 0 00.12-.74c0-.24.16-.27.45-.36a1.38 1.38 0 011.21 0c.35.13.48.27.69.73s-.24 1-1.09 1.33a.73.73 0 01-.46 0 7 7 0 01-.64-.41c-.19-.16-.33-.19-.28-.42zm2.72 5.82a1.82 1.82 0 01-1.63.87c-.47-.24-1-.75-1-1.14s.62-.85 1-1.27c1.37-.05 1.72.98 1.63 1.54z" fill="currentColor"/><path d="M5.92 72.84c1.47-.07 5.66-9.11 5-9.7S.79 62.82 0 63.65c-.43.51 4.61 9.25 5.92 9.19z" fill="currentColor"/></svg>