<svg xmlns="http://www.w3.org/2000/svg" viewBox="0 0 15.92 14.44"><path d="M13.05 6.08a18.28 18.28 0 001.4-2.8c.46-.74-.54-.7-1.64-.95C10.7 2 8.54 1.8 6.4 1.61a30.54 30.54 0 00-3.7-.16h-.85a.88.88 0 00-.26.09c-.15.06-.08.25-.06.35a3.81 3.81 0 00.11.41c.11.36.23.69.36 1 .26.69.57 1.46 1.15 2.79.16.42 1.37 3.15 1.6 3.54a9.34 9.34 0 00.69 1.16c.25.36.55.63.78 1a12 12 0 00.87 1.27.14.14 0 010 .18 1.07 1.07 0 00-.11.79c0 .13 0 .26-.26.31a1.5 1.5 0 01-1-.36 7.83 7.83 0 01-1.9-2.4 43.61 43.61 0 01-2.32-5C1.19 5.81.87 5 .58 4.06.44 3.62.3 3.17.18 2.7v-.2l-.11-.32A3.27 3.27 0 010 1.56a1.7 1.7 0 01.4-1 2.57 2.57 0 01.91-.39l.48-.09h.88C3 0 3.39 0 3.75 0c.71 0 1.42 0 2.12.09 1.4.09 2.79.24 4.18.42a39.46 39.46 0 014.18.74c.14 0 .48.14.76.24a2 2 0 01.69.46 1.26 1.26 0 01.23.76 2.81 2.81 0 01-.18.85 5.89 5.89 0 01-.23.61l-.22.5q-.22.5-.48 1a38.25 38.25 0 01-3.8 5.74 12.87 12.87 0 01-2 2.18 3.11 3.11 0 01-1.15.6c-.37.11-.74 0-.78-.23 0 0 .11-.09.24-.26a4.87 4.87 0 00.42-.7c.32-.55.6-1.2.7-1.32a8.38 8.38 0 011.15-1.26 10.09 10.09 0 002.82-3.3c.22-.33.44-.68.65-1.04z" fill="currentColor"/></svg>