<svg xmlns="http://www.w3.org/2000/svg" viewBox="0 0 80.14 80.55"><path d="M66.85 20.75C62 16.56 54.53 11.46 47.3 10A66.71 66.71 0 0044.72.29 24.79 24.79 0 0034 1.11c-5.88.37-.81 7.75-.87 11.24-44.58-.5-43.51 65.46-.45 67.93 36.4 3.65 65.44-30.53 34.17-59.53zm-2.29 33.81c-3.6 1.5-3.62 10.77-8.85 5.53A1 1 0 1054.1 59a17.73 17.73 0 00-2.89-2 80.48 80.48 0 001.3-8c12.4 2.9 9.33-.36 5.16-9.15-2-4.42-3.69-6.81-5.08-7.78a75.15 75.15 0 00-4.09-17.73 45.93 45.93 0 019.06 3.54c2.31 5.51 7.71 16.89 7.38 18v-.07c1.31 6.19.69 12.54-.38 18.75zm-19.12 9.3c-1.68-1-3.42-2.61-4.74-3.48.22-1 .2-1.67-.25-1.73-.31-.25-.75.11-1.19.74-4.77-3-6.13-1.49-10.14 2.59a5.31 5.31 0 00-.76-.48 55.49 55.49 0 010-9.56V52l.06-.94v.08c0-.3 0-.6.05-.9 3.06-1.68 12.25-2.08 9-7.17-3.08-6.48-5-9.68-7.21-7.22 1-7.17 2.81-14.28 6.81-20.41.15-.33.56-.78.82-1.22 1.49 0 4.55.78 3.82-1.37a58.74 58.74 0 015.82 1.12 82 82 0 014.17 17.62c-3.38-.77-4.92 7.74-6 14.84-1.7 3.17 4.18 1.57 5.8 2.45-.31 2.64-.75 5.28-1.3 7.89-2.54-.26-2.83 3.91-4.76 7.09zm-29.06 6a73.35 73.35 0 01-2.62-7.56c2.31-1.72 5-4 5.75-4.13a10.75 10.75 0 011.8 3.81 5.45 5.45 0 00-1.86 1.71.18.18 0 00.05-.07c-.63 1.95 1.66 1.11 2.27-.16.62 1.92 1.36 3.71 3.07 4.55a15.84 15.84 0 003.35-2 63.83 63.83 0 003.08 11.19 33.69 33.69 0 01-13.77-5 16.69 16.69 0 01-1.12-2.39zM43.06 2.11c.83 2.46 1.43 5 2 7.58a13.77 13.77 0 00-9.62 2.4c-.16-2.67-2-6.38-2-8.48a70.68 70.68 0 019.62-1.5zm-9.4 12.19a.92.92 0 00.35.26 1.55 1.55 0 001.89 1.32c-4.69 8.13-6.12 17.71-9 26.79-.67 3.31-7.24 9.45.13 7.86a77.27 77.27 0 00.43 10.66c-1.69-.19-.91 1.79.21 2.2-.75.75-1.59 1.55-2.55 2.41-4.36-11.43-4.8-11.29-11.89-5.32a59.61 59.61 0 01-1.18-26v.06l.06-.31V34c2.51-10.49 9.15-22.14 21.55-19.7zM7.14 27.67a34.44 34.44 0 0112-10.77h-.08l.12-.06c.39-.2.78-.39 1.18-.57a47.25 47.25 0 00-7.76 12.9v.11l-.12.36a46.73 46.73 0 00-2.17 17.93V48a66.06 66.06 0 002.14 13.11c-2.18 1.16-3.51 4.64.49 1.68A70.68 70.68 0 0016 71.23C3 61.94-2.6 43.85 7.14 27.67zm25 49.63c-.19-.46-.39-.93-.55-1.41v.06A71 71 0 0129 65.36c.28-.24.55-.49.79-.74 1.26.21 1.38-.33 1-1.05 2.43-2.9 3.06-5.1 7.56-2.28-1.83 3.89 0 5.4 1.72 1.19.88.65 1.88 1.43 3 2.39 3.54 3.26 5.14-.7 6.27-3.93-.35 1.31-.71 2.61-1.11 3.91-.84 3.86-3.92 8-4.12 11.51 3.56-4.25 4.93-11.33 6.66-16.83 1 .68 1.88 1.32 2.7 1.89-1.22 1.63.69 2.94 1.56 1 3.6 2.32 5.57 2.54 8.32-1.86-.39 1.37-.84 2.72-1.3 4.07 0 .1-.07.21-.11.32 0 .07 0 .14-.08.22a44.05 44.05 0 00-2.2 7.57c-6.93 3.37-18.6 5.26-27.53 4.56zM61 71.93a12.4 12.4 0 01.91-3.93 56.43 56.43 0 003.54-11.23c7.2 3.41 6.45-1.44.45-2.38a53.13 53.13 0 00-6.65-35.62C81.05 31.6 83.15 60.05 61 71.93z" fill="currentColor"/><path d="M33 11.82a.19.19 0 000-.07zM14.11 25.79v-.05c0-.05.01.03 0 .05zm-.33.66v-.05zm-1.48 3.62zM59.93 71v-.07.07zm-11.6-54zm.01.05zM45 75.22v.06z" fill="currentColor"/></svg>