<svg xmlns="http://www.w3.org/2000/svg" viewBox="0 0 96.7 92.88"><path d="M74.87 18.81c-9-4.08-19.26-5-29.27-3.46-.06-10.7-1.88-18.64-13.67-14-2.34 1.8-.05 4.19.87 6.1 1.82 3.12 2.45 6.74 3.54 10.11C-.81 27.62-17.84 76.73 26.24 89.9c49.32 15.76 100.81-34.48 48.63-71.09zm-15.07-.38a.85.85 0 001.2-.49 31.33 31.33 0 015.12.78c.93 2.92 2.5 5.27 3.78 8a87.13 87.13 0 014 8.87v-.09a87.86 87.86 0 012.5 8.69c-5.47-5.88-11.47-6.13-17.52-.41A199.35 199.35 0 0052.7 18.4c2.42-.47 4.98-.99 7.1.03zm20 44v.24c-.47.66-.93 1.28-1.38 1.87-2.42-2.4-4.45.9-1.78 1.27l.41.43a25.85 25.85 0 01-4.24 4.1c-1.22-2.23-2.66-4.25-3.25-4.42-1.55 0-.16 3 1.24 5.74A32.15 32.15 0 0161.26 75c0-7.52.06-15.72-1.23-24a6.61 6.61 0 012.84-.55c2.25-1.33 10.72 1 15.19 1.07v.21-.09a86.58 86.58 0 011.67 10.86zM60.53 79.76c1.06.57 1.34-.27 1.26-1.61a42.88 42.88 0 0010.29-3.85 7.63 7.63 0 01.61 1.55c2.57 1.61 2.46-.23 1.42-2.74a29.2 29.2 0 005.25-4.24l.65.76c-.18 3.43-.58 6.88-.44 10a53.11 53.11 0 01-21.31 9.27 44 44 0 002.27-9.14zm-10.17-61h-.06l1.06-.15c.75 2.33 1.22 3.62 1.94 5.7v-.08a60 60 0 012.36 8.31v.08q1.13 6.21 2 12.48c-.45.49-.91 1-1.36 1.57l-.3.23.09-.09c-4.19 4-4.32 7.52 2.36 4.9.66 6.09 1.45 12.08 1.25 18.29-.37-1.4-2.52-.94-1.86.49a.93.93 0 00-.05-.1 23.68 23.68 0 011.11 5.11q-1.09.21-2.28.39h.19A53 53 0 0148.16 77c.13-2.58.51-5.32-.62-7.26-2.11-.14-1.76 4.15-1.64 7.34a56.93 56.93 0 01-11.37-1c.53-3.06.89-6.58 1.39-7.3-1.45-3.16-2.84 2.54-3.7 6.82l-.49-.13q0-3 .22-6c0-.57.07-1.13.11-1.69a.13.13 0 010 .06v-.1l.12-1.74a.34.34 0 010 .1c0-.57.09-1.15.13-1.72.31-3.39.64-6.8 1-10.2a77.19 77.19 0 0114.46-.88C50 49.12 40.4 42.38 36.66 41.45c-.19-.47-.82-.54-1.31-.58a95.37 95.37 0 014-14.49c.36-1 .78-1.91 1.22-2.84a.16.16 0 000 .07c.15-.29.29-.58.43-.87a6.24 6.24 0 01.89-1.66c3.62-1.29 7.01-2.43 8.47-2.29zM33.28 3.49c10.47-4.26 8.71 5 10 12.27q-2.64.53-5.23 1.27a41.6 41.6 0 00-4.77-13.54zm-31 49.1c2.45-12.08 11.85-21.42 22.15-27.48-12.95 14.89-14.95 38.46-9.69 57C5.44 75.45-.49 64.78 2.28 52.59zm13.59 30.29C12.19 65.29 12.23 44.75 22.68 29v.06c.21-1 3.3-3.71 3.86-5.06.57-.3 1.12-.63 1.69-.92 0 2.6 6.09.64 12-1.4-3.23 6.03-4.8 12.85-6.42 19.48-5 1.8-13.09 11.4-11.94 14.37 3 1.19 6.78-1 10-1.11-.45 3.82-.84 7.66-1.17 11.49l-.12 1.83v.24l-.09 1.45c-.15 1.9-.22 3.8-.23 5.71-.31-.08-.62-.15-.92-.24l.18.06-.43-.14h.06l-.15-.15-.16-.06h-.08a30 30 0 01-7.1-3.24c.08-2 2.83-5.15 1.05-6.63-1.91.1-1.52 3.41-2.85 5.34-2.23-.76-4.34-6.87-6.12-5.78A15.32 15.32 0 0019 72.65c-.31 1.35-.26 2.51.64 3.12a2 2 0 001.48-1.55 32.47 32.47 0 009.17 3.87 63.57 63.57 0 001.31 10.83 39.08 39.08 0 01-15.73-6.04zM33 89.18c-.44-2.52-.84-5.05-1.05-7.6a.31.31 0 010-.1v.06a.86.86 0 000-.16v-.58a.34.34 0 000 .1v-.6c.89 1.19 1.53.34 2-1.34a73 73 0 0011.87 1.14 1.22 1.22 0 002.39-.1 79.77 79.77 0 0010.92-1.3c-.35 3.52-.81 7-1.27 10.22a60.85 60.85 0 01-10 1.09H48a61.22 61.22 0 01-15-.83zm47.87-10.59c0-2.71.47-4.87.44-7.44a1.34 1.34 0 102.08-1.68 23.85 23.85 0 01-2.12-2.14v-.61c1.19-1.9 7.18-8.8 2-9.12-.8 1.23-1.57 2.4-2.27 3.4-.38-3.18-.88-6.36-1.5-9.52 1.69-.24 2.07-1.21-.16-3.64l.09.12c-3.1-6.38-3.6-14-7.47-20.25-1.61-2.64-2.92-5.95-4.3-8.65 27.24 8.09 34.51 46.27 13.21 59.53zM21.54 65.43zm15.03-24.17zM41 22.67zm26.48-.8zm0 .01zm8.11 14.34zm-3.28-7.71zm8.88 46.03zm-13.7-52.65zm-15.24-.55zm7.11 39.21z" fill="currentColor"/></svg>