<svg xmlns="http://www.w3.org/2000/svg" viewBox="0 0 81.48 94.44"><path d="M51.74 69.69zM45.06 5.45h-.19zm20.77 74.08v.2a1.48 1.48 0 000-.2z" fill="currentColor"/><path d="M66.68 65.09C89.17 47.1 88.32 9.55 48.19 2.94 35-4.79 17 4 8.08 14.85-6.29 31.3 0 54.22 15.2 66.37c.83 5.45 1.28 11 2.71 16.3a5.07 5.07 0 00.65.48C19 89.45 26.87 94.5 33 94.44c10.63-1.11 32.59 3.1 34.37-11.5a1.83 1.83 0 00-1.45-1.81c0-.57-.11-1.13-.11-1.59v-.67.13a35.44 35.44 0 01.87-13.91zm-64.3-26a32.79 32.79 0 011.79-12.5v.09a.88.88 0 00.05-.15v.05a35.74 35.74 0 0110.14-15.12A38.08 38.08 0 0127 4.13a34.42 34.42 0 019.68-1.95c.23 3.35 6 2.13 8.37 3.27l2.59.55c.06 1.62 2.65 2.86 2.57.58a63.25 63.25 0 017.13 2.09 40 40 0 014.74 1.95h-.06l.17.09c28.46 13.55 16.16 51.45-10.44 58.97l-.15.06h.13a39.12 39.12 0 01-10.21 2.09C22.8 73.16 3.79 58.07 2.38 39.08zm48.36 38.82a15.52 15.52 0 004.77-1.57c-.5 1.52-1.67 3-4.84 4a16.08 16.08 0 00.07-2.43zm-.1-2.14c-.06-.94-.1-1.73-.08-2.14a1 1 0 00-.13-.46 44.61 44.61 0 006.77-2.35c-1 .78-1.14 1.93-1.27 3.2a.65.65 0 00-.19 0 35.11 35.11 0 01-5.1 1.75zm-6 2.91c1.2-.09 2.55-.22 3.91-.41 0 .87 0 1.75.08 2.62L48 81c-1 .17-2 .38-3 .59a8.51 8.51 0 00-.32-2.91zm-13.11-4.62a9.71 9.71 0 00.18 2.24 17.93 17.93 0 01-4.07-1.12 18.41 18.41 0 01-.49-2.27 35.66 35.66 0 004.38 1.15zm5.33 2.27c0 .12 0 .25.08.37-1 0-2-.06-3-.13a5.55 5.55 0 00-.67-2.21c1.09.15 2.19.26 3.31.32a3 3 0 00.25 1.72zm-4.72 2c.23.94.49 1.88.68 2.76a1 1 0 001.84-.64 6 6 0 01-.45-1.91c1.09.09 2.18.15 3.18.19a25.46 25.46 0 00.86 2.86c2.14 1.62 1.92-.44 1.3-2.78l2.14.06h.8a13.23 13.23 0 00.74 2.74 4.6 4.6 0 00.46.33c-3.42.69-6.89 1.2-10.21 0a7.36 7.36 0 01-4.94-4.22 21.69 21.69 0 003.6.59zm9.92-3.44c.06.67.11 1.34.17 2a32.7 32.7 0 01-3.23-.15c-.27-.86-.5-1.59-.6-2 1.2 0 2.38-.06 3.53-.15a1.65 1.65 0 00.13.28zm2.2 1.93a12 12 0 01-.43-2.42c1.66-.19 3.27-.45 4.84-.79 0 .88-.06 1.76-.07 2.64a35.31 35.31 0 01-4.34.55zm4.41-3v-.19a.62.62 0 000 .14zm10.46 14.51c-11.59 1.45-27.28 6.41-36.74-2.5-.91-.57-1.51-2.38-2.38-3.19.41-2.48-2-9.86-1.8-11.27a10.86 10.86 0 01-.39-3.07 37.88 37.88 0 007.4 3.9C24.22 79 30 85.5 37 85.65c7.39-.89 18.1-1.21 21.64-8.92.39-1.77 1.77-5.64-.72-6.22a42.24 42.24 0 005.91-3.31c-1.05 5.4-1.48 14.22-1.13 15.24a1.57 1.57 0 00.66 1.3c-.61 1.82-1.16 3.97-4.23 4.59zm-25.82-6.56l.17.06z" fill="currentColor"/><path d="M50.56 73.52v.2a.67.67 0 000-.2zm-15.09-6.81a1 1 0 01-.81-1.18c-.21-1.78 2.12-3.14 3.38-4.09 3.09-.07.09 3.61-1.18 4.25-.39.44-.69 1.14-1.39 1.02zm11.2.29c-.48-.34-.92-.73-1.42-1l.13.09c-.84-.65-2.5-1.19-2-2.54a1 1 0 01.36-1.6c1.52-.31 2.38 1.74 3.56 2.44l.11.1c1.79.51 1.2 3.35-.74 2.51zm-22.2-6.34C7.22 58.58 7.54 31.66 26 32.59c6.36-.82 9.73 5 11.93 10 6.5 9.84-3.42 19-13.46 18.07zm31.17.18c-11-.5-14.2-16.94-5.57-22.66 1-3.18 6.16-1.49 8.81-2 18.72-.09 12.84 26.08-3.24 24.66z" fill="currentColor"/></svg>