<svg xmlns="http://www.w3.org/2000/svg" viewBox="0 0 71.57 80.46"><path d="M27.74 1.86l6.58-.76a17 17 0 00-4.93.38h.07c-.58.1-1.15.24-1.72.38zm5.41 52h0c9.68-.79 19.59-3.81 27-10.24l-.07.06a29.56 29.56 0 004.95-5.59h0v-.07h0a25.39 25.39 0 004.37-12.55h0v0a20.6 20.6 0 00-6.81-17l.07.07a23.06 23.06 0 00-7.64-4.36h.09A33.21 33.21 0 0050.78 3h0a47.16 47.16 0 00-6-.75h.1a51.4 51.4 0 00-6.91 0H38c-2.28-.52-12.49 2.89-12.15.1-.51.15-1 .31-1.5.49h0a38.62 38.62 0 00-4.6 1.94h0A38.49 38.49 0 008.2 13.33v-.05a28.28 28.28 0 00-2 2.61h0v.06h0a28.55 28.55 0 00-4.5 17.54v0a.28.28 0 000 .09v0a22 22 0 00.39 2.92.19.19 0 010-.08A18 18 0 004.82 43h0a.43.43 0 010 .07v0a20.78 20.78 0 005.72 5.57h-.07a29.19 29.19 0 006.68 3.28h-.08A39.58 39.58 0 0022 53.11h-.09a43.12 43.12 0 005.54.75h-.1a44.9 44.9 0 005.8-.03zm-6.69 1.3C-18 51.47.79-4.38 37 .84c55.89-2.03 36.33 59.24-10.54 54.29z" fill="currentColor" stroke="currentColor" stroke-miterlimit="10"/><path d="M51.63 50.76a46.05 46.05 0 01-.93 6.05c-.38.18-.77.34-1.16.51-.24-2.1-.52-4.18-1.72-5.34-1.41.9.27 3.31.21 4.78a1.33 1.33 0 000 .19 7.7 7.7 0 01.25.89c-1.06.42-2.13.79-3.21 1.13a29.28 29.28 0 01-.5-4.94c-1.12-.49-1.07 2.14-.71 5.32-.86.24-1.73.45-2.6.63-.6-5.28-1.3-9.63-1.67-5.06 0 0 .24 1.26.24 1.29.08 1.46.19 2.55.29 4-.87.16-1.74.3-2.62.41-.53-4.71-1.11-8.21-1.46-3.87v.07c.07 1.32.17 2.63.25 3.94-.6.06-1.19.12-1.8.15s-1.1.06-1.65.07c-.31-2.52-.53-4.75-.24-5.33a.13.13 0 010-.06c.31-.82-1-1.19-1-.26a50.58 50.58 0 00.2 5.67h-3.47a42 42 0 01-.39-4.88c-1.12-2.63-1 1-.63 4.84l-1.45-.08a5.43 5.43 0 00-.9.34 29.18 29.18 0 01-4.57-8.45c-.52-.13-1-.26-1.53-.41 2.41 5.36 5.87 11.83 10.6 15.79 3.91 3.27 8.68 4.82 14.45 2.62 9.53-5 9.05-12.46 10.06-22-2.8-1.32-2.06.67-2.34 1.99zm-1.35 7.66c-.13.44-.27.89-.42 1.37-.06-.37-.12-.74-.16-1.13zm-10.11 1.76zM36 62l.46-.05c.22 2.71.46 5.42.83 8.11a13.5 13.5 0 01-3.64-1.3 49.24 49.24 0 00-.65-6.51 16.32 16.32 0 003-.25zm-8.53.13c.09.78.18 1.53.28 2.21-.76-.77-1.49-1.58-2.18-2.43a15.19 15.19 0 001.87.24zm1.06.06c1.09 0 2.29.06 3.4 0 .19 2 .45 4 .72 6a24.51 24.51 0 01-3.57-2.62 65.16 65.16 0 01-.58-3.36zm10 8.05c-.19-1.89-.49-5.28-.82-8.42.87-.1 1.73-.23 2.59-.38.23 2.87.5 5.74.92 8.6a9 9 0 01-2.72.22zm3.84-.55c-.19-1.68-.52-5.14-.89-8.49.88-.19 1.75-.39 2.61-.62.38 3 .92 6.11 1 7.47a9.4 9.4 0 01-2.75 1.66zM46 67.16a62.49 62.49 0 00-.69-6.92q1.65-.5 3.27-1.11a29.11 29.11 0 00.5 3.08l-.12.37A17.1 17.1 0 0146 67.16zm-14.34-11.8zm.99.29v.01-.01zm-.99-.26zm-1.94-9.47c-.87.11-1.13-1-.59-1.51-1.19-.88 3.09-6.77 3.58-4.18 1.72 1.05-1.34 3.07-1.79 4.32-.19.62-.23 1.84-1.2 1.37zm13.03-.02c-.81-1-1.93-1.58-2.56-2.71-.53-.75-2.29-1.9-1-2.76 1.41-1.91 3.2 1.27 3.45 2.59 1.16.85 2.8 3.88.11 2.88z" fill="currentColor"/><path d="M35.14 80C23.5 79.66 18.71 63.65 14 53.76v.07a5.73 5.73 0 00-.69-1.11c-1.48.18-.39-2.06.59-1C18.85 59.2 20.82 69.19 28.08 75h0c6.15 5 19.6 3.62 24.39-2.8 4.14-7.43 6-15.87 6.47-24.3-.19-1.29 1.33-3.85 1.94-1.48-.22 1.28-.3 2.57-.4 3.86h0v.77h0V51h0v.06c-1.4 9.94-3.35 24.99-14.89 27.65a4.49 4.49 0 01-.68.18A36 36 0 0135.14 80z" fill="currentColor" stroke="currentColor" stroke-miterlimit="10"/><path d="M18.31 42.29C7.78 40.7 8.3 20.92 18.76 20c.33-2.76 3.89.15 5 1.1 10.47 5.29 6.34 21.9-5.45 21.19zM46.52 38c-11.7-1.08-6.33-15.87.59-20-.92-1.72 1.42-1.53 2.42-1.06C63.92 19.22 59.32 38.1 46.52 38z" fill="currentColor"/></svg>