<svg xmlns="http://www.w3.org/2000/svg" viewBox="0 0 71.32 99.14"><path d="M48.87 69.5l-.15.13zm22.34-15.99a2.6 2.6 0 00-1.95-.62c-.08-.36-.15-.72-.23-1.08a.29.29 0 010 .09c-.1-.5-.2-1-.31-1.52v.07C65 34.81 65.07 15.58 52.48 4 36.84-6.83 16.72 6.39 8.2 20.45l-.06.09v-.06C2.91 29.29-.37 39.84.45 50.17a1.61 1.61 0 000 .5c-2.25-.19 3.56 3.87 11.34 8.66a.91.91 0 00.21 1.06v.2c2.33 27.74-3 38.08 30.7 38.32 13.31 1.43 23.58-3.84 23.06-18.5.16-2.27.38-27.85-4.25-18.81.6 11.45 5.7 33.53-11.44 33.89-9.34.28-19.35.33-28.22-2.83-9.39-3.3-5-25.24-8.38-32.33 2.34 1.42 4.8 2.87 7.25 4.29-1.65 2.79-.77 6.76-1.15 9.92C17.78 86.92 29.28 93.19 40.2 93c10.39 1.3 16.4-7 17.86-16.19 1.44-1 2.2-2 .25-2.11a26.08 26.08 0 00-1.05-10.07c-.15-.53-.24-1.24-.38-1.92a54.8 54.8 0 0113.58-7.38 1.41 1.41 0 00.75-1.82zM26.6 67.94a.78.78 0 00-.6.84v-.07a.41.41 0 000 .11c.06 2.05.19 4.1.36 6.15-1.62-.56-3.2-1.13-4.72-1.68 0-2.6.27-5.18.4-7.48a1.09 1.09 0 00.23-.3c1.48.84 2.93 1.66 4.33 2.43zm13.85 10.6a49.11 49.11 0 01-5.45-1 9.15 9.15 0 010-1.71c-.24-.7 0-2.46-.19-3.6 2.66 1.29 4.47 2 4.85 1.79a6 6 0 001.12 0 18 18 0 00-.33 4.52zm1.62-4.65a10.93 10.93 0 003.94-2 27.83 27.83 0 00-.1 6.88 32 32 0 01-3.53-.06l-.12-2.46c-.13-.58.01-1.64-.19-2.36zm-8.81 3.22c-1.73-.47-3.45-1-5.13-1.55a23.06 23.06 0 01-.4-4.22 13.22 13.22 0 00-.22-2.9c2.11 1.15 4.08 2.2 5.8 3.07-.1 1.84-.1 3.71-.05 5.6zm.05 1.64c.13 3.52.38 7.08.51 10.56a27.37 27.37 0 01-4.57-1.55c.3-2-.32-6.54-.86-10.35 1.61.48 3.27.92 4.92 1.34zm-11.65-3.68q2.4 1 4.88 1.78c.31 3.36.68 6.72 1 10.08l-1.34-.73c-3.43-2.66-4.4-6.81-4.54-11.13zm13.75 14.58c.53-1.9 0-7-.28-10.45l2.64.65h-.05.18a24.26 24.26 0 002.68.35 81.56 81.56 0 01.55 8.31c.21 1.29 2.11.76 1.75-.47-.14-2.57-.26-5.14-.38-7.71h.75c.94 0 1.88.05 2.83.05.22 2.55.49 4.9.49 6.1 2.88 3.09 1.58-3.66 1.3-6.13A22.41 22.41 0 0051.1 80a16.57 16.57 0 01-.06 4.1 3.58 3.58 0 00.72.76c-3.71 4.33-9.76 5.95-16.35 4.79zm17.52-6.31a30.39 30.39 0 000-3.8 7 7 0 00.77-.27 10.84 10.84 0 001.24-.56 15.63 15.63 0 01-2.01 4.63zm2.25-13.42a25 25 0 01.15 6.48 21.15 21.15 0 01-2.55 1.11v-.39c-.59-2.79.51-7.69-1.25-9.64-1.59.68-1 6-.6 10.58a23.2 23.2 0 01-3.31.6c-.18-2.55.68-5.72-.35-7.76l.73-.64.71-.63q2.56-2.46 5.31-4.7c.5 1.72 1.3 3.57 1.16 4.99zm-15.62.8A344.94 344.94 0 012.94 51.35l-.52-.18a1.17 1.17 0 00-.35-.91 10.8 10.8 0 01-.22-1.6A51.25 51.25 0 013.18 37v.11a52.52 52.52 0 016.43-15.72l1.94-2.85v.05a53.1 53.1 0 017-7.63l.08-.07A42.86 42.86 0 0127.11 5h.1a27.46 27.46 0 017-2.42 39.08 39.08 0 014.7-.66 26.94 26.94 0 013.24 0H42c7 .2 12.66 5.35 15.57 11.49 3.2 6.63 4.48 14 6.16 21.09v-.13c0 .15.07.3.1.46.16.77.32 1.53.47 2.29v.37c1 5.27 1.74 10.57 2.85 15.82-3 .9-6.72 3.22-8.44 4.2-7.06 3.09-11.44 12.3-19.15 13.21z" fill="currentColor"/><path d="M27.74 71.32a.28.28 0 010 .09zM35 75.83zm7.26.41zm-8.67-14.37c-.84-1.87.55-4.45.35-6.58a1 1 0 011.93.26c-.57 1.74.65 7.11-2.28 6.32zm5.79.71a.88.88 0 010-1.42 12.34 12.34 0 00.36-2.58 2.64 2.64 0 010-.29.53.53 0 000 .13v-.36a.53.53 0 010 .13c.35-1.22-.57-3.66 1.15-3.93 1 0 1.1 1 1 1.8a.66.66 0 000 .14v.13c-.48 2 .29 5.56-1.94 6.42H40a.89.89 0 01-.62-.17zM60.44 51.9c4.24-6 1.93-15.28-2.88-20.48a17.21 17.21 0 001.88-2.63c.48-1.87-2.3-2.36-2.76-.59-1.25 3.64-11.27 9.2-12.68 12.73l-.24.16a14.76 14.76 0 002.43 10.73c.07.11.15.2.22.3a17.63 17.63 0 00-2.47.56c-1.86 2 1.89 1.42 3 1.25 4.87-.21 9.79.14 14.64.41a1.12 1.12 0 001.25-.94 2.44 2.44 0 00-2.39-1.5zM27.87 31.89c-2.84-2.62-5.08-6-7.42-8.86-1.42.68-1 2.37.29 4.42a3.58 3.58 0 00-2.83.3c-9.41 2.46-10 17.24-3 22.9-.93.18-1.85.38-2.76.64-2.29 2.6 4.22.78 5.38.92h.29a75.7 75.7 0 0114 .62 1.08 1.08 0 001.21-.92 1.91 1.91 0 00-1.61-1.36c2.07-2.52 2.23-6 1.78-9.19 3.98-2.47-3.48-7.36-5.33-9.47z" fill="currentColor"/></svg>