<svg xmlns="http://www.w3.org/2000/svg" viewBox="0 0 180 55.87"><path d="M33.11 55.78A2.32 2.32 0 0132 53.7a7.59 7.59 0 010-1.58c.07-.56.19-1.1.3-1.64 1.25-6.3 2.87-12.51 4.47-18.72.78-3 1.5-6 2.23-9 .39-1.63.84-3.24 1.31-4.86.37-1.28.79-2.55 1.22-3.81q.15-.46.33-.93a87.94 87.94 0 00-13.09 8.27l.25-.18a85.5 85.5 0 00-9.6 8.12c-2.47 2.5-4.79 5.14-7.15 7.75S7.56 42.24 5.44 45c-.8 1.09-1.49 2.26-2.37 3.3A9.2 9.2 0 01.83 50l-.14.11v.16a.59.59 0 010 .08H.63a.7.7 0 01-.63-.61 5.71 5.71 0 01.28-2.49 16.21 16.21 0 011.82-3.82 42.15 42.15 0 012.77-3.75c2-2.52 4.25-4.88 6.42-7.28s4.42-5 6.78-7.32a80.41 80.41 0 017.4-6.52c2.6-2 5.32-3.91 8.06-5.76a49.62 49.62 0 018-4.68l1.74-.75.95-.37a2.21 2.21 0 01.83-.28 1.87 1.87 0 01.94 0A1.64 1.64 0 0147.16 8a4 4 0 01-.28 2.75c-.49 1.09-1.05 2.14-1.57 3.22-.58 1.4-1.05 2.83-1.5 4.26-.81 2.64-1.44 5.31-2.08 8q-.84 3.52-1.72 7c-1 3.73-1.91 7.46-2.79 11.21 1.62-2.31 3.29-4.58 5.07-6.77a82.64 82.64 0 0111.39-11.61 85.89 85.89 0 0113.74-9.22c1.62-.88 3.29-1.66 5-2.44a8.91 8.91 0 011.38-.61 2.57 2.57 0 011.17 0c1.44.26 1.59 2.43 1.25 3.53-.55 1.79-1.08 3.59-1.75 5.34l-1.51 3.9q-1.27 3.32-2.57 6.64c-.44 1.13-.86 2.27-1.28 3.41l2.35-3.39c1.42-2 2.84-4.06 4.31-6.05a69.43 69.43 0 019.08-9.85 56.26 56.26 0 0110.73-8A33.2 33.2 0 01101.19 7a6.78 6.78 0 012.63-.41 5.85 5.85 0 012.67.92 5.63 5.63 0 011.75 1.65 10 10 0 011 2.17 12.52 12.52 0 01.5 2.58 30.81 30.81 0 01.18 3.18 28.71 28.71 0 01-.8 6.26 52.54 52.54 0 01-1.88 6.65c-.65 1.83-1.37 3.63-2.11 5.43l1.27-1.49 2-2.46c1.21-1.5 2.45-3 3.75-4.4s2.93-2.94 4.47-4.32a90.78 90.78 0 019.5-7.42A65 65 0 01149 5.45c3.16-.79 6.38-1.29 9.56-2s6.51-1.4 9.77-2.06l5.13-1.14a7.25 7.25 0 012.86-.18A7.79 7.79 0 01180 1.83a14.91 14.91 0 01-3.67 3.55 8.09 8.09 0 01-1.3.69 12.22 12.22 0 01-2 .6c-1.73.43-3.46.88-5.21 1.26l-7.29 1.6c-3.23.71-6.47 1.32-9.7 2-2.4.56-4.78 1.21-7.14 1.91a56.78 56.78 0 00-7.25 2.79 74.18 74.18 0 00-11.3 6.77 91.88 91.88 0 00-10 8.42c-1.49 1.53-2.87 3.15-4.23 4.8L108.63 39c-.71.86-1.46 1.69-2.15 2.56a39.48 39.48 0 01-3.17 4.2 7.74 7.74 0 01-1.81 1.41 2.34 2.34 0 01-1 .37 5.45 5.45 0 01-.7 0l-.8-.18c-1.86-.48-1.72-3-1.26-4.44.34-1.06.68-2.1 1.11-3.12s.79-1.8 1.15-2.69l-.06.14.06-.14.12-.28-.12.28c1.61-3.72 3.25-7.46 4.49-11.33.43-1.41.78-2.85 1.1-4.29.14-.74.26-1.49.36-2.24 0-.41.05-.83.07-1.25 0-.71 0-1.41-.1-2.11 0-.32-.09-.64-.15-1s-.12-.46-.2-.69l-.12-.27-.15-.24a2.18 2.18 0 00-.21-.22 4.36 4.36 0 00-.55-.41 7.05 7.05 0 00-1-.45l-.45-.07a8.21 8.21 0 00-1.11.14 31.43 31.43 0 00-4.32 1.58 37.22 37.22 0 00-5.15 3.07 80.92 80.92 0 00-9.29 8.07 61.51 61.51 0 00-4.82 5.51c-2.53 3.38-4.91 6.87-7.32 10.34q-1.26 1.8-2.51 3.61c-.62.89-1.1 1.88-1.8 2.71a4.73 4.73 0 01-1.58 1.34 2.57 2.57 0 01-2 0c-.54-.16-.87-.85-1-1.34a4.13 4.13 0 010-2.26c1.35-4.52 2.94-9 4.65-13.35q1.44-3.66 2.86-7.32c.53-1.34 1.08-2.68 1.59-4-1.15.59-2.32 1.16-3.45 1.77A85.4 85.4 0 0058.86 28 80.29 80.29 0 0050 35.49a93.66 93.66 0 00-7.83 9.06c-2.52 3.37-4.88 6.87-7.19 10.38a1.88 1.88 0 01-1.42.94 1.2 1.2 0 01-.45-.09z" fill="currentColor"/></svg>