<svg xmlns="http://www.w3.org/2000/svg" viewBox="0 0 180 67.75"><path d="M176.16.39a8.58 8.58 0 002.91.17c.8-.11 1.08.3.86 1.24a3.43 3.43 0 01-1.71.39 5.48 5.48 0 00-2.91 0c-.8.25-1.77.51-2.91.76a27.16 27.16 0 01-5.64 1c-1.94.12-4 .32-6.33.57h-3.07a11.19 11.19 0 00-2.74.35 2.48 2.48 0 01-1.54.16 1.64 1.64 0 00-1.53.49 3.68 3.68 0 01-2.74.32 2.11 2.11 0 00-1.37.33l-.68.65-1.2 1.14c-.34.32-.74.27-1.2-.16a4.12 4.12 0 00-1.19.32q-.85.33-1.2 0a5.23 5.23 0 00-2.56 0 2.45 2.45 0 00-1.88 2.28c-.23.87-.58 1.14-1 .82a9.91 9.91 0 01-1-.82q-1.71-1-1.71 1.65c.46 1.14 1.27 1.36 2.42.68a8.87 8.87 0 012.43-.85 2.8 2.8 0 001.38-.5c.23-.43.35-.49.35-.16a1.13 1.13 0 00.34.83 8.5 8.5 0 001.56-.17 7.61 7.61 0 011.55-.18 7.63 7.63 0 002.77.18 9.7 9.7 0 013.12.17l2.76-.69a6.49 6.49 0 002.25-.68 4.07 4.07 0 013.28 0 5.42 5.42 0 002.94.46c.81-.15 1.79-.31 3-.46l5.81.34c.45 0 .39.17-.17.51s-1.09.63-1.54.86a3.75 3.75 0 01-2.57 1.52 9.17 9.17 0 00-2.92.6q0 .31-.69 0a3.52 3.52 0 00-1.39-.3 2.1 2.1 0 01-2.42.3 6.81 6.81 0 01-2.78.61 2.43 2.43 0 01-2.25.33 5.85 5.85 0 00-3.29.33c-.92.22-1.79.44-2.59.66s-1.79.54-2.95 1a2.47 2.47 0 01-1.56.16 8.34 8.34 0 00-1.56-.16 2.75 2.75 0 00-1 .33 2.13 2.13 0 00-1 1c-.47.44-.76.54-.87.33a5 5 0 00-.87-1l-1.36.66-1.37.65a1.45 1.45 0 00-1.2.82c-.34.55-.4.93-.17 1.15h1.71c.68 0 .91.11.68.33a13.58 13.58 0 01-2.73 1l-2.92.59a1.39 1.39 0 00-1 .34c-.23.23-.57.23-1 0s-.68-.78-.68-1.67c0-.21-.17-.43-.51-.65s-.75-.11-1.2.33l.68 1.31a.81.81 0 01-.17 1.37 7.37 7.37 0 00-1.2 1 2 2 0 01-1.53.2 2.11 2.11 0 00-1.54.19 7.22 7.22 0 01-1.37.52 2.21 2.21 0 00-1 .51 3 3 0 01-1.36.34c-.46 0-.81.34-1 1s.57.63 2.39-.17a13.52 13.52 0 015.47-1.2c.46.68.91.85 1.37.51a1.25 1.25 0 011.37-.17 3 3 0 011.37-.85 1.55 1.55 0 001-.86c.69-.68 1.48-.57 2.4.34a.69.69 0 01.34 1 1.11 1.11 0 00.34 1.37.7.7 0 01.51.17c.12.12.4.17.86.17.45-.46.79-.68 1-.68a11.11 11.11 0 002.74-.69q.67-.68 1.2-.51a3.56 3.56 0 001.19.17 2.09 2.09 0 001.2-.34 1.12 1.12 0 011.2 0 1.59 1.59 0 00.68-.17 2.31 2.31 0 011-.17h1a7.52 7.52 0 001.54-.18 2.35 2.35 0 011.54.18 15.62 15.62 0 005.47-1 4.1 4.1 0 013.08-.17c1.14.34 1.93.29 2.39-.17a1.28 1.28 0 011.2-.17 7.55 7.55 0 001.19.17 8.05 8.05 0 012.91-.69 5.74 5.74 0 002.57-.68 6.31 6.31 0 013.24.17 2.34 2.34 0 002.57-.51l2-.34c1.37 0 1.71.4 1 1.19A2 2 0 01175 24a2 2 0 00-1.54.19 4.32 4.32 0 00-2.91.2 6.44 6.44 0 01-2.9.6 7.57 7.57 0 00-2.4 1 2.23 2.23 0 01-2.39 0 2.87 2.87 0 00-2.4.34 1.43 1.43 0 00-1.36 0 3 3 0 01-1.37.34 5.93 5.93 0 01-1.54.51c-.57.12-.74.63-.51 1.54.45 1.14.39 1.71-.17 1.71h-1.54a23.72 23.72 0 00-2.97 1.42 3.2 3.2 0 01-2.9 0 4.55 4.55 0 00-2.74 1 11 11 0 00-2.73.69 4.25 4.25 0 01-2.4 1 5.47 5.47 0 00-2.39.69 28.36 28.36 0 01-2.91 1 10.6 10.6 0 01-2.9.35 3 3 0 00-1.37.34 3 3 0 01-1.37.34c-.69.23-.91.51-.69.85a1.14 1.14 0 001 .52c.69.23.8.51.34.85a9.37 9.37 0 01-1.37.86 23 23 0 01-2.73 1 4.31 4.31 0 00-2.74.61 22.45 22.45 0 00-2.73.31 5.69 5.69 0 00-2.74.9 3.21 3.21 0 00-1.19.46 3.17 3.17 0 01-1.2.46c-.91 0-1.26.37-1 1.1s.23 1.23 0 1.47c-.23.49-.46.68-.68.56s-.34-.07-.34.18c-.69 0-1 .37-1 1.11-.46.47-.8.71-1 .71a2.61 2.61 0 01-1-.35 2 2 0 00-1.37.69 2.94 2.94 0 01-1.36-.34 5.83 5.83 0 00-2.91.68 4.07 4.07 0 01-2.91.34 10.28 10.28 0 01-3.07.34c-1.15.69-1.94 1.15-2.4 1.37-1.14.23-2.17.4-3.07.52a26 26 0 01-3.08.17 6.2 6.2 0 00-2.74.51 10.77 10.77 0 01-2.73.85 8.82 8.82 0 00-2.74.35c-.68.23-1.6.57-2.73 1a11 11 0 00-3.08.68 1.39 1.39 0 00-1 .35l-1.37.68a3.89 3.89 0 00-1 .69c-.68.68-.57 1 .34 1a1.8 1.8 0 001.54 0 4.35 4.35 0 011.46-.22 2.69 2.69 0 011.2-.34 2.86 2.86 0 001.19-.34 3.39 3.39 0 011.54-.35 3.38 3.38 0 001.54-.34 45.22 45.22 0 015.81-1 42.45 42.45 0 005.82-1 11.13 11.13 0 011.7.17 10.09 10.09 0 001.71.17 4.26 4.26 0 00-1.53.34c-.58.23-1.2.46-1.88.69a43.94 43.94 0 01-5.48 1 45.73 45.73 0 00-5.47 1 10.28 10.28 0 01-3.07.34q-1.73.69-2.91 1.2a6.51 6.51 0 01-2.57.51 2 2 0 00-1.36.34 3.77 3.77 0 01-1.37.69 5.36 5.36 0 00-1.37.17 5.84 5.84 0 01-1.37.17 2 2 0 00-1.36.34 2 2 0 01-1.37.34 19.38 19.38 0 00-10.26 4.45 2.78 2.78 0 01-1.54-.35 2.17 2.17 0 00-1.2-.34 10.62 10.62 0 00-3.07.34 20.07 20.07 0 01-2.91-.17 9.06 9.06 0 00-2.9.17c-1.83.23-3.77.41-5.82.52s-4.1.29-6.15.51c-1.37 0-3 0-4.79-.17s-3.76-.17-5.81-.17a3.32 3.32 0 01-2.4-.69 2.94 2.94 0 01-1.36-.34 1.38 1.38 0 01-1-.34q-1.71-.33-2.91-.51A3.38 3.38 0 0111 63.65c-.23 0-.46-.46-.68-1.38a4.24 4.24 0 010-2.4 3.32 3.32 0 00-1-1.9c-.46-.34-.68-.63-.68-.86a3.53 3.53 0 00-1.2-.87A2.88 2.88 0 016.22 55a15.72 15.72 0 01-.85-1.9 7.91 7.91 0 00-.86-1.55 4.16 4.16 0 00-1-.69 4 4 0 01-1-.69 6.65 6.65 0 01-1.36-3.1c1.13-1.15 1.25-2.24.34-3.27a4.69 4.69 0 01-1-4 16 16 0 01.69-2.59 1.9 1.9 0 000-1.55q-1.38-1-1-4.48l.68-2.07v-1a1 1 0 01.35-.69 8.67 8.67 0 01.17-2.24 7.49 7.49 0 01.85-1.56 3.1 3.1 0 01.51-1.2 3.06 3.06 0 00.52-1.55 25.38 25.38 0 011.71-2.4A7.08 7.08 0 015.2 17a2.24 2.24 0 011-1.51 3.62 3.62 0 011.2.17 3.9 3.9 0 001.2.17l1.19-1.11a1.71 1.71 0 011.2-.48 3.06 3.06 0 002.24-.24 19.8 19.8 0 012.57-1.11 3.23 3.23 0 011.37-.32 3.11 3.11 0 001.36-.32h.35a2.79 2.79 0 001-.31 7.3 7.3 0 013.25-.48c1 .11 1.76.16 2.22.16a8.21 8.21 0 012.4-.32q2.39 0 2.73 1.71.34 1.38 1.2 1.2a8.13 8.13 0 011.54-.17 6.43 6.43 0 002-.34 1.45 1.45 0 011.37 0 1.43 1.43 0 001.36 0 5.37 5.37 0 001.37-.18 3.15 3.15 0 011.71.18 2 2 0 001.37-.35 1 1 0 00.68-.34 4.14 4.14 0 001.54-.34 4.35 4.35 0 011.54-.34 2.33 2.33 0 002.56.51 9.3 9.3 0 012.91-.51 3.9 3.9 0 001.2-.17 3.56 3.56 0 011.26-.16l1.37-.69a3.4 3.4 0 001-.23 12.19 12.19 0 013.08-.45 8.35 8.35 0 003.1-.63 48.17 48.17 0 015.47-1 45.36 45.36 0 005.47-1 14.53 14.53 0 015.13-.34c.69.68.74 1 .17 1a3.31 3.31 0 00-1.53.34 2.75 2.75 0 01-1.2.34A1.91 1.91 0 0075 10q-1 .34-.51.75a2.51 2.51 0 001.51.35 4.32 4.32 0 011.37-.22 4.36 4.36 0 001.36-.23h3.08a15.72 15.72 0 003.08-.34 18.19 18.19 0 015.81-1q2.73 0 6.16-.34 2.73-.34 5.81-.51a38.24 38.24 0 006.15-.86c.69 0 1.71-.05 3.08-.17s2.16-.05 2.39.17a8.58 8.58 0 002.91.17 21.61 21.61 0 012.91-.17 5 5 0 002.56-.68 9.55 9.55 0 012.91-1 8.78 8.78 0 002.73.34 7.85 7.85 0 012.4-.34l6-1.2q2.57-.51 5.64-.85 1.71-.35 2.91-.51c.8-.12 1.76-.29 2.91-.52h2.73a7.81 7.81 0 002.74-.68 6.53 6.53 0 012.36-.23 6.11 6.11 0 002.39-.17 15 15 0 012.91-.34h2.91q3.08-.69 6.15-1.2a14.28 14.28 0 015.8.17zM41.78 11c.46.46.35.8-.34 1a1.54 1.54 0 01-1.71-.35l.86-.85c.34-.32.74-.26 1.19.2zm29.07 48.2c.91 0 1.14-.22.68-.68a7.49 7.49 0 01-1.53-.68c-.34-.23-.74-.12-1.19.34v.34a2 2 0 00-.86.68 1.85 1.85 0 01-.85.69c0 .23.34.34 1 .34a3.78 3.78 0 001.71-.34 4 4 0 011.04-.69zM84.18 6.89c.23.23.06.63-.51 1.19s-.85.17-.85-1.19a.73.73 0 00.51-.17c.11-.12.4-.06.85.17zm12.31 48.55a3.15 3.15 0 011.37-.34 2 2 0 01-1.37.34zm5.51-.34a1.21 1.21 0 00-1.36.17 1.77 1.77 0 01-1.71.17.66.66 0 01-.51-.17.74.74 0 00-.52-.17h1a1.62 1.62 0 011.54-.51 2.32 2.32 0 001.53-.17 2.35 2.35 0 011.54-.18 6.86 6.86 0 001.2.18 3.72 3.72 0 01-1.2.68 1.8 1.8 0 01-1.51 0zm5.82-7.18c1.37-.68 1.71-1.37 1-2.05s-1.59-.57-2.73.34l-.69.68c-.23.69 0 1 .69 1zm3.08 5.13h1.36l-1.36.68c-.46.23-.58 0-.35-.68zm1.7-6.84c.46.46.63.51.52.17s-.33-.38-.56-.17zm1-21.2c-.23 0-.17-.05.17-.17s.23-.06-.18.16zm3.4 20.86c.68 0 .74.34.17 1s-.85.46-.85-.68a1 1 0 00.68-.32zm.34-14.36c.69 0 .86-.06.51-.17a3.59 3.59 0 00-1.19-.18c-.45.23-.22.35.69.35zm3.42 14.36c.69-.23.86-.11.51.34s-.74.46-1.19 0a1 1 0 01.69-.34zm3.08-16.07a8.22 8.22 0 01-1.54-.17 1.6 1.6 0 00-1.54.51l.34.34c0 .23.11.34.35.34a2.08 2.08 0 001.19-.34 12.53 12.53 0 011.21-.68zm-.69-6.16q.69.34 1.2-.51c.34-.57.63-.86.86-.86a6.57 6.57 0 01-1.2-.17 2.41 2.41 0 00-1.54.17l-.34.35q-.68.69 1.03 1.02zm1 16.41c.68-.22.91-.56.68-1a.67.67 0 00-1-.34c-1.12.66-1.01 1.12.36 1.34zm4.85 3.42c.45 0 .39.17-.17.52s-1.09.63-1.54.85a1.9 1.9 0 01-1.37.17 2 2 0 00-1.37.17c-.68.23-.91.29-.68.17l1-.51a26.37 26.37 0 012.74-1 3 3 0 011.39-.37zm-4.11-15.38c-.46 1.14-.57 1.71-.34 1.71a8.08 8.08 0 002.91-.46c.8-.3 1.76-.72 2.91-1.25.45-.23.56-.52.34-.86s-.57-.28-1 .17l-.34.35a1 1 0 01-.69.34c-.68-.69-1.08-.86-1.19-.52a1.56 1.56 0 01-.86.86c-.68-.68-1.14-1-1.36-1zm.86-13.17c.11-.56-.17-.74-.86-.51a1 1 0 00-.34.68v.35c.67.23 1.06.05 1.18-.52zm6-.51c.69-.38.8-.76.35-1.14a2.17 2.17 0 00-1.37-.57 12.89 12.89 0 00-3.08.28l-.34.29c-.46 1.22-.06 1.71 1.19 1.48a19.31 19.31 0 013.21-.34zm-2.75 6.5c0 .23.22.57.68 1s.91.34 1.37-.34a4.46 4.46 0 00-.68-1c-.48-.46-.94-.35-1.37.34zm1.37-12c-.46.46-.52.85-.18 1.2a1.42 1.42 0 001.54.17q.69-.69 0-1.2a1.21 1.21 0 00-1.38-.14zm4.44 17.61c-.46.12-.57-.4-.34-1.54h1c0 .94-.23 1.46-.68 1.57zm2.39 10.77c.46.23.4.4-.17.51a2.29 2.29 0 01-1.54-.17 2.77 2.77 0 011.69-.31zm.35-28a1.61 1.61 0 00.17-1.2c-.12-.34-.29-.39-.52-.17s-.13.68.33 1.36zm2.05 14.36a.86.86 0 011.37 0c.22 1.37-.46 2.05-2.06 2.05-.91-.68-.8-1.36.34-2.05zm.34-3.08c.45-.45.68-.45.68 0s-.25.43-.7-.01zm9.57 6.84q-.69.69 0 .69c.69.46 1 .34 1-.34s-.33-.76-1.02-.36zm7.87-18.46c.22.46.22.74 0 .85s-.34-.17-.34-.85zm5.09 19.83c.45 0 .74-.05.85-.17s.4-.05.86.17c.22.46 0 .8-.68 1a5.33 5.33 0 01-5.48 1 1 1 0 01-.51-1.19c.11-.57.4-.74.86-.52.45.46.73.4.85-.17a3 3 0 01.86-1.54c.68-.45 1.13-.34 1.36.35s.56 1.06 1.01 1.06z" fill="currentColor"/></svg>