<svg xmlns="http://www.w3.org/2000/svg" viewBox="0 0 180 49.58"><path d="M22.59 49.57a1.36 1.36 0 01-1-.86 11.8 11.8 0 01-.59-1.62c-.16-.54-.24-1.11-.36-1.66s-.23-1.1-.34-1.64c-.18-.88-.36-1.75-.51-2.63-.37-2.08-.74-4.14-1-6.23s-.61-4.25-.89-6.38a649.4 649.4 0 00-.56-4.36c-.2-1.6-.39-3.2-.72-4.77-.06-.26-.12-.51-.19-.77l-.34.32a60.38 60.38 0 00-4.31 5 64.59 64.59 0 00-4 6.07c-1.45 2.4-2.78 4.83-3.96 7.28C3.22 38.54 2.7 39.8 2 41a13 13 0 01-1.73 2.22c0 .06-.08 0-.09 0a7.25 7.25 0 010-3.11A17.94 17.94 0 012 35.34c1.58-3.28 3.3-6.53 5.2-9.64a59.35 59.35 0 016.15-8.38l1.33-1.51a9.71 9.71 0 011.35-1.29 2.49 2.49 0 01.69-.35 1.06 1.06 0 01.91.15 2.57 2.57 0 011 1.29 16.35 16.35 0 01.61 2.1c.26 1.19.46 2.39.62 3.59l.66 4.9c.35 2.58.75 5.17 1.13 7.75.43 3 1 6 1.69 9 0-.07.05-.15.08-.22.22-.61.51-1.2.78-1.79.59-1.3 1.2-2.58 1.84-3.84 1.3-2.55 2.83-5 4.37-7.38s3.07-4.55 4.63-6.8C36.32 21.17 37.67 19.6 39 18c.56-.68 1.17-1.31 1.76-2 .36-.39.72-.77 1.07-1.16s.68-.73 1.05-1.07a8.26 8.26 0 011.71-1.21 1.11 1.11 0 011.57.44c.24.42.5.83.72 1.27a6.67 6.67 0 01.52 1.37 14.81 14.81 0 01.41 3.11l.19 3.37c.07 1.52.07 3.05.15 4.58s.13 3.28.25 4.91c.09 1.15.18 2.3.28 3.45.06-.1.12-.21.19-.31.76-1.37 1.44-2.79 2.11-4.2.48-1 1-2.07 1.46-3.1.76-1.61 1.52-3.21 2.26-4.82q1.25-2.68 2.56-5.32c.39-.79.85-1.55 1.28-2.31.33-.58.63-1.19 1-1.74a3.39 3.39 0 01.87-.9 7.75 7.75 0 011.28-.66c.82-.38 1.44.53 1.65 1.18s.56 1.57.8 2.36a13.64 13.64 0 01.49 2.83c.18 1.91.18 3.83.2 5.74v12.84l.36-.42c.28-.39.54-.8.79-1.22 1-1.73 1.74-3.56 2.53-5.37 1.26-2.95 2.36-6 3.49-9a42.67 42.67 0 012.18-4.88c.25-.46.51-.9.78-1.35s.59-1 .93-1.44a5.06 5.06 0 011.18-1.13 3.51 3.51 0 011.35-.43 2.43 2.43 0 012.22.69 6 6 0 011.21 2.35c.28.91.4 1.88.61 2.82a30.69 30.69 0 01.54 4.06c.13 1.67.15 3.35.17 5v3.69c.35-.22.7-.44 1-.67.12-.09.22-.18.33-.28.35-.37.68-.76 1-1.17.58-.79 1.1-1.62 1.6-2.46s1.15-1.9 1.71-2.85c.84-1.48 1.62-3 2.42-4.48s1.74-3.23 2.61-4.85c.79-1.46 1.65-2.88 2.53-4.29a15.17 15.17 0 011.4-1.92 7.31 7.31 0 012-1.46 1.32 1.32 0 011.85.51c.29.53.6 1 .86 1.59a7.51 7.51 0 01.51 1.87 22.49 22.49 0 01.27 4.42c0 1.19.09 2.37.14 3.55 0 1.41.09 2.8.22 4.2.08.69.21 1.37.32 2.06s.2 1.21.31 1.82l.18.64.1.21.08.12v.06l.11.08c.15.08.31.14.47.21a8.62 8.62 0 001.24.18 7 7 0 001.29-.11c.21-.06.41-.13.62-.21a8.7 8.7 0 00.83-.5 16.21 16.21 0 001.45-1.3 32 32 0 002.57-2.89c.7-1 1.36-2 2-3 .79-1.21 1.61-2.4 2.38-3.62a80.42 80.42 0 014.66-6.77 20.44 20.44 0 012.29-2.45 4.15 4.15 0 011.34-.8 3.1 3.1 0 011.57 0 5 5 0 012.78 1.84c.4.45.82.89 1.2 1.36a14.29 14.29 0 001 1.17c.37.28.75.52 1.14.76a21.19 21.19 0 004 1.73 19.66 19.66 0 004.25.63 35.9 35.9 0 007.93-1l-.29.07c1.64-.37 3.28-.78 4.88-1.31A42.17 42.17 0 00159 9c2.49-1.19 5-2.42 7.41-3.71 1.48-.78 3-1.51 4.43-2.33l2.73-1.57c.58-.32 1.15-.69 1.76-1a5.37 5.37 0 014.67.23 14.66 14.66 0 01-2.54 4 9.19 9.19 0 01-2.11 1.72l-1.27.66c-1 .58-2 1.17-3 1.7l-4.55 2.4c-1.84 1-3.71 1.87-5.57 2.78-1.5.73-3 1.43-4.56 2.05a39.43 39.43 0 01-5.23 1.59 37.75 37.75 0 01-10.25 1.27 19.64 19.64 0 01-9.14-2.79 10.71 10.71 0 01-1.24-.83 7.29 7.29 0 01-1.2-1.28 21.6 21.6 0 00-2-2.27l-.24-.18.12.06a2.92 2.92 0 00-.36-.17 5.07 5.07 0 00-.54-.09h-.15l-.2.18a29.14 29.14 0 00-2.08 2.37c-1.33 1.81-2.56 3.68-3.76 5.58-.63 1-1.28 1.94-1.94 2.91s-1.38 2.09-2.1 3.12a32.87 32.87 0 01-4.36 4.92 11.29 11.29 0 01-2.26 1.69 6.35 6.35 0 01-2.66.74 7.25 7.25 0 01-2.5-.26 4.48 4.48 0 01-1.91-1.1 5.42 5.42 0 01-1.17-2.16 22 22 0 01-.64-3c-.16-1-.36-2-.46-3.07-.12-1.29-.17-2.6-.22-3.9 0-1.14-.13-2.28-.17-3.42s0-2.35-.1-3.53c0-.15 0-.3-.07-.45l-.09.11c-.68 1-1.3 2-1.91 3.08v-.08l-.06.11-.15.25.13-.22c-2.2 3.9-4.17 7.94-6.45 11.79-.54.92-1.11 1.82-1.66 2.74a29.92 29.92 0 01-1.76 2.57 11.45 11.45 0 01-2.07 2.16c-.78.6-1.66 1-2.49 1.55a1.26 1.26 0 01-1.63-.25c-.3-.36-.64-.69-.92-1.07a4.43 4.43 0 01-.73-1.59 11.86 11.86 0 01-.11-3.42c0-2.8 0-5.59-.3-8.38-.08-.64-.18-1.27-.32-1.89v.07c-.13-.56-.24-1.13-.35-1.69-.06-.24-.12-.47-.19-.7a1.17 1.17 0 010-.11l-.42.05c-.3.45-.57.92-.85 1.38-.44.79-.85 1.61-1.22 2.44-1.06 2.51-2 5.08-3 7.61s-2.17 5.26-3.4 7.83a24.75 24.75 0 01-2 3.47 19 19 0 01-2.54 2.76l-.21.22a1.74 1.74 0 01-1 .61 1.19 1.19 0 01-1-.43 8.15 8.15 0 01-1-1.56 5.19 5.19 0 01-.35-2.21c0-.88.11-1.75.12-2.64v-4.31.29-7.47c0-1.91 0-3.83-.18-5.73-.05-.41-.11-.81-.19-1.21l-.27-.32-1 1.81c-.45.8-.83 1.64-1.23 2.46C58 23.6 57.2 25.3 56.42 27s-1.65 3.46-2.42 5.2c-.47 1-1 1.95-1.42 2.93s-1.13 2.23-1.78 3.3a14.75 14.75 0 01-.91 1.28 18.25 18.25 0 01-1.35 1.43 1.23 1.23 0 01-2.23-.34c-.16-.36-.29-.72-.42-1.09a5.89 5.89 0 01-.21-1.57c0-.49-.07-1-.11-1.46q-.09-1-.15-2c-.12-1.71-.22-3.42-.31-5.14-.17-3.56-.16-7.13-.48-10.68 0-.27-.08-.53-.14-.8l-.06-.24v-.06a.86.86 0 00-.14.13c-.67.69-1.32 1.4-2 2.11-.43.47-.9.93-1.3 1.43q-1.59 1.95-3.17 3.91l-3 4.36q-2.65 3.81-5 7.81c-1.24 2.19-2.33 4.44-3.37 6.72-.35.84-.61 1.7-1 2.52a11.89 11.89 0 01-.76 1.25 6.33 6.33 0 01-1.14 1.23 1.19 1.19 0 01-.82.34z" fill="currentColor"/></svg>