<svg xmlns="http://www.w3.org/2000/svg" viewBox="0 0 165.47 90"><path d="M119.47 48.51h.25v-1.43c0-.43 0-.86-.07-1.29-.08-.63-.19-1.25-.32-1.88s-.41-1.47-.66-2.19c-.33-.9-.71-1.77-1.11-2.64q-.12.78-.21 1.56c-.06.69-.1 1.37-.12 2.06 0 .5 0 1 .07 1.48.05.32.1.65.16 1s.16.58.25.86.3.71.47 1 .32.54.5.8a6.66 6.66 0 00.5.56l.2.14zM88.76 62.93h.28a2.14 2.14 0 00.13-.19c.3-.57.58-1.16.85-1.75s.37-1 .53-1.45c.24-.81.44-1.64.62-2.47.2-1.09.37-2.19.49-3.3s.14-2.21.15-3.32-.09-2.3-.2-3.45c-.41-3.5-1.1-7-1.85-10.4-.37-1.53-.78-3.05-1.3-4.54-.42-1.08-.89-2.12-1.41-3.15q-.45 1.14-.84 2.31c-.38 1.23-.7 2.48-1 3.74-.28 1.48-.49 3-.65 4.48-.26 3-.31 6.06-.3 9.1 0 1.94.08 3.87.27 5.8.12 1 .28 2.06.5 3.08s.49 1.8.79 2.69a12.7 12.7 0 00.51 1.2c.14.25.29.49.45.73a3 3 0 00.3.32l.21.16a4.79 4.79 0 00.79.31 4.63 4.63 0 00.68.1zM53.69 84.21a6.49 6.49 0 001-.09l.21-.12.24-.15.21-.18A9.06 9.06 0 0056 83c.71-1 1.38-1.94 2-3 .43-.78.82-1.56 1.18-2.37s.66-1.71 1-2.58c.4-1.32.74-2.66 1-4 .43-2.18.74-4.38 1-6.59s.33-4.49.34-6.75c0-1.77-.1-3.53-.27-5.29a66.72 66.72 0 00-1.14-6.59 116.38 116.38 0 00-3.61-12.34c-.38-1-.78-2.06-1.21-3.07a92.953 92.953 0 00-3.91 4.75 46.57 46.57 0 00-2.62 3.9c-.5.9-1 1.83-1.38 2.78-.55 1.32-1 2.67-1.48 4q-.88 2.88-1.52 5.83-.52 2.72-.81 5.48-.28 3.06-.3 6.14c0 2.09.13 4.18.35 6.25.19 1.54.43 3.06.76 4.56.29 1.25.65 2.47 1.06 3.68a23.4 23.4 0 00.93 2.21c.24.41.49.81.76 1.19a13.51 13.51 0 001.15 1.24 12.16 12.16 0 001.08.81 9.52 9.52 0 001.69.69 11.22 11.22 0 001.64.28zM50 89.38a10 10 0 01-4.67-3.61A17.44 17.44 0 0142.91 81a42 42 0 01-1.66-6.35 62 62 0 01-.85-13.4 66.23 66.23 0 011.89-13.5 49.13 49.13 0 014.51-12.09 40.39 40.39 0 013.44-5.14c1.22-1.59 2.48-3.13 3.8-4.64a56.14 56.14 0 00-3.55-5.38c-1.28-1.66-2.65-3.26-4-4.85a56.12 56.12 0 00-4.33-4.53 27.22 27.22 0 00-4-3 23.58 23.58 0 00-4.56-1.89 25.6 25.6 0 00-5.5-.85 20.71 20.71 0 00-4.07.39 27 27 0 00-4.83 1.72 23.57 23.57 0 00-3.06 1.83 33.39 33.39 0 00-2.84 2.46 37 37 0 00-2.92 3.33c-.72 1-1.38 2-2 3.07s-1.15 2.17-1.66 3.29-.8 2-1.15 3.08c-.4 1.32-.73 2.66-1 4s-.52 3-.69 4.5c-.23 2.62-.31 5.24-.35 7.86 0 2.93-.12 5.86-.11 8.79v-.4c0 1.6.08 3.2.24 4.79.1.8.22 1.59.38 2.38 0 .16.09.32.14.48.19.48.39.94.59 1.4l.64-.25a7.14 7.14 0 011.35-.38 7.61 7.61 0 01-.31 2.37 11.78 11.78 0 01-1.51 3 1.71 1.71 0 01-1.17.84 1.22 1.22 0 01-1.13-.64A17.22 17.22 0 01.62 58 39.32 39.32 0 010 51c0-2.16 0-4.32.07-6.48 0-2.37 0-4.73.13-7.1a58.42 58.42 0 011.85-13 40.21 40.21 0 015-11.32 32.54 32.54 0 018.17-8.74A23.83 23.83 0 0126.17.12a20.67 20.67 0 015.5.16 24.68 24.68 0 015.85 1.63c3.63 1.47 6.6 4.13 9.26 6.93 1.36 1.44 2.64 2.95 3.92 4.46s2.68 3.32 3.9 5.07a48.53 48.53 0 012.58 4.19A35.55 35.55 0 0164.63 17a26.87 26.87 0 015.72-2.34 19.47 19.47 0 016.08-.66 12 12 0 015.27 1.44 19.39 19.39 0 014.62 3.64c.31.33.61.66.9 1 .23-.31.48-.61.73-.91a12.06 12.06 0 012-1.85 10.17 10.17 0 012.15-1.17 10.72 10.72 0 015.55-.67 14.31 14.31 0 012.73.74c1 .35 1.91.79 2.85 1.22a40.27 40.27 0 015.77 3.17 31.89 31.89 0 018.1 8.16c.33-.75.68-1.48 1.08-2.2a12.71 12.71 0 014.73-4.92 9.08 9.08 0 016.48-.64 12.43 12.43 0 015.74 3.31 31.23 31.23 0 012.39 2.49 27.12 27.12 0 012.2 3.1l.39.64a17.34 17.34 0 012-4.49 11.27 11.27 0 012-2.24A11.81 11.81 0 01147 22a9.36 9.36 0 012.89-.81 12.75 12.75 0 013.74.28 26.86 26.86 0 013.17.83 19.69 19.69 0 013.55 1.7l1.19.69a6.34 6.34 0 011.52 1.36 8.64 8.64 0 011.19 1.78 13.53 13.53 0 011.22 3.17 7.15 7.15 0 01-2.1.39 6.32 6.32 0 01-1.37-.09 10.18 10.18 0 01-1.31-.36 7.25 7.25 0 01-1.53-.81 23.08 23.08 0 00-4.34-2.08 21.32 21.32 0 00-4.41-.83 10.8 10.8 0 00-1.6.14 10.31 10.31 0 00-1.32.46 14.09 14.09 0 00-1.35.8 14.41 14.41 0 00-1.12.95l-.32.37-.24.37c-.14.26-.28.52-.4.79s-.23.62-.34.94-.17.64-.25 1c0 .17-.05.34-.07.5 0 .45-.06.89-.06 1.34 0 .67.06 1.33.12 2 .48 1 .92 2 1.32 3.07a4.31 4.31 0 01-.18 3.43 1.87 1.87 0 01-2.15 1.23 3 3 0 01-.9-.42 3.21 3.21 0 01-.85-1.19 9.59 9.59 0 01-.89-3.24c0-.14 0-.27-.05-.4l-.9-1.75a46.29 46.29 0 00-3.26-5.24 25 25 0 00-2.8-3 16.81 16.81 0 00-2.19-1.66 9.85 9.85 0 00-1.8-.77 13.65 13.65 0 00-2.19-.34 9.58 9.58 0 00-1.85.17c-.22.06-.43.14-.64.22s-.69.39-1 .61-.63.52-.93.79-.42.47-.62.71-.37.55-.54.84c-.33.61-.63 1.23-.91 1.86-.16.37-.32.73-.47 1.1.33.62.65 1.24 1 1.87a32 32 0 012.3 6.21 24.11 24.11 0 01.65 5.8c0 1.8-.09 3.91-1.1 5.46a4.71 4.71 0 01-3.38 2.18 2.56 2.56 0 01-1.7-.54 8 8 0 01-1.78-1.88 12.11 12.11 0 01-1.85-4.54 23.09 23.09 0 01-.28-6.21 30.1 30.1 0 011.4-7c-.4-.61-.82-1.22-1.26-1.82a31.53 31.53 0 00-3.33-3.7 32.24 32.24 0 00-5.06-3.73c-1.16-.65-2.34-1.2-3.55-1.75a35 35 0 00-3.67-1.45 12.29 12.29 0 00-2.17-.36 8.62 8.62 0 00-3.7.8 9.59 9.59 0 00-.88.51q-.4.32-.78.66c-.22.23-.43.47-.63.71a33.72 33.72 0 012.44 5.7 51.33 51.33 0 011.53 6.1c.47 2.28.9 4.57 1.26 6.88a44.78 44.78 0 01.09 13.33 39.31 39.31 0 01-1.41 6.07 22.19 22.19 0 01-1.1 2.68 13.84 13.84 0 01-1.34 2.41 3.83 3.83 0 01-3.51 1.77 6.37 6.37 0 01-2.17-.59 5.15 5.15 0 01-1.84-1.66 16.22 16.22 0 01-2.07-4.61 31.56 31.56 0 01-1.22-6.31c-.21-2.08-.28-4.16-.29-6.25 0-2.29 0-4.58.1-6.86a53.12 53.12 0 012.07-13 34.33 34.33 0 011.91-5q-.7-.8-1.47-1.53a20.38 20.38 0 00-2.47-1.85 11.8 11.8 0 00-2.21-1 15.11 15.11 0 00-2.92-.41 21.3 21.3 0 00-4.14.42A26.5 26.5 0 0066.76 22a28.85 28.85 0 00-4 2.4q-1.72 1.29-3.3 2.73c.37.86.72 1.74 1 2.62a110.39 110.39 0 013.79 12.87A61.94 61.94 0 0166 56a77.53 77.53 0 01-1 13.53 44.86 44.86 0 01-3.61 12.23 34.73 34.73 0 01-2.92 4.82 7.43 7.43 0 01-3.68 3.17 4.93 4.93 0 01-1.53.22 10.9 10.9 0 01-3.26-.59z" fill="currentColor"/></svg>