<svg xmlns="http://www.w3.org/2000/svg" viewBox="0 0 180 78.91"><path d="M5.56 78.9A4.19 4.19 0 014 78.12a5.11 5.11 0 01-1.28-1.79 12.45 12.45 0 01-.86-3c-.26-1.47-.5-3-.74-4.43a117.28 117.28 0 01-1-16.75C.07 49.5 0 46.88 0 44.25a70.54 70.54 0 01.65-8.47 59.81 59.81 0 014.18-15.56c1-2.36 2.12-4.65 3.29-6.91a52.71 52.71 0 014-6.59A29.15 29.15 0 0114.38 4a14.88 14.88 0 012.48-2 13.24 13.24 0 016.77-2c4.69-.29 9.19 1.72 12.83 4.54s5.9 6.91 7.95 10.9a77.1 77.1 0 015.67 16.27c1.05 4.09 1.8 8.25 2.58 12.4.82 4.41 1.65 8.82 2.56 13.21.29 1.23.62 2.44 1 3.65l.3-.21c.16-.13.32-.25.47-.39l.21-.25q.15-.21.3-.45c.23-.41.44-.84.64-1.27.86-2.13 1.59-4.4 2.39-6.6.92-2.51 1.69-5.07 2.52-7.61.73-2.22 1.55-4.41 2.35-6.61.72-2 1.39-4 2.19-6 1-2.46 2-4.91 3.21-7.28a41.79 41.79 0 014-6.76A27.51 27.51 0 0180 12.4a14.76 14.76 0 016-2.89 11.31 11.31 0 013.23-.28 15.82 15.82 0 013.19.64 11.51 11.51 0 015.71 4.27 21.16 21.16 0 013.09 6c.87 2.53 1.64 5.11 2.34 7.69s1.21 5 1.84 7.55 1.25 5.18 2.09 7.7c.38 1 .78 2 1.25 2.91A21.54 21.54 0 00110 48a11.35 11.35 0 001 1.17c.12.1.25.19.38.28a10.2 10.2 0 001.19.48 10.39 10.39 0 001.76.27 11 11 0 001.29-.12 13.16 13.16 0 001.7-.59c.57-.3 1.12-.62 1.66-1s.83-.66 1.23-1 .55-.63.82-1c.93-1.29 1.73-2.66 2.53-4 .57-1 1.07-2 1.55-3.09q1.09-2.58 2.13-5.17c.6-1.52 1.17-3.06 1.84-4.55a11.06 11.06 0 012.3-3.35 4.15 4.15 0 013.23-1.33 8.75 8.75 0 013.79 1.3 20.68 20.68 0 013.72 3.21c1 .92 2 1.85 3 2.79.71.63 1.43 1.23 2.19 1.8a25.24 25.24 0 002.32 1.47 21.53 21.53 0 003.84 1.69 17.85 17.85 0 003.1.47 15.46 15.46 0 002.45-.19 11.27 11.27 0 001.66-.58 28.62 28.62 0 003.46-2.22l.72-.53a26.1 26.1 0 002.14-1.87 26 26 0 012.56-2.13c1.59-1.14 3.54-2.38 5.56-1.54 3 1.25 4.24 4.47 4.86 7.43a8.06 8.06 0 01-3.83.49c-.49 0-1-.09-1.46-.16s-1-.25-1.58-.36H173l.39-.09a2.7 2.7 0 00-.69.18c-.57.33-1.1.7-1.63 1.08a27 27 0 00-2.49 2.18 24.18 24.18 0 01-2.62 2.11l.37-.26a26.54 26.54 0 01-6 3.57 10.77 10.77 0 01-3.18.59 16 16 0 01-3.85-.27 20.75 20.75 0 01-7-3 36.36 36.36 0 01-5.8-4.7c-1-.94-2.05-1.88-3.06-2.84a10.88 10.88 0 00-1.4-1.05 12.84 12.84 0 00-1.68-.68 3.23 3.23 0 00-.53-.08h-.07l-.27.32-.12.18-.09.17c-.59 1.42-1.12 2.88-1.69 4.32-.91 2.33-1.86 4.65-2.9 6.93a52 52 0 01-2.59 4.68 28.2 28.2 0 01-2.89 4.06 14.21 14.21 0 01-8.31 4.66 9.1 9.1 0 01-2 0 8 8 0 01-2-.44 7.81 7.81 0 01-1.84-.83 9 9 0 01-1.83-1.65 20.78 20.78 0 01-2.64-4.1 32.14 32.14 0 01-2-5.1c-.55-1.8-.93-3.65-1.4-5.48s-.93-3.78-1.37-5.67a110 110 0 00-3.07-10.71c-.28-.75-.59-1.49-.94-2.21a19 19 0 00-1-1.65c-.41-.51-.84-1-1.3-1.46-.36-.3-.73-.57-1.12-.84a11.64 11.64 0 00-2.06-.86 15.2 15.2 0 00-2.11-.34 13 13 0 00-2.24.24 15.57 15.57 0 00-2 .66 16.49 16.49 0 00-1.8 1.08 26.47 26.47 0 00-2.8 2.38 25.18 25.18 0 00-1.72 2c-.51.71-1 1.45-1.43 2.2q-1.82 3.24-3.3 6.63c-1.83 4.32-3.35 8.75-5 13.16-.63 1.74-1.19 3.52-1.76 5.28-.8 2.45-1.71 4.86-2.56 7.29A36.72 36.72 0 0161 64a10.16 10.16 0 01-1.87 2.49 20.33 20.33 0 01-2.39 1.75l-.15.11a2.16 2.16 0 01-1.09.51 1.61 1.61 0 01-1.37-.58 13.41 13.41 0 01-1-1.23 10.93 10.93 0 01-.76-1.38 18.08 18.08 0 01-.93-3.23c-.3-1.2-.53-2.42-.76-3.63-.32-1.66-.64-3.32-.94-5-1-5.84-2-11.71-3.32-17.5v.1a111.63 111.63 0 00-3.3-11.31 57.67 57.67 0 00-2.81-6.27 43.68 43.68 0 00-3.06-5 23.45 23.45 0 00-2.25-2.6 23.48 23.48 0 00-3.5-2.51A22 22 0 0027.4 7a17.49 17.49 0 00-3.15-.48 20.3 20.3 0 00-3.73.34 11.22 11.22 0 00-1.72.58 18.16 18.16 0 00-1.75 1.06c-.24.19-.47.38-.69.59a25.08 25.08 0 00-1.7 2A43.35 43.35 0 0012 15.13c-1.41 2.49-2.68 5-3.84 7.65-.72 1.67-1.37 3.37-1.93 5.11-.45 1.51-.83 3-1.15 4.58-.45 2.32-.78 4.66-1 7-.17 2.05-.23 4.1-.22 6.15a1.85 1.85 0 000-.23v.36c0 3.06.07 6.11.14 9.17s.17 6.11.49 9.15c.18 1.54.42 3.07.67 4.59s.58 3.17.71 4.78a36.33 36.33 0 01-.09 4 4 4 0 01-.17 1.42z" fill="currentColor"/></svg>