<svg xmlns="http://www.w3.org/2000/svg" viewBox="0 0 180 50.9"><path d="M0 48.85a3.62 3.62 0 012.12-3.76h.11c.41-.29.84-.56 1.26-.85 2.5-1.87 4.78-4 7.16-6l5-4.27c.92-.77 1.94-1.44 2.9-2.15L25 27.06q2.36-1.72 4.69-3.47c3-2.26 6.2-4.4 9.34-6.53q6.4-4.35 13.21-8.06c2.44-1.34 4.92-2.58 7.42-3.81 2.76-1.35 5.52-2.74 8.36-3.9a1.55 1.55 0 011.82.71 4.1 4.1 0 01.45 2.79 6.67 6.67 0 01-.51 1.7A8.14 8.14 0 0169 7.7a2.75 2.75 0 00-.19.28c-.45.82-.85 1.66-1.22 2.51-1.7 4-3.18 8.16-4.7 12.26q-2.08 5.61-4.2 11.25c-.12.41-.25.81-.37 1.22 2.29-1.77 4.57-3.56 6.9-5.28 3-2.19 5.9-4.41 8.9-6.54l6.12-4.4c1-.71 2-1.44 3-2.11l5.68-3.76c1.29-.86 2.56-1.78 3.89-2.57 2.94-1.76 5.83-3.6 8.84-5.22 1.56-.85 3.12-1.72 4.7-2.53.79-.4 1.57-.81 2.36-1.19a22 22 0 013.55-1.55 1.77 1.77 0 012 .85 4.85 4.85 0 01.5 3.13 11.89 11.89 0 01-1.32 3.88C111.79 12 110.09 16 108.23 20c-1.42 3-2.87 6.07-4.31 9.1.83-.63 1.66-1.27 2.53-1.84l2-1.28 6.55-4.24c1.82-1.19 3.65-2.35 5.53-3.46 2.19-1.3 4.41-2.55 6.68-3.7s4.77-2.24 7.21-3.22a127 127 0 0115-4.83 121.62 121.62 0 0115-3.05c2.86-.37 5.71-.55 8.58-.74a11.44 11.44 0 012.11 0 7.85 7.85 0 013.5 1.55 5.12 5.12 0 011.25 1.49 1.34 1.34 0 01-.35 1.72l-.81.5a16.18 16.18 0 01-2.21 1.45 9.88 9.88 0 01-2.49.84 7.55 7.55 0 01-1.06.07l-2.42.16c-1.75.11-3.49.24-5.24.43a95.93 95.93 0 00-10.5 1.79h.07A126 126 0 00129.76 21a125.51 125.51 0 00-14.13 8.17l-5.57 3.63c-1.11.72-2.22 1.42-3.3 2.19s-2.28 1.74-3.47 2.55a22.88 22.88 0 01-4 2 1.74 1.74 0 01-2.08-.86 6 6 0 01-.67-1.45 5.62 5.62 0 01-.19-2.23 12.09 12.09 0 011-3.66c.46-1.1.91-2.19 1.41-3.26 1.08-2.32 2.19-4.63 3.31-6.93 1.78-3.65 3.43-7.36 5.07-11.08-1.74.94-3.49 1.89-5.23 2.85-1.48.82-2.9 1.75-4.35 2.62-1.29.77-2.61 1.51-3.86 2.34l-5.5 3.67c-1.37.91-2.78 1.78-4.12 2.74l-9.72 6.88-.16.11Q67.62 36.1 61.1 41c-1.57 1.19-3.11 2.43-4.78 3.48a2.32 2.32 0 01-3.1-.14 4.06 4.06 0 01-.89-1.91 6.71 6.71 0 010-2.28c.27-1.62.66-3.22 1-4.82.32-1.32.79-2.62 1.21-3.92 0 .08 0 .16-.08.24.31-1 .7-1.93 1.07-2.89L57.07 25c.8-2.1 1.58-4.19 2.38-6.28.72-1.91 1.46-3.81 2.2-5.71l1.14-2.93-3.58 1.7c-2.21 1.06-4.38 2.18-6.55 3.34a216.54 216.54 0 00-21.3 13.62L18 38.52c-1.79 1.31-3.46 2.79-5.16 4.2-1 .85-2.06 1.7-3.07 2.55-1.34 1.13-2.65 2.28-4 3.35a11.86 11.86 0 01-3.87 2.21 1.15 1.15 0 01-.39.07C.52 50.9.08 49.71 0 48.85z" fill="currentColor"/></svg>