<svg xmlns="http://www.w3.org/2000/svg" viewBox="0 0 144.27 179.63"><path d="M142.84 178.46c.52-.64.93-.75 1.23-.34a1.26 1.26 0 01-.12 1.51q-1.22-.23-1.11-1.17zM.89 20.84A2.86 2.86 0 010 19.13 3.64 3.64 0 01.06 18a2.26 2.26 0 01.43-1.28q.84-.77 1.17-1.11A2.37 2.37 0 002 14.12c.17-.36.72-1.32 1.65-2.86a19.09 19.09 0 014.54-4.83 18 18 0 011.46-1.21A18.71 18.71 0 0011.12 4a2.31 2.31 0 011.41-.75 4.36 4.36 0 001.56-.35 4.85 4.85 0 001.18-.77 5.63 5.63 0 011.58-.92L18 .77l1.77-.19A4.56 4.56 0 0122.5 0a6.07 6.07 0 011.56.55 2.91 2.91 0 001.28.45 8.92 8.92 0 002.59 1.53 4.27 4.27 0 001.26-.24 2.6 2.6 0 011.61.08 8 8 0 01.88.24 8 8 0 00.88.24l1.08.5a12.4 12.4 0 011.42.49 8.51 8.51 0 011.37 1 27.78 27.78 0 012.65 2.29c.71.72 1.51 1.44 2.38 2.17A33.72 33.72 0 0144 12a10.62 10.62 0 002.88 2.31 5.09 5.09 0 011 1c.24.21.47.43.69.65a1.63 1.63 0 01.49.72c.29.35.55.66.8.94s.5.53.73.75a14.91 14.91 0 011.26 1.57c.32.48.68 1 1.05 1.64a6.49 6.49 0 011 .87 10.1 10.1 0 01.95 1.34 6.34 6.34 0 001.44 2.41 14 14 0 011.77 2.05c.62.83 1.25 1.65 1.92 2.45s1.27 1.49 1.78 2.05a7.06 7.06 0 00.6 1 2.77 2.77 0 001.07 1.07 21.94 21.94 0 011.74 2.29 16.29 16.29 0 002 2.22 15 15 0 011.94 2.21 18.88 18.88 0 001.81 2.16c.6.61 1.24 1.23 1.93 1.88a3.07 3.07 0 01.8.95 2.2 2.2 0 00.73.74 3.26 3.26 0 01.93 1 5.66 5.66 0 001 1.21 8.9 8.9 0 011.58 2.13 13.92 13.92 0 001.37 2.19 6.59 6.59 0 001.62 2.57 15.49 15.49 0 011.94 2.21Q86 62.13 89.29 66a66.72 66.72 0 016 8c.33.48.65.93 1 1.35s.62.86 1 1.34.72 1.05 1.19 1.7a9.3 9.3 0 01.77 1.18 30.68 30.68 0 002.45 3.28q1.4 1.62 2.22 2.67a11 11 0 00.82 1.28 9.23 9.23 0 01.88 1.48 6.28 6.28 0 00.81 1.28c.44.59.92 1.17 1.42 1.73s.95 1 1.32 1.43.79.81 1.24 1.24a10.3 10.3 0 012.21 2.91 18.16 18.16 0 002.07 3.18c.33.48.7 1.06 1.09 1.74a12.21 12.21 0 01.68 1.22 3.81 3.81 0 00.88 1.48 2 2 0 01.49 1.62c-.17.36-.52.42-1.07.17a1.7 1.7 0 00-.22 1.21c-.52.64-1 1.22-1.29 1.72a1.21 1.21 0 00.25 1.6l.37 1a2.37 2.37 0 00.39 1.66c.59.39 1 .65 1.19.8s.33.67.36 1.56a2.68 2.68 0 00.55.59l.68.31c0 .45-.36.66-1.12.64a2 2 0 00-1.53.11c-.66.25-1 0-1-.77a2.8 2.8 0 00-.12-1.87q-.36-.66-.75-.51c-.4.14-.63.53-.7 1.16l-.5 1.08a11.1 11.1 0 000 1.68c.06.35.44.48 1.15.36.69-.55 1.06-.69 1.09-.4a2.81 2.81 0 00.81 1.28 6.06 6.06 0 01.42 1.43c0 .15.2.45.66.88a1.89 1.89 0 01.35 1.56 1.94 1.94 0 00.35 1.57c.33.48.63.89.91 1.24s1.33.34 2.75.11c.39-.14.63.1.71.73a2.54 2.54 0 01-.45 1.82c-.12.48-.14.75 0 .79s.21.25.35.64a2.09 2.09 0 00.6 1.32 2.09 2.09 0 01.6 1.32c-.23 1.4-.61 2.2-1.14 2.39-.86-.28-1.27-.58-1.24-.89s-.19-.75-.71-1.32a12.25 12.25 0 00-1.24-.33c-.16 0 .09.46.74 1.42a2.47 2.47 0 01.07 1.1 2.61 2.61 0 00.49 1.62l.68.32a2.53 2.53 0 01.55.58.62.62 0 00-.05.47 1.23 1.23 0 00.69.65 18 18 0 011.21 1.46 2.08 2.08 0 01.35 1.56c-.06.63.29 1 1.07 1.07a6.12 6.12 0 011.45.26c.91.41 1.25 1.34 1 2.77a2.07 2.07 0 00.14 1c.12.33-.2.48-1 .47l-1.19.43a1.37 1.37 0 00-.9 1.24 2.55 2.55 0 00.39 1.66 1.24 1.24 0 00.87-.1.84.84 0 01.66 0c.56.7 1.06 1 1.51 1s.5.34.17 1.07c0 .31.36.77 1.18 1.37.24.65.44 1.18.58 1.58a5 5 0 001 1.44A1.06 1.06 0 00132 157a2.13 2.13 0 00.47-.85 3.75 3.75 0 01.6-1.12 3 3 0 011.44-1 2 2 0 01.66.88 3.18 3.18 0 01.42 1.43c.08 1 .77 1.66 2.07 1.94a2.42 2.42 0 01.81 1.28 3.76 3.76 0 00.61 1.35 6.18 6.18 0 001.48 1.25c.47.28.69.57.66.89a1.84 1.84 0 00-.75 1.62 7.35 7.35 0 01-1.29-1.66 8.6 8.6 0 00-2.18-2.24 4.61 4.61 0 01-1.14-1.27 7.21 7.21 0 01-.6-1 11.09 11.09 0 00-1.44-1.16c-.51-.35-.72 0-.64 1q.07.19-.54 1c-.4.52-.16 1 .75 1.41a3.34 3.34 0 01.89.58 1.83 1.83 0 011 1c0 .44.07.68.16.73s.1.37 0 1c.16.84.33 1.3.51 1.39a2 2 0 01.9.91 2 2 0 00.9.9 5.07 5.07 0 011 1.44 4.63 4.63 0 001 1.44.91.91 0 00.66.89 2.41 2.41 0 011.21 1.13 1.89 1.89 0 01.41 1.42A3.71 3.71 0 00142 175a8.89 8.89 0 001.56.55c-.07.62-.13.95-.2 1a1.69 1.69 0 00-.42.39 1.41 1.41 0 01-1.39.51c-.5-.12-.71-.5-.64-1.12.38-.59.27-.89-.33-.89a2.65 2.65 0 01-1.52-.45 4 4 0 01-1.17-1 3.11 3.11 0 00-1.37-1c-.27-.35-.41-.6-.39-.75a1.62 1.62 0 00-2-1.65c-.67 0-1.11-.68-1.33-2.1-.23-.21-.31-.33-.25-.36s-.08-.12-.44-.28a3.44 3.44 0 01-1.49-.36c-.44 0-.73.16-.85.43a1.34 1.34 0 01-.78.63c0-.45.06-.74.24-.88a6.94 6.94 0 00.58-.55c.36.16.38-.11 0-.81s-.87-.84-1.62-.41a2 2 0 00-1 1.17.89.89 0 01-.51.75l-.5 1.08c.06.58.25.89.56.92s.5.12.55.25a2 2 0 011 1.21 3.32 3.32 0 00.89 1.47c.32.48.38.84.17 1.07a1 1 0 01-.93.23 3.28 3.28 0 01-1.23-.56 2.21 2.21 0 01-.78-1.52l-.17-1.06a4.21 4.21 0 00-1.66.39c-.79.29-1.67-.06-2.64-1.06a1.48 1.48 0 01-.43-.85 4.21 4.21 0 00-.23-.93 1.78 1.78 0 00-.09-.87 1.35 1.35 0 00-.19-.83q-.18-.17 0-.9a2.46 2.46 0 011.65.51 1.36 1.36 0 001.51.12 1.66 1.66 0 00.64.22 2.7 2.7 0 01.85.14 5.17 5.17 0 00-.09-1.77 2.1 2.1 0 00-.81-1.28 2.57 2.57 0 01-1.41-1.06c-.44-.59-.33-1 .33-1.25a5.17 5.17 0 01.93.68 3.51 3.51 0 011 1.53 2.8 2.8 0 001.61 1c.56.09.83-.08.81-.53-.07-1-.34-1.56-.82-1.61a1.78 1.78 0 01-1.26-1 13.92 13.92 0 00-1-1.43c-.27-.35-.6-.84-1-1.45a8.69 8.69 0 01.12-1.5q.09-.37-.45-.63a3.65 3.65 0 00-1.54 1 1.21 1.21 0 00-.33 1.25 1.5 1.5 0 01.15 1.63c-.27.48-.66.44-1.17-.13-.48-.87-.47-1.48 0-1.8a1.35 1.35 0 00.62-1.36c0-.31-.2-.75-.71-1.31l-.69-.65a5.34 5.34 0 00-1.76-3l-1-.31c-.59-.38-.85-.77-.77-1.18a1.81 1.81 0 00-.65-1.45c-.75 0-1 .23-.84.77q.44 1.19-.12 1.5a1.14 1.14 0 01-1.1.07c-.67-.2-1.07-.05-1.19.44s.12.93.71 1.32a2.07 2.07 0 01.91 1.24l.29.79c.29.79.53 1.23.71 1.32s.7.26 1.56.55c1 .68 1.46 1.41 1.37 2.2a1.16 1.16 0 001.08 1.4 1 1 0 011.28.43 2.27 2.27 0 00.35 1.22c.26.51-.08.93-1 1.27a.93.93 0 00.29.8c.23.21.17.46-.18.74a1.26 1.26 0 01-.63-1.12 2.17 2.17 0 00-1.52-.45 1.57 1.57 0 01-1.25-.33 3.91 3.91 0 01-.29-1.7 1.15 1.15 0 00-.27-1 5.52 5.52 0 01-1.34-2.43 1.38 1.38 0 00-1-1.2 2.16 2.16 0 00-1.31-.2c-.81-.15-1-.38-.59-.68s.37-.74-.14-1.3a7.85 7.85 0 00-3-2.51 4.32 4.32 0 00-1-1 7.42 7.42 0 01-1.45-1.5c-.46-.43-.88-.84-1.25-1.23a2 2 0 01-.32-1.79c0-.76-.26-1.22-.85-1.38a13.74 13.74 0 01-2-.74c-.59-.38-.86-.81-.81-1.28a2.07 2.07 0 00-.41-1.42 5 5 0 01-.87-1.15 5.3 5.3 0 00-.88-1.14 17.41 17.41 0 00-2.89-2.65 4 4 0 01-1.63-2.89 8.58 8.58 0 00-.77-1.18 11.3 11.3 0 00-1.39-1.63 4.52 4.52 0 00-1.27-1c-.15 0-.25.14-.29.45s-.25.24-.24-.36a1.55 1.55 0 00-.61-1.35 9 9 0 01-1.23-.9 6.46 6.46 0 01-.91-1.24 3.07 3.07 0 01-2-1.51 7.94 7.94 0 00-2.32-2.3 7.63 7.63 0 01-2.93-1.85c-.74-.78-1.5-1.62-2.29-2.53a27.79 27.79 0 00-2.52-2.57 14.5 14.5 0 01-2.33-2.63 6.33 6.33 0 00-.87-1.14 18.43 18.43 0 00-1.48-1.59 7.53 7.53 0 00-1.21-1.14 6.59 6.59 0 01-1.21-1.13 9.76 9.76 0 00-2.06-2.84 10.42 10.42 0 01-2.14-3l-.83-1a3.9 3.9 0 01-.77-.84 6.19 6.19 0 01-.67-1.22 2 2 0 00-.8-.94 56.78 56.78 0 01-4-4.49q-1.87-2.36-3.75-4.36-1.94-2.22-4-4.39t-3.64-4.07a9.15 9.15 0 00-.6-1 2.74 2.74 0 00-1.07-1.06 23.31 23.31 0 01-1.66-2.4A98.25 98.25 0 0034 69a11.52 11.52 0 01-.9-.91 11.52 11.52 0 00-.9-.91A9.57 9.57 0 0029.9 65a3.56 3.56 0 01-1.6-2.22c.08-.18-.11-.49-.57-.92A3.48 3.48 0 0127 61a7.65 7.65 0 01-2.37-2c-.06-.58-.18-.91-.37-1a8.13 8.13 0 01-.88-.58 5.35 5.35 0 01-1-1.2 3.08 3.08 0 00-.94-1q-.48-.72-.36-1a2.6 2.6 0 00-1.19-1.7 10.22 10.22 0 01-2-2.08c-.32-.48-.63-.89-.91-1.24s-.55-.7-.83-1a5.3 5.3 0 01-1-1.31A7.5 7.5 0 0014 45.31a8.05 8.05 0 01-1.16-1.6 7.73 7.73 0 00-1.15-1.61 9.83 9.83 0 01-1.05-1.3 9.33 9.33 0 00-1-1.31 20.08 20.08 0 01-2.25-2.43c-.65-.76-1.39-1.67-2.2-2.71a8.33 8.33 0 01-1.29-2.9 9.61 9.61 0 00-1.37-3.1 5.76 5.76 0 01-1.09-2.64 11.44 11.44 0 01.3-3.16 2.88 2.88 0 00-.85-1.71zm142.39 146c0 .76-.3.82-.83.2a7.67 7.67 0 01-.88-1.15c.08-.62.09-.89.05-.8s.11.22.48.39a3.66 3.66 0 011.18 1.33zm-8.09-14.59l-.22-.59.7 1c.14.2.18.27.11.3s-.26-.26-.59-.74zm-2.64 25.53a4.35 4.35 0 01-.81-1.28 4.61 4.61 0 001.5.69q.87.24.75.51c-.56.48-.99.51-1.44.05zm.6-29.84c.57.31.83.62.8.94-.47.77-1 .88-1.46.31s-.75-1-.71-1.31c.34-.31.8-.29 1.37.03zm-3.41.24a1.87 1.87 0 001.06.73 3.42 3.42 0 011 1.68c.18.68.31 1.16.41 1.42a3.59 3.59 0 01-.13 1.18c-.1.33-.53.27-1.31-.2a7.93 7.93 0 00-1.49-1.92 1.74 1.74 0 01-.67-.88 4.78 4.78 0 00-.49-1.63c-.21-.37 0-.74.6-1.12a1.79 1.79 0 011.02.71zm1 27.55c-.39.15-.53 0-.41-.52.67.17.85.35.45.49zm-1-30.73c.62-.38 1-.21 1.09.5s-.09.78-.6.22a2 2 0 01-.42-.72zm-2.42-4.74c-.22.23-.49.1-.82-.38a3.4 3.4 0 01-.58-1.58 1.38 1.38 0 01.62-1.36c1.56-.27 2 .47 1.28 2.23a2.36 2.36 0 01-.43 1.06zm-3.75 6.34c.62-.38.94-.72 1-1a16.54 16.54 0 00-1.83-2.81c-.69-.87-1.37-1.79-2-2.75a4.08 4.08 0 00-1.51-1 1.06 1.06 0 00.17 1.06.93.93 0 01.3.8c0 .31-.08.7-.14 1.17a2.07 2.07 0 00.69 1.55 1.37 1.37 0 01.12.63c0 .16 0 .39-.08.71a2.54 2.54 0 002 .17c.59-.22.81-.15.64.21-.13 1.16.07 1.6.71 1.23zm.54-29.38c0 .09-.11 0-.2-.26.25.04.32.14.27.23zm-3.32-2.6A7.16 7.16 0 00120 113c-.46-.43-.94-.93-1.46-1.5s-.87-1-1.1-1.17a1 1 0 01-.5-1 3.54 3.54 0 01.29-1.35c.25-.54.64-.61 1.16-.2a5.55 5.55 0 011.35 1.53 11.49 11.49 0 011.1 3l.57.92c.1.27.2.57.33.89s.23.63.33.9a4.83 4.83 0 01.84 1.37c.34.71.41 1 .23.93a3.05 3.05 0 00-1.13-.93.71.71 0 01-.52-.49 3.24 3.24 0 01-.63-1.31zm.88 7.9l-.07-.2c.12-.5.26-.74.41-.72a.45.45 0 01.35.32.7.7 0 010 .57c-.03.16-.25.16-.62 0zm-1.32-3.58c0 .45-.08.68-.31.68s-.38-.12-.48-.38c.32-.58.59-.67.86-.33zm-1.17 39l-.07-.2c-.05-.14-.11-.19-.17-.16s-.13 0-.18-.17a.6.6 0 00-.34-.32c.56-.51 1-.59 1.26-.24s.19.65-.43 1.03zm-1.19-8.13a6.43 6.43 0 001.34 1.2c.39.23.42.11.09-.37-.06-.58-.14-.89-.23-.93s-.21-.26-.36-.66c-.5-.56-.94-.82-1.29-.76s-.32.46.1 1.2a.62.62 0 00.42.26zm.18-19.66a.92.92 0 01-.67 0 1.37 1.37 0 01.12.63 2.25 2.25 0 00.19.83c.38.61.78.58 1.2-.11s.37-1.14-.18-1.39a.8.8 0 00-.59-.02zm-3.76-4.7a1.45 1.45 0 000-1.14c0-.89-.27-1.25-.74-1.08s-.63.61-.53 1.32c.4 1.06.78 2 1.17 2.84s.59 1.32.64 1.45l.35.33c.38.61.83.82 1.36.62s.76-.36.72-.49a15.49 15.49 0 00-1-1.44 3.49 3.49 0 01-.58-1.59c-.31-.8-.8-1.08-1.32-.88zm1 8.76c.45-.39.57-.69.34-.91a2.46 2.46 0 01-.88-1.14 1.59 1.59 0 00-.79-.95c-.45 0-.72.3-.81.86a2.21 2.21 0 01-.47 1.19c.28.35.51.45.68.31a1 1 0 01.73-.15c.54.25.4.67-.43 1.28a2.91 2.91 0 00-1 .5 8 8 0 00-.24.88c.39 1.06.75 1.41 1.07 1.07a2.5 2.5 0 00.59-1.46 6.87 6.87 0 011.26-1.54zm-1.55 13.53l-.54-.25c-.18-.09-.5.26-1 1 .11.71.4.87.85.48a1.59 1.59 0 00.74-1.29zm-1.25-6.75c-.65-.36-1-.16-1 .6l.22.6c.8 1.35 1.37 1.29 1.73-.19.07-.38-.24-.71-.9-1.07zm-.22-34.99c-.23-.43-.3-.52-.21-.26.38.61.45.69.21.26zM111 145.26a1.12 1.12 0 00-1.55.69 3.73 3.73 0 01-.84.76 1 1 0 001.42.49 4.58 4.58 0 001.18-.77q.79-.77-.21-1.17zm-.61-43.82c-.28-.35-.69-.83-1.22-1.46s-1-.78-1.52-.46a1.76 1.76 0 01-.61.79 1.47 1.47 0 00-.49.52l-.12.27c.11.71.51.87 1.18.47a1.3 1.3 0 011.79.24q1.46 2.19.98-.37zm-2.34 34l-.32.35 1.25 1.56c.23.22.17-.06-.19-.83s-.62-1.14-.79-1.1zm-.57 7.31a2.34 2.34 0 00.11-.6 1.23 1.23 0 00-.45-1.53 1 1 0 00-1.39.18c-.13.05-.08.41.16 1.07s.42 1.12.51 1.38a3.32 3.32 0 01.63.79c.19.3.34.21.46-.28a3.48 3.48 0 01-.04-1.03zm-5-9.07a2.48 2.48 0 00-.44.62q.77.84 1.14.36a1.78 1.78 0 00.44-.95q-.53-.71-1.19-.05zM99 123l-.2.07c.43.74.79 1.1 1.08 1.07s.18-.33-.33-.89c-.28-.25-.46-.25-.55-.25zm-6.57 12.11l-.07-.2c-.15-.4-.15-.62 0-.67a.62.62 0 01.47.05.74.74 0 01.38.43c0 .2-.21.34-.83.4zM86.18 125c.37.61.8.75 1.28.42s.34-.72-.44-1.19a1.45 1.45 0 00-.84.77zm-3.74-6.17a.64.64 0 00-.24.87q.76.86 1-.36-.31-.77-.76-.49z" fill="currentColor"/></svg>