<svg xmlns="http://www.w3.org/2000/svg" viewBox="0 0 180 72.72"><path d="M130.76 48.35a9.56 9.56 0 001.31-.16 3.38 3.38 0 00.54-.17 8.61 8.61 0 00.83-.49c.39-.31.76-.63 1.12-1l.37-.42c.06-.09.12-.17.17-.26l.06-.25c0-.11 0-.23.05-.34s0-.22 0-.33c0-.36 0-.71-.07-1.07-.11-.93-.26-1.85-.45-2.77-.28-1.11-.6-2.2-1-3.28a47.12 47.12 0 00-2.21-5 43.51 43.51 0 00-3.32-5.26c-.36 1-.71 2-1 3.08s-.68 2.35-.94 3.54c-.15.78-.26 1.56-.35 2.34s-.1 1.61-.11 2.41 0 1.31.11 2c.13 1 .29 2.1.5 3.14.09.36.2.72.31 1.08s.24.56.37.83a3.87 3.87 0 00.27.43c.26.31.53.59.81.87a10.39 10.39 0 001 .74 4.59 4.59 0 00.6.27 6.2 6.2 0 001.03.07zm-38.59 4.29h.26a5 5 0 00.65-.23 13.43 13.43 0 001.27-.73c.27-.22.54-.45.8-.7s.39-.44.58-.67c.32-.44.61-.89.9-1.36s.4-.77.59-1.17.4-1 .58-1.53.27-1 .39-1.5.13-.83.18-1.25c0-.58.07-1.16.08-1.75s-.06-1.25-.11-1.87-.17-1.19-.29-1.78-.36-1.3-.58-1.94c-.42-1.11-.88-2.19-1.41-3.26a34.07 34.07 0 00-2.21-3.48c-.43.81-.82 1.64-1.2 2.48q-1.28 3-2.3 6.15c-.31 1-.59 2-.82 3.08-.14.71-.25 1.43-.33 2.15-.07.91-.12 1.82-.13 2.74 0 .54.05 1.09.1 1.63 0 .36.12.72.19 1.08 0 .18.1.37.16.55s.26.63.41 1 .5.83.78 1.23a9 9 0 00.71.8 4.13 4.13 0 00.42.31l.18.08zm-44.85 13.5a14.6 14.6 0 002-.23 9 9 0 001.11-.36l.28-.16a6.25 6.25 0 00.65-.61l-.28.28c1.53-1.65 3.11-3.26 4.5-5 1-1.42 2-2.89 2.92-4.41.37-.67.72-1.35 1-2 .18-.44.35-.89.5-1.34.21-.69.38-1.4.54-2.11s.26-1.61.35-2.42c.08-1 .12-1.91.13-2.87s-.08-2.11-.19-3.17c-.18-1.46-.42-2.9-.73-4.34a69.37 69.37 0 00-2.07-7c-.47-1.26-1-2.5-1.58-3.72-.5.45-1 .9-1.47 1.37a57.57 57.57 0 00-4.58 5.28c-1.09 1.47-2.1 3-3 4.55-.7 1.24-1.35 2.51-1.94 3.81s-1.19 2.78-1.67 4.31c-.34 1.15-.64 2.3-.89 3.47-.36 1.94-.69 3.87-.91 5.82-.07.81-.11 1.62-.13 2.43 0 .49 0 1 .08 1.47s.14 1 .24 1.44.21.73.33 1.09.33.8.52 1.19a15 15 0 00.82 1.31 9.33 9.33 0 00.74.81 5.89 5.89 0 00.57.41 8.21 8.21 0 001.5.63 5 5 0 00.66.07zm-2.24 6.39a7.93 7.93 0 01-4.44-3 16.11 16.11 0 01-2.72-6c-1.13-4.76-.31-9.75.53-14.48a48.69 48.69 0 014.77-13.88 53.74 53.74 0 018.4-11.74q.85-.9 1.74-1.77a33.85 33.85 0 00-3.06-3.28 27.66 27.66 0 00-4.13-3 31.19 31.19 0 00-6.27-2.6 29.81 29.81 0 00-6.83-1 28.7 28.7 0 00-6.06.6 24.27 24.27 0 00-4 1.42 48.44 48.44 0 00-6.7 4 43 43 0 00-4.78 4.05 35.54 35.54 0 00-2.48 2.86c-.75 1-1.45 2.05-2.1 3.13-.5.89-1 1.8-1.4 2.73-.29.7-.57 1.41-.81 2.14s-.43 1.55-.6 2.35c-.26 1.4-.45 2.8-.6 4.22-.19 2-.31 4-.32 6.08 0 1.58.12 3.16.29 4.73.13 1.09.28 2.17.51 3.24.12.45.24.9.39 1.35s.42 1 .65 1.5c.06.11.13.21.2.32l.12.12h.3a3.63 3.63 0 00.52-.19c1.81-1.08 3.58-2.2 5.45-3.19a13.42 13.42 0 013.58-1.56A6.74 6.74 0 0119 52a19 19 0 01-2.76 3.39 11.87 11.87 0 01-3 2c-1.59.83-3.13 1.72-4.69 2.61-.51.3-1 .64-1.52.94a5.5 5.5 0 01-1.16.46 2.59 2.59 0 01-1 .14 2.13 2.13 0 01-.9-.26 4.35 4.35 0 01-.77-.65 8 8 0 01-1.34-2.42 22.67 22.67 0 01-1.44-6A57.37 57.37 0 010 44.64c0-2.31.24-4.63.48-6.92a34.48 34.48 0 011.4-6.9A34.79 34.79 0 018.67 19a44.22 44.22 0 0110.58-8.63 31.36 31.36 0 016-2.92 24.16 24.16 0 017-1.22 29.83 29.83 0 0113.1 2.52 28.07 28.07 0 0110.32 7.87c.51.61 1 1.23 1.44 1.87a59.38 59.38 0 015.52-3.67 24.22 24.22 0 015.88-2.74 25.14 25.14 0 017.44-.74 26.36 26.36 0 016.48.95 16.91 16.91 0 015.82 3A53.58 53.58 0 0193 19.66c.31.31.62.62.91.94a41 41 0 016.65-6.23c3.43-2.63 7.58-4.91 12-4.68a19.14 19.14 0 016.32 1.49 21.2 21.2 0 012.85 1.54 25.5 25.5 0 013.31 2.45c.71.61 1.38 1.25 2 1.92q.47-.89 1-1.74a41.05 41.05 0 014.12-5.61 34.59 34.59 0 015.14-4.91 25.2 25.2 0 016.89-3.61A21.17 21.17 0 01151.71 0 22.41 22.41 0 01159 1.41a25.22 25.22 0 016.56 3.91 52 52 0 0110.76 11.55c.75 1.07 1.47 2.16 2.13 3.28a10.79 10.79 0 011.27 3.55 10.57 10.57 0 01-.18 5.61 6.62 6.62 0 01-4-2.2 17.41 17.41 0 01-2.09-3.06c-.77-1.2-1.61-2.37-2.46-3.52a48.93 48.93 0 00-5.53-6.07 40.24 40.24 0 00-6-4.46 19 19 0 00-3.67-1.53 22.84 22.84 0 00-4.64-.71 22.08 22.08 0 00-4.13.42 27.54 27.54 0 00-4.74 1.68 22.17 22.17 0 00-2.79 1.64 30.23 30.23 0 00-3 2.57 45.57 45.57 0 00-3.29 3.79c-.8 1.11-1.55 2.24-2.25 3.42l-.14.26C131.93 23 133 24.47 133.9 26a43.59 43.59 0 015.21 12.88 21.08 21.08 0 01.55 6.52 11.62 11.62 0 01-.68 3.26 15.3 15.3 0 01-.65 1.43 12.15 12.15 0 01-1.13 1.66 12.71 12.71 0 01-2.13 2.08 9 9 0 01-2.39 1.39 7.84 7.84 0 01-2.88.46 5.92 5.92 0 01-3.06-.89 9.39 9.39 0 01-3.88-4.2 23.84 23.84 0 01-1.73-6.59 35.42 35.42 0 011.31-15.1c.58-2 1.23-4 2-6-.44-.46-.89-.91-1.36-1.34a27.72 27.72 0 00-4-2.93 19.72 19.72 0 00-3.75-1.61 18.28 18.28 0 00-3.6-.59 16.13 16.13 0 00-2.4.24 18.67 18.67 0 00-3.15 1.1 27.75 27.75 0 00-3.5 2.14 49.13 49.13 0 00-4.92 4.18l-.51.55.41.58a30.28 30.28 0 013.12 6 24.64 24.64 0 011.7 6.86 28.11 28.11 0 01-.18 6.92 24.29 24.29 0 01-2.11 6.61 18 18 0 01-3.6 5 10.21 10.21 0 01-2.25 1.6 6.37 6.37 0 01-2.68.87c-1.59.12-2.93-1.23-3.83-2.35a13.37 13.37 0 01-2.55-5.38 24 24 0 01-.46-6.28 34.11 34.11 0 011.11-7.38A63.39 63.39 0 0188.17 31a49.92 49.92 0 012.38-5.34Q89.22 24.3 87.82 23a24.48 24.48 0 00-3.9-3 15 15 0 00-2.64-1 27.12 27.12 0 00-5.73-.82 29.23 29.23 0 00-6.19.56 16.39 16.39 0 00-2.53.86 50.92 50.92 0 00-6.78 4.1c.68 1.5 1.28 3 1.83 4.61a52.92 52.92 0 012.93 14.12 32.3 32.3 0 01-2 13.67 34.56 34.56 0 01-3.16 5.79 47.12 47.12 0 01-4.36 5.69c-.69.78-1.38 1.55-2.06 2.35a8.07 8.07 0 01-2 1.69 8.34 8.34 0 01-2.53.87 10.68 10.68 0 01-2 .23 6.3 6.3 0 01-1.62-.19z" fill="currentColor"/></svg>