<svg xmlns="http://www.w3.org/2000/svg" viewBox="0 0 180 68.58"><path d="M147.59 30.81a8.83 8.83 0 001.36-.14 9.93 9.93 0 001.09-.36 4.05 4.05 0 00.35-.21l.09-.07c.05-.06.09-.12.14-.17l.08-.13.17-.34.12-.32c0-.13.07-.25.1-.38s0-.18 0-.27a.41.41 0 010-.11v-.33c0-.11 0-.28-.07-.41-.09-.36-.19-.71-.3-1.07-.26-.68-.55-1.34-.88-2a25.7 25.7 0 00-1.7-2.72c-.23-.3-.47-.59-.72-.88-.34.51-.67 1-1 1.56-.66 1.18-1.31 2.37-1.88 3.61-.13.34-.26.69-.38 1 0 .11-.06.21-.08.32l-.06.32v.17l.09.3c.06.16.13.31.2.46s.2.33.31.49.21.25.32.37a8.37 8.37 0 001.08.8 8.18 8.18 0 001 .39 4.51 4.51 0 00.57.12zM120 32.92a10 10 0 001.1-.08l-1.1-2.09a40 40 0 00-3.08-4.9l-.43-.56v.76c0 .69.07 1.36.14 2s.2 1.48.35 2.21c.09.37.19.74.31 1.1.06.16.13.31.2.46s.14.24.22.35l.16.18.12.09a4.23 4.23 0 00.62.25 9.69 9.69 0 001.39.23zM89.4 48.08a1.73 1.73 0 00.32 0 7 7 0 001-.37c.17-.09.33-.19.49-.29s.34-.28.5-.43.26-.28.38-.43.33-.48.48-.72l.21-.45c.09-.22.18-.45.26-.67.14-.49.26-1 .37-1.45s.16-1.07.23-1.6c.06-.77.09-1.54.1-2.32s0-1.5-.11-2.26c-.07-.57-.16-1.13-.27-1.7s-.27-1-.44-1.52-.44-1-.69-1.54a24.75 24.75 0 00-1.58-2.48 33.59 33.59 0 00-2.79-3.18c-.6 1.51-1.13 3-1.63 4.58a53.08 53.08 0 00-1 3.9c-.14.8-.26 1.6-.36 2.41 0 .53-.07 1.07-.08 1.6s0 .77.07 1.15.14.86.23 1.29.3 1.14.48 1.7.4 1 .63 1.45.61 1 1 1.43a12.57 12.57 0 001.23 1.4 3.85 3.85 0 00.52.38 1.39 1.39 0 00.28.12zM53.19 62.72a14.6 14.6 0 002.8-.27 14.85 14.85 0 002.24-.78 22 22 0 002.52-1.49 25.42 25.42 0 002.31-2c.64-.67 1.24-1.36 1.81-2.09q.55-.78 1-1.59c.37-.66.71-1.33 1-2s.58-1.43.82-2.17c.16-.54.3-1.09.43-1.65.07-.4.13-.8.18-1.21.05-.59.07-1.17.07-1.76 0-1-.09-1.92-.19-2.88-.17-1.44-.4-2.85-.7-4.27-.39-1.58-.86-3.13-1.39-4.66a61.94 61.94 0 00-3.1-7.08c-.81-1.51-1.69-3-2.61-4.44a30.41 30.41 0 00-4.2 2.47 40.93 40.93 0 00-4.14 3.52A33.69 33.69 0 0049.83 31c-.54.74-1 1.5-1.5 2.28s-.89 1.7-1.28 2.58-.67 1.71-1 2.59-.56 2-.78 3-.33 2-.44 2.93c-.1 1.15-.16 2.29-.17 3.44s.09 2.13.19 3.2.34 2.14.57 3.2.51 1.94.84 2.89c.24.63.51 1.25.81 1.87.25.44.52.86.81 1.27a9.32 9.32 0 00.66.75 9.34 9.34 0 00.88.63 11.6 11.6 0 001.89.79 11.46 11.46 0 001.88.3zm-4 5.17a9.66 9.66 0 01-2.37-1.27 8.85 8.85 0 01-1.94-2.15 18 18 0 01-2.32-5 32.69 32.69 0 01-1.37-6.26 39.14 39.14 0 01.62-13.39 35.29 35.29 0 015.07-12.14 34.42 34.42 0 019.32-9c.4-.27.8-.53 1.21-.77l-.26-.36a40.3 40.3 0 00-4.31-4.83 32 32 0 00-4.87-3.56 30.52 30.52 0 00-6.17-2.71 26.67 26.67 0 00-6-.83A22.81 22.81 0 0031 6a23.72 23.72 0 00-4 1.32 34.74 34.74 0 00-5.08 2.94A70.87 70.87 0 0014.41 17l-.1.1-.14.14a55.48 55.48 0 00-4.79 5.37c-.69 1-1.34 1.95-2 3s-1.14 2.14-1.64 3.24c-.37.9-.7 1.8-1 2.72s-.54 2-.75 3c-.23 1.23-.41 2.46-.54 3.7s-.19 2.74-.2 4.11c0 1.6.12 3.2.29 4.79q.24 2 .66 4c.26 1.13.58 2.23.94 3.33s.86 2.13 1.23 3.3q.15.41.33.78l.07.07.24.17a11.24 11.24 0 001.45.77 4.78 4.78 0 01-2.15 1.8 1.83 1.83 0 01-1.46-.18 4.2 4.2 0 01-1.61-1.55 8.76 8.76 0 01-1-2.27c-.32-1-.62-2-.88-2.95a44.33 44.33 0 01-1.1-6.75 48.77 48.77 0 01.58-14 37.61 37.61 0 014.88-12.54 54.42 54.42 0 018.71-10.21c1.57-1.56 3.19-3.07 4.91-4.47a33.76 33.76 0 015.55-3.67c.87-.47 1.77-.9 2.69-1.29a20.47 20.47 0 013.26-1A24 24 0 0137.5 0a26.19 26.19 0 0112.17 3.87 32 32 0 015.16 3.74 36.84 36.84 0 014.46 4.88c.84 1.08 1.65 2.18 2.43 3.31a28.13 28.13 0 016.54-1.58 42.47 42.47 0 016.28-.17 23 23 0 016.49 1 20.07 20.07 0 015.36 3l.45.33a25.2 25.2 0 016.94-7.13 18.32 18.32 0 015.33-2.41 11.21 11.21 0 016-.05 20.78 20.78 0 015.41 2.5 28 28 0 015.06 4l.29-.38a12.39 12.39 0 012.06-2 21.58 21.58 0 012.45-1.67 26.6 26.6 0 016-2.55 29.43 29.43 0 016.1-1.14 19.55 19.55 0 016.51.62 23.5 23.5 0 015.76 2.41 20.26 20.26 0 013 2.07 18 18 0 012.25-1.71 10.38 10.38 0 012.75-1.26 9.68 9.68 0 012.78-.3 18.64 18.64 0 013.42.36 22.43 22.43 0 0110.91 5.67A29.16 29.16 0 01174 20a36.1 36.1 0 013.25 5.95 47.25 47.25 0 012.34 6.2 13.43 13.43 0 01.43 4.24 9.54 9.54 0 01-.81 3.95 4 4 0 01-1.34-.87l.15.14a7.46 7.46 0 01-1.5-1.81 23.4 23.4 0 01-1.81-4.67 51.67 51.67 0 00-2.6-5.72l.2.38a27.69 27.69 0 00-1.63-2.65 31 31 0 00-3.43-3.72 26.85 26.85 0 00-3.61-2.69 22.75 22.75 0 00-4.33-1.8 20.64 20.64 0 00-4.21-.67 12.68 12.68 0 00-2 .18 9.43 9.43 0 00-1.09.41c-.09.05-.18.09-.27.15a23 23 0 011.64 2.73 18.07 18.07 0 012 6.27 12.75 12.75 0 01-.69 5.74 8.81 8.81 0 01-3.17 4.57 8.14 8.14 0 01-4.8 1.24A7.58 7.58 0 01142 35a9.44 9.44 0 01-2.18-4.89 13 13 0 01.95-6.45 35.19 35.19 0 012.78-5.56c.09-.16.19-.32.29-.48-.32-.21-.64-.42-1-.62a25 25 0 00-4.92-2.08 19.47 19.47 0 00-4-.62 25.51 25.51 0 00-5.44.57 31.18 31.18 0 00-5.43 1.81 23.85 23.85 0 00-3.17 1.85c-.31.23-.6.47-.89.72.28.36.55.73.82 1.09.65.87 1.29 1.75 1.88 2.67s1.24 2.15 1.82 3.25c.32.61.63 1.23.93 1.85a15.17 15.17 0 011.21 2.46 8.48 8.48 0 01.41 2.83 7.23 7.23 0 01-.61 2.71 4.91 4.91 0 01-1.77 2.25 7.55 7.55 0 01-4.5 1.12 9.89 9.89 0 01-2.42-.41 4.36 4.36 0 01-2-1.51 11 11 0 01-1.92-4.68 28.74 28.74 0 01-.64-6.13 23.71 23.71 0 01.72-5.68c-.22-.23-.45-.45-.68-.67a29 29 0 00-4.48-3.24 20 20 0 00-3.84-1.7 10.6 10.6 0 00-2.09-.34 11.71 11.71 0 00-2.05.24 18.9 18.9 0 00-3 1.07 19.54 19.54 0 00-2.33 1.38 24 24 0 00-2.3 2c-.57.6-1.11 1.21-1.62 1.86l.82.86a27.9 27.9 0 013.69 5 19.22 19.22 0 012.18 6 28.47 28.47 0 01.39 6.32 25.54 25.54 0 01-1 6.67A14.88 14.88 0 0194 51.59a9.67 9.67 0 01-2 1.77 5.62 5.62 0 01-1.08.58 5.44 5.44 0 01-1.62.5 3.9 3.9 0 01-2.18-.39 7.17 7.17 0 01-1.93-1.53 16 16 0 01-1.68-2.09 13.74 13.74 0 01-1.71-3.23 22.11 22.11 0 01-1.35-6.2 26.33 26.33 0 01.66-7.29 55 55 0 011.83-6.65c.4-1.2.83-2.38 1.31-3.55-.67-.49-1.36-1-2.08-1.38a18.13 18.13 0 00-3.06-1.35 25.18 25.18 0 00-5.8-.73 37.71 37.71 0 00-8 .62l-.42.11q.83 1.41 1.56 2.85a54.7 54.7 0 014.77 13.1 41.94 41.94 0 01.89 6.71 25.41 25.41 0 01-.56 7 27.82 27.82 0 01-2.19 6 24.82 24.82 0 01-3.78 5.58 24.18 24.18 0 01-4.64 4 15.53 15.53 0 01-6.14 2.4 10 10 0 01-1.72.14 12 12 0 01-3.94-.67z" fill="currentColor"/></svg>