<svg xmlns="http://www.w3.org/2000/svg" viewBox="0 0 170.99 180"><path d="M170.78 150.64q-.3.13-.48-.27.78.15.48.27zm-153-98.9c-.67-.82-1.52-1.77-2.54-2.84s-2-2.06-2.84-3c-.79-1.09-1.49-2.06-2.1-2.92S9 41.19 8.17 40.09l-1-1.38a2.55 2.55 0 00-1.17-.8 1.36 1.36 0 01-1.29-.76 1.38 1.38 0 01.13-1.37l.92-.64c.1-.52.18-1.15.26-1.9a3.36 3.36 0 00-1.19-2.48c-.83-.43-1.26-.89-1.3-1.35a3.49 3.49 0 00-.7-1.61c-.73-1-1.39-1.83-2-2.62s-.46-1.91.34-3.37c.23-.58-.08-1.48-.93-2.71-.42-.61-.4-1 .07-1.22s.76-.73.87-1.58c0-.32.32-.65.9-1a2.29 2.29 0 001.11-1.56 1.83 1.83 0 010-.69c0-.32.35-.47 1-.43l1.33.86c.73-.16 1.1-.51 1.09-1.07s.14-.9.4-1a4.58 4.58 0 011.47-.75c.37-.08.61-.54.72-1.39 0-.33.3-.61.83-.84l1.41-.61c.62-.42.87-.85.76-1.28s.18-.8.85-1.08l1.38-.12 1.39-.12a1 1 0 00.57-1.45l-.52-1.2c.56-.56 1-.77 1.41-.61a1.8 1.8 0 001.38-.12A7.16 7.16 0 0120.31.66l1-.43a3.51 3.51 0 012.34 2.09 3.9 3.9 0 001.4 1.31 1.31 1.31 0 001.49-.16L27.75 3a2.18 2.18 0 011.59-.21 4.93 4.93 0 011.54.53c.71.33 1 .14.82-.59Q30.23.92 32.24.05a4.07 4.07 0 011.18 0A5.21 5.21 0 0135 .31a5.85 5.85 0 011.61 1 5 5 0 001.33.86A5.76 5.76 0 0039 3.24a14.32 14.32 0 001.64 1.33 9.41 9.41 0 012.8 2.13 30.25 30.25 0 012.83 2.72 10.33 10.33 0 002.87 2.23l2.51 2.5c.56.56 1 1 1.34 1.45a19.25 19.25 0 001.34 1.46 9.2 9.2 0 011.25 1.25c.34.41.79.9 1.34 1.45q2.14 2.19 4.17 4.42c1.35 1.49 2.72 2.89 4.08 4.22a14.33 14.33 0 012.36 2.44 10.69 10.69 0 002.57 2.36c.92 1 1.57 1.8 1.93 2.27a29.37 29.37 0 002.22 2.4 32 32 0 015.37 5.81 28.58 28.58 0 005.27 5.61 34.22 34.22 0 015.19 5.41 29.9 29.9 0 005.1 5.21 17.58 17.58 0 011.4 1.31c.44.45.9.89 1.4 1.31s1 .94 1.21 1.15.65.59 1.21 1.15a36.38 36.38 0 013 2.88 24.11 24.11 0 012.17 2.53l1.12 1a2.58 2.58 0 01.61 1.41 9.45 9.45 0 002.16 2.66c1.32.7 2.19 1.16 2.62 1.37s.65.72.65 1.52c-.08.19 0 .35.33.45s.48.24.53.37a2.36 2.36 0 011.67.72 4.24 4.24 0 01.82 1.07 2.16 2.16 0 010 1.19 3.06 3.06 0 00.29 1.78.93.93 0 00.74.88 2.49 2.49 0 011.31 1.11c.56.55 1 .79 1.39.71a2.4 2.4 0 011.5.43 3.88 3.88 0 001 .89 1.89 1.89 0 01.84 1.67 1.06 1.06 0 00-.65 1.28 3 3 0 01.78.41l.57.5a2.19 2.19 0 01.89 1.49 1.61 1.61 0 00.78 1.27q1 0 1.11.63a6.38 6.38 0 01.18 1.25l.16.37c.1.59 0 .88-.34.86a4 4 0 00-1.5.41q-2 1.36-.25 2.74a4 4 0 011.3-.32c.92-.08 1.26.17 1 .74a1.94 1.94 0 01-.8 1.19c-.52.46-.36.91.47 1.35.13-.06.49.23 1.08.85a8.94 8.94 0 001.54 1.36 1.67 1.67 0 001.69.59q.86-.24 1.17 1a2.77 2.77 0 00.47 1.35 2.69 2.69 0 01.46 1.36 7.65 7.65 0 001.84 2.31 2.94 2.94 0 002.7 1 1.54 1.54 0 011.8.31 1 1 0 01.17 1.49 2.85 2.85 0 00.82 3 3 3 0 001.67-.84c.39-.41.78-.13 1.19.81a13.21 13.21 0 001.37 1.23q.53.38 0 .84c-.21.25-.47.57-.79.94a2.57 2.57 0 00-.43 1.75.63.63 0 01.37.32c.06.14.13.19.19.17s.13 0 .19.16l.09.2c.46 0 .72.09.77.39s.3.43.76.39a4.35 4.35 0 00.93.21.73.73 0 00.86-.5l.17-1.27a1.49 1.49 0 011.64.49 16.6 16.6 0 001.4 1.57 3.69 3.69 0 011 1.25 8.82 8.82 0 00.9 1.54 14.1 14.1 0 001.42 1.08 1.43 1.43 0 01.73 1.13 2.35 2.35 0 001 1.59 2.85 2.85 0 01.9.7c.39.55.68.94.85 1.16s-.13.34-.91.38a3.08 3.08 0 00-.5.77 1 1 0 01-.39.49c-.15.38-.29.52-.41.42s-.37 0-.71.3c0 .65.06 1 .29.95s.71-.11 1.44-.26c.14-.06.62-.31 1.47-.75a1.64 1.64 0 012.1.16 3.55 3.55 0 01.67 1.27c0 .23-.37.52-1.18.87a2.58 2.58 0 00-1.11 1.31 3.72 3.72 0 01-1 1.52c-.25.9 0 1.36.7 1.37a5.13 5.13 0 001.29-.08 2.06 2.06 0 001.71-.74 2.14 2.14 0 011.42-.85c.54-.24 1.4.27 2.57 1.52.56.55.8 1 .71 1.37s.22.78.92 1.28.66 1 .32 1.29-.87.21-1.56-.28c0-.46-.62-1.17-1.75-2.12a6.35 6.35 0 00-2.18-1.45l-.23.58a1.27 1.27 0 01-.63.75 8.19 8.19 0 01-.94 0c-.16 0-.32.17-.47.56a7.22 7.22 0 001 1.38c.52.65.75 1.07.67 1.27a2.35 2.35 0 01-1.12 1.56c-.58.33-1 .38-1.24.17a11.86 11.86 0 01-1.49-1.51 11 11 0 00-1.11-1.19 2.72 2.72 0 00-2.4-1.12 2.79 2.79 0 00.22 1.34c.23.7.42 1.26.6 1.66a2.12 2.12 0 001.08 0 .63.63 0 01.68.19 1.6 1.6 0 010 1.77c-.33.7-1.13.69-2.4 0s-2.11-1-2.69-1.23a2.11 2.11 0 01-1.21-1.15 2.52 2.52 0 00-.9-.69 2.92 2.92 0 01-.8-.49c.23-.57 0-1.11-.7-1.61a7.86 7.86 0 01-1.43-.82 1.5 1.5 0 00-1.46-.32l-.14.77.58.23a3.67 3.67 0 011.31 1.11 2.29 2.29 0 001.43.82 10.72 10.72 0 010 1.81c-.06.42.23.82.87 1.18.65 0 1.07.26 1.24.66s-.3.77-1.44 1.1c-.55.56-1 .71-1.35.47s-.65-.48-.9-.69a6.72 6.72 0 00-2.6-2.71 8.06 8.06 0 01-1.1-.6 2.64 2.64 0 01-1.07-1.09 8.27 8.27 0 00-.45-1.6 3.45 3.45 0 01-.16-1.48c-1-.39-1.34-.82-1.16-1.3s-.14-.61-1-.4a2.66 2.66 0 01-1.45-.33 2.09 2.09 0 01-.85-.58 13.39 13.39 0 01-1.09-1.69 1.79 1.79 0 00-1.51-1c-.06-.13-.51-.26-1.36-.37a1 1 0 00-.81.35 1.9 1.9 0 01-.72.55 5.61 5.61 0 00.59 1.9 2.53 2.53 0 00.63.92c.25.21.68.55 1.27 1s1.12.83 1.56 1.12h1.43c.62 0 .69.3.19 1-.46 1.16-.07 1.86 1.16 2.13a2.86 2.86 0 011.26 1.25 3.65 3.65 0 001.05 1.34c.69.5 1 .94 1.06 1.34s.43.81 1.25 1.25a1.93 1.93 0 001.41.35c.37-.16.61-.11.73.16a2 2 0 01.14.89c.24.54.67.63 1.32.27s1-.14 1 .65a1.23 1.23 0 01-.53.71c-.2.09-.35.39-.44.91-.21.24-.3.4-.27.47s-.17 0-.61-.33c-.73-.64-1-.67-.95-.07a6.56 6.56 0 00.24 1.09 3.22 3.22 0 00.84 1.67 1.49 1.49 0 01.16 1.72c-.41.82-1.35 1.14-2.81 1-.81-.45-.91-1.13-.3-2a4.1 4.1 0 00.62-3.13l-.18-.4a3.81 3.81 0 00-.85-.9l-.58.25a.86.86 0 01-.68 0 8.87 8.87 0 00-2.18-1.84c-.6-.31-.78-.56-.54-.72a5.52 5.52 0 001-1.4 2.78 2.78 0 00-.87-.68 12.09 12.09 0 01-1.54-1.15 2 2 0 00-1.25.66c-.52.47-1 .62-1.35.47q-2.66-.06-1.31 1.95a2.7 2.7 0 001.67.55c.45-.06.65-.14.6-.26.57-.53.65-1 .23-1.4s-.22-.63.57-.65c.43.27.63 1.1.59 2.49a2 2 0 011.27.72c.32.38.21.85-.35 1.4-.67.29-.8.66-.36 1.11s.93 1 1.49 1.51a2.66 2.66 0 01.9 1.53c0 .46.47.91 1.3 1.35a2.49 2.49 0 01.79.73 3.24 3.24 0 01.65 1.51c.29.67 1.15 1.18 2.57 1.52a2 2 0 01.41 1.5.66.66 0 00.16.65.51.51 0 00.68.18 1.4 1.4 0 011.31 1.11 2 2 0 01-.09 1.72 5.07 5.07 0 01-1.51-1.27 13.92 13.92 0 00-1.38-1.55 2.49 2.49 0 01-.9-1.53c-.1-.59-.57-1-1.42-1.06a.62.62 0 00-.37-.31 1.26 1.26 0 01-.75-.64 2.18 2.18 0 01-.25-.85c0-.16-.18-.32-.56-.47a6.48 6.48 0 01-2.83-2.13 6.17 6.17 0 00-2.94-2.08 4.94 4.94 0 01-2.73-2.17 4.08 4.08 0 00-1.84-2.07 1.79 1.79 0 01-1.12-1.19 1.25 1.25 0 00-1-1l-1.3-.52a4.83 4.83 0 01-1.56-1.12 21.17 21.17 0 00-1.43-1.65c-.59-.62-1-.88-1.29-.76q-1.38.12-1.38-.72a2 2 0 00-.47-1.35 3.3 3.3 0 00-.94-.79 8.71 8.71 0 00-1.71-.93c-.31-.35-.46-.6-.45-.77s-.11-.34-.36-.56c-.06-.13-.28-.27-.67-.43a.71.71 0 00-.49 0 2.77 2.77 0 01-1.76-.19c-.25-.21-.65-.6-1.21-1.15a10.77 10.77 0 00-1-1.14 2.48 2.48 0 01-.59-.82c0-.79-.24-1.09-.64-.92a1.43 1.43 0 01-1.18 0 13 13 0 01-1.65-1.32c-.65-.59-1.05-.86-1.18-.8a2.35 2.35 0 00-1.85-.4 1.47 1.47 0 01-1.18 0 3.19 3.19 0 01-1.41-1.06l-.61-1.41a.87.87 0 00-.86-.59 1.38 1.38 0 01-1-.3 5 5 0 00.86-1.33 1.88 1.88 0 00.07-1.22 2.82 2.82 0 00-1.2-1.4c-.5-.42-1-.82-1.36-1.21s-.56-.11-.49.81a13.06 13.06 0 00.71 1.37q.45.77-1.11.48a4.51 4.51 0 01-.92-1 4.64 4.64 0 00-.93-1c-1.21-.6-1.4-1.41-.56-2.41q.89-1.83-1.08-2c-.86.21-1.33 0-1.4-.48a2.48 2.48 0 010-1.09 1.54 1.54 0 00-.91-1.54 4.83 4.83 0 00-1.36-.38 1.32 1.32 0 01-.75-.64 1.31 1.31 0 00-.76-.64.76.76 0 00-.59 0 1.16 1.16 0 01-.88-.1c.44-.83.53-1.35.28-1.57a1.21 1.21 0 00-.88-.1 1.69 1.69 0 01-.79.1 6 6 0 01-2.58-1.54 1.16 1.16 0 010-1.09 2.38 2.38 0 000-1.58 1.42 1.42 0 00-.87-1.19 4 4 0 01-1.1-.62 1.09 1.09 0 01-1.14-1c-.09-.6-.48-.76-1.15-.47-.38 1-.59 1.21-.64.75a3.55 3.55 0 00-.14-.89c-.12-.27-.56-.56-1.33-.87l-.29-.11a1.24 1.24 0 01-.78-.14 4.29 4.29 0 01-1.51-1l-1.49-1.51a6.84 6.84 0 00-.71-.53 8.67 8.67 0 01-.71-.53.63.63 0 00-.37-.32.65.65 0 00-.39-.07.58.58 0 01-.39-.07 4.91 4.91 0 00-1.13-.95 4.88 4.88 0 01-1.12-1 7.41 7.41 0 00-.71-1.36 3.65 3.65 0 00-1.43-.82c-.39-.15-.56-.28-.52-.38s0-.34-.21-.74a2.25 2.25 0 00-.75-.64l-.58-.23a2.81 2.81 0 01-1.2-1.39 6 6 0 00-.33-1c-.06-.13-.26-.25-.62-.33s-.56-.2-.62-.33a2.54 2.54 0 01-1.11-1.19 10.77 10.77 0 00-2.3-2.51 4.57 4.57 0 00-1.41-1.06 5 5 0 01-1.33-.86l-1.39-1.56a.59.59 0 01-.37-.31.69.69 0 00-.38-.32.62.62 0 00-.37-.31A6.48 6.48 0 0149 84.17a17 17 0 00-2.61-2.7 14.78 14.78 0 01-2.94-2.67q-1.28-1.5-2.59-2.8L30.69 65.4q-5-5.15-10.09-10.35c-.36-.48-.85-1.07-1.47-1.75a4.55 4.55 0 00-.8-.74 1.09 1.09 0 01-.42-.41zM161.05 140a.34.34 0 01-.07.39 1.29 1.29 0 01-.46.32c-.2.08-.32-.1-.36-.56.54-.22.84-.27.89-.15zm4.85 13.45q.3.1.06.69c-.15.38-.34.31-.58-.23.16-.37.33-.52.52-.44zm-4.47-2.61a14.21 14.21 0 01.38-1.6c.17-.55.53-.55 1.08 0l.61 1.41c-.11.84-.43 1.22-.95 1.12a1.29 1.29 0 01-1-.74zm7.74 16.26c.09-.52.28-.72.57-.61a1.09 1.09 0 01.61.58 3 3 0 01.32 1.3c.48.74.43.89-.17.43a7.08 7.08 0 01-1.53-1.61zm-22.83-54c.54.88.48 1.19-.2.92a1.69 1.69 0 01-1.16-1.29c.56-.52 1.02-.4 1.36.41zm17.28 47.77a2.33 2.33 0 01-.9-1.53 3 3 0 00-.77-1.22 10.13 10.13 0 00-1.48-.67 5.47 5.47 0 01-1.13-1 2.54 2.54 0 01-.64-.92 3.65 3.65 0 01-1-1.34 2.86 2.86 0 00-1.26-1.25c-.29-.67-.3-1.15 0-1.43a1.71 1.71 0 011.11-.47 2 2 0 011.4.47 1.63 1.63 0 01.65 1.51 2.69 2.69 0 00.61 1.41c.43.61.78.7 1.07.26.08-.2.29-.25.65-.16s.28.47-.22 1.16a1.77 1.77 0 00.11 1.63c.3.51.7.42 1.19-.27q.93-.64 1.17.21a5.18 5.18 0 01.19 1.83 5.33 5.33 0 001.83 2.56c.88.57 1 1 .42 1.25a2.1 2.1 0 01-1.2.28 1.88 1.88 0 01-.42-.42 1.53 1.53 0 00-.42-.41 2.26 2.26 0 00-.96-1.44zm-12.48-30c.64.36 1.1.4 1.37.13s.27-.76 0-1.43a2 2 0 00-1.25-1.25c-.55-.16-.81.15-.79.94a1.74 1.74 0 00.46.51 1 1 0 01.35.81zm-10.49-23.2c.13-.06.41.22.83.83s.81.93 1.13.95c.5.42.61.85.32 1.29a5.31 5.31 0 01-1.33-.86c-.49-.42-.68-.1-.54 1a2.21 2.21 0 01.42.41 2.69 2.69 0 00.71.53 12 12 0 011.53 1.61c.52.66.59.91.2.75a4.15 4.15 0 01-2.83-2.12 8.78 8.78 0 00-2.69-2.91.59.59 0 00-.37-.31l-.26-.61c1.03-.92 1.99-1.1 2.88-.52zm4.17 8c.15-.39.31-.49.46-.32s.1.32-.17.43zm13.26 29.9c-.18-.25-.31-.27-.38-.08.44.33.57.35.38.12zm-11.9-23.44c.54.17.54.53 0 1.09a1.7 1.7 0 01-.54.11c-.23 0-.28 0-.15-.05-.09-.89.14-1.28.69-1.11zm3.47 10q-.09-1-.75.21c-.08.19 0 .39.26.6s.55-.1.49-.79zm-13.45-29.2a9.66 9.66 0 011.3 1.35q.63.93-.9.15a3.85 3.85 0 01-1.79-1.38.88.88 0 011.39-.12zm24.39 59.28c.39.16.58.31.57.48s.18.32.56.47a8.08 8.08 0 011 1.73l.53 1.21a1 1 0 01-1.36-.37 7.86 7.86 0 00-1.3-1.35 8.18 8.18 0 01-.64-.92c-.36-.81-.14-1.23.64-1.25zm-11.79-22a.89.89 0 01.81.49c.35.8.72 1 1.1.6a2.79 2.79 0 00.72-1.39c-.16-.73-.42-1.05-.78-1a2.37 2.37 0 01-1.5-.43c-.58-.23-1-.17-1.24.17s-.35.59-.29.72a1.88 1.88 0 001.18.8zm-17.4-40.35c0-.09.14-.33.29-.72.71.17.76.55.13 1.14s-.86.69-.7.3.25-.58.28-.72zm24.6 58.85c.33 0 .52.09.58.23s-.1.12-.49 0zm-27.49-60.83a1.43 1.43 0 011.45.57 5.45 5.45 0 00-.22 1.17c-.06.59-.54.76-1.45.51-.38-.15-.57-.31-.56-.47a.93.93 0 00-.08-.45c-.01-.79.27-1.21.86-1.33zm22.4 54.65a1.65 1.65 0 011.34.61l1.3 1.35a4.68 4.68 0 01.74.88 1 1 0 01-1 1c-.62 0-1 0-1-.16a3.4 3.4 0 01-1.48-.92 9.75 9.75 0 00-.78-1 .61.61 0 000-.49c.13-.8.42-1.23.88-1.27zm12.45 24.39c.22.15.25.41.1.79a.2.2 0 01-.29-.11.63.63 0 00-.37-.32c.2-.38.34-.5.56-.36zM127 93.52c-.26 0-.38-.24-.36-.56.49.42.61.61.36.56zm-.82-1.08c.11.27-.08.19-.58-.23s-.71-.73-.64-.92.53.33 1.21 1.15zM154.24 158l.18.41a1.26 1.26 0 01-.93-1 .88.88 0 01.75.59zm-9.68-21c.27-.67.21-1.08-.18-1.24-.59.1-.93.33-1 .68a5 5 0 01-.24.82c.67.48 1.15.39 1.42-.26zm11.53 33.63a.93.93 0 01.35.81c-.21.25-.43.3-.65.16a.4.4 0 01-.22-.5c.1-.54.27-.7.52-.49zm-10.44-22.53c.45.29.63.25.55-.11s-.29-.4-.63-.09zm-3-6.85a.59.59 0 01.31-.37q.21-.09-.09-.21zm5 22.6c0-.4 0-.82-.07-1.28a1.33 1.33 0 011.61-.7 1.5 1.5 0 00.08-1.47 4.68 4.68 0 010-1.67c.09-.52.33-.71.71-.55a1.3 1.3 0 01.73 1.12 6.32 6.32 0 00.41 1.5 3 3 0 010 1.43 2.7 2.7 0 01-1.35 1.78c-1.48.8-2.35 1.29-2.59 1.48s-.34.18-.26 0a3 3 0 00.75-1.64zm3.49 1.72c-.24-.38-.06-.61.53-.71a5.07 5.07 0 011.17 1c.59.62.85 1 .77 1.22.1.6 0 .9-.44.91a2.19 2.19 0 01-1.43-.82 4.9 4.9 0 00-.58-1.6zm-3.47-9.14c.56 0 .75.35.58 1.06-.15.38-.43.47-.85.25a1.67 1.67 0 01-.79-.73 1 1 0 011.08-.58zm9.91 22.38q.74.87-.36 1.11c-.54.23-.82 0-.84-.83.33-.77.72-.87 1.22-.28zm-22.38-48c.1-.68 0-1.1-.42-1.25a1.43 1.43 0 00-.49 1.64c.52.46.83.33.93-.35zm17.49 43c.2-.65.64-.56 1.31.27a7.79 7.79 0 00-.09 1.71c0 .62-.3.69-1 .19a1.46 1.46 0 01-.43-1 2.51 2.51 0 01.23-1.11zm-5.06-3.43a1 1 0 011.28-.92c.68.11.95.19.82.25a3.87 3.87 0 00.29 1.78q.93 1-.27.48a8.43 8.43 0 01-1.58-.88.39.39 0 00-.23-.25.54.54 0 01-.23-.26zM141 156.34c.59.07.66.51.22 1.34-.53.24-.89.15-1.06-.25-.06-.79.22-1.15.84-1.09zm-19-43.09c-.22-.15-.28-.08-.16.18.33.02.38-.04.16-.18zm4.87 22.64a3.23 3.23 0 011.23.9c.06.14.23.26.52.38l.72.28a1.35 1.35 0 00.78-.69c.11-.29 0-.51-.41-.66a5.59 5.59 0 01-1.61-.14c-.62-.13-.93-.59-1-1.38.12-.85-.43-1-1.64-.49a.61.61 0 000 .49 1.64 1.64 0 01.06.69 5.25 5.25 0 001.35.62zm8.88 17.8c.18-.15.1-.24-.23-.26a.4.4 0 00-.23.58 1.6 1.6 0 00.46-.32zm-13.7-22.05c.39.54.81.4 1.25-.43a2.07 2.07 0 01.59-.85c.24-.18.33-.34.27-.47-.35-.81-.69-1.06-1-.75l-.34.86c-.56.57-1.07.67-1.54.31s-.68-.46-.62-.33a14 14 0 011.39 1.66zm8.79 17.6c.58.23.89 0 .92-.64-.11-.27-.49-.5-1.14-.7s-1 .09-.93.88zm-10.51-8.85a2 2 0 011.73.69 2.74 2.74 0 001 1.23c.45.29.66.6.64.92a1.64 1.64 0 001 .89 5 5 0 011.56 1.12 2.35 2.35 0 01.85 1.43c0 .39.41.58 1.2.56s1-.46.69-.9a2.15 2.15 0 01-.38-1.15c-.07-.92-.33-1.33-.76-1.22s-.89-.22-1.38-1h-1.32a1.37 1.37 0 01-1.27-1 3.36 3.36 0 00-.84-1.67 4 4 0 00-1-.89 1.65 1.65 0 01-.88-.93c-.2-.47-.69-.69-1.48-.67a1.23 1.23 0 00-.78 1.53c.35.8.83 1.16 1.42 1.06zm-5.54-18.65c.41-.34.34-.78-.22-1.34-.83-.44-1.22-.43-1.18 0a3.76 3.76 0 00.14.9c.47.64.85.78 1.26.44zm-6-6.73c.28-.28.21-.72-.22-1.34a.72.72 0 00-.89.15.7.7 0 00-.14.78c.54.55.96.69 1.23.4zm-1.93-1.43q.36-.28.27-.48a.72.72 0 00-.89.15c.15.4.36.51.6.33zm5.5 19.38a1.63 1.63 0 001.37-.71 1.44 1.44 0 00-1.23-.91q-.89-.09-1.11.48c0 .79.33 1.18.95 1.18zm-10.08-22.79c.56.56 1 .67 1.46.33s.34-.78-.22-1.34c-.73-1-1.14-.78-1.21.52zm9.14 19.83c.45-.27.59-.77.43-1.5a1.13 1.13 0 00-1.41-.23c-.44.27-.59.77-.43 1.5a1.13 1.13 0 001.41.23zm-6.32-3.85a1.19 1.19 0 00.26-1.07c-.27-1-.61-1.32-1-1a.9.9 0 00-.36 1.11c.44 1.1.81 1.42 1.1.97zM103 133c.56.55.87.62.92.2s-.3-.63-1.09-.61zm-15.57-30q.31-.37-.12-1.38c-.39-.16-.72 0-1 .43a.71.71 0 000 .49c.52.51.91.66 1.12.46zm-2.71 11.4c.54-.23.46-.6-.23-1.1q-1.15-.45-.9.15c.22.86.59 1.18 1.13.95zM13.57 13.85c.23-.58 0-.85-.83-.83a.68.68 0 00-.43.66c.61.69 1.04.75 1.26.17z" fill="currentColor"/></svg>