<svg xmlns="http://www.w3.org/2000/svg" viewBox="0 0 144.27 179.63"><path d="M.32 179.63a1.26 1.26 0 01-.12-1.51c.3-.41.71-.3 1.23.34q.11.95-1.11 1.17zM142.53 22.55a11.44 11.44 0 01.3 3.16 5.65 5.65 0 01-1.09 2.64 9.61 9.61 0 00-1.37 3.1 8.33 8.33 0 01-1.29 2.9c-.84 1-1.55 1.95-2.13 2.71a20.08 20.08 0 01-2.25 2.43 9.33 9.33 0 00-1 1.31 9.83 9.83 0 01-1 1.3 7.73 7.73 0 00-1.15 1.61 8.38 8.38 0 01-1.15 1.6 7.22 7.22 0 00-1.12 1.5 5.3 5.3 0 01-1.05 1.31c-.28.34-.56.69-.83 1s-.59.76-.91 1.24a10.22 10.22 0 01-2 2.08 2.6 2.6 0 00-1.19 1.7q.12.27-.36 1a3.08 3.08 0 00-.94 1 5.35 5.35 0 01-1 1.2 8.13 8.13 0 01-1 .66c-.19.08-.31.41-.37 1a7.65 7.65 0 01-2.33 2 3.48 3.48 0 01-.76.85c-.46.43-.65.74-.56.92a3.62 3.62 0 01-1.61 2.23 9.57 9.57 0 00-2.28 2.2 11.52 11.52 0 00-.9.91 11.52 11.52 0 01-.9.91A98.25 98.25 0 00102 77a25.13 25.13 0 01-1.74 2.29 2.69 2.69 0 00-1.08 1.06 9.15 9.15 0 00-.6 1c-1.06 1.26-2.28 2.62-3.64 4.07s-2.69 2.91-4 4.39-2.5 2.79-3.75 4.36a54.87 54.87 0 01-4 4.49 2.09 2.09 0 00-.8.94 6.19 6.19 0 01-.67 1.22 3.9 3.9 0 01-.77.84l-.83 1a10.42 10.42 0 01-2.14 3 10 10 0 00-2.06 2.84 6.59 6.59 0 01-1.21 1.13 7.16 7.16 0 00-1.2 1.14 17 17 0 00-1.51 1.68 6.33 6.33 0 00-.87 1.14 14.5 14.5 0 01-2.33 2.63 29.12 29.12 0 00-2.52 2.57c-.79.91-1.55 1.75-2.29 2.53a7.56 7.56 0 01-2.99 1.85 7.78 7.78 0 00-2.31 2.3 3.11 3.11 0 01-2 1.51 7 7 0 01-.9 1.24 8.6 8.6 0 01-1.24.9 1.55 1.55 0 00-.61 1.35c0 .6-.08.72-.24.36s-.13-.46-.29-.45a4.52 4.52 0 00-1.27 1 11.3 11.3 0 00-1.39 1.62 8.58 8.58 0 00-.77 1.18 4 4 0 01-1.63 2.89 17.41 17.41 0 00-2.89 2.65 5.3 5.3 0 00-.88 1.14 5 5 0 01-.87 1.15 2.07 2.07 0 00-.41 1.42c.05.47-.22.9-.81 1.28a13.74 13.74 0 01-2 .74c-.59.16-.87.62-.85 1.38a2 2 0 01-.32 1.79c-.37.39-.79.8-1.25 1.23a7.15 7.15 0 01-1.45 1.5 4.32 4.32 0 00-1 1 7.85 7.85 0 00-3 2.51c-.51.56-.55 1-.14 1.3s.22.53-.59.68a2.16 2.16 0 00-1.31.2 1.38 1.38 0 00-1 1.2 5.52 5.52 0 01-1.34 2.43 1.18 1.18 0 00-.27 1 3.77 3.77 0 01-.29 1.7 1.56 1.56 0 01-1.25.33 2.18 2.18 0 00-1.52.45 1.26 1.26 0 01-.63 1.12c-.35-.28-.41-.53-.18-.74a.9.9 0 00.29-.8c-.92-.34-1.26-.76-1-1.27a2.33 2.33 0 00.34-1.22 1 1 0 011.28-.43 1.16 1.16 0 001.08-1.4c-.09-.79.37-1.52 1.37-2.2.86-.29 1.38-.47 1.56-.55s.42-.53.71-1.32l.29-.79a2.07 2.07 0 01.91-1.24c.59-.39.83-.83.71-1.32s-.52-.64-1.19-.44a1.14 1.14 0 01-1.1-.07q-.55-.31-.12-1.5c.2-.54-.09-.79-.84-.77a1.81 1.81 0 00-.65 1.45c.08.41-.18.8-.77 1.18l-1 .31a5.34 5.34 0 00-1.76 3l-.69.65c-.51.56-.75 1-.71 1.31a1.35 1.35 0 00.62 1.36c.48.32.49.93 0 1.8-.51.57-.9.61-1.17.13a1.5 1.5 0 01.15-1.63 1.21 1.21 0 00-.33-1.25 3.65 3.65 0 00-1.54-1q-.54.25-.45.63a8.69 8.69 0 01.12 1.5c-.38.61-.71 1.1-1 1.45a13.92 13.92 0 00-1 1.43 1.78 1.78 0 01-1.26 1c-.47.05-.75.59-.82 1.61 0 .45.25.62.82.53a2.81 2.81 0 001.6-1 3.44 3.44 0 011-1.53 4.86 4.86 0 01.92-.68c.66.25.77.66.33 1.25a2.57 2.57 0 01-1.41 1.06 2.1 2.1 0 00-.81 1.28 5.17 5.17 0 00-.09 1.77 2.7 2.7 0 01.85-.14 1.66 1.66 0 00.64-.22 1.36 1.36 0 001.51-.12 2.46 2.46 0 011.65-.51q.18.74 0 .9a1.43 1.43 0 00-.19.83 1.78 1.78 0 00-.09.87 4.21 4.21 0 00-.23.93 1.48 1.48 0 01-.43.85c-1 1-1.85 1.35-2.64 1.06a4.21 4.21 0 00-1.66-.39l-.17 1.06a2.21 2.21 0 01-.78 1.52 3.24 3.24 0 01-1.22.56.94.94 0 01-.93-.23c-.22-.23-.16-.59.17-1.07a3.38 3.38 0 00.88-1.47 2 2 0 011-1.21c0-.13.23-.22.55-.25s.5-.34.56-.92l-.5-1.08A.89.89 0 0117 167a2 2 0 00-1-1.17c-.75-.43-1.29-.29-1.62.41s-.32 1 0 .81c.22.22.41.41.58.55s.26.43.24.88a1.34 1.34 0 01-.78-.63c-.12-.27-.41-.41-.85-.43a3.44 3.44 0 01-1.49.36c-.36.16-.51.26-.44.28s0 .15-.25.36c-.22 1.42-.66 2.12-1.33 2.1a2.21 2.21 0 00-1.77.82 2.21 2.21 0 00-.19.83c0 .15-.12.4-.39.75a3.11 3.11 0 00-1.37 1 4 4 0 01-1.17 1 2.65 2.65 0 01-1.52.45c-.6 0-.71.3-.33.89.07.62-.14 1-.64 1.12a1.39 1.39 0 01-1.38-.51 1.85 1.85 0 00-.43-.39c-.07 0-.13-.35-.2-1a8.89 8.89 0 001.61-.48 3.71 3.71 0 00-.06-1.38 1.89 1.89 0 01.41-1.42 2.41 2.41 0 011.21-1.2.91.91 0 00.66-.89 4.63 4.63 0 001-1.44 5.29 5.29 0 011-1.44 2 2 0 00.9-.9 2 2 0 01.9-.91c.18-.09.35-.55.51-1.39-.07-.63-.06-1 0-1s.15-.29.16-.73a1.83 1.83 0 011-1 3.34 3.34 0 01.89-.58q1.36-.63.75-1.41c-.41-.53-.58-.86-.54-1 .08-1-.13-1.37-.63-1a11.89 11.89 0 00-1.44 1.2 7.21 7.21 0 01-.6 1 4.61 4.61 0 01-1.14 1.27A8.6 8.6 0 005.09 163a7.35 7.35 0 01-1.29 1.66 1.84 1.84 0 00-.75-1.62c0-.32.19-.61.67-.89a6.36 6.36 0 001.47-1.25 4 4 0 00.62-1.35 2.34 2.34 0 01.8-1.28c1.3-.28 2-.92 2.07-1.94a3.18 3.18 0 01.42-1.43 2 2 0 01.66-.88 3 3 0 011.44 1 3.75 3.75 0 01.6 1.12 2.13 2.13 0 00.47.85 1.06 1.06 0 001.07.17 4.81 4.81 0 001-1.44l.58-1.58c.83-.6 1.22-1.06 1.18-1.37-.33-.73-.27-1.08.17-1.07s.95-.32 1.51-1a.84.84 0 01.66 0 1.24 1.24 0 00.87.1 2.55 2.55 0 00.39-1.66 1.37 1.37 0 00-.9-1.24l-1.19-.43c-.76 0-1.08-.14-.95-.47a2.19 2.19 0 00.13-1c-.23-1.43.12-2.36 1-2.77a6.12 6.12 0 011.45-.26c.78-.09 1.14-.44 1.07-1.07a2.08 2.08 0 01.35-1.56 18 18 0 011.21-1.46 1.2 1.2 0 00.69-.65.62.62 0 000-.47 2.28 2.28 0 01.56-.58c.08-.05.31-.15.67-.32a2.61 2.61 0 00.49-1.62 2.47 2.47 0 01.07-1.1c.65-1 .9-1.43.75-1.42a11.47 11.47 0 00-1.25.33c-.51.57-.75 1-.71 1.32s-.38.61-1.24.89c-.53-.19-.91-1-1.14-2.39a2.09 2.09 0 01.6-1.32 2.09 2.09 0 00.6-1.32c.14-.39.26-.6.35-.64s.07-.31-.05-.79a2.54 2.54 0 01-.45-1.82c.08-.63.32-.87.72-.73 1.41.23 2.33.19 2.74-.11s.58-.76.91-1.24a1.94 1.94 0 00.35-1.57 1.89 1.89 0 01.35-1.56c.46-.43.68-.73.66-.88a6.06 6.06 0 01.42-1.43 2.81 2.81 0 00.81-1.28c0-.29.4-.15 1.09.4.71.12 1.09 0 1.15-.36a11.1 11.1 0 00.05-1.68l-.5-1.08c-.07-.63-.3-1-.69-1.16s-.52.07-.76.51a2.8 2.8 0 00-.12 1.87c0 .76-.31 1-1 .77a2 2 0 00-1.53-.11c-.76 0-1.13-.19-1.12-.64l.68-.31a2.88 2.88 0 00.56-.59c0-.89.14-1.41.35-1.56s.6-.41 1.19-.8a2.37 2.37 0 00.39-1.66l.37-1a1.21 1.21 0 00.25-1.6c-.34-.5-.77-1.08-1.29-1.72a1.7 1.7 0 00-.22-1.21c-.55.25-.9.19-1.07-.17a2 2 0 01.49-1.62 3.81 3.81 0 00.86-1.46 12.21 12.21 0 01.68-1.22c.4-.68.76-1.26 1.09-1.74a18.16 18.16 0 002.07-3.18A10.3 10.3 0 0134 94c.45-.43.87-.85 1.24-1.24s.8-.86 1.32-1.43 1-1.14 1.42-1.73a5.47 5.47 0 00.81-1.28 8.79 8.79 0 01.89-1.48 11.8 11.8 0 00.81-1.28q.83-1 2.22-2.67a30.68 30.68 0 002.45-3.28 9.3 9.3 0 01.77-1.18c.47-.65.87-1.22 1.19-1.7s.65-.93 1-1.34.62-.87.95-1.35a66.72 66.72 0 016-8q3.33-3.86 6.46-7.44a15.49 15.49 0 011.94-2.21A6.59 6.59 0 0065 53.76a13.92 13.92 0 001.37-2.19A8.9 8.9 0 0168 49.44a5.66 5.66 0 001-1.21 3.26 3.26 0 01.93-1 2.11 2.11 0 00.73-.74 3.23 3.23 0 01.8-.95c.69-.65 1.33-1.27 1.93-1.88a18.88 18.88 0 001.81-2.16 15 15 0 011.94-2.21 16.29 16.29 0 002-2.22 21.94 21.94 0 011.74-2.29 2.77 2.77 0 001.07-1.07 9 9 0 00.61-1c.5-.56 1.09-1.25 1.77-2.05s1.31-1.62 1.92-2.45a14 14 0 011.77-2.05 6.34 6.34 0 001.44-2.41 11.13 11.13 0 01.95-1.34 6.49 6.49 0 011-.87c.37-.62.73-1.16 1.06-1.64a13.54 13.54 0 011.25-1.57c.23-.22.47-.47.73-.75s.51-.59.8-.94a1.72 1.72 0 01.49-.72c.22-.22.45-.44.69-.65a5.09 5.09 0 011-1 10.47 10.47 0 002.82-2.27 32.15 32.15 0 012.57-2.67c.86-.73 1.66-1.45 2.37-2.17a27.78 27.78 0 012.65-2.29 8.51 8.51 0 011.37-1 12.4 12.4 0 011.42-.49l1.09-.5a8.23 8.23 0 00.87-.24 8.78 8.78 0 01.88-.24 2.6 2.6 0 011.61-.08 4.4 4.4 0 001.26.24A8.92 8.92 0 00118.93 1a3 3 0 001.29-.43 5.92 5.92 0 011.55-.57 4.56 4.56 0 012.73.55l1.73.19 1.19.44a5.5 5.5 0 011.58.92 4.85 4.85 0 001.18.77 4.36 4.36 0 001.56.35 2.31 2.31 0 011.41.75 18.71 18.71 0 001.47 1.22 18 18 0 011.46 1.21 19.09 19.09 0 014.53 4.83c.93 1.54 1.48 2.5 1.65 2.86a2.44 2.44 0 00.35 1.48q.33.35 1.17 1.11a2.26 2.26 0 01.43 1.28 3.64 3.64 0 010 1.14 2.91 2.91 0 01-.85 1.71 2.84 2.84 0 00-.83 1.74zM2.17 165.45q.56-.25.48-.39c0-.09 0 .18.05.8a7.67 7.67 0 01-.88 1.14c-.53.62-.81.56-.83-.2a3.66 3.66 0 011.18-1.35zm6.32-12.54c-.07 0 0-.13.11-.3s.37-.51.7-1l-.22.59c-.33.5-.52.73-.59.71zm1.79 24.76q-.12-.27.75-.51a4.61 4.61 0 001.5-.69 4.35 4.35 0 01-.81 1.28c-.4.46-.88.43-1.44-.08zm2.22-29.82c0 .31-.21.75-.71 1.31s-1 .46-1.47-.31c0-.32.24-.63.8-.94a1.17 1.17 0 011.38-.06zm3.09-.44c.61.38.81.75.6 1.12a4.78 4.78 0 00-.49 1.63 1.78 1.78 0 01-.7.84 7.62 7.62 0 00-1.5 1.92c-.78.47-1.21.53-1.31.2a3.59 3.59 0 01-.09-1.12c.1-.26.23-.74.41-1.42a3.42 3.42 0 011-1.68 1.87 1.87 0 001.06-.73 1.79 1.79 0 011.02-.76zm-1.69 27.77c.12.49 0 .67-.41.52s-.26-.32.41-.52zm.1-29.49c-.51.56-.71.49-.6-.22s.48-.88 1.09-.5a2 2 0 01-.49.72zm2.41-6.55c-.7-1.76-.28-2.5 1.28-2.23a1.36 1.36 0 01.62 1.36 3.4 3.4 0 01-.58 1.58c-.33.48-.6.61-.82.38a2.36 2.36 0 01-.53-1.09zm5 6.11c-.17-.36.05-.43.64-.21a2.54 2.54 0 002-.17c0-.32-.06-.55-.08-.71a1.37 1.37 0 01.12-.63 2.07 2.07 0 00.69-1.55c-.06-.47-.1-.86-.13-1.17a.89.89 0 01.29-.8A1.06 1.06 0 0025 139a4.08 4.08 0 00-1.51 1c-.65 1-1.33 1.88-2 2.75a16.54 16.54 0 00-1.83 2.81c0 .32.35.66 1 1s.82-.06.68-1.31zm-1-28.32c-.1.27-.17.35-.21.26s-.09-.19.1-.26zm2.44-1.13a.71.71 0 01-.52.49 3.13 3.13 0 00-1.13.93c-.18.09-.11-.22.23-.93a4.83 4.83 0 01.84-1.37c.1-.27.21-.56.33-.9s.24-.62.33-.89l.57-.92a11.87 11.87 0 011.1-3 5.55 5.55 0 011.35-1.53c.52-.41.91-.34 1.16.2a3.54 3.54 0 01.29 1.35 1 1 0 01-.5 1c-.23.22-.6.61-1.1 1.17s-1 1.07-1.46 1.5a7.16 7.16 0 00-.82 1.61 3.24 3.24 0 01-.78 1.29zm-.88 6.66a.67.67 0 010-.57.42.42 0 01.34-.32c.15 0 .29.22.41.72l-.07.2c-.49.16-.71.16-.79-.03zm2.78-3.25c-.1.26-.26.39-.48.38s-.33-.23-.31-.68c.16-.34.43-.25.68.3zm-.12 37.58q.42-.53 1.26.24a.6.6 0 00-.34.32c-.05.13-.11.19-.18.17s-.12 0-.17.16l-.07.2c-.73-.38-.89-.74-.61-1.09zm2-7.36c.42-.74.46-1.15.1-1.2s-.78.2-1.29.76q-.23.6-.36.66c-.09 0-.17.35-.23.93-.32.48-.3.6.09.37a6.43 6.43 0 001.34-1.2.62.62 0 00.28-.32zm-1.19-19.36c-.55.25-.61.71-.18 1.39s.82.72 1.2.11a2.25 2.25 0 00.19-.83 1.37 1.37 0 01.12-.63.92.92 0 01-.67 0 .8.8 0 00-.73-.04zm3-3.86a3.49 3.49 0 01-.58 1.59 13.9 13.9 0 00-1 1.44c-.05.13.18.3.71.49s1 0 1.36-.62l.35-.33c.05-.13.26-.61.64-1.45s.77-1.78 1.17-2.84c.11-.71-.07-1.15-.53-1.32s-.71.19-.74 1.08a1.45 1.45 0 000 1.14c-.56-.2-1.04.08-1.46.82zm1.71 9.42a2.5 2.5 0 00.59 1.46c.32.34.68 0 1.07-1.07a8 8 0 00-.24-.88 2.91 2.91 0 00-1-.5c-.83-.61-1-1-.43-1.28a.94.94 0 01.73.15c.17.14.4 0 .68-.31A2.3 2.3 0 0131 132c-.09-.56-.36-.84-.8-.86a1.57 1.57 0 00-.8.95 2.46 2.46 0 01-.88 1.14c-.23.22-.11.52.34.91a6.87 6.87 0 011.21 1.49zm.85 13.31c.45.39.74.23.85-.48-.47-.77-.79-1.12-1-1l-.54.25a1.59 1.59 0 00.69 1.23zm-.35-7c.36 1.48.93 1.54 1.73.19l.23-.6q0-1.14-1-.6c-.61.36-.97.69-.94 1.01zm1.42-36.21c.09-.26 0-.17-.21.26s-.15.36.23-.26zm1 40.7a4.58 4.58 0 001.18.77 1 1 0 001.42-.49 3.73 3.73 0 01-.84-.76 1.12 1.12 0 00-1.55-.69q-1.05.41-.21 1.17zm1.82-44.62a1.28 1.28 0 011.78-.24c.67.4 1.07.24 1.18-.47l-.12-.27a1.47 1.47 0 00-.49-.52 1.83 1.83 0 01-.61-.79c-.48-.32-1-.17-1.52.46s-.94 1.11-1.21 1.46q-.49 2.56.99.37zm.6 34.69c-.36.77-.42 1.05-.19.83l1.25-1.56-.32-.35c-.13-.04-.38.32-.74 1.08zm1.28 7.24c.12.49.27.58.46.28a3.32 3.32 0 01.63-.79q.14-.39.51-1.38c.24-.66.29-1 .17-1.07a1 1 0 00-1.4-.18 1.23 1.23 0 00-.45 1.53 2.34 2.34 0 00.11.6 3.48 3.48 0 01-.03 1.01zm3.93-10.05a1.78 1.78 0 00.44.95c.25.32.63.2 1.15-.36a2.87 2.87 0 00-.45-.62q-.66-.66-1.14.03zm4.07-10.43c-.51.56-.62.86-.33.89s.65-.33 1.08-1.07l-.2-.07c-.14-.01-.32-.01-.55.25zm6.36 11.47a.77.77 0 01.38-.43.62.62 0 01.47-.05c.13.05.13.27 0 .67l-.07.2c-.6-.06-.85-.2-.78-.39zm6.12-10.48c-.77.47-.92.87-.44 1.19s.91.19 1.28-.42a1.39 1.39 0 00-.84-.77zm3.83-4.89q.22 1.22 1 .36a.64.64 0 00-.24-.87q-.46-.28-.76.51z" fill="currentColor"/></svg>