<svg xmlns="http://www.w3.org/2000/svg" viewBox="0 0 184.62 52.19"><path d="M5.45 52.18a7.13 7.13 0 01-1.77-.3 10.8 10.8 0 01-1.85-.69 4.08 4.08 0 01-1.72-1.77c-.26-.49 0-1.72.65-1.77a1.17 1.17 0 01.37 0c.47.05.93.05 1.4.07a7.59 7.59 0 011.76.39 8.14 8.14 0 001.7.27 16.17 16.17 0 003.33-.36 41.13 41.13 0 007.59-2.87 99.81 99.81 0 0014-8.34c2.41-1.8 4.81-3.62 7.21-5.43.58-.44 1.15-.86 1.7-1.32l3.9-3.33c2-1.67 3.92-3.35 5.85-5.06 1-.88 2-1.74 3-2.65L56 15.86c1.11-1 2.19-2.11 3.27-3.18a36.46 36.46 0 002.62-2.8A1.33 1.33 0 0163 9.33a1.53 1.53 0 011.09 1.19 4.17 4.17 0 01.18 1.32 11.26 11.26 0 01-.32 1.9c-.12.51-.22 1-.33 1.55l-.48 2.3c-.43 1.95-.83 3.91-1.28 5.86-.86 3.77-1.69 7.55-2.48 11.31 0 .18-.06.37-.08.55l.39-.47L62.92 31l4.7-5.65c1.91-2.3 3.86-4.56 5.83-6.82 1.63-1.88 3.35-3.7 5.06-5.51 1-1.09 2.06-2.17 3.13-3.23a7 7 0 01.63-.58 2.57 2.57 0 011-.48 1.35 1.35 0 011.59.66 3.71 3.71 0 01.39 2.45v.29a15.46 15.46 0 01-.31 2.15c-.21.85-.46 1.67-.73 2.5-.35 1.06-.74 2.11-1.13 3.16l-1.59 4.4c-.08.22-.16.44-.25.67.22-.24.43-.47.63-.71 1.07-1.25 2.1-2.54 3.14-3.81l3.15-3.87c.74-.91 1.49-1.81 2.26-2.7.54-.64 1.08-1.29 1.63-1.93s.85-1 1.28-1.46a23.45 23.45 0 012-1.91 1.34 1.34 0 011.7-.16 5.66 5.66 0 011.24 1.05A4.5 4.5 0 0198.9 11a13 13 0 01.27 4.12c0 3.61-.43 7.2-.65 10.81-.08 1.41-.18 2.82-.22 4.24v1.51c.67-1 1.26-2 2-3a17.89 17.89 0 011.4-1.68c.73-.8 1.46-1.58 2.21-2.37 2.64-2.76 5.4-5.39 8.25-7.93 1.35-1.22 2.73-2.4 4.19-3.5a41.55 41.55 0 014.8-3.07 71.22 71.22 0 0110.1-4.49 99.57 99.57 0 0111-3.23A89 89 0 01153.49.47a83.18 83.18 0 0123.1.76c1 .19 2 .4 3.06.65.39.09.77.21 1.15.32a4.4 4.4 0 011.41.84 6.16 6.16 0 011.63 2 9.08 9.08 0 01.78 2.21 9.68 9.68 0 01-4.12.75 19.27 19.27 0 01-2.6-.51c-1-.23-2.06-.41-3.1-.58a82.54 82.54 0 00-11.53-1 87.61 87.61 0 00-20.35 2.17 91.68 91.68 0 00-17.82 6 49 49 0 00-7 4c-1.91 1.4-3.68 3-5.45 4.54s-3.49 3.22-5.18 4.9c-.84.85-1.68 1.71-2.5 2.58s-1.65 1.7-2.39 2.63c-.91 1.28-1.68 2.64-2.65 3.88a7.87 7.87 0 01-1.63 1.58 4.69 4.69 0 01-1 .6 2.78 2.78 0 01-1.25 0c-1-.14-1.4-1.36-1.41-2.21-.06-3.11.09-6.23.28-9.34.09-1.31.17-2.61.27-3.91.18-2.28.4-4.56.43-6.84v-1.87c-1.36 1.47-2.61 3.07-3.89 4.6-.87 1-1.71 2.09-2.57 3.13-1.37 1.69-2.74 3.38-4.13 5.07-1.25 1.52-2.58 3-3.84 4.46a11.8 11.8 0 01-1.84 1.83 3.65 3.65 0 01-1.17.69l-.61.15h-.68c-1.75.07-2-2.46-1.6-3.67.8-2.86 1.85-5.63 2.86-8.42.46-1.29.94-2.58 1.41-3.87l-1 1.1c-.89 1-1.81 1.93-2.67 2.93l-3.34 3.83c-1.53 1.76-3 3.58-4.49 5.36l-5.82 7-1.36 1.62-1 1.13c-.32.37-.65.72-1 1.06a7.26 7.26 0 01-1.49 1.1 1.35 1.35 0 01-1.19.11 2 2 0 01-1-1.34 7.17 7.17 0 010-3.29c.07-.58.16-1.16.24-1.75.19-1.25.38-2.53.66-3.77.5-2.22 1-4.44 1.52-6.66.8-3.35 1.56-6.71 2.35-10.06-.74.71-1.46 1.41-2.21 2.1-2 1.8-3.93 3.59-5.95 5.34s-3.89 3.37-5.87 5l-4.3 3.61c-.54.46-1.08.91-1.64 1.33l-6 4.46-2 1.46c-1.7 1.26-3.52 2.38-5.31 3.49a78.23 78.23 0 01-14.14 7.09 25.67 25.67 0 01-3.29 1 14.58 14.58 0 01-3.26.35z" fill="currentColor"/></svg>