<svg xmlns="http://www.w3.org/2000/svg" viewBox="0 0 180 29.21"><path d="M148.88 5.6c4-4-1.1-3.33-5.87-2.48-15.31 2.72-18.07 12-28.32 16.79-4.48 2-15.22 2.93-13.74-4.61v.16C100.5 8.3 116.6.94 111.25.08 88.84-1 87.22 9.38 71.1 18.36 47 29 46.43 9 67 3.57c1.09-.43 1.89-3 .77-3.09C40.15-1.26 30.68 20.54 10 26.17h.12c-3.33.76-6.86.07-10.08 1.3H0C16.7 35.59 30.09 13.36 44.43 7.9a89.28 89.28 0 0115.25-4.44c-22 19-2.35 28.72 16.72 16.31l-.21.13.54-.35-.12.08c6.15-4.39 10.85-10.8 18.3-13.28l-.22.09a31.25 31.25 0 0110.23-2.21C98.05 9.8 94.68 26 107.1 25c16.27.36 20.75-18.51 38.54-19.29C129 21 149.11 32.45 166.15 26a91.84 91.84 0 0012.19-5.23c7-7-10.28-.41-11.53.45-7.38 5.08-34.87 2.58-21.33-12.08" fill="currentColor"/></svg>