<svg xmlns="http://www.w3.org/2000/svg" viewBox="0 0 170.99 180"><path d="M.69 150.37q-.18.4-.48.27t.48-.27zm152.39-98.22a1.09 1.09 0 01-.42.41 4.22 4.22 0 00-.79.74c-.62.68-1.11 1.27-1.48 1.75q-5.12 5.21-10.08 10.35T130.13 76c-.87.9-1.72 1.85-2.54 2.85a14.84 14.84 0 01-3 2.67 16.91 16.91 0 00-2.6 2.7 6.59 6.59 0 01-2.83 2.13.61.61 0 00-.38.31.63.63 0 00-.37.32.64.64 0 01-.38.31l-1.39 1.56a5.11 5.11 0 01-1.32.86 4.7 4.7 0 00-1.32 1.01 10.67 10.67 0 00-2.41 2.55 2.5 2.5 0 01-1.12 1.19c0 .13-.26.24-.62.33s-.56.2-.62.33a7 7 0 00-.33 1 2.81 2.81 0 01-1.2 1.39l-.58.23a2.46 2.46 0 00-.75.64c-.17.4-.24.65-.2.74s-.14.23-.52.38a3.57 3.57 0 00-1.43.82 6.82 6.82 0 00-.71 1.36 4.84 4.84 0 01-1.13 1 5 5 0 00-1.12.95c-.2.08-.33.1-.39.07a.65.65 0 00-.39.07.66.66 0 00-.38.32 8.67 8.67 0 01-.71.53 5.87 5.87 0 00-.7.53c-.57.56-1.06 1.06-1.49 1.51a4.33 4.33 0 01-1.52 1 1.23 1.23 0 01-.78.14l-.29.11q-1.16.46-1.32.87a3.4 3.4 0 00-.15.89q-.06.69-.63-.75c-.68-.29-1.06-.13-1.16.47a1.08 1.08 0 01-1.13 1 4 4 0 01-1.1.62 1.41 1.41 0 00-.88 1.19 2.3 2.3 0 000 1.58 1.19 1.19 0 010 1.09 6.14 6.14 0 01-2.58 1.54 1.75 1.75 0 01-.8-.1 1.21 1.21 0 00-.88.1c-.25.22-.16.74.28 1.57a1.16 1.16 0 01-.88.1.76.76 0 00-.59 0 1.26 1.26 0 00-.75.64 1.31 1.31 0 01-.76.64 4.83 4.83 0 00-1.36.38 1.52 1.52 0 00-.9 1.54 2.53 2.53 0 010 1.09c-.07.53-.53.69-1.4.48q-2 .12-1.08 2c.84 1 .65 1.81-.56 2.41a4.64 4.64 0 00-.93 1 4.51 4.51 0 01-.92 1q-1.56.28-1.11-.48a11.39 11.39 0 00.71-1.37c.08-.92-.08-1.19-.49-.81s-.86.79-1.36 1.21a2.74 2.74 0 00-1.19 1.4 2 2 0 00.06 1.22 4.8 4.8 0 00.87 1.33 1.43 1.43 0 01-1 .3.85.85 0 00-.85.59l-.58 1.35a3.27 3.27 0 01-1.42 1.06 1.47 1.47 0 01-1.18 0 2.33 2.33 0 00-1.84.4c-.14-.06-.54.21-1.19.8a12.37 12.37 0 01-1.64 1.32 1.45 1.45 0 01-1.19 0c-.4-.17-.61.13-.63.92a2.68 2.68 0 01-.6.82 10.84 10.84 0 00-1 1.14c-.57.55-1 .94-1.22 1.15a2.77 2.77 0 01-1.76.19.71.71 0 00-.49 0c-.39.16-.6.3-.66.43-.25.22-.38.4-.36.56a1.51 1.51 0 01-.45.77 8.78 8.78 0 00-1.72.93 3.47 3.47 0 00-.94.79 1.94 1.94 0 00-.46 1.35c0 .56-.47.8-1.39.72-.27-.12-.7.14-1.28.76a19.22 19.22 0 00-1.43 1.65 4.83 4.83 0 01-1.56 1.12l-1.3.52a1.25 1.25 0 00-1 1 1.76 1.76 0 01-1.11 1.19 4.09 4.09 0 00-1.85 2.07 4.94 4.94 0 01-2.73 2.17 6.14 6.14 0 00-2.93 2.08A6.59 6.59 0 0131 162c-.39.15-.58.31-.57.47a2.29 2.29 0 01-.24.85 1.32 1.32 0 01-.75.64.61.61 0 00-.38.31c-.85.11-1.32.47-1.41 1.06a2.49 2.49 0 01-.9 1.53 15.21 15.21 0 00-1.39 1.55 5.15 5.15 0 01-1.5 1.27 2 2 0 01-.1-1.72 1.4 1.4 0 011.32-1.11.5.5 0 00.67-.18.64.64 0 00.16-.65 2 2 0 01.41-1.5c1.42-.34 2.28-.85 2.57-1.52a3.15 3.15 0 01.66-1.51 2.39 2.39 0 01.79-.73c.82-.44 1.26-.89 1.3-1.35a2.66 2.66 0 01.9-1.53c.55-.56 1.05-1.06 1.48-1.51s.32-.82-.35-1.11c-.57-.55-.68-1-.35-1.4a2 2 0 011.26-.72q-.06-2.09.6-2.49c.79 0 1 .24.56.65s-.34.87.23 1.4c0 .12.15.2.61.26a2.72 2.72 0 001.67-.55q1.34-2-1.31-1.95c-.39.15-.84 0-1.36-.47a2 2 0 00-1.25-.66 12.74 12.74 0 01-1.53 1.15 2.75 2.75 0 00-.88.68 5.47 5.47 0 001 1.4c.23.16.05.41-.55.72a9.06 9.06 0 00-2.18 1.84.84.84 0 01-.67 0l-.59-.25a4.07 4.07 0 00-.85.9l-.17.4a4.1 4.1 0 00.61 3.13c.61.9.51 1.58-.3 2-1.46.16-2.39-.16-2.81-1a1.49 1.49 0 01.17-1.72 3.29 3.29 0 00.83-1.67 6.56 6.56 0 00.24-1.09c.1-.6-.21-.57-.95.07-.43.29-.64.4-.61.33s-.06-.23-.26-.47c-.1-.52-.25-.82-.45-.91a1.23 1.23 0 01-.53-.71c0-.79.35-1 1-.65s1.08.27 1.31-.27a1.88 1.88 0 01.15-.89c.11-.27.35-.32.72-.16a1.93 1.93 0 001.41-.35c.83-.44 1.25-.86 1.26-1.25s.36-.84 1-1.34a3.69 3.69 0 001.06-1.34 2.75 2.75 0 011.26-1.25c1.22-.27 1.61-1 1.15-2.13-.5-.69-.43-1 .19-1h1.43c.44-.29 1-.66 1.56-1.12s1-.8 1.27-1a2.54 2.54 0 00.64-.92 5.76 5.76 0 00.58-1.9 2 2 0 01-.72-.55 1 1 0 00-.81-.35c-.84.11-1.29.24-1.35.37a1.8 1.8 0 00-1.52 1 14.62 14.62 0 01-1.08 1.69 2.15 2.15 0 01-.86.58 2.66 2.66 0 01-1.45.33c-.87-.21-1.2-.08-1 .4s-.2.91-1.16 1.3a3.3 3.3 0 01-.16 1.48 9.07 9.07 0 00-.45 1.6 2.58 2.58 0 01-1.07 1.09 8.06 8.06 0 01-1.1.6 6.72 6.72 0 00-2.6 2.71c-.25.21-.55.44-.89.69s-.8.09-1.36-.47c-1.13-.33-1.61-.69-1.44-1.1a1.31 1.31 0 011.25-.66c.63-.36.92-.76.86-1.18a13.39 13.39 0 01-.05-1.81 2.26 2.26 0 001.43-.82 3.67 3.67 0 011.31-1.11l.58-.23-.14-.77a1.5 1.5 0 00-1.46.32 7.54 7.54 0 01-1.43.82c-.69.5-.92 1-.69 1.61a2.83 2.83 0 01-.81.49 2.52 2.52 0 00-.9.69 2.08 2.08 0 01-1.21 1.15c-.58.23-1.47.64-2.68 1.23s-2.08.74-2.41 0a1.58 1.58 0 010-1.77.62.62 0 01.68-.19 2.12 2.12 0 001.08 0c.17-.4.37-1 .59-1.66a2.66 2.66 0 00.22-1.34 2.69 2.69 0 00-2.39 1.12 10.86 10.86 0 00-1.12 1.19 11.86 11.86 0 01-1.49 1.51c-.25.21-.66.16-1.23-.17a2.32 2.32 0 01-1.12-1.56c-.08-.2.14-.62.66-1.27a8 8 0 001-1.38c-.16-.39-.32-.57-.48-.56a8 8 0 01-.93 0 1.29 1.29 0 01-.64-.75l-.23-.58A6.35 6.35 0 007 143.77c-1.13.95-1.72 1.66-1.76 2.12-.69.49-1.21.59-1.55.28s-.24-.74.32-1.29 1-.93.91-1.28.15-.82.71-1.37c1.17-1.25 2-1.76 2.57-1.52a2.12 2.12 0 011.42.85 2.1 2.1 0 001.72.74 5 5 0 001.28.08c.72 0 .95-.47.71-1.37a3.66 3.66 0 01-1-1.52 2.53 2.53 0 00-1.11-1.31c-.8-.35-1.2-.64-1.18-.87a3.73 3.73 0 01.66-1.31 1.64 1.64 0 012.1-.16l1.47.75c.73.15 1.21.24 1.44.26s.33-.3.29-.95c-.34-.31-.58-.41-.7-.3s-.27 0-.42-.42a1 1 0 01-.38-.49 2.86 2.86 0 00-.5-.69c-.78 0-1.08-.17-.91-.38s.46-.61.86-1.16a2.72 2.72 0 01.9-.7 2.35 2.35 0 001.05-1.59 1.42 1.42 0 01.72-1.13 13.05 13.05 0 001.38-1.12 9.7 9.7 0 00.91-1.54 3.47 3.47 0 011-1.25 17.87 17.87 0 001.39-1.57 1.51 1.51 0 011.65-.49l.16 1.27a.73.73 0 00.87.5 4.09 4.09 0 00.92-.21c.46 0 .72-.09.77-.39s.3-.43.77-.39l.08-.2c.06-.14.12-.19.19-.16s.13 0 .19-.17a.66.66 0 01.38-.32 2.57 2.57 0 00-.44-1.75c-.32-.37-.58-.69-.79-.94s-.34-.59 0-.84a13.31 13.31 0 001.36-1.23c.41-.94.8-1.22 1.19-.81a3 3 0 001.67.84 2.83 2.83 0 00.82-3 1 1 0 01.17-1.49 1.55 1.55 0 011.81-.31 3 3 0 002.7-1 7.59 7.59 0 001.83-2.31 2.73 2.73 0 01.47-1.36 2.74 2.74 0 00.46-1.35q.31-1.29 1.17-1a1.66 1.66 0 001.69-.59 8.94 8.94 0 001.61-1.42c.59-.62.95-.91 1.09-.85.82-.44 1-.89.46-1.35a1.94 1.94 0 01-.8-1.19c-.23-.57.12-.82 1-.74a4.07 4.07 0 011.3.32q1.79-1.38-.26-2.74a3.92 3.92 0 00-1.5-.41c-.32 0-.44-.27-.34-.86l.16-.37a8.36 8.36 0 01.21-1.25q.13-.6 1.11-.63a1.59 1.59 0 00.79-1.27 2.22 2.22 0 01.88-1.49l.57-.5a3.23 3.23 0 01.78-.41 1 1 0 00-.65-1.28 1.94 1.94 0 01.84-1.67 4.25 4.25 0 001-.89 2.37 2.37 0 011.5-.43c.36.08.82-.16 1.38-.71a2.5 2.5 0 011.32-1.11.94.94 0 00.74-.88 3.23 3.23 0 00.28-1.73 2.09 2.09 0 010-1.19 4.5 4.5 0 01.82-1.07 2.38 2.38 0 011.7-.74.93.93 0 01.54-.37c.3-.1.41-.26.32-.45 0-.8.22-1.3.65-1.52s1.3-.67 2.63-1.37a9.55 9.55 0 002.15-2.66 2.65 2.65 0 01.61-1.41l1.13-1a23.74 23.74 0 012.16-2.53 38.08 38.08 0 013-2.88c.55-.56 1-.94 1.2-1.15s.66-.59 1.22-1.15 1-.86 1.39-1.31a17.58 17.58 0 011.4-1.31 29.55 29.55 0 005.1-5.21 34.67 34.67 0 015.19-5.41 28.63 28.63 0 005.28-5.61 32 32 0 015.37-5.81A27 27 0 0099 35.47c.36-.47 1-1.23 1.94-2.27a10.62 10.62 0 002.56-2.36 14.73 14.73 0 012.36-2.44c1.37-1.33 2.73-2.73 4.08-4.22s2.75-3 4.17-4.42a19.36 19.36 0 001.34-1.45 8.77 8.77 0 011.26-1.25c.55-.56 1-1 1.34-1.46a19.18 19.18 0 011.34-1.45l2.5-2.5a10.33 10.33 0 002.87-2.23 30.36 30.36 0 012.84-2.72 9.27 9.27 0 012.82-2.13A13.5 13.5 0 00132 3.24a6.42 6.42 0 001.07-1.09 5.11 5.11 0 001.32-.86 6 6 0 011.61-1 5.21 5.21 0 011.57-.29 4.07 4.07 0 011.18 0q2 .87.54 2.63c-.16.73.12.92.82.59a5 5 0 011.54-.53 2.17 2.17 0 011.59.21l1.21.52a1.29 1.29 0 001.48.16 3.82 3.82 0 001.4-1.31 3.56 3.56 0 012.34-2.04l1 .43a7.16 7.16 0 011.64 1.19 1.8 1.8 0 001.39.15c.39-.16.86.05 1.42.61l-.53 1.2a1 1 0 00.58 1.45l1.38.12 1.38.12c.67.28.95.65.85 1.08s.14.86.76 1.28l1.41.61c.54.23.81.51.83.84.12.85.35 1.31.72 1.39a4.58 4.58 0 011.47.75c.27.11.4.45.4 1s.36.91 1.09 1.07l1.33-.86c.65 0 1 .11 1 .43a1.77 1.77 0 01-.06.69 2.27 2.27 0 001.12 1.56c.57.33.87.66.89 1 .11.85.4 1.37.87 1.58s.5.61.07 1.22c-.85 1.23-1.16 2.13-.93 2.71.81 1.46.92 2.59.34 3.37s-1.23 1.66-2 2.62a3.57 3.57 0 00-.69 1.61c0 .46-.48.92-1.3 1.35a3.28 3.28 0 00-1.1 2.44c.07.75.16 1.38.25 1.9l.92.64a1.38 1.38 0 01.13 1.37 1.34 1.34 0 01-1.29.76 2.61 2.61 0 00-1.18.8l-.95 1.38c-.8 1.1-1.5 2.07-2.1 2.92s-1.31 1.83-2.1 2.92l-2.83 3c-1 1.07-1.87 2-2.55 2.84zm-142.25 88c0 .46-.16.64-.36.56a1.38 1.38 0 01-.46-.32.36.36 0 01-.07-.39c.06-.12.36-.07.89.17zm-5.22 13.78c-.23.54-.43.61-.58.23s-.13-.62.06-.69.36.07.52.46zm3.87-2.87a1.29 1.29 0 01-1 .74c-.52.1-.84-.28-.95-1.12l.61-1.41c.56-.56.92-.56 1.08 0s.29 1.08.39 1.6zM2 167.21a7.54 7.54 0 01-1.5 1.61c-.6.46-.66.31-.18-.43a3.2 3.2 0 01.32-1.3 1.09 1.09 0 01.61-.58c.29-.11.48.09.58.61zm24-54.44a1.69 1.69 0 01-1.16 1.29c-.67.27-.74 0-.2-.92.36-.81.81-.93 1.36-.37zM6.48 162.44a1.72 1.72 0 00-.42.41 1.88 1.88 0 01-.42.42 2.06 2.06 0 01-1.19-.27c-.61-.26-.47-.68.42-1.25a5.4 5.4 0 001.82-2.56 5.43 5.43 0 01.19-1.83q.24-.85 1.17-.21c.5.69.89.78 1.19.27a1.77 1.77 0 00.11-1.63c-.5-.69-.57-1.08-.21-1.16s.57 0 .65.16c.28.44.64.35 1.06-.26a2.61 2.61 0 00.61-1.41 1.63 1.63 0 01.65-1.51 2 2 0 011.4-.47 1.69 1.69 0 011.11.47c.28.28.27.76 0 1.43a2.78 2.78 0 00-1.25 1.25 3.8 3.8 0 01-1.06 1.34 2.42 2.42 0 01-.64.92 5.52 5.52 0 01-1.12 1 10.43 10.43 0 00-1.49.67 3.06 3.06 0 00-.77 1.22 2.28 2.28 0 01-.89 1.53 2.23 2.23 0 00-.92 1.47zm13.26-31.82a.94.94 0 01.34-.81 1.82 1.82 0 00.47-.51c0-.79-.25-1.1-.79-.94a2 2 0 00-1.26 1.25c-.29.67-.3 1.15 0 1.43s.74.23 1.37-.13zm13.49-22.39l-.26.61a.61.61 0 00-.38.31 8.88 8.88 0 00-2.69 2.91 4.13 4.13 0 01-2.83 2.12c-.39.16-.31-.09.21-.75a12 12 0 011.53-1.61 2.92 2.92 0 00.71-.53 1.76 1.76 0 01.41-.41q.21-1.59-.54-1a5 5 0 01-1.33.86c-.29-.44-.18-.87.32-1.29.33 0 .7-.33 1.13-.95s.7-.89.84-.83c.88-.54 1.84-.36 2.88.56zm-7.34 7.59c-.27-.11-.33-.26-.18-.43s.31-.07.47.32zM13.3 145.53c-.08-.19-.21-.17-.39.08s-.06.21.39-.08zm12.22-22.21c.13.05.09.07-.14.05a1.77 1.77 0 01-.55-.11c-.56-.56-.56-.92 0-1.09s.77.22.69 1.15zM21.83 133q.38-.32.27-.6c-.45-.83-.69-.9-.75-.21s.1.93.48.81zm14.35-29.91c-.17.41-.77.86-1.79 1.38s-1.32.47-.89-.15a9.12 9.12 0 011.3-1.35.87.87 0 011.38.08zm-25.12 60.37a6.94 6.94 0 01-.64.92 8.26 8.26 0 00-1.3 1.35 1 1 0 01-1.35.37l.52-1.21a8.53 8.53 0 011-1.73c.39-.15.58-.31.57-.47s.17-.32.56-.48c.77.02.99.44.64 1.25zm12.31-24.1c.06-.13 0-.37-.28-.72s-.66-.4-1.24-.17a2.4 2.4 0 01-1.5.43c-.37-.08-.63.24-.78 1a2.69 2.69 0 00.71 1.39c.39.4.75.2 1.1-.6a.91.91 0 01.81-.49 1.85 1.85 0 001.18-.84zm16.51-38.78c.15.39-.09.29-.71-.3s-.58-1 .14-1.14c.15.39.24.63.28.72s.13.34.29.72zm-25 58.33c-.38.15-.54.16-.49 0s.25-.21.58-.23zm28.41-59.7a.83.83 0 00-.07.45c0 .16-.18.32-.57.47-.9.25-1.39.08-1.45-.51a6.45 6.45 0 00-.2-1.17 1.41 1.41 0 011.44-.57c.63.12.92.54.9 1.33zm-22.4 54.65a.66.66 0 000 .49 9.75 9.75 0 00-.78 1 3.36 3.36 0 01-1.47.92c-.06.13-.4.19-1 .16a1 1 0 01-1-1 5.16 5.16 0 01.74-.88l1.3-1.35a1.65 1.65 0 011.34-.61c.52-.02.81.41.92 1.27zM8.2 177.28a.65.65 0 00-.38.32.19.19 0 01-.29.11c-.15-.38-.12-.64.11-.79s.36-.02.56.36zM44.37 93c0 .32-.11.51-.37.56s-.14-.18.37-.56zM46 91.29c.08.19-.14.5-.63.92s-.7.5-.58.23c.71-.82 1.12-1.21 1.21-1.15zm-28.5 66.1a1.25 1.25 0 01-.92 1l.17-.41a.89.89 0 01.75-.59zm10.38-20.15a6 6 0 01-.25-.82c-.08-.35-.43-.58-1-.68-.39.16-.44.57-.17 1.24s.72.76 1.42.26zm-12.46 33.84c.08.19 0 .36-.22.5s-.43.09-.65-.16a1 1 0 01.35-.81c.25-.21.42-.05.52.47zm10-23.18c-.35-.31-.56-.28-.64.09s.1.4.55.11zm2.64-7.23q-.29.12-.09.21a.63.63 0 01.32.37zm-4 24.81c.08.19 0 .19-.25 0s-1.11-.68-2.59-1.48a2.7 2.7 0 01-1.35-1.78 2.75 2.75 0 010-1.43 6.83 6.83 0 00.41-1.5 1.27 1.27 0 01.72-1.12c.38-.16.62 0 .72.55a4.93 4.93 0 010 1.67 1.47 1.47 0 00.09 1.47 1.33 1.33 0 011.61.7c0 .46-.07.88-.08 1.28a3 3 0 00.71 1.64zm-4.81 1.74a2.23 2.23 0 01-1.43.82c-.4 0-.55-.31-.45-.91-.07-.19.18-.6.77-1.22a5.54 5.54 0 011.17-1c.59.1.77.33.53.71a4.92 4.92 0 00-.6 1.6zM24.36 157a1.67 1.67 0 01-.79.73c-.42.22-.7.13-.85-.25-.17-.71 0-1.07.58-1.06a1 1 0 011.06.58zm-9.77 22.08c0 .78-.3 1.06-.84.83-.73-.16-.84-.53-.35-1.11s.89-.48 1.19.29zm22.09-47.85a1.44 1.44 0 00-.48-1.64c-.39.15-.53.57-.42 1.25s.4.82.9.4zM18.49 175a1.42 1.42 0 01-.43 1c-.69.5-1 .43-1-.19a7.22 7.22 0 00-.09-1.71c.67-.83 1.11-.92 1.31-.27a2.51 2.51 0 01.21 1.17zm4.77-4.39a.5.5 0 01-.23.26.41.41 0 00-.23.25 8.25 8.25 0 01-1.57.88c-.8.37-.9.21-.28-.48a3.87 3.87 0 00.3-1.78c-.14-.06.14-.14.82-.25a1 1 0 011.28.92zm7.62-13.21c-.18.4-.54.49-1.07.25-.44-.83-.37-1.27.22-1.34s.87.33.85 1.12zm18.27-44c.12-.26.06-.33-.15-.18s-.18.23.15.21zm-3.69 21.84a1.64 1.64 0 01.06-.69.65.65 0 000-.49c-1.21-.52-1.76-.36-1.65.49s-.34 1.25-1 1.38a5.66 5.66 0 01-1.62.14c-.39.15-.52.37-.4.66a1.3 1.3 0 00.77.69l.72-.28c.29-.12.47-.24.52-.38a3.23 3.23 0 011.23-.9 5.1 5.1 0 001.37-.59zM35.7 154a.39.39 0 00-.23-.58c-.33 0-.4.11-.23.26a1.6 1.6 0 00.46.32zm14.68-24c0-.13-.15 0-.62.33s-1 .26-1.54-.31l-.35-.86c-.34-.31-.69-.06-1 .75-.06.13 0 .29.27.47a2 2 0 01.59.85c.44.83.86 1 1.26.43a13.09 13.09 0 011.39-1.66zm-9.07 18.8c0-.79-.3-1.08-.94-.88s-1 .43-1.14.7c0 .65.34.87.92.64zm10.77-9.45a1.22 1.22 0 00-.77-1.53c-.79 0-1.29.2-1.49.67a1.62 1.62 0 01-.88.93 4 4 0 00-1 .89 3.2 3.2 0 00-.84 1.67 1.38 1.38 0 01-1.27 1H44.5c-.48.75-.94 1.07-1.37 1s-.69.3-.77 1.22a2.07 2.07 0 01-.38 1.15q-.41.66.69.9c.79 0 1.19-.17 1.2-.56a2.33 2.33 0 01.86-1.43 4.85 4.85 0 011.55-1.12 1.69 1.69 0 001-.89c0-.32.19-.63.63-.92a2.76 2.76 0 001-1.23 1.94 1.94 0 011.73-.69c.62.08 1.09-.28 1.44-1.08zm5.38-18a3.6 3.6 0 00.15-.9c0-.46-.36-.47-1.18 0-.56.56-.64 1-.22 1.34s.79.15 1.25-.46zm6-6.73a.7.7 0 00-.14-.78.72.72 0 00-.89-.15c-.43.62-.5 1.06-.22 1.34s.7.12 1.26-.43zm1.31-1.35a.73.73 0 00-.9-.15c-.06.13 0 .29.28.48s.45.05.63-.35zm-5.16 18.57c-.15-.38-.52-.54-1.1-.48a1.43 1.43 0 00-1.23.91 1.62 1.62 0 001.37.71q.94.02.97-1.16zm9.09-22.14c-.08-1.3-.48-1.48-1.21-.52-.57.56-.64 1-.22 1.34s.89.23 1.45-.33zM61 129.78q.24-1.09-.42-1.5a1.15 1.15 0 00-1.42.23c-.16.73 0 1.23.43 1.5a1.13 1.13 0 001.41-.23zm6-4.57a.9.9 0 00-.36-1.11q-.61-.5-1 1a1.18 1.18 0 00.25 1.07c.29.44.67.12 1.11-.96zm1.11 7.41c-.8 0-1.16.19-1.1.61s.36.35.92-.2zm16.59-30.13a.61.61 0 000-.49c-.28-.44-.62-.59-1-.43-.29.67-.34 1.13-.12 1.38s.58.1 1.14-.46zm2.68 11c.18-.4-.13-.45-.89-.15-.7.5-.77.87-.24 1.1s.94-.13 1.15-.99zm71.29-99.77a.7.7 0 00-.43-.66c-.79 0-1.07.25-.84.83s.67.48 1.29-.21z" fill="currentColor"/></svg>