<svg xmlns="http://www.w3.org/2000/svg" viewBox="0 0 180 67.75"><path d="M3.84 67.36a8.58 8.58 0 00-2.91-.17c-.8.11-1.08-.3-.86-1.24a3.43 3.43 0 011.71-.38 5.69 5.69 0 002.91 0c.8-.26 1.77-.52 2.91-.77a27.16 27.16 0 015.64-1c1.94-.12 4-.32 6.33-.57h3.07a11.68 11.68 0 002.74-.34 2.41 2.41 0 011.54-.17 1.64 1.64 0 001.53-.49 3.73 3.73 0 012.74-.32 2.05 2.05 0 001.37-.33l.68-.65 1.2-1.14c.34-.32.74-.27 1.2.16a4.12 4.12 0 001.19-.32q.86-.33 1.2 0a5.23 5.23 0 002.56 0 2.45 2.45 0 001.88-2.28c.23-.87.58-1.14 1-.82a9.91 9.91 0 011 .82q1.71 1 1.71-1.65c-.46-1.14-1.27-1.36-2.42-.68a9.28 9.28 0 01-2.43.86 2.71 2.71 0 00-1.33.52c-.23.44-.35.49-.35.16a1.13 1.13 0 00-.34-.83 7.78 7.78 0 00-1.56.18 8.32 8.32 0 01-1.55.17 7.41 7.41 0 00-2.77-.17 10 10 0 01-3.12-.18l-2.76.69a6.49 6.49 0 00-2.25.68 4.07 4.07 0 01-3.28 0 5.42 5.42 0 00-2.94-.46c-.81.15-1.79.31-2.95.46l-5.81-.34c-.45 0-.39-.17.17-.51s1.09-.63 1.54-.86a3.73 3.73 0 012.57-1.51 9.23 9.23 0 002.92-.61q0-.32.69 0a3.52 3.52 0 001.39.3 2.1 2.1 0 012.42-.3 6.81 6.81 0 012.78-.61 2.43 2.43 0 012.25-.33 5.76 5.76 0 003.3-.33c.92-.22 1.79-.44 2.59-.66s1.79-.54 3-1a2.4 2.4 0 011.56-.17 8.41 8.41 0 001.56.17 2.82 2.82 0 001-.34 2.09 2.09 0 001-1c.47-.44.76-.54.87-.32a5.37 5.37 0 00.87 1l1.36-.66 1.37-.65a1.45 1.45 0 001.2-.82c.34-.55.4-.93.17-1.15h-1.69c-.68 0-.91-.11-.68-.33a13.58 13.58 0 012.73-1l2.74-.62a1.39 1.39 0 001-.34c.23-.23.57-.23 1 0s.68.78.68 1.67c0 .21.17.43.51.65s.75.11 1.2-.33l-.68-1.31a.8.8 0 01.17-1.36 7.87 7.87 0 001.2-1 2.06 2.06 0 011.53-.2 2.11 2.11 0 001.54-.19 7.22 7.22 0 011.37-.52 2.12 2.12 0 001-.51 3 3 0 011.48-.32c.46 0 .81-.34 1-1s-.57-.63-2.39.18A13.67 13.67 0 0155.13 41c-.46-.68-.91-.85-1.37-.51a1.25 1.25 0 01-1.37.17 3 3 0 01-1.37.85 1.55 1.55 0 00-1 .86c-.69.68-1.48.57-2.4-.34a.69.69 0 01-.34-1 1.11 1.11 0 00-.34-1.37.66.66 0 01-.51-.17 1.41 1.41 0 00-.86-.17q-.67.69-1 .69a10.92 10.92 0 00-2.74.68c-.45.45-.85.63-1.2.51a3.83 3.83 0 00-1.23-.2 2.09 2.09 0 00-1.2.34 1.12 1.12 0 01-1.2 0 1.59 1.59 0 00-.68.17 2.29 2.29 0 01-1 .18h-1a7.46 7.46 0 00-1.54.17 2.41 2.41 0 01-1.54-.17 15.6 15.6 0 00-5.47 1 4.05 4.05 0 01-3.08.17c-1.14-.34-1.93-.29-2.39.17a1.28 1.28 0 01-1.2.17 7.55 7.55 0 00-1.19-.17 8.05 8.05 0 01-2.91.69 5.74 5.74 0 00-2.57.68 6.21 6.21 0 01-3.24-.17 2.34 2.34 0 00-2.57.51l-2.05.35c-1.37 0-1.71-.41-1-1.2A2 2 0 015 43.74a2.07 2.07 0 001.54-.2 4.27 4.27 0 002.91-.2 6.44 6.44 0 012.9-.6 7.8 7.8 0 002.4-1 2.23 2.23 0 012.39 0 2.91 2.91 0 002.4-.35 1.43 1.43 0 001.36 0 3 3 0 011.4-.39 5.93 5.93 0 011.54-.51c.57-.12.74-.63.51-1.54-.45-1.14-.39-1.71.17-1.71h1.54A23.72 23.72 0 0029 35.9a3.2 3.2 0 012.9 0 4.55 4.55 0 002.74-1 11 11 0 002.73-.69 4.25 4.25 0 012.4-1 5.47 5.47 0 002.39-.69 28.36 28.36 0 012.91-1 10.64 10.64 0 012.9-.34 3 3 0 001.37-.35 3 3 0 011.37-.34c.69-.23.91-.51.69-.85a1.17 1.17 0 00-1-.52c-.69-.23-.8-.51-.34-.85a9.37 9.37 0 011.37-.86 25 25 0 012.73-1 4.31 4.31 0 002.74-.61 22.45 22.45 0 002.73-.31 5.69 5.69 0 002.74-.9 3.21 3.21 0 001.19-.46 3.17 3.17 0 011.2-.46c.91 0 1.26-.37 1-1.1s-.23-1.23 0-1.47c.23-.49.46-.68.68-.56s.34.07.34-.18c.69 0 1-.37 1-1.1q.69-.72 1-.72a2.61 2.61 0 011 .35 2 2 0 001.37-.69 2.94 2.94 0 011.36.34 5.83 5.83 0 002.91-.68 4.07 4.07 0 012.91-.34 10.28 10.28 0 013.07-.34c1.15-.69 1.94-1.15 2.4-1.37a40.7 40.7 0 013.07-.51 24 24 0 013.13-.25 6.19 6.19 0 002.74-.52 10.77 10.77 0 012.73-.85 9.17 9.17 0 002.74-.34c.68-.23 1.6-.58 2.73-1a11 11 0 003.08-.68 1.39 1.39 0 001-.35l1.37-.68a4.16 4.16 0 001-.68c.68-.69.57-1-.34-1a1.8 1.8 0 00-1.54 0 4.35 4.35 0 01-1.54.34 2.69 2.69 0 01-1.2.34 2.75 2.75 0 00-1.19.35 3.52 3.52 0 01-1.54.34 3.38 3.38 0 00-1.54.34 45.22 45.22 0 01-5.81 1 42.45 42.45 0 00-5.82 1 11.13 11.13 0 01-1.7-.17 10.09 10.09 0 00-1.71-.17A4.26 4.26 0 0085 12c.58-.23 1.2-.46 1.88-.69a43.94 43.94 0 015.48-1 45.73 45.73 0 005.47-1 10.28 10.28 0 013.07-.34c1.15-.46 2.12-.85 2.91-1.2a6.51 6.51 0 012.57-.51 2 2 0 001.36-.34 3.77 3.77 0 011.37-.69 5.36 5.36 0 001.41-.23 5.84 5.84 0 011.37-.17 1.94 1.94 0 001.36-.34 2 2 0 011.37-.34A19.31 19.31 0 00124.88.68a2.78 2.78 0 011.54.35 2.17 2.17 0 001.2.34 10.62 10.62 0 003.07-.37 20.07 20.07 0 012.91.17 9.06 9.06 0 002.9-.17q2.75-.34 5.82-.52c2.05-.11 4.1-.29 6.15-.51 1.37 0 3 .05 4.79.17s3.76.17 5.81.17a3.32 3.32 0 012.4.69 2.94 2.94 0 011.36.34 1.38 1.38 0 011 .34q1.71.33 2.91.51A3.41 3.41 0 01169 4.1c.23 0 .46.46.68 1.38a4.27 4.27 0 010 2.41 3.29 3.29 0 001 1.89c.46.34.68.63.68.86a3.53 3.53 0 001.2.87 2.86 2.86 0 011.2 1.21 15.81 15.81 0 01.85 1.89 7.91 7.91 0 00.86 1.55 3.89 3.89 0 001 .69 4 4 0 011 .69 6.65 6.65 0 011.36 3.1c-1.13 1.15-1.25 2.24-.34 3.27a4.69 4.69 0 011 4 16 16 0 01-.69 2.59 1.9 1.9 0 000 1.55q1.38 1 1 4.48l-.68 2.07v1a1 1 0 01-.35.68 8.67 8.67 0 01-.17 2.24 7.25 7.25 0 01-.85 1.56 3.1 3.1 0 01-.51 1.2 3.09 3.09 0 00-.52 1.55 25.38 25.38 0 01-1.71 2.4 7.08 7.08 0 01-.34 1.56 2.27 2.27 0 01-1 1.52 3.61 3.61 0 01-1.2-.18 3.9 3.9 0 00-1.2-.17l-1.19 1.12a1.75 1.75 0 01-1.2.47 3.06 3.06 0 00-2.22.16 19.8 19.8 0 01-2.57 1.11 3.23 3.23 0 01-1.37.32 3.11 3.11 0 00-1.36.32h-.35a2.79 2.79 0 00-1 .31 7.16 7.16 0 01-3.25.48c-1-.11-1.76-.16-2.22-.16a8.21 8.21 0 01-2.4.32q-2.39 0-2.73-1.71c-.23-.91-.63-1.32-1.2-1.2a8.13 8.13 0 01-1.54.17 6.45 6.45 0 00-2 .35 1.5 1.5 0 01-1.37 0A1.43 1.43 0 00142 54a5.36 5.36 0 00-1.37.17 3.23 3.23 0 01-1.73-.17 2 2 0 00-1.37.34 1 1 0 00-.68.34 4.14 4.14 0 00-1.54.34 4.14 4.14 0 01-1.54.34 2.33 2.33 0 00-2.56-.51 9.3 9.3 0 01-2.91.51 3.9 3.9 0 00-1.2.17 3.56 3.56 0 01-1.19.17l-1.37.69a3.4 3.4 0 00-1 .23 12.19 12.19 0 01-3.08.45 8.35 8.35 0 00-3.07.69 48.17 48.17 0 01-5.47 1 45.36 45.36 0 00-5.47 1 14.53 14.53 0 01-5.13.34c-.69-.68-.74-1-.17-1a3.31 3.31 0 001.53-.34 2.75 2.75 0 011.2-.34 1.91 1.91 0 001.2-.68q1-.34.51-.75a2.51 2.51 0 00-1.54-.39 4.32 4.32 0 01-1.37.22 4.36 4.36 0 00-1.36.23h-3.11a16.52 16.52 0 00-3.08.34 18.19 18.19 0 01-5.81 1q-2.73 0-6.16.34-2.73.34-5.81.52a37.12 37.12 0 00-6.15.85c-.69 0-1.71 0-3.08.17s-2.16 0-2.39-.17a8.58 8.58 0 00-2.91-.1 21.61 21.61 0 01-2.91.17 5 5 0 00-2.56.68 9.55 9.55 0 01-2.91 1 8.78 8.78 0 00-2.73-.34 7.85 7.85 0 01-2.4.34l-6 1.2q-2.56.51-5.64.85-1.71.34-2.91.51c-.8.12-1.76.29-2.91.52h-2.71a7.81 7.81 0 00-2.74.68 6.31 6.31 0 01-2.39.17 6.11 6.11 0 00-2.39.17 15 15 0 01-2.91.34H15.8q-3.08.69-6.15 1.2a14.11 14.11 0 01-5.81-.13zm134.38-10.6c-.46-.46-.35-.8.34-1a1.54 1.54 0 011.71.35l-.86.85c-.34.31-.74.26-1.19-.2zM109.15 8.55c-.91 0-1.14.22-.68.68a6.94 6.94 0 011.54.69c.34.22.74.11 1.19-.35v-.34a2 2 0 00.86-.68 1.85 1.85 0 01.85-.69c0-.23-.34-.34-1-.34a3.78 3.78 0 00-1.71.34 4 4 0 01-1.05.69zM95.82 60.86c-.23-.23-.06-.63.51-1.19s.85-.17.85 1.19a.73.73 0 00-.51.17c-.11.12-.4.06-.85-.17zM83.51 12.31a3.15 3.15 0 01-1.37.34 2 2 0 011.37-.34zm-5.51.34a1.21 1.21 0 001.36-.17 1.77 1.77 0 011.71-.17.66.66 0 01.51.17.74.74 0 00.52.17h-1a1.59 1.59 0 01-1.54.51 2.32 2.32 0 00-1.53.18 2.41 2.41 0 01-1.54.17 6.57 6.57 0 00-1.2-.17 3.71 3.71 0 011.2-.69 1.8 1.8 0 011.51 0zm-5.82 7.18c-1.37.69-1.71 1.37-1 2.05s1.59.57 2.73-.34l.69-.68c.23-.69 0-1-.69-1zm-3.04-5.13h-1.36l1.36-.7c.46-.23.58 0 .35.68zm-1.7 6.84c-.46-.46-.63-.51-.52-.17s.29.4.52.17zm-1 21.2c.23 0 .17 0-.17.17s-.27.09.14-.17zM63 21.88c-.68 0-.74-.34-.17-1s.85-.46.85.68a1 1 0 00-.68.32zm-.34 14.36q-1 0-.51.18a3.88 3.88 0 001.19.17c.45-.23.22-.35-.69-.35zm-3.43-14.36c-.69.23-.86.12-.51-.34s.74-.46 1.19 0a1 1 0 01-.68.34zM56.15 38a7.52 7.52 0 011.54.18 1.63 1.63 0 001.54-.52l-.34-.34c0-.23-.11-.34-.35-.34a2.08 2.08 0 00-1.19.34 10.7 10.7 0 01-1.2.68zm.69 6.16q-.69-.34-1.2.51c-.34.57-.63.86-.86.86a6.57 6.57 0 011.2.17 2.41 2.41 0 001.54-.17l.34-.34c.46-.51.14-.86-1.02-1.08zm-1-16.41c-.68.22-.91.56-.68 1a.67.67 0 001 .34c1.13-.71 1.02-1.17-.35-1.39zM51 24.28c-.45 0-.39-.17.17-.52s1.09-.63 1.54-.85a1.9 1.9 0 011.37-.17 2 2 0 001.37-.17c.68-.23.91-.29.68-.17l-1 .51a28.19 28.19 0 01-2.74 1 3.11 3.11 0 01-1.39.37zm4.11 15.38c.46-1.14.57-1.71.34-1.71a8.08 8.08 0 00-2.91.46c-.8.3-1.76.72-2.91 1.25-.45.23-.56.52-.34.86s.57.28 1-.17l.34-.34a1 1 0 01.69-.35c.68.69 1.08.86 1.19.52a1.59 1.59 0 01.86-.86c.68.69 1.14 1 1.36 1zm-.86 13.17c-.11.56.17.74.86.51a1 1 0 00.34-.68v-.34c-.67-.23-1.06-.06-1.18.51zm-6 .51c-.69.38-.8.76-.35 1.14a2.17 2.17 0 001.37.57 12.38 12.38 0 003.08-.28l.34-.29c.46-1.22.06-1.71-1.19-1.48a19.31 19.31 0 01-3.21.34zm2.75-6.5c0-.22-.22-.57-.68-1s-.91-.34-1.37.34a4.25 4.25 0 00.68 1c.48.46.94.35 1.37-.34zm-1.37 12c.46-.46.52-.85.18-1.19a1.42 1.42 0 00-1.54-.18q-.69.69 0 1.2a1.21 1.21 0 001.38.14zM45.21 41.2c.46-.11.57.4.34 1.54h-1c-.02-.91.21-1.42.66-1.54zm-2.39-10.77c-.46-.23-.4-.4.17-.51a2.29 2.29 0 011.54.17 2.77 2.77 0 01-1.71.34zm-.35 28a1.62 1.62 0 00-.17 1.2c.12.34.29.39.52.17s.11-.65-.35-1.33zm-2-14.36a.86.86 0 01-1.37 0c-.22-1.37.46-2 2.06-2 .91.68.8 1.37-.34 2zm-.34 3.08c-.45.45-.68.45-.68 0s.18-.42.63.04zm-9.57-6.84q.69-.69 0-.69c-.69-.46-1-.34-1 .35s.26.83.95.38zm-7.92 18.5c-.22-.46-.22-.74 0-.85s.34.17.34.85zM17.55 39c-.45 0-.74.05-.85.17s-.4.05-.86-.17c-.22-.46 0-.8.68-1A5.33 5.33 0 0122 37a1 1 0 01.51 1.2c-.11.56-.4.73-.86.51-.45-.46-.73-.4-.85.17a3 3 0 01-.86 1.54c-.68.45-1.13.34-1.36-.34S18 39 17.55 39z" fill="currentColor"/></svg>