<svg xmlns="http://www.w3.org/2000/svg" viewBox="0 0 178.91 51.46"><path d="M178.43 11.79c-3-12.17-45.59-15.6-32.51-7.07 67.71 7 4.11 38.07-40.7 20.52-1.5 5.58-3.51 4-2.76-.9-1.7-.57-3.39-1.16-5.09-1.76-.88 1.43-2 2.72-2.88 4.15 19.56 7.42 41.07 11.45 61.79 6.9 10.19-1.95 25.57-9.23 22.15-21.84zm-84.51 9.59c-25-10.25-57-19.14-79.72.74C7 29.07-2.85 40.42.78 51c1.46 1.33 4-.28 1.88-1.74.86-16.84 17.19-29.56 32.72-33 19.14-4.42 38.17 2.5 55.86 9.31a34.62 34.62 0 012.68-4.19z" fill="currentColor"/><path d="M97.37 22.58c.83-1.15.81-2.85 1.77-3.86-3.38-3.2-10.09 9.09-8.93 12.32 3.6-1.23 4.79-5.78 7.16-8.46zm5.2 5.42c1.78 3.73 3.84-7.78 4.69-9.29-4-.8-5.54 6.29-4.69 9.29z" fill="currentColor"/></svg>