<svg xmlns="http://www.w3.org/2000/svg" viewBox="0 0 198.02 180"><path d="M126.53 125.44a.92.92 0 00-.31 1.17c.55 1.08 1 1.38 1.22.91s.34-.85.2-1.12c-.33-1.01-.71-1.33-1.11-.96zm1.3-11.32c.2.4.42.51.66.3s.32-.37.25-.5a.73.73 0 00-.91.2zm-2.31 20.2l.21.41q.92.81 1 .15c0-.44-.39-.63-1.21-.56zm-20.12-18.84c-.81-.27-1.12-.21-.92.2.28.88.68 1.18 1.22.91s.44-.59-.3-1.11zm29.15 14.06a1.16 1.16 0 00-1.47-.15c-.44.3-.56.83-.35 1.57a1.16 1.16 0 001.47.15c.44-.31.56-.83.35-1.57zm-10.99-18.86v.5c.61.54 1.12.63 1.52.25s.31-.82-.31-1.36c-.77-.95-1.21-.75-1.21.61zm-52.15 4.41c0 .85.37 1 1 .51a.69.69 0 00-.12-.94c-.29-.24-.61-.09-.88.43zm35.19-11.39a.64.64 0 000 .51c.61.54 1 .67 1.22.4s.13-.74-.21-1.42c-.4-.13-.74.04-1.01.51zm46.25 42.05c-.14-.95-.43-1.35-.87-1.22s-.93-.17-1.47-.91h-1.37a1.41 1.41 0 01-1.37-1 3.38 3.38 0 00-1-1.67 3.59 3.59 0 00-1.07-.86 1.71 1.71 0 01-1-.92c-.24-.47-.76-.67-1.58-.6a1.27 1.27 0 00-.71 1.62c.41.81.92 1.15 1.53 1a2.06 2.06 0 011.83.61 2.77 2.77 0 001.12 1.22c.47.27.71.57.71.91a1.75 1.75 0 001.06.86 5.06 5.06 0 011.68 1.06 2.47 2.47 0 011 1.42c0 .4.46.57 1.27.51.74-.21 1-.53.65-1a2.16 2.16 0 01-.41-1.03zm-17.48-13.32c-.61 0-1 .15-1.12.56.07.81.43 1.18 1.07 1.11a1.68 1.68 0 001.37-.81 1.46 1.46 0 00-1.32-.86zm18.07 3.88a5.64 5.64 0 01-1.67-.05c-.65-.1-1-.56-1.07-1.37s-.51-1-1.73-.4a.71.71 0 000 .5 1.59 1.59 0 01.1.71 5.35 5.35 0 001.43.56 3.23 3.23 0 011.32.86c.07.14.25.25.56.35l.76.26a1.42 1.42 0 00.76-.77c.1-.3-.05-.52-.46-.65zm7.29 17.8c.16-.18.08-.26-.26-.26a.4.4 0 00-.2.61 1.8 1.8 0 00.46-.35zm-6.56-4.71l1.22.4c.61.2.91 0 .91-.71-.13-.27-.54-.49-1.22-.66s-.98.15-.91.97zm-87.4-29.78c-.87.38-1.08.77-.62 1.17s.91.32 1.39-.26a1.53 1.53 0 00-.77-.91zm68.88 1.49a3.55 3.55 0 00.21.91q.7.92 1.32.36c.41-.38.3-.83-.31-1.37-.87-.41-1.28-.37-1.22.1zm9.61 11.05c.44.54.87.37 1.27-.51a2.06 2.06 0 01.56-.92c.24-.2.32-.37.25-.5-.41-.82-.78-1-1.12-.71l-.3.91c-.54.61-1.06.75-1.57.41s-.73-.44-.66-.3a13.9 13.9 0 011.57 1.62zm-1.15-18.98c-.23-.14-.28-.07-.15.2.34 0 .39-.07.15-.2zm39.18 31.25c-.2-.24-.33-.26-.4-.05.47.27.61.28.4.05zM33.66 121.34a.94.94 0 00-.69-.11c-.59.18-.72.66-.37 1.42s.75.86 1.22.28a2.41 2.41 0 00.32-.83 1.43 1.43 0 01.21-.64.9.9 0 01-.69-.12zm-1.85 18.87c-.36-.11-.84.09-1.45.6-.2.39-.36.6-.46.64s-.22.34-.36.92c-.41.45-.39.59 0 .4a6.81 6.81 0 001.55-1.05.61.61 0 00.4-.29c.58-.71.68-1.12.32-1.22zm-2.32-4.6a1.76 1.76 0 01.21-.63 2.17 2.17 0 00.93-1.51v-1.24a1 1 0 01.42-.78 1.12 1.12 0 00.32-1.08 4.23 4.23 0 00-1.7.86c-.81.9-1.64 1.75-2.48 2.55a17.75 17.75 0 00-2.28 2.67q0 .5.87 1.2c.58.47.88 0 .91-1.26-.12-.4.11-.44.69-.13a2.64 2.64 0 002.08.09c.02-.35.03-.58.03-.74zm7.24-14.89l.41-.28c.07-.13.35-.6.87-1.42s1-1.73 1.59-2.77q.32-1.08-.36-1.44c-.46-.24-.76.1-.91 1a1.49 1.49 0 00-.13 1.19q-.78-.41-1.59.66a3.54 3.54 0 01-.83 1.56 14.55 14.55 0 00-1.21 1.36c-.07.13.15.33.67.6s1.02.13 1.49-.46zm.34 6.92a2.65 2.65 0 00.41 1.59q.44.6 1.26-1a9.1 9.1 0 00-.13-.94c0-.1-.37-.32-1-.67-.78-.74-.86-1.2-.27-1.38a1 1 0 01.74.26c.16.17.41.09.74-.23a2.34 2.34 0 01-.31-1.29c0-.59-.26-.93-.72-1a1.63 1.63 0 00-1 .86 2.54 2.54 0 01-1.04 1.16c-.27.19-.19.52.23 1a7.1 7.1 0 011.09 1.64zM25.36 16.24A.73.73 0 0025 17c.68.68 1.12.71 1.32.1s-.15-.93-.96-.86zM54 116.87c-.61.51-.77.8-.47.87s.71-.24 1.26-.95l-.2-.11c-.13-.07-.33 0-.59.19zm104.3 12.42a1.49 1.49 0 00-.4 1.73c.54.41.85.25.91-.46s-.1-1.13-.51-1.27zM49.89 93l-.09-.3a1.41 1.41 0 00-.43-.6 1.92 1.92 0 01-.52-.9c-.46-.41-1-.32-1.64.26s-1.12 1-1.46 1.35c-.56 1.69-.24 1.86 1 .51a1.34 1.34 0 011.87 0c.63.49 1.06.39 1.27-.32zM36.3 140l-.59.18a1.66 1.66 0 00.51 1.4c.41.47.73.34 1-.38q-.62-1.33-.92-1.2zm12.04-12.9a2 2 0 00.32 1.05c.22.36.63.29 1.24-.22a2.91 2.91 0 00-.38-.7c-.38-.54-.78-.58-1.18-.13zm-4.87 1.18c-.13-.07-.43.27-.91 1s-.58 1-.31.83l1.51-1.44zm.23 5.48a1.3 1.3 0 00-.68 1.52 2 2 0 000 .64 3.41 3.41 0 01-.18 1c.06.53.2.65.44.35a4.26 4.26 0 01.76-.72l.72-1.36c.34-.65.45-1 .32-1.08a1 1 0 00-1.38-.35zm-4.8.34c.08-.79-.24-1-1-.76s-1.1.58-1.1.91c.16 1.58.74 1.73 1.76.43zm1.67 4.9a1.16 1.16 0 00-1.51-.92c-.76.18-.89.57-.37 1.17a4.59 4.59 0 001.11 1 1 1 0 001.54-.31 3.78 3.78 0 01-.77-.94zM43 97.23c-.31.42-.23.34.25-.25.18-.26.09-.17-.25.25zm86.35 17.39a.74.74 0 00-.1.82c.61.54 1.05.65 1.32.35s.17-.76-.31-1.37a.75.75 0 00-.91.2zM175.2 127c-.58-.13-.83.21-.76 1a1.91 1.91 0 00.5.51.94.94 0 01.41.81l-.1.3c.68.34 1.16.36 1.42.05s.24-.79-.1-1.47a2.11 2.11 0 00-1.37-1.2zm-8.05 13.85a.7.7 0 01.3-.41c.14-.06.1-.13-.1-.2zm8.06-2.91a2.37 2.37 0 01-1.57-.35c-.61-.2-1-.12-1.27.26s-.32.62-.25.76a2 2 0 001.27.76.94.94 0 01.86.45c.41.82.8 1 1.17.56a2.81 2.81 0 00.66-1.47c-.21-.75-.49-1.07-.87-.97zm-6.65-2.88c-.6.14-.95.39-1 .77s-.14.66-.2.86q1.11.7 1.47-.36c.23-.71.17-1.13-.27-1.27zm2.61 12.53c-.1-.37-.32-.39-.66-.05l.1.21c.48.25.66.25.56-.16zm2.16-15.68c.41.13.55-.15.45-.86s-.35-.63-.76.25c-.02.2.04.41.31.61zM4.64 154.3v.09a.09.09 0 000-.09zm-1.12 1.9a8.42 8.42 0 001.06-1.06 5.88 5.88 0 010-.75 1.29 1.29 0 01-.52.25 3.8 3.8 0 00-1.41 1.25c-.05.78.23.89.87.31zM.3 167.48a1.31 1.31 0 00-.08 1.58c.85-.05 1.29-.4 1.3-1.06-.44-.73-.85-.91-1.22-.52zm12.77-25.57l.3-.59c-.4.45-.69.76-.86.92s-.22.26-.15.29.3-.17.71-.62zm46.37-12.68a.74.74 0 00-.45.38c-.1.2.14.37.73.51l.1-.19q.32-.59.12-.69a.65.65 0 00-.5-.01zm-29.9-22.29c-.2.06-.28.14-.25.24s.11.02.25-.24zm6.33-4.89c.6-.51 1-.86 1.31-1.06a1 1 0 00.66-1 3.78 3.78 0 00-.11-1.43c-.19-.6-.58-.72-1.18-.37a5.7 5.7 0 00-1.61 1.39 12.49 12.49 0 00-1.55 2.93l-.71.87-.46.88-.47.88a5.28 5.28 0 00-1.06 1.3c-.45.68-.57 1-.37.93a3.26 3.26 0 011.31-.81.73.73 0 00.6-.43 3.54 3.54 0 00.86-1.16 7.8 7.8 0 011.07-1.56c.53-.41 1.1-.85 1.71-1.36zm-20.1 35.67c-.63.25-.94.54-.95.87.37.86.86 1 1.47.53s.9-.94.91-1.27a1.23 1.23 0 00-1.43-.13zm7.92-7.42a3.56 3.56 0 00.82-1.56 1.41 1.41 0 00-.46-1.49c-1.57-.5-2.11.22-1.62 2.13a2.51 2.51 0 00.36 1.2c.21.26.49.17.9-.28zm9.25-20.82c-.08.46 0 .71.23.75a.51.51 0 00.55-.33q-.27-.9-.78-.42zm-2.48 2.81a.73.73 0 00-.06.59c.05.2.29.24.69.12l.1-.2c-.06-.53-.17-.79-.33-.8a.46.46 0 00-.4.29zm-19.67 56.12c.52.6 1 .69 1.48.28a4.59 4.59 0 001-1.21 4.71 4.71 0 01-1.64.5c-.63.08-.9.23-.84.43zM28.78 150l.1-.2c.07-.13.13-.18.2-.14s.13 0 .2-.14a.6.6 0 01.4-.29c-.51-.61-.94-.75-1.27-.42s-.22.67.37 1.19zm-14.4 16.81c.39.21.56 0 .51-.48q-1.09.17-.51.48zm5.25-31.66c-.58-.48-1-.36-1.19.36s0 .82.59.31a2 2 0 00.6-.67zm-2.79 5.51c-.27.68-.48 1.15-.62 1.42a4 4 0 000 1.23c.06.36.52.36 1.38 0a8.11 8.11 0 011.82-1.78 1.86 1.86 0 00.81-.83 4.87 4.87 0 01.73-1.61c.27-.35.11-.77-.47-1.24a1.89 1.89 0 00-1.2.61 2 2 0 01-1.19.62 3.51 3.51 0 00-1.26 1.58zm162.41 16.21a1.3 1.3 0 001 1l-.2-.41a.91.91 0 00-.8-.59zm18.39 10.32a3.18 3.18 0 00-.41-1.32 1.06 1.06 0 00-.66-.56c-.3-.1-.48.12-.55.66l-.21.11a7.84 7.84 0 001.68 1.57c.65.43.7.28.15-.46zm-17.64-.28c.07-.2-.22-.61-.86-1.21a5.74 5.74 0 00-1.27-1c-.61.14-.78.39-.51.77a5.1 5.1 0 01.71 1.67 2.31 2.31 0 001.53.76c.4-.06.52-.38.4-.99zm.8 7.21c-.74-.81-1.2-.88-1.37-.2a2.94 2.94 0 00-.15 1.22 1.46 1.46 0 00.51 1c.75.47 1.09.39 1-.25a8.17 8.17 0 01.01-1.77zm-1.65-20.25l-1.43-1.31a1.7 1.7 0 00-1.42-.56c-.47.07-.74.54-.81 1.42a.64.64 0 010 .51 11.82 11.82 0 01.87 1 3.47 3.47 0 001.57.86c.07.14.43.17 1.07.1a1 1 0 001-1.12 5.34 5.34 0 00-.85-.9zm6.37-14.62a1.3 1.3 0 00.45-.36.35.35 0 00.05-.41c-.06-.13-.37-.06-.91.21.07.47.21.66.41.56zm-17.7-24.89l.3.1c.27-.14.32-.29.15-.46s-.27 0-.45.36zm8.31 55.5c.14-.06-.15-.13-.86-.2a1.07 1.07 0 00-1.27 1l.1.2a.47.47 0 00.26.26.43.43 0 01.25.25 8.74 8.74 0 001.68.81c.84.33.93.16.25-.51a4 4 0 01-.41-1.81z" fill="currentColor"/><path d="M181.67 147a.63.63 0 00-.71-.15 2.27 2.27 0 01-1.11 0c-.21-.41-.44-1-.72-1.67a2.73 2.73 0 01-.3-1.37 2.76 2.76 0 012.54 1 12.05 12.05 0 011.22 1.16 12.67 12.67 0 001.62 1.47c.27.2.7.12 1.27-.25a2.44 2.44 0 001.06-1.68c.07-.21-.18-.63-.76-1.27a8 8 0 01-1.07-1.37c.14-.41.29-.61.46-.61a7.61 7.61 0 001-.1 1.28 1.28 0 00.61-.81l.2-.61a6.2 6.2 0 012.34 1.36c1.22.92 1.86 1.61 1.93 2.08.75.47 1.29.54 1.63.2s.2-.78-.41-1.32-1.09-.89-1-1.26-.2-.83-.81-1.37c-1.29-1.22-2.21-1.69-2.75-1.42a2.26 2.26 0 00-1.42 1 2.15 2.15 0 01-1.72.86 5.08 5.08 0 01-1.32.16c-.75 0-1-.43-.81-1.37a3.86 3.86 0 001-1.63 2.6 2.6 0 011.06-1.42c.81-.41 1.2-.73 1.17-1a3.72 3.72 0 00-.77-1.26 1.68 1.68 0 00-2.18-.05c-.84.51-1.33.8-1.47.86a12.73 12.73 0 01-1.47.36q-.36 0-.36-1c.34-.34.58-.46.71-.36s.27-.05.41-.45a1.06 1.06 0 00.37-.54 2.67 2.67 0 01.47-.81c.81-.1 1.11-.25.92-.46s-.51-.59-1-1.14a2.68 2.68 0 00-1-.67 2.41 2.41 0 01-1.17-1.58 1.53 1.53 0 00-.82-1.13 14.48 14.48 0 01-1.53-1 10.46 10.46 0 01-1-1.54 3.68 3.68 0 00-1.12-1.23 16.92 16.92 0 01-1.53-1.53 1.57 1.57 0 00-1.74-.42l-.09 1.33a.75.75 0 01-.86.56 4.19 4.19 0 01-1-.15q-.71.1-.81-.36c-.07-.31-.34-.42-.82-.36l-.1-.2c-.07-.14-.14-.19-.21-.16s-.13 0-.2-.15a.65.65 0 00-.41-.31 2.7 2.7 0 01.35-1.84l.76-1c.33-.34.32-.63-.06-.87a13.49 13.49 0 01-1.48-1.18c-.48-1-.9-1.21-1.27-.77a3.14 3.14 0 01-1.68 1 2.94 2.94 0 01-1-3.07 1 1 0 00-.26-1.53 1.6 1.6 0 00-1.88-.21 3 3 0 01-2.85-.86 7.81 7.81 0 01-2-2.28 2.89 2.89 0 00-.56-1.37 2.82 2.82 0 01-.56-1.37c-.27-.87-.7-1.21-1.27-1a1.72 1.72 0 01-1.78-.5 9.63 9.63 0 01-1.68-1.32q-1-.92-1.17-.81c-.87-.4-1.06-.86-.56-1.37a2 2 0 00.76-1.27c.21-.61-.17-.84-1.11-.71a4.33 4.33 0 00-1.32.41c-1.29-.88-1.26-1.82.09-2.84a3.91 3.91 0 011.53-.51c.34 0 .44-.31.3-.92l-.19-.37a7.33 7.33 0 00-.26-1.27c-.12-.41-.51-.61-1.18-.59-.41-.14-.71-.57-.89-1.27a2.27 2.27 0 00-1-1.48l-.62-.48a3.31 3.31 0 00-.83-.38 1.09 1.09 0 01.59-1.35 2 2 0 00-1-1.68 4.29 4.29 0 01-1.07-.86 2.45 2.45 0 00-1.58-.35c-.36.1-.86-.12-1.47-.66a2.6 2.6 0 00-1.42-1.06 1 1 0 01-.81-.86 3.22 3.22 0 01-.41-1.83 2.15 2.15 0 00-.11-1.22 4.29 4.29 0 00-.91-1.06 2.44 2.44 0 00-1.76-.64 1 1 0 00-.58-.35q-.48-.14-.36-.45c0-.82-.31-1.33-.76-1.52s-1.39-.62-2.79-1.27a9.79 9.79 0 01-2.39-2.61l-.12-.39c.93-.64 1.88-1.28 2.86-1.91a11.6 11.6 0 001.05-.82 11.22 11.22 0 011.06-.81 9.9 9.9 0 012.66-2 3.74 3.74 0 002-2.08c-.07-.19.17-.49.71-.87a3.86 3.86 0 00.9-.77 8.07 8.07 0 002.71-1.81c.14-.59.31-.92.51-1a6.79 6.79 0 001-.47 5.56 5.56 0 001.21-1.11 3.39 3.39 0 011.11-.91c.4-.45.57-.78.51-1a2.75 2.75 0 011.47-1.59 10.43 10.43 0 002.36-1.87c.4-.45.78-.84 1.11-1.16l1-1a5.6 5.6 0 001.26-1.2 8.38 8.38 0 011.37-1.4 8.35 8.35 0 001.41-1.5 8.09 8.09 0 011.42-1.5 11 11 0 001.26-1.2 9.43 9.43 0 011.26-1.21 21.61 21.61 0 002.66-2.21c.71-.71 1.57-1.54 2.58-2.51a8.68 8.68 0 001.74-2.82 9.81 9.81 0 011.84-3 5.89 5.89 0 001.49-2.58 12 12 0 00.12-3.31 3 3 0 011.13-1.65 3 3 0 001.12-1.65 4 4 0 00.13-1.18 2.44 2.44 0 00-.27-1.39c-.51-.61-.87-1-1.06-1.31a2.53 2.53 0 01-.16-1.58c-.12-.4-.56-1.46-1.31-3.19a20.07 20.07 0 00-4-5.62 19.21 19.21 0 00-1.35-1.46A16 16 0 01162 5.56a2.46 2.46 0 00-1.36-1 4.51 4.51 0 01-1.64-.43 4.81 4.81 0 01-1.11-1A6.35 6.35 0 00156.36 2l-1.17-.62-1.77-.38a4.73 4.73 0 00-2.74-1 6.08 6.08 0 00-1.68.36 3 3 0 01-1.38.26 9.37 9.37 0 01-2.9 1.23 4.14 4.14 0 01-1.27-.43 2.73 2.73 0 00-1.67-.13 7.34 7.34 0 00-.94.12 5.83 5.83 0 01-1 .13l-1.19.37a14.23 14.23 0 00-1.54.31 8.7 8.7 0 00-1.51.78 28.86 28.86 0 00-3 2c-.84.64-1.76 1.28-2.76 1.91a36.66 36.66 0 00-3 2.41 11.16 11.16 0 01-3.3 2 5.57 5.57 0 00-1.21.86l-.8.58a2 2 0 00-.61.68q-.51.48-1 .87c-.3.25-.58.48-.85.67a14.25 14.25 0 00-1.51 1.45c-.41.45-.85 1-1.33 1.55a6.55 6.55 0 00-1.15.77 9.49 9.49 0 00-1.19 1.25 6.4 6.4 0 01-1.83 2.29 15 15 0 00-2.12 1.88c-.74.77-1.52 1.53-2.32 2.27s-1.51 1.36-2.12 1.88a8.93 8.93 0 01-.76 1 2.85 2.85 0 01-1.26 1 22.34 22.34 0 00-2.12 2.13 16.06 16.06 0 01-2.32 2 16.63 16.63 0 00-2.31 2 22.3 22.3 0 01-2.17 2c-.65.5-1.35 1-2.08 1.54-.7-.61-1.41-1.21-2.15-1.77a29.43 29.43 0 01-2.43-2.34c-.4-.47-1.11-1.21-2.13-2.23A11 11 0 0183 31.37 14.58 14.58 0 0080.39 29q-2.22-1.93-4.46-4.11c-1.48-1.45-3-2.89-4.56-4.31-.61-.54-1.1-1-1.47-1.42a9.92 9.92 0 00-1.37-1.22 18.85 18.85 0 01-1.47-1.42 18.85 18.85 0 00-1.47-1.42l-2.74-2.44a10.46 10.46 0 01-3.09-2.13 33.53 33.53 0 00-3.09-2.63 9.81 9.81 0 00-3-2 15 15 0 01-1.78-1.27 6.15 6.15 0 01-1.16-1.07 5 5 0 01-1.42-.81 6.06 6.06 0 00-1.72-.91 5.35 5.35 0 00-1.62-.21 3.73 3.73 0 00-1.21.11c-1.35.67-1.49 1.59-.4 2.74q.3 1.11-.81.66a5.19 5.19 0 00-1.63-.46 2.24 2.24 0 00-1.66.32L39 5.56a1.35 1.35 0 01-1.52.26A4.12 4.12 0 0136 4.55a3.65 3.65 0 00-2.54-2l-1 .51a6.81 6.81 0 00-1.62 1.32 1.82 1.82 0 01-1.42.2c-.41-.13-.88.1-1.42.72.06.13.27.54.61 1.21A1 1 0 0128.08 8l-1.42.2-1.42.21c-.67.34-.94.72-.81 1.16s-.1.9-.71 1.38l-1.42.71c-.54.27-.81.58-.81.91-.06.89-.28 1.38-.65 1.48a4.91 4.91 0 00-1.48.86c-.26.14-.38.49-.35 1.07s-.32 1-1.06 1.17l-1.42-.81q-1 0-1 .51a1.9 1.9 0 00.1.71 2.36 2.36 0 01-1.06 1.67c-.57.38-.86.73-.86 1.07-.07.88-.33 1.44-.81 1.68s-.47.66 0 1.27c.95 1.21 1.33 2.12 1.12 2.73-.74 1.56-.79 2.73-.14 3.51s1.37 1.63 2.18 2.58a3.63 3.63 0 01.82 1.62c.07.48.54.92 1.42 1.32a3.42 3.42 0 011.38 2.48q0 1.17-.15 2l-.92.72a1.44 1.44 0 000 1.42 1.38 1.38 0 001.37.71 2.65 2.65 0 011.27.75l1.07 1.37c.88 1.08 1.66 2 2.33 2.89s1.46 1.81 2.34 2.89c.95.88 2 1.84 3.1 2.89s2.06 2 2.8 2.78l.2.41a1.18 1.18 0 00.46.41 4.12 4.12 0 01.86.7c.68.68 1.23 1.26 1.63 1.73q5.6 5.07 11 10.08l8.18 7.55-.47.45a11.92 11.92 0 01-1 1.22 9.47 9.47 0 00-1.12 1.41 6.11 6.11 0 01-1 1.21c-.54.55-1.12 1.08-1.72 1.59s-1.12 1-1.56 1.3-.92.72-1.45 1.11a10.74 10.74 0 00-2.68 2.7 18.91 18.91 0 01-2.59 3c-.41.45-.87 1-1.37 1.65a14.54 14.54 0 00-.87 1.17 3.89 3.89 0 01-1.18 1.4 2.13 2.13 0 00-.72 1.61c.12.4.48.51 1.08.32a1.81 1.81 0 01.06 1.29c.45.73.81 1.38 1.09 2a1.24 1.24 0 01-.48 1.62l-.51 1a2.55 2.55 0 01-.63 1.67l-1.35.66c-.24.13-.43.65-.58 1.57a2.83 2.83 0 01-.66.53l-.74.23c-.08.46.28.73 1.07.81a2.15 2.15 0 011.57.34c.65.34 1 .12 1.1-.67a2.94 2.94 0 01.39-1.98c.3-.42.59-.57.85-.43a1.29 1.29 0 01.56 1.3l.37 1.19a11 11 0 01-.29 1.73c-.11.36-.52.43-1.24.22-.64-.67-1-.86-1.07-.57a2.89 2.89 0 01-1 1.21 5.51 5.51 0 00-.62 1.42c0 .17-.27.44-.81.82a2 2 0 00-.58 1.57 2 2 0 01-.58 1.57c-.4.45-.78.84-1.11 1.16s-1.42.17-2.86-.26c-.39-.21-.67 0-.84.65a2.74 2.74 0 00.22 2c.06.51 0 .79-.06.82s-.25.23-.45.61c0 .33-.27.75-.8 1.29s-.8 1-.8 1.28c0 1.48.33 2.36.85 2.64.92-.18 1.39-.43 1.4-.76s.31-.75.91-1.26a11.28 11.28 0 011.34-.17c.16 0-.16.46-1 1.36a2.56 2.56 0 00-.22 1.13 2.77 2.77 0 01-.73 1.61l-.74.23a2.63 2.63 0 00-.66.53.63.63 0 010 .49 1.26 1.26 0 01-.8.58 17.46 17.46 0 00-1.46 1.35 2.17 2.17 0 00-.58 1.56c0 .66-.43 1-1.25 1a6.09 6.09 0 00-1.54.07q-1.48.45-1.44 2.73a2.3 2.3 0 01-.27 1c-.17.32.14.52.93.61l1.17.62a1.43 1.43 0 01.76 1.4 2.73 2.73 0 01-.63 1.66 1.32 1.32 0 01-.89-.21.9.9 0 00-.69-.12c-.67.64-1.23.93-1.69.85s-.57.28-.32 1.08c0 .33-.48.74-1.41 1.25l-.83 1.45a5.31 5.31 0 01-1.21 1.36 1.12 1.12 0 01-1.08-.32 2.15 2.15 0 01-.37-1 4 4 0 00-.47-1.24 3.1 3.1 0 00-1.36-1.22c-.19.06-.46.33-.8.82a3.54 3.54 0 00-.63 1.42c-.22 1-1 1.62-2.4 1.72a2.55 2.55 0 00-1 1.21 3.79 3.79 0 01-.82 1.32 6.58 6.58 0 01-1.7 1.09c-.53.22-.8.49-.81.82a2 2 0 01.55 1.79 7.82 7.82 0 001.57-1.54 8.9 8.9 0 012.56-2 4.85 4.85 0 001.36-1.15 8.93 8.93 0 00.76-1 13 13 0 011.65-1c.57-.29.74.1.52 1.15-.07.13.07.49.42 1.09s0 1.05-1 1.36a3.44 3.44 0 00-1 .47 1.9 1.9 0 00-1.2.87c-.08.45-.17.7-.27.73s-.15.37-.17 1c-.28.85-.52 1.3-.72 1.37a2 2 0 00-1.05.81 2.15 2.15 0 01-1.06.82 5 5 0 00-1.21 1.35 5.2 5.2 0 01-1.22 1.36.91.91 0 01-.8.82 2.53 2.53 0 00-1.41 1 2 2 0 00-.63 1.51 3.82 3.82 0 01-.13 1.43 9.69 9.69 0 01-1.69.36c0 .65 0 1 .08 1a2.3 2.3 0 01.38.46 1.47 1.47 0 001.37.72c.52-.06.79-.41.81-1.07-.31-.66-.16-1 .46-.88a2.62 2.62 0 001.64-.26 4.14 4.14 0 001.35-.9 3.28 3.28 0 011.55-.81c.33-.32.51-.57.51-.73a2.33 2.33 0 01.31-.83 2.34 2.34 0 011.94-.6c.69.12 1.25-.55 1.67-2 .27-.2.37-.31.31-.34s.1-.12.5-.24a3.46 3.46 0 001.58-.16c.46.08.73.26.83.56a1.35 1.35 0 00.72.76 1.09 1.09 0 00-.13-.94 7.54 7.54 0 01-.53-.66c-.39.13-.37-.15.07-.83s1-.75 1.73-.21a2 2 0 01.91 1.35.93.93 0 00.43.85l.36 1.19c-.14.59-.38.88-.71.88s-.52.05-.59.18a2.06 2.06 0 00-1.21 1.11 3.52 3.52 0 01-1.12 1.4c-.4.45-.51.81-.32 1.08a1 1 0 00.93.37 3 3 0 001.34-.42 2.27 2.27 0 001-1.45l.32-1.08a4.57 4.57 0 011.67.63c.78.41 1.74.17 2.87-.73a1.53 1.53 0 00.57-.82 5.17 5.17 0 01.36-.93 2 2 0 01.22-.89 1.34 1.34 0 01.31-.83q.21-.15.12-.93a2.58 2.58 0 00-1.78.3 1.45 1.45 0 01-1.58-.08 1.68 1.68 0 01-.69.13 3 3 0 00-.89 0 5.31 5.31 0 01.34-1.82 2.15 2.15 0 011-1.21 2.71 2.71 0 001.6-.9c.54-.55.48-1-.17-1.34a5.55 5.55 0 00-1.05.57 3.7 3.7 0 00-1.21 1.51 3 3 0 01-1.8.8c-.59 0-.85-.2-.77-.66.22-1 .58-1.56 1.07-1.55a1.9 1.9 0 001.45-.86 15.6 15.6 0 011.21-1.35 15.67 15.67 0 001.22-1.38 11.1 11.1 0 00.09-1.57c0-.27.15-.46.55-.58a3.7 3.7 0 011.45 1.26 1.27 1.27 0 01.17 1.34 1.59 1.59 0 00-.38 1.67c.22.53.63.54 1.23 0q.91-1.26.24-1.86a1.43 1.43 0 01-.46-1.5c0-.33.31-.75.92-1.26l.8-.57a5.72 5.72 0 012.23-2.82l1.09-.17c.67-.31 1-.69 1-1.11s.27-.9.88-1.41c.78.08 1 .38.77.9-.42.78-.44 1.31-.09 1.58a1.2 1.2 0 001.13.22c.72-.11 1.12.09 1.17.62s-.25.95-.91 1.26a2.17 2.17 0 00-1.12 1.16l-.41.78c-.41.78-.72 1.2-.92 1.27s-.76.17-1.68.35c-1.13.57-1.71 1.26-1.73 2.09a1.21 1.21 0 01-1.31 1.3 1 1 0 00-1.39.26 2.45 2.45 0 01-.52 1.23c-.34.48-.05 1 .86 1.45a1 1 0 01-.41.78c-.27.19-.24.45.08.79a1.33 1.33 0 00.81-1.07 2.27 2.27 0 011.63-.26 1.62 1.62 0 001.34-.17 3.86 3.86 0 00.53-1.71 1.22 1.22 0 01.42-1 5.71 5.71 0 001.69-2.25 1.43 1.43 0 011.21-1.1 2.11 2.11 0 011.38 0c.86-.05 1.1-.26.71-.63s-.28-.81.32-1.33a8.33 8.33 0 013.41-2.19 4.79 4.79 0 011.2-.86 7.76 7.76 0 001.71-1.34c.54-.39 1-.76 1.46-1.11a2 2 0 00.58-1.81c.08-.79.44-1.22 1.06-1.31a13.57 13.57 0 002.14-.49c.66-.31 1-.72 1-1.21a2.15 2.15 0 01.63-1.42 5.42 5.42 0 001.06-1.06 4.88 4.88 0 011.07-1.14 18 18 0 013.36-2.35 4.17 4.17 0 002.08-2.76 10.45 10.45 0 011-1.12 11.5 11.5 0 011.67-1.49 4.88 4.88 0 011.45-.86c.16 0 .24.17.23.5s.23.29.31-.34a1.62 1.62 0 01.81-1.31 8.25 8.25 0 001.4-.76 6.58 6.58 0 001.12-1.16 3.15 3.15 0 002.29-1.28 8.48 8.48 0 012.68-2.07 8 8 0 003.29-1.5c.87-.71 1.77-1.48 2.71-2.31a26.19 26.19 0 013-2.3 16 16 0 002.77-2.41 6.57 6.57 0 011.06-1.06 18.77 18.77 0 011.72-1.42 7.49 7.49 0 011.41-1 7.48 7.48 0 001.4-1l.35-.48a6.84 6.84 0 011.11.86.65.65 0 00.41 0h.4a.67.67 0 01.41.3 7.77 7.77 0 00.76.51 6.56 6.56 0 01.76.5l1.61 1.56a4.38 4.38 0 001.62 1 1.24 1.24 0 00.82.1l.3.11c.82.27 1.29.54 1.42.81a3.43 3.43 0 01.21.91c.07.47.27.2.61-.81.67-.35 1.08-.2 1.22.41a1.12 1.12 0 001.22.92 4.81 4.81 0 001.18.57 1.46 1.46 0 011 1.17 2.44 2.44 0 01.06 1.64 1.2 1.2 0 00.06 1.13 6.24 6.24 0 002.75 1.43 1.83 1.83 0 00.81-.15 1.3 1.3 0 01.92 0c.27.21.21.76-.2 1.64a1.24 1.24 0 00.92 0 .77.77 0 01.61 0 1.36 1.36 0 01.82.62 1.32 1.32 0 00.81.61 5.44 5.44 0 011.43.31 1.58 1.58 0 011 1.54 2.88 2.88 0 00.06 1.13c.11.54.6.68 1.48.41 1.36 0 1.76.65 1.23 1.94q-1.22 1.64.72 2.46a4.78 4.78 0 011 1 4.51 4.51 0 001 1c1.08.13 1.45-.06 1.11-.56a13 13 0 01-.81-1.37q-.21-1.42.45-.87c.44.38.94.76 1.48 1.17a2.93 2.93 0 011.32 1.37 2 2 0 010 1.26 5 5 0 01-.81 1.43 1.48 1.48 0 001 .25.88.88 0 01.91.56l.71 1.42a3.4 3.4 0 001.53 1 1.51 1.51 0 001.21-.11 2.41 2.41 0 011.93.31c.14-.07.56.18 1.27.75a14.64 14.64 0 001.78 1.27 1.54 1.54 0 001.22-.1c.41-.21.64.1.71.91a2.94 2.94 0 00.66.81 9.91 9.91 0 011.07 1.12q.92.81 1.32 1.11a2.84 2.84 0 001.83.1.64.64 0 01.51 0 1.26 1.26 0 01.71.4c.27.21.41.39.4.56s.18.42.51.76a8.88 8.88 0 011.83.86 3.69 3.69 0 011 .76 2 2 0 01.56 1.37c0 .58.52.79 1.47.66.27-.14.73.1 1.37.7a20.85 20.85 0 011.58 1.63 5.31 5.31 0 001.67 1.06l1.38.45a1.3 1.3 0 011.11 1 1.84 1.84 0 001.22 1.16 4.23 4.23 0 012 2 5.12 5.12 0 002.94 2.07 6.32 6.32 0 013.15 2 6.77 6.77 0 003.05 2c.41.13.61.29.61.46a2.34 2.34 0 00.31.86 1.3 1.3 0 00.81.61.67.67 0 01.41.3c.88.07 1.38.4 1.52 1a2.57 2.57 0 001 1.52 14.49 14.49 0 011.52 1.53 5.37 5.37 0 001.63 1.21 2 2 0 000-1.78 1.45 1.45 0 00-1.43-1.06.54.54 0 01-.71-.15.68.68 0 01-.2-.66 2.05 2.05 0 00-.51-1.52c-1.49-.27-2.41-.74-2.74-1.42a3.33 3.33 0 00-.77-1.52 2.58 2.58 0 00-.86-.71c-.88-.41-1.35-.84-1.42-1.32a2.75 2.75 0 00-1-1.52c-.61-.54-1.16-1-1.63-1.47s-.37-.82.3-1.16c.55-.6.64-1.09.28-1.48a2.12 2.12 0 00-1.35-.66c0-1.43-.29-2.28-.76-2.53-.81.07-1 .3-.54.7s.4.87-.16 1.46c.06.12-.14.22-.61.3a2.75 2.75 0 01-1.75-.47c-1-1.32-.59-2 1.23-2.09.41.14.86 0 1.37-.56a2.07 2.07 0 011.26-.76 13.52 13.52 0 001.65 1.1 2.9 2.9 0 01.94.65 5.44 5.44 0 01-1 1.5c-.24.19 0 .43.6.71a9.42 9.42 0 012.36 1.77.85.85 0 00.7-.08l.58-.29a4.57 4.57 0 01.94.88l.2.4a4.31 4.31 0 01-.44 3.27q-.87 1.45.42 2.07c1.52.09 2.46-.3 2.85-1.17a1.55 1.55 0 00-.28-1.77 3.35 3.35 0 01-1-1.67 7.07 7.07 0 01-.31-1.12c-.14-.6.19-.6 1 0 .47.27.69.37.65.31s.05-.24.25-.51c.07-.54.2-.86.4-1a1.25 1.25 0 00.51-.77c-.07-.81-.42-1-1.07-.6s-1.1.34-1.37-.2a2.11 2.11 0 00-.2-.92c-.14-.27-.39-.31-.76-.12a2 2 0 01-1.48-.28c-.88-.41-1.33-.81-1.37-1.21s-.42-.85-1.17-1.32a4 4 0 01-1.17-1.32 2.92 2.92 0 00-1.37-1.22c-1.28-.2-1.73-.91-1.32-2.12.47-.75.39-1.09-.26-1s-1.13.1-1.47.11c-.47-.28-1-.63-1.68-1.07l-1.37-1a2.51 2.51 0 01-.71-.91 5.73 5.73 0 01-.71-1.93 2.05 2.05 0 00.71-.61 1 1 0 01.81-.41c.88.07 1.35.17 1.42.31a1.83 1.83 0 011.62 1 15.43 15.43 0 001.23 1.67c.06.14.37.32.91.56a2.92 2.92 0 001.52.25c.88-.28 1.24-.16 1.07.35s.25.93 1.27 1.27a3.52 3.52 0 00.26 1.52 11.41 11.41 0 01.56 1.62 2.57 2.57 0 001.17 1.07 10.44 10.44 0 001.16.55 6.88 6.88 0 012.85 2.64c.27.2.59.42 1 .66s.83 0 1.37-.57c1.15-.41 1.62-.81 1.41-1.22a1.31 1.31 0 00-1.32-.6c-.67-.34-1-.73-1-1.17a13.1 13.1 0 00-.06-1.88 2.3 2.3 0 01-1.52-.75A3.86 3.86 0 00170 144l-.61-.2.1-.81a1.54 1.54 0 011.52.25 8.49 8.49 0 001.52.76c.75.47 1 1 .82 1.62a3.41 3.41 0 00.86.46 2.61 2.61 0 011 .65 2.17 2.17 0 001.32 1.12c.61.2 1.56.57 2.84 1.11s2.19.64 2.49-.11a1.65 1.65 0 00-.19-1.85zm1.62-2.59c.21.23.07.22-.4-.05.11-.19.2-.17.4.07zM26.27 17.05c-.2.61-.64.58-1.32-.1a.73.73 0 01.41-.71c.81-.07 1.11.2.91.81zm1.13 119.21c-.58-.31-.81-.27-.69.13 0 1.31-.33 1.73-.91 1.26s-.88-.87-.87-1.2a17.75 17.75 0 012.28-2.67c.84-.8 1.67-1.65 2.48-2.55a4.23 4.23 0 011.7-.86 1.12 1.12 0 01-.32 1.08 1 1 0 00-.42.78v1.24a2.17 2.17 0 01-.95 1.53 1.76 1.76 0 00-.21.63v.74a2.64 2.64 0 01-2.09-.11zm4.13 5.17a.61.61 0 01-.4.29 6.81 6.81 0 01-1.55 1.05c-.43.19-.45 0 0-.4.14-.58.26-.9.36-.92s.26-.25.46-.64c.61-.51 1.09-.71 1.45-.6s.22.51-.32 1.22zm2.61-19.33a2.41 2.41 0 01-.32.83c-.47.58-.88.49-1.22-.28s-.22-1.24.37-1.42a.94.94 0 01.69.11.9.9 0 00.69.12 1.43 1.43 0 00-.21.64zm1.1-.92c-.52-.27-.74-.47-.67-.6a14.55 14.55 0 011.21-1.36 3.54 3.54 0 00.83-1.56q.81-1.06 1.59-.66a1.49 1.49 0 01.13-1.18c.15-.91.45-1.25.91-1s.57.72.36 1.44c-.55 1-1.08 2-1.59 2.77s-.8 1.29-.87 1.42l-.41.28c-.47.58-.97.73-1.49.45zm.51 3.77a2.54 2.54 0 001.06-1.07 1.63 1.63 0 011-.86c.46.07.7.41.72 1a2.34 2.34 0 00.31 1.29c-.33.32-.58.4-.74.23a1 1 0 00-.74-.26c-.59.18-.51.64.27 1.38.65.35 1 .57 1 .67a9.1 9.1 0 01.13.94q-.83 1.56-1.26 1a2.65 2.65 0 01-.41-1.59 7.1 7.1 0 00-1.09-1.7c-.44-.51-.52-.84-.25-.98zm.47 16.59a1.66 1.66 0 01-.51-1.4l.59-.18q.3-.09.87 1.2c-.17.72-.54.84-.95.38zm.61-7.29c0-.33.37-.64 1.1-.91s1 0 1 .76l-.31.58c-1.05 1.32-1.62 1.15-1.79-.43zm3 5.94a4.59 4.59 0 01-1.11-1c-.52-.6-.39-1 .37-1.17a1.16 1.16 0 011.51.92 3.78 3.78 0 00.77.91 1 1 0 01-1.57.34zm3.24-43c.3-.42.39-.51.25-.25-.51.63-.59.71-.32.29zm-.48 32.06c.48-.74.78-1.08.91-1l.29.4-1.51 1.44c-.28.23-.19-.09.28-.8zm2.24 5.93l-.72 1.36a4.26 4.26 0 00-.76.72c-.24.3-.38.18-.44-.35a3.41 3.41 0 00.18-1 2 2 0 010-.64 1.3 1.3 0 01.68-1.52 1 1 0 011.42.38c.06.08-.05.44-.39 1.09zm1.93-41.91c-1.22 1.35-1.54 1.18-1-.51.34-.33.82-.78 1.46-1.35s1.18-.67 1.64-.26a1.92 1.92 0 00.52.9 1.41 1.41 0 01.43.6l.09.3c-.21.72-.64.82-1.29.31a1.34 1.34 0 00-1.88.05zm1.93 34.84a2 2 0 01-.32-1.05c.4-.45.8-.41 1.18.13a2.91 2.91 0 01.38.7c-.64.55-1.05.62-1.27.26zm4.87-10.41c-.3-.07-.14-.36.47-.87.26-.19.46-.26.59-.19l.2.11c-.58.75-.99 1.07-1.29.99zm12.62 3.05c-.46-.4-.25-.79.62-1.17a1.53 1.53 0 01.77.91c-.51.62-.97.71-1.42.3zm6.23-5.19c-.6.51-.93.34-1-.51.27-.52.55-.67.85-.43a.69.69 0 01.12.98zm33.32 1c-.54.27-.94 0-1.22-.91-.2-.41.11-.47.92-.2.71.55.82.87.27 1.14zm2.12-12c-.21.27-.61.14-1.22-.4a.64.64 0 010-.51c.27-.47.61-.64 1-.51.37.73.37 1.2.19 1.47zm17.26 6.82c-.4.38-.91.29-1.52-.25v-.5c0-1.36.4-1.56 1.21-.61.59.59.69 1.04.28 1.41zm.65 23.3l-.21-.41c.82-.07 1.21.12 1.17.56s-.38.44-.99-.1zm1.71-7.21c-.27.47-.67.17-1.22-.91a.92.92 0 01.31-1.17c.4-.37.78 0 1.11 1 .11.28.04.61-.23 1.13zm1.05-13.1c-.24.21-.46.1-.66-.3a.73.73 0 01.91-.2c.04.18-.04.35-.28.55zm2.08 1.37c-.27.3-.71.19-1.32-.35a.74.74 0 01.1-.82.75.75 0 01.91-.2c.45.63.55 1.12.28 1.42zm2.13 15.26c-.21-.74-.09-1.27.35-1.57a1.16 1.16 0 011.47.15c.21.74.09 1.26-.35 1.57a1.16 1.16 0 01-1.47-.15zm2.59 3.14c-.64.07-1-.3-1.07-1.11.14-.41.51-.59 1.12-.56a1.46 1.46 0 011.32.86 1.68 1.68 0 01-1.37.77zm1.86-11.72q-.62.56-1.32-.36a3.55 3.55 0 01-.21-.91c-.06-.47.34-.51 1.22-.1.61.5.72.95.31 1.33zm6.93-9.2c.24.13.19.2-.15.2-.13-.31-.08-.42.15-.24zm.24 17.66c.51.34 1 .2 1.57-.41l.3-.91c.34-.34.71-.11 1.12.71.07.13 0 .3-.25.5a2.06 2.06 0 00-.56.92c-.4.88-.83 1-1.27.51a13.9 13.9 0 00-1.57-1.62q-.1-.25.66.26zm8.3 17c-.81.06-1.24-.11-1.27-.51a2.47 2.47 0 00-1-1.42 5.06 5.06 0 00-1.68-1.06 1.75 1.75 0 01-1.06-.86c0-.34-.24-.64-.71-.91a2.77 2.77 0 01-1.12-1.22 2.06 2.06 0 00-1.83-.61c-.61.14-1.12-.2-1.53-1a1.27 1.27 0 01.71-1.62c.82-.07 1.34.13 1.58.6a1.71 1.71 0 001 .92 3.59 3.59 0 011.07.86 3.38 3.38 0 011 1.67 1.41 1.41 0 001.37 1h1.37c.54.74 1 1 1.47.91s.73.27.87 1.22a2.16 2.16 0 00.45 1.16c.27.34.05.66-.69.87zM153.9 137a1.42 1.42 0 01-.76.77l-.76-.26c-.31-.1-.49-.21-.56-.35a3.23 3.23 0 00-1.32-.86 5.35 5.35 0 01-1.43-.56 1.59 1.59 0 00-.1-.71.71.71 0 010-.5c1.22-.62 1.79-.48 1.73.4s.42 1.27 1.07 1.37a5.64 5.64 0 001.67.05c.41.09.56.31.46.65zm6.57 16.89c.34 0 .42.08.26.26a1.8 1.8 0 01-.46.35.4.4 0 01.2-.65zm-5.39-5.42c.68.17 1.09.39 1.22.66 0 .67-.3.91-.91.71l-1.22-.4c-.07-.86.24-1.18.91-1.01zm3.73-17.87c-.06.71-.37.87-.91.46a1.49 1.49 0 01.4-1.73c.41.1.58.52.51 1.23zm8.64 9.88a.7.7 0 00-.3.41l.2-.61c.2.03.24.1.1.16zm1.37-4.11q-.36 1.06-1.47.36c.06-.2.13-.49.2-.86s.41-.63 1-.77c.45.1.51.52.27 1.23zm2.35 11.26c.1.37-.08.43-.56.16l-.1-.21c.34-.38.56-.36.66.01zM173 131.3c.41-.88.66-1 .76-.25s0 1-.45.86-.31-.41-.31-.61zm2.4 9.08c-.37.44-.76.26-1.17-.56a.94.94 0 00-.86-.45 2 2 0 01-1.27-.76c-.07-.14 0-.39.25-.76s.66-.46 1.27-.26a2.37 2.37 0 001.57.35c.38-.1.66.22.87 1a2.81 2.81 0 01-.64 1.44zm1.25-10.66c-.26.31-.74.29-1.42-.05l.1-.3a.94.94 0 00-.41-.81 1.91 1.91 0 01-.5-.51c-.07-.81.18-1.15.76-1a2.11 2.11 0 011.37 1.22c.36.66.45 1.15.12 1.45zm20.05 19.15c.2-.1 0-.19-.51-.25.14.27.31.38.51.25z" fill="currentColor"/><path d="M166.26 156.53q-.91 0-.81 1.17c.21.41.58.47 1.12.2.43-.9.3-1.34-.31-1.37zm10.26 2.47a1.34 1.34 0 00-.82-1.11c-.4-.14-.64.07-.71.61a5.1 5.1 0 00.11 1.72 1.55 1.55 0 010 1.53 1.37 1.37 0 00-1.62.81q.11.7.15 1.32a3.15 3.15 0 01-.65 1.73c-.07.2 0 .2.26 0s1.11-.77 2.59-1.68a2.79 2.79 0 001.28-1.91 3.07 3.07 0 00-.08-1.49 6 6 0 01-.51-1.53zm-2.64-1.72c.13-.74-.09-1.1-.67-1.06a1 1 0 00-1.06.66 1.72 1.72 0 00.86.71c.44.2.73.1.87-.31zm-4.65-45.66c-.4-.82-.87-.92-1.42-.31a1.74 1.74 0 001.27 1.27q1.08.36.15-.96zm12.99 59.25c-.07.2 0 .37.26.51s.45.06.65-.21a1 1 0 00-.4-.81c-.27-.21-.44-.03-.51.51zm.28-12.59c-.06-.13-.26-.2-.6-.2l.1.2c.41.14.57.14.5 0zm1.05 20.81c.07.81.38 1.08.92.81q1.11-.32.3-1.17c-.54-.58-.95-.46-1.22.36zm4.54-16.76c-.4-.13-.61-.29-.61-.45s-.2-.33-.61-.46q-1.22.11-.6 1.32a5.88 5.88 0 00.71.92 8.52 8.52 0 011.42 1.34 1.08 1.08 0 001.42.3c-.06-.13-.27-.54-.61-1.21a8.2 8.2 0 00-1.12-1.76zm4.47-1.73a5.5 5.5 0 01-2-2.53 5.41 5.41 0 00-.31-1.88c-.2-.58-.6-.63-1.21-.15-.47.74-.88.86-1.22.36a1.85 1.85 0 01-.21-1.68c.48-.74.53-1.15.15-1.22s-.59 0-.66.21c-.27.47-.64.4-1.11-.2a2.69 2.69 0 01-.71-1.42 1.69 1.69 0 00-.77-1.52 2.08 2.08 0 00-1.47-.41 1.8 1.8 0 00-1.12.56c-.27.3-.23.8.11 1.47a2.92 2.92 0 011.37 1.22 4 4 0 001.17 1.32 2.6 2.6 0 00.71.91 5.37 5.37 0 001.22.91 9.93 9.93 0 011.57.61 3 3 0 01.87 1.21 2.34 2.34 0 001 1.52 2.36 2.36 0 011 1.53 1.68 1.68 0 01.46.4 2.35 2.35 0 00.46.41 2.2 2.2 0 001.22-.36c.59-.31.43-.73-.52-1.27zm-23.46-38.38a1.73 1.73 0 00.56-.15c.54-.61.52-1-.06-1.12s-.79.27-.65 1.22c-.14.07-.09.09.15.05zm21.5 54.22c-.23-.14-.42 0-.55.4a.65.65 0 01.4.31.21.21 0 00.31.1c.13-.41.08-.68-.16-.81zM187.36 148q-.2.87-.3 1.68l.1.2a1.32 1.32 0 001.12.71c.54.06.84-.34.91-1.22l-.71-1.42c-.61-.57-.99-.55-1.12.05zm-29.21-46.31a.89.89 0 00-1.42.2 4 4 0 001.93 1.32c1.09.47 1.39.4.92-.21a8.6 8.6 0 00-1.43-1.31zm6 6.89a5.68 5.68 0 001.43.81c.27-.47.13-.91-.41-1.32-.34 0-.75-.3-1.22-.91s-.78-.88-.92-.81c-.94-.54-1.93-.3-2.94.71l.31.61a.63.63 0 01.4.31 9 9 0 012.95 2.83 4.33 4.33 0 003.05 2c.41.13.32-.12-.26-.76a11.34 11.34 0 00-1.67-1.57 2.8 2.8 0 01-.76-.51 2.35 2.35 0 00-.46-.41c-.2-1.05-.04-1.38.5-.98zM153 98.8c0 .11-.11.36-.25.76s.11.29.71-.35.54-1-.2-1.17c-.12.41-.2.66-.26.76zm38.33 53.78c.27.54.47.61.61.21s.1-.65-.11-.71-.37.09-.5.5zm-41.41-55.65c-.6.14-.87.61-.81 1.42a1 1 0 01.11.46c0 .17.2.32.61.45.95.21 1.44 0 1.47-.61a5.38 5.38 0 01.15-1.22 1.47 1.47 0 00-1.53-.5zm-4.07-6.59c-.06.2.18.51.72.91s.74.48.6.2q-1.11-1.21-1.32-1.11zm2.24 2.18c.27 0 .14-.15-.41-.56.01.34.14.53.41.56z" fill="currentColor"/></svg>