<svg xmlns="http://www.w3.org/2000/svg" viewBox="0 0 113.1 69.09"><path d="M93.65.92C95 .67 96.07.41 97.18.27a17.13 17.13 0 013.12-.16c.21 0 .56.72.54 1.07s-.44 1-.69 1c-1.84 0-3.68-.14-5.53-.23a3.4 3.4 0 01-1-.05c-.13 0-.24-.41-.23-.62s.25-.34.26-.36zm-5.08.65c-.23.72-.78.68-1.25.73a18.34 18.34 0 01-3-.1A13.38 13.38 0 0082.2 2c-.51.05-.77-.18-.93-.81a.32.32 0 01.13-.31c1.6-.3 3.16-.26 4.8-.55.32-.06.64-.17 1-.26.61-.17 1.36.48 1.37 1.5zM107 .68c1-.16 2.55-.27 3.22-.39a11 11 0 012-.29c.33 0 .68.36.94.65.07.09-.14.49-.23.75-.36 1.09-1.19.71-1.89.72s-2.75-.32-3.5-.27-1-.16-.67-1c-.03-.18.2-.23.13-.17zm-50.15.39c1.32-.25 2.42-.51 3.53-.65A17.13 17.13 0 0163.5.26c.21 0 .56.72.54 1.07s-.44 1-.69 1c-1.84 0-3.68-.14-5.53-.23a3.4 3.4 0 01-1-.05c-.13 0-.24-.41-.23-.62s.25-.34.26-.36zm-5.08.65c-.23.72-.78.68-1.25.73a20.78 20.78 0 01-3.05-.1 13.38 13.38 0 00-2.07-.23c-.51 0-.77-.18-.93-.81A.31.31 0 0144.6 1c1.63-.3 3.16-.26 4.8-.55.32-.06.64-.17 1-.26.6-.14 1.36.5 1.37 1.53zm18.4-.89c1-.16 2.55-.28 3.22-.39a10.2 10.2 0 012-.29c.33 0 .68.36.94.65.07.09-.14.49-.23.75-.36 1.09-1.19.7-1.89.72S71.42 2 70.67 2s-1-.16-.67-1.06c0-.12.27-.17.17-.11zm-50.12.38c1.32-.21 2.41-.5 3.53-.65A18.07 18.07 0 0126.7.41c.21 0 .56.71.54 1.07s-.44 1-.69 1c-1.84 0-3.68-.13-5.53-.22a3.82 3.82 0 01-1-.06c-.13 0-.24-.4-.23-.61s.21-.35.26-.38zM15 1.87c-.17.72-.67.68-1.1.72a17 17 0 01-2.83-.09A12.49 12.49 0 009 2.27c-.45 0-.83-.18-1.38-.81-.07-.07-.09-.26 0-.27C9.11.88 10.73.91 12.38.62a8.8 8.8 0 001-.25A1.5 1.5 0 0115 1.87zM33.37 1c1-.16 2.55-.28 3.22-.39a10.2 10.2 0 012-.29c.33 0 .68.36.94.65.07.09-.14.49-.23.75-.36 1.08-1.19.7-1.89.72s-2.75-.32-3.5-.27-1-.16-.67-1.06c0-.11.23-.19.13-.11zM3.11 20.28C2.6 19 2.17 18.06 1.76 16.9a20 20 0 01-.87-3.27c0-.22.63-.49 1-.41a2.28 2.28 0 011.2.78c.35 1.69.57 3.27.85 5.17a3.51 3.51 0 01.13.95c0 .14-.35.32-.56.35s-.37-.18-.4-.19zm1.58 4.88c.75.1.81.65.93 1.11a20.62 20.62 0 01.41 3 14.39 14.39 0 00.08 2.09c.13.5-.06.79-.66 1-.07 0-.28 0-.3-.09-.54-1.57-.73-3.08-1.29-4.64a9.34 9.34 0 00-.41-.91c-.27-.53.23-1.37 1.24-1.56zM.18 7A8.8 8.8 0 010 5.16a8.22 8.22 0 01.2-1.61 3.11 3.11 0 01.94-1.85 1.79 1.79 0 011.29-.07c.13 0 .2.39.42.71.78 1.2-.22 1.27-.53 1.88a6.22 6.22 0 00-.7 1.4 3.9 3.9 0 00-.21 1.55c.05.43 0 .64-.14.64a2.13 2.13 0 01-1-.58C.18 7.13.11 6.88.18 7zM7.8 56.72c-.33-1.3-.64-2.38-.86-3.47a18.13 18.13 0 01-.39-3.1c0-.21.68-.61 1-.62s1 .36 1.05.61c.13 1.84.14 3.7.15 5.55a3.42 3.42 0 010 1c0 .13-.39.27-.6.27s-.33-.23-.35-.24zm.88 5.04c.73.21.71.77.76 1.24a18.4 18.4 0 010 3.06 12.43 12.43 0 00-.21 2.08c.06.51-.17.77-.8.94-.08 0-.28-.07-.29-.13-.31-1.63-.28-3.15-.63-4.78a8.53 8.53 0 00-.28-1c-.23-.59.43-1.36 1.45-1.41zM6.51 43.48c-.25-.93-.54-2.5-.74-3.15a11.09 11.09 0 01-.53-1.91 1.61 1.61 0 01.54-1c.07-.09.5.07.77.12 1.12.23.84 1.1.94 1.8s0 2.78.13 3.52-.06 1-1 .78c-.11-.04-.18-.25-.11-.16z" fill="currentColor"/></svg>