<svg xmlns="http://www.w3.org/2000/svg" viewBox="0 0 111.79 56.97"><path d="M24.3 1c-.6.32-1.2.65-1.77 1-.26.18-.44.53-.72.63a3 3 0 01-1 .35c-.61-.07-1-.57-1.65-.63-.08 0-.41-.23-.68-.31a2 2 0 01-.33-.26c-.1-.1-.12-.28-.21-.38s-.49-.63-.65-.59c-.48.11-1.2.3-1.33.66-.46 1.16-1.82.64-2.35 1.53 0 0-.2.25-.26.23-.24-.08-.3.31-.54.22 0 0-.27-.06-.28 0-.34 0-.53-.68-.87-.76s-.45-.48-.55-.56c-.77-.66-.71-1-1.45-1.13a2.38 2.38 0 00-1.42.24 3.55 3.55 0 01-1 .53 18.16 18.16 0 00-1.86.7 1 1 0 01-.45.07c-.35-.16-.42-.33-.79-.42a7.08 7.08 0 01-.78-.25 1.39 1.39 0 01-.57-.28 2 2 0 00-.55-.43c-.23-.05-.33-.16-.52-.27a2.56 2.56 0 00-.62 0C.7.89.56.82.3 1.15a1 1 0 00-.26 1l.38.57a2 2 0 00.74.28c.74.22 1.16 1.09 2 1.09.12 0 .23.19.35.2.39 0 .52.27.91.3h.4c.28.12.71.35 1.07-.07a2.44 2.44 0 01.94-.63 9.64 9.64 0 011.78-.54c.25-.05.61-.11.78 0 .36.27.59.72.95 1a4.39 4.39 0 001.33.78c.88.07 1.09.46 2.27-.32.25-.17.63-.07.91-.2a2.81 2.81 0 00.82-.59c.37-.37.76-.25 1.18-.21.2 0 .43-.18.61-.13a7.43 7.43 0 011.55.81l.08.09.06.07c.57 0 1.12.45 1.73.55A3.42 3.42 0 0023.32 4a2 2 0 01.57-.53c.19.17.36.36.55.53V1.07C24.37 1 24.33 1 24.3 1z" fill="currentColor"/><path d="M62.42.79c-.59.33-1.19.66-1.76 1-.27.17-.45.53-.73.63a3.36 3.36 0 01-1 .35c-.6-.07-1-.57-1.64-.64-.09 0-.42-.22-.68-.31a1.56 1.56 0 01-.34-.25c-.09-.1-.11-.28-.21-.38s-.48-.63-.65-.59c-.48.11-1.19.3-1.33.66-.45 1.16-1.82.64-2.35 1.53 0 0-.2.25-.25.23-.24-.08-.31.31-.54.22 0 0-.27-.06-.28 0-.35 0-.54-.67-.87-.75s-.46-.48-.55-.56c-.78-.66-.71-1-1.45-1.13a2.32 2.32 0 00-1.44.2 3.49 3.49 0 01-1 .53 19.26 19.26 0 00-1.87.7c-.07 0-.19 0-.29-.09a6.19 6.19 0 00-1-.48c-.23-.05-.46.05-.68 0-.41-.14-.65-.61-1-.74-.05 0-.19.07-.2.06a2.19 2.19 0 00-1.86-.72c-.54.18-.6.49-1.18.57-.06 0-.1.12-.16.15-.81.38-1.24 1-2.09 1.23-.5.11-1.1-.37-1.67-.51-.32-.08-.68.07-1 0s-.77-.38-1.17-.43a2.92 2.92 0 00-2.07.62c-.46.43-.71 1-1.32 1.28-1 .39-1.43-.41-2-.82a8.24 8.24 0 01-1.2-1.23.41.41 0 00-.17-.12v2.93c.25.24.51.48.75.73a2.94 2.94 0 001.11.73 6.18 6.18 0 001.73.01 2.67 2.67 0 001.52-.92c.42-.74 1.08-.68 1.64-.92.89-.39 1.6.42 2.43.56.67.1 1.25.85 2 .27.38-.28.78-.56 1.17-.83a9.22 9.22 0 001.35-.93c.49-.5.78 0 1.13.14.75.22 1.17 1.09 2 1.09.12 0 .23.18.35.2.39.05.52.26.91.29.14 0 .36 0 .4.06.29.12.71.35 1.08-.07a2.44 2.44 0 011.02-.63 9.81 9.81 0 011.73-.59c.26-.05.61-.11.79 0 .36.27.59.72 1 1a4.34 4.34 0 001.32.78c.89.07 1.1.46 2.27-.32.26-.17.63-.07.91-.2a3 3 0 00.83-.59c.36-.37.76-.25 1.18-.21.19 0 .43-.18.6-.13a8 8 0 011.52.75s0 .06.07.08v.07c.57 0 1.12.44 1.73.54a3.37 3.37 0 002.46-1.23 2.13 2.13 0 01.59-.45 6.88 6.88 0 01.55.53V.81a.18.18 0 00-.14-.02z" fill="currentColor"/><path d="M101.54.6a24.56 24.56 0 00-2.4 1c-.35.17-.67.53-1 .63a4.42 4.42 0 01-1.13.32c-.57-.06-.9-.56-1.53-.63-.09 0-.4-.22-.68-.31a3.59 3.59 0 01-.33-.25c-.1-.1-.11-.28-.2-.38s-.52-.63-.71-.59c-.57.11-1.22.3-1.38.66-.45 1.15-1.81.64-2.34 1.53 0 0-.21.25-.26.23-.24-.09-.3.31-.54.22 0 0-.27-.06-.28 0-.34 0-.53-.67-.87-.75s-.45-.48-.55-.56c-.77-.67-.71-1-1.45-1.14a2.37 2.37 0 00-1.41.22 3.55 3.55 0 01-1 .53c-.64.16-1.24.47-1.86.69-.08 0-.2 0-.29-.08a5.94 5.94 0 00-1.06-.48c-.22-.05-.46.05-.67 0-.42-.15-.65-.61-1-.75-.06 0-.2.08-.2.07A2.22 2.22 0 0076.57 0c-.56.21-.56.52-1.18.6 0 0-.09.12-.16.15-.8.38-1.22 1.05-2.09 1.25-.49.11-1.09-.37-1.67-.51-.31-.08-.68.07-1 0s-.76-.4-1.16-.49a2.94 2.94 0 00-2.08.62c-.46.43-.71 1-1.32 1.28-1 .39-1.43-.41-2-.82A8.23 8.23 0 0162.68.89a.47.47 0 00-.14-.08v2.93c.25.24.52.47.76.73a3.07 3.07 0 001.11.73 6.12 6.12 0 001.71 0 2.72 2.72 0 001.53-.92c.41-.74 1.08-.69 1.63-.93.9-.38 1.61.43 2.43.56s1.26.86 2 .28c.39-.29.78-.56 1.18-.83a8.56 8.56 0 001.35-.94c.49-.49.77 0 1.13.15.74.22 1.16 1.09 2 1.09.11 0 .23.18.35.2.39 0 .52.26.91.29.14 0 .36 0 .4.06.28.11.71.35 1.07-.07a2.44 2.44 0 01.94-.63 9.64 9.64 0 011.74-.59c.25-.05.61-.11.78 0 .36.28.59.73 1 1a4.06 4.06 0 001.33.77c.88.08 1.09.47 2.27-.32.25-.17.63-.06.91-.19a2.81 2.81 0 00.82-.59c.37-.37.76-.25 1.18-.22.2 0 .41-.18.58-.13a4.92 4.92 0 011.36.76v.08a.25.25 0 010 .07c.51 0 .88.45 1.36.55a4.78 4.78 0 002.6-1.23 3.7 3.7 0 01.79-.53 4 4 0 01.23.53l1.68-2.85a.21.21 0 00-.13-.02zm4.78 32.4c-.28-.61-.57-1.22-.87-1.82-.14-.28-.47-.5-.54-.78a3.14 3.14 0 01-.23-1.05c.12-.59.67-1 .83-1.54 0-.09.28-.38.41-.63a1.66 1.66 0 01.3-.29c.11-.08.28-.07.4-.15s.69-.38.68-.54c-.06-.49-.1-1.2-.44-1.4-1.06-.63-.33-1.88-1.09-2.57 0 0-.2-.24-.17-.29.13-.22-.24-.36-.1-.58 0 0 .11-.25.08-.27.11-.33.77-.38.92-.69s.55-.34.65-.41c.83-.63 1.2-.52 1.49-1.3a2.71 2.71 0 00.13-1.55 3 3 0 01-.26-1.09 12.33 12.33 0 00-.19-1.88c0-.07.1-.2.17-.3a9 9 0 00.83-1.15c.12-.25.08-.46.23-.71.27-.45.83-.84 1.09-1.3v-.19a3.74 3.74 0 001.16-2.17c-.1-.5-.39-.43-.41-1 0-.06-.1 0-.13-.1-.31-.68-.9-.8-1.17-1.57-.17-.44 0-1.3-.18-1.9-.12-.33-.47-.55-.67-.82s-.34-.76-.67-1a3 3 0 00-2.49-.22c-.77.26-1.42.7-2.24 1-1.24.36-1.09-.42-1.49-.8s-.34-.8-.56-1.22c0 0-.06-.06-.1-.08l-1.57 2.89a4.63 4.63 0 01.26.74c.06.24.3.74.46.73a5.06 5.06 0 001.4 0 7.76 7.76 0 002.08-.78 3.18 3.18 0 012.33-.46c1.19 0 .8 1.27 1 2s-.62 1.69.09 2a4.28 4.28 0 01.94.54c.3.25.53.59.81.81s-.22.78-.44 1.15c-.48.82-1.6 1.51-1.82 2.26 0 .11-.27.25-.33.36-.16.36-.43.51-.56.85 0 .12-.08.3-.17.35-.2.26-.54.63-.18.9a1.34 1.34 0 01.43.8 8.24 8.24 0 01.17 1.63 1.12 1.12 0 01-.21.74c-.36.31-.85.45-1.21.72-.12.09-.36.27-.58.47a2.12 2.12 0 00-.46.62c-.26.87-.68 1-.16 2.33.12.29-.05.65 0 1a2.82 2.82 0 00.43.93c.3.43.12.8 0 1.21-.05.19.11.46 0 .62a8.15 8.15 0 01-1 1.41s-.06 0-.1.06h-.08c-.1.58-.6 1.08-.76 1.69a3.36 3.36 0 001 2.61 1.78 1.78 0 01.48.62c-.18.17-.38.33-.57.5l2.92.22s.04-.11.03-.16z" fill="currentColor"/><path d="M105.13 55.53a.55.55 0 01.17.2 3.57 3.57 0 00.7 1 .89.89 0 00.33.18c.31.1.53-.17.8-.31s.41-.41.39-.84a2.14 2.14 0 00-.47-1.22 3.13 3.13 0 01-.66-.89c-.25-.6-.65-1.14-.94-1.73 0-.08 0-.2.05-.3a5.57 5.57 0 00.36-1.09c0-.23-.09-.45 0-.67.1-.42.53-.7.64-1.09 0-.05-.09-.18-.08-.19a2.19 2.19 0 00.59-1.79c-.23-.52-.54-.55-.65-1.11 0-.06-.12-.09-.15-.15-.42-.77-1.11-1.17-1.33-2-.12-.49.36-1.1.48-1.66.08-.32-.08-.68 0-1s.38-.75.43-1.14a2.8 2.8 0 00-.59-2.06c-.41-.47-1-.74-1.21-1.36-.34-1 .47-1.42.91-2a8.88 8.88 0 011.33-1.09.27.27 0 00.09-.12l-2.92-.22c-.26.24-.52.48-.79.71a3 3 0 00-.81 1.09 6.92 6.92 0 00-.06 1.76 2.6 2.6 0 00.87 1.58c.74.44.67 1.11.9 1.67.36.91-.42 1.62-.55 2.46-.09.68-.84 1.3-.22 2.06l.89 1.15a7.49 7.49 0 001 1.3c.54.45 0 .77 0 1.13-.16.76-1 1.26-.91 2.14 0 .12-.16.25-.17.37 0 .4-.2.56-.19 1 0 .14.06.35 0 .41-.08.29-.27.76.2 1.07a2.7 2.7 0 01.76.86 10.52 10.52 0 01.83 1.64z" fill="currentColor"/></svg>