<svg xmlns="http://www.w3.org/2000/svg" viewBox="0 0 115.07 67.12"><path d="M1.14 19.3C.92 18 .7 16.89.6 15.78a16.16 16.16 0 010-3.11c0-.21.74-.53 1.09-.49s1 .47 1 .72c-.08 1.82-.26 3.64-.41 5.47a3.66 3.66 0 01-.09.94c0 .13-.41.23-.62.22s-.41-.22-.43-.23zm.51 5.05c.72.25.67.8.7 1.26a20.45 20.45 0 01-.16 3 12 12 0 00-.27 2.05c0 .5-.19.76-.82.91-.08 0-.28-.08-.29-.14-.27-1.63-.2-3.14-.46-4.77 0-.33-.15-.64-.23-1-.12-.59.51-1.32 1.53-1.31zM1.38 6.08c-.11-1-.16-2.54-.24-3.21A10.16 10.16 0 011 .91c0-.32.39-.66.69-.9.09-.07.48.17.74.27 1.02.41.57 1.2.57 1.9s-.45 2.71-.43 3.45-.21 1-1.09.62c-.11-.05-.15-.25-.1-.17zM.91 55.87c-.26-1.26-.53-2.4-.68-3.55a17 17 0 01-.17-3.11c0-.2.72-.55 1.08-.53s1 .44 1 .68c0 .91 0 1.83-.07 2.74l-.13 2.61a3.12 3.12 0 01-.05.91c0 .13-.4.33-.61.38s-.35-.12-.37-.13zm.82 4.73c.74-.23.78.28.93.68a8.48 8.48 0 001.19 2.51A2.78 2.78 0 005.29 65c.48.1.55.38.3 1a.57.57 0 01-.29.22 5.07 5.07 0 01-4-2.57c-.19-.27-.39-.52-.56-.79-.37-.53 0-1.64.99-2.26zm-1.09-18c-.15-1-.26-2.53-.36-3.2a10.18 10.18 0 01-.28-2c0-.32.37-.67.66-.92.09-.07.49.15.75.24 1.08.37.69 1.18.7 1.88s-.34 2.72-.29 3.47-.17 1-1.06.66c-.13-.01-.18-.23-.12-.13zm29.19 22.99c-1.3.29-2.38.59-3.48.77a17.81 17.81 0 01-3.09.25c-.21 0-.58-.7-.57-1s.41-1 .65-1c1.83-.05 3.66 0 5.49 0a3.35 3.35 0 011 0c.13 0 .26.4.25.61s-.24.35-.25.37zm5.01-.81c.2-.73.76-.72 1.22-.77a19 19 0 013 0 12.19 12.19 0 002.07.16c.5-.06.76.16 1 .78a.38.38 0 01-.12.3c-1.62.34-3.13.36-4.74.7a9.53 9.53 0 00-1 .29c-.62.18-1.38-.44-1.43-1.46zm-18.21 1.48c-.47.09-1.09.18-1.7.27l-1.58.22a12.35 12.35 0 01-2.13.37c-.35 0-.64-.35-.8-.63-.05-.09.29-.5.44-.76.66-1.11 1.28-.75 1.94-.79s2.5.24 3.29.16 1 .13.7 1c-.04.17-.26.22-.16.16zm49.68-2.01c-1.29.29-2.38.59-3.47.77a18 18 0 01-3.1.25c-.2 0-.58-.69-.56-1s.4-1 .64-1c1.83-.05 3.66 0 5.5 0a3.35 3.35 0 011 0c.13 0 .25.4.25.61a.61.61 0 01-.26.37zm5.02-.81c.2-.73.75-.71 1.22-.77a19 19 0 013 0 12.07 12.07 0 002.06.16c.5-.06.77.16 1 .78a.38.38 0 01-.13.3c-1.61.35-3.13.36-4.74.7-.32.07-.63.19-1 .29-.6.18-1.37-.44-1.41-1.46zm-18.21 1.48c-.94.19-2.52.36-3.19.49a10.85 10.85 0 01-1.94.36c-.32 0-.68-.34-.94-.62-.08-.09.12-.5.2-.76.32-1.1 1.15-.74 1.85-.78s2.74.23 3.48.15 1 .13.7 1c-.04.17-.28.24-.16.16zm49.68-2.01c-1.3.29-2.38.59-3.48.77a18.86 18.86 0 01-3.09.26c-.21 0-.58-.7-.57-1.06s.41-1 .65-1h5.49a3.35 3.35 0 011 0c.13 0 .26.4.26.61a.73.73 0 01-.26.42zm5.01-.81c.21-.73.76-.71 1.22-.77a19.15 19.15 0 013 0 13.21 13.21 0 002.06.17c.5-.07.77.15.95.77a.38.38 0 01-.12.3c-1.61.35-3.13.36-4.74.7-.32.07-.64.19-.95.29-.61.18-1.37-.44-1.42-1.46zM89.6 63.58c-.94.19-2.52.36-3.18.49a11 11 0 01-1.94.36c-.32 0-.69-.34-1-.62-.08-.09.13-.5.2-.76.33-1.1 1.16-.74 1.86-.78s2.73.23 3.47.15 1 .13.7 1c.01.17-.21.23-.11.16z" fill="currentColor"/></svg>