<svg xmlns="http://www.w3.org/2000/svg" viewBox="0 0 63.42 77.2"><path d="M2.24 76.59c-2.25-.47-3.03-1.07-1.25-1.53a86.79 86.79 0 0113.32-1.4c7.24-.23 14.77-.06 22.25-.78 5.16-.49 10.32-1.22 15.46-2.1a25.91 25.91 0 003.66-.76 3.72 3.72 0 002.31-1.64 8.17 8.17 0 00.41-3.27l.11-3.92c.19-6.77.54-13.61.66-20.3.1-6.05.38-12.13.62-18.18.11-2.73.25-5.54.28-8.25s0-5.27.15-8c.47-7.2 2.57-8.32 3.08-3.88.39 3.4-.09 11.16-.26 15.55-.25 6.28-.56 12.53-.76 18.83-.23 7.55-.53 15.11-.83 22.67l-.23 5.67a14.93 14.93 0 01-.31 3.13 5.33 5.33 0 01-2.19 3.09c-2.06 1.33-4.16 1.47-6 1.79s-3.76.57-5.64.85c-6.4.93-12.73 1.81-19.09 2.28-6.08.5-12.17.71-18.27.75a39 39 0 01-7.48-.6z" fill="currentColor"/></svg>