<svg xmlns="http://www.w3.org/2000/svg" viewBox="0 0 111.98 57.18"><path d="M107.53 54.19c.11 2.86-.27 4-1.17 1.92a37.94 37.94 0 01-2-7.25 59.32 59.32 0 01-1-9.79c-.08-9.52 2-19.26 4.93-28.53A18.69 18.69 0 00109.36 6a2.77 2.77 0 00-1.58-2.94 10.86 10.86 0 00-4.43-.49l-5 .06-20.07.24c-8.64.08-17.39 0-25.93.16-7.73.14-15.5.1-23.24.11H18.57c-3.46 0-6.73.24-10.17.17C-.81 3.2-2.34 1.16 3.3.47 7.62-.06 17.54.1 23.16.1h24.06l29-.07h29.05a9.88 9.88 0 013.5.67 5.22 5.22 0 012.84 2.9 7.38 7.38 0 01.28 3.74 21.91 21.91 0 01-.8 3.17 93 93 0 00-2.8 11.67 95.15 95.15 0 00-1.29 22.7c.24 3.76.5 7.06.53 9.31z" fill="currentColor"/></svg>