<svg xmlns="http://www.w3.org/2000/svg" viewBox="0 0 120.32 67.45"><path d="M117.09 60.96c3.2.29 4.36.83 1.93 1.43a129.59 129.59 0 01-18.8 2.14c-10.29.46-21 .22-31.6.55-14.68.46-29.49 1.2-44.25 1.78L10 67.4a24.51 24.51 0 01-3.81 0 7.93 7.93 0 01-2.09-.56 5.85 5.85 0 01-1.89-1.35 7.6 7.6 0 01-1.76-3.93 23.69 23.69 0 01-.31-3.75C-.08 49.25 0 40.66.13 32.1c.08-3.86.15-7.84.23-11.67s0-7.47.23-11.25C1.22-.99 3.39-2.55 3.76 3.7c.28 4.78-.3 15.71-.43 21.9-.21 8.84-.33 17.66-.27 26.53v4c0 1.33 0 2.69.11 3.87a6.83 6.83 0 00.85 3.06 3.07 3.07 0 002.25 1.35 19 19 0 003.67.07l4-.13 8-.25 32-1c9-.32 18-.8 27-1.2l25.64-1a87 87 0 0110.51.06z" fill="currentColor"/></svg>