<svg xmlns="http://www.w3.org/2000/svg" viewBox="0 0 111.58 51.38"><path d="M21.84 1.74c-1.48.26-2.71.52-4 .67a22.86 22.86 0 01-3.51.16c-.23 0-.63-.72-.6-1.07s.49-1 .77-1c2.07 0 4.14.13 6.2.21a4.76 4.76 0 011.08.06c.15 0 .28.4.26.61s-.19.34-.2.36zm5.69-.66c.26-.72.89-.69 1.41-.73a24.45 24.45 0 013.42.08 16.86 16.86 0 002.33.23c.57-.05.86.17 1.05.8a.36.36 0 01-.15.29c-1.84.3-3.55.27-5.39.56-.36.06-.72.17-1.08.26a1.41 1.41 0 01-1.59-1.49zM6.89 2c-1.07.16-2.86.28-3.61.4a13 13 0 01-2.21.29 1.84 1.84 0 01-1-.65c-.08-.08.16-.49.26-.74C.68.23 1.61.61 2.4.59S5.48.9 6.32.85s1.11.16.76 1c-.08.15-.3.23-.19.15zm56.25-.51c-1.48.26-2.71.52-4 .66a21.67 21.67 0 01-3.51.17c-.23 0-.63-.72-.6-1.07s.5-1 .77-1c2.07 0 4.14.13 6.21.21a5.37 5.37 0 011.07 0c.15.05.28.41.27.62s-.2.39-.21.41zm5.7-.66c.25-.72.88-.69 1.41-.73a22.91 22.91 0 013.41.08A17 17 0 0076 .41c.57 0 .86.17 1.05.8 0 .08-.08.28-.15.29-1.84.3-3.55.27-5.39.56-.36.06-.72.17-1.08.26A1.4 1.4 0 0168.84.83zm-20.65.94c-1.07.16-2.86.28-3.61.39a12 12 0 01-2.21.3 1.84 1.84 0 01-1-.65c-.08-.09.16-.49.26-.75C42 0 42.91.36 43.7.34s3.09.31 3.93.26 1.1.16.75 1c-.05.18-.3.23-.19.17zm56.07-.52c-1.64.24-3 .51-4.18.66a20.83 20.83 0 01-3.31.16c-.21 0-.47-.72-.39-1.07s.68-1 1-1c2.23 0 4.41.12 6.48.27a4.44 4.44 0 011.07.08c.12.05 0 .37-.14.55a2.44 2.44 0 01-.53.35zm5.74 1.2c.74-.24 1.09.35 1.29.85a5.84 5.84 0 010 3.56c-.18.81-.64 1.69-.79 2.42a1.79 1.79 0 01-1.18 1.27c-.09 0-.28 0-.27-.05.19-1.6.83-3.19.43-4.75a2.5 2.5 0 00-.45-.81 1.27 1.27 0 010-1.14 3 3 0 01.38-.73c.09-.12.2-.26.3-.37a2.06 2.06 0 01.29-.25zm-20.51-.93c-1.06.16-2.86.28-3.61.39a12.89 12.89 0 01-2.21.3 1.79 1.79 0 01-1-.65c-.09-.09.15-.49.25-.75.37-1.08 1.29-.7 2.08-.72s3.09.31 3.93.25 1.07.16.75 1.06c-.05.13-.3.18-.19.12zm15.43 35.99c-.24-1.49-.42-2.74-.51-4a19 19 0 01.1-3.54c0-.24.78-.56 1.13-.5s.93.59.92.86c-.19 2-.44 4.07-.59 6.12a4.08 4.08 0 01-.07 1.06c-.05.15-.41.27-.62.26s-.34-.25-.36-.26zm.74 5.68c.73.22.73.84.79 1.36a25.19 25.19 0 01.17 3.37 16.29 16.29 0 000 2.32c.1.55-.08.87-.68 1.14a.33.33 0 01-.3-.12c-.53-1.79-.68-3.51-1.1-5.33-.09-.36-.23-.72-.34-1.08a1.41 1.41 0 011.46-1.66zm.43-20.62c0-1.09.26-2.88.31-3.65a10.33 10.33 0 01.19-2.14c.08-.33.53-.66.88-.9.11-.08.46.19.7.32 1 .53.37 1.46.19 2.26s-1 2.92-1 3.76-.35 1.05-1.17.55c-.14-.07-.14-.33-.1-.2z" fill="currentColor"/></svg>