<svg xmlns="http://www.w3.org/2000/svg" viewBox="0 0 113.58 74.12"><path d="M7.39 34.5a3.61 3.61 0 010-.66c0-.23-.14-.53-.18-.74-.07-.4-.22-.79-.28-1.2l-.54-3.44-.42-2.68v-.35c-.25-1.51-.51-3-.81-4.54-.17-.85-.6-2.94-.62-3.14s-.52-2.18-.58-2.5c0-.13-.28-1-.45-1.68-.7.13-1.31.44-2 .56.49 2.2 1 4.41 1.44 6.57.28 1.35.5 2.71.75 4.06l.35 2 .29 1.79c.16.93.29 1.86.44 2.79s-.05 2.12.06 3.12a1.46 1.46 0 00.29.74c.17.21.14.29.25.36a1 1 0 00.62 0c.6-.04 1.51-.56 1.39-1.06zM3 3.47a2.42 2.42 0 01.49-.36 3.3 3.3 0 011-.32h.26c.43 0 1-.06 1.54-.08 6.49 0 13 0 19.49-.16 2.27 0 4.52-.09 6.82-.06 4.08.06 8.18 0 12.27 0 1.93 0 3.21-.11 5.79 0 1.12 0 3.24.08 4.34.07l5.13-.1 13.68-.13h3.6c2 .05 3.64.1 5.51 0 1.71-.1 3.2-.17 5.1-.12 3.07.07 6.13 0 9.22 0h6.92c.79 0 1.58 0 2.42.08a14.11 14.11 0 001.45.09 29.93 29.93 0 013.51.11c.52 0 1.77-.26 1.92-.6s0-.44 0-.65C113.73.8 113 0 112.26 0l-2.21.08h-2.32c-.61 0-1.22.21-1.81.18h-2.25c-2.88-.12-5.93 0-8.9 0H75c-4.18 0-8.44.1-12.53.13L28.31.6l-8.5.05C16 .66 13.06.75 9.3.62H5.06a6.93 6.93 0 00-2 .41A4.46 4.46 0 001.3 2.25 6 6 0 000 6.09a3.47 3.47 0 002.15.73 9.63 9.63 0 01.05-1.61A2.73 2.73 0 013 3.47z" fill="currentColor"/><path d="M6.72 31.67a7.89 7.89 0 01-.09-.86c0-.39-.06-1.12-.12-1.49s-.12-.61-.17-.87v-.19c0-.12 0-.25-.07-.37-.08-.42-.15-.86-.24-1.37Q4.82 19.76 3.3 13c-.28-1.17-.52-2.36-.76-3.53a12.23 12.23 0 01-.23-4.87 2.4 2.4 0 01.91-1.49 3.24 3.24 0 012-.54H22c2.08-.07 4.16-.11 6.29-.12A5.23 5.23 0 0127.07.79c-1.67 0-3.33-.07-5-.15h-1.29c-2.87-.12-5.93 0-8.9 0H6.94A21.55 21.55 0 004.33.7 4.84 4.84 0 001.55 2a4.92 4.92 0 00-1.4 2.7 9.61 9.61 0 00-.09 2.73A19.84 19.84 0 00.49 10L1 12.42c.89 4.07 1.86 8.19 2.55 12.21.21 1.14.38 2.28.57 3.42l.23 1.44.34 2.35a3.2 3.2 0 012.03-.17zM7.85 50.4a.68.68 0 01-.78-.1 1.1 1.1 0 01-.4-1 13.37 13.37 0 00-.31-3.08c-.11-1.12-.16-2.28-.38-3.38a8.91 8.91 0 00-.51-2.68 1.57 1.57 0 01.36-2 1.31 1.31 0 011-.22c.72.16.91 1.16 1 1.78s-.17 1.12-.1 1.77v1c.07 1.14.17 2.27.2 3.41 0 .53-.09 1.06-.11 1.59s.25 1.06.25 1.59c.06.29.13 1.12-.22 1.32zm-1.24 3.93c0-.37-.06-1.48.47-1.56a1.13 1.13 0 01.69.24 8.51 8.51 0 01.93.64 1.33 1.33 0 01.37.45c.19.48 0 1.07 0 1.56a17.7 17.7 0 01-.4 2.65c-.1 1 .22 1.76-.57 2.29-.24-.22-.62-.53-.67-.88-.28-1.7-.47-3.43-.77-5.13a1.22 1.22 0 01-.05-.26zm.81 11.35a1.76 1.76 0 01.19-1c.43-.77 1.77-1 1.94.09a6.47 6.47 0 01-.17 1.8c-.05.43-.33 1.85-.9 1.47a4.19 4.19 0 01-1-1.93 3.07 3.07 0 01-.06-.43zm1.67 8.42H9c-1 .18-1.8-1.5-1.24-2.29a1.36 1.36 0 012-.12c.48.62.1 2.2-.67 2.41z" fill="currentColor"/></svg>