<svg xmlns="http://www.w3.org/2000/svg" viewBox="0 0 57.07 76.69"><path d="M55.05 22.79c-.2-1.55-.41-2.85-.51-4.16a23.54 23.54 0 010-3.66c0-.25.74-.63 1.09-.59s1 .55 1 .84c-.08 2.16-.29 4.31-.46 6.47a4.63 4.63 0 01-.1 1.12c-.05.15-.41.27-.62.25s-.38-.26-.4-.27zm.43 5.97c.71.29.66.94.68 1.5a26.71 26.71 0 01-.23 3.56 16.92 16.92 0 00-.31 2.41c0 .6-.21.9-.85 1.07a.34.34 0 01-.28-.17c-.23-1.93-.13-3.71-.35-5.64 0-.38-.14-.76-.21-1.14a1.44 1.44 0 011.55-1.59zm-.11-21.58c-.12-1.12-.17-3-.25-3.78a15.16 15.16 0 01-.21-2.32A1.93 1.93 0 0155.6 0c.09-.09.48.18.74.29 1.07.47.65 1.42.64 2.24s-.44 3.21-.42 4.09c0 1-.2 1.15-1.08.74-.13-.03-.17-.3-.11-.18zm-1.72 58.59c-.19-1.63-.41-2.93-.5-4.17 0-.58-.08-1.15-.09-1.72s0-1.22.06-1.82c0-.24.74-.63 1.09-.58s1 .55 1 .84L55.09 60l-.12 1.73-.27 3.4a5.7 5.7 0 01-.12 1.14c0 .14-.4.1-.59 0a1.32 1.32 0 01-.34-.5zm-2.05 5.35c.25.67-.42.93-1 1.13a14.07 14.07 0 01-3.78.71c-.88.1-1.81 0-2.62.2a1 1 0 01-1.28-.63c0-.08 0-.29.1-.31 1.77-.55 3.48-.79 5.1-1.36a5.46 5.46 0 00.86-.46 1.62 1.62 0 011.2-.06 3.18 3.18 0 011.42.78zm2.37-20.84c-.12-1.12-.17-3-.25-3.79a12.89 12.89 0 01-.21-2.31 2 2 0 01.67-1.07c.09-.08.48.19.74.3 1.07.46.65 1.41.64 2.24s-.38 3.21-.38 4.08c0 1-.2 1.15-1.08.75-.15-.06-.19-.32-.13-.2zM14.5 75.08c1.53-.33 2.8-.63 4.09-.85a26.15 26.15 0 013.59-.39c.25 0 .71.67.7 1s-.45 1-.73 1c-2.17.14-4.34.13-6.51.14a4.65 4.65 0 01-1.12 0c-.16 0-.31-.39-.3-.6s.27-.28.28-.3zm-5.93.81c-.26.73-.91.71-1.47.76a25.25 25.25 0 01-3.58-.08 18.34 18.34 0 00-2.43-.24c-.6 0-.9-.19-1.09-.82 0-.08.09-.28.16-.29 1.92-.22 3.71-.22 5.62-.53.38-.06.75-.18 1.12-.27a1.45 1.45 0 011.67 1.47zm21.46-2.12c1.1-.26 2.94-.59 3.71-.78a16.67 16.67 0 012.24-.56 2 2 0 011.2.57c.1.08-.1.51-.17.78-.29 1.13-1.3.86-2.12 1s-3.25 0-4.12.17-1.17 0-.88-1c0-.18.29-.26.14-.18z" fill="currentColor"/></svg>