<svg xmlns="http://www.w3.org/2000/svg" viewBox="0 0 119.98 67.09"><path d="M80.39 62.15a3.69 3.69 0 01-.66 0c-.22 0-.53.1-.74.11-.41 0-.81.14-1.22.16-1.15.08-2.31.12-3.46.16l-2.68.09h-.34l-4.54.16-3.14.13c-.32 0-2.21.13-2.53.14-.13 0-1 .1-1.7.15 0 .71.19 1.36.18 2.08l6.67-.33L77 64.54c1 0 2.11.26 3.13.24a1.53 1.53 0 00.76-.22c.23-.15.3-.12.38-.22a1 1 0 00.1-.61c-.04-.73-.47-1.66-.98-1.58zm-32.48 1.4l-2.36.09h-.31c-.49 0-1.06 0-1.63.07-6.42.26-12.85.48-19.26.8-2.25.11-4.47.23-6.75.28l-6.05.21-3 .1a12.6 12.6 0 01-2.79-.14 4 4 0 01-1.86-.82 3.82 3.82 0 01-1.21-2.15 17.64 17.64 0 01-.32-4c-.06-2-.09-3-.14-5.06-.09-4.5-.12-9-.12-13.52 0-1.18 0-2.37.09-3.55.07-1.93.14-3.6.07-5.44s-.1-3.16 0-5.05c.15-3 .15-6 .24-9.1.09-2.36.17-4.6.24-6.83 0-.79.1-1.58.18-2.41A12.09 12.09 0 003 5.54 28.72 28.72 0 013.32 2c.05-.47-.18-1.73-.51-1.9s-.44.02-.64-.1C1.71-.17.87.56.84 1.26v2.22c0 .77-.1 1.55-.1 2.31S.88 7 .83 7.62v1.49c0 .17 0 .5-.07.76-.23 2.83-.21 5.86-.3 8.8C.23 25.12.12 31.73 0 38.25c0 4.15.07 8.36.11 12.42l.13 8.47a11.92 11.92 0 00.87 4.48 5.71 5.71 0 001.49 2 5.58 5.58 0 002.23 1.14 15.38 15.38 0 004.48.24l4.22-.17 8.47-.3 8.4-.32c3.8-.14 6.66-.33 10.39-.32h.66c1.1 0 2.29 0 3.48-.1 2.34-.13 4.46-.21 6.8-.26a4.37 4.37 0 00.7-2.16c-.61 0-1.17 0-1.85.08-.87.04-1.77.08-2.67.1z" fill="currentColor"/><path d="M77.52 62.54a6.11 6.11 0 01-.86 0c-.39 0-1.11-.06-1.49 0l-.87.07h-.58l-1.36.07-13.52.58c-1.18 0-2.37.05-3.55.06-1.94 0-3.61 0-5.45.18s-3.15.27-5 .29c-3 0-6 .2-9.11.31l-7.54.25c-2 .14-4.11.24-6.21.33a5.48 5.48 0 011.25 1.62h6.22c2.84 0 5.86-.2 8.8-.3l19.6-.63c4.14-.11 8.34-.37 12.39-.53l7.29-.28a3.14 3.14 0 01-.01-2.02zm18.73.18a.71.71 0 01-.13.78 1.12 1.12 0 01-1.05.35A14.69 14.69 0 0092 64c-1.13.06-2.3 0-3.41.18a9.9 9.9 0 00-2.72.34 1.57 1.57 0 01-2-.51 1.31 1.31 0 01-.13-1.01c.22-.7 1.23-.81 1.85-.86s1.1.26 1.75.23h4.4c.54 0 1.06.14 1.59.19s1.06-.19 1.59-.18c.32.01 1.14-.01 1.33.34zm3.88 1.38c-.37 0-1.48 0-1.54-.51a1.14 1.14 0 01.26-.69 8.61 8.61 0 01.68-.91 1.13 1.13 0 01.46-.35c.48-.18 1.06.07 1.55.06a19.28 19.28 0 012.64.47c.95.12 1.75-.19 2.27.61-.23.23-.54.61-.89.66l-5.17.64zm11.4-.59a1.75 1.75 0 01-1-.2c-.77-.44-1-1.78.11-1.93a6.52 6.52 0 011.8.18c.42 0 1.85.34 1.45.91a4.13 4.13 0 01-1.93 1zm8.47-1.62V62c.18 1-1.51 1.79-2.29 1.23a1.35 1.35 0 01-.11-2c.57-.5 2.15-.12 2.4.66z" fill="currentColor"/></svg>