<svg xmlns="http://www.w3.org/2000/svg" viewBox="0 0 113.88 74.1"><path d="M86.82 4.46c.66-.32 1.33-.65 2-1 .29-.17.5-.53.8-.63a4 4 0 011.13-.34c.68.06 1.16.56 1.83.63.1 0 .47.23.76.31a2.26 2.26 0 01.37.26c.11.1.13.27.23.38s.54.63.72.59c.54-.11 1.34-.3 1.49-.66.51-1.15 2-.64 2.62-1.52 0 0 .23-.26.29-.24.26.09.33-.3.6-.21h.31c.38 0 .59.68 1 .76s.5.48.61.56c.86.66.79 1 1.61 1.14a2.94 2.94 0 001.59-.25 4.22 4.22 0 011.11-.53c.71-.16 1.38-.46 2.07-.69a1.21 1.21 0 01.5-.07c.39.16.47.33.89.42a8.47 8.47 0 01.86.25 1.69 1.69 0 01.64.28 2.12 2.12 0 00.61.43 6 6 0 01.56.3 3.26 3.26 0 00.7 0c.44 0 .59.07.88-.26a.94.94 0 00.3-.94l-.42-.58a2.15 2.15 0 00-.83-.34c-.82-.23-1.29-1.1-2.27-1.1-.12 0-.25-.18-.38-.2-.44-.05-.58-.26-1-.29-.15 0-.4 0-.44-.06-.32-.12-.79-.35-1.2.07a2.76 2.76 0 01-1 .63 11.61 11.61 0 01-1.93.58 1.41 1.41 0 01-.87 0c-.4-.28-.66-.73-1.06-1a5.08 5.08 0 00-1.6-.79c-1-.08-1.22-.46-2.53.32-.29.17-.71.06-1 .19a3.44 3.44 0 00-.92.59c-.4.37-.85.25-1.31.21-.22 0-.48.18-.68.13A8.89 8.89 0 0192.72 1s0-.06-.08-.1 0 0-.07-.06A18.28 18.28 0 0190.65.3a3.92 3.92 0 00-2.74 1.23 2.25 2.25 0 01-.63.52c-.22-.17-.4-.36-.61-.53v2.93c.07.02.12.03.15.01z" fill="currentColor"/><path d="M44.35 4.63c.67-.32 1.34-.64 2-1 .29-.17.49-.53.8-.63a3.81 3.81 0 011.13-.34c.67.06 1.16.56 1.83.63.1 0 .46.23.76.31a2.78 2.78 0 01.37.26c.11.1.13.28.23.38s.54.63.72.59c.54-.11 1.33-.3 1.49-.65.51-1.16 2-.65 2.62-1.53 0 0 .23-.25.29-.24.26.09.33-.3.6-.21 0 0 .29.06.31 0 .38 0 .59.68 1 .76s.51.48.61.56c.87.66.79 1 1.62 1.14a2.85 2.85 0 001.59-.25 4.22 4.22 0 011.11-.53c.71-.16 1.38-.46 2.07-.69.09 0 .22 0 .33.09a7.55 7.55 0 001.17.48h.75c.46.15.72.61 1.16.75.06 0 .21-.08.22-.07a2.65 2.65 0 002 .73c.6-.18.67-.49 1.31-.57.07 0 .11-.12.18-.15.9-.38 1.38-1.05 2.33-1.23.56-.1 1.22.38 1.86.52.35.07.76-.07 1.12 0s.85.38 1.29.42a3.44 3.44 0 002.31-.61c.51-.42.79-1 1.47-1.27 1.1-.39 1.6.41 2.27.81a8.65 8.65 0 011.33 1.24l.15.08V1.52c-.28-.24-.57-.48-.84-.73A3.47 3.47 0 0084.6.05a8.12 8.12 0 00-1.91 0A3.09 3.09 0 0081 1c-.47.74-1.21.68-1.83.92-1 .39-1.78-.43-2.71-.56-.74-.11-1.39-.86-2.24-.28l-1.31.83a10.34 10.34 0 00-1.51.93c-.55.5-.86 0-1.26-.14-.82-.23-1.29-1.1-2.27-1.1-.13 0-.25-.18-.39-.2-.43 0-.57-.26-1-.29-.15 0-.4 0-.44-.06-.32-.12-.79-.35-1.2.07a2.76 2.76 0 01-1 .63 11.61 11.61 0 01-1.93.58 1.45 1.45 0 01-.88 0c-.4-.28-.65-.73-1.05-1a5 5 0 00-1.55-.81c-1-.07-1.21-.46-2.53.32-.28.17-.7.06-1 .19a3.29 3.29 0 00-.92.59c-.41.37-.85.25-1.31.21-.22 0-.48.18-.68.13a8.59 8.59 0 01-1.69-.76l-.07-.09s0-.05-.07-.07a18.28 18.28 0 01-1.97-.57 3.92 3.92 0 00-2.74 1.23 2.4 2.4 0 01-.63.52c-.22-.17-.41-.36-.61-.53v2.93c.06.02.12.03.14.01z" fill="currentColor"/><path d="M4.93 6.77a6.42 6.42 0 010-2.27c0-.32-.14-.76 0-1a3.47 3.47 0 01.3-.38.76.76 0 01.47-.22c.71-.07 1.63.46 2.31.52.1 0 .61.23.95.31a5 5 0 01.56.27c.17.1.3.27.46.38.36.22.88.63 1 .59.38-.12 1-.3.93-.66-.1-1.15 1.58-.64 1.88-1.52 0 0 .15-.25.22-.23.3.08.27-.31.57-.22 0 0 .32.06.32 0 .41 0 .74.67 1.11.75s.55.48.65.56c.88.67.74 1 1.53 1.14a2.87 2.87 0 001.6-.25 4.29 4.29 0 011.1-.52c.71-.16 1.39-.47 2.08-.7a.68.68 0 01.32.09 7.12 7.12 0 001.18.48c.25.05.51 0 .75 0 .46.15.72.61 1.16.75.06 0 .21-.08.22-.07a2.64 2.64 0 002 .73c.61-.18.68-.49 1.32-.57.06 0 .11-.12.18-.15.9-.38 1.38-1.05 2.33-1.23.55-.1 1.22.38 1.86.52.35.07.76-.07 1.11 0s.86.38 1.3.42a3.44 3.44 0 002.3-.53c.51-.42.79-1 1.47-1.27 1.1-.39 1.6.41 2.27.81a9.14 9.14 0 011.33 1.24l.15.08V1.69c-.28-.24-.57-.48-.84-.73a3.32 3.32 0 00-1.25-.73 7.63 7.63 0 00-1.91 0 3.16 3.16 0 00-1.7.92c-.46.74-1.2.69-1.82.92-1 .39-1.79-.43-2.71-.56-.74-.11-1.39-.86-2.24-.28-.43.29-.87.56-1.31.83a9.83 9.83 0 00-1.51.94c-.55.5-.87 0-1.26-.14-.82-.23-1.29-1.1-2.27-1.09-.13 0-.25-.19-.39-.21-.43-.05-.57-.26-1-.29-.16 0-.4 0-.45-.06-.31-.12-.79-.35-1.19.07a2.76 2.76 0 01-1.05.63 11.72 11.72 0 01-1.94.58 1.42 1.42 0 01-.87 0c-.4-.28-.64-.73-1.1-1a5.8 5.8 0 00-1.74-.8C14.53.62 14.1.23 12.83 1c-.27.17-.78.07-1.07.2a1.77 1.77 0 00-.76.6c-.26.37-.78.26-1.29.24-.24 0-.4.18-.63.14-.77-.15-1.5-.43-2.24-.62l-.14-.07-.11-.05c-.68 0-1.61-.27-2.38-.16a1.84 1.84 0 00-1.23.87 2.21 2.21 0 00-.35 1.46 3.39 3.39 0 010 .87l-.7.24 3 2.16a.12.12 0 000-.11zm6 40.07c-.4-.63-.79-1.27-1.22-1.87-.2-.28-.57-.44-.7-.74a3.36 3.36 0 01-.46-1.08c0-.68.42-1.21.41-1.89 0-.1.17-.49.22-.79a1.9 1.9 0 01.21-.4c.08-.12.26-.17.35-.28s.56-.62.5-.8c-.18-.52-.48-1.29-.85-1.4-1.22-.35-.91-1.93-1.86-2.39 0 0-.28-.19-.27-.25 0-.28-.36-.29-.31-.57v-.31c0-.38.58-.68.61-1.06s.39-.57.45-.69c.53-1 .92-.95.88-1.78A2.82 2.82 0 008.37 29a4.32 4.32 0 01-.7-1 21.3 21.3 0 00-1-1.94.56.56 0 010-.33 7.5 7.5 0 00.26-1.25 6.16 6.16 0 01-.11-.75c.06-.47.47-.82.52-1.28 0-.06-.12-.19-.11-.2a2.67 2.67 0 00.33-2.11c-.3-.56-.61-.57-.82-1.19 0-.06-.13-.08-.18-.14-.53-.69-1.29-1.05-1.67-1.93-.22-.52.14-1.13.17-1.68 0-.3-.23-.68-.23-1s.24-.67.2-1a4.6 4.6 0 00-1.15-2.25 8 8 0 01-1.63-2c-.47-1.29.27-1.43.84-1.74a3.55 3.55 0 011.65-.24.25.25 0 00.14-.06L1.9 4.7l-.9.43A1.93 1.93 0 00.13 6a5.67 5.67 0 000 2.1 4.88 4.88 0 001.13 2.21 6.09 6.09 0 011.35 2.19c.63 1.1 0 1.73 0 2.72 0 .76-.55 1.52.24 2.42L4 19a10.21 10.21 0 001.21 1.31c.6.44.14.85.11 1.26-.12.82-.87 1.43-.7 2.43 0 .13-.14.28-.13.42 0 .43-.16.61-.11 1.05 0 .15.09.38 0 .44-.05.33-.2.83.29 1.16a2.59 2.59 0 01.79.92 10.53 10.53 0 01.9 1.81 1.5 1.5 0 01.12.86c-.21.44-.61.76-.84 1.19a5.34 5.34 0 00-.55 1.57c.07 1-.27 1.26.68 2.44.21.26.16.68.33 1a3.33 3.33 0 00.71.83c.42.35.36.8.38 1.27 0 .22.24.45.22.65a9.29 9.29 0 01-.56 1.76.34.34 0 01-.08.09l-.06.07a18.55 18.55 0 01-.32 2A3.92 3.92 0 007.89 46c.23.14.61.53.58.57-.14.23-.31.44-.46.66l2.92-.3a.28.28 0 000-.09zm-.88 25.4a.79.79 0 01.13.26 4.25 4.25 0 00.5 1.25.83.83 0 00.32.25c.28.18.54-.08.84-.18a1.22 1.22 0 00.53-.86 2.52 2.52 0 00-.25-1.47 4 4 0 01-.54-1.11c-.17-.71-.48-1.38-.72-2.08a.71.71 0 01.09-.32 7.14 7.14 0 00.46-1.19c0-.25-.06-.51 0-.75.13-.47.59-.74.71-1.18 0-.07-.08-.22-.07-.23a2.63 2.63 0 00.67-2c-.21-.6-.52-.66-.63-1.3 0-.07-.12-.11-.15-.18-.43-.89-1.1-1.34-1.33-2.28-.14-.55.3-1.24.4-1.89.06-.36-.11-.76-.06-1.12a13 13 0 00.34-1.33 3.51 3.51 0 00-.78-2.27c-.46-.48-1.08-.71-1.38-1.37-.48-1.06.27-1.62.61-2.33a10.22 10.22 0 011.12-1.45.48.48 0 00.07-.16L8 47.27c-.22.3-.43.61-.66.9a3.52 3.52 0 00-.62 1.29 7.9 7.9 0 00.19 1.88A3.05 3.05 0 008 53c.77.4.76 1.14 1 1.74.46 1-.32 1.81-.4 2.73-.07.75-.77 1.43-.16 2.25.3.41.6.83.89 1.26a10.21 10.21 0 001 1.47c.52.53 0 .87-.1 1.26-.2.84-1.06 1.33-1 2.3 0 .13-.18.25-.2.39 0 .43-.24.58-.26 1 0 .16 0 .4-.06.45-.11.31-.34.79.09 1.19a2.75 2.75 0 01.64 1A10.52 10.52 0 0110 72a2.09 2.09 0 01.05.24z" fill="currentColor"/></svg>