<svg xmlns="http://www.w3.org/2000/svg" viewBox="0 0 62.8 77.08"><path d="M61.7 24.75c-.31-.62-.61-1.24-.95-1.84-.16-.27-.51-.47-.6-.76a3.06 3.06 0 01-.31-1c.09-.61.61-1 .7-1.65 0-.08.24-.41.34-.68a2 2 0 01.27-.33c.1-.09.27-.1.38-.2s.65-.46.62-.63c-.1-.5-.26-1.23-.61-1.38-1.14-.51-.57-1.88-1.44-2.45 0 0-.24-.22-.22-.27.1-.24-.3-.32-.2-.56 0 0 .07-.27 0-.28 0-.35.7-.52.79-.86s.49-.44.58-.53c.69-.77 1.07-.69 1.19-1.44a2.42 2.42 0 00-.19-1.46 3.62 3.62 0 01-.49-1c-.14-.65-.42-1.28-.62-1.92a1 1 0 01-.02-.57c.17-.35.35-.41.45-.79s.2-.56.28-.78a1.55 1.55 0 01.3-.57 2 2 0 00.46-.55c.07-.2.22-.31.31-.5s0-.46 0-.63c.06-.4.09-.54-.23-.82a1 1 0 00-.93-.31l-.6.37a2.09 2.09 0 00-.37.74c-.25.74-1.14 1.14-1.17 2 0 .12-.19.22-.21.35-.07.39-.29.52-.33.91 0 .14 0 .37-.08.41-.12.28-.37.71 0 1.09a2.68 2.68 0 01.59 1 10.18 10.18 0 01.52 1.79 1.18 1.18 0 01-.06.8c-.29.35-.75.57-1 .92a4.51 4.51 0 00-.83 1.32c-.11.9-.5 1.1.23 2.33.16.26 0 .64.16.93a3 3 0 00.56.86c.35.38.22.78.17 1.21 0 .2.16.44.11.62a7.72 7.72 0 01-.85 1.54s-.06 0-.09.08l-.07.05c0 .58-.49 1.12-.62 1.74a3.47 3.47 0 001.18 2.59 2.21 2.21 0 01.5.6c-.17.19-.37.36-.55.54l2.93.09a.19.19 0 00.02-.12z" fill="currentColor"/><path d="M60.39 64.2a20 20 0 00-.91-2.3c-.16-.34-.5-.61-.59-.92a3.56 3.56 0 01-.31-1.04c.09-.59.6-1 .7-1.64 0-.09.24-.41.33-.68a2.06 2.06 0 01.27-.33c.11-.09.28-.11.39-.2s.65-.47.62-.64c-.1-.49-.26-1.22-.61-1.38-1.14-.5-.57-1.87-1.44-2.44 0 0-.24-.22-.22-.27.09-.25-.3-.32-.2-.56 0 0 .07-.27 0-.28.05-.35.69-.52.79-.86s.49-.44.57-.54c.7-.76 1.07-.68 1.2-1.43a2.5 2.5 0 00-.18-1.51 3.38 3.38 0 01-.49-1c-.14-.66-.42-1.28-.62-1.92 0-.08 0-.2.09-.29a6.12 6.12 0 00.52-1.06c.06-.23 0-.47.06-.69.16-.41.63-.63.78-1 0-.06-.07-.2-.06-.21a2.29 2.29 0 00.8-1.79c-.16-.56-.47-.63-.53-1.22 0-.06-.11-.1-.14-.17-.35-.83-1-1.3-1.15-2.17-.08-.51.42-1.1.58-1.68.09-.32 0-.7 0-1s.41-.76.47-1.17a3 3 0 00-.54-2.13c-.4-.48-1-.76-1.22-1.39-.35-1 .47-1.44.89-2a8.44 8.44 0 011.28-1.17.34.34 0 00.09-.14l-2.81-.2c-.25.24-.5.5-.76.74a3.3 3.3 0 00-.78 1.1 6.84 6.84 0 000 1.75 2.76 2.76 0 00.78 1.57c.73.45.64 1.13.86 1.7.35.93-.49 1.62-.66 2.45s-.9 1.24-.35 2c.27.41.53.82.79 1.23a9.52 9.52 0 00.87 1.41c.48.52-.06.79-.18 1.15-.25.74-1.14 1.14-1.17 2 0 .12-.2.22-.22.35-.06.39-.28.51-.33.91 0 .14 0 .37-.07.41-.12.28-.38.7 0 1.09a2.58 2.58 0 01.6 1 10.15 10.15 0 01.51 1.79c0 .26.09.62-.05.79-.29.36-.75.58-1 .93a4.38 4.38 0 00-.84 1.38c-.11.9-.5 1.1.23 2.32.16.27 0 .65.16.93a3 3 0 00.56.87c.35.38.22.78.17 1.21 0 .2.16.44.1.62a8.09 8.09 0 01-.82 1.51l-.09.06-.06.06c0 .62-.49 1-.61 1.52a4 4 0 001.13 2.47 2.44 2.44 0 01.5.72 5.89 5.89 0 01-.54.32l2.87 1.15a.2.2 0 00-.01-.09zM24.91 75.83c.59-.36 1.18-.72 1.74-1.13.26-.19.42-.55.7-.67a3.17 3.17 0 011-.42c.62 0 1.1.49 1.72.51.09 0 .44.19.72.25a2.41 2.41 0 01.36.23c.1.09.14.26.24.36s.55.59.71.54c.49-.16 1.2-.41 1.31-.78.39-1.2 1.79-.78 2.24-1.78 0 0 .18-.27.24-.25.25.06.27-.34.52-.28h.29c.35 0 .61.61 1 .66s.51.42.62.49c.86.58.84 1 1.6 1a2.49 2.49 0 001.42-.42 3.52 3.52 0 01.95-.64c.63-.24 1.2-.63 1.8-.93h.31a6.15 6.15 0 001.13.34c.23 0 .46-.11.69-.06.43.08.74.5 1.15.58.06 0 .19-.1.2-.09a3 3 0 002.24.4c.6-.28.57-.59 1.2-.78.06 0 .07-.13.13-.17.77-.52.94-1.21 1.74-1.52.46-.18 1.35.11 2 0a9.71 9.71 0 001-.34 5.55 5.55 0 001.43-.23 2.08 2.08 0 001.22-1.93c-.08-.69-.4-1.27-.52-2-.18-1.18.58-1.16 1-1.61a7 7 0 011.27-.76.41.41 0 00.09-.12l-2.87-1.1a7.45 7.45 0 01-.75.37c-.25.1-.75.42-.76.58a13.87 13.87 0 00-.19 1.41 5.38 5.38 0 00.26 1.82c.44.87-.12 1.24-.4 1.68-.47.75-1.76.23-2.57.28s-1.59-.57-2 .07a7.56 7.56 0 01-.71 1 10.72 10.72 0 00-1 1.1c-.36.56-.81.09-1.19 0-.8-.11-1.32-.91-2.2-.78-.12 0-.26-.15-.38-.15-.4 0-.56-.2-1-.17-.14 0-.35.06-.41 0-.29-.07-.75-.25-1.06.22a2.57 2.57 0 01-.87.74 9.21 9.21 0 01-1.68.79c-.25.08-.6.18-.79.07-.4-.23-.68-.64-1.07-.89a4.61 4.61 0 00-1.42-.63c-.9 0-1.14-.34-2.25.55-.24.2-.63.13-.9.28a3.12 3.12 0 00-.78.67c-.33.4-.74.32-1.17.32-.2 0-.42.22-.6.18a7.75 7.75 0 01-1.59-.63s-.05-.06-.08-.08l-.06-.06c-.58 0-1.16-.35-1.78-.42a3.52 3.52 0 00-2.4 1.4 1.81 1.81 0 01-.54.55c-.21-.15-.39-.33-.59-.49l.23 2.87c0 .01.09.02.11 0z" fill="currentColor"/><path d="M1.73 74.14a.77.77 0 01-.24.12 3.63 3.63 0 00-1.15.47.8.8 0 00-.26.29c-.17.28.06.54.15.84s.33.48.77.55a2 2 0 001.34-.22 3.67 3.67 0 011-.51 18.91 18.91 0 001.92-.66c.08 0 .2.05.29.09a6.17 6.17 0 001.08.49h.69c.42.15.66.62 1.06.76.05 0 .2-.08.2-.07a2.32 2.32 0 001.83.72c.56-.19.62-.5 1.21-.58.06 0 .1-.12.16-.15.83-.39 1.26-1.07 2.12-1.27.51-.11 1.13.36 1.72.48.32.07.69-.09 1 0a11.33 11.33 0 001.21.39 2.91 2.91 0 002.09-.69c.45-.45.68-1.06 1.29-1.33 1-.44 1.48.34 2.11.71a8.79 8.79 0 011.3 1.16.47.47 0 00.14.08l-.16-2.87c-.27-.23-.55-.45-.8-.69a3.28 3.28 0 00-1.16-.67 7.67 7.67 0 00-1.73.11 2.82 2.82 0 00-1.5 1c-.39.77-1.07.72-1.62 1-.9.42-1.64-.37-2.48-.49s-1.29-.83-2.05-.24c-.39.3-.78.58-1.18.86a8.74 8.74 0 00-1.37.94c-.49.5-.79 0-1.15-.14-.75-.21-1.18-1.09-2.07-1.09-.12 0-.23-.19-.35-.21-.4 0-.53-.27-.92-.3-.14-.08-.36-.08-.42-.08-.28-.11-.71-.36-1.09.06a2.5 2.5 0 01-1 .61 9.08 9.08 0 01-1.77.55z" fill="currentColor"/></svg>