<svg xmlns="http://www.w3.org/2000/svg" viewBox="0 0 120.09 67.48"><path d="M4.53 26.83c-.31-.67-.62-1.33-1-2-.16-.29-.51-.5-.6-.81a3.51 3.51 0 01-.32-1.13c.08-.66.59-1.13.68-1.79 0-.1.24-.46.33-.75a2.26 2.26 0 01.27-.36c.1-.1.28-.12.38-.22s.65-.51.62-.7c-.1-.53-.27-1.32-.62-1.49-1.14-.53-.57-2-1.44-2.64 0 0-.25-.23-.22-.29.09-.26-.3-.35-.2-.61 0 0 .07-.29 0-.3.06-.38.7-.57.8-.94s.49-.48.57-.58c.7-.83 1.08-.74 1.2-1.55a2.85 2.85 0 00-.18-1.59 4.22 4.22 0 01-.49-1.12c-.13-.71-.41-1.38-.6-2.08a1.06 1.06 0 010-.5c.17-.37.35-.45.45-.86.07-.24.21-.61.3-.84a1.79 1.79 0 01.3-.62 2 2 0 00.46-.58c.08-.22.23-.34.32-.54a3.16 3.16 0 000-.69c.07-.44.1-.59-.22-.89A1 1 0 004.4.02l-.6.39a2.12 2.12 0 00-.38.8c-.27.81-1.16 1.23-1.2 2.2 0 .13-.2.24-.22.38-.07.42-.29.56-.34 1 0 .15 0 .39-.08.44-.13.3-.39.77 0 1.19a2.75 2.75 0 01.59 1.07 11.26 11.26 0 01.5 1.94 1.36 1.36 0 01-.06.86c-.29.39-.75.63-1 1a4.83 4.83 0 00-.83 1.44c-.12 1-.51 1.19.23 2.52.16.29 0 .7.16 1a3.3 3.3 0 00.56.94c.35.41.23.85.17 1.31 0 .22.17.48.11.67a8.55 8.55 0 01-.83 1.69l-.1.08-.06.06a17.94 17.94 0 01-.6 1.9 3.91 3.91 0 001.16 2.75 2 2 0 01.51.64c-.17.21-.36.39-.54.59l2.93.05a.22.22 0 00.05-.1z" fill="currentColor"/><path d="M10 63.06a23.93 23.93 0 01-2.35.88 5.32 5.32 0 01-1.18.44c-.31 0-1 .08-1.26-.13-.56-.37-.45-1.2-.77-1.76a7.06 7.06 0 01-.09-.87 2.64 2.64 0 01.1-.52c0-.16.21-.32.27-.49.14-.36.45-.92.37-1-.24-.35-.52-.9-.89-.82-1.21.26-.78-1.47-1.65-1.66 0 0-.25-.12-.23-.19.08-.31-.3-.23-.22-.54 0 0 .06-.32 0-.32 0-.42.66-.82.74-1.2s.47-.6.55-.72c.66-.94 1-.91 1.12-1.62a2.25 2.25 0 00-.21-1.41 4.09 4.09 0 01-.53-1.09c-.17-.7-.47-1.37-.7-2.06 0-.08 0-.21.09-.32a7.86 7.86 0 00.48-1.16c0-.25-.05-.51 0-.75.14-.45.61-.71.75-1.14 0-.06-.08-.22-.07-.22a2.6 2.6 0 00.73-2c-.18-.59-.49-.66-.56-1.3 0-.06-.12-.11-.15-.18-.38-.89-1-1.38-1.21-2.32-.1-.55.38-1.2.53-1.83.08-.35-.07-.76 0-1.11s.39-.84.44-1.28a3.38 3.38 0 00-.58-2.29c-.42-.52-1-.81-1.25-1.48-.37-1.1.44-1.58.85-2.24a8.59 8.59 0 011.27-1.29.71.71 0 00.08-.15l-2.93-.05c-.25.28-.49.56-.75.82a3.26 3.26 0 00-.75 1.22 7.55 7.55 0 000 1.9 3 3 0 00.9 1.7c.73.47.66 1.21.89 1.82.37 1-.45 1.77-.59 2.69-.09.81-.84 1.4-.24 2.26.28.42.55.86.82 1.3a10.19 10.19 0 00.92 1.5c.5.55 0 .86-.14 1.25-.23.82-1.1 1.28-1.1 2.25 0 .13-.19.25-.2.39-.06.43-.27.57-.3 1 0 .15 0 .39-.06.44-.11.31-.34.78.08 1.19a2.65 2.65 0 01.63 1 11.24 11.24 0 01.59 1.92 1.34 1.34 0 010 .89c-.27.43-.71.76-1 1.24a5.88 5.88 0 00-.73 1.81c0 1.13-.43 1.6.39 2.75.18.24.12.74.27 1a1.84 1.84 0 00.66.67c.38.22.35.73.44 1.22 0 .24.29.37.3.59.08.74.06 1.43.2 2.09V64c.4.56.6 1.35 1.18 1.83a2.62 2.62 0 001.71.4 4.32 4.32 0 001.73-.4 4.73 4.73 0 01.92-.41c.13.16.23.34.36.51l1.46-2.9a.11.11 0 00-.13.03z" fill="currentColor"/><path d="M51.07 61.56c-.65.35-1.3.7-1.92 1.08-.29.18-.48.54-.78.65a3.49 3.49 0 01-1.11.39c-.67 0-1.16-.53-1.83-.58-.1 0-.47-.21-.76-.29a2.2 2.2 0 01-.38-.24c-.11-.1-.14-.27-.24-.37s-.56-.61-.74-.57c-.53.13-1.31.34-1.45.7-.46 1.18-2 .71-2.55 1.62 0 0-.21.26-.27.24-.27-.08-.33.32-.59.24h-.31c-.38 0-.61-.66-1-.73-.23 0-.51-.46-.62-.53-.88-.64-.82-1-1.63-1.09a2.86 2.86 0 00-1.57.29 4.34 4.34 0 01-1.09.57 21.6 21.6 0 00-2 .76c-.09 0-.22 0-.33-.08a7 7 0 00-1.18-.44c-.25 0-.5.06-.74 0-.46-.13-.74-.58-1.17-.71-.06 0-.21.09-.22.08a2.6 2.6 0 00-2-.66c-.6.2-.65.51-1.29.61-.06 0-.1.12-.17.15-.88.41-1.34 1.09-2.27 1.3-.55.13-1.23-.33-1.86-.45-.35-.06-.76.1-1.11 0a12.83 12.83 0 00-1.3-.39 3.15 3.15 0 00-2.11.69 5.56 5.56 0 01-1.65 1.32c-1.23.43-1.51-.36-2-.75a2.92 2.92 0 01-.65-1.23.15.15 0 00-.08-.08l-1.46 2.9c.18.24.39.47.57.73a2.32 2.32 0 001.09.74 9.38 9.38 0 002.24-.06 4.25 4.25 0 002.09-1c.58-.76 1.35-.73 2-1 1-.42 1.79.37 2.71.48.74.08 1.41.81 2.23.21.42-.3.85-.59 1.28-.88a10.05 10.05 0 001.46-1c.53-.51.86 0 1.25.1.83.2 1.32 1.06 2.29 1 .13 0 .26.18.39.2.43 0 .58.24 1 .26h.44c.31.1.79.33 1.18-.11a2.72 2.72 0 011-.66 11.51 11.51 0 011.9-.65 1.36 1.36 0 01.87 0c.4.26.67.7 1.08 1a5 5 0 001.48.73c1 0 1.23.42 2.5-.4.28-.18.7-.09 1-.22a3.52 3.52 0 00.9-.62c.39-.38.83-.28 1.29-.26.22 0 .47-.19.66-.15a8.67 8.67 0 011.7.71s0 .06.08.08l.07.06a16.93 16.93 0 012.01.58 3.94 3.94 0 002.68-1.31 2 2 0 01.61-.54c.22.15.41.34.62.5l-.11-2.93a.31.31 0 00-.13.01zm42.1-1.54c-.65.35-1.3.69-1.92 1.08-.29.18-.48.54-.78.65a3.74 3.74 0 01-1.11.38c-.67 0-1.16-.53-1.83-.57-.1 0-.47-.21-.76-.29a1.78 1.78 0 01-.38-.25c-.11-.09-.14-.27-.25-.36s-.55-.62-.73-.58c-.53.14-1.31.35-1.45.71-.47 1.17-2 .71-2.55 1.61 0 0-.22.26-.28.24-.26-.07-.32.32-.59.24h-.3c-.39 0-.62-.65-1-.72s-.51-.46-.62-.54c-.88-.64-.82-1-1.64-1.08a2.8 2.8 0 00-1.57.29 3.81 3.81 0 01-1.08.56c-.7.19-1.35.51-2 .76a.6.6 0 01-.33-.07 7 7 0 00-1.18-.45c-.25 0-.5.07-.75 0-.45-.13-.73-.59-1.17-.71-.06 0-.21.08-.21.07a2.62 2.62 0 00-2-.66c-.59.2-.65.51-1.28.61-.07 0-.11.12-.17.15-.88.42-1.34 1.1-2.28 1.31-.54.12-1.22-.34-1.85-.45-.36-.07-.76.09-1.11 0s-.86-.35-1.3-.38a3.37 3.37 0 00-2.27.69c-.5.44-.75 1-1.42 1.31-1.07.43-1.6-.36-2.27-.74a8.54 8.54 0 01-1.37-1.19.42.42 0 00-.15-.08l.11 2.93c.29.24.58.46.86.71a3.58 3.58 0 001.25.69 7.94 7.94 0 001.87-.06 3.05 3.05 0 001.69-1c.43-.75 1.17-.72 1.77-1 1-.42 1.79.37 2.71.47.74.09 1.41.81 2.23.21l1.29-.85a10.11 10.11 0 001.47-1c.53-.52.86 0 1.25.1.78.23 1.28 1.07 2.28 1.07.13 0 .25.18.39.19.43 0 .58.25 1 .26h.44c.31.1.79.32 1.18-.12a3 3 0 011-.66 11.17 11.17 0 011.9-.64 1.4 1.4 0 01.86 0c.41.27.68.71 1.08 1a5.16 5.16 0 001.49.73c1 0 1.23.42 2.5-.4.28-.18.7-.09 1-.23a3.09 3.09 0 00.89-.62c.39-.38.84-.28 1.3-.25.22 0 .47-.2.66-.15a8.65 8.65 0 011.7.7.65.65 0 01.08.09l.07.07a16.93 16.93 0 011.92.49 3.93 3.93 0 002.68-1.32 2 2 0 01.61-.54c.22.16.41.34.62.51l-.07-2.91a.15.15 0 00-.13-.01zm25.12 1.28a.68.68 0 01.25-.14 4.14 4.14 0 001.22-.55 1.06 1.06 0 00.26-.3c.16-.29-.1-.54-.22-.83a1.16 1.16 0 00-.86-.5 2.37 2.37 0 00-1.44.3 4.11 4.11 0 01-1.08.57c-.7.18-1.35.51-2 .76-.08 0-.21 0-.32-.08a7 7 0 00-1.18-.44 6.26 6.26 0 01-.75 0c-.46-.13-.73-.58-1.17-.71-.06 0-.21.09-.21.08a2.67 2.67 0 00-2-.67c-.59.21-.65.52-1.28.62-.07 0-.11.12-.17.15-.88.41-1.34 1.09-2.28 1.3-.54.13-1.22-.33-1.85-.45-.36-.06-.76.1-1.11 0s-.86-.36-1.3-.39a3.41 3.41 0 00-2.27.69c-.5.44-.76 1-1.42 1.32-1.07.43-1.6-.36-2.28-.74a9.58 9.58 0 01-1.36-1.2.3.3 0 00-.15-.07l.11 2.93c.29.23.58.46.86.7a3.28 3.28 0 001.25.69 7.47 7.47 0 001.89-.08 3.11 3.11 0 001.65-1c.44-.76 1.18-.72 1.78-1 1-.42 1.79.37 2.7.48.75.08 1.41.81 2.24.21.42-.31.84-.59 1.27-.88a10.16 10.16 0 001.47-1c.52-.51.86 0 1.25.1.83.2 1.32 1.06 2.29 1 .12 0 .25.18.39.19.43 0 .58.25 1 .27h.45c.31.1.79.32 1.18-.11a2.72 2.72 0 011-.66 11.2 11.2 0 011.9-.65z" fill="currentColor"/></svg>