<svg xmlns="http://www.w3.org/2000/svg" viewBox="0 0 113.79 74.38"><path d="M10.29 71.15c-.41 3.23-1 4.36-1.5 1.9-.66-3.42-1.53-12.17-2.07-18.87-.79-10.27-1.53-21-3.5-31.46C2.53 19.1 1.78 15.48.9 11.89A21.53 21.53 0 010 6.06a6.34 6.34 0 011-3.29A4.84 4.84 0 014 .78a15.79 15.79 0 013-.2h2.8L15.45.5 26.62.4C36.25.33 46 .42 55.5.28 64.12.15 72.77.2 81.39.21h11.74c3.86 0 7.49-.21 11.32-.21 10.25.2 12 2.24 5.66 2.93-4.81.52-15.86.34-22.11.33-8.94 0-17.84-.08-26.8 0H6.73a14.88 14.88 0 00-1.83.06 2.22 2.22 0 00-2 1.39A6.7 6.7 0 002.71 8c.13 1 .42 2.07.68 3.21s.55 2.22.79 3.34c.52 2.22 1 4.45 1.47 6.68Q7 27.9 8.07 34.67a249.48 249.48 0 012.49 25.89 66.43 66.43 0 01-.27 10.59z" fill="currentColor"/></svg>