<svg xmlns="http://www.w3.org/2000/svg" viewBox="0 0 162.19 136.49"><path d="M113.64 8.32c-1 .63-1.94 1.41-2.93 2.08s-2.3 1.39-3.39 2.19A36.06 36.06 0 00103 16.1c-.37.35-1.17 1.12-1.54 1.42s-.44.47-.73.67l-.17.11a1.14 1.14 0 00-.53.63c-.09.27-.16.76.16.84s.79-.21 1.06-.34.67-.54 1-.76 1.34-1.2 1.79-1.51c.75-.52 1.45-1.15 2.22-1.71 1.23-.94 2.51-1.74 3.82-2.59.86-.56 1.71-1.19 2.6-1.71s1.61-.9 2.44-1.35 1.74-.89 2.58-1.38a14.67 14.67 0 002.3-1.57 3.77 3.77 0 00.77-1.55.81.81 0 00-.23-.7 3.8 3.8 0 00-.84-.47c-.92.11-1.52.16-1.68 1.27-.09.58-1.17 1-1.86 1.47-.8.52-1.7.93-2.52 1.45zm12.1 2.8l-3.16 1.32c-1 .46-2.08.94-3.07 1.45-1.77.9-3.46 2.07-5.1 3.09a32.43 32.43 0 01-4.25 2.45c-1 .37-.46.88-.47 1.36a1.41 1.41 0 00.83.13c.2-.05.34-.43.55-.55.52-.3 1.28-.68 2.06-1.06l2.1-1a7.91 7.91 0 001-.52 60.64 60.64 0 015.33-2.94c.55-.28 1.2-.24 1.76-.47s1.16-.72 1.79-1a10.46 10.46 0 011.89-.58l1.32-2.61c-.53.13-1 .28-1.45.43s-.73.38-1.13.5zm-4.68 6.73c-1.13.56-4.24 2-5.28 2.63a1 1 0 01-.28.11.85.85 0 00-.84.71 1.06 1.06 0 00.17.89.82.82 0 00.83 0c.32-.2.44-.53.76-.68.81-.38 3.82-1.78 4.71-2.09a34.5 34.5 0 003.32-1.53l1.13-2.23a18.13 18.13 0 00-2 .81c-.88.4-1.67.97-2.52 1.38zM92 18.87a1.72 1.72 0 00.54.14 5.23 5.23 0 001.22-.74l2.55-2.83a30.57 30.57 0 015.11-4.32c3.24-2.34 5.74-5.07 8.68-7.29.34-.24.86-.31 1.1-.63 1.19-1.54-.85-1.62-1.28-1.66a5.65 5.65 0 01-.51.39c-.77.49-1.82 1.73-2.5 2.28-.89.7-2.24 1.85-3 2.63-.42.41-1.89 1.47-3.25 2.59s-2.63 2.18-2.83 2.38c-.49.5-2.31 2-2.81 2.43-.31.24-1.94 2.31-2.26 2.53s-.55.06-.74.4-.53 1.51-.02 1.7zM125.42 7.2a27.68 27.68 0 00-3.75 1.44c-1 .47-2 1.1-3 1.67-1.49.86-2.91 1.66-4.33 2.55-1.25.76-2.5 1.45-3.67 2.25a50.75 50.75 0 00-5.17 3.77 1.24 1.24 0 00-.17.91.8.8 0 00.51.52c.12 0 .36-.21.52-.37l.93-1.07a30.25 30.25 0 012.91-2c.83-.45 1.74-.71 2.57-1.19 1.81-1.06 3.61-2.08 5.54-3.05 1.51-.76 3.06-1.38 4.66-2.05a2.5 2.5 0 00.43-.25c.64-.13 1-.13 1.38-.25s.57-.43.88-.44c.59 0 1.58-.71 1.59-1.27.06-.92-.78-1.47-1.83-1.17zM115 3.18a.91.91 0 00-1.47-.13c-.69.64-1.26 1.4-2 2l-2.62 2.08c-.87.72-1.72 1.44-2.54 2.18-.41.36-1.54.92-1.94 1.28-.85.73-1.72 1.43-2.57 2.11-.62.49-1.29.91-1.88 1.46l-1.88 1.69c-.31.28-1.47 1.37-1.76 1.68-.07.07-.68.66-.75.59-.42.63.14.7.4.8.69.25 1.06-.48 1.51-.93s1.74-1.67 2.24-2.07c.79-.64 1.71-1 2.52-1.61s1.9-1.54 2.83-2.31 3-2 4.09-2.81 2.1-1.39 3.08-2.18S114 5.24 115 4.51c.71-.51.29-.93 0-1.33zm8.35 16.88l-.62.41a2.49 2.49 0 01-.49.3c-.57.27-1.14.5-1.71.73s-1.09.35-1.61.62c-.13.08-.16.43-.23.66.11.37.5.78 1.29.24s1.9-.77 2.48-1.21zM91.62 5.52c.82-.82 1.66-1.65 2.53-2.46.23-.22.5-.58.74-.56.74 0 .69-.38.74-.83s0-.8-.17-1.06-.79-.67-1.08-.6a3.18 3.18 0 00-1.31.99c-.51.54-1 1.1-1.46 1.65zm1.95 3.54c1.59-1.57 3.29-3.06 5.07-4.54.34-.28.78-.45 1.09-.74a5.29 5.29 0 00.62-.92 11 11 0 00.83-1.14c.25-.48.07-.77-.37-.89a2.54 2.54 0 00-2.19.17c-.25.16-.34.48-.55.7-.82.9-1.64 1.81-2.47 2.71S94 6.24 93.21 7.13c-.52.55-1 1.07-1.57 1.59v2.5l.3-.33c.56-.59 1.06-1.25 1.63-1.83zm2.63 2.25c.9-.83 1.76-1.71 2.65-2.54.64-.61 1.65-1.37 2.67-2.15a18.46 18.46 0 002.61-2.18c.48-.56 2.27-.62 1.52-2.13-.16-.23-.31-.64-.49-.66a2.9 2.9 0 00-1.68.12 11.69 11.69 0 00-1.54 1.67c-1 1-3.34 2.68-4.28 3.66l-3 3.21c-.59.6-2 2.19-2.94 3.33v2l.74-.62c.37-.32 1.11-1.1 1.87-1.85s1.5-1.53 1.87-1.86zM77.85 6.77c-.67 1-1.23 2.05-1.88 3-.75 1.23-1.57 2.23-2.28 3.39A40.27 40.27 0 0071 18.05c-.21.45-.66 1.49-.89 1.91s-.23.62-.42.91l-.12.18a1.18 1.18 0 00-.26.77c0 .28.14.76.47.73s.67-.52.87-.74.41-.77.67-1.11.8-1.58 1.1-2.06c.5-.78.91-1.64 1.4-2.46.8-1.29 1.66-2.56 2.54-3.86.57-.86 1.12-1.72 1.73-2.57s1.12-1.49 1.7-2.22 1.25-1.48 1.82-2.28a15.41 15.41 0 001.47-2.36 3.54 3.54 0 00.09-1.72.82.82 0 00-.49-.56 3.16 3.16 0 00-.94-.1c-.79.48-1.31.77-1 1.85.15.56-.66 1.41-1.12 2.07S78.39 6 77.85 6.77z" fill="currentColor"/><path d="M90 4.49c-1.56 1.71-3.15 3.29-4.55 5.07-.63.79-1.21 1.6-1.78 2.4L82 14.44a36.48 36.48 0 01-3 3.93c-.74.71-.08 1 .1 1.44a1.49 1.49 0 00.82-.22c.16-.13.15-.53.3-.73.72-1 2.24-2.57 3.06-3.51.25-.28.49-.58.71-.88 1.17-1.6 2.38-3.29 3.72-4.83.39-.45 1-.71 1.41-1.15s.76-1.14 1.23-1.66.85-.87 1.28-1.31V2.6c-.56.65-1.1 1.26-1.63 1.89zm-1.55 8.08c-.81.92-3.08 3.59-3.81 4.52a1.29 1.29 0 01-.21.21.83.83 0 00-.5 1 1 1 0 00.52.74.8.8 0 00.77-.3c.21-.31.2-.67.43-.93l1.72-1.95L89.16 14c.84-.88 1.65-1.84 2.49-2.74V8.72c-.5.51-1 1-1.45 1.53-.65.75-1.14 1.59-1.75 2.32zM61.77 24.8a2 2 0 00.55-.08 5.87 5.87 0 00.87-1.13c.15-.35 1.15-3.19 1.3-3.6a31.41 31.41 0 013.14-5.91c.52-.85 1-1.71 1.43-2.58s.86-1.69 1.27-2.5c.8-1.7 1.57-3.37 2.5-4.93.21-.36.66-.63.76-1 .49-1.89-1.39-1.15-1.81-1a5.22 5.22 0 01-.31.54c-.52.72-1 2.3-1.42 3.07-.54 1-1.35 2.55-1.8 3.58-.23.53-1.17 2.12-2 3.63s-1.61 3-1.72 3.29-.49 1-.85 1.65-.7 1.34-.85 1.65-1 2.85-1.17 3.17-.48.27-.53.66.15 1.49.64 1.49zM88.1 1.07a24.85 24.85 0 00-2.81 2.81c-.75.87-1.36 1.82-2 2.71l-3 4.06c-.84 1.18-1.72 2.34-2.5 3.53a57.43 57.43 0 00-3.34 5.46 1.21 1.21 0 00.19.9.88.88 0 00.68.3c.13 0 .26-.32.34-.53.16-.45.31-.9.46-1.35a27.91 27.91 0 011.91-3c.6-.72 1.34-1.35 1.91-2.12 1.26-1.64 2.51-3.35 3.89-5 1.09-1.25 2.24-2.52 3.42-3.75a1.57 1.57 0 00.29-.39 10.2 10.2 0 001.15-.79c.24-.22.34-.63.62-.77.53-.27 1.13-1.31.92-1.82-.33-.82-1.31-.97-2.13-.25zm-11 .43a.9.9 0 00-1.38.5c-.39.85-.61 1.75-1 2.58-1.06 2-2.17 3.89-3.1 5.92-.24.49-1.06 1.47-1.3 1.94-.52 1-1 1.94-1.57 2.92-.39.7-.86 1.35-1.21 2.05l-1.1 2.3-1 2.2c0 .09-.39.86-.48.83-.15.75.39.6.67.58.75 0 .82-.8 1.07-1.41s1-2.24 1.3-2.77c.5-.86 1.21-1.58 1.73-2.45.62-1 1.19-2.1 1.75-3.2a22.34 22.34 0 011.32-2.11c.51-.72 1-1.44 1.38-2.06.61-1.08 1.38-2.13 2-3.21S77 3.8 77.61 2.73c.44-.73-.1-.97-.51-1.23zm14.57 12.14l-.93 1.08c-.42.48-.85.94-1.28 1.38s-.86.79-1.23 1.24c-.1.12 0 .46 0 .7.25.3.79.5 1.3-.33a8.42 8.42 0 012.1-2.11zm-35.18-1.1c.45-1.09.92-2.17 1.43-3.22.13-.28.24-.72.46-.8.71-.24.5-.61.38-1s-.27-.75-.55-.91-1-.33-1.22-.15a3.09 3.09 0 00-.87 1.33c-.27.69-.5 1.4-.73 2.1zm3.12 2.55c.9-2 1.89-4.11 3-6.1.21-.38.55-.71.72-1.1a6.5 6.5 0 00.23-1.1 11.52 11.52 0 00.33-1.35c0-.54-.22-.75-.68-.7a2.5 2.5 0 00-2 1c-.16.23-.13.58-.24.85-.44 1.13-.87 2.27-1.27 3.43s-.75 2.32-1.2 3.43c-.28.68-.56 1.37-.85 2.06l.94 2.31.16-.41c.33-.77.54-1.58.86-2.32zm3.28 1.09c.53-1.09 1-2.2 1.51-3.34.69-1.65 2.65-4.3 3.23-6 .23-.71 1.86-1.38.59-2.52-.24-.16-.53-.49-.71-.44a2.71 2.71 0 00-1.51.74 12.67 12.67 0 00-.78 2.14c-.55 1.25-2.07 3.74-2.57 5s-1.09 2.75-1.62 4.11c-.31.8-1 2.73-1.49 4.19l.73 1.81c.16-.29.32-.58.46-.87.44-.87 1.72-3.9 2.16-4.82zm-18.73 2.64c-.25 1.19-.36 2.39-.59 3.54-.29 1.31-.63 2.64-.86 4a35.84 35.84 0 00-.61 5.54c0 .5-.06 1.6-.1 2.08s0 .65 0 1v.21a1.22 1.22 0 000 .81c.13.25.42.65.71.48s.4-.73.5-1 .09-.85.2-1.26.13-1.77.22-2.32c.15-.93.21-1.87.36-2.79.25-1.49.55-3 .89-4.54.22-1 .4-2 .64-3s.51-1.77.76-2.67.6-1.86.83-2.82a14.29 14.29 0 00.5-2.72 3.69 3.69 0 00-.61-1.72.84.84 0 00-.66-.33 3.61 3.61 0 00-.92.25c-.57.71-.93 1.2-.26 2.09.35.47-.09 1.57-.26 2.36-.18.99-.54 1.85-.74 2.81z" fill="currentColor"/><path d="M54.57 12.2c-.82 2.13-1.68 4.26-2.33 6.38-.57 2-1 3.87-1.39 5.82a34.17 34.17 0 01-1.29 4.76c-.41.94.31 1 .63 1.3a1.48 1.48 0 00.67-.53c.11-.18-.06-.54 0-.78.34-1.15 1.14-3.24 1.54-4.39a9.52 9.52 0 00.34-1.07c.47-2 1-3.93 1.64-5.86.2-.57.67-1 .88-1.62s.29-1.33.53-2 .46-1.13.7-1.7l-1.1-2.7c-.26.82-.52 1.62-.82 2.39zm1.6 8.06c-.19.57-.58 1.69-1 2.81s-.71 2.24-.89 2.81a1 1 0 01-.12.28.84.84 0 00-.1 1.09 1.05 1.05 0 00.76.5.8.8 0 00.6-.58c.08-.37-.07-.69 0-1 .28-.91 1.46-3.94 1.83-4.86.46-1.14.87-2.29 1.3-3.47l-.85-2.34c-.28.66-.55 1.31-.78 2-.32.86-.46 1.84-.75 2.76zm-19.9 21.3c.06 0 .45-.21.47-.28a5 5 0 00.35-1.36c0-.2-.06-1-.12-1.9s-.09-1.69-.1-1.9a20.68 20.68 0 01.13-3.33c.13-1.09.32-2.2.49-3.33.64-3.95.5-7.65 1-11.28.06-.42.37-.83.32-1.24-.26-1.94-1.73-.53-2.06-.25 0 .19 0 .41-.09.62-.2.89-.09 2.49-.18 3.37-.12 1.15-.27 2.9-.3 4 0 .55-.3 2.39-.49 4.14s-.33 3.38-.32 3.68c0 .71-.25 3-.28 3.69 0 .4.28 3 .2 3.37s-.35.42-.24.79.77 1.4 1.22 1.21zM51.56 9.71A31.88 31.88 0 0050 13.35c-.37 1.1-.58 2.22-.88 3.31-.45 1.61-.84 3.26-1.23 4.87l-.54 2.08c-.17.71-.33 1.41-.46 2.11s-.41 1.9-.62 3.16a30.22 30.22 0 00-.4 3.16 1.21 1.21 0 00.51.76.84.84 0 00.74 0c.12-.06.12-.4.11-.62l-.09-1.43a27.28 27.28 0 01.63-3.5c.28-.9.72-1.78 1-2.68.55-2 1.06-4.07 1.75-6.07.52-1.6 1.13-3.19 1.78-4.76a3.11 3.11 0 00.12-.47c.35-.54.6-.84.76-1.17s.08-.73.29-.95a1.91 1.91 0 00.18-2c-.65-.63-1.6-.43-2.09.56zm-10.06 4.5a.91.91 0 00-1.1 1c0 .94.09 1.87 0 2.78-.26 2.23-.52 4.49-.66 6.65 0 .54-.42 1.78-.46 2.3-.09 1.12-.24 2.2-.35 3.29-.08.8-.26 1.58-.31 2.37s-.12 1.67-.14 2.52c0 .42 0 2-.05 2.43 0 .1 0 .93-.11.93.14.74.59.41.84.3.67-.3.42-1.07.41-1.72a28 28 0 01.13-3c.13-1 .48-1.94.64-2.93.19-1.17.3-2.39.4-3.62.09-1.41.74-3.44.92-4.88.15-1.26.51-2.45.64-3.7s0-2.46.15-3.69c.12-.93-.45-.95-.95-1.03zm18.06 5.85c-.19.56-.35 1.05-.46 1.36-.21.59-.45 1.16-.68 1.73s-.51 1.06-.68 1.62c0 .15.2.42.31.63.35.19.92.16 1.08-.8a9.06 9.06 0 011.16-2.73zM26.57 32.37c0-1.16 0-2.32.07-3.52 0-.31-.06-.76.12-.92.55-.51.21-.78-.07-1.12s-.54-.6-.86-.63-1 .1-1.19.36a3.28 3.28 0 00-.27 1.59c0 .74.06 1.46.12 2.2zm3.9 1.14a63.09 63.09 0 01.39-6.82c0-.43.22-.88.24-1.3a5.34 5.34 0 00-.2-1.09 10.69 10.69 0 00-.21-1.38c-.15-.51-.48-.6-.89-.38a2.45 2.45 0 00-1.45 1.67c-.06.29.1.59.11.89 0 1.21.09 2.43.13 3.65s.22 2.45.26 3.65v2.22l1.77 1.75v-.44c-.03-.8-.15-1.61-.15-2.42zm3.44-.28C34 32 34 30.8 34 29.55c0-1.73.78-5 .71-6.78 0-.73 1.2-2-.41-2.57-.28-.05-.67-.24-.82-.13-.44.35-1 .79-1.12 1.25a11.75 11.75 0 00.1 2.29c0 1.4-.51 4.23-.46 5.62s0 2.93.1 4.42c0 .87.14 2.92.27 4.42l1.39 1.37.09-1c.05-.89-.04-4.24.06-5.21zm-16.09 9.99c.23 1.17.64 2.31.94 3.48.34 1.33.54 2.64.92 3.92a36.28 36.28 0 001.89 5.22c.22.45.7 1.46.87 1.9s.32.56.42.89l.06.2a1.18 1.18 0 00.42.69c.23.16.66.39.85.12s0-.8 0-1.09a12.33 12.33 0 00-.41-1.21c-.14-.53-.7-1.63-.84-2.15-.25-.87-.63-1.74-.91-2.64-.49-1.47-.78-2.92-1.16-4.45-.24-1-.54-2-.71-3s-.29-1.83-.43-2.76-.23-2-.39-2.92a13.24 13.24 0 00-.66-2.71 3.62 3.62 0 00-1.17-1.27.83.83 0 00-.74 0A3.05 3.05 0 0016 36c-.22.9-.38 1.48.6 2 .51.27.54 1.46.72 2.27.23 1.01.29 2.01.5 2.95zm6.86-10.37c.08 2.28.15 4.59.41 6.8.23 2 .73 4 1.11 5.85a32.49 32.49 0 01.85 4.81c0 1 .68.73 1.12.9.06 0 .36-.44.39-.71s-.28-.46-.32-.7c-.1-.59-.21-1.42-.3-2.28s-.12-1.69-.17-2.3a10.2 10.2 0 00-.14-1.11 56.86 56.86 0 01-.89-6c-.06-.61.19-1.22.17-1.82s-.26-1.34-.3-2 0-1.24 0-1.87l-2.08-2c.04.76.12 1.58.15 2.43z" fill="currentColor"/><path d="M29.35 39.58c.13 1.28.4 4.68.61 5.88a1.68 1.68 0 010 .3.84.84 0 00.36 1 1.06 1.06 0 00.9.15.81.81 0 00.29-.77c-.08-.37-.36-.61-.38-1-.07-.89-.32-4.2-.3-5.15 0-1.21-.13-2.44-.21-3.7l-1.77-1.75c0 .72 0 1.43.07 2.13.08 1.04.34 1.98.43 2.91zM21 66.89s.27-.39.25-.46a5 5 0 00-.33-1.32l-2-3.21a18.72 18.72 0 01-1.41-3c-.42-1-.77-2.12-1.09-3.19-1.22-3.82-2.93-7.08-4-10.63-.11-.4 0-.92-.22-1.26-1-1.66-1.81.27-2 .67.05.18.14.39.19.61.2.9 1 2.33 1.31 3.16.38 1.08 1 2.72 1.47 3.76.24.52.82 2.29 1.4 3.92s1.27 3.18 1.41 3.43.44 1 .72 1.69.61 1.38.74 1.69 1.56 2.53 1.66 2.88-.07.52.2.79 1.35.83 1.7.47zm-.1-35.12a31.51 31.51 0 000 4c.08 1.13.34 2.25.53 3.38.28 1.69.52 3.3.87 5 .29 1.44.5 2.84.85 4.21.17.63.48 1.89.82 3.1a20.68 20.68 0 001 3 1.2 1.2 0 00.8.46.78.78 0 00.65-.29c.08-.1-.09-.41-.18-.6l-.69-1.22a29.48 29.48 0 01-1-3.4c-.14-.93-.07-1.87-.23-2.81-.38-2-.71-4.11-.93-6.25-.2-1.69-.22-3.35-.29-5.08a2.47 2.47 0 00-.08-.49c.1-.65.23-1 .24-1.38s-.2-.69-.1-1c.19-.56-.11-1.72-.63-1.93-.73-.37-1.53.22-1.63 1.3zm-7.43 8.39a.92.92 0 00-.64 1.35c.35.88.88 1.68 1.17 2.57.35 1.06.71 2.12 1.06 3.19s.78 2.12 1.2 3.13c.21.51.38 1.77.57 2.26.39 1 .78 2.06 1.18 3.1.27.75.45 1.52.76 2.23l1.06 2.29 1.05 2.15c0 .08.43.82.35.87.49.58.71.08.87-.13.45-.55-.11-1.1-.42-1.66s-1.08-2.15-1.3-2.74c-.33-.92-.42-1.91-.73-2.86-.38-1.14-.84-2.28-1.26-3.41s-.9-3.46-1.29-4.8-.6-2.45-1-3.65-1-2.22-1.38-3.42c-.23-.84-.78-.63-1.25-.47zm18.89-2.09c.06.59.11 1.11.14 1.44 0 .62.06 1.24.08 1.85a14.27 14.27 0 000 1.73c0 .16.35.3.53.46.39 0 .91-.21.68-1.14a9.21 9.21 0 01-.06-3zM8.06 63.4c-.59-1-1.12-2.1-1.6-3.18-.13-.29-.4-.65-.32-.88.27-.72-.15-.8-.57-1s-.75-.27-1.06-.15-.88.59-.89.9a3.09 3.09 0 00.47 1.55c.34.66.77 1.31 1.17 1.93zm3.94-.86a54.33 54.33 0 01-2.78-6.25c-.15-.41-.18-.89-.36-1.28a5.82 5.82 0 00-.69-.9A12.08 12.08 0 007.36 53c-.37-.39-.71-.32-1 .08a2.71 2.71 0 00-.54 2.2c.08.28.36.48.5.75.56 1.08 1.17 2.16 1.8 3.22s1.31 2.08 1.89 3.13l1.08 2 2.4.69-.23-.38c-.4-.78-.89-1.43-1.26-2.15zm2.92-1.84l-1.59-3.3c-.82-1.6-1.53-4.84-2.41-6.42-.39-.66.2-2.37-1.51-2.15-.28.08-.72.08-.79.26a3 3 0 00-.44 1.66 11.6 11.6 0 001.09 2c.55 1.25 1.49 4.09 2.11 5.25s1.42 2.62 2.14 3.88c.44.76 1.45 2.5 2.34 3.76l1.87.54c-.13-.29-.26-.59-.4-.88-.43-.8-1.98-3.67-2.41-4.6zM5.85 77.41c.8.88 1.81 1.64 2.67 2.46 1 .94 1.84 1.93 2.92 2.77.74.59 1.47 1.15 2.2 1.68.37.26.73.51 1.12.74s.8.45 1.21.65 1.41.7 1.8.93.57.23.84.42l.16.1a1.07 1.07 0 00.74.25c.29 0 .76-.1.75-.39s-.41-.59-.61-.78-.71-.39-1-.64-1.54-.81-1.94-1.14c-.69-.53-1.48-1-2.22-1.56a34.36 34.36 0 01-3.42-3c-.72-.71-1.57-1.4-2.24-2.17S7.62 76.33 7 75.6 5.77 74 5.17 73.26a14.41 14.41 0 00-1.93-2.05 3.48 3.48 0 00-1.65-.51.84.84 0 00-.66.37A4.43 4.43 0 00.6 72c.26 1 .4 1.55 1.53 1.5.57 0 1.24 1 1.81 1.62s1.24 1.58 1.91 2.29zm.75-12.67l.86 1.49.91 1.48c.62 1 1.23 1.92 1.88 2.82 1.23 1.61 2.64 3 3.93 4.44a37 37 0 013.25 3.52c.6.79 1 .25 1.44.17a1.33 1.33 0 00-.05-.77c-.09-.18-.48-.24-.64-.41A31.39 31.39 0 0115.39 74c-.21-.29-.44-.58-.68-.86a40.64 40.64 0 01-3.77-4.74c-.34-.5-.45-1.17-.76-1.68S9.32 65.62 9 65s-.64-1-.94-1.6l-2.8-.81c.46.72.92 1.41 1.34 2.15z" fill="currentColor"/><path d="M14 68.4c.74 1 2.62 3.81 3.45 4.69a1.31 1.31 0 01.16.25.84.84 0 00.84.67 1 1 0 00.84-.3.71.71 0 00-.14-.77c-.25-.26-.61-.33-.82-.61-.53-.7-2.32-3.38-2.82-4.23-.6-1-1.27-2-1.93-3.11l-2.4-.69c.35.62.7 1.24 1.07 1.82.47.81 1.12 1.5 1.75 2.28zm8.17 25.36c0-.06 0-.43-.09-.46a4.94 4.94 0 00-1.08-.62c-.32-.08-3.07-.8-3.49-1a11.93 11.93 0 01-3-1.28c-.92-.53-1.91-1.13-2.82-1.78-1.56-1.16-3.29-2.17-4.85-3.21a45.7 45.7 0 01-4.57-3.35c-.32-.28-.5-.8-.87-1-1.76-.79-1.4 1.36-1.3 1.83.15.13.34.26.51.43a27.86 27.86 0 002.87 2c.46.35 1 .8 1.65 1.22s1.26.81 1.75 1.1 2 1.43 3.48 2.35 3 1.69 3.2 1.8c.61.29 2.72 1.29 3.29 1.54a15.12 15.12 0 001.56.44c.71.16 1.43.29 1.58.37.32.17.28.41.65.41s1.53-.36 1.53-.79zM2.77 65.67a28.27 28.27 0 002 3.56A32.9 32.9 0 006.88 72C8 73.28 9 74.54 10.16 75.77c1 1.07 1.88 2.14 2.95 3.09.48.44 1.42 1.31 2.37 2.09A16.68 16.68 0 0018 82.74a1.35 1.35 0 00.92-.07.71.71 0 00.38-.56c0-.11-.29-.26-.49-.36-.43-.19-.85-.37-1.26-.58A26.08 26.08 0 0114.89 79c-.66-.68-1.05-1.5-1.69-2.2s-1.41-1.54-2.07-2.34-1.31-1.69-1.94-2.56a44.49 44.49 0 01-2.76-4.31 2.2 2.2 0 00-.31-.39 11.54 11.54 0 00-.48-1.36c-.14-.3-.5-.52-.55-.82-.09-.59-.9-1.48-1.47-1.41-.86.11-1.35 1.03-.85 2.06zM.54 77.11a1 1 0 00.18 1.55c.78.58 1.65 1 2.37 1.6.9.74 1.74 1.47 2.64 2.16s1.84 1.36 2.76 2c.47.3 1.27 1.25 1.75 1.53L13 87.7a15.82 15.82 0 002 1.24c.76.37 1.49.74 2.22 1.06a18.37 18.37 0 002.14.86c.09 0 .85.3.81.38.73.09.6-.38.6-.62 0-.62-.81-.64-1.37-.86a25.71 25.71 0 01-2.65-1.19 24 24 0 01-2.29-1.72c-.94-.66-2-1.29-3-2s-2.67-2.33-3.77-3.25-1.81-1.76-2.81-2.57-2.1-1.36-3-2.23c-.67-.58-1-.06-1.34.31zm15.32-11.44l.8 1.17c.34.52.65 1 .94 1.56a13.62 13.62 0 00.9 1.46c.09.12.45.1.69.14.36-.15.63-.59 0-1.27a8.85 8.85 0 01-1.46-2.52zM10.35 100c-1.12-.41-2.29-.85-3.41-1.38-.29-.14-.74-.26-.83-.51-.27-.77-.64-.54-1.07-.41s-.75.28-.9.59a1.78 1.78 0 00-.07 1.37 3.07 3.07 0 001.47.93c.74.28 1.48.51 2.21.73zm2.29-3.35c-1.06-.4-2.06-.87-3.11-1.38a30.19 30.19 0 01-3.1-1.72c-.37-.24-.69-.62-1.08-.83a5.58 5.58 0 00-1.1-.31A11.6 11.6 0 002.88 92c-.54-.1-.75.18-.7.68a3.08 3.08 0 001 2.24c.23.2.58.18.85.31 1.19.52 2.38 1 3.54 1.44s2.31.8 3.52 1.17l2.15.75 2.22-1.13-.46-.17c-.76-.22-1.58-.37-2.36-.64zm1.02-3.3L12 92.62l-1.64-.79a28.87 28.87 0 01-3-1.86A22.41 22.41 0 004.49 88c-.68-.28-1.29-2.12-2.49-.9-.16.24-.51.51-.47.72a3.43 3.43 0 00.64 1.72 10.68 10.68 0 002.08 1c1.29.71 3.73 2.45 5 3 1.42.58 2.82 1.12 4.17 1.59a30.92 30.92 0 004.24 1.14l1.74-.88-.86-.33c-.42-.16-1.49-.41-2.42-.79s-2-.72-2.46-.92zm5.44 18.2c1.24 0 2.4-.21 3.6-.33 1.38-.14 2.73-.18 4-.37a30.51 30.51 0 005.35-1.29c.47-.18 1.51-.55 2-.68s.58-.26.91-.33h.2a1.19 1.19 0 00.71-.36c.19-.21.45-.62.22-.83s-.77-.11-1-.1-.81.24-1.22.29-1.66.53-2.18.62c-.88.16-1.77.45-2.69.63-1.48.28-2.95.41-4.52.57-1 .11-2 .18-3.08.21s-1.9 0-2.83-.07-2-.2-3-.25a21.17 21.17 0 00-2.87 0 3.37 3.37 0 00-1.5.84.87.87 0 00-.18.76 3 3 0 00.51.92c.91.46 1.48.76 2.19-.11.38-.45 1.59-.21 2.41-.19.93.01 1.99.09 2.97.07z" fill="currentColor"/><path d="M10.21 102c1.16.33 2.3.65 3.42.93q.82.21 1.65.39c.57.09 1.14.18 1.7.24 1 .12 2 .17 3 .2s2 0 2.94-.08l2.41-.1a16.72 16.72 0 012.33 0c.94.1.82-.57 1.07-1 0 0-.35-.39-.6-.44s-.5.21-.73.22-.64 0-1 0l-1.16-.06-2.23-.18c-.36 0-.74 0-1.09-.06-1 0-1.94-.06-3-.14-.51 0-1-.08-1.53-.14s-1-.16-1.49-.26-1.11-.52-1.71-.68-1.41-.11-2.05-.32-1.18-.4-1.77-.62l-2.6 1.32c.81.33 1.64.56 2.44.78zm7.85-2.49c.62.08 1.7.32 2.84.44s2.25.19 2.82.22a1.45 1.45 0 01.27 0 .82.82 0 001-.17 1.13 1.13 0 00.37-.81.63.63 0 00-.59-.4c-.36 0-.65.22-1 .19s-1.46-.11-2.44-.29-2-.39-2.44-.49c-1.19-.25-2.34-.52-3.52-.84l-2.22 1.13c.67.23 1.33.44 2 .61 1 .26 1.99.26 2.91.41zM43 111.25s-.36-.33-.43-.32a5.06 5.06 0 00-1.39.23l-3.38 1.64a16.29 16.29 0 01-3.08 1.14c-1.06.29-2.19.57-3.28.77-1.94.38-3.82 1-5.62 1.43a38.11 38.11 0 01-5.5 1.21c-.43.05-1-.15-1.33 0-1.83.77.08 1.87.47 2.13.19 0 .41-.07.64-.08a28 28 0 003.36-.86 34.56 34.56 0 003.95-1c.56-.19 2.39-.54 4.07-1s3.28-.95 3.55-1.06l3.51-1.13c.18-.06.85-.4 1.5-.74a13.31 13.31 0 011.51-.73c.38-.07.53.14.83-.1s.92-1.19.62-1.53z" fill="currentColor"/><path d="M8.21 105.45a19.56 19.56 0 004 1.24c1.18.23 2.34.27 3.47.38 1.72.15 3.45.17 5.07.19 1.44 0 2.9 0 4.27-.17.61 0 1.9-.19 3.13-.39a20 20 0 003-.67 1.25 1.25 0 00.56-.73.79.79 0 00-.18-.66c-.08-.09-.38 0-.58.1l-1.28.55a19.67 19.67 0 01-3.41.53c-.9 0-1.81-.19-2.76-.16s-2 0-3.08-.06a26 26 0 01-3.18-.25q-1.25-.19-2.52-.45l-1.3-.28-1.25-.35a2.24 2.24 0 00-.49-.07 12.28 12.28 0 00-1.3-.68c-.33-.12-.75 0-1-.22-.54-.36-1.73-.49-2.09 0-.6.7-.15 1.7.92 2.15zm7.14 9.87a1 1 0 001.3.92c.93-.17 1.81-.54 2.76-.7a56 56 0 006.66-1.33c.53-.14 1.81-.16 2.31-.29l3.21-.84c.77-.2 1.53-.28 2.28-.55l2.37-.82c.4-.14 1.84-.68 2.23-.86.09 0 .87-.34.9-.26.63-.42.16-.7 0-.88-.52-.47-1.11 0-1.69.28s-2.22.86-2.83 1c-1 .27-1.92.23-2.9.46-.58.12-1.16.27-1.75.43l-1.75.45a49.55 49.55 0 01-4.93.66c-1.23.19-2.56.25-3.81.42s-2.39.63-3.67.73c-.94.08-.76.68-.69 1.18zm2.25-19.01l1.34.28c.56.14 1.16.26 1.74.38a13.75 13.75 0 001.62.34c.14 0 .39-.25.58-.38.16-.35.1-.84-.83-.82a6.62 6.62 0 01-2.71-.68zm20.58 27.41c-1.08.45-2.18.9-3.31 1.3-.3.1-.69.33-.9.22-.69-.34-.8.07-1 .47s-.35.72-.26 1 .5.94.8 1a3 3 0 001.59-.35c.69-.3 1.35-.63 2-1zm-.46-4.01c-1 .43-2.09.79-3.17 1.16s-2.2.72-3.32 1c-.42.11-.9.09-1.31.23a4.72 4.72 0 00-1 .58 9.93 9.93 0 00-1.24.7c-.44.33-.39.67 0 1a2.72 2.72 0 002.15.78c.29 0 .52-.3.79-.41 1.15-.47 2.29-1 3.39-1.5l3.29-1.58c.69-.31 1.38-.59 2.06-.88l.94-2.31-.4.19c-.71.33-1.42.73-2.18 1.04zm-1.54-3.09l-3.44 1.27a27.25 27.25 0 01-3.33.86 20.3 20.3 0 00-3.35.85c-.7.33-2.37-.49-2.32 1.25.05.29 0 .73.18.83a3.23 3.23 0 001.64.64 11.58 11.58 0 002.15-.85c1.33-.44 4.22-1.07 5.46-1.56s2.75-1.18 4.08-1.76c.77-.32 2.65-1.26 4-2l.73-1.81c-.3.1-.61.19-.91.3-.93.36-3.93 1.66-4.89 1.98zm15.27 11.1c1-.67 1.9-1.45 2.88-2.11s2.29-1.47 3.37-2.24a44.31 44.31 0 004.38-3.48c.37-.35 1.21-1.12 1.6-1.42s.46-.47.77-.67l.17-.11a1.25 1.25 0 00.57-.61c.09-.27.18-.76-.16-.85s-.84.21-1.12.33-.7.55-1.08.76-1.38 1.15-1.85 1.47c-.77.52-1.48 1.17-2.25 1.74-1.24.88-2.53 1.73-3.83 2.61-.86.56-1.69 1.17-2.57 1.73s-1.6 1-2.4 1.41-1.71.92-2.54 1.45a16.12 16.12 0 00-2.24 1.64 3.73 3.73 0 00-.73 1.57.86.86 0 00.25.7 2.69 2.69 0 00.84.44c.91-.14 1.49-.22 1.63-1.33.07-.58 1.14-1.07 1.81-1.51s1.7-.97 2.5-1.52z" fill="currentColor"/><path d="M39.33 125.32c2.11-1 4.18-1.86 6.14-3 1.75-1 3.37-2.13 5-3.25.56-.37 1.33-.88 2.11-1.35a14.13 14.13 0 012.14-1.18c1-.38.46-.9.45-1.37a1.46 1.46 0 00-.85-.1c-.2.05-.34.43-.56.56-1.05.64-3 1.55-4.16 2.12-.33.17-.67.35-1 .55-1.68 1-3.43 2.18-5.24 3.09-.54.27-1.2.28-1.75.54s-1.14.78-1.76 1.07-1.13.49-1.7.72l-1.09 2.7c.78-.42 1.52-.75 2.27-1.1zm4.45-6.93c1.1-.55 4.19-2.17 5.21-2.78a1.07 1.07 0 01.28-.11.83.83 0 00.82-.72 1.06 1.06 0 00-.2-.89.82.82 0 00-.83 0c-.31.21-.43.55-.75.71s-1.35.71-2.3 1.17l-2.36 1.08-3.33 1.6-.94 2.31c.66-.27 1.3-.54 1.93-.85.86-.46 1.69-1.07 2.47-1.52zm29.78-.92a1.91 1.91 0 00-.55-.16 5.2 5.2 0 00-1.3.68L69 120.7a22.37 22.37 0 01-2.53 2.21c-.9.67-1.83 1.29-2.77 2a52.43 52.43 0 00-4.47 3.67c-1.39 1.26-2.72 2.51-4.16 3.61-.33.25-.84.33-1.08.66-1.15 1.57.84 1.58 1.27 1.62a5.62 5.62 0 01.49-.38 33.18 33.18 0 002.45-2.29c.88-.73 2.21-1.84 3-2.62.41-.39 1.89-1.5 3.27-2.56s2.68-2.1 2.89-2.31c.52-.49 2.41-1.89 2.94-2.3.32-.22 2.08-2.23 2.42-2.42s.57 0 .78-.36.5-1.54.06-1.76zM39.8 129.19a24.77 24.77 0 003.67-1.55c1-.53 2-1.19 2.91-1.76 1.45-.88 2.86-1.8 4.26-2.67 1.22-.77 2.47-1.53 3.64-2.33s4.27-2.94 5.19-3.79a1.16 1.16 0 00.17-.91.92.92 0 00-.52-.54c-.13 0-.38.2-.53.36-.32.35-.62.73-1 1.08a29.17 29.17 0 01-2.92 2.07c-.84.45-1.76.75-2.58 1.25-1.78 1-3.58 2.19-5.47 3.18-1.47.76-3 1.53-4.58 2.21a1.75 1.75 0 00-.41.25 12.26 12.26 0 00-1.37.3c-.31.12-.56.46-.87.48-.59.06-1.55.78-1.55 1.34.06.84.92 1.38 1.96 1.03zm10.37 3.7a.89.89 0 001.44.08c.68-.64 1.22-1.38 1.93-2 1.73-1.46 3.46-2.8 5.1-4.3.4-.37 1.53-1 1.94-1.29.84-.71 1.72-1.41 2.59-2.09.64-.49 1.33-.9 1.94-1.42s1.31-1.06 2-1.63l1.86-1.63c.08-.06.72-.62.79-.55.47-.61-.11-.71-.38-.82-.71-.28-1.11.42-1.59.87a29.85 29.85 0 01-2.37 2c-.81.59-1.76 1-2.6 1.58-1 .72-1.92 1.47-2.86 2.27a23.17 23.17 0 01-2 1.44c-.74.47-1.5 1-2.06 1.39-1 .76-2.06 1.44-3 2.23s-1.67 1.78-2.64 2.53c-.78.54-.36.95-.09 1.34zm-8.94-16.7l1.26-.65c.55-.26 1.13-.55 1.69-.79s1.09-.41 1.59-.7c.13-.07.15-.43.22-.66-.12-.38-.54-.76-1.31-.18a8.25 8.25 0 01-2.68 1.17zm31.93 14.64c-.85.78-1.72 1.56-2.61 2.33-.24.2-.51.57-.74.54-.73-.09-.69.34-.76.79s-.07.8.11 1.06.74.72 1 .64a3.14 3.14 0 001.31-.87c.52-.52 1-1 1.51-1.58zm-1.75-3.64c-1.66 1.53-3.4 2.91-5.2 4.35-.34.26-.77.44-1.08.72a5.18 5.18 0 00-.63.9 10.68 10.68 0 00-.83 1.11c-.26.47-.1.77.33.9a2.26 2.26 0 002.13-.11c.24-.15.34-.47.55-.69l2.51-2.6c.84-.86 1.63-1.79 2.49-2.64.53-.52 1.09-1 1.64-1.5l.12-2.5-.32.31c-.58.56-1.12 1.2-1.71 1.75zm-2.53-2.36c-.94.77-1.83 1.63-2.74 2.47-1.29 1.18-4.12 2.89-5.29 4.23-.48.57-2.23.57-1.51 2.11.16.24.29.65.48.67a2.68 2.68 0 001.63-.11 13.53 13.53 0 001.55-1.67c1-1 3.33-2.58 4.3-3.56l3.16-3.07c.62-.6 2.08-2.1 3.13-3.19l.1-1.95c-.27.19-.54.38-.79.58s-1.18 1-2 1.76zm17.97 5.77c.76-.94 1.4-1.94 2.15-2.85.84-1.07 1.77-2.07 2.58-3.13.57-.75 1.14-1.48 1.68-2.24s1-1.56 1.49-2.37c.25-.44.81-1.4 1.09-1.79s.29-.58.52-.85l.14-.16a1.24 1.24 0 00.34-.75c0-.29-.06-.78-.4-.76s-.72.43-.94.62-.5.72-.8 1-1 1.51-1.31 2c-.57.75-1.07 1.54-1.65 2.29-.92 1.21-1.91 2.4-2.91 3.62-.65.78-1.28 1.6-2 2.39S85.62 129 85 129.67s-1.36 1.37-2 2.12a13.06 13.06 0 00-1.63 2.21 3.77 3.77 0 00-.22 1.72.87.87 0 00.43.59 3.41 3.41 0 00.92.17c.81-.4 1.34-.64 1.14-1.74-.1-.58.77-1.34 1.27-2s1.34-1.39 1.94-2.14z" fill="currentColor"/><path d="M74.73 132c1.63-1.61 3.32-3.14 4.84-4.75 1.36-1.49 2.59-3.09 3.84-4.6a33 33 0 013.36-3.67c.81-.64.17-1 0-1.44a1.45 1.45 0 00-.85.15c-.18.11-.2.51-.37.69-.42.45-1 1.07-1.67 1.66l-1.74 1.58a10.07 10.07 0 00-.78.82c-1.31 1.57-2.64 3.08-4.08 4.55-.43.43-1 .65-1.49 1.07s-.83 1.1-1.32 1.57-.89.82-1.34 1.24l-.13 2.87c.58-.61 1.14-1.21 1.73-1.74zm2.01-8c.88-.91 3.37-3.31 4.18-4.24a1.83 1.83 0 01.24-.2.85.85 0 00.59-.94 1 1 0 00-.47-.78.87.87 0 00-.82.26c-.24.3-.25.66-.51.91-.67.66-3.1 2.9-3.83 3.56-.91.85-1.79 1.71-2.68 2.58l-.12 2.5c.52-.48 1-.95 1.54-1.44.67-.7 1.22-1.54 1.88-2.21zm27.91-9.71a2.08 2.08 0 00-.56 0 5 5 0 00-1 1c-.19.33-1.47 3.06-1.66 3.45a34.06 34.06 0 01-3.73 5.57 44.7 44.7 0 00-3.21 4.81c-1 1.61-1.89 3.14-3 4.64-.25.34-.71.56-.85 1-.65 1.84 1.27 1.27 1.69 1.18a5.88 5.88 0 01.35-.51c.59-.68 1.22-2.16 1.71-2.88.63-.95 1.58-2.44 2.13-3.41.28-.51 1.39-1.93 2.39-3.39s1.91-2.84 2-3.09.59-.92 1-1.55l1-1.56c.23-.34 1.23-2.75 1.48-3s.52-.19.6-.58.14-1.64-.34-1.68zm-28.3 21.19a33.33 33.33 0 002.93-2.6c.8-.78 1.48-1.73 2.22-2.58 1.09-1.25 2.17-2.51 3.27-3.78.94-1.12 1.92-2.18 2.81-3.29a59.28 59.28 0 003.89-5.14 1.15 1.15 0 00-.11-.91.84.84 0 00-.65-.37c-.14 0-.3.3-.4.5-.21.43-.38.88-.59 1.31-.08.16-.56.81-1.06 1.46s-1 1.25-1.15 1.37c-.68.66-1.47 1.22-2.12 1.93-1.4 1.59-2.8 3.1-4.29 4.65-1.18 1.23-2.41 2.34-3.66 3.49a1.79 1.79 0 00-.31.38 11.26 11.26 0 00-1.18.72c-.25.21-.38.62-.66.74-.53.24-1.18 1.21-1 1.75.27.89 1.21 1.04 2.06.37zm10.78.43a.87.87 0 001.39-.33c.46-.81.76-1.68 1.27-2.45 1.24-1.9 2.5-3.73 3.64-5.59.29-.44 1.2-1.37 1.49-1.82.6-.94 1.23-1.84 1.86-2.73.46-.65 1-1.24 1.41-1.93l1.34-2.17 1.24-2.08c0-.07.47-.82.55-.78.23-.73-.32-.63-.6-.65-.74 0-.9.72-1.21 1.29s-1.22 2.1-1.59 2.62c-.58.84-1.37 1.46-2 2.26-.73 1-1.4 2-2.07 3s-2.27 2.69-3.09 3.87c-.71 1-1.57 2-2.25 3s-1.08 2.18-1.79 3.18c-.48.74.03 1.02.41 1.31zm-13.57-13.2l1-1c.44-.44.91-.85 1.38-1.28s.93-.74 1.34-1.17c.1-.11 0-.46 0-.7-.24-.32-.78-.54-1.35.26a8.81 8.81 0 01-2.27 2zm35.08 4.29c-.55 1-1.15 2-1.76 3-.16.26-.32.69-.54.74-.73.17-.56.57-.48 1s.18.78.44 1a1.52 1.52 0 001.21.27 3.13 3.13 0 001-1.24c.34-.65.65-1.3.95-2zm-2.85-2.86c-1.1 1.93-2.3 3.92-3.61 5.76-.25.36-.62.65-.84 1a6 6 0 00-.34 1.1 10.94 10.94 0 00-.47 1.32c-.11.53.14.76.59.76a2.52 2.52 0 002.05-.77c.19-.22.19-.56.33-.82.55-1.07 1.1-2.18 1.62-3.28s1-2.23 1.54-3.29l1.07-2-.7-2.4-.2.41c-.35.75-.64 1.5-1.04 2.21zm-3.15-1.41c-.63 1-1.23 2.08-1.84 3.15-.44.76-1.2 1.78-2 2.82a17.81 17.81 0 00-1.8 2.81c-.3.67-2 1.23-.83 2.47.21.18.47.53.65.49a2.84 2.84 0 001.56-.57 11.53 11.53 0 001-2c.68-1.24 2.44-3.52 3.07-4.72s1.38-2.64 2-3.93c.39-.78 1.31-2.6 1.92-4l-.55-1.87-.54.81c-.52.81-2.09 3.67-2.64 4.54zm18.94-.83c.34-1.18.55-2.38.88-3.52.36-1.32.86-2.52 1.15-3.86a38.22 38.22 0 001-5.45c0-.51.1-1.63.17-2.09s0-.65.08-1v-.2a1.19 1.19 0 000-.81c-.12-.26-.39-.67-.68-.53s-.43.68-.53 1-.12.85-.24 1.26-.22 1.73-.34 2.27c-.22.88-.32 1.82-.52 2.74-.31 1.52-.76 2.95-1.2 4.44-.29 1-.54 2-.87 3s-.66 1.71-1 2.59-.76 1.8-1.08 2.74a17.13 17.13 0 00-.76 2.68 3.8 3.8 0 00.4 1.68.88.88 0 00.64.4 2.93 2.93 0 00.95-.17c.63-.7 1.05-1.14.46-2.09-.31-.49.23-1.56.48-2.33.27-.96.72-1.83 1.01-2.75zm-11.06 5.63c.51-1 1-2 1.56-3s1-2.06 1.4-3.1a56.79 56.79 0 001.9-5.65 37.69 37.69 0 011.65-4.6c.47-.91-.23-1-.52-1.34 0 0-.53.23-.69.46s0 .54-.07.77c-.41 1.1-1.35 3.09-1.86 4.23-.15.35-.3.68-.42 1-.66 1.86-1.35 3.79-2.19 5.69-.25.53-.77.94-1 1.48s-.42 1.3-.72 1.91-.57 1.1-.87 1.65l.82 2.8c.29-.83.63-1.56 1.01-2.3zm-.79-8.16c.54-1.1 1.93-4.34 2.36-5.42a1.45 1.45 0 01.14-.25.83.83 0 00.2-1.07 1.08 1.08 0 00-.71-.58.83.83 0 00-.65.5c-.11.36 0 .7-.14 1l-1.08 2.34c-.45 1-1 1.87-1.18 2.31-.57 1.07-1.08 2.2-1.63 3.33l.7 2.4c.34-.63.67-1.26 1-1.9.37-.85.61-1.8.99-2.66zm20.35-19.44c-.06 0-.42.19-.43.26a4.4 4.4 0 00-.23 1.32c0 .18.15 1 .19 1.81s.12 1.63.13 1.83a17.1 17.1 0 01-.08 3.27c-.13 1.11-.42 2.17-.64 3.29-.41 2-.64 3.89-.9 5.72s-.46 3.71-.87 5.52c-.1.41-.46.79-.44 1.2.08 1.93 1.72.69 2.08.41a4.16 4.16 0 01.13-.63 33.37 33.37 0 00.42-3.39 38.4 38.4 0 00.6-4c.05-.58.43-2.41.72-4.12a25 25 0 00.45-3.67c0-.71.26-3 .29-3.6.07-.36-.4-3-.34-3.31s.3-.41.18-.76-.84-1.32-1.26-1.15zm-16.8 30.38a24.79 24.79 0 001.92-3.5c.49-1 .81-2.14 1.21-3.18.6-1.57 1.13-3.21 1.67-4.76.47-1.36 1-2.68 1.33-4.09a42.59 42.59 0 001.43-6.19 1.26 1.26 0 00-.46-.8.81.81 0 00-.71-.07c-.12 0-.14.4-.14.62v1.41a27.6 27.6 0 01-.86 3.42c-.34.88-.84 1.71-1.18 2.58-.72 1.9-1.39 4-2.27 5.89-.68 1.52-1.44 3-2.23 4.59a1.87 1.87 0 00-.17.46 10.33 10.33 0 00-.89 1.06c-.17.28-.16.7-.39.91a1.9 1.9 0 00-.38 2c.53.68 1.52.56 2.12-.35zm10.57-3.6a.93.93 0 001.19-.89c.13-.94.07-1.89.25-2.8.23-1.11.46-2.19.67-3.29s.37-2.23.5-3.32c.07-.54.55-1.72.63-2.24.17-1.08.34-2.18.51-3.28.13-.79.35-1.55.43-2.33a22.61 22.61 0 00.2-2.48v-2.36c0-.09 0-.89.09-.88-.17-.71-.58-.42-.82-.34-.61.24-.35 1-.33 1.62v1.49c0 .6-.12 1.18-.16 1.48-.17 1-.58 1.88-.78 2.87-.22 1.19-.41 2.37-.6 3.57-.21 1.36-.93 3.44-1.25 4.83-.26 1.2-.7 2.4-.94 3.64s-.17 2.48-.47 3.68c-.19.83.41.9.88 1.03z" fill="currentColor"/><path d="M106.36 119.22c.24-.54.45-1 .58-1.32.27-.57.55-1.12.84-1.66s.61-1 .84-1.51c.06-.14-.15-.43-.24-.66-.33-.22-.9-.27-1.16.66a9.41 9.41 0 01-1.41 2.62zM140 108.86c0 1.18 0 2.39-.06 3.62 0 .33 0 .79-.13 1-.61.52-.27.78 0 1.13s.54.6.88.63a1.49 1.49 0 001.25-.42 3.43 3.43 0 00.3-1.67c0-.77-.06-1.53-.12-2.28zm-3.91-1.01v1.72c0 .58-.08 1.12-.13 1.69-.11 1.13-.26 2.3-.45 3.48-.07.45-.28.9-.32 1.36a5.1 5.1 0 00.14 1.1 10.56 10.56 0 00.12 1.39c.13.52.45.62.88.42a2.64 2.64 0 001.61-1.71c.09-.3-.06-.61-.05-.92 0-1.28.06-2.53.05-3.75s-.18-2.49-.22-3.71c0-.74 0-1.49-.05-2.24l-1.83-1.7v.43c.09.8.23 1.59.25 2.44zm-3.44.25c-.08 1.19-.1 2.42-.17 3.68-.08 1.8-1.09 5-1.09 6.79 0 .78-1.36 1.93.24 2.6.28.07.67.29.83.18.47-.33 1.07-.77 1.2-1.24a12.57 12.57 0 00.05-2.3c0-.7.25-1.75.44-2.79a22.47 22.47 0 00.33-2.88c0-1.51.05-3 0-4.4 0-.88-.23-2.95-.42-4.42l-1.42-1.32v.93c0 .47.06 1.51.1 2.59s-.07 2.08-.09 2.58zm15.51-10.87c-.38-1.16-.88-2.25-1.25-3.36-.44-1.27-.88-2.6-1.37-3.83a28.14 28.14 0 00-2.45-5c-.27-.43-.86-1.37-1.08-1.78s-.37-.53-.5-.84l-.08-.19a1.21 1.21 0 00-.49-.63c-.25-.14-.71-.31-.87 0s.05.8.12 1.08.4.75.54 1.14.88 1.54 1.11 2c.35.84.79 1.64 1.16 2.5.59 1.37 1.16 2.84 1.66 4.3.32 1 .68 1.92 1 2.92s.48 1.81.72 2.73.36 1.92.61 2.88a14.69 14.69 0 00.86 2.68 3.52 3.52 0 001.26 1.19.87.87 0 00.75 0 4 4 0 00.71-.72c.16-.94.28-1.55-.75-2-.54-.24-.64-1.42-.88-2.21-.32-.93-.48-1.93-.78-2.86zM142 108.32c-.21-2.38-.37-4.68-.75-6.84-.43-2-1.06-3.91-1.63-5.73-.33-1.22-1.2-3.51-1.35-4.67-.13-1-.75-.65-1.2-.78-.06 0-.3.46-.3.74s.33.43.4.66c.16.57.39 1.4.55 2.22l.38 2.22a10.46 10.46 0 00.24 1.08c.27 1 .57 2 .79 2.93s.39 1.95.53 3c.09.6-.12 1.23-.06 1.85s.37 1.37.39 2 0 1.22.05 1.85l2.13 2c-.09-.85-.17-1.7-.17-2.53zm-5-6.57c-.2-1.25-.69-4.52-1.07-5.7a1.35 1.35 0 010-.29.86.86 0 00-.46-1 1 1 0 00-.89-.09.75.75 0 00-.21.76c.12.35.4.57.48.91s.24 1.42.39 2.45.25 2.06.3 2.54c.15 1.23.28 2.4.37 3.63l1.83 1.7c0-.71 0-1.4-.1-2.08-.2-.95-.53-1.89-.64-2.83zM142.47 74s-.25.41-.23.48a4.76 4.76 0 00.51 1.29c.11.17.65.81 1.19 1.47s1 1.34 1.13 1.5a18.52 18.52 0 011.76 2.79 30.15 30.15 0 011.45 3c.79 1.81 1.74 3.5 2.67 5.17s1.74 3.25 2.47 5c.16.39.11.93.37 1.25 1.23 1.56 1.75-.49 1.9-.92a5.31 5.31 0 01-.25-.58 31.67 31.67 0 00-1.6-3 39.82 39.82 0 00-1.9-3.6c-.3-.5-1.06-2.19-1.81-3.74s-1.64-3-1.81-3.25c-.4-.59-1.43-2.62-1.8-3.19-.21-.36-2-2.31-2.1-2.64s0-.54-.26-.78-1.42-.62-1.69-.25zm3.33 35.12a30.18 30.18 0 00-.16-4.07 32.6 32.6 0 00-.77-3.39c-.41-1.68-.8-3.27-1.26-4.86-.44-1.41-.82-2.8-1.3-4.11a39 39 0 00-2.48-5.82 1.2 1.2 0 00-.84-.37.81.81 0 00-.63.35c-.06.1.12.39.25.57l.84 1.14a13.73 13.73 0 01.74 1.62c.28.72.53 1.47.57 1.63.22.9.28 1.84.54 2.76l.44 1.52.37 1.49c.24 1 .47 2 .66 3.11.15.83.32 1.71.39 2.54s.15 1.69.2 2.56a2.17 2.17 0 00.1.48c-.08.66-.18 1-.18 1.43s.24.7.15 1c-.14.61.15 1.76.69 2 .88.3 1.63-.44 1.68-1.58zm6.98-9.27a1 1 0 00.51-1.43c-.42-.84-1-1.58-1.37-2.43-1-2.09-1.9-4.16-2.93-6.08a6.9 6.9 0 01-.39-1.09 11.12 11.12 0 00-.43-1.1c-.54-1-1-2-1.52-3-.36-.71-.62-1.44-1-2.11l-1.33-2.17-1.3-2c-.05-.08-.5-.76-.42-.81-.53-.52-.72 0-.87.22-.39.6.24 1.08.61 1.6s1.33 2 1.63 2.58c.42.87.61 1.84 1 2.75.49 1.08 1.09 2.17 1.67 3.26s1.18 3.29 1.77 4.62c.26.57.49 1.17.72 1.78s.4 1.18.65 1.75c.49 1.12 1.25 2.12 1.7 3.29.33.86.85.52 1.3.37z" fill="currentColor"/><path d="M134.07 103.32c-.08-.56-.14-1-.18-1.37-.07-.6-.13-1.2-.2-1.81s-.06-1.14-.18-1.7c0-.14-.36-.28-.56-.42-.38 0-.85.22-.54 1.13a7.05 7.05 0 01.23 2.85zm21.61-27.25c.65 1 1.3 2 1.93 3 .17.27.49.6.43.84-.16.75.27.77.7.9s.78.19 1.06 0 .79-.69.77-1a3.41 3.41 0 00-.67-1.49c-.44-.61-.89-1.19-1.35-1.77zm-3.85 1.29c.62.93 1.29 1.9 1.83 2.88s1.11 2 1.64 3c.2.39.29.86.52 1.23a6 6 0 00.78.81 12.3 12.3 0 001 1.06c.41.35.75.24.95-.19a2.71 2.71 0 00.27-2.25c-.11-.27-.41-.43-.58-.68-.71-1-1.41-2-2.12-3s-1.57-1.93-2.28-2.91c-.44-.6-.86-1.22-1.27-1.83l-2.46-.42.26.35c.43.68.99 1.27 1.46 1.95zm-2.68 2.16c.6 1 1.29 2 1.95 3.1 1 1.5 2.07 4.64 3.11 6.11.44.6.11 2.4 1.75 2 .26-.11.69-.17.75-.35a3.06 3.06 0 00.26-1.71 11.69 11.69 0 00-1.3-1.88c-.66-1.18-2-3.88-2.71-5s-1.62-2.42-2.54-3.61c-.52-.7-1.8-2.33-2.75-3.48l-1.92-.33.47.82c.25.41.86 1.26 1.48 2.15l.88 1.27zM156.48 62c-.91-.8-1.9-1.48-2.79-2.23-1.06-.87-2.1-1.78-3.17-2.57-.75-.55-1.49-1.08-2.24-1.57a22.93 22.93 0 00-2.44-1.3c-.45-.21-1.44-.67-1.84-.89s-.59-.23-.87-.41L143 53a1.16 1.16 0 00-.74-.25c-.28 0-.76.13-.75.44s.45.61.65.8.73.39 1.05.64 1.56.78 2 1.09c.78.49 1.53.95 2.3 1.48 1.22.85 2.45 1.8 3.66 2.79.76.66 1.56 1.29 2.33 2s1.34 1.3 2 2 1.3 1.45 2 2.14a14.8 14.8 0 002.12 1.84 3.67 3.67 0 001.7.34.82.82 0 00.61-.42 3.65 3.65 0 00.24-1c-.35-.88-.56-1.46-1.67-1.31-.59.08-1.27-.87-1.9-1.42s-1.38-1.49-2.12-2.16z" fill="currentColor"/><path d="M157 74.6c-1.44-1.87-2.76-3.71-4.24-5.36-1.42-1.48-2.93-2.79-4.36-4.07-.47-.43-1.17-1-1.86-1.64a15.11 15.11 0 01-1.7-1.66c-.62-.77-1-.18-1.44-.06a1.25 1.25 0 00.12.79c.11.17.51.2.69.37.43.39 1 1 1.62 1.61l1.47 1.73a9.58 9.58 0 00.76.8c.73.68 1.47 1.38 2.2 2.1s1.36 1.48 2 2.26c.38.46.54 1.11.91 1.59s1 1 1.45 1.5.7 1 1.05 1.51l2.87.5zm-7.74-2.86l-1.9-2.23c-.72-.87-1.59-1.71-2-2.13a1.69 1.69 0 01-.19-.24.83.83 0 00-.9-.6 1.06 1.06 0 00-.81.39.78.78 0 00.22.77c.28.24.64.28.87.54.67.66 2.62 3.17 3.22 4 .37.48.76 1 1.16 1.44s.74 1 1.12 1.46l2.46.42c-.41-.58-.77-1.14-1.24-1.69-.62-.79-1.38-1.42-2.01-2.13zm-9.87-25.62a1.53 1.53 0 00.07.49 4.21 4.21 0 001.1.67l1.77.43c.82.2 1.64.43 1.81.5a17.31 17.31 0 013 1.26c.49.26 1 .53 1.47.82l.73.44.69.46c1.62 1.1 3.32 2 5 3a49.32 49.32 0 014.71 3c.35.26.58.75 1 .9 1.86.71 1.24-1.35 1.14-1.81a6.08 6.08 0 01-.52-.38 29.27 29.27 0 00-2.92-1.75 41.15 41.15 0 00-3.54-2.1c-.53-.26-2-1.32-3.54-2.2s-3-1.6-3.3-1.7-1-.47-1.62-.79-1.37-.6-1.67-.74-2.87-.66-3.16-.82-.26-.43-.63-.43-1.58.3-1.59.75zm21.27 27.15a29 29 0 00-2.28-3.27c-.75-.9-1.64-1.66-2.43-2.47-1.22-1.22-2.36-2.38-3.59-3.5s-2.14-2-3.23-2.86a31.35 31.35 0 00-2.5-1.95 28.1 28.1 0 00-2.63-1.71 1.26 1.26 0 00-.91.13.75.75 0 00-.36.61c0 .12.3.26.5.35l1.31.52a15.85 15.85 0 011.47 1 14.92 14.92 0 011.33 1.1c.65.65 1.18 1.43 1.88 2.08a62.67 62.67 0 014.43 4.49c.55.63 1.12 1.28 1.66 2l1.52 2a2 2 0 00.34.36 10.11 10.11 0 00.6 1.28c.18.29.57.46.66.76.18.58 1.11 1.37 1.65 1.24.85-.22 1.16-1.2.58-2.16zm1.14-11.38a1 1 0 00-.3-1.49c-.8-.5-1.67-.84-2.43-1.38-1.92-1.31-3.78-2.61-5.66-3.71-.44-.28-1.39-1.16-1.87-1.42-1-.55-1.92-1.13-2.84-1.67a17.42 17.42 0 00-2-1.21c-.77-.35-1.53-.7-2.28-1-.38-.17-1.79-.74-2.15-.87a3.87 3.87 0 01-.79-.39c-.77-.08-.57.37-.6.64 0 .67.76.7 1.35.91a28 28 0 012.77 1.13c.89.45 1.5 1.17 2.35 1.7s2.05 1.23 3.13 1.84 2.72 2.19 3.92 3c1 .72 2 1.6 3 2.33s2.16 1.17 3.14 2c.68.52.96-.02 1.26-.41zm-14.13 12.79l-.89-1.09c-.39-.47-.79-1-1.16-1.45a16.06 16.06 0 00-1-1.38c-.1-.11-.45-.05-.69-.07-.34.2-.61.67.13 1.29a6.52 6.52 0 011 1.1 13.18 13.18 0 01.74 1.27zm3.53-34.82c1.09.41 2.2.86 3.32 1.37.3.13.75.24.85.47.31.75.67.52 1.1.38s.75-.29.88-.6a1.6 1.6 0 000-1.32 3.37 3.37 0 00-1.44-.91c-.71-.27-1.43-.5-2.14-.71zm-2.36 3.37c1 .39 2.11.83 3.19 1.31s2 1.05 3.06 1.64c.39.22.72.58 1.12.78a6.65 6.65 0 001.11.26 12 12 0 001.38.4c.55.07.75-.21.68-.69a2.94 2.94 0 00-1-2.14c-.24-.18-.58-.16-.86-.27-1.16-.49-2.28-1-3.5-1.34s-2.41-.72-3.55-1.11l-2.08-.76-2.23 1.13.41.13c.71.23 1.51.43 2.27.66zm-.91 3.29c1.06.5 2.18 1 3.31 1.47a25.18 25.18 0 013 1.74 19.68 19.68 0 002.94 1.78c.69.28 1.37 2 2.53.78.16-.24.49-.52.45-.72a3.34 3.34 0 00-.7-1.64 11.27 11.27 0 00-2.1-.93c-1.26-.65-3.82-2.27-5.06-2.77-.69-.28-1.35-.56-2-.82l-2.12-.7c-.83-.28-2.79-.84-4.19-1.17l-1.74.89.83.36c.43.16 1.4.47 2.4.81s2 .72 2.45.92zM144.34 28c-1.19-.22-2.43-.26-3.59-.43-1.36-.17-2.69-.41-4-.46a20.91 20.91 0 00-5.39.43l-1.94.43c-.31.06-.59.2-.91.24h-.19a1.21 1.21 0 00-.74.29c-.2.19-.52.57-.33.78s.68.16 1 .17.79-.17 1.17-.17 1.64-.34 2.15-.36c.87-.06 1.76-.19 2.67-.2a31.49 31.49 0 014.5.3c1 .14 2 .24 3.07.44s1.82.42 2.72.65 1.9.53 2.85.74a13.68 13.68 0 002.75.38 3.82 3.82 0 001.61-.62.87.87 0 00.31-.67 3.15 3.15 0 00-.29-.9c-.75-.54-1.23-.89-2.1-.19-.45.37-1.56 0-2.37-.19s-1.98-.51-2.95-.66z" fill="currentColor"/><path d="M151.41 38c-2.17-.6-4.3-1.35-6.47-1.9-1.95-.49-3.93-.82-5.86-1.16-.65-.12-1.57-.26-2.45-.44a17.8 17.8 0 01-2.29-.52c-.93-.29-.93.38-1.25.72 0 0 .26.46.5.58s.53-.09.77 0a38.2 38.2 0 014.41 1.27c.36.11.72.22 1.09.3 2 .4 4 .85 5.95 1.4.57.16 1.07.61 1.65.78s1.35.19 2 .37l1.74.54 2.6-1.32c-.8-.27-1.6-.43-2.39-.62zm-7.93 2.11c-1.21-.34-4.57-1.39-5.75-1.67a2 2 0 01-.28-.11.84.84 0 00-1.1-.07 1 1 0 00-.46.79.83.83 0 00.6.59c.38.07.7-.09 1 0 .9.28 4.08 1.35 5 1.69 1.17.41 2.38.75 3.58 1.09l2.23-1.13c-.67-.22-1.35-.43-2-.62-.91-.23-1.89-.32-2.82-.56zM121 24.77c0 .05-.07.15.06.18a5.11 5.11 0 001.51 0c.4-.08 3.34-1 3.76-1.16a30.12 30.12 0 013.2-.86 27.72 27.72 0 013.28-.41c3.93-.29 7.7-.9 11.54-.54.45 0 .92.36 1.32.29 2-.35.3-1.89-.07-2.24-.2 0-.43 0-.67-.06a23.26 23.26 0 00-3.55.09 29.92 29.92 0 00-4.16.23c-.58.07-2.47.14-4.21.37a25 25 0 00-3.6.67c-.68.21-3 .62-3.72.75-.41.07-2.92 1-3.32 1a1 1 0 01-.26 0h-.09s-.1 0-.22.16a5 5 0 00-.8 1.53zm32.73 10.1a38.77 38.77 0 00-3.67-1.27c-1.08-.3-2.22-.47-3.31-.71-1.65-.37-3.29-.73-4.91-1.05-1.42-.28-2.82-.6-4.22-.75-.63-.07-1.89-.22-3.12-.26a16.35 16.35 0 00-3 .15 1.48 1.48 0 00-.69.61.74.74 0 000 .65c.05.1.37 0 .58 0 .44-.1.88-.24 1.34-.33a14.76 14.76 0 011.69 0 14.1 14.1 0 011.71.18c.91.17 1.75.58 2.69.76 2 .44 4.08.89 6.12 1.49 1.62.46 3.21 1 4.81 1.52a2.15 2.15 0 00.48.09 10.87 10.87 0 001.19.66c.3.11.72 0 1 .2a1.92 1.92 0 002 0c.58-.66.3-1.54-.69-1.94zm-4.93-9.79a1 1 0 00-1.07-1.14c-1 0-1.88.15-2.85.09a46.32 46.32 0 00-6.85-.12c-.54 0-1.83-.16-2.34-.12-1.12.12-2.19.2-3.27.35-.77.1-1.55.12-2.3.29a17.73 17.73 0 00-2.31.63c-.28.14-1.93.53-2.34.64-.1 0-1 .23-1 .13-.71.34-.21.69 0 .91.54.57 1.23.13 1.87-.07a13.57 13.57 0 012.66-.85c.95-.16 1.88-.05 2.86-.14l3.53-.35a36.81 36.81 0 015 .29c1.25.07 2.54.33 3.81.42s2.49-.13 3.73 0c.86.14.82-.47.87-.96zM144 43.54l-1.41-.37c-.61-.18-1.21-.39-1.81-.62s-1.1-.47-1.68-.63c-.15 0-.4.22-.61.34-.16.37-.08 1 .89 1.1a10.16 10.16 0 012.88 1.07zM127 12.8a14.45 14.45 0 001.91-.3l1.68-.43c.3-.08.7-.27.89-.15.6.38.77 0 1-.38s.43-.68.39-1-.32-.94-.6-1a3 3 0 00-1.53.19l-.51.17-.23.1h-.34c-.48 0-.91.1-1.34.17zm.11 4.2c2.18-.56 4.35-1.12 6.62-1.57.46-.05 1 0 1.43 0a6.52 6.52 0 001.07-.44 11.19 11.19 0 001.34-.49c.48-.27.47-.62.12-1a3.37 3.37 0 00-2.32-1.2c-.28 0-.52.28-.79.39l-3.4 1.25c-1.14.42-2.26.88-3.4 1.23-.36.1-.71.21-1.08.3s-.76.15-1.12.24l-1.13 2.23.38-.15c.7-.32 1.5-.61 2.28-.79zm1.2 3.19c1.2-.26 2.39-.69 3.57-1a23.85 23.85 0 013.46-.41 28.24 28.24 0 003.51-.31c.75-.18 2.38 1 2.56-.8 0-.3.08-.73-.08-.87-.49-.43-1.11-1-1.63-1a9.63 9.63 0 00-2.31.5c-.73.13-1.8.22-2.93.33a12.24 12.24 0 00-2.84.51c-1.41.47-2.82.92-4.23 1.36l-1.9.6-1.21.38c-.34.17-.65.35-.93.52l-.89 1.75.64-.35c.97-.11 4.22-.98 5.21-1.21z" fill="currentColor"/></svg>