<svg xmlns="http://www.w3.org/2000/svg" viewBox="0 0 211.23 136.52"><path d="M36 37.27a.55.55 0 00.4-.15 4.42 4.42 0 00.62-2 8.28 8.28 0 00-.25-1.49 6.92 6.92 0 01.09-1.11c.09-1.24.34-1.89.52-3.15.14-.93.5-2.16.69-3.09s.26-1.14.94-1l.33.09a17.46 17.46 0 011.71.49c.26.08.5.2.75.28 1.13.36 1.81.59 2.92 1s2.47.76 3.45 1.16c.51.21 1 .76 1.47.75a2 2 0 001.31-.75c.32-.57 0-1.21.15-1.91s.56-1.5.81-2.23a19.3 19.3 0 01.91-1.82c.31-.71.48-1.51.82-2.21.57-1.13 1.33-2.18 1.87-3.31.41-.87.83-.9 1.58-.49l2.5 1.35L62 19a10.28 10.28 0 013 2.1c.4.5 1.88.41 2.38.18a1.53 1.53 0 00.62-.38c.4-.5 0-1.35 0-1.92a2.47 2.47 0 01.5-1.32 14.8 14.8 0 011.1-1.79c.65-.9 1.49-1.64 2.18-2.54.83-1.13 1.6-2.27 2.45-3.4 0 0 .32 0 .42.12A10.25 10.25 0 0076 11.16a33.73 33.73 0 013.44 2.41c1.12.95 2 2.17 3.07 3.2a3.24 3.24 0 00.94.67l-.73-4.55a27 27 0 00-3.17-2.5 10.7 10.7 0 01-3.65-3.55 1.89 1.89 0 00-2.73-.45c-.09 0-.12.21-.16.31-.11.28-.16.87-.3 1.13-.22.43-.49.57-.74 1a3 3 0 01-.16.31l-1.3 1.77c-.56.79-1.08 1.6-1.65 2.36s-1 1.18-1.47 1.83-.92 1.49-1.39 2.21a.46.46 0 01-.45.16 4.92 4.92 0 00-1.34-.5 12 12 0 01-2.91-1.21c-1.19-.65-2.35-1.46-3.52-2.19-.36-.21-.86-.49-.94-.81-.22-1-1.07-.94-1.6-1a1.26 1.26 0 00-1.37 1.13c-.07.5.2 1.08.06 1.41-.65 1.63-1.13 2.77-1.79 4.35-.38.91-1.14 1.61-1.58 2.51s-.92 2.17-1.39 3.21c-.18.38-.54 1-.72 1-1.25-.33-2.5-.79-3.78-1.21-.81-.28-1.63-.5-2.41-.83a20.67 20.67 0 01-2.08-1.09c-.45-.25-1.06-.34-1.49-.63s-.39-.6-.65-.83a1.77 1.77 0 00-.65-.1 2.46 2.46 0 00-.87.29 2.37 2.37 0 00-.86 1.28 1.06 1.06 0 00.16.53 4.59 4.59 0 010 2c-.61 1.45 0 2.92-.61 4.41a9.56 9.56 0 00-.54 2.93c0 1-.58 1.72-1.51 1.6z" fill="currentColor"/><path d="M26.09 25.22A101.61 101.61 0 0152.29 9.9a125.46 125.46 0 0114.18-4.74C71.26 3.84 76.1 2.88 81 2.05l2.8 17.77c-4.26.74-8.5 1.57-12.63 2.71a109.08 109.08 0 00-12.12 4.06 82.86 82.86 0 00-21.54 12.55z" fill="none"/><path d="M15.85 79.55a.5.5 0 00.08-.39 4.18 4.18 0 00-1.33-1.52 8.94 8.94 0 00-1.39-.58 5.16 5.16 0 01-.87-.67 29 29 0 01-2.25-2.2c-.64-.64-1.44-1.68-2.06-2.41s-.74-.92-.2-1.37l.29-.2c.48-.36 1-.72 1.45-1 .22-.14.46-.25.68-.39 1-.63 1.63-1 2.65-1.54.47-.26 1-.59 1.54-.89s1.11-.6 1.59-.81 1.22-.17 1.52-.5a1.72 1.72 0 00.35-1.35c-.2-.59-.9-.8-1.3-1.38a14.7 14.7 0 01-1-2.07c-.29-.6-.38-1.27-.63-1.9s-.7-1.41-.92-2.15c-.34-1.2-.49-2.5-.81-3.72-.26-.93 0-1.24.88-1.43 1.86-.4 3.76-.74 5.56-1a9.86 9.86 0 013.65-.12 1.43 1.43 0 001.09-.38 3.14 3.14 0 00.84-.83 1.35 1.35 0 00.21-.65c0-.62-.77-1.1-1.13-1.54a2.47 2.47 0 01-.39-1.35 15.48 15.48 0 01-.16-2.06c0-1.1.25-2.21.34-3.31.1-1.36.05-2.82.18-4.21 0-.07.3-.16.43-.13a12.87 12.87 0 001.7.24 25.36 25.36 0 014.18.24 38.49 38.49 0 014.23 1.2 3.48 3.48 0 001.15.13l-2.92-3.56a20.57 20.57 0 00-4-.55 11.42 11.42 0 01-5-1.07 2 2 0 00-2.62 1.13c-.06.09 0 .24 0 .35.06.3.33.83.36 1.13 0 .5-.09.77-.07 1.27v.37c0 .72-.09 1.46-.13 2.18v2.91c0 .79-.16 1.54-.13 2.34s.14 1.74.19 2.58c0 .14-.14.38-.25.39a3.86 3.86 0 00-1.35.41A12.85 12.85 0 0117 48c-1.34.23-2.71.37-4.11.57-.41.06-1 .18-1.26 0-.81-.64-1.46 0-1.86.35a1.36 1.36 0 00-.34 1.83c.28.43.87.69 1 1 .56 1.65 1 2.81 1.55 4.49.34.93.33 2 .61 2.92a28.1 28.1 0 001.32 3.21c.16.38.37 1.07.21 1.16-1.08.65-2.26 1.25-3.43 1.91-.74.42-1.43.89-2.2 1.28s-1.46.6-2.21.89c-.5.19-.94.63-1.43.79-.32.11-.71-.08-1.05 0-.13 0-.41.37-.48.47a3.23 3.23 0 00-.33.92 2.27 2.27 0 00.44 1.54 1.19 1.19 0 00.52.22 4.79 4.79 0 011.55 1.26c.79 1.41 2.31 1.82 3.19 3.16a7.29 7.29 0 00.95 1.13c.37.34.78.66 1.18 1 .83.6 1.06 1.39.49 2.09z" fill="currentColor"/><path d="M.38 81.46a56.26 56.26 0 015.91-32 75.5 75.5 0 0119.8-24.23l11.42 13.91a57.63 57.63 0 00-15.13 18.37 38.15 38.15 0 00-4.13 21.74z" fill="none"/><path d="M46.64 113.86c-.11-.15-.22-.26-.33-.27a4.34 4.34 0 00-2.09.41c-.42.17-.76.66-1.18 1a7.31 7.31 0 01-1 .48 29.39 29.39 0 01-3 1c-.87.31-2.16.65-3.07.91s-1.12.3-1.31-.38c0-.15-.07-.29-.08-.33-.14-.58-.28-1.16-.39-1.74 0-.25 0-.52-.1-.77-.21-1.16-.3-1.89-.45-3.06a35.66 35.66 0 01-.5-3.55c0-.54.26-1.21 0-1.63a1.67 1.67 0 00-1.19-.8c-.63 0-1.06.55-1.75.71a22 22 0 01-2.31.25 19 19 0 01-2-.07c-.76 0-1.56.17-2.34.13-1.28 0-2.46-.43-3.77-.51-1-.06-1.18-.45-1-1.32a53.93 53.93 0 011.06-5.55 8.81 8.81 0 011.24-3.38c.41-.52 0-1.78-.34-2.16a1.52 1.52 0 00-.49-.42c-.54-.24-1.3.29-1.84.45a2.38 2.38 0 01-1.41-.18 10.63 10.63 0 01-1.95-.65c-1-.46-1.88-1.14-2.84-1.69-1.16-.69-2.51-1.3-3.68-2.09-.06 0 0-.34.08-.45a12.77 12.77 0 001-1.39 21.34 21.34 0 012.26-3.52 24.21 24.21 0 013.24-2.9 3.44 3.44 0 00.7-.84l-4.57.56a19.71 19.71 0 00-2.54 3.15 11.7 11.7 0 01-3.38 3.91c-1.5 1.18-.24 2.88-.19 3s.23.12.34.15c.3.1.89.1 1.18.22.47.19.65.46 1.11.67.11.06.24.08.35.14.65.39 1.25.79 1.92 1.12l2.63 1.27c.69.36 1.4.76 2.11 1.06s1.59.58 2.42.83c.14 0 .31.26.27.37a4.3 4.3 0 00-.14 1.38 16.93 16.93 0 01-.38 3.13c-.27 1.34-.67 2.71-.93 4.07-.09.41-.17 1-.45 1.17-.88.53-.52 1.36-.32 1.9a1.32 1.32 0 001.61 1c.51-.11 1-.57 1.32-.56l2.39.08h2.37c1 0 1.92.42 2.93.44 1.18 0 2.34-.08 3.47-.11.43 0 1.17 0 1.2.18.24 1.24.35 2.61.57 3.91.14.82.31 1.66.38 2.51s0 1.58 0 2.38c0 .53.21 1.09.16 1.61 0 .34-.35.62-.42 1a1.43 1.43 0 00.23.61 2.68 2.68 0 00.69.64 2.31 2.31 0 001.53.18 1.07 1.07 0 00.4-.39 4.9 4.9 0 011.75-.91c1.59-.2 2.58-1.38 4.16-1.56a10.54 10.54 0 002.84-1c.93-.44 1.77-.27 2.12.57z" fill="currentColor"/><path d="M40.87 128.34c-9.48-3.81-18.75-9.29-26.26-17.25a54.63 54.63 0 01-9.46-13.55A52.44 52.44 0 01.38 81.46l17.87-2.21a33.89 33.89 0 003.08 10.4 36.6 36.6 0 006.38 9.1c5.21 5.54 12.17 9.8 19.82 12.86z" fill="none"/><path d="M98.48 120.73a.66.66 0 00-.43-.12 4.54 4.54 0 00-1.8 1.27c-.33.33-.43.93-.69 1.36a6 6 0 01-.73.87c-.8 1-1.39 1.37-2.25 2.31-.63.67-1.62 1.53-2.29 2.19s-.83.81-1.31.32l-.23-.26c-.4-.44-.8-.87-1.18-1.32-.17-.2-.31-.43-.48-.62-.77-.9-1.23-1.48-2-2.41s-1.76-1.91-2.41-2.76c-.34-.44-.47-1.16-.91-1.39a2 2 0 00-1.55 0c-.58.34-.61 1.06-1.11 1.58s-1.26 1-1.84 1.54-1.17.74-1.71 1.14-1.16 1.07-1.81 1.51c-1 .71-2.21 1.23-3.24 2-.77.58-1.16.38-1.62-.34-1-1.62-2.07-3.19-3-4.78a10.62 10.62 0 01-1.65-3.32c-.11-.64-1.46-1.22-2-1.24a1.54 1.54 0 00-.71.06c-.59.24-.68 1.16-.93 1.68s-.64.64-1.06.91a17.28 17.28 0 01-1.82 1.06c-1 .52-2.09.74-3.12 1.19-1.26.54-2.51 1.25-3.8 1.8-.06 0-.28-.18-.31-.31a12.72 12.72 0 00-.58-1.61 32.54 32.54 0 01-1.8-3.78 43.48 43.48 0 01-1-4.32 3.35 3.35 0 00-.45-1l-1.71 4.27a25.17 25.17 0 001.45 3.76 10.85 10.85 0 011.44 4.89c.12 1.9 2.08 1.76 2.19 1.77s.21-.13.3-.2.57-.68.82-.85c.41-.27.71-.27 1.13-.52a2.82 2.82 0 01.31-.21l2-.89c.87-.4 1.71-.87 2.58-1.29.71-.34 1.46-.58 2.16-.92s1.51-.83 2.27-1.26c.13-.07.42 0 .48.06a4.48 4.48 0 00.94 1A11.55 11.55 0 0165 126c.74 1.16 1.38 2.36 2.06 3.57.21.36.52.85.43 1.17-.29 1 .48 1.34.94 1.61a1.21 1.21 0 001.73-.33c.3-.42.35-1.05.62-1.28 1.36-1.14 2.31-1.87 3.67-2.93.77-.59 1.77-.86 2.6-1.41 1-.64 1.89-1.42 2.83-2.09.35-.25 1-.62 1.14-.48.92.93 1.77 1.95 2.65 3 .55.64 1.13 1.27 1.62 2a19.72 19.72 0 011.17 2c.25.46.71.84.92 1.31.14.31 0 .71.1 1 0 .13.37.37.48.43a2.6 2.6 0 00.86.22 2.2 2.2 0 001.36-.6 1.16 1.16 0 00.16-.53 4.47 4.47 0 011.08-1.61c1.28-.88 1.62-2.4 2.94-3.3a11 11 0 002.15-2.11c.65-.79 1.51-1 2.19-.37z" fill="currentColor"/><path d="M99.23 136.3a180.92 180.92 0 01-29.2-.87 117.57 117.57 0 01-29.16-7.09l6.66-16.73a99.47 99.47 0 0024.62 5.94 163.21 163.21 0 0026.21.77z" fill="none"/><path d="M151.13 111.69a.59.59 0 00-.44 0 4.5 4.5 0 00-1.3 1.74 7.54 7.54 0 00-.26 1.51 8.41 8.41 0 01-.46 1c-.51 1.13-1 1.66-1.54 2.77-.44.83-1.16 1.93-1.64 2.76s-.61 1-1.21.61l-.28-.19c-.5-.33-1-.66-1.48-1-.22-.15-.4-.34-.62-.49-1-.69-1.53-1.12-2.47-1.82s-2.18-1.46-3-2.13c-.44-.34-.74-1-1.24-1.14a2.13 2.13 0 00-1.55.36c-.49.48-.34 1.19-.7 1.83s-1 1.33-1.41 2-.95 1-1.38 1.53-.84 1.35-1.34 1.95c-.82 1-1.8 1.79-2.56 2.82-.58.77-1 .71-1.64.14l-4.33-3.7a10.82 10.82 0 01-2.62-2.61c-.31-.58-1.83-.72-2.38-.58a1.63 1.63 0 00-.67.3c-.49.43-.28 1.32-.35 1.89a2.46 2.46 0 01-.72 1.22 19.23 19.23 0 01-1.37 1.62c-.79.82-1.74 1.4-2.55 2.19-1 1-1.9 2-2.88 3 0 0-.31-.07-.4-.18a10.38 10.38 0 00-1.12-1.25c-1.16-1-2.07-1.73-3.13-2.84s-1.78-2.38-2.7-3.52a3.39 3.39 0 00-.88-.77l.22 4.6a28.27 28.27 0 002.86 2.83 10.3 10.3 0 013.18 4 1.81 1.81 0 002.59.8c.1 0 .15-.2.2-.29.15-.27.27-.84.44-1.09.28-.4.55-.5.85-.89.08-.09.13-.21.21-.29l1.52-1.54 2-2.09c.56-.56 1.19-1 1.74-1.59s1.16-1.31 1.75-1.94a.51.51 0 01.48-.09 4.42 4.42 0 001.24.72 11.5 11.5 0 012.65 1.73c1 .86 2 1.85 3 2.81.29.28.73.66.73 1 0 1 .84 1.15 1.35 1.28a1.2 1.2 0 001.53-.81c.16-.48 0-1.11.23-1.4 1-1.46 1.68-2.42 2.69-3.81a25.79 25.79 0 012.15-2c.79-.87 1.46-1.87 2.22-2.76.28-.33.82-.86 1-.77 1.13.68 2.21 1.48 3.31 2.26.69.49 1.4 1 2 1.53a19.82 19.82 0 011.63 1.67c.35.38.89.65 1.21 1.05s.18.7.36 1a1.46 1.46 0 00.58.3 3.07 3.07 0 00.91 0 2.21 2.21 0 001.2-.9 1 1 0 000-.55 4.72 4.72 0 01.65-1.87c1-1.22.95-2.76 2-4a9.52 9.52 0 001.49-2.6c.4-1 1.13-1.43 2-1z" fill="currentColor"/><path d="M156.34 126.38a118.81 118.81 0 01-14.46 4.11l-7 1.41c-2.33.44-4.69.83-7 1.25a255.74 255.74 0 01-28.6 3.15l-.87-18a234.42 234.42 0 0026.53-2.93c2.21-.4 4.42-.75 6.62-1.18l6.6-1.32a101.4 101.4 0 0012.21-3.47z" fill="none"/><path d="M190.45 81.28a.55.55 0 00-.32.26 4.44 4.44 0 00.16 2.08 9.12 9.12 0 00.78 1.3 5.09 5.09 0 01.33 1.08c.33 1.18.31 1.86.56 3.09.18.92.3 2.25.38 3.17s.11 1.16-.58 1.24h-.35c-.59 0-1.18.08-1.76.09h-.79c-1.19 0-1.91 0-3.1-.07s-2.51 0-3.59-.09c-.54-.06-1.16-.45-1.62-.31a1.74 1.74 0 00-1 1.05c-.13.64.38 1.17.44 1.89a19.94 19.94 0 01-.16 2.32c0 .68-.28 1.31-.36 2a22.79 22.79 0 01-.19 2.35c-.25 1.22-.73 2.4-1 3.68-.16 1-.56 1.11-1.4.88-1.87-.48-3.7-.94-5.48-1.46a10.14 10.14 0 01-3.41-1.38c-.52-.41-1.88 0-2.3.39a1.83 1.83 0 00-.48.52c-.27.56.26 1.31.41 1.86a2.35 2.35 0 01-.19 1.38 16 16 0 01-.66 2 12.42 12.42 0 01-.76 1.5c-.28.47-.57.94-.82 1.44-.59 1.24-1.09 2.56-1.7 3.85 0 .07-.32 0-.43 0a14 14 0 00-1.5-.85 39.16 39.16 0 01-3.84-1.7 39.11 39.11 0 01-3.59-2.59 3.25 3.25 0 00-1-.51l1.54 4.34a22.86 22.86 0 003.58 1.91 10.53 10.53 0 014.28 2.75 1.89 1.89 0 002.8-.09c.09-.07.08-.24.1-.35.05-.3 0-.89.07-1.18.13-.48.36-.67.52-1.14 0-.11.05-.24.1-.35.31-.65.62-1.31.92-2 .4-.85.72-1.8 1.11-2.67s.72-1.4 1-2.11.59-1.61.87-2.45c0-.13.28-.3.39-.27a4.11 4.11 0 001.39.16 12 12 0 013.14.54c1.31.34 2.61.79 3.94 1.21.4.13 1 .27 1.12.57.46.91 1.29.65 1.82.52a1.26 1.26 0 001.05-1.47c-.07-.51-.47-1-.43-1.36.21-1.78.42-2.94.64-4.66a27.56 27.56 0 01.82-2.86 33.2 33.2 0 00.42-3.47c.05-.42.2-1.15.39-1.15 1.28 0 2.66.09 4 .08h2.55c.86 0 1.55.27 2.34.42.51.1 1.13 0 1.62.12.33.08.55.45.87.58a1.51 1.51 0 00.65-.13 2.86 2.86 0 00.74-.57 2.37 2.37 0 00.43-1.5 1.14 1.14 0 00-.31-.46 4.63 4.63 0 01-.59-1.87c.06-1.62-.94-2.79-.88-4.38a8.73 8.73 0 00-.54-3c-.31-1-.06-1.78.86-2z" fill="currentColor"/><path d="M204 88.92a70.2 70.2 0 01-9.36 12.82 81 81 0 01-11.51 10.43 90.8 90.8 0 01-12.95 8.16l-1.68.9-1.71.81c-1.15.53-2.29 1.09-3.45 1.6-2.34.93-4.65 2-7 2.74l-6-17c2-.65 3.93-1.52 5.88-2.29 1-.42 1.9-.89 2.85-1.33l1.42-.66 1.38-.74a75.16 75.16 0 0010.5-6.61 63.37 63.37 0 009-8.17 52.84 52.84 0 007-9.52z" fill="none"/><path d="M183.83 39.78a.57.57 0 00.21.35 4.53 4.53 0 002.07.12 8.91 8.91 0 001.38-.54 6.49 6.49 0 011.08-.12 27.65 27.65 0 013.16 0c.92 0 2.19.21 3.15.31s1.18.14 1.12.83c0 .15-.05.29-.06.34-.11.6-.22 1.2-.37 1.77-.06.26-.17.51-.23.76-.31 1.14-.48 1.79-.88 2.89s-.8 2.39-1.24 3.28c-.24.47-.78.89-.84 1.34a1.36 1.36 0 00.55 1.16c.53.28 1.2 0 1.88.16a12.13 12.13 0 012.05.9c.6.26 1.08.72 1.67 1.05a17.18 17.18 0 012 1.14c1 .75 1.89 1.72 2.83 2.56.74.63.66 1.07.07 1.7a27.56 27.56 0 01-2.05 2q-1 1-2.1 1.8a8.59 8.59 0 01-3.08 1.86c-.63.16-1 1.38-1.06 1.86a1.27 1.27 0 00.12.63c.28.51 1.2.58 1.73.79s.69.59 1 1a10.38 10.38 0 011.09 1.72c.47 1 .77 2.07 1.18 3.1.48 1.27 1.09 2.56 1.59 3.93 0 .07-.21.26-.34.3a12.4 12.4 0 00-1.67.46 23.09 23.09 0 01-3.93 1.41 34.2 34.2 0 01-4.36.42 3.66 3.66 0 00-1.08.28l4 2.25a22 22 0 003.89-1 12.32 12.32 0 015-1c1.91 0 2-2 2-2.17s-.11-.23-.18-.33c-.17-.26-.64-.63-.79-.9-.24-.44-.22-.76-.44-1.21a2 2 0 01-.18-.32c-.27-.7-.49-1.38-.81-2.07l-1.27-2.64a17.6 17.6 0 00-1-2.13c-.43-.76-.94-1.46-1.39-2.16-.07-.11 0-.39.05-.45a3.85 3.85 0 00.94-1 14 14 0 012.25-2.23c1-.89 2.1-1.76 3.17-2.72.32-.28.75-.72 1.08-.69 1 .11 1.22-.81 1.35-1.38a1.47 1.47 0 00-.76-1.8c-.48-.21-1.11-.09-1.39-.32-1.45-1.11-2.51-1.84-3.92-2.81-.79-.55-1.49-1.37-2.27-1.93a15.86 15.86 0 00-1.47-.88l-1.56-.73c-.38-.18-1-.54-.92-.72.49-1.2.91-2.37 1.34-3.64.26-.8.5-1.64.81-2.46s.63-1.42 1-2.14c.21-.47.25-1.11.49-1.58.17-.3.58-.42.78-.7a1.64 1.64 0 000-.7 3.2 3.2 0 00-.38-.93 2.61 2.61 0 00-1.45-.79 1 1 0 00-.52.2 4.9 4.9 0 01-2 .15c-1.55-.49-2.93.31-4.5 0a8.91 8.91 0 00-3 0c-1 .16-1.79-.2-1.86-1.12z" fill="currentColor"/><path d="M193.58 27.62a48.74 48.74 0 0111.28 12.58 43 43 0 015.91 16.36 46.86 46.86 0 01-.77 17.06 57.72 57.72 0 01-6 15.3l-15.65-8.82c3.78-6.74 5.61-14.18 4.61-20.95a25.07 25.07 0 00-3.45-9.55 31 31 0 00-7.18-7.94z" fill="none"/><path d="M136.09 18.87a.58.58 0 00.38.23 4.58 4.58 0 002.05-.77c.4-.24.65-.79 1-1.14a7.11 7.11 0 01.94-.65 29.84 29.84 0 012.79-1.54c.8-.47 2-1 2.81-1.46s1-.55 1.36.06l.14.31c.27.53.53 1.06.77 1.6.1.24.17.49.28.73.48 1.08.77 1.7 1.22 2.83s1.12 2.37 1.49 3.38c.19.52.11 1.25.46 1.61a2 2 0 001.47.47c.65-.16.9-.85 1.53-1.21s1.51-.64 2.21-1 1.31-.31 1.95-.54 1.42-.69 2.16-.92c1.21-.37 2.48-.53 3.69-1 .9-.33 1.22-.06 1.46.75.55 1.78 1 3.69 1.52 5.5a10.65 10.65 0 01.66 3.65c-.08.65 1.08 1.59 1.61 1.77a1.61 1.61 0 00.72.12c.64-.09 1-.94 1.37-1.37a2.3 2.3 0 011.28-.59 18 18 0 012-.49c1.1-.18 2.21-.12 3.33-.28 1.36-.21 2.74-.55 4.13-.79.07 0 .22.24.23.38a10.16 10.16 0 00.17 1.67 25.4 25.4 0 01.75 4.13 26.51 26.51 0 01-.28 4.34 3.76 3.76 0 00.07 1.12l2.88-3.59v-2a8.59 8.59 0 00-.28-2 11.45 11.45 0 01-.19-5.17c.35-1.87-1.56-2.13-1.67-2.17s-.23.08-.33.12c-.28.13-.72.52-1 .62-.46.16-.75.09-1.22.22a3.4 3.4 0 01-.34.12l-2.14.36c-.95.17-1.88.38-2.81.52-.77.13-1.54.12-2.31.26s-1.71.44-2.56.63c-.15 0-.42-.08-.44-.19a5 5 0 00-.62-1.27 11.81 11.81 0 01-1.21-2.94c-.37-1.31-.62-2.69-.92-4.06-.08-.41-.24-1-.06-1.26.56-.86-.08-1.41-.44-1.78a1.25 1.25 0 00-1.76-.15c-.41.31-.64.91-1 1-1.62.69-2.75 1.11-4.35 1.72a23.55 23.55 0 01-2.88.54c-1.14.35-2.23.85-3.33 1.24-.41.14-1.14.32-1.23.15-.62-1.16-1.13-2.4-1.67-3.63a25 25 0 01-1-2.39c-.24-.74-.38-1.5-.55-2.26-.11-.5-.44-1-.51-1.51-.05-.34.2-.69.2-1a1.62 1.62 0 00-.35-.54 2.74 2.74 0 00-.77-.46 2.27 2.27 0 00-1.49.19 1.12 1.12 0 00-.3.47 4.53 4.53 0 01-1.49 1.24c-1.49.51-2.21 1.79-3.74 2.33a11.22 11.22 0 00-2.63 1.48c-.85.59-1.73.6-2.22-.21z" fill="currentColor"/><path d="M139.47 3.65a145.63 145.63 0 0128 9.16c1.12.49 2.27.93 3.37 1.47l3.29 1.65 3.29 1.65 1.65.83c.53.29 1.06.61 1.59.91L187 23c1 .56 2.19 1.38 3.3 2.14l1.7 1.19c.55.4 1.08.86 1.62 1.29l-11.25 14c-.37-.29-.71-.6-1.09-.87l-1.23-.75a28.92 28.92 0 00-2.51-1.63l-5.64-3.29c-.47-.27-.93-.56-1.41-.81l-1.49-.75-2.91-1.46-2.91-1.46c-1-.48-2-.86-3-1.3a127.4 127.4 0 00-24.67-8.08z" fill="none"/><path d="M83.42 17.44a.68.68 0 00.44.07A4.62 4.62 0 0085.51 16a7.08 7.08 0 00.49-1.4 6.93 6.93 0 01.62-.94c.7-1 1.23-1.5 2-2.51.56-.75 1.45-1.7 2-2.43s.75-.89 1.28-.46c.11.11.22.2.25.24.45.38.89.79 1.31 1.21.19.18.35.4.54.58l2.2 2.19c.76.75 1.92 1.72 2.65 2.53.37.41.57 1.12 1 1.31a2 2 0 001.54-.11c.55-.4.51-1.13 1-1.7s1.16-1.12 1.69-1.67 1.09-.81 1.6-1.28 1.06-1.19 1.66-1.69c1-.84 2.09-1.41 3-2.27.72-.64 1.12-.5 1.64.18 1.18 1.49 2.36 2.94 3.49 4.48a10.79 10.79 0 012 3.13c.17.63 1.6 1.06 2.15 1a1.67 1.67 0 00.71-.15c.57-.3.56-1.22.75-1.75s.58-.71 1-1c.54-.43 1.1-.86 1.69-1.24 1-.59 2-1 3-1.56 1.2-.74 2.33-1.5 3.54-2.22.05 0 .29.14.34.27a12 12 0 00.79 1.51c.87 1.27 1.57 2.17 2.31 3.49a40.88 40.88 0 011.66 4.13 3.66 3.66 0 00.64 1l1-4.5a27.82 27.82 0 00-2-3.54A10.09 10.09 0 01133 6.2a1.89 1.89 0 00-2.35-1.45c-.11 0-.19.15-.27.23s-.47.74-.69.93c-.37.32-.67.34-1.05.64-.1.07-.18.17-.28.23l-1.85 1.16c-.82.53-1.6 1.09-2.41 1.59s-1.39.71-2 1.12-1.42 1-2.14 1.5a.46.46 0 01-.47 0 4.57 4.57 0 00-1.06-1 12.2 12.2 0 01-2.22-2.26c-.84-1.07-1.59-2.28-2.38-3.39-.24-.33-.59-.78-.53-1.11.19-1-.61-1.29-1.09-1.51a1.25 1.25 0 00-1.69.5c-.25.44-.24 1.08-.5 1.33L106.56 8a29.37 29.37 0 01-2.47 1.64c-.92.71-1.75 1.55-2.62 2.33-.33.29-.94.73-1.09.61-1-.84-1.94-1.8-2.91-2.74A25.45 25.45 0 0195.66 8a20.5 20.5 0 01-1.36-1.87c-.29-.42-.79-.77-1-1.22-.17-.3-.07-.72-.21-1 0-.12-.41-.33-.52-.38a2.46 2.46 0 00-.89-.14 2.26 2.26 0 00-1.3.74 1.18 1.18 0 00-.11.55 4.64 4.64 0 01-.91 1.72c-1.19 1-1.37 2.55-2.59 3.58a10.75 10.75 0 00-1.9 2.32c-.56.86-1.39 1.2-2.14.63z" fill="currentColor"/><path d="M81 2.05a154.48 154.48 0 0158.51 1.6l-3.91 17.57a136.74 136.74 0 00-51.76-1.4z" fill="none"/></svg>