<svg xmlns="http://www.w3.org/2000/svg" viewBox="0 0 143.13 117.35"><path d="M87.93 9.74V8.16l.18-3.87c.07-1.2.15-2.4.32-3.58a.83.83 0 01.74-.45c.38.09.93.33 1 .69a5.09 5.09 0 010 1.94c-.27 2-.58 2.92-.84 4.95-.08.56-.38 2.17-.44 2.74a9.67 9.67 0 01-.19 1.2 1.27 1.27 0 01-.17.27c-.36-.09-.13.08-.46-.13s-.16-1-.17-1.2.02-.65.03-.98zM71.19 4.48a3.48 3.48 0 000-2.94s-.06-.35-.15-.4c-.4-.21-1-.66-1.18-.41a3.6 3.6 0 00-.65 2.15c.09.9.27 3 1.54 2.66.24-.06.32-.88.44-1.06zm5.22 1.8c0-.18-.19-.71-.22-.9s-.09-.63-.13-.9c-.1-.76-.14-1.12-.24-1.88 0-.36-.49-1.38-.21-1.81s.45-.05.74-.37c.08-.09.58 0 .71.15a2.15 2.15 0 01.6 1.1 22 22 0 01-.12 2.42c0 .84 0 1.71-.1 2.55 0 .22-.14.64-.2.64-.36 0-.52 0-.59-.4a4.76 4.76 0 01-.24-.6zm36.39.99c.23-.54.49-1 .78-1a.77.77 0 01.89.37 3.4 3.4 0 01.07 2.09 25.11 25.11 0 01-1.42 2.54c-.16.29-.3.6-.45.9a26.78 26.78 0 01-1.43 2.38c-.29.46-1 2-1.35 2.62 0 .07-.12.19-.14.18-.46-.08-.41.32-.52-.43 0-.09.51-1.9.56-2 .64-1.46 1.36-3 2-4.52.2-.58.56-2.08 1.01-3.13zM94.59 3.89c0 .76-.4 2.44.73 1.63a3.52 3.52 0 001.31-2.73c.06-.61.22-1.31-.41-1.72a1.49 1.49 0 00-1.68 1.56c0 .42.06.85.05 1.26zm11.37 7.1q-.23-.07-.24-.48a6.35 6.35 0 01.48-1.88c.28-.91.42-1.91.68-2.82a.86.86 0 000-.45c-.13-.45.45-.87.86-1 1.07-.35 1.32.37 1.4.86a2 2 0 01-.19.83c-.3.6-.5 1.32-.82 1.91-.48.9-.9 1.84-1.42 2.71a.68.68 0 01-.44.34.91.91 0 01-.31-.02zm-5.59-2.8c.08-.93.34-2.47.38-3.14a11.27 11.27 0 01.18-1.93c.08-.3.48-.57.81-.75.1-.06.43.24.64.39.92.61.36 1.3.2 2s-1 2.53-1.09 3.25-.37.89-1.06.39c-.1-.09-.09-.31-.06-.21zm-17.59-.71c-.16 0-.28-.14-.37-.41a6.88 6.88 0 01-.13-2c0-1-.19-2.05-.22-3a.91.91 0 00-.16-.44c-.26-.42.16-1 .51-1.28.91-.68 1.37 0 1.6.4a2.22 2.22 0 01.08.88c-.11.7-.07 1.48-.19 2.18-.18 1.06-.29 2.14-.52 3.18a.67.67 0 01-.6.56zM43.44 19.64l-.19-.33c-.2-.35-.46-.65-.66-1l-2-3.34c-.6-1-1.18-2.09-1.69-3.17a.83.83 0 01.37-.79 1.32 1.32 0 011.24 0 5.12 5.12 0 011 1.64c.88 1.85 1.1 2.75 2 4.59.24.51.87 2 1.12 2.53a8 8 0 01.51 1.12 1.13 1.13 0 010 .32c-.35.13-.06.14-.45.15-.23 0-.66-.72-.79-.9s-.29-.54-.46-.82zM26.6 24.4a3.44 3.44 0 00-1.6-2.46s-.25-.27-.35-.25c-.45 0-1.2 0-1.21.31a3.53 3.53 0 00.64 2.14c.58.69 1.89 2.33 2.78 1.38.15-.16-.26-.91-.26-1.12zm5.31-1.38a6.76 6.76 0 00-.68-.63l-.6-.69-1.24-1.44c-.24-.28-1.16-.88-1.16-1.4s.35-.28.41-.7c0-.11.5-.31.69-.25a2.18 2.18 0 011.11.57 22.8 22.8 0 011.2 2.1c.45.71.9 1.46 1.31 2.18.12.2.24.62.19.65-.3.2-.45.26-.72 0-.05-.05-.48-.33-.51-.39zM62.87 3.65a1.85 1.85 0 010-1.31.74.74 0 011-.21 4.16 4.16 0 011.38 1.71 14.51 14.51 0 01.39 2.87c0 .33.12.66.18 1a11.74 11.74 0 01.06 2.77 19.42 19.42 0 00.32 2.92.55.55 0 010 .24c-.44.19-.17.48-.7-.06-.06-.06-.68-1.84-.71-2-.32-1.56-.61-3.24-1-4.83-.12-.56-.69-1.99-.92-3.1zM45.83 11.1c.4.65 1 2.26 1.5.94a3.54 3.54 0 00-.42-3c-.28-.54-.53-1.21-1.28-1.19a1.52 1.52 0 00-.54 2.24c.25.32.51.65.74 1.01zm13.49-.47c-.15 0-.31-.05-.47-.27a6.37 6.37 0 01-.67-1.83c-.28-.9-.74-1.82-1-2.71a.81.81 0 00-.31-.34c-.36-.3-.12-1 .15-1.3a1 1 0 011.64-.08 1.9 1.9 0 01.32.79c.09.67.33 1.37.41 2.05.11 1 .3 2 .36 3a.65.65 0 01-.21.54.88.88 0 01-.22.15zm-6.27.85c-.45-.83-1.1-2.26-1.42-2.84a11.79 11.79 0 01-.94-1.7 1.58 1.58 0 01.27-1.07c0-.1.49 0 .75 0 1.09 0 1 .87 1.26 1.52s.61 2.63.9 3.3.19 1-.66.94c-.12-.04-.24-.23-.16-.15zm-15.16 9.08c-.14.08-.31 0-.54-.13a7.11 7.11 0 01-1.21-1.64c-.56-.82-1.28-1.6-1.85-2.42a.84.84 0 00-.36-.28c-.45-.2-.43-.94-.28-1.36.38-1.07 1.13-.77 1.57-.52a2 2 0 01.54.7c.3.64.75 1.28 1 1.93.43 1 .92 1.94 1.3 2.94a.67.67 0 010 .56.69.69 0 01-.17.22zM13.34 52.27l-.36-.14c-.37-.15-.76-.22-1.14-.37L8.22 50.4c-1.12-.44-2.23-.89-3.3-1.41a.83.83 0 01-.21-.85c.2-.34.58-.78 1-.77a5.15 5.15 0 011.83.64c1.85.9 2.59 1.47 4.44 2.35.51.25 1.95 1 2.47 1.28a9.2 9.2 0 011.09.54 1.28 1.28 0 01.2.25c-.19.3.05.14-.25.37s-1-.15-1.18-.22a9.21 9.21 0 01-.97-.31zM3.97 66.34a3.59 3.59 0 00-2.87-.64s-.36 0-.43.06c-.28.34-.83.86-.63 1.07a3.53 3.53 0 002 1.06c.89.08 3 .31 2.94-.94-.05-.21-.86-.47-1.01-.61zm2.9-4.46h-.92l-.91-.1-1.89-.3c-.36 0-1.46.12-1.8-.25s.07-.44-.16-.8c-.06-.1.17-.56.35-.64a2.19 2.19 0 011.22-.3c.81.14 1.5.55 2.3.77s1.64.48 2.43.74c.22.07.59.29.57.35-.08.33-.15.47-.55.44-.07.04-.57.11-.64.09zm12.39-33.55c-.43-.41-.73-.8-.71-1.1s.34-.73.66-.71a4 4 0 012.09.63 15.56 15.56 0 011.94 2.15c.22.25.47.48.7.72a12.48 12.48 0 011.65 2.27 18.33 18.33 0 001.95 2.24c.05.06.13.18.12.2-.24.4.15.49-.59.33-.09 0-1.6-1.14-1.7-1.23-1.15-1.11-2.33-2.33-3.54-3.43-.47-.42-1.76-1.28-2.57-2.07zm-9.4 15.88c.72.27 2.18 1.17 1.78-.15a3.51 3.51 0 00-2.16-2.13c-.55-.27-1.15-.65-1.75-.19a1.49 1.49 0 00.91 2.1c.41.12.82.22 1.22.37zm10.48-8.17c-.1.13-.28.14-.53.06a6.7 6.7 0 01-1.6-1.12c-.75-.57-1.64-1.06-2.4-1.62a.91.91 0 00-.43-.14c-.47 0-.66-.72-.64-1.16.05-1.12.8-1.11 1.29-1a2.09 2.09 0 01.71.46c.46.5 1.06.94 1.5 1.45.68.76 1.4 1.48 2.05 2.29a.64.64 0 01.16.52.84.84 0 01-.11.26zm-4.53 4.22c-.85-.4-2.21-1.17-2.82-1.44a11.66 11.66 0 01-1.75-.82 1.57 1.57 0 01-.43-1c0-.12.37-.32.58-.47.9-.64 1.34.11 1.92.49s2 1.77 2.67 2.14.71.66 0 1.13c-.08.04-.28-.04-.17-.03zM9.7 56.32c0 .15-.2.22-.48.23a7.46 7.46 0 01-2-.46c-1-.27-2-.4-3-.65a.9.9 0 00-.46 0c-.47.14-.93-.44-1.09-.85-.43-1.08.36-1.32.86-1.41a2.35 2.35 0 01.86.18c.64.31 1.4.51 2 .82 1 .48 1.95.9 2.88 1.41a.63.63 0 01.35.43.67.67 0 01.08.3zm7.68 34.48l-.27.26c-.3.27-.54.59-.84.86l-2.79 2.68c-.87.82-1.76 1.64-2.69 2.39a.83.83 0 01-.85-.19c-.21-.33-.44-.87-.26-1.2a5.38 5.38 0 011.38-1.35c1.63-1.25 2.47-1.67 4.07-3 .45-.35 1.79-1.3 2.22-1.66a11.43 11.43 0 011-.75 1.1 1.1 0 01.3-.09c.15.27.14 0 .18.35s-.57.78-.73 1-.48.47-.72.7zm8.97 13.76a3.54 3.54 0 00-1.69 2.4s-.15.32-.1.42c.2.41.46 1.11.74 1a3.68 3.68 0 001.75-1.41c.42-.79 1.45-2.63.24-3.06-.21-.07-.75.57-.94.65zm-3.07-4.41c-.11.14-.27.68-.36.84l-.43.81-.95 1.68c-.19.31-.43 1.4-.91 1.57s-.39-.22-.81-.13c-.12 0-.47-.35-.48-.54a2.15 2.15 0 01.18-1.24c.44-.7 1.07-1.19 1.57-1.84s1.06-1.35 1.6-2c.15-.17.49-.44.54-.4.29.19.39.3.22.66a6 6 0 01-.17.59zM1.72 74.17a1.8 1.8 0 01-1.29-.2.74.74 0 01-.1-1 3.83 3.83 0 011.88-1.1 15.61 15.61 0 012.89 0h1a14.28 14.28 0 012.78.29 21.86 21.86 0 003 .07.6.6 0 01.23 0c.14.39.47.19-.15.57-.07 0-1.92.4-2.05.41-1.63.27-3.37.27-4.95.45-.61.06-2.11.43-3.24.51zM8.9 90.48c.59-.5 2.09-1.33.77-1.59a3.77 3.77 0 00-2.93.83c-.5.33-1.14.66-1 1.4a1.46 1.46 0 002.26.23c.28-.27.54-.58.9-.87zm-.67-12.41c0 .14-.06.27-.29.41a7.05 7.05 0 01-1.86.56c-.91.23-1.84.63-2.75.89a.75.75 0 00-.37.24c-.32.34-1 .08-1.32-.2-.87-.72-.31-1.32 0-1.63a1.93 1.93 0 01.9-.25c.67 0 1.39-.23 2.07-.26 1 0 2-.16 3-.17a.57.57 0 01.49.18.67.67 0 01.13.23zm.59 5.63c-.81.48-2.22 1.18-2.79 1.53a12.5 12.5 0 01-1.67 1 1.44 1.44 0 01-1.06-.21c-.1-.06 0-.5 0-.75 0-1.1.85-1 1.49-1.29s2.62-.68 3.29-1 .94-.22.9.56c-.04.13-.23.25-.16.16zm10.52 11.78c.11.09.11.27 0 .53a7.63 7.63 0 01-1.2 1.67c-.62.78-1.16 1.7-1.76 2.48a1 1 0 00-.17.44c-.06.49-.76.69-1.2.67-1.13-.05-1.09-.83-1-1.32a2.24 2.24 0 01.51-.72c.54-.46 1-1.07 1.56-1.53.83-.7 1.6-1.45 2.44-2.12a.66.66 0 01.53-.17.62.62 0 01.29.07zm38.71 11.67v1.58l-.29 3.86c-.11 1.19-.23 2.39-.43 3.57a.84.84 0 01-.76.44c-.38-.09-.92-.35-1-.72a5.34 5.34 0 01.08-1.94c.32-2 .65-2.89 1-4.92.09-.56.44-2.16.52-2.72a9.71 9.71 0 01.21-1.2 1.17 1.17 0 01.2-.26c.38.11.14-.08.47.14s.15 1 .15 1.2-.13.65-.15.97zm16.78 6.33a3.47 3.47 0 00-.29 2.9s0 .36.12.42c.38.23 1 .71 1.14.49a3.68 3.68 0 00.84-2.08c0-.9 0-3-1.31-2.8-.21.07-.36.88-.5 1.07zm-5.12-2.22c0 .18.14.73.15.91s.05.64.07.91l.1 1.9c0 .37.38 1.41.07 1.82s-.45 0-.76.3c-.08.08-.58-.06-.7-.22a2.2 2.2 0 01-.52-1.14 19.7 19.7 0 01.31-2.4c.07-.84.17-1.7.29-2.53 0-.23.18-.63.25-.63.36 0 .52.07.57.46 0 .07.18.55.17.62zm-36.97-1.42a1.86 1.86 0 01-.74 1.08c-.32.12-.82 0-.91-.33a4.2 4.2 0 01-.22-2.2 16.32 16.32 0 011.25-2.61c.15-.3.27-.61.4-.92a12.53 12.53 0 011.45-2.38 19.42 19.42 0 001.33-2.62c0-.08.11-.2.14-.19.45.07.4-.33.53.41 0 .09-.44 1.91-.49 2-.58 1.48-1.25 3-1.81 4.58-.21.61-.52 2.12-.93 3.18zm18.39 3.02c0-.76.4-2.44-.75-1.62a3.46 3.46 0 00-1.31 2.74c-.07.61-.23 1.31.41 1.71a1.51 1.51 0 001.69-1.56c-.02-.42-.05-.84-.04-1.27zm-11.65-6.96c.15 0 .23.21.25.48a6.42 6.42 0 01-.42 1.91c-.26.91-.36 1.92-.6 2.84a1 1 0 000 .44c.15.44-.42.89-.83 1a1 1 0 01-1.41-.83 1.89 1.89 0 01.15-.83c.29-.62.47-1.34.77-1.95.45-.92.84-1.86 1.34-2.75a.59.59 0 01.43-.34.71.71 0 01.32.03zm5.75 2.68c-.06.94-.3 2.49-.34 3.16a11.37 11.37 0 01-.14 1.94c-.08.3-.48.57-.8.74-.1.06-.43-.24-.65-.37-.93-.59-.38-1.28-.24-2s.91-2.55 1-3.27.36-.91 1.07-.42c.14.12.13.33.1.22zm18.05 1.04c.17 0 .29.16.37.43a7 7 0 010 2c0 1 .09 2 .07 3a.81.81 0 00.13.45c.24.43-.22 1-.58 1.25-1 .63-1.37 0-1.58-.48a2 2 0 010-.88c.14-.7.14-1.48.3-2.18.23-1 .4-2.11.68-3.14a.69.69 0 01.35-.46.87.87 0 01.26.01zm40.61-8.49l.16.35c.17.36.4.69.56 1l1.67 3.5c.5 1.09 1 2.18 1.41 3.3a.85.85 0 01-.44.76c-.38.11-1 .17-1.23-.11a5 5 0 01-.88-1.72c-.72-1.92-.85-2.85-1.58-4.77-.2-.53-.69-2.1-.9-2.63a11.2 11.2 0 01-.41-1.15 1.39 1.39 0 010-.32c.35-.09.07-.14.45-.1s.59.78.71 1 .34.59.48.89zm16.78-3.47a3.64 3.64 0 001.54 2.51s.24.27.34.26c.44 0 1.2 0 1.21-.29a3.47 3.47 0 00-.61-2.13c-.57-.7-1.88-2.34-2.73-1.46-.14.15.26.93.25 1.11zm-5.24 1.06a7.84 7.84 0 00.63.67l.56.71 1.15 1.51c.22.29 1.11 1 1.08 1.46s-.35.28-.44.7c0 .11-.5.3-.68.23a2.29 2.29 0 01-1.08-.67 23 23 0 01-1.07-2.17c-.41-.73-.81-1.5-1.18-2.25a1.34 1.34 0 01-.15-.66c.29-.19.44-.24.7 0 .04.11.44.41.48.47zm-32.35 16.34a1.79 1.79 0 01-.17 1.29.74.74 0 01-1 .11 4.09 4.09 0 01-1.21-1.82 15.36 15.36 0 01-.12-2.9c0-.33 0-.67-.08-1a12.12 12.12 0 01.2-2.79 18.28 18.28 0 000-3v-.23c.46-.15.21-.48.69.13.06.07.5 1.9.52 2 .16 1.58.29 3.27.5 4.9.13.73.55 2.18.67 3.31zm17.71-5.65c-.34-.68-.78-2.34-1.41-1.11a3.49 3.49 0 00.12 3c.22.56.4 1.26 1.15 1.33a1.48 1.48 0 00.77-2.15c-.21-.34-.44-.69-.63-1.07zm-13.46-.93c.16 0 .31.07.44.3a6.26 6.26 0 01.48 1.89c.19.92.55 1.87.75 2.79a.83.83 0 00.23.39c.33.33 0 1-.28 1.3a1 1 0 01-1.64-.1 1.86 1.86 0 01-.23-.81c0-.68-.2-1.4-.2-2.08 0-1-.09-2 0-3.06a.59.59 0 01.23-.49.9.9 0 01.22-.13zm6.32-.21c.37.87.86 2.35 1.13 3a11.13 11.13 0 01.75 1.79 1.61 1.61 0 01-.37 1c-.07.1-.49 0-.75 0-1.09-.09-.92-1-1.09-1.63s-.35-2.68-.57-3.38-.08-1 .76-.87c.12-.03.22.17.14.09zm15.75-7.56c.14-.07.31 0 .52.18a7 7 0 011.09 1.73c.49.86 1.16 1.7 1.66 2.55a1.07 1.07 0 00.35.32c.44.24.36 1 .17 1.36-.47 1-1.18.68-1.6.39a2 2 0 01-.49-.73c-.25-.67-.65-1.34-.88-2-.35-1-.77-2-1.07-3a.59.59 0 01.25-.76zm21.92-31.03l.37.09c.38.11.78.14 1.17.24l3.75 1c1.16.3 2.32.62 3.45 1a.83.83 0 01.3.82c-.15.36-.48.85-.86.88a5.2 5.2 0 01-1.89-.43c-1.93-.68-2.74-1.17-4.67-1.83-.54-.19-2.06-.81-2.6-1a8.74 8.74 0 01-1.15-.42 1 1 0 01-.23-.22c.15-.32-.06-.14.2-.4s1 0 1.2.08.64.11.96.19zm7.9-15.14a3.54 3.54 0 002.92.39s.36 0 .42-.1c.24-.36.73-.92.51-1.11a3.56 3.56 0 00-2.06-.9c-.9 0-3-.06-2.82 1.19.03.22.86.39 1.03.53zm-2.48 4.79c.18 0 .73-.08.92-.08h2.77c.36 0 1.43-.27 1.81.07s0 .45.26.78c.07.09-.12.57-.29.67a2.2 2.2 0 01-1.19.42 21.64 21.64 0 01-2.36-.52c-.83-.14-1.68-.32-2.5-.5-.22 0-.6-.23-.6-.29.06-.34.12-.49.52-.5a4.62 4.62 0 01.66-.05zm-8.91 34.47c.44.39.76.77.77 1.07s-.3.76-.63.73a4.08 4.08 0 01-2.13-.59 14.77 14.77 0 01-2-2.09c-.23-.24-.49-.46-.73-.69a14.85 14.85 0 01-1.73-2.17 19.64 19.64 0 00-2-2.14c-.06-.06-.14-.17-.13-.19.21-.35-.18-.45.53-.31.08 0 1.63 1.08 1.73 1.17 1.2 1 2.44 2.21 3.69 3.27.47.39 1.78 1.19 2.63 1.94zm7.87-16.52c-.76-.19-2.27-.91-1.74.35a3.47 3.47 0 002.36 1.85c.58.2 1.22.52 1.78 0a1.49 1.49 0 00-1.16-2c-.4 0-.83-.09-1.24-.2zm-9.54 9c.09-.13.26-.16.52-.09a7 7 0 011.68 1c.79.52 1.72.93 2.53 1.43a.88.88 0 00.43.1c.47 0 .72.67.74 1.1 0 1.12-.71 1.17-1.19 1.12a1.83 1.83 0 01-.73-.41c-.5-.46-1.13-.86-1.62-1.33-.74-.72-1.52-1.39-2.23-2.13a.62.62 0 01-.2-.5.67.67 0 01.07-.29zm4.04-4.5c.89.32 2.33 1 3 1.16a11.13 11.13 0 011.84.65 1.57 1.57 0 01.51 1c0 .11-.35.35-.54.52-.81.74-1.33 0-2-.3s-2.21-1.56-2.87-1.86-.78-.59-.14-1.12c.1-.11.32-.05.2-.05zm4.26-16.56c0-.16.19-.25.47-.29a7.42 7.42 0 012 .24c1 .17 2.05.18 3 .32a.81.81 0 00.46-.07c.46-.18 1 .33 1.16.73.5 1-.2 1.35-.69 1.49a2.06 2.06 0 01-.88-.08c-.67-.24-1.44-.35-2.11-.59-1-.37-2-.67-3-1.08a.62.62 0 01-.44-.67zm-9.79-37.46l.32-.21c.34-.21.64-.48 1-.69l3.25-2.09c1-.64 2-1.27 3.11-1.82a.82.82 0 01.8.34c.15.37.27 1 0 1.24a4.94 4.94 0 01-1.6 1.1c-1.81 1-2.71 1.21-4.52 2.17-.5.26-2 .95-2.49 1.23a11.12 11.12 0 01-1.09.55 1.19 1.19 0 01-.32 0c-.13-.35-.14-.06-.15-.45 0-.24.7-.69.87-.83s.54-.37.82-.54zm-6.06-14.7c1-.27 1.62-1.49 1.91-2.25 0 0 .18-.31.13-.4-.17-.41-.37-1.13-.65-1a3.73 3.73 0 00-1.9 1.22c-.51.74-1.74 2.45-.52 3 .21.09.82-.52 1.03-.57zm2.3 4.57c.13-.13.38-.63.49-.78l.54-.73 1.16-1.51c.22-.28.62-1.31 1.12-1.42s.36.26.78.25c.11 0 .4.42.38.61a2.21 2.21 0 01-.38 1.19c-.54.61-1.25 1-1.85 1.57s-1.26 1.16-1.89 1.71c-.17.15-.54.37-.58.33-.22-.22-.29-.34-.06-.66.04-.06.24-.52.29-.56zm19.97 28.85a1.84 1.84 0 011.29.12.77.77 0 01.13 1 4.1 4.1 0 01-1.76 1.2 15.25 15.25 0 01-2.9.14l-1 .09a13.18 13.18 0 01-2.79-.12 19.74 19.74 0 00-2.94.1.6.6 0 01-.23 0c-.15-.4-.47-.17.12-.62.08-.05 1.9-.52 2-.54 1.58-.21 3.26-.38 4.88-.63.59-.12 2.07-.58 3.2-.74zm-7.55-16.64c-.62.44-2.2 1.13-.85 1.58a3.42 3.42 0 003-.59c.52-.32 1.18-.61 1.12-1.36a1.52 1.52 0 00-2.27-.43c-.34.27-.65.55-1 .8zm.83 12.96c0-.15.07-.29.28-.44a7 7 0 011.84-.62c.91-.26 1.82-.69 2.72-1a.76.76 0 00.36-.25c.3-.36 1-.11 1.33.15.86.71.35 1.32 0 1.65a1.93 1.93 0 01-.79.28c-.67.07-1.39.29-2.06.34-1 .09-2 .24-3 .28a.6.6 0 01-.5-.17.63.63 0 01-.18-.22zm-.79-5.77c.8-.48 2.19-1.19 2.75-1.55a11.87 11.87 0 011.66-1 1.5 1.5 0 011.08.2c.1 0 .06.48.08.73.08 1.08-.81 1-1.45 1.3s-2.62.72-3.28 1-.95.24-1-.54c.04-.1.23-.22.16-.14zm-9.72-14.42c-.09-.12 0-.29.11-.52a8 8 0 011.53-1.36c.77-.63 1.48-1.41 2.23-2.06a.9.9 0 00.25-.39c.15-.46.9-.53 1.32-.41 1.08.3.88 1.05.64 1.51a2.13 2.13 0 01-.65.59c-.62.34-1.22.84-1.85 1.17-1 .5-1.86 1.07-2.82 1.54a.64.64 0 01-.54.07.52.52 0 01-.22-.14z" fill="currentColor"/></svg>