<svg xmlns="http://www.w3.org/2000/svg" viewBox="0 0 212.39 137.76"><path d="M68.55 10.64c-.58 1-1 2.19-1.6 3.26s-1.41 2.37-2 3.57a47 47 0 00-2.36 5.18c-.18.47-.58 1.53-.79 2a9.46 9.46 0 01-.37 1l-.1.19a1.23 1.23 0 00-.22.81c0 .28.2.75.55.67s.65-.59.84-.83.37-.83.62-1.18.72-1.67 1-2.17c.46-.84.81-1.75 1.24-2.62.72-1.38 1.51-2.73 2.28-4.12.51-.92 1-1.88 1.52-2.78s1-1.58 1.5-2.38 1.1-1.66 1.58-2.52a12.75 12.75 0 001.2-2.5 3.67 3.67 0 00-.12-1.73.87.87 0 00-.6-.49 3.79 3.79 0 00-1 0c-.74.54-1.22.91-.8 2 .21.54-.5 1.49-.89 2.21-.41.79-1.03 1.58-1.48 2.43zM80.51 6.8c-1.31 1.93-2.71 3.7-3.91 5.67-1.08 1.75-2 3.52-3 5.29a27.92 27.92 0 01-2.71 4.29c-.71.8 0 1 .24 1.42a1.63 1.63 0 00.85-.32c.16-.14.11-.54.25-.75.68-1 2.07-2.9 2.83-3.9a9.87 9.87 0 00.64-.95c1-1.76 2-3.62 3.22-5.32.34-.51.93-.85 1.28-1.35s.62-1.24 1-1.81.72-1 1.09-1.53l-.46-2.88c-.41.73-.83 1.45-1.32 2.14zm-.39 8.2c-.71 1-2.74 4-3.39 5a1.48 1.48 0 01-.21.24c-.57.43-.47.71-.41 1a1 1 0 00.64.67.91.91 0 00.78-.42c.19-.34.13-.69.34-1l1.56-2.18 1.62-2.13c.75-1 1.45-2.06 2.17-3.12l-.39-2.46c-.43.58-.86 1.16-1.25 1.76-.58.93-.93 1.85-1.46 2.64zm-26.7 15.32a1.7 1.7 0 00.56-.13 5.26 5.26 0 00.83-1.19c.12-.41 1-3.31 1.13-3.72a20.72 20.72 0 011.22-3.17c.5-1 1.05-2 1.58-3.06a54.8 54.8 0 002.36-5.38c.68-1.77 1.3-3.53 2.09-5.17.18-.38.61-.69.67-1.09.3-1.93-1.51-1-1.92-.84-.08.17-.15.38-.26.57-.46.76-.8 2.39-1.16 3.2-.46 1.03-1.14 2.66-1.52 3.72-.21.52-1 2.23-1.79 3.83s-1.44 3.11-1.53 3.44c-.23.68-1.26 2.84-1.54 3.46-.19.35-.78 3-1 3.31s-.49.31-.52.7.28 1.56.8 1.52zM78.15 3.68a28.54 28.54 0 00-2.42 3.17c-.64 1-1.14 2-1.72 3-.86 1.44-1.7 2.92-2.54 4.4-.74 1.28-1.54 2.5-2.22 3.78s-2.55 4.63-3 5.85a1.18 1.18 0 00.28.88 1 1 0 00.74.22c.14 0 .25-.36.31-.57.14-.46.24-.94.37-1.4a35.87 35.87 0 011.71-3.24c.55-.81 1.26-1.49 1.78-2.33 1.13-1.8 2.22-3.68 3.43-5.45 1-1.4 2-2.83 3-4.2a1.89 1.89 0 00.24-.42 10 10 0 001-.95c.21-.25.26-.68.51-.85.49-.34.94-1.45.65-1.93-.42-.77-1.4-.78-2.12.04zM67.23 5.49a.89.89 0 00-1.33.6c-.3.89-.43 1.83-.8 2.69-.87 2.11-1.82 4.1-2.6 6.22-.2.52-1 1.58-1.17 2.07-.44 1-.93 2-1.39 3.07-.34.75-.78 1.45-1.08 2.19l-1 2.38c-.16.4-.74 1.94-.89 2.34 0 .09-.35.9-.45.87-.11.76.45.57.74.53.77-.1.79-.91 1-1.54A29.16 29.16 0 0159.45 24c.45-.92 1.13-1.72 1.6-2.65.57-1.08 1.07-2.21 1.55-3.36.55-1.33 1.78-3.17 2.4-4.45s1.21-2.24 1.69-3.42.67-2.36 1.18-3.48c.37-.77-.2-.94-.64-1.15zm16.38 10.08l-.81 1.24c-.36.53-.74 1.05-1.13 1.55s-.8.91-1.13 1.42c-.09.13.09.45.15.68.31.27.91.37 1.33-.52a10.17 10.17 0 011.9-2.45zm-36.39 2.92c.39-1.11.8-2.23 1.24-3.35.12-.3.19-.76.42-.85.71-.29.47-.65.31-1.07s-.32-.74-.62-.88-1-.25-1.26 0a3.32 3.32 0 00-.78 1.44c-.23.71-.42 1.43-.61 2.14zm3.37 2.29c.76-2.17 1.67-4.24 2.63-6.39.18-.42.51-.76.66-1.17a5.61 5.61 0 00.15-1.1 9.46 9.46 0 00.23-1.38c0-.54-.28-.72-.74-.63a2.47 2.47 0 00-1.91 1.14c-.15.25-.09.59-.18.88l-1 3.54c-.35 1.16-.61 2.38-1 3.55-.24.72-.5 1.43-.75 2.14l1.11 2.23.14-.43c.22-.78.38-1.6.66-2.38zm3.41.8c.47-1.13.87-2.33 1.3-3.51.62-1.65 2.39-4.57 2.84-6.29.18-.72 1.77-1.57.38-2.58-.25-.13-.57-.43-.74-.36-.54.2-1.23.44-1.46.87a12.53 12.53 0 00-.61 2.22c-.45 1.34-1.84 3.88-2.25 5.23s-.89 2.84-1.36 4.25c-.26.84-.85 2.87-1.26 4.35l.87 1.75c.15-.3.3-.6.43-.9.2-.46.55-1.48.92-2.52s.78-2.04.94-2.51zm-19 4.31c-.18 1.23-.22 2.45-.4 3.63-.2 1.35-.47 2.72-.61 4.07-.1 1-.2 1.88-.25 2.83s-.05 1.89 0 2.82c0 .5.07 1.62 0 2.09s.08.66.05 1v.21a1.3 1.3 0 00.13.82c.16.24.48.61.76.41s.34-.77.41-1.06 0-.87.11-1.29 0-1.79.06-2.36c.08-.95.08-1.89.17-2.84.16-1.52.35-3.12.61-4.65.17-1 .28-2.08.46-3.13s.41-1.83.63-2.76.49-1.93.67-2.91a14.89 14.89 0 00.38-2.77 3.61 3.61 0 00-.67-1.6.86.86 0 00-.7-.27 3.73 3.73 0 00-.92.32c-.53.79-.88 1.3-.14 2.14.38.44 0 1.58-.13 2.39-.16 1.02-.48 1.93-.62 2.91z" fill="currentColor"/><path d="M45.24 18.31c-.68 2.27-1.48 4.38-2 6.63-.46 2-.78 4-1.07 6a37.26 37.26 0 01-1 4.9c-.36 1 .36.94.72 1.25 0 0 .51-.32.64-.59s-.09-.55 0-.79c.27-1.17.94-3.34 1.3-4.56a9.84 9.84 0 00.28-1.1c.39-2 .76-4.06 1.34-6 .17-.58.62-1.09.81-1.68s.2-1.38.41-2.05.4-1.17.61-1.76l-1.3-2.61c-.28.75-.5 1.54-.74 2.36zm2.14 7.96l-.83 2.9c-.29 1.16-.58 2.31-.74 2.91a1 1 0 01-.11.29.82.82 0 000 1.1 1 1 0 00.81.44.88.88 0 00.59-.63c.06-.37-.11-.69 0-1 .23-.94 1.25-4.11 1.59-5.05.4-1.19.74-2.41 1.12-3.6L48.7 21.4c-.24.68-.49 1.33-.68 2-.31.94-.4 1.93-.64 2.87zM28.76 49.59s.42-.27.43-.33a4.8 4.8 0 00.21-1.4c0-.2-.17-1-.31-1.88s-.24-1.69-.27-1.91a19.58 19.58 0 01-.2-3.36c0-1.11.15-2.25.24-3.41.35-4.06 0-7.79.29-11.51 0-.42.33-.88.24-1.29-.37-1.93-1.79-.36-2.12 0v.64a32.48 32.48 0 000 3.42c-.05 1.17-.08 3 0 4.1 0 .29 0 .9-.08 1.66S27.06 36 27 36.86c-.09 1.77-.08 3.46 0 3.76.07.72 0 3.05 0 3.75 0 .41.57 3 .53 3.36s-.3.46-.15.82.96 1.29 1.38 1.04zM42 16.09a27.7 27.7 0 00-1.37 3.79c-.31 1.13-.46 2.28-.7 3.39-.37 1.65-.66 3.37-1 5-.28 1.43-.59 2.87-.77 4.32-.08.66-.29 1.94-.43 3.23s-.21 2.58-.2 3.22a1.18 1.18 0 00.58.72.86.86 0 00.75-.05c.12-.07.09-.41.07-.64-.07-.48-.13-.95-.19-1.43a25.19 25.19 0 01.42-3.57c.23-.93.61-1.87.83-2.8.46-2 .84-4.2 1.43-6.26.45-1.63.95-3.32 1.53-4.94a1.68 1.68 0 00.09-.48 11.27 11.27 0 00.71-1.23c.13-.32.05-.73.24-1a1.94 1.94 0 000-2.06c-.57-.54-1.54-.23-1.99.79zM32 21.5a1 1 0 00-1.07 1.07c0 .95.2 1.88.15 2.81-.14 2.26-.25 4.58-.26 6.78 0 .54-.3 1.83-.31 2.37 0 1.13-.08 2.24-.12 3.34 0 .83-.15 1.63-.13 2.43s0 1.7.07 2.55c0 .42.13 2 .16 2.45 0 .1.07.94 0 1 .21.72.64.34.88.2.64-.37.32-1.11.25-1.76a24.25 24.25 0 01-.12-3.07c.05-1 .32-2 .41-3 .11-1.2.14-2.44.15-3.69 0-1.43.53-3.54.62-5 .07-1.28.37-2.51.42-3.79s-.18-2.47-.07-3.73c.06-.96-.55-.93-1.03-.96zm18.84 4.26l-.39 1.4c-.18.6-.38 1.22-.59 1.82s-.46 1.1-.6 1.68c0 .15.22.4.35.6.37.16 1 .08 1.07-.89a8.63 8.63 0 011-2.86zM18.08 41.58c-.14-1.21-.19-2.37-.25-3.6 0-.32-.12-.77 0-1 .52-.6.16-.82-.16-1.14s-.6-.53-.93-.53-1.05.25-1.18.54a3.45 3.45 0 00-.15 1.66c.07.75.19 1.49.33 2.24zm4.04.63c-.09-1.13-.18-2.31-.2-3.46s0-2.32 0-3.51c0-.45.16-.92.16-1.35a5.41 5.41 0 00-.29-1.08 10.61 10.61 0 00-.31-1.38c-.2-.5-.54-.55-.94-.28A2.63 2.63 0 0019.2 33c0 .29.15.58.18.89.13 1.25.26 2.47.43 3.69s.43 2.47.57 3.68c.07.75.15 1.5.22 2.26l2 1.54-.07-.45c-.15-.79-.33-1.61-.41-2.4zm3.46-.71c0-1.22-.15-2.46-.23-3.73-.08-1.75.41-5.19.24-7-.1-.73 1.08-2.16-.6-2.56-.29 0-.7-.17-.84 0-.43.4-1 .91-1.07 1.38a12.21 12.21 0 00.26 2.32c.08 1.42-.21 4.35-.05 5.75s.27 3 .48 4.47c.12.88.4 2.92.72 4.43L26 47.78v-1c0-.91-.45-4.28-.42-5.28zm-15 12.6c.45 1.17 1 2.23 1.48 3.35.57 1.29 1 2.58 1.61 3.78A26.88 26.88 0 0016.6 66c.31.39 1 1.25 1.24 1.63s.45.47.63.76l.1.18a1.31 1.31 0 00.59.55c.27.1.75.22.85-.07s-.19-.77-.28-1-.48-.68-.66-1.05-1-1.41-1.31-1.9c-.42-.79-1-1.56-1.41-2.39a45.16 45.16 0 01-2-4.21c-.43-1-.81-1.91-1.18-2.91s-.61-1.83-.85-2.74-.48-1.94-.79-2.91a17.19 17.19 0 00-1-2.66 3.44 3.44 0 00-1.33-1.1.85.85 0 00-.76.11 3.71 3.71 0 00-.69.77c-.1 1-.17 1.62.89 2 .54.2.75 1.42 1 2.2.36.89.58 1.91.94 2.84z" fill="currentColor"/><path d="M16.2 42.33c.15 1.15.3 2.32.5 3.48s.37 2.27.66 3.38a49.21 49.21 0 001.92 5.72c.24.62.57 1.49.86 2.34a16.61 16.61 0 01.75 2.29c.2 1 .8.6 1.26.7a1.31 1.31 0 00.25-.77c0-.21-.36-.41-.45-.64-.44-1.12-.88-3.24-1.19-4.47a10.72 10.72 0 00-.28-1.08c-.32-1-.63-1.92-.92-2.92s-.51-2-.72-3c-.12-.6 0-1.28 0-1.89s-.4-1.31-.5-2-.15-1.25-.22-1.89l-2.3-1.79c.11.85.27 1.7.38 2.54zm5.43 6.17c.13.6.38 1.77.62 2.93s.59 2.28.74 2.85a2 2 0 01.05.3.82.82 0 00.5 1 1.08 1.08 0 00.91 0 .77.77 0 00.19-.79c-.13-.35-.43-.55-.51-.89s-.35-1.48-.53-2.51-.37-2.11-.44-2.6c-.15-1.2-.38-2.43-.59-3.68l-2-1.54c.08.73.17 1.44.29 2.14.21.94.54 1.84.77 2.79zm-2.75 28.03c0-.06.16-.44.12-.49a5.22 5.22 0 00-.75-1.12c-.26-.23-2.48-2.15-2.8-2.46A18.59 18.59 0 0113.3 70c-.67-.91-1.2-1.87-1.81-2.87s-1-1.71-1.57-2.54-1.08-1.65-1.61-2.44a47.58 47.58 0 01-2.87-4.93c-.19-.39-.15-1-.43-1.27-1.31-1.49-1.76.7-1.89 1.16a6.52 6.52 0 01.29.59 32.7 32.7 0 001.87 3 34.11 34.11 0 002.2 3.52c.17.24.48.78.86 1.44l1.39 2.2a30.61 30.61 0 002.19 3c.24.25.7.86 1.15 1.45l1.18 1.43a16.17 16.17 0 001.24 1.1 14.8 14.8 0 011.27 1.07c.21.31.07.52.41.69s1.52.34 1.71-.07zm-6.61-34.72a29.77 29.77 0 00.44 4.09c.24 1.18.64 2.28.95 3.39.43 1.64 1 3.3 1.54 4.88.46 1.37 1 2.79 1.52 4.08.24.59.79 1.8 1.35 2.93a18.47 18.47 0 001.58 2.71 1.29 1.29 0 00.87.3.78.78 0 00.58-.41c.06-.11-.17-.37-.3-.54l-.91-1.06A22.73 22.73 0 0118.33 59c-.27-.89-.39-1.85-.72-2.77-.61-2-1.34-4-1.79-6.13q-.29-1.26-.51-2.55c-.14-.86-.26-1.71-.38-2.59a1.44 1.44 0 00-.13-.48 11.39 11.39 0 00.09-1.48c0-.34-.27-.67-.2-1 .14-.6-.27-1.74-.82-1.88-.87-.12-1.65.53-1.6 1.69zm-6.49 10a1 1 0 00-.44 1.54c.47.82 1.11 1.54 1.56 2.4s1.06 2 1.6 3.06 1.15 2 1.76 2.93c.29.47.69 1.7 1 2.16.63.95 1.21 1.89 1.79 2.81.46.68.83 1.39 1.32 2s1 1.32 1.57 2c.27.32 1.31 1.48 1.58 1.76 0 .07.64.66.57.72.64.41.71-.11.8-.34.29-.63-.4-1-.85-1.44-.21-.22-.62-.65-1-1.11a14.66 14.66 0 01-.92-1.17c-.53-.81-.93-1.76-1.41-2.62-.58-1-1.29-2-2-3.09s-1.54-3.28-2.16-4.57c-.57-1.12-1-2.38-1.61-3.52s-1.34-2.11-1.85-3.28c-.36-.84-.86-.47-1.31-.24zm18.71-5.23c.11.58.21 1.09.28 1.42.11.62.2 1.23.28 1.84a12.65 12.65 0 00.25 1.73c0 .15.38.26.59.39.4 0 .83-.34.51-1.23a9.19 9.19 0 01-.4-2.95zM5.53 77.16c-.83-.87-1.69-1.78-2.48-2.74-.21-.26-.56-.55-.55-.82.06-.82-.36-.77-.81-.83s-.8-.06-1.06.17A1.75 1.75 0 000 74.16a3.11 3.11 0 00.93 1.47c.55.58 1.11 1.1 1.68 1.62zM9 75.05a41.46 41.46 0 01-4.36-5.51c-.26-.38-.41-.87-.68-1.23a6.12 6.12 0 00-.87-.73 10.61 10.61 0 00-1-1c-.45-.3-.76-.13-.94.35a2.94 2.94 0 000 2.46c.14.28.46.4.67.63l1.26 1.43 1.33 1.37c.91.91 1.79 1.72 2.71 2.6l1.62 1.62 2.49-.04-.33-.3c-.6-.56-1.27-1.05-1.9-1.65zm2.33-2.68l-2.4-2.83a23.4 23.4 0 01-1.91-3 29.13 29.13 0 00-1.89-3c-.5-.56-.31-2.51-1.92-1.85-.25.15-.68.27-.73.47a3.63 3.63 0 00-.12 1.85c.33.72 1.05 1.19 1.53 1.82s1 1.54 1.6 2.46a22.29 22.29 0 001.72 2.36c1 1.14 2.07 2.23 3.1 3.27a43.36 43.36 0 003.34 2.94l1.95-.06-.6-.65c-.31-.34-1.13-1.05-1.84-1.82s-1.5-1.57-1.83-1.96zM8.54 91.79c1.14.53 2.28.89 3.44 1.32 1.32.5 2.51 1.09 3.85 1.46.91.27 1.81.51 2.69.71a24.41 24.41 0 002.74.39l2 .18c.33 0 .65 0 1 .06h.2a1.23 1.23 0 00.8 0c.26-.13.67-.4.53-.68s-.67-.39-.94-.49-.84-.1-1.22-.22-1.72-.2-2.26-.32c-.91-.2-1.78-.35-2.7-.58-.72-.19-1.48-.4-2.2-.65l-2.17-.81c-1-.37-2-.73-2.92-1.19s-1.72-.87-2.54-1.36S7.16 88.52 6.26 88a18.86 18.86 0 00-2.57-1.3 3.31 3.31 0 00-1.69.1c-.2 0-.42.36-.47.62a4.41 4.41 0 000 1.08c.61.84 1 1.37 2 .89.54-.24 1.54.53 2.28.92s1.82 1.06 2.73 1.48zM4.58 79c.9.82 1.73 1.63 2.65 2.38s1.83 1.47 2.75 2.1a36.62 36.62 0 005.32 2.79l2.23 1a15.79 15.79 0 012.12 1c.81.51 1-.15 1.38-.41a1.14 1.14 0 00-.35-.68c-.15-.12-.54 0-.76-.12s-.59-.26-.93-.43l-1-.59-2-1.19a8.49 8.49 0 00-.93-.56c-.87-.45-1.79-.93-2.65-1.46s-1.7-1.12-2.55-1.75c-.51-.36-.78-1-1.25-1.39S7.44 79 6.9 78.5s-.9-.88-1.37-1.34l-2.91.09z" fill="currentColor"/><path d="M12.71 80.14c.5.36 1.48 1.07 2.42 1.71s1.95 1.21 2.45 1.5a1.68 1.68 0 01.23.17.84.84 0 001 .32 1.16 1.16 0 00.69-.58.69.69 0 00-.4-.65c-.33-.15-.68-.09-1-.27s-1.2-.8-2.05-1.41L14.88 80l-.81-.68c-.89-.78-1.94-1.54-2.84-2.37l-2.49.07a16.86 16.86 0 001.58 1.46c.77.65 1.68 1.1 2.39 1.66zm17.93 21.17a1.51 1.51 0 00-.29-.45 5.64 5.64 0 00-1.35-.26l-3.75.3a23 23 0 01-6.63-.74c-2-.41-3.88-.77-5.82-1.08a42.24 42.24 0 01-5.6-1.35c-.41-.14-.8-.57-1.21-.59C4 97 5.23 99 5.54 99.34c.19.06.42.12.64.21a29.43 29.43 0 003.44.74c1.17.3 3 .67 4.1.82.56.1 2.46.51 4.2.82a36.1 36.1 0 003.73.46c.36 0 1.09.1 1.85.15l1.86.13c.19 0 .94 0 1.67-.13s1.49-.19 1.67-.16c.38.07.44.32.8.2s1.33-.84 1.14-1.27zM1.26 81.25a25.58 25.58 0 003.09 2.92 30.23 30.23 0 003 1.91c1.44.93 3 1.72 4.5 2.48s2.65 1.29 3.94 1.79c.61.23 1.85.66 3 1a17.59 17.59 0 003 .68 1.28 1.28 0 00.81-.43.76.76 0 00.12-.68c0-.11-.38-.14-.6-.15h-1.4a23.52 23.52 0 01-3.33-1c-.81-.41-1.56-1-2.43-1.4a42.23 42.23 0 01-5.54-3.14 38.2 38.2 0 01-4.13-3.27 1.69 1.69 0 00-.43-.28c-.44-.56-.6-.93-.88-1.21s-.65-.35-.8-.65c-.29-.57-1.36-1.21-1.87-1-.71.42-.81 1.54-.05 2.43zm2.27 12.33A1.1 1.1 0 004.32 95c.94.26 1.93.3 2.84.6 1.14.36 2.21.72 3.34 1s2.24.55 3.33.76c.52.12 1.76.63 2.29.72 1.12.19 2.16.44 3.28.6.8.12 1.57.34 2.35.41s1.68.14 2.51.17c.42 0 2 .07 2.37.06.1 0 .94 0 .94.08.73-.17.4-.59.28-.82-.28-.64-1-.4-1.65-.38a23.18 23.18 0 01-3-.14c-.95-.15-1.88-.54-2.88-.73s-2.34-.47-3.57-.68c-1.39-.24-3.41-1.14-4.82-1.56-1.21-.38-2.41-1-3.67-1.34s-2.44-.51-3.65-1c-.84-.31-.93.33-1.08.83zm10.12-16.66l1.11.87c.5.38 1 .77 1.43 1.15a12.11 12.11 0 001.3 1.06c.13.08.45-.06.69-.1.26-.25.46-.76-.38-1.17a7.32 7.32 0 01-2.2-1.88zm8.18 34.42c-1.2 0-2.44 0-3.67-.06-.32 0-.78 0-.95-.15-.55-.6-.81-.26-1.16 0s-.59.55-.61.88a1.74 1.74 0 00.45 1.27 3 3 0 001.68.32c.78 0 1.54-.07 2.29-.13zm.91-3.97a44.17 44.17 0 01-7-.57c-.45-.07-.9-.29-1.35-.33a5.57 5.57 0 00-1.14.15 11.19 11.19 0 00-1.43.1c-.53.12-.61.47-.38.92a3 3 0 001.8 1.66c.3.08.6-.07.91-.06 1.26.05 2.55 0 3.8 0l3.73-.2h2.29l1.68-1.85h-.45c-.8.02-1.62.17-2.46.18zm-.37-3.5l-3.72-.18c-.45 0-1-.1-1.6-.2l-1.86-.41a30.59 30.59 0 00-3.49-.64c-.75 0-2-1.52-2.66.12-.06.29-.26.69-.15.86.36.53.78 1.23 1.29 1.37a12.47 12.47 0 002.37.12c.73.06 1.79.32 2.9.49a25.63 25.63 0 002.88.35c1.49.06 3.05 0 4.51 0 .85 0 3-.18 4.46-.37l1.31-1.44-1-.05c-.94 0-4.2.05-5.24-.02zm11.4 15.83c1.19-.36 2.28-.8 3.44-1.2 1.33-.44 2.67-.77 3.93-1.22a40.3 40.3 0 005.18-2.28c.44-.23 1.45-.8 1.89-1s.56-.36.9-.48l.2-.07A1.19 1.19 0 0050 113c.15-.24.34-.69 0-.86s-.86 0-1.16.07-.81.37-1.23.49-1.61.77-2.14 1c-.88.31-1.74.76-2.64 1.11-1.44.54-2.92 1-4.44 1.49-1 .34-2 .65-3 .93s-1.84.43-2.78.65-2 .33-2.94.57a14.92 14.92 0 00-2.73.85 3.5 3.5 0 00-1.18 1.26.83.83 0 00.05.76 4.07 4.07 0 00.73.7c1 .17 1.58.29 2-.74.23-.54 1.45-.65 2.24-.86 1.03-.29 2.05-.42 2.99-.72z" fill="currentColor"/><path d="M22.44 113.3a59.9 59.9 0 007-.7 50.47 50.47 0 005.84-1.51 40.79 40.79 0 014.72-1.21c1-.1.68-.74.81-1.19a1.38 1.38 0 00-.78-.34c-.21 0-.44.32-.68.38a46.55 46.55 0 01-4.6.82 9 9 0 00-1.12.24 53.87 53.87 0 01-6 1.23c-.6.07-1.25-.16-1.87-.11s-1.36.33-2.06.39-1.26 0-1.89 0l-2 2.16zm6.56-5c1.22-.12 4.71-.71 5.84-1h.3a.86.86 0 001-.45 1 1 0 00.07-.9.85.85 0 00-.77-.25c-.36.1-.58.39-.92.44l-2.56.39c-1 .12-2.1.2-2.58.24l-1.86.18-1.85.16L24 109c.72 0 1.41 0 2.13-.12.98-.13 1.92-.44 2.87-.58zm29.14 6.9a2 2 0 00-.51-.28 5.39 5.39 0 00-1.43.38c-.18.1-.9.58-1.63 1s-1.47.92-1.64 1a31.4 31.4 0 01-6.19 2.85c-1 .36-1.88.78-2.77 1.2s-1.74.81-2.59 1.24a51 51 0 01-5.11 2.41c-.4.15-.94.07-1.27.32-1.58 1.18.47 1.79.89 2a5.81 5.81 0 01.6-.23 30.48 30.48 0 003.07-1.56c1.07-.47 2.69-1.2 3.68-1.74.52-.28 2.27-1 3.9-1.69s3.16-1.45 3.41-1.59c.63-.37 2.8-1.3 3.42-1.6.38-.17 2.55-1.75 2.92-1.86s.57.08.85-.19.82-1.35.4-1.66zm-36.47 1.98h2.08c.68 0 1.39-.1 2.06-.18 1.18-.15 2.29-.45 3.42-.69 1.7-.39 3.35-.8 5-1.21 1.44-.41 2.87-.75 4.22-1.19.62-.18 1.89-.62 3.1-1.05a24.59 24.59 0 003-1.23 1.15 1.15 0 00.39-.83.91.91 0 00-.37-.65c-.11-.07-.4.1-.59.21l-1.19.79a25.36 25.36 0 01-3.39 1.22c-.93.19-1.9.22-2.85.46-2.05.52-4.09 1-6.27 1.37-1.67.24-3.42.43-5.19.54a3.23 3.23 0 00-.49.09 11.8 11.8 0 00-1.44-.21c-.34 0-.7.23-1 .14-.6-.18-1.79.16-2 .7-.34.85.37 1.66 1.51 1.72zm9.44 7.12a1 1 0 001.44.54c.85-.39 1.61-1 2.48-1.36 2.14-.92 4.21-1.7 6.23-2.75.49-.25 1.77-.52 2.26-.75l3.07-1.37c.75-.34 1.53-.57 2.24-.93s1.54-.75 2.3-1.16l2.19-1.17c.09 0 .85-.45.9-.37.58-.49 0-.72-.21-.88-.63-.44-1.17.16-1.74.5s-2.19 1.2-2.77 1.43c-.93.38-2 .54-2.92.92-1.15.48-2.25.94-3.38 1.48a24 24 0 01-2.38.88c-.86.27-1.73.5-2.4.78-1.18.46-2.45.8-3.63 1.3s-2.15 1.2-3.34 1.63c-.84.29-.53.82-.34 1.28zm-3.81-18.96l1.41-.17c.61-.07 1.25-.14 1.86-.18s1.16 0 1.73-.13c.14 0 .28-.37.42-.56 0-.4-.25-.89-1.17-.6a5.87 5.87 0 01-1.46.25h-1.48zm27.78 22.87c-1 .57-2.06 1.15-3.12 1.7-.28.15-.64.44-.87.37-.74-.21-.79.21-.94.63s-.24.77-.1 1.07.62.83.92.83a3.25 3.25 0 001.53-.57c.64-.38 1.25-.8 1.86-1.21zM54 124.26c-2 1.15-4 2.13-6.19 3.1-.41.18-.88.24-1.27.45a6.63 6.63 0 00-.85.74 13.4 13.4 0 00-1.09.87.55.55 0 00.14 1 2.53 2.53 0 002.23.39c.28-.09.46-.38.72-.54l3.12-2c1-.68 2-1.43 3.07-2.06.65-.39 1.31-.75 2-1.12l.62-2.41-.38.23c-.7.43-1.35.94-2.12 1.35zm-2-2.85c-1.1.55-2.18 1.17-3.28 1.78-1.57.9-4.81 1.83-6.34 2.85-.62.42-2.4 0-2 1.65.11.27.15.71.33.78a2.88 2.88 0 001.71.32 11.52 11.52 0 001.95-1.25c.61-.35 1.61-.76 2.6-1.18s2-.91 2.57-1.26c1.3-.79 2.56-1.51 3.84-2.31.75-.47 2.52-1.61 3.8-2.45l.48-1.89c-.31.12-.61.25-.91.39-.94.42-3.88 2.16-4.75 2.57zm17 9.32c1-.75 1.8-1.59 2.74-2.37s2.26-1.65 3.26-2.51a46.68 46.68 0 004.28-3.85c.35-.37 1.16-1.19 1.54-1.51s.44-.49.74-.71l.18-.12a1.24 1.24 0 00.54-.65c.07-.28.12-.76-.24-.84s-.85.26-1.13.4a13.24 13.24 0 00-1.07.82c-.49.31-1.35 1.26-1.81 1.61-.76.6-1.45 1.3-2.2 1.9-1.21 1-2.46 1.94-3.72 2.92-.83.66-1.63 1.33-2.47 2s-1.54 1.08-2.32 1.62-1.64 1.13-2.42 1.72a13.12 13.12 0 00-2.09 1.84 3.67 3.67 0 00-.55 1.64.85.85 0 00.33.66 3.33 3.33 0 00.88.37c.9-.22 1.48-.36 1.5-1.48 0-.58 1-1.19 1.67-1.71s1.62-1.14 2.36-1.75z" fill="currentColor"/><path d="M56.47 129.63c2-1.27 4-2.34 5.84-3.68 1.68-1.2 3.22-2.48 4.79-3.73a28.78 28.78 0 014.16-2.92c1-.45.38-.93.33-1.4a1.61 1.61 0 00-.9 0c-.21.07-.31.46-.53.6-1 .69-3 1.9-4.12 2.51a8.69 8.69 0 00-1 .63c-1.63 1.23-3.29 2.54-5 3.65-.51.33-1.19.42-1.71.74s-1.06.9-1.65 1.27-1.07.65-1.62 1l-.7 2.7c.7-.43 1.39-.92 2.11-1.37zm3.6-7.41l2.55-1.64 2.51-1.69a2.28 2.28 0 01.28-.14c.69-.17.71-.48.78-.8a1 1 0 00-.32-.87.93.93 0 00-.88.09c-.31.24-.39.59-.7.78-.82.55-3.7 2.26-4.57 2.74-1.08.61-2.15 1.35-3.22 2l-.62 2.41a25 25 0 001.85-1.1c.82-.55 1.53-1.24 2.34-1.78zm31.04-3.35a2.09 2.09 0 00-.59-.13 5.4 5.4 0 00-1.33.74c-.3.29-2.39 2.6-2.68 2.9a41.3 41.3 0 01-5.19 4.53c-3.21 2.49-5.51 5.48-8.23 7.9-.31.28-.82.4-1 .75-1 1.66 1 1.51 1.42 1.52.14-.13.29-.3.46-.43a31.7 31.7 0 002.3-2.47c.83-.79 2.09-2 2.86-2.86.39-.43 1.82-1.58 3.16-2.76s2.62-2.31 2.82-2.53c.5-.53 2.36-2 2.89-2.48.32-.27 2-2.36 2.38-2.57s.59-.07.8-.4.43-1.52-.07-1.71zm-33.68 14.55a26.46 26.46 0 003.49-2c1-.64 1.83-1.4 2.75-2.08 1.36-1 2.71-2 4-3.08 1.18-.9 2.38-1.73 3.52-2.63s4.16-3.29 5.06-4.22a1.14 1.14 0 00.09-.92.94.94 0 00-.6-.5c-.14 0-.38.23-.52.41-.31.36-.59.77-.89 1.14a33.43 33.43 0 01-2.86 2.33c-.82.51-1.75.89-2.55 1.45l-2.61 1.89c-.87.61-1.76 1.22-2.66 1.82-1.42.92-2.91 1.86-4.39 2.7a2 2 0 00-.39.3 11.61 11.61 0 00-1.34.46c-.3.15-.51.52-.81.58-.59.12-1.45 1-1.38 1.52.18.91 1.09 1.3 2.09.83zM68.24 136a.9.9 0 001.46 0c.62-.69 1.1-1.52 1.77-2.17 1.61-1.6 3.26-3.11 4.81-4.7.38-.4 1.5-1.08 1.89-1.45.82-.79 1.66-1.53 2.51-2.26.62-.53 1.3-1 1.89-1.55l1.92-1.87 1.82-1.73c.08-.07.72-.66.79-.6.45-.63-.17-.7-.46-.79-.76-.25-1.13.48-1.6 1s-1.81 1.75-2.32 2.17c-.8.68-1.75 1.1-2.57 1.75s-1.88 1.61-2.78 2.48c-1 1-2.88 2.16-4 3.15s-2 1.59-2.88 2.49-1.53 1.92-2.43 2.75c-.59.59-.13.96.18 1.33zm-11.13-15.66l1.21-.81c.54-.35 1.09-.67 1.65-1s1.08-.53 1.57-.86c.13-.09.1-.45.14-.69-.18-.36-.69-.7-1.41 0a9 9 0 01-2.68 1.5zm34.38 11.88L89 134.69c-.23.22-.48.59-.72.59-.74 0-.68.41-.71.86s0 .8.18 1.05.8.64 1.08.55a3.13 3.13 0 001.27-.94c.5-.54 1-1.1 1.44-1.66zm-2.01-3.53c-1.62 1.62-3.31 3.16-5 4.67-.33.29-.76.48-1.06.79a5.45 5.45 0 00-.58 1 10.73 10.73 0 00-.76 1.18c-.22.49 0 .77.4.87a2.52 2.52 0 002.16-.27c.23-.17.32-.5.51-.72l2.39-2.75c.79-.95 1.54-1.92 2.37-2.81.52-.55 1.06-1.07 1.6-1.59v-2.5l-.31.33c-.63.55-1.13 1.22-1.72 1.8zm-2.78-2.17c-.91.82-1.77 1.72-2.65 2.61-.63.64-1.63 1.45-2.61 2.28a16.55 16.55 0 00-2.5 2.33c-.45.59-2.22.76-1.36 2.22.18.22.35.62.53.63a3 3 0 001.66-.22 12.28 12.28 0 001.42-1.76c.94-1 3.22-2.86 4.15-3.87l3-3.28 3.05-3.36v-1.95c-.27.2-.54.4-.8.62-.73.63-3.13 3.09-3.89 3.75zm18.75 4.97c.76-.93 1.41-2 2.17-2.9s1.84-2 2.71-3.1a49.43 49.43 0 003.49-4.55c.29-.44 1-1.39 1.27-1.77a9.66 9.66 0 01.62-.85l.15-.15a1.23 1.23 0 00.43-.73c0-.29 0-.78-.39-.79s-.81.42-1.07.61a11.15 11.15 0 00-.92 1c-.44.39-1.13 1.49-1.52 1.92-.65.74-1.2 1.54-1.83 2.28l-3.1 3.59c-.69.8-1.33 1.65-2 2.45s-1.27 1.36-1.91 2.06-1.36 1.41-2 2.18A12.63 12.63 0 00100 135a3.65 3.65 0 00-.17 1.72.84.84 0 00.46.57 3.33 3.33 0 00.91.14c.8-.43 1.32-.69 1.1-1.79-.12-.57.74-1.37 1.23-2s1.31-1.4 1.92-2.15z" fill="currentColor"/><path d="M93.16 133.27c1.57-1.7 3.22-3.3 4.73-5 1.36-1.5 2.58-3.16 3.86-4.73a27.61 27.61 0 013.52-3.71c.88-.67.19-1 0-1.45a1.86 1.86 0 00-.92.17c-.2.11-.22.51-.4.69-.88.9-2.63 2.44-3.57 3.33a10.72 10.72 0 00-.8.85c-1.33 1.59-2.66 3.15-4.07 4.7-.42.45-1.06.7-1.49 1.14s-.79 1.15-1.26 1.64-.87.88-1.31 1.31v2.92c.6-.63 1.13-1.26 1.71-1.86zm1.66-8.07c.86-1 3.37-3.5 4.22-4.41a1.39 1.39 0 01.25-.21c.65-.34.6-.64.6-1a1.05 1.05 0 00-.53-.77 1 1 0 00-.87.29c-.24.3-.24.66-.51.91l-3.88 3.79c-.92.89-1.78 1.8-2.65 2.72v2.5c.51-.5 1-1 1.5-1.52.69-.72 1.21-1.58 1.87-2.3zm30.33-9.4a2.1 2.1 0 00-.61 0 5.8 5.8 0 00-1.23.94c-.26.32-2 2.91-2.21 3.28a39.82 39.82 0 01-4.37 5.36c-2.72 3.06-4.4 6.4-6.55 9.31-.24.33-.71.55-.84.93-.65 1.83 1.24 1.29 1.66 1.21a3.64 3.64 0 01.36-.5c.58-.67 1.23-2.13 1.74-2.86.65-.93 1.65-2.38 2.25-3.34s4.64-5.72 5-6.25 2-2.42 2.45-2.95c.27-.31 1.65-2.63 2-2.88s.58-.17.73-.54.15-1.61-.38-1.71zM95 136.7a38.93 38.93 0 002.83-2.7c.77-.84 1.43-1.74 2.16-2.63l3.26-3.91c1-1.12 2-2.16 2.9-3.31s3.48-4 4.2-5.15a1.09 1.09 0 00-.08-.92.92.92 0 00-.71-.36c-.14 0-.33.29-.44.49-.24.43-.43.88-.67 1.3s-2.12 2.61-2.38 2.85c-.71.7-1.55 1.25-2.22 2l-4.35 4.78c-1.17 1.23-2.39 2.41-3.61 3.62a2.33 2.33 0 00-.3.39 11.6 11.6 0 00-1.16.79c-.24.22-.35.63-.63.76-.52.27-1.13 1.28-.92 1.81.33.75 1.28.9 2.12.19zm10.79.1a.86.86 0 001.38-.35c.44-.81.74-1.71 1.25-2.48 1.24-1.87 2.55-3.69 3.76-5.53.3-.46 1.27-1.34 1.58-1.79.66-.92 1.36-1.81 2.06-2.68.52-.64 1.12-1.21 1.61-1.86L119 120l1.53-2c.06-.08.61-.78.7-.73.34-.71-.29-.66-.6-.7-.81-.1-1.06.68-1.45 1.24s-1.51 2.06-1.94 2.53c-.69.78-1.56 1.4-2.25 2.18a35.55 35.55 0 00-2.3 3c-.83 1.19-2.42 2.66-3.27 3.83-.74 1-1.61 1.95-2.3 3s-1.07 2.22-1.77 3.21c-.46.68.06.95.44 1.24zm-14.36-12.7l1-1.08c.45-.46.91-.91 1.38-1.36s1-.79 1.36-1.24c.11-.11 0-.45 0-.69-.26-.31-.86-.5-1.42.32a9.75 9.75 0 01-2.28 2.1zm36.19 4.82c-.68 1-1.37 1.91-2.07 2.84-.19.24-.38.65-.61.68-.73.09-.6.5-.56.95s.11.79.35 1 .88.52 1.14.39a3.09 3.09 0 001.09-1.12c.4-.6.76-1.25 1.13-1.87zm-2.54-3.16c-1.34 1.82-2.74 3.62-4.17 5.43-.27.34-.65.61-.89 1a5.79 5.79 0 00-.4 1 10.88 10.88 0 00-.54 1.28c-.13.52.1.77.55.8a2.39 2.39 0 002-.64c.19-.2.22-.54.37-.8l1.86-3.12c.62-1.05 1.2-2.12 1.88-3.11.42-.61.87-1.24 1.31-1.84l-.4-2.46-.26.37c-.39.69-.82 1.43-1.31 2.09zM122 124c-.77 1-1.46 2-2.17 3-1 1.49-3.38 3.82-4.18 5.42-.33.66-2 1.15-.91 2.44.21.18.45.54.63.51a2.76 2.76 0 001.55-.52 13.46 13.46 0 001.07-2c.72-1.16 2.64-3.33 3.37-4.5s1.63-2.51 2.45-3.74c.49-.73 1.65-2.47 2.5-3.8L126 119l-.7.75c-.69.75-2.69 3.48-3.3 4.25zm19.23 2.2c.64-1 1.15-2.17 1.78-3.2.71-1.18 1.52-2.29 2.21-3.44a46.86 46.86 0 002.6-5.08c.19-.47.65-1.5.88-1.93s.22-.63.41-1l.11-.18a1.27 1.27 0 00.25-.8c0-.29-.17-.76-.52-.7s-.66.57-.87.81-.41.77-.68 1.12-.78 1.63-1.08 2.12c-.5.82-.89 1.71-1.36 2.56-.78 1.35-1.64 2.64-2.48 4-.56.89-1.08 1.82-1.66 2.72s-1.07 1.52-1.6 2.3-1.14 1.58-1.64 2.42a12.5 12.5 0 00-1.24 2.48 3.79 3.79 0 00.09 1.73.85.85 0 00.53.5 3.43 3.43 0 00.91 0c.72-.53 1.19-.86.82-1.92-.19-.55.53-1.46.94-2.15.49-.78 1.1-1.56 1.6-2.36zm-11.83 3.47c1.29-1.9 2.68-3.7 3.93-5.6 1.11-1.72 2.1-3.51 3.16-5.24a32.29 32.29 0 013-4.17c.74-.78 0-1-.17-1.43a1.56 1.56 0 00-.85.29c-.19.14-.15.54-.31.74-.77 1-2.31 2.78-3.12 3.79a9.63 9.63 0 00-.69 1c-1.09 1.77-2.18 3.55-3.36 5.26-.34.5-.93.84-1.29 1.34s-.61 1.23-1 1.8-.71 1-1.07 1.52l.47 2.88c.41-.77.84-1.49 1.3-2.18zm.42-8.21c.72-1 2.86-3.94 3.58-5 .08-.11.19-.21.21-.24.61-.42.52-.71.47-1a1 1 0 00-.64-.69 1 1 0 00-.83.42c-.2.33-.15.69-.38 1-.61.78-2.73 3.49-3.33 4.27-.78 1-1.49 2.06-2.21 3.12l.4 2.46c.43-.58.86-1.16 1.25-1.76.55-.86.94-1.77 1.48-2.58zm27.43-14.21a2.53 2.53 0 00-.56.11 4.92 4.92 0 00-.89 1.16c-.15.37-1.13 3.26-1.28 3.68a32.9 32.9 0 01-3.07 6.1 53.31 53.31 0 00-2.61 5.25c-.76 1.74-1.47 3.48-2.36 5.07-.2.37-.64.65-.72 1-.41 1.91 1.47 1.09 1.88 1 .09-.17.18-.37.3-.56.5-.75.92-2.36 1.32-3.15.51-1 1.28-2.64 1.7-3.68.11-.26.4-.8.77-1.46l1.2-2.28c.82-1.59 1.57-3.09 1.68-3.36.28-.63 1.37-2.8 1.67-3.41.2-.37.92-2.92 1.14-3.24s.51-.28.55-.67-.21-1.59-.72-1.56zm-25.54 25.56a38.68 38.68 0 002.38-3.1c.64-1 1.14-2 1.74-3 .89-1.45 1.77-2.89 2.68-4.3.8-1.24 1.67-2.42 2.41-3.69s2.77-4.46 3.26-5.67a1.11 1.11 0 00-.23-.89.89.89 0 00-.72-.25c-.14 0-.27.34-.34.55-.16.44-.28.91-.44 1.37a31.06 31.06 0 01-1.86 3.13c-.58.79-1.32 1.47-1.91 2.26-1.24 1.74-2.41 3.55-3.65 5.33-1 1.4-2 2.76-3 4.12a1.82 1.82 0 00-.24.43 10.77 10.77 0 00-1 .93c-.21.26-.25.68-.5.85a1.91 1.91 0 00-.63 1.92c.4.8 1.34.82 2.05.01zm10.57-1.4a.9.9 0 001.36-.56c.35-.87.53-1.81.94-2.64 1-2.05 2-4 2.93-6.08.22-.51 1-1.53 1.27-2 .48-1 1-2 1.53-3 .38-.73.84-1.42 1.17-2.16l1.09-2.34c.18-.39.85-1.85 1-2.26 0-.1.38-.9.47-.87.14-.76-.42-.58-.71-.55-.75.09-.82.87-1.07 1.48s-1 2.27-1.29 2.83c-.5.89-1.19 1.72-1.71 2.58a35 35 0 00-1.71 3.28c-.61 1.3-1.93 3.09-2.61 4.33s-1.33 2.16-1.88 3.31-.8 2.37-1.35 3.45c-.38.79.16.97.57 1.2z" fill="currentColor"/><path d="M126.29 120.91l.82-1.25c.37-.53.76-1 1.17-1.55s.83-.91 1.17-1.42c.09-.13-.08-.45-.14-.68-.31-.27-.94-.37-1.38.52a10.31 10.31 0 01-2 2.45zm36.71-1.58c-.43 1.13-.91 2.18-1.4 3.28-.13.28-.23.73-.45.81-.72.28-.5.65-.36 1.07s.3.75.59.9a1.51 1.51 0 001.25.09 3.09 3.09 0 00.85-1.37c.27-.69.49-1.4.71-2.12zm-3.33-2.44c-.88 2.06-1.82 4.24-2.91 6.27-.21.39-.54.72-.71 1.12a5.08 5.08 0 00-.2 1.1 11.35 11.35 0 00-.3 1.38c0 .54.25.73.71.66a2.63 2.63 0 002-1c.16-.24.12-.58.22-.86.42-1.15.81-2.35 1.2-3.51s.71-2.36 1.14-3.49l.84-2.11-1-2.27-.15.43c-.31.74-.51 1.51-.84 2.28zm-3.4-.89c-.49 1.16-1 2.29-1.46 3.42-.69 1.62-2.57 4.53-3.13 6.18-.21.7-1.85 1.48-.51 2.55.25.15.56.46.74.4a3 3 0 001.51-.79 12.75 12.75 0 00.71-2.19c.51-1.33 2-3.84 2.49-5.12s1-2.81 1.56-4.23c.29-.83 1-2.76 1.45-4.26l-.8-1.78-.45.89c-.38.82-1.67 3.93-2.11 4.93zm19.19-3.58c.24-1.2.32-2.44.53-3.62.24-1.37.62-2.66.8-4a40.53 40.53 0 00.49-5.63v-3.34a1.23 1.23 0 00-.09-.82c-.14-.24-.45-.63-.74-.45s-.39.75-.48 1-.05.88-.14 1.31-.09 1.78-.17 2.34c-.14.92-.17 1.88-.29 2.84-.18 1.57-.51 3-.81 4.62-.2 1-.35 2.07-.57 3.12s-.49 1.8-.75 2.72-.57 1.9-.79 2.88a15.22 15.22 0 00-.45 2.77 3.53 3.53 0 00.6 1.62.87.87 0 00.69.31 3.61 3.61 0 00.94-.29c.55-.78.92-1.27.21-2.14-.36-.45.06-1.58.23-2.38.25-.96.6-1.91.79-2.86z" fill="currentColor"/><path d="M164.91 119.56l1.21-3.24c.39-1.08.75-2.2 1.06-3.29.55-2 .95-3.92 1.31-5.91a32.45 32.45 0 011.24-4.85c.39-1-.34-1-.68-1.28 0 0-.51.32-.67.55s.07.54 0 .79c-.31 1.16-1.07 3.3-1.47 4.52-.12.35-.24.71-.33 1.08-.46 2-.94 4-1.57 6-.2.58-.68 1.06-.89 1.63s-.27 1.36-.5 2-.44 1.18-.67 1.77l1.19 2.66c.24-.82.49-1.63.77-2.43zm-1.8-8.01c.42-1.16 1.47-4.61 1.79-5.75a1.73 1.73 0 01.13-.29.82.82 0 00.09-1.09 1.07 1.07 0 00-.8-.48.87.87 0 00-.61.61c-.08.37.08.69 0 1s-.5 1.48-.85 2.51-.77 2-.94 2.47c-.46 1.15-.84 2.36-1.26 3.57l1 2.27c.27-.67.53-1.35.75-2 .28-.93.41-1.9.7-2.82zM182.73 89c-.06 0-.44.24-.46.31a4.76 4.76 0 00-.27 1.4c0 .19.12 1 .23 1.89s.15 1.7.18 1.92a27.59 27.59 0 01-.35 6.76c-.26 2-.32 4-.41 5.87s-.1 3.79-.35 5.63c-.05.41-.37.84-.31 1.25.29 1.93 1.79.46 2.14.17 0-.19 0-.42.06-.65.19-.91 0-2.56.1-3.44.1-1.17.25-2.91.23-4.07 0-.59.22-2.47.37-4.23a37.25 37.25 0 00.19-3.76c0-.73.16-3.05.14-3.74 0-.42-.44-3-.38-3.39s.32-.46.2-.82-.86-1.32-1.31-1.1zm-14.67 32.94a26.64 26.64 0 001.52-3.76c.36-1.11.55-2.24.84-3.34.44-1.62.78-3.35 1.16-5 .33-1.44.73-2.82.95-4.28a49.22 49.22 0 00.9-6.43 1.19 1.19 0 00-.55-.74.84.84 0 00-.74 0c-.12.07-.11.42-.09.64 0 .48.07.94.11 1.42a33.73 33.73 0 01-.56 3.56c-.26 1-.7 1.82-1 2.75-.54 2-1 4.19-1.67 6.21-.52 1.61-1.11 3.24-1.72 4.89a3.11 3.11 0 00-.12.47 12.17 12.17 0 00-.77 1.19c-.14.3-.07.72-.27 1a1.88 1.88 0 00-.14 2c.68.66 1.66.4 2.15-.58zm10.22-5.01c.71.1 1.09-.38 1.11-1 0-1-.13-1.89 0-2.82l.33-3.37c.09-1.14.16-2.28.2-3.4 0-.55.39-1.79.43-2.32l.24-3.37c.06-.81.23-1.61.25-2.4s0-1.7 0-2.56c0-.42 0-2-.05-2.46 0-.09 0-.93.08-.94-.18-.73-.62-.37-.87-.24-.67.34-.38 1.09-.34 1.75a24.34 24.34 0 010 3.08c-.09 1-.44 2-.56 3-.13 1.23-.22 2.45-.3 3.68-.1 1.4-.63 3.59-.82 5-.15 1.24-.47 2.5-.58 3.77s.1 2.51-.08 3.73c-.14.82.47.8.96.87zm-18.65-5.02l.44-1.4c.2-.61.43-1.2.66-1.78s.51-1.08.68-1.64c.05-.15-.21-.41-.32-.62-.37-.18-1-.13-1.12.83a9.61 9.61 0 01-1.14 2.83zM193 97.5c.05 1.18.08 2.37.08 3.6 0 .32.09.77-.08 1-.55.58-.19.82.11 1.15s.57.56.9.57a1.61 1.61 0 001.2-.48 3.44 3.44 0 00.22-1.65c0-.76-.13-1.51-.21-2.24zm-4-.83c0 1.14.09 2.32.05 3.47s-.1 2.31-.18 3.49c0 .45-.21.91-.21 1.35a6.14 6.14 0 00.25 1.11 12.84 12.84 0 00.24 1.38c.18.51.52.57.93.32a2.68 2.68 0 001.43-1.82c0-.29-.12-.59-.14-.9-.08-1.25-.15-2.47-.26-3.7s-.32-2.48-.41-3.71c-.05-.75-.08-1.5-.11-2.25l-1.89-1.62v.44c.11.77.3 1.62.3 2.44zm-3.47.56c0 1.21 0 2.46.05 3.72.07 1.82-.68 5.11-.51 6.94.09.78-1.19 2.1.48 2.59.29 0 .7.21.85.08.44-.39 1-.89 1.1-1.37a12.82 12.82 0 00-.16-2.31c0-.71.11-1.78.19-2.87s.14-2.18.11-2.87c-.08-1.52-.13-3-.27-4.48-.08-.88-.3-3-.5-4.45l-1.48-1.27v1c0 .49.06 1.55.12 2.64 0 .55.05 1.1.07 1.57s-.04.85-.05 1.08zm15.58-11.89c-.39-1.19-.89-2.28-1.31-3.41-.51-1.32-.92-2.63-1.45-3.85a27.89 27.89 0 00-2.71-4.84c-.3-.4-1-1.28-1.24-1.67a9.2 9.2 0 01-.59-.77l-.1-.17a1.13 1.13 0 00-.56-.56c-.26-.11-.73-.24-.86 0s.14.74.24 1a11.39 11.39 0 00.66 1.06c.25.48.94 1.42 1.2 1.91.41.81.93 1.6 1.37 2.45.63 1.35 1.19 2.78 1.76 4.28.37 1 .72 1.93 1 3s.51 1.85.73 2.78.38 2 .63 2.94a15.87 15.87 0 00.9 2.73 3.48 3.48 0 001.27 1.16.86.86 0 00.77-.07 4.26 4.26 0 00.69-.76c.15-1 .26-1.61-.78-2-.54-.22-.67-1.45-.9-2.24-.21-.98-.42-2.03-.72-2.97zm-6.18 11.49c-.11-1.15-.21-2.32-.32-3.48s-.31-2.32-.52-3.43-.43-2-.72-2.94-.61-1.9-.91-2.86c-.2-.62-.48-1.49-.75-2.37a16.76 16.76 0 01-.65-2.32c-.15-1-.76-.64-1.22-.76a1.28 1.28 0 00-.28.76c0 .2.33.42.41.66a36.27 36.27 0 011 4.5 11.13 11.13 0 00.26 1.11 56.65 56.65 0 011.35 6c.08.6-.14 1.24-.08 1.86s.35 1.34.43 2 .11 1.27.13 1.9l2.22 1.9c-.14-.81-.28-1.68-.35-2.53zm-5.13-6.42c-.08-.6-.26-1.8-.49-3s-.44-2.29-.57-2.87a1.38 1.38 0 010-.3.86.86 0 00-.48-1 1 1 0 00-.89-.06.82.82 0 00-.24.77c.11.36.4.57.46.91s.25 1.51.42 2.55.23 2.1.29 2.59c.11 1.22.3 2.48.44 3.74l1.89 1.62c0-.71-.1-1.45-.2-2.16-.16-.92-.43-1.85-.63-2.79zM193.52 63c0 .06-.16.41-.12.46a5.58 5.58 0 00.75 1.07c.26.22 2.44 2.1 2.76 2.43A13.6 13.6 0 01199 69.4c.32.46.62.94.93 1.42s.54 1 .82 1.49c.47.89 1 1.75 1.5 2.6l1.47 2.5c.49.82 1 1.65 1.44 2.5s.85 1.68 1.23 2.56c.16.41.11 1 .37 1.3 1.25 1.56 1.79-.63 1.94-1.09a5.68 5.68 0 01-.26-.6 25.07 25.07 0 00-1.73-3.08 36.33 36.33 0 00-2-3.62c-.34-.49-1.23-2.21-2.12-3.71s-2-2.88-2.13-3.1c-.4-.54-1.86-2.4-2.28-2.88-.13-.15-.68-.64-1.23-1.1s-1.17-.89-1.27-1-.07-.5-.42-.66-1.56-.38-1.74.07zm5.31 34.54a24.52 24.52 0 00-.26-4.12c-.17-1.18-.49-2.28-.75-3.4-.42-1.71-.87-3.36-1.31-5-.42-1.42-.85-2.84-1.34-4.16-.12-.3-.27-.75-.48-1.28s-.48-1.12-.74-1.69a22.73 22.73 0 00-1.44-2.77 1.28 1.28 0 00-.86-.32.8.8 0 00-.61.36c-.07.11.13.38.26.55l.87 1.1a19.73 19.73 0 011.43 3.22c.23.9.3 1.86.58 2.79.57 2 1.1 4.06 1.52 6.23.27 1.66.47 3.39.64 5.17a2 2 0 00.11.49 13 13 0 00-.19 1.43c0 .34.24.69.16 1-.16.59.2 1.76.74 1.92.84.31 1.64-.39 1.67-1.52zm6.97-9.69a1 1 0 00.51-1.51c-.44-.86-1-1.59-1.44-2.48q-.74-1.56-1.47-3.15l-.76-1.51c-.28-.51-.56-1-.86-1.49s-.66-1.74-.93-2.19c-.53-1-1.14-1.94-1.71-2.88-.42-.68-.75-1.4-1.2-2s-1-1.34-1.56-2c-.27-.33-1.24-1.48-1.54-1.76-.06-.07-.64-.65-.57-.7-.63-.41-.71.08-.8.31-.24.59.38 1 .83 1.41a27.25 27.25 0 011.91 2.29c.5.8.79 1.75 1.29 2.62l1.83 3.19a19.19 19.19 0 011.07 2.29c.32.84.61 1.7.92 2.36.51 1.15 1 2.46 1.45 3.61s1.27 2.13 1.73 3.33c.32.82.84.47 1.3.26z" fill="currentColor"/><path d="M186.87 92.21l-.22-1.44c-.09-.63-.16-1.25-.21-1.87s0-1.16-.14-1.73c0-.14-.37-.27-.57-.41-.4 0-.9.28-.6 1.19a9 9 0 01.26 3zm19.99-29.91c.83.88 1.72 1.82 2.49 2.81.2.26.55.56.53.83-.08.85.35.8.8.86s.8.07 1.06-.16a1.88 1.88 0 00.65-1.24 3.29 3.29 0 00-.93-1.53 32.93 32.93 0 00-1.69-1.66zm-3.49 2.13c.77.83 1.48 1.72 2.22 2.66.36.47.73 1 1.07 1.45l1 1.51c.24.39.37.88.64 1.25a5.31 5.31 0 00.86.77 12.62 12.62 0 001 1c.43.32.77.16.93-.33a3.25 3.25 0 00.06-2.52c-.13-.28-.44-.42-.64-.66-.77-1-1.7-2-2.55-2.89s-1.75-1.77-2.68-2.66l-1.62-1.63-2.5.08.34.29c.6.57 1.27 1.07 1.87 1.68zM201 67.07c.83 1 1.55 1.88 2.34 2.88 1.19 1.41 2.48 4.61 3.63 6.09.52.61.14 2.52 1.83 1.93.26-.14.7-.24.76-.44a3.41 3.41 0 00.16-1.89 11.87 11.87 0 00-1.44-1.88c-.21-.29-.44-.69-.69-1.12l-.86-1.42a25.3 25.3 0 00-1.62-2.41c-1-1.16-2.06-2.28-3.06-3.32a31.62 31.62 0 00-3.34-2.93l-2 .07.64.68c.31.33 1.15 1 1.83 1.79s1.53 1.57 1.82 1.97zm2.27-19.53a18.11 18.11 0 00-1.76-.58c-.61-.16-1.22-.31-1.8-.48a33.79 33.79 0 00-4-1.09 22.25 22.25 0 00-5.49-.44c-.5 0-1.58.1-2 .09s-.62.09-.94.06h-.2a1.27 1.27 0 00-.8.17c-.23.16-.61.49-.43.73a2.22 2.22 0 00.95.36c.36.08.81 0 1.21 0s1.73-.06 2.28 0c.85.11 1.77.12 2.69.25.73.11 1.53.22 2.25.4s1.46.38 2.22.6a24.39 24.39 0 013 .94c.87.35 1.74.77 2.63 1.2s1.77 1 2.7 1.47a16.18 16.18 0 002.68 1.23 3.25 3.25 0 001.74-.16c.2 0 .39-.38.42-.65a5 5 0 00-.14-1.12c-.67-.84-1.09-1.39-2.08-.84-.53.28-1.51-.5-2.33-.84-.95-.38-1.87-.92-2.8-1.3z" fill="currentColor"/><path d="M207.83 60.43c-.92-.83-1.82-1.63-2.71-2.38a24.22 24.22 0 00-2.84-2 28.84 28.84 0 00-5.39-2.51l-1-.39-1.26-.42a17.52 17.52 0 01-2.12-.81c-.85-.41-.95.24-1.33.52 0 0 .15.47.36.61s.52 0 .74.05c.53.18 1.29.46 2 .8l1.95 1c.32.17.65.34 1 .49a25.38 25.38 0 012.66 1.33 21.72 21.72 0 012.62 1.65c.48.36.78 1 1.26 1.38s1.21.74 1.76 1.21.89.89 1.34 1.35l2.91-.09c-.67-.61-1.27-1.22-1.95-1.79zm-8.19-1.04a25.66 25.66 0 00-2.43-1.6c-1-.59-2-1.1-2.45-1.35a1.3 1.3 0 01-.25-.15.9.9 0 00-1-.24 1 1 0 00-.64.58.69.69 0 00.4.59c.32.13.67.06 1 .22s1.24.7 2.12 1.25 1.63 1.2 2 1.49l1.45 1.12c.48.38.93.78 1.4 1.19l2.5-.08a15.32 15.32 0 00-1.65-1.41c-.79-.65-1.68-1.08-2.45-1.61zm-19.29-18.64a1.67 1.67 0 00.34.4 5 5 0 001.4 0c.35-.08 3.17-.74 3.62-.82s1.08-.21 1.64-.28S188.43 40 189 40c1.1 0 2.24.08 3.42.15 2 .23 3.95.28 5.89.41a40.14 40.14 0 015.76.82c.42.11.85.52 1.27.51 2 0 .56-1.93.2-2.3a6.72 6.72 0 01-.67-.14 28.06 28.06 0 00-3.56-.43 25.91 25.91 0 00-4.2-.37c-.61 0-2.43-.31-4.27-.32s-3.44 0-3.72 0c-.73.09-3.08.2-3.72.26a15.64 15.64 0 00-1.63.36 10.79 10.79 0 01-1.63.41c-.39 0-.48-.24-.82-.07s-1.22 1.06-.97 1.46z" fill="currentColor"/><path d="M211.07 58.07a20.51 20.51 0 00-1.5-1.58c-.55-.48-1.11-.94-1.68-1.36a24.61 24.61 0 00-3-1.86A50.56 50.56 0 00200.2 51c-1.41-.54-2.7-1.1-4-1.47-.64-.16-1.89-.48-3.08-.7a16.11 16.11 0 00-3.06-.31 1.38 1.38 0 00-.76.52.74.74 0 00-.06.66c.05.1.39.08.6.06.48 0 .93-.1 1.38-.12a14.47 14.47 0 011.67.25c.76.15 1.53.34 1.69.4.88.31 1.59.83 2.49 1.17l1.46.58c.49.2.94.43 1.41.66 1 .46 1.91 1 2.88 1.54a45.24 45.24 0 014.23 3.2 1.44 1.44 0 00.41.28 14.81 14.81 0 00.84 1.28c.25.25.67.35.83.65.31.58 1.4 1.23 1.9 1 .78-.5.84-1.65.04-2.58zm-2.94-12.67a1.14 1.14 0 00-.93-1.4c-1-.19-2-.17-2.92-.4-1.17-.28-2.27-.57-3.43-.76s-2.31-.33-3.42-.42c-.55 0-1.77-.48-2.34-.48l-3.33-.19a17 17 0 00-2.38-.09c-.85 0-1.67.09-2.48.16-.21 0-.67 0-1.17.12l-1.19.19c-.1 0-.91.14-.92.05-.7.27-.32.64-.19.86.36.58 1.1.19 1.71.09a27.51 27.51 0 012.93-.26 10.55 10.55 0 011.48.12 13.32 13.32 0 001.43.23c1.16.11 2.42.12 3.65.21s3.51.76 5 1.06c1.23.27 2.48.76 3.78 1.05a30.08 30.08 0 013.75.78c.84.27.84-.39.97-.92zm-9.39 17.16c-.45-.34-.84-.65-1.09-.85l-1.45-1.09a15.27 15.27 0 00-1.32-1c-.12-.07-.45.08-.69.12-.29.25-.45.72.41 1.1a5.45 5.45 0 011.2.77 13.7 13.7 0 011 1zm-11.11-33.01c1.19-.18 2.41-.35 3.66-.48.32 0 .77-.13 1 0 .63.54.83.16 1.14-.17s.5-.63.47-1a1.76 1.76 0 00-.62-1.22 3.34 3.34 0 00-1.72-.06c-.77.13-1.52.29-2.27.46zm-.33 4.06c1.15-.19 2.26-.25 3.44-.33s2.4-.13 3.59-.07c.45 0 .92.19 1.37.18a5.65 5.65 0 001.11-.28 12.74 12.74 0 001.42-.29c.52-.19.55-.54.24-1a3.16 3.16 0 00-2-1.47c-.3-.06-.6.14-.91.18-1.29.16-2.56.34-3.79.54s-2.43.46-3.67.72c-.76.14-1.52.25-2.26.38l-1.4 2.06.44-.09c.79-.14 1.59-.39 2.42-.53zm.85 3.39c1.23-.11 2.5-.3 3.72-.34a31.24 31.24 0 013.53.14 27.77 27.77 0 003.54.26c.76-.06 2.27 1.28 2.67-.43 0-.29.17-.71 0-.87-.43-.49-1-1.13-1.48-1.23a9 9 0 00-2.37.13c-1.5 0-4.49-.3-5.88-.1s-3 .42-4.46.66c-.83.1-2.93.63-4.37 1L182 37.9l.95-.1c.47 0 1.55-.3 2.59-.44s2.11-.28 2.61-.36zm-12.82-14.45c-1.15.41-2.25.94-3.39 1.33-1.3.44-2.63.77-3.91 1.21-.9.31-1.79.59-2.68.95s-1.77.75-2.62 1.18c-.46.24-1.5.74-2 .91a10 10 0 01-.94.43l-.21.06a1.25 1.25 0 00-.73.43c-.16.23-.37.67-.06.86s.89 0 1.2 0a12.91 12.91 0 001.29-.42c.57-.13 1.7-.74 2.26-.92.93-.32 1.8-.72 2.7-1 1.47-.5 3-.95 4.49-1.43 1-.35 2-.68 3-1s1.82-.52 2.74-.79 1.9-.45 2.83-.75a12.49 12.49 0 002.56-1 3.84 3.84 0 001.14-1.44.9.9 0 00-.08-.74 3.28 3.28 0 00-.7-.63c-.9-.09-1.49-.17-1.89.88-.21.56-1.35.74-2.11 1-.98.33-1.96.56-2.89.88z" fill="currentColor"/><path d="M186.75 27.69c-2.27.55-4.54 1-6.73 1.65-2 .55-3.87 1.25-5.76 1.87a36.83 36.83 0 01-4.93 1.35c-1.08.11-.68.75-.8 1.21a1.75 1.75 0 00.86.32c.23 0 .46-.33.71-.39.61-.16 1.5-.38 2.37-.53l2.37-.4c.37-.08.75-.16 1.11-.27 2-.62 3.93-1.25 6-1.79.6-.15 1.27 0 1.88-.17s1.29-.55 2-.67 1.23-.22 1.86-.32l1.63-2.41c-.9.19-1.73.39-2.57.55zm-5.81 5.87L175 35h-.31c-.72-.08-.84.2-1 .48a1 1 0 000 .93.93.93 0 00.87.23c.37-.12.56-.43.92-.5l5.29-1.11c1.27-.27 2.41-.56 3.65-.84l1.4-2.06c-.72.12-1.41.24-2.09.4-.93.32-1.85.77-2.79 1.03zm-30.33-7.32a1.93 1.93 0 00.5.32 5.68 5.68 0 001.49-.26c.37-.17 3.09-1.65 3.49-1.87a34.26 34.26 0 016.38-2.43 40.9 40.9 0 005.42-2.32c1.72-.85 3.32-1.62 5-2.31.39-.15.9-.09 1.22-.34 1.52-1.21-.41-1.77-.81-1.93a4.24 4.24 0 01-.57.24c-.86.26-2.18 1.16-3 1.51-1.06.47-2.68 1.22-3.69 1.74-.51.26-2.27.91-3.93 1.53s-3.22 1.23-3.48 1.37c-.62.28-2.92 1.17-3.56 1.41-.39.15-2.69 1.55-3.08 1.63s-.58-.14-.88.12-.9 1.25-.5 1.59zm36.46-2.42a35.92 35.92 0 00-3.93.77c-1.11.28-2.17.72-3.25 1.05l-4.82 1.48c-1.42.47-2.85.87-4.24 1.35s-5 1.63-6.19 2.19a1.16 1.16 0 00-.4.83.94.94 0 00.4.68c.12.08.43-.08.62-.19.42-.24.81-.52 1.23-.77S169.62 30.1 170 30c1-.22 2-.27 2.93-.55l1.55-.45 1.54-.41c1-.28 2.06-.56 3.1-.81 1.65-.4 3.33-.75 5-1.12a1.43 1.43 0 00.47-.17 11.72 11.72 0 001.42 0c.33 0 .64-.34.95-.31.59 0 1.71-.39 1.81-1 .11-.89-.61-1.51-1.7-1.36zm-9.22-5.95a.89.89 0 00-1.38-.43c-.83.45-1.55 1-2.4 1.43-2 .93-4.11 1.78-6.1 2.72-.48.23-1.78.51-2.28.73-1 .47-2.09.89-3.14 1.3-.76.29-1.56.49-2.31.81l-2.38 1c-.4.16-1.89.8-2.29 1-.09 0-.9.4-.95.32-.63.46-.07.71.17.88.64.45 1.23-.1 1.83-.38s2.27-1 2.88-1.21c1-.33 2-.44 3-.77 1.17-.4 2.33-.9 3.48-1.42 1.32-.62 3.43-1 4.77-1.57 1.16-.47 2.4-.8 3.54-1.34s2.09-1.3 3.23-1.8c.82-.34.48-.83.33-1.27zm5.23 18.41l-1.37.38-.89.21-.95.19c-.61.12-1.22.16-1.81.33-.15 0-.23.39-.35.6.06.4.45.88 1.37.48a9.22 9.22 0 012.92-.57zm-28.41-22.77c1.06-.5 2.13-1 3.21-1.48.29-.13.66-.39.88-.31.7.27.79-.15 1-.56s.29-.75.18-1.05-.55-.88-.84-.9a3.25 3.25 0 00-1.53.46c-.66.35-1.29.72-1.92 1.08zm.73 4.01c2-.94 4.21-1.94 6.34-2.74.41-.15.88-.18 1.27-.36a5.54 5.54 0 00.86-.69 10.47 10.47 0 001.13-.83.56.56 0 00-.09-1 2.47 2.47 0 00-2.11-.53c-.28.07-.47.35-.73.5l-3.21 1.83c-1.07.62-2.1 1.29-3.18 1.84-.67.35-1.36.66-2 1l-.8 2.36.4-.2c.72-.37 1.37-.83 2.12-1.18zm1.9 2.96c1.15-.52 2.26-1.06 3.37-1.57 1.6-.75 4.86-1.61 6.37-2.57.63-.4 2.36 0 2.05-1.64-.09-.26-.11-.69-.29-.76a2.82 2.82 0 00-1.64-.34 12.65 12.65 0 00-1.95 1.18c-1.24.65-4 1.53-5.19 2.15l-4 2.12-4 2.15-.61 1.8c.32-.1.64-.2 1-.32.87-.31 3.93-1.79 4.89-2.2zM141.11 9.73c-1 .67-2 1.44-3 2.09s-2.35 1.34-3.5 2.14a51.25 51.25 0 00-4.61 3.4c-.39.33-1.27 1.06-1.68 1.33a8.55 8.55 0 01-.8.63l-.19.11a1.19 1.19 0 00-.6.59c-.09.27-.2.75.15.85s.87-.16 1.17-.27.74-.51 1.13-.7 1.47-1.11 2-1.42c.81-.51 1.57-1.13 2.37-1.68 1.32-.92 2.65-1.68 4-2.52l2.66-1.69c.8-.49 1.63-.94 2.46-1.42s1.75-1 2.57-1.46a12.39 12.39 0 002.23-1.63 3.59 3.59 0 00.71-1.57.86.86 0 00-.26-.7 3.54 3.54 0 00-.84-.45c-.9.14-1.48.21-1.61 1.32-.06.57-1.14 1.07-1.82 1.53s-1.73.99-2.54 1.52z" fill="currentColor"/><path d="M153.44 12c-2 1-4.16 2.08-6.13 3.19-1.77 1-3.44 2.16-5.12 3.22a29.25 29.25 0 01-4.45 2.53c-1 .36-.48.89-.47 1.36a1.62 1.62 0 00.91.12c.21-.05.35-.43.58-.55 1.1-.62 3.23-1.6 4.37-2.09a9.71 9.71 0 001-.53c1.74-1.08 3.51-2.17 5.35-3.18.54-.3 1.23-.34 1.79-.63s1.11-.78 1.72-1.09 1.11-.53 1.67-.8l1-2.76c-.77.38-1.49.8-2.22 1.21zm-4.21 7l-5.39 2.87a2.62 2.62 0 01-.29.12c-.71.1-.76.4-.86.71a1 1 0 00.25.9.94.94 0 00.89 0c.33-.21.44-.55.77-.72l4.86-2.35c1.13-.52 2.24-1.09 3.37-1.67l.8-2.36c-.65.3-1.29.6-1.92.93-.85.48-1.62 1.1-2.48 1.57zm-31.18.38a2.09 2.09 0 00.57.18 5.44 5.44 0 001.38-.64c.32-.28 2.6-2.32 2.91-2.61a39.61 39.61 0 015.59-4c3.43-2.13 6-4.85 9-7 .34-.24.85-.3 1.1-.62 1.18-1.53-.83-1.64-1.26-1.68a5.45 5.45 0 01-.5.39c-.77.48-1.84 1.72-2.54 2.27-.91.7-2.29 1.8-3.14 2.54-.43.39-2 1.37-3.42 2.42s-2.82 2.06-3 2.26c-.54.47-2.53 1.8-3.09 2.19-.34.2-2.23 2.16-2.59 2.34s-.59 0-.82.34-.66 1.4-.19 1.62zm34.78-11.29a37.73 37.73 0 00-3.63 1.7c-1 .55-1.94 1.22-2.91 1.81-1.46.88-2.87 1.71-4.32 2.65-1.26.79-2.55 1.51-3.77 2.31a63.36 63.36 0 00-5.46 3.66 1.12 1.12 0 00-.18.91.86.86 0 00.55.53c.14 0 .4-.2.56-.36l1-1a34.94 34.94 0 013.07-2c.87-.43 1.83-.72 2.69-1.22l2.79-1.62c.93-.52 1.86-1 2.82-1.54 1.5-.79 3-1.54 4.6-2.3a1.48 1.48 0 00.41-.28 13.3 13.3 0 001.37-.37c.31-.14.55-.49.85-.51.59-.06 1.5-.81 1.47-1.38-.04-.89-.88-1.42-1.91-.99zM142.4 4.58a.9.9 0 00-1.45-.1c-.68.64-1.24 1.4-2 2l-2.61 2.02c-.88.71-1.76 1.42-2.61 2.15-.42.35-1.6.91-2 1.24-.89.7-1.8 1.34-2.71 2-.67.46-1.4.84-2 1.36l-2.07 1.61-2 1.55c-.08.06-.77.59-.84.52-.49.59.1.72.38.84.73.31 1.17-.38 1.68-.81s2-1.59 2.5-2c.86-.61 1.85-.93 2.72-1.49a36.28 36.28 0 003-2.17c1.12-.87 3.1-1.94 4.26-2.77 1-.73 2.12-1.35 3.1-2.14s1.7-1.77 2.69-2.52c.66-.5.24-.87-.04-1.29zM152 21.2l-1.28.69c-.57.29-1.15.55-1.73.8s-1.14.45-1.67.75c-.14.08-.13.44-.19.67.15.38.64.73 1.43.14a9.71 9.71 0 012.85-1.25zM118.85 6.05c.9-.76 1.82-1.51 2.75-2.26.25-.2.54-.56.77-.52.75.11.72-.32.8-.76s.09-.8-.09-1.07-.74-.75-1-.67a3.13 3.13 0 00-1.37.84c-.55.5-1.07 1-1.59 1.54zm1.7 3.68c1.76-1.48 3.58-2.79 5.46-4.16.36-.26.81-.41 1.14-.69a5.54 5.54 0 00.67-.9 10.1 10.1 0 00.88-1.1c.27-.47.11-.76-.32-.9a2.54 2.54 0 00-2.19.06c-.25.15-.37.47-.59.67L123 5.22c-.88.83-1.72 1.74-2.63 2.56-.57.51-1.15 1-1.74 1.46l-.2 2.49.34-.3c.58-.54 1.14-1.17 1.78-1.7zm2.56 2.45c1-.74 1.93-1.56 2.89-2.36.68-.58 1.76-1.3 2.82-2a17.26 17.26 0 002.72-2c.5-.54 2.29-.52 1.58-2.07-.15-.24-.29-.65-.47-.68A2.92 2.92 0 00131 3c-.64.39-1 1.09-1.6 1.6-1 1-3.49 2.54-4.51 3.46L121.53 11c-.65.58-2.2 2.05-3.33 3.11l-.2 1.98c.29-.18.57-.36.84-.55s1.26-1 2.11-1.71zm-18.33-6.46c-.82.89-1.54 1.83-2.36 2.74s-2 1.95-2.86 3a44.7 44.7 0 00-3.65 4.39c-.3.42-1 1.35-1.3 1.71s-.37.56-.63.82l-.16.15a1.25 1.25 0 00-.43.73c0 .28 0 .78.35.79s.81-.39 1.07-.57.59-.68.93-1 1.15-1.44 1.55-1.86c.66-.7 1.24-1.49 1.89-2.19 1.06-1.15 2.16-2.28 3.26-3.44.73-.78 1.42-1.54 2.16-2.29s1.36-1.29 2.05-1.95 1.45-1.34 2.13-2.06a12.76 12.76 0 001.76-2.14 3.66 3.66 0 00.3-1.7.88.88 0 00-.42-.61 3.36 3.36 0 00-.92-.24c-.84.34-1.39.6-1.24 1.7.07.58-.84 1.33-1.39 1.94s-1.43 1.36-2.09 2.08zm12.49-.84c-1.72 1.49-3.51 3-5.15 4.57-1.46 1.43-2.8 2.9-4.17 4.4a27.54 27.54 0 01-3.7 3.5c-.9.6-.25 1-.13 1.44a1.58 1.58 0 00.91-.1c.2-.1.25-.49.44-.67.92-.83 2.74-2.31 3.72-3.1a10.38 10.38 0 00.86-.76c1.42-1.47 2.86-3 4.4-4.41.45-.43 1.11-.59 1.57-1s.89-1 1.41-1.51.94-.8 1.42-1.2l.24-2.9c-.6.6-1.19 1.19-1.82 1.74zm-2.33 7.86l-4.52 4.1a1.21 1.21 0 01-.26.18c-.66.28-.63.58-.65.9a1 1 0 00.46.82 1 1 0 00.87-.21c.26-.29.28-.65.57-.88.73-.62 3.35-2.88 4.12-3.44 1-.78 1.91-1.63 2.86-2.48l.2-2.49c-.55.46-1.11.92-1.63 1.4-.72.66-1.31 1.44-2.02 2.1zm-30.23 7.95a2.57 2.57 0 00.61 0 5.6 5.6 0 001.21-.94c.26-.34 2-2.88 2.2-3.26a38.54 38.54 0 014.45-5.25c2.81-2.94 4.66-6.21 7-9 .27-.32.75-.51.91-.89.75-1.76-1.21-1.35-1.64-1.26a5.21 5.21 0 01-.39.49c-.63.64-1.37 2.07-1.91 2.77-.71.91-1.78 2.32-2.42 3.24-.33.48-1.57 1.84-2.73 3.21s-2.24 2.65-2.41 2.89c-.41.59-2 2.39-2.47 2.91-.27.3-1.65 2.63-2 2.88s-.58.16-.73.52-.2 1.57.32 1.69zm31.02-19.43a31.64 31.64 0 00-3.1 2.53c-.85.77-1.58 1.66-2.37 2.46-1.19 1.19-2.37 2.44-3.54 3.66-1 1.06-2.1 2.06-3.09 3.12s-3.65 3.86-4.4 4.91a1.14 1.14 0 000 .92.92.92 0 00.67.41c.14 0 .34-.29.46-.48.25-.41.46-.85.72-1.26a30.52 30.52 0 012.49-2.72c.74-.63 1.6-1.13 2.31-1.81 1.54-1.47 3.06-3 4.66-4.46 1.26-1.13 2.57-2.24 3.9-3.36a3 3 0 00.33-.37c.57-.33.93-.44 1.23-.67s.41-.59.69-.69c.56-.21 1.26-1.17 1.09-1.71-.22-.84-1.17-1.1-2.05-.48zM104.77.4a.9.9 0 00-1.43.24c-.5.77-.86 1.66-1.42 2.41-1.36 1.81-2.77 3.56-4.07 5.34-.32.45-1.33 1.29-1.66 1.71-.69.9-1.43 1.75-2.15 2.6-.54.6-1.15 1.18-1.65 1.82s-1.08 1.36-1.62 2c-.27.33-1.28 1.64-1.54 2-.06.08-.6.77-.68.72-.34.7.27.66.57.71.79.11 1-.67 1.43-1.21s1.52-2 2-2.47c.69-.77 1.57-1.37 2.28-2.11s1.62-1.87 2.39-2.86c.87-1.16 2.54-2.55 3.45-3.68s1.73-1.88 2.48-2.89 1.22-2.11 2-3.07c.49-.66-.01-.95-.38-1.26z" fill="currentColor"/><path d="M118.2 14.15l-1.08 1c-.48.43-1 .83-1.48 1.22s-1 .67-1.43 1.09c-.11.11 0 .46 0 .7.24.32.8.59 1.42-.17a10 10 0 012.43-1.9zM82.32 7.54l2.11-2.82c.19-.25.39-.66.63-.68.74-.08.62-.5.58-.94s-.1-.8-.34-1-.9-.53-1.16-.4A3.09 3.09 0 0083 2.81c-.41.61-.79 1.23-1.17 1.85zm2.53 3.19c1.35-1.82 2.79-3.61 4.28-5.38.28-.33.68-.58.94-.93a5.88 5.88 0 00.43-1 9 9 0 00.58-1.27c.15-.52-.07-.77-.53-.8a2.48 2.48 0 00-2.11.57c-.2.19-.24.53-.4.79l-2 3.1c-.65 1-1.24 2.1-1.93 3.11-.42.62-.88 1.22-1.33 1.82l.39 2.46.27-.37c.56-.7.91-1.43 1.41-2.1zm3.07 1.75c.78-1 1.49-2 2.23-3 1-1.44 3.5-3.78 4.38-5.3.36-.65 2.09-1.07 1-2.4-.21-.19-.44-.56-.62-.54a2.94 2.94 0 00-1.61.45 11.59 11.59 0 00-1.16 2c-.77 1.17-2.77 3.27-3.54 4.41l-2.51 3.71-2.51 3.79.31 1.92c.23-.24.47-.48.69-.73.69-.79 2.7-3.53 3.34-4.31z" fill="currentColor"/></svg>