<svg xmlns="http://www.w3.org/2000/svg" viewBox="0 0 193.48 118.69"><path d="M48.67 18.85l-.16-.37c-.16-.37-.39-.7-.55-1.06l-1.63-3.52c-.48-1.09-1-2.2-1.35-3.33-.07-.2.25-.7.49-.77.41-.11 1-.18 1.31.1a5 5 0 01.89 1.76c.69 1.93.8 2.86 1.49 4.78.19.53.65 2.12.86 2.65a8.78 8.78 0 01.39 1.16 1.44 1.44 0 010 .33c-.4.1-.09.14-.51.12-.25 0-.61-.78-.72-1s-.37-.55-.51-.85zM30.2 22.41a3.26 3.26 0 00-1.3-2.63s-.23-.3-.33-.3c-.47 0-1.24-.06-1.29.24a3.5 3.5 0 00.39 2.26c.49.75 1.61 2.53 2.66 1.61.15-.11-.17-.95-.13-1.18zm5.76-.93c-.07-.16-.5-.54-.6-.69s-.39-.52-.54-.74c-.43-.64-.64-.94-1.08-1.57-.2-.3-1.08-1-1-1.51s.4-.27.54-.7a.94.94 0 01.74-.2 2.11 2.11 0 011.07.68 21.2 21.2 0 01.95 2.24c.37.75.73 1.55 1.05 2.33.09.2.16.64.1.67-.34.19-.51.24-.75-.07a5 5 0 01-.48-.44zM71.34 3.81a1.76 1.76 0 01.12-1.33.85.85 0 011-.19 4 4 0 011.41 1.75 14.19 14.19 0 01.26 2.89c0 .33.09.67.13 1a11.1 11.1 0 01-.07 2.81 16.71 16.71 0 00.16 3 .6.6 0 010 .23c-.5.19-.22.5-.78-.06-.06-.07-.62-1.87-.64-2-.25-1.58-.46-3.26-.75-4.87-.14-.65-.66-2.11-.84-3.23zm-18.98 6.58c.35.68.8 2.34 1.5 1.06a3.3 3.3 0 00-.09-3.06c-.23-.56-.42-1.25-1.22-1.3a1.54 1.54 0 00-.88 2.21c.25.36.49.71.69 1.09zm14.6.28c-.17 0-.34-.06-.49-.29a5.92 5.92 0 01-.57-1.9c-.22-.92-.63-1.86-.88-2.77a.73.73 0 00-.25-.38c-.37-.33 0-1 .27-1.31a1.06 1.06 0 011.76 0 1.73 1.73 0 01.27.79c0 .68.25 1.4.28 2.08 0 1 .16 2 .14 3.07a.66.66 0 01-.24.51 1 1 0 01-.29.2zm-6.9.54c-.4-.85-.93-2.32-1.22-2.92a10.41 10.41 0 01-.81-1.81 1.59 1.59 0 01.39-1c.06-.1.52 0 .79 0 1.17.07 1 1 1.2 1.61s.38 2.67.63 3.36.09 1-.82.92c-.13-.04-.24-.24-.16-.16zm-17.39 8.18c-.16.08-.34 0-.55-.18a6.57 6.57 0 01-1-1.75c-.46-.88-1.11-1.74-1.59-2.6a.81.81 0 00-.34-.32c-.44-.23-.32-1-.09-1.39a1 1 0 011.72-.39 1.88 1.88 0 01.47.74c.22.68.61 1.35.82 2 .3 1 .68 2 .94 3.07a.67.67 0 01-.09.57.77.77 0 01-.29.25zM13.32 50.34l-.35-.15c-.37-.16-.76-.25-1.12-.41l-3.57-1.5c-1.1-.48-2.2-1-3.25-1.54a.87.87 0 01-.15-.9c.22-.36.63-.83 1-.79a4.92 4.92 0 011.81.71c1.79 1 2.49 1.6 4.3 2.57.49.27 1.9 1.14 2.4 1.39a10.13 10.13 0 011.07.6 1.2 1.2 0 01.19.26c-.2.3 0 .15-.27.37s-1-.19-1.17-.26-.54-.21-.89-.35zM3.94 65.11a3.34 3.34 0 00-2.88-.51s-.36 0-.43.09c-.29.38-.8 1-.58 1.18a3.42 3.42 0 002 1c.89 0 3 .13 2.85-1.18.01-.21-.82-.42-.96-.58zm2.73-4.83h-.93l-.9-.07-1.87-.16c-.36 0-1.45.19-1.81-.2s.05-.48-.19-.85c-.06-.1.17-.6.35-.7a2.06 2.06 0 011.21-.35c.81.12 1.52.53 2.32.73s1.65.46 2.44.71c.22.07.59.28.58.34-.08.35-.15.49-.55.48-.07 0-.57.09-.65.07zm15.35-34.37a1.8 1.8 0 01-.58-1.19c.06-.34.45-.73.78-.69a4.08 4.08 0 012.09.82 14.36 14.36 0 011.68 2.35c.19.28.41.53.62.79a12 12 0 011.36 2.49 18.08 18.08 0 001.7 2.39c.05.07.12.2.1.22-.3.39.09.52-.65.3-.09 0-1.48-1.29-1.57-1.39-1-1.22-2.07-2.56-3.15-3.78-.46-.46-1.65-1.44-2.38-2.31zM10.43 41.86c.7.31 2.09 1.31 1.79-.1a3.35 3.35 0 00-2-2.32c-.53-.29-1.11-.72-1.77-.27a1.53 1.53 0 00.74 2.25c.48.14.85.27 1.24.44zm11.62-7.94c-.12.13-.3.13-.55 0a6 6 0 01-1.49-1.25c-.69-.64-1.54-1.2-2.24-1.83a.87.87 0 00-.42-.17c-.48-.07-.58-.79-.51-1.24a1 1 0 011.48-.95 1.77 1.77 0 01.66.52c.41.55 1 1 1.35 1.6.59.83 1.24 1.63 1.79 2.49a.62.62 0 01.08.55.81.81 0 01-.15.28zm-5.16 4.11c-.82-.46-2.11-1.34-2.69-1.65a10.67 10.67 0 01-1.69-.9 1.56 1.56 0 01-.32-1.09c0-.13.41-.32.65-.46 1-.62 1.36.19 1.9.62s1.87 1.93 2.47 2.33.64.72-.12 1.17c-.11.07-.31-.03-.2-.02zM9.54 54.48c0 .15-.21.23-.5.24a7 7 0 01-2-.48c-1-.27-2-.4-3-.66a.85.85 0 00-.47 0c-.48.15-.92-.45-1.06-.89a1 1 0 01.89-1.51 2.17 2.17 0 01.86.19c.64.32 1.39.53 2 .87.95.5 1.94.93 2.87 1.47a.64.64 0 01.35.44.75.75 0 01.06.33zM20.5 90.62l-.27.28c-.27.29-.49.62-.77.91l-2.62 2.84c-.83.87-1.66 1.74-2.55 2.53a.84.84 0 01-.9-.16c-.25-.35-.53-.91-.37-1.27a4.71 4.71 0 011.29-1.44c1.54-1.35 2.36-1.8 3.89-3.17.42-.37 1.71-1.39 2.12-1.78a7.77 7.77 0 01.93-.79 1.1 1.1 0 01.3-.09c.19.3.14 0 .23.39.06.22-.5.83-.64 1s-.42.51-.64.75zm10.75 14.41c-1 .34-1.49 1.61-1.69 2.41 0 0-.15.32-.09.42.24.4.54 1.13.82 1a3.42 3.42 0 001.79-1.38c.42-.79 1.43-2.63.14-3.13-.22-.05-.76.6-.97.68zm-3.58-4.55a9 9 0 00-.33.86l-.41.81c-.35.68-.52 1-.88 1.69-.17.31-.37 1.41-.86 1.59s-.43-.22-.87-.15c-.11 0-.49-.38-.52-.58a2.19 2.19 0 01.12-1.26c.42-.71 1.06-1.21 1.55-1.88s1-1.36 1.57-2c.14-.18.49-.44.54-.4.31.21.42.34.26.7a6.29 6.29 0 01-.17.62zM2.3 73.59a1.69 1.69 0 01-1.3-.11.85.85 0 01-.16-1 3.83 3.83 0 011.77-1.32 15.22 15.22 0 012.9-.18c.33 0 .67-.07 1-.11a13.83 13.83 0 012.79.09 18.92 18.92 0 002.95-.17.66.66 0 01.23 0c.16.39.47.16-.12.62-.07 0-1.88.57-2 .6-1.58.25-3.26.47-4.87.77-.61.11-2.07.63-3.19.81zm9.31 16.89c.54-.55 2-1.48.59-1.71a3.47 3.47 0 00-2.88 1c-.47.38-1.09.76-.89 1.54a1.49 1.49 0 002.33.13c.28-.35.54-.69.85-.96zm-2.34-13.3c.06.15 0 .3-.23.47a6.46 6.46 0 01-1.79.75c-.89.33-1.77.83-2.65 1.18a.75.75 0 00-.35.29c-.27.39-1 .16-1.33-.11a1 1 0 01-.16-1.73 1.78 1.78 0 01.78-.34c.67-.1 1.36-.36 2-.45 1-.14 2-.34 3-.44a.62.62 0 01.52.15.75.75 0 01.21.23zm1.4 6.02c-.75.56-2.08 1.39-2.6 1.8a12.21 12.21 0 01-1.59 1.18 1.58 1.58 0 01-1.12-.15c-.11 0-.11-.51-.16-.78-.21-1.13.72-1.14 1.32-1.46s2.55-.92 3.15-1.31.93-.31 1 .53c.07.14-.1.28 0 .19zm12.45 12.41c.12.11.14.29.06.56a7 7 0 01-1.14 1.69c-.59.8-1.07 1.75-1.64 2.56a.85.85 0 00-.14.44c0 .5-.75.71-1.22.7-1.18 0-1.17-.88-1.08-1.38a2 2 0 01.47-.75c.52-.48 1-1.12 1.51-1.59.8-.72 1.54-1.49 2.37-2.17a.61.61 0 01.53-.17.82.82 0 01.28.11zm42.26 12.6v1.58l-.29 3.86c-.11 1.2-.23 2.39-.44 3.57a.9.9 0 01-.81.43c-.41-.1-1-.35-1.09-.72a4.74 4.74 0 01.06-1.94c.32-2 .68-2.89 1-4.92.09-.56.45-2.16.53-2.72a8.33 8.33 0 01.23-1.21 1.17 1.17 0 01.2-.26c.41.11.15-.08.52.15s.16 1 .17 1.2-.06.66-.08.98zm18.19 6.56a3.18 3.18 0 00-.4 2.91s0 .35.11.42c.4.26 1 .75 1.21.53a3.5 3.5 0 001-2.05c0-.9.13-3-1.31-2.83-.26.02-.45.87-.61 1.02zm-5.52-2.29a7.19 7.19 0 00.15.91v.91c0 .77 0 1.13.08 1.9 0 .36.39 1.41 0 1.81s-.49 0-.83.31a1 1 0 01-.74-.23 2.15 2.15 0 01-.55-1.15 17.85 17.85 0 01.51-2.46c.08-.84.2-1.7.34-2.53 0-.22.21-.62.28-.62.4 0 .57.08.62.47-.03.11.15.59.14.68zm-39.8-2c-.21.55-.46 1-.76 1.07a.87.87 0 01-1-.36 4 4 0 01-.3-2.19 13.59 13.59 0 011.25-2.62c.14-.3.26-.62.39-.93a12 12 0 011.48-2.38 17.5 17.5 0 001.36-2.59.7.7 0 01.14-.19c.5.08.42-.32.6.44 0 .09-.42 1.92-.47 2.05-.58 1.48-1.24 3-1.8 4.58-.19.57-.47 2.12-.89 3.12zm19.74 3.38c0-.77.41-2.43-.82-1.62a3.25 3.25 0 00-1.38 2.71c-.06.61-.22 1.3.46 1.73a1.54 1.54 0 001.8-1.55c-.02-.42-.07-.84-.06-1.27zm-12.63-7.17c.17.05.26.21.29.48a6.11 6.11 0 01-.41 1.9c-.25.91-.35 1.92-.58 2.84a.87.87 0 000 .45c.17.45-.43.88-.86 1a1.05 1.05 0 01-1.54-.86 1.87 1.87 0 01.15-.83c.3-.62.47-1.34.77-2 .47-.91.86-1.86 1.37-2.74a.63.63 0 01.45-.33 1.11 1.11 0 01.36.09zm6.24 2.79c0 1-.28 2.5-.31 3.16a10.48 10.48 0 01-.13 1.95c-.07.3-.5.56-.84.74-.11 0-.46-.25-.7-.39-1-.6-.43-1.29-.29-2s.93-2.54 1.05-3.26.37-.91 1.15-.41c.14.09.14.31.07.21zm19.46 1.26c.18 0 .31.16.39.43a6.34 6.34 0 010 2c0 1 .09 2.06.06 3a.91.91 0 00.14.45c.26.44-.23 1-.62 1.24a1 1 0 01-1.69-.51 1.86 1.86 0 010-.88c.15-.7.15-1.48.32-2.17.25-1 .43-2.11.73-3.14a.7.7 0 01.38-.45.75.75 0 01.29.03zm46.95-5.26l.08.37c.07.39.22.77.3 1.16l.77 3.79c.21 1.18.42 2.37.54 3.56 0 .21-.41.62-.67.63-.42 0-1-.06-1.25-.39a4.87 4.87 0 01-.48-1.88c-.24-2-.14-3-.38-5-.07-.56-.15-2.2-.23-2.76a7.19 7.19 0 01-.11-1.22 1.31 1.31 0 01.09-.26c.45 0 .13-.12.56 0 .26.06.44.89.5 1.1a7.92 7.92 0 01.28.9zm19.42 1.76a3.28 3.28 0 00.37 2.92s.11.34.22.37c.45.14 1.16.47 1.3.21a3.48 3.48 0 00.41-2.23c-.22-.87-.69-2.92-2-2.41-.23.09-.19.94-.3 1.14zm-5.83-.88a9 9 0 00.36.85c.08.26.2.61.28.87.21.74.32 1.09.53 1.83.1.34.72 1.28.48 1.74s-.46.14-.72.5a.94.94 0 01-.77 0 2.16 2.16 0 01-.81-1 23.91 23.91 0 01-.21-2.42c-.11-.84-.21-1.7-.27-2.54 0-.23 0-.66.12-.68.38-.08.55-.08.69.29.03.07.31.49.32.56zm-39.18 10.35a1.8 1.8 0 01-.27 1.29.88.88 0 01-1 .07 4.13 4.13 0 01-1.19-1.88 13.51 13.51 0 01.06-2.9v-1a10.56 10.56 0 01.4-2.79 16.47 16.47 0 00.18-3c0-.08 0-.22.06-.23.54-.13.28-.46.79.15 0 .08.41 1.93.42 2.07.06 1.59.06 3.29.17 4.92-.02.66.33 2.16.38 3.3zm19.95-3.68c-.22-.74-.33-2.46-1.29-1.32a3.27 3.27 0 00-.5 3c.13.59.19 1.31 1 1.5a1.56 1.56 0 001.26-2c-.17-.39-.35-.73-.47-1.18zm-14.7-2.55c.19 0 .34.1.46.34a5.66 5.66 0 01.31 1.93c.1.94.38 1.92.5 2.86a.8.8 0 00.2.4c.32.37-.09 1-.44 1.27a1.06 1.06 0 01-1.75-.22 1.78 1.78 0 01-.17-.83c0-.68-.07-1.41 0-2.09.1-1 .12-2.05.28-3.07a.67.67 0 01.31-.48 1.05 1.05 0 01.3-.11zm7.1.4c.27.91.56 2.44.75 3.08a10.74 10.74 0 01.52 1.88c0 .31-.29.7-.56 1-.08.09-.52-.08-.79-.13-1.15-.22-.84-1.07-.93-1.75s0-2.71-.1-3.43.05-1 1-.78c.11.01.19.22.11.13zm19.56-4.46c.19 0 .35.07.5.31a6 6 0 01.53 2c.21 1 .6 2 .82 2.93a1 1 0 00.25.4c.36.35 0 1-.3 1.36a1 1 0 01-1.76 0 1.88 1.88 0 01-.27-.84c0-.71-.23-1.47-.25-2.18 0-1.08-.12-2.15-.07-3.23a.67.67 0 01.25-.53 1.39 1.39 0 01.3-.22zm40.34-19.21l.24.3c.26.31.57.56.82.87l2.5 3c.75.93 1.51 1.86 2.18 2.85a.86.86 0 01-.28.86c-.37.21-1 .43-1.29.24a4.91 4.91 0 01-1.3-1.44c-1.16-1.69-1.51-2.56-2.69-4.24-.32-.47-1.18-1.87-1.51-2.33a8.5 8.5 0 01-.68-1 .82.82 0 010-.33c.34-.18 0-.15.44-.22.24 0 .79.6.95.76s.42.43.62.68zm16.23-8.54c.19 1 1.36 1.74 2.11 2.06 0 0 .29.2.4.16.43-.17 1.19-.36 1.14-.65a3.39 3.39 0 00-1.09-2c-.72-.54-2.38-1.83-3-.65-.17.23.4.89.44 1.08zm-5.05 2.7c.13.13.65.37.8.48l.73.54 1.52 1.16c.28.22 1.32.6 1.42 1.12s-.31.37-.3.81c0 .12-.46.43-.66.42a2.14 2.14 0 01-1.23-.33 23.31 23.31 0 01-1.59-1.84c-.58-.61-1.16-1.26-1.71-1.89-.14-.17-.34-.56-.3-.6.27-.27.41-.37.74-.15.06.04.54.23.58.28zm-29.47 25.33a1.78 1.78 0 01.13 1.32.86.86 0 01-1 .35 4.07 4.07 0 01-1.68-1.48 14 14 0 01-.79-2.78c-.09-.33-.21-.64-.31-1a10.76 10.76 0 01-.44-2.76 17.29 17.29 0 00-.71-2.86v-.24c.44-.25.11-.51.75 0 .08.06 1 1.71 1 1.84.53 1.5 1 3.12 1.64 4.65.24.56 1.02 1.89 1.41 2.96zm16.98-10.45c-.5-.58-1.34-2.08-1.68-.65a3.27 3.27 0 00.81 2.93c.35.49.7 1.12 1.5 1a1.55 1.55 0 00.27-2.36c-.3-.32-.59-.6-.9-.92zm-14.1 2.89c.16-.08.34 0 .53.17a5.9 5.9 0 01.93 1.71c.41.85 1 1.68 1.42 2.53a.82.82 0 00.33.31c.42.24.25 1 0 1.34a1 1 0 01-1.71.38 1.87 1.87 0 01-.43-.73c-.18-.65-.52-1.31-.68-2-.24-1-.57-2-.76-3a.67.67 0 01.12-.55.73.73 0 01.25-.16zm6.5-1.95c.58.74 1.43 2.06 1.84 2.58a9.69 9.69 0 011.19 1.55 1.5 1.5 0 01-.12 1.16c0 .11-.51.12-.78.16-1.15.21-1.17-.69-1.51-1.29s-1-2.53-1.36-3.15-.31-.92.59-1c.06-.12.25.05.15-.01zm14.45-12.03c.12-.12.31-.11.56 0a6.8 6.8 0 011.5 1.39c.69.71 1.55 1.34 2.26 2a1 1 0 00.42.21c.49.1.58.85.49 1.3-.22 1.19-1 1.06-1.52.89a2.12 2.12 0 01-.66-.59c-.4-.58-1-1.13-1.35-1.72-.58-.9-1.22-1.76-1.76-2.68a.64.64 0 01-.09-.57.68.68 0 01.15-.23zm13.11-36.43l.37-.09c.39-.08.76-.23 1.15-.32l3.77-.89c1.17-.27 2.35-.53 3.53-.69.21 0 .64.39.66.64 0 .42 0 1-.38 1.24a5 5 0 01-1.89.45c-2 .22-3 .13-5 .39-.57.06-2.21.19-2.77.28s-.79.12-1.22.14a1.48 1.48 0 01-.3-.07c0-.31-.12-.08 0-.39s.9-.37 1.11-.44.65-.18.97-.25zm-2.23-16.25a3.39 3.39 0 002.41-1.65s.26-.25.24-.36c0-.49-.11-1.24-.42-1.24a3.38 3.38 0 00-2.16.71c-.66.61-2.23 2-1.2 2.83.17.15.91-.29 1.13-.29zm1.26 5.32c.16-.08.52-.52.67-.63l.71-.57 1.5-1.16c.29-.22.93-1.14 1.45-1.1s.29.38.73.49a.94.94 0 01.25.72 2 2 0 01-.66 1.08 23 23 0 01-2.19 1c-.74.4-1.53.79-2.28 1.16a1.39 1.39 0 01-.67.15c-.18-.28-.23-.42.07-.68.05-.02.36-.42.42-.46zm4.9 34.82c.52.28.91.57 1 .88a.86.86 0 01-.47.93 3.78 3.78 0 01-2.21 0 14.51 14.51 0 01-2.42-1.58c-.28-.18-.58-.34-.87-.51a12.74 12.74 0 01-2.19-1.75 18.48 18.48 0 00-2.46-1.65c-.07 0-.18-.13-.17-.16.11-.44-.29-.43.47-.47.08 0 1.85.66 2 .72 1.41.74 2.88 1.59 4.35 2.32.49.28 1.97.75 2.97 1.27zm3.14-18.95c-.76.11-2.48 0-1.46 1a3.52 3.52 0 002.87.95c.61 0 1.32.06 1.67-.67a1.56 1.56 0 00-1.8-1.54c-.45.07-.86.2-1.28.26zm-6.4 11.81c.05-.15.21-.22.48-.22a6.61 6.61 0 011.87.52c.9.3 1.91.46 2.81.73a.86.86 0 00.45 0c.46-.14.86.47 1 .91.32 1.14-.43 1.4-.94 1.47a1.9 1.9 0 01-.82-.21c-.58-.34-1.29-.56-1.87-.91-.88-.52-1.79-1-2.64-1.54a.65.65 0 01-.33-.44.74.74 0 01-.01-.31zm2.73-5.62c.94 0 2.49.21 3.15.22a11.36 11.36 0 011.94 0c.31.06.6.47.79.81.06.11-.21.48-.34.72-.61 1-1.3.43-2 .3s-2.55-.88-3.28-1-.87-.34-.46-1c.08-.08.3-.08.2-.05zm-2.81-16.18c-.05-.14 0-.29.24-.47a7.56 7.56 0 011.82-.91c.91-.4 1.81-1 2.7-1.41a.81.81 0 00.34-.32c.27-.42 1-.26 1.39 0 1 .63.65 1.32.29 1.72a2.2 2.2 0 01-.8.4c-.69.15-1.4.46-2.1.6-1 .21-2.08.51-3.14.7a.65.65 0 01-.55-.09.59.59 0 01-.19-.22zm-34.54-23.64l.14-.36c.16-.37.23-.77.38-1.14l1.4-3.61c.45-1.11.91-2.22 1.45-3.28a.87.87 0 01.93-.17c.36.22.84.63.84 1a4.8 4.8 0 01-.63 1.84c-.9 1.84-1.49 2.57-2.39 4.41-.25.51-1.06 1.94-1.3 2.46a9.21 9.21 0 01-.56 1.08 1.26 1.26 0 01-.28.19c-.36-.22-.17 0-.45-.29s.13-1 .19-1.2a9.21 9.21 0 01.28-.93zM133.9 8.56c.94-.51 1.16-1.86 1.19-2.68 0 0 .08-.35 0-.43-.31-.36-.75-1-1-.88a3.42 3.42 0 00-1.51 1.71c-.28.87-.93 2.83.47 3.09.25.05.62-.7.85-.81zm4.62 3.76a7 7 0 00.12-.92c.06-.26.13-.62.2-.89.19-.74.28-1.1.46-1.84.1-.35 0-1.46.47-1.75s.48.12.89-.08a1 1 0 01.65.41 2.23 2.23 0 01.2 1.27 21.72 21.72 0 01-1 2.19c-.32.77-.68 1.56-1.05 2.32-.1.21-.38.55-.45.53-.37-.13-.53-.21-.46-.6-.02-.07-.05-.58-.03-.64zm37.77 12.97c.35-.47.71-.81 1-.83s.83.26.84.61a4 4 0 01-.37 2.21 16.13 16.13 0 01-2 2.14c-.23.25-.43.51-.64.77a13.17 13.17 0 01-2.06 1.87 18.13 18.13 0 00-2 2.15c-.05.06-.16.16-.18.15-.39-.2-.46.21-.39-.53 0-.09.94-1.72 1-1.83 1-1.27 2-2.6 3-3.93.43-.49 1.12-1.87 1.8-2.78zm-18.19-8.53c-.24.74-1.1 2.22.31 1.82a3.26 3.26 0 002.1-2.21c.23-.56.58-1.19 0-1.79a1.52 1.52 0 00-2.15.94c-.05.42-.13.84-.26 1.24zm10.34 10.48c-.16-.09-.21-.28-.17-.54a6 6 0 01.88-1.74c.48-.82.83-1.78 1.28-2.6a.86.86 0 00.08-.45c0-.48.65-.74 1.1-.77 1.18-.06 1.29.7 1.29 1.2a1.72 1.72 0 01-.35.76c-.44.52-.78 1.18-1.23 1.69-.68.78-1.31 1.59-2 2.33a.67.67 0 01-.53.21.87.87 0 01-.35-.09zm-5.37-4.49c.31-.88.95-2.31 1.16-2.94a11.24 11.24 0 01.65-1.82 1.68 1.68 0 011-.5c.12 0 .37.37.56.58.79.88 0 1.38-.27 2s-1.58 2.18-1.89 2.85-.61.76-1.22 0c-.06-.07 0-.28.01-.17zm-18.4-6.79c-.16-.06-.25-.23-.25-.52a6.29 6.29 0 01.57-2c.33-.93.51-2 .82-2.93a.83.83 0 000-.47c-.13-.48.51-.89 1-1 1.15-.32 1.4.44 1.48.94a2.08 2.08 0 01-.21.86c-.35.63-.58 1.37-.94 2-.54.93-1 1.9-1.61 2.8a.67.67 0 01-.49.32.72.72 0 01-.37 0zM98.98 9.55v-.39c0-.4-.09-.79-.09-1.19l-.06-3.87c0-1.2 0-2.4.11-3.59 0-.22.52-.55.77-.5.41.07 1 .28 1.15.64a5 5 0 01.12 1.94c-.14 2-.42 2.94-.56 5 0 .56-.25 2.19-.28 2.76a8.12 8.12 0 01-.11 1.21 1.36 1.36 0 01-.18.28c-.42-.08-.15.09-.53-.12s-.26-1-.28-1.17a8.18 8.18 0 01-.06-1zM80.32 4.77a3.22 3.22 0 00.09-2.94s0-.35-.16-.4c-.42-.22-1.07-.65-1.25-.41a3.53 3.53 0 00-.76 2.14c.07.9.2 3 1.6 2.69.24-.05.34-.91.48-1.08zm5.69 1.76a9.12 9.12 0 00-.23-.9c0-.27-.12-.63-.15-.9l-.27-1.88c0-.36-.52-1.38-.22-1.8s.48-.06.79-.38a.92.92 0 01.76.15 2.16 2.16 0 01.67 1.08 22.14 22.14 0 01-.14 2.43c0 .84 0 1.71-.09 2.55 0 .22-.15.64-.22.64-.4 0-.58 0-.66-.39-.02-.07-.24-.53-.24-.6zm39.94-2.24a1.77 1.77 0 01.59-1.16.85.85 0 011 .23 4 4 0 01.66 2.12 13.54 13.54 0 01-.81 2.77c-.1.32-.17.65-.25 1a10.82 10.82 0 01-1.1 2.57 16.3 16.3 0 00-.94 2.79c0 .08-.09.21-.12.21-.53 0-.38.37-.69-.37 0-.09.11-2 .14-2.11.35-1.55.78-3.19 1.1-4.8.14-.59.14-2.14.42-3.25zm-20.12-1.04c.06.77-.18 2.47 1 1.57a3.24 3.24 0 001.11-2.84c0-.61.1-1.32-.62-1.68a1.52 1.52 0 00-1.65 1.69c0 .42.13.84.16 1.26zm13.5 5.82c-.18 0-.3-.18-.35-.45a5.8 5.8 0 01.16-1.94c.14-.94.1-2 .22-2.9a.82.82 0 00-.1-.45c-.21-.44.33-.92.74-1.11a1.07 1.07 0 011.63.68 1.77 1.77 0 010 .84c-.21.65-.29 1.39-.51 2-.35 1-.62 2-1 2.89a.61.61 0 01-.41.39.72.72 0 01-.38.05zm-6.66-2.08c-.05-1 0-2.51 0-3.18a10.68 10.68 0 01-.08-1.95c0-.31.44-.61.76-.82.1-.06.49.2.74.32 1.06.5.57 1.24.5 1.93s-.65 2.63-.68 3.36-.28.94-1.12.52c-.12-.06-.12-.29-.12-.18zm-19.57.57c-.18 0-.33-.12-.44-.38a6.59 6.59 0 01-.2-2c-.05-1-.28-2-.35-3a.78.78 0 00-.18-.43c-.3-.4.14-1 .51-1.3a1 1 0 011.73.33 2 2 0 01.12.88c-.08.71 0 1.48-.11 2.19-.15 1.06-.23 2.13-.44 3.18a.69.69 0 01-.33.49.86.86 0 01-.31.04z" fill="currentColor"/></svg>