<svg xmlns="http://www.w3.org/2000/svg" viewBox="0 0 230.96 157.71"><path d="M36.58 25.68l2.82 3.58c.34.44.65.89 1 1.34l1.49 2.13 1.45 2.05c.8 1.11 1.64 2.21 2.4 3.34.62.92 1.14 1.9 1.76 2.82s1.47 2 2.16 3c.5.73.91 1.52 1.42 2.24s1.17 1.39 1.65 2.15.92 1.73 1.39 2.6 1.17 2 1.62 3a5.1 5.1 0 01.23 1.81c0 .14-.39.45-.6.43a4.44 4.44 0 01-.82-.2 1.44 1.44 0 01-.3-.24l-.25-.29c-.46-.46 0-.84-.16-1.32A3.61 3.61 0 0053.3 53c-.64-1-1.33-1.91-2-2.87l-3.21-4.7c-.86-1.26-1.67-2.56-2.57-3.79s-2.09-2.59-3.09-3.93c-1.23-1.63-2.37-3.33-3.6-5-1.05-1.4-2.17-2.75-3.3-4.09-.8-1-1.71-1.82-2.49-2.79a1.19 1.19 0 010-1.17c.88-1 1.81-.91 2.79.17zm18.7 21.67c-.8-1.26-1.58-2.55-2.4-3.79-1-1.52-2-3-3.07-4.49s-2.22-2.85-3.25-4.34c-1.31-1.88-2.45-3.89-3.79-5.75-1.19-1.64-2.58-3.14-3.89-4.71-.15-.19-.17-.49-.32-.69a2.1 2.1 0 00-.55-.52c-.22-.15-.53-.19-.69-.37a3.2 3.2 0 01-.45-.86c0-.06 0-.21.11-.25.81-.55 1.41-1.66 2.55-1.37a2.56 2.56 0 011.3 1C42 22.78 43 24.4 44.06 26c.29.45.43 1 .73 1.45L49 33.83c.46.71.78 1.51 1.24 2.22a38.17 38.17 0 002.6 3.65 28.52 28.52 0 012.38 3.75c.74 1.21 1.48 2.41 2.17 3.65.35.61.57 1.29.87 1.92.19.39.45.76.65 1.15v.27c.15.89 0 1-.31 1.36a5.19 5.19 0 01-1.84-.64c-.2-.25-.46-.68-.41-.87.28-1.17-.71-1.93-1.07-2.94zm-4.44 12.19c-.49.43-1.39 0-1.93-.82s-1.11-1.33-1.65-2-.94-1.37-1.48-2a136.63 136.63 0 00-3.49-3.74L37 45.51c-1.13-1.15-2.27-2.29-3.37-3.46-.94-1-1.79-2.06-2.75-3s-3.31-3.13-4.31-4.13a17.66 17.66 0 01-2.44-3c-.17-.28.33-1.22.75-1.53a1.53 1.53 0 011.49.13c1.38 1.33 3.79 4.08 5.07 5.51.69.76 1.29 1.61 2 2.37.42.45 1 .81 1.41 1.23.29.28.55.59.82.89l4.12 4.6 3 3.4 4.88 5.67c.87 1 1.7 2.09 2.59 3.09.66.72 1 1.88.58 2.26zm11.59-8.65A11.37 11.37 0 0161.1 50c-.34-.33-1.1-.58-.63-1.38.1-.17-.32-.9-.57-1.33l-2.8-4.74-3.31-5.75c-1.12-1.89-2.25-3.76-3.42-5.61S48.1 27.73 47 26c-.58-.89-1.11-1.82-1.64-2.75L44.08 21a17.06 17.06 0 01-1-1.89c-.23-.55 0-1 .7-1.06a4.15 4.15 0 00.46-.15c1.07-.48 1.56 0 1.62.11.34.57 0 1 .14 1.19.9 1.67 1.83 3.31 2.78 4.95l1.85 3.08 1.82 3.3 2.1 3.6 1.16 2.09c.48.8 1 1.58 1.45 2.4L60.07 44c.8 1.43 1.63 2.84 2.45 4.26.15.26.47.58.44.73.32.92.29 1.6-.53 1.9zm4.42-5.27c-.26-1-.39-1.68-.61-2.36-.16-.51-.48-1-.66-1.48-.44-1.27-.79-2.56-1.26-3.82a20 20 0 00-1.06-1.82c-.56-1.13-1-2.29-1.59-3.42L57 23.26c-.87-1.77-1.67-3.58-2.51-5.36-.26-.56-.63-1.08-.86-1.65s-.71-1.41-.48-1.87c.41-.83 1.3-.9 2.33-.73 1.32.22 1 .85.77 1.6v.27c.86.6.69 1.7 1.23 2.49A21.54 21.54 0 0159 21.27l1 2.44a12.49 12.49 0 001.13 2.36A26.17 26.17 0 0162.85 30c.71 1.6 1.46 3.19 2.13 4.8 1 2.33 1.83 4.71 2.86 7a5.26 5.26 0 01.32 4.35c0 .12-.21.27-.27.23l-1.04-.76zM51.63 56.57c-.33.23-.57 0-1.2-1s-.88-2.11-1.7-3c-.29-.32-.53-.68-.8-1-.85-1-1.76-2-2.58-3.06-.6-.76-1.28-1.46-1.87-2.22-.43-.56-.74-1.2-1.18-1.75-1.56-1.93-3.11-3.88-4.75-5.74-1.46-1.64-3.14-3.1-4.55-4.8-1.29-1.47-2.36-3.12-3.53-4.69-.11-.15-.33-.2-.31-.58a1.1 1.1 0 01.48-.94c.91-.65 1.79-.27 2.63.83 1.13 1.47 2.35 2.88 3.51 4.33.52.65 1 1.36 1.5 2l5.88 7.12c.94 1.15 1.85 2.32 2.77 3.5l2.07 2.7a21.38 21.38 0 011.28 1.83c.59.9 1.19 1.9 1.72 2.83a8.75 8.75 0 01.38 1.16c.15.4.37.78.52 1.17a2.27 2.27 0 01.09.68.94.94 0 01-.08.32c-.03.17-.24.24-.28.31zm4.48-24.66c-.86-1.68-.93-1.91-1.87-3.55-.65-1.15-1.52-2.17-2.23-3.29-.48-.75-.79-1.61-1.24-2.39a8.77 8.77 0 00-1.39-1.94 4.16 4.16 0 01-.93-4.12.61.61 0 01.4-.29 2.3 2.3 0 012.4 1.73 9.49 9.49 0 001.35 2.06c.06.09.18.15.23.24 1 1.88 1.92 3.75 2.83 5.65.38.81.6 1.71 1 2.53s1 1.85 1.44 2.79l1.55 3.08c.31.62.67 1.21 1 1.84.76 1.61 1.53 3.22 2.24 4.85a49.31 49.31 0 002.03 4.9c.56 1 0 1.29-.09 1.78-.2.74-.89.41-1.34 0a3.46 3.46 0 01-.7-1.38c-.18-.57-.16-1.19-.38-1.73-.52-1.23-1.1-2.44-1.7-3.64-.44-.9-1-1.75-1.41-2.63-.3-.57-.56-1.16-.85-1.73l-1.68-3.27-.1-.25-.23-.51c-.09-.19-.17-.38-.24-.52a1.06 1.06 0 01-.09-.21zM80.67 42c-1 .26-1.11.07-1.46-1.5-.42-2-1-3.9-1.51-5.84-.29-1.08-.57-2.16-.9-3.22l-1.88-5.77c-.55-1.73-1.06-3.47-1.55-5.22-.57-2.05-1.07-4.13-1.66-6.18-.27-1-.74-1.89-1-2.85-.45-1.47-.83-3-1.22-4.45a1.62 1.62 0 011.46-1.82c1.06.06 1.48 2.34 1.71 3.17s.58 1.76.81 2.65c.34 1.33.62 2.68.93 4 .16.68.3 1.37.48 2 .39 1.4.86 2.78 1.19 4.19.44 1.89.76 3.8 1.2 5.69.22.92.52 1.83.83 2.72.45 1.27 1 2.5 1.38 3.79.26.89.26 1.86.47 2.78.3 1.33.62 2.66 1 3.95.23.75.18 1.77-.28 1.91zM59.46 10.69a1.44 1.44 0 012.18.66v.71q.95 2.73 1.93 5.45c.64 1.74 1.34 3.45 2 5.21.54 1.58 1 3.2 1.52 4.78.36 1.06.86 2.08 1.24 3.14l2 5.6c.31.88.65 1.77 1 2.62a5 5 0 01.47 3.25c0 .18-.37.22-.58.3s-.19 0-.28 0c-.93.11-1.12-.23-1.28-1.42a16.42 16.42 0 00-.9-3.59c-.92-2.47-2-4.9-2.94-7.35-.49-1.23-.86-2.51-1.34-3.74-.73-1.84-1.53-3.66-2.27-5.5-.54-1.34-1-2.72-1.54-4.06a23 23 0 00-1.13-2.14c-.05-.11 0-.25 0-.37a2.41 2.41 0 00-.19-.61c-.16-.22-1.74-2.32.11-2.94zM16.29 38.86a1.3 1.3 0 011.78-.66c.44.38.55.84.74 1 .79.69 3.09 2.7 3.86 3.41 1.29 1.2 2.55 2.44 3.86 3.62.41.36 1.76 1.46 2.18 1.81l1.86 1.71 3.18 2.94c1 .88 3.54 3 4.49 3.92.62.59 1.57 1.25 3.45 3a7.11 7.11 0 011.5 1.67 3.78 3.78 0 01.81 1.48c0 .26-.56.55-1 .48a5.92 5.92 0 01-1.49-.83c-.06 0-.16-.1-.16-.14-.18-1.24-1.32-2-2.31-2.74l-5.89-4.78-4.6-3.54-3.35-2.68-4.17-3.14c-.79-.62-3.11-2.55-3.9-3.17a6.21 6.21 0 00-1.13-.77c-.51-.25-.51-1.63.29-2.59zm52.23-17.74c-.67-1.47-1.39-2.92-2-4.41-.42-1-.71-2.06-1.07-3.08-.22-.59-.52-1.15-.69-1.76-.27-.91.5-1.24 1.11-1.21s1.42-.53 1.7.49c.21.77.43 1.54.69 2.3s.52 1.21.73 1.83c.4 1.2.75 2.42 1.17 3.61s1 2.65 1.5 4c.59 1.75 1.13 3.52 1.64 5.3.46 1.61.84 3.26 1.28 4.88.55 2 1.85 5.87 2.35 7.89a2.57 2.57 0 01-.28 1.62c-.12.23-.7.21-1 0a4.63 4.63 0 01-1.13-1.09s.3-.44.31-.71a3.55 3.55 0 00-.19-1.15c-.47-1.6-1.68-5.07-2.15-6.67-.38-1.32-.68-2.68-1.13-4-.72-2.09-.82-2.49-1.61-4.56-.2-.53-.68-1.74-.88-2.28.01.04-.39-.98-.35-1zM25.45 36.76l2.76 2.8c1.95 2 3.94 4 5.84 6 1.29 1.39 2.46 2.89 3.72 4.31.67.76 1.41 1.46 2.11 2.2.86.92 3.54 3.46 4.35 4.41A16.62 16.62 0 0146 58.9a1 1 0 01-.33 1.1 2 2 0 01-1.31-.6c-.65-1.76-4.2-4.33-5.34-5.71a36.29 36.29 0 00-3.09-2.82c-1.47-1.43-2.8-3-4.29-4.4s-2.89-2.41-4.32-3.63c-.42-.35-.68-.89-1.09-1.25-1.36-1.21-2.77-2.36-4.14-3.54a8.42 8.42 0 01-1.31-1.36c-.06-.07.36-.71.65-.85a3.11 3.11 0 014.02.92zM88 41c-.49.32-1.19.48-1.27.29a4.38 4.38 0 01-.48-2.25 8 8 0 00.2-1.11c0-2.32-1.34-7-1.78-9.28-.37-2-1.6-8.11-2-10.09-.3-1.35-.86-2.64-1.18-4-.49-1.74-.78-3.56-1.13-5.3-.22-1.07-.51-2.14-.66-3.22a2.65 2.65 0 01.3-1.22c.06-.16.3-.25.37-.41.39-1 1.12-.35 1.48-.14a2.37 2.37 0 011 2.69 9.25 9.25 0 00.37 2.55c.34 2.2.63 4.41 1 6.59.21 1.21.63 2.38.87 3.58l1.43 7.94c.41 2.51 1.3 7.07 1.69 9.58.16 1 .18 2.07.24 3.1a.9.9 0 01-.45.7zm-5.16-1.71c-.3-1.56 0-.83-.26-2-.36-1.6-1.32-5.13-1.8-6.71S79 23.56 78.61 22s-1.71-4.89-2.16-6.58c-.31-1.21-.51-2.45-.76-3.67-.2-1-.45-1.91-.61-2.87a5.35 5.35 0 01.06-1.26c.43-.67.93-1.24 1.84-.69.57.35 1.13.6 1.08 1.5a12.5 12.5 0 00.37 2.38c.17 1.1.28 2.2.47 3.3.62 3.4 3.12 12.32 3.76 15.72.27 1.41 1.13 4.74 1.45 6.13.18.77.33 1.56.52 2.32a2.65 2.65 0 01.07 1.55c-.1.31-.76.49-1.12.36s-.58-.73-.74-.9zM85.59 4c.45.09.94.35 1.25.21.66-.28.68.21 1 .47.6.49.28.94.3 1.49 0 1.56.92 5.12 1 6.7a16.18 16.18 0 00.12 2.31 37.15 37.15 0 01.84 4.55c.15 1.85 1.31 7.62 1.49 9.47s.92 5.57.34 7.26c-.13.36-.57.9-.66.84a4.75 4.75 0 01-1.09-1.14c-.06-.09.17-.43.19-.67a8.19 8.19 0 00.1-1.78c-.19-1.57-.84-5.1-1.12-6.66s-1.55-7.16-1.89-8.78c-.27-1.3-.48-2.61-.76-3.91-.38-1.72-1.25-5.39-1.54-7.13a13.61 13.61 0 01.06-2.92c.04-.08.24-.17.37-.31zm-80 101.52l4.17-1.85c.51-.21 1-.4 1.54-.58l2.44-.89 2.35-.88c1.29-.48 2.56-1 3.85-1.46 1-.36 2.13-.6 3.17-1s2.29-.91 3.45-1.32c.83-.3 1.69-.5 2.52-.81s1.65-.75 2.51-1 1.89-.48 2.83-.73 2.19-.68 3.25-.91a6.48 6.48 0 011.7 0c.13 0 .3.32.22.48a5.63 5.63 0 01-.42.61s-.61.39-.62.4c-.56.33-.78 0-1.26 0a5.54 5.54 0 00-1.15.29l-3.24 1.32-5.31 2.08c-1.43.54-2.88 1-4.28 1.62s-3 1.43-4.53 2.1c-1.88.82-3.8 1.53-5.68 2.34-1.6.71-3.17 1.49-4.72 2.29-1.11.57-2.14 1.29-3.26 1.83a1.24 1.24 0 01-1.2-.36 1.87 1.87 0 01.73-3zm25.92-12.08c-1.45.39-2.9.76-4.34 1.18q-2.61.75-5.19 1.6c-1.71.58-3.38 1.29-5.09 1.85-2.19.71-4.44 1.21-6.61 2-1.91.67-3.74 1.62-5.6 2.47-.22.1-.52 0-.75.09a1.82 1.82 0 00-.65.42c-.2.18-.32.51-.53.62a2.77 2.77 0 01-1 .18c-.06 0-.19-.13-.22-.23-.34-1.11-1.29-2.23-.71-3.38a2.34 2.34 0 011.34-1c1.84-.66 3.75-1.16 5.61-1.64.52-.13 1.09-.08 1.61-.22 2.45-.66 4.9-1.36 7.37-2 .82-.2 1.68-.25 2.49-.47a41 41 0 004.3-1.29 32.52 32.52 0 014.31-1c1.38-.31 2.77-.62 4.16-.89.69-.13 1.39-.16 2.09-.26.43-.07.86-.18 1.29-.26h.24c.88.05 1 .15 1.14.45A6.14 6.14 0 0135.53 93a2 2 0 01-1 .17c-.92-.46-1.97.17-3.02.27zm9.87 4.83c.27.41-.31 1.19-1.18 1.64s-1.46.93-2.2 1.38-1.48.76-2.16 1.21c-1.43.94-2.82 1.93-4.21 2.92l-6.17 4.48c-1.29.95-2.58 1.92-3.89 2.85-1.11.79-2.3 1.48-3.39 2.29s-3.54 2.86-4.67 3.71a15.6 15.6 0 01-3.34 2c-.3.13-1.27-.58-1.53-1.13a1.62 1.62 0 01.28-1.62c1.53-1.17 4.62-3.11 6.23-4.15.87-.55 1.8-1 2.66-1.57.52-.34 1-.82 1.45-1.2a9.68 9.68 0 011-.67l5.21-3.33 3.85-2.43 6.39-3.9c1.15-.69 2.32-1.35 3.45-2.06.84-.52 2-.77 2.22-.42zm-3.96-9.39a15.16 15.16 0 01-1.37.72c-.44.17-1 .67-1.49.15-.11-.12-1 0-1.44.1l-5.43.94-6.53 1.09c-2.16.38-4.32.79-6.46 1.24s-4 .94-6.06 1.41c-1 .24-2.09.41-3.14.59-.85.15-1.71.28-2.56.4a17.07 17.07 0 01-2.12.27c-.61 0-1-.41-.77-1.26a3.74 3.74 0 000-.58c-.11-1.4.52-1.71.65-1.73.64-.1.9.43 1.17.4 1.88-.21 3.76-.47 5.63-.74 1.18-.18 2.35-.42 3.54-.59l3.73-.45 4.13-.6 2.37-.24c.93-.14 1.85-.32 2.78-.43l6.11-.66 4.84-.67a3.73 3.73 0 01.85-.13c.96.02 1.59.18 1.57.77zm-2.92-4.35c-1-.17-1.68-.33-2.38-.43-.53-.07-1.09 0-1.62-.09-1.34-.16-2.65-.42-4-.57-.69-.08-1.4.09-2.1.08l-3.77-.16-10.57-.14c-2 0-3.94-.15-5.91-.21-.62 0-1.24.09-1.86 0S.73 83 .43 82.55c-.54-.88-.22-1.89.46-2.87.87-1.25 1.23-.54 1.77.09.06.07.19.15.25.12 1-.55 1.82.22 2.78.1a18.89 18.89 0 013.59.23l2.64.27a11.5 11.5 0 002.62.15 26 26 0 014.21.41c1.74.15 3.49.27 5.23.47 2.51.29 5 .66 7.52.89a6.8 6.8 0 014 1.44c.09.07.16.23.09.25-.4.18-.85.33-1.09.43zm4.41 12.98c.11.28-.19.47-1.2.95a30.82 30.82 0 00-3.22 1.23c-.36.22-.76.4-1.13.61-1.16.64-2.32 1.34-3.49 2-.86.46-1.68 1-2.53 1.43-.62.33-1.31.52-1.93.85-2.19 1.18-4.39 2.33-6.52 3.61-1.89 1.12-3.62 2.53-5.51 3.66-1.68 1-3.51 1.74-5.28 2.59-.16.08-.24.31-.63.18a1.34 1.34 0 01-.91-.78c-.56-1.16 0-2 1.22-2.61 1.67-.8 3.3-1.71 5-2.55.74-.37 1.53-.66 2.27-1l8.18-4.29c1.32-.68 2.66-1.33 4-2l3-1.49c.66-.33 1.35-.61 2-.88 1-.41 2.06-.82 3.09-1.2.39-.13.79-.12 1.19-.22s.82-.25 1.22-.34a3 3 0 01.65 0 1.07 1.07 0 01.27.09c.2-.05.2.12.26.16zM17.51 88c-1.88.11-2.12.07-4 .27-1.32.14-2.6.55-3.91.76-.88.15-1.8.08-2.69.19a7.15 7.15 0 00-2.33.55 3.7 3.7 0 01-4.16-1 .81.81 0 01-.13-.58 2.25 2.25 0 012.58-1.71 8.74 8.74 0 002.44-.39c.11 0 .21-.12.32-.12 2.1-.06 4.21-.13 6.31-.13.9 0 1.8.21 2.71.22s2.09-.08 3.13-.11l3.45-.07c.69 0 1.38-.08 2.07-.08h5.35c1.78 0 3.59.26 5.36.15 1.13-.07 1.17.37 1.55.59.61.34 0 .69-.54.9a4.86 4.86 0 01-1.55.1c-.58 0-1.13-.23-1.72-.23-1.33 0-2.68.05-4 .11-1 0-2 .16-3 .23-.64 0-1.28 0-1.92.08l-3.66.27h-1.66zm20.65-13.64c-.34.74-.54.69-2 0-1.82-.83-3.71-1.57-5.56-2.34-1-.43-2.06-.87-3.1-1.26l-5.71-2.06q-2.55-.95-5.07-2l-5.9-2.5c-.93-.38-2-.55-2.9-.9-1.44-.55-2.85-1.17-4.26-1.78A1.88 1.88 0 013.27 59c.81-.94 2.81.21 3.61.56s1.73.64 2.57 1c1.24.59 2.46 1.23 3.7 1.84.62.31 1.24.65 1.88.93 1.33.58 2.69 1.08 4 1.72 1.74.85 3.43 1.8 5.17 2.64a27.5 27.5 0 002.64 1.07c1.27.46 2.57.82 3.81 1.35.86.36 1.62.94 2.46 1.35 1.22.59 2.46 1.16 3.73 1.66.7.3 1.45.88 1.32 1.24zM.5 73.81A1.66 1.66 0 012.28 72c.1 0 .38.33.6.38 1.88.47 3.75.91 5.63 1.33s3.63.74 5.44 1.18c1.62.39 3.22.91 4.84 1.3 1.1.26 2.23.39 3.33.64l5.77 1.35c.92.2 1.84.4 2.77.53a6.2 6.2 0 013 1.2c.14.11 0 .34 0 .51s-.12.12-.16.18c-.38.65-.71.65-1.86.23a21.59 21.59 0 00-3.55-1c-2.59-.48-5.21-.83-7.82-1.26-1.3-.22-2.58-.56-3.89-.78-2-.33-3.92-.58-5.88-.9-1.43-.23-2.84-.57-4.27-.78A21.84 21.84 0 003.81 76c-.12 0-.22-.13-.34-.17a2.2 2.2 0 00-.61-.16c-.23 0-2.86.41-2.36-1.86zm16.37 56.26a1.43 1.43 0 01-.55-1.94c.41-.4.89-.45 1.08-.62.76-.73 3-2.84 3.76-3.54 1.31-1.17 2.66-2.31 3.95-3.5.4-.37 1.62-1.62 2-2l1.87-1.7 3.21-2.9c1-.9 3.32-3.25 4.32-4.11.64-.57 1.39-1.45 3.26-3.17a7.84 7.84 0 011.78-1.36 4.23 4.23 0 011.51-.73c.23 0 .47.54.36.91a6.38 6.38 0 01-1 1.4s-.11.14-.15.15c-1.23.14-2 1.21-2.9 2.13l-5.25 5.47-3.9 4.29-2.9 3.15-3.45 3.89c-.68.75-2.79 2.9-3.47 3.64a6.25 6.25 0 00-.86 1.13c-.28.47-1.74.39-2.67-.59zm-2.56-58.75c-1.6-.28-3.2-.49-4.78-.8-1.07-.2-2.1-.58-3.15-.86-.61-.16-1.25-.21-1.84-.41-.92-.31-.71-1.27-.29-1.83s.49-1.69 1.48-1.31c.74.29 1.49.57 2.26.81s1.29.28 1.92.47c1.2.38 2.39.83 3.6 1.19 1.37.4 2.76.71 4.12 1.15 1.76.56 3.51 1.17 5.25 1.81l4.7 1.83c1.94.72 5.84 2 7.76 2.71a2.82 2.82 0 011.2 1c.13.19-.22.52-.5.63a5.53 5.53 0 01-1.48.17c-.06 0-.23-.41-.45-.55a4.49 4.49 0 00-1.11-.45c-1.59-.51-5.13-1.49-6.72-2-1.31-.43-2.59-1-3.92-1.34-2.13-.6-2.51-.74-4.66-1.29l-2.39-.57s-1.01-.31-1-.36zm1 48.94l3.13-2.39c2.23-1.69 4.43-3.41 6.7-5 1.54-1.11 3.18-2.07 4.73-3.16.83-.57 1.62-1.22 2.44-1.82 1-.75 3.86-3.09 4.9-3.79a19.38 19.38 0 012.58-1.55.84.84 0 011 .37 2.31 2.31 0 01-.79 1.19c-1.74.52-4.73 3.73-6.21 4.73a38.43 38.43 0 00-3.14 2.77c-1.58 1.3-3.27 2.46-4.83 3.78s-2.71 2.62-4.08 3.92c-.39.38-1 .57-1.37.94-1.34 1.23-2.63 2.51-3.94 3.76a8.3 8.3 0 01-1.5 1.15c-.08 0-.71-.51-.82-.83a3 3 0 011.2-4.07zM41.5 69.62c0 .48-.33 1-.51.89a5.25 5.25 0 01-2-1.16 9.18 9.18 0 00-.72-.82c-1.74-1.51-6-3.74-8-5-1.71-1.08-7-4.35-8.77-5.38-1.19-.7-2.53-1.16-3.74-1.84-1.57-.88-3.07-1.9-4.61-2.85-.93-.58-1.91-1.09-2.8-1.72a2.66 2.66 0 01-.65-1.14c-.07-.16.06-.43 0-.6-.42-1.06.6-1.23 1-1.36a2.19 2.19 0 012.64 1.14 8.3 8.3 0 002.07 1.53c1.8 1.3 3.58 2.64 5.42 3.88 1 .69 2.15 1.2 3.18 1.87l6.69 4.49L38.81 67c.85.59 1.64 1.27 2.44 1.91a.83.83 0 01.25.71zm-4.29 1.88c-1.39-.76-.64-.51-1.73-1.07-1.46-.76-4.77-2.34-6.27-3s-6.48-3.19-7.93-3.91-4.83-1.85-6.41-2.6c-1.12-.54-2.19-1.2-3.29-1.8-.85-.48-1.73-.91-2.57-1.42a5.54 5.54 0 01-.9-.91c-.17-.84-.23-1.67.85-2.08.68-.25 1.26-.56 1.88.11a11.12 11.12 0 002 1.33c.93.62 1.82 1.28 2.76 1.87 2.95 1.81 11.28 5.86 14.25 7.65 1.23.72 4.29 2.3 5.55 3 .69.38 1.37.78 2.08 1.15a3.13 3.13 0 011.22.92c.18.25-.07.74-.38.88a2.69 2.69 0 01-1.11-.12zM13.48 45.4c.42-.3 1-.49 1.15-.84.34-.73.69-.37 1.13-.43.82-.11.86.47 1.25.87 1.08 1.12 4.18 3.08 5.33 4.18a14.75 14.75 0 001.66 1.6 40.2 40.2 0 013.74 2.73c1.38 1.24 6.19 4.64 7.59 5.86s4.49 3.42 5.3 4.93c.18.33.26.94.17 1a4.9 4.9 0 01-1.48-.15c-.1 0-.21-.39-.37-.58a9.83 9.83 0 00-1.21-1.29c-1.25-1-4.18-3.05-5.48-4s-6.1-4-7.48-5c-1.1-.74-2.17-1.52-3.28-2.24-1.48-1-4.68-3-6.11-4a11.59 11.59 0 01-2-2.2c-.04-.03.06-.27.09-.44zm62.16 106.92c.14-1.71.25-3.13.37-4.56 0-.54.13-1.08.2-1.63l.35-2.57.33-2.49c.16-1.36.29-2.73.49-4.09.17-1.09.46-2.16.62-3.25s.26-2.45.43-3.67c.12-.87.36-1.73.48-2.6s.07-1.83.24-2.71.51-1.89.76-2.83c.29-1.09.49-2.24.88-3.27a4.65 4.65 0 011.15-1.46 1 1 0 01.83.09 3.74 3.74 0 01.52.7 5.31 5.31 0 01.09.74c0 .65-.61.64-.87 1.08a3.34 3.34 0 00-.42 1.13c-.2 1.14-.34 2.3-.52 3.45l-.91 5.62c-.24 1.51-.54 3-.73 4.52s-.25 3.32-.43 5c-.23 2-.56 4.05-.79 6.08-.19 1.74-.31 3.49-.41 5.24-.07 1.24 0 2.49-.13 3.73a1.2 1.2 0 01-.74.87c-1.24.15-1.81-.58-1.79-2zm.8-28.58c-.25 1.47-.53 2.94-.75 4.42-.27 1.8-.52 3.59-.72 5.39s-.26 3.6-.49 5.39c-.3 2.28-.79 4.54-1 6.81-.22 2-.21 4.06-.31 6.09 0 .25-.19.48-.22.73a2.44 2.44 0 000 .76c.06.25.25.48.24.72a3.22 3.22 0 01-.19.95.3.3 0 01-.25.12c-.91-.11-2 .28-2.65-.68a2.7 2.7 0 01-.29-1.61c.21-1.92.51-3.83.8-5.74.09-.53.34-1 .42-1.56l1.05-7.53c.13-.84.42-1.65.54-2.49a37.31 37.31 0 00.49-4.46 27.65 27.65 0 01.71-4.37c.25-1.4.49-2.79.8-4.18.15-.68.44-1.33.64-2 .12-.42.17-.86.28-1.29 0-.08.15-.12.2-.19.5-.76.7-.82 1.19-.8a5.56 5.56 0 011 1.73c0 .32-.12.82-.29.93-1.04.64-.78 1.87-1.2 2.86zm12.77-5.66c.77 0 1.15 1 .9 2a23.73 23.73 0 00-.34 2.57c-.12.82-.38 1.62-.45 2.44-.14 1.7-.21 3.4-.28 5.11l-.26 7.63c-.06 1.61-.09 3.22-.17 4.82-.07 1.37-.26 2.72-.29 4.08s0 4.56 0 6a19.67 19.67 0 01-.47 3.84c-.07.31-1 .62-1.46.54a1.47 1.47 0 01-.84-1.15c0-1.91.26-5.55.38-7.47.07-1 .24-2.05.3-3.08 0-.62-.08-1.24-.1-1.87v-1.2l.38-6.17.29-4.55.62-7.45c.12-1.34.3-2.67.39-4 .08-1.08.75-2.17 1.4-2.09zm-15.97-1.79a11.6 11.6 0 01.43 1.56c0 .48.49 1.17-.44 1.45-.19.06-.36.89-.46 1.38l-1 5.41-1.29 6.5c-.41 2.15-.8 4.31-1.14 6.47s-.58 4.09-.89 6.14c-.16 1.05-.38 2.1-.59 3.14l-.54 2.54c-.16.69-.28 1.4-.5 2.08s-.62.79-1.19.34a3.9 3.9 0 00-.44-.19c-1.09-.34-1.13-1-1.11-1.15.12-.65.6-.72.66-1 .42-1.84.8-3.7 1.17-5.55l.63-3.54.8-3.68.78-4.1.5-2.33c.17-.92.29-1.85.49-2.77l1.37-6c.34-1.6.64-3.22 1-4.82.06-.29 0-.75.15-.85.28-.86.77-1.32 1.61-1.03zm-6.9 1.05c-.46.91-.81 1.53-1.09 2.19-.21.49-.27 1-.47 1.56-.5 1.25-1.09 2.46-1.55 3.72a20.22 20.22 0 00-.39 2.06c-.31 1.22-.72 2.42-1 3.63-.86 3.37-1.75 6.83-2.62 10.23-.51 1.9-1.08 3.79-1.61 5.69-.17.6-.23 1.22-.43 1.8s-.39 1.54-.87 1.75c-.85.39-1.59-.19-2.27-1-.87-1-.19-1.28.47-1.71.08-.05.17-.16.16-.22-.26-1 .59-1.74.7-2.69a20.58 20.58 0 011-3.46l.81-2.53a12.42 12.42 0 00.7-2.52 25.23 25.23 0 011.27-4c.51-1.67 1-3.36 1.54-5 .8-2.39 1.7-4.75 2.44-7.16a5.29 5.29 0 012.57-3.5c.11 0 .33-.07.36 0 .1.4.21.89.28 1.16zm19.81 2.25c.45.06.44.41.2 1.52s-.92 2.12-1 3.35c0 .43-.11.85-.14 1.28-.11 1.32-.17 2.67-.31 4-.11 1-.12 1.94-.23 2.9-.08.69-.32 1.37-.39 2.06-.24 2.48-.5 4.95-.64 7.43-.11 2.2 0 4.42-.1 6.61-.12 2-.51 3.89-.77 5.83 0 .18.09.36-.18.62a.94.94 0 01-.92.34c-1-.16-1.34-1-1.19-2.42.2-1.85.31-3.7.49-5.56.07-.83.24-1.65.3-2.48l.7-9.2c.12-1.49.27-3 .43-4.45.11-1.17.22-2.2.33-3.37a20.54 20.54 0 01.35-2.2c.22-1.09.44-2.19.72-3.26a6.76 6.76 0 01.58-1.09c.18-.39.29-.81.48-1.19a1.93 1.93 0 01.44-.54 1 1 0 01.32-.17c.22-.09.44.01.53-.01zm-20.67 15.15c-.44 1.83-.54 2-.91 3.9-.26 1.3-.27 2.64-.47 4-.13.88-.46 1.74-.63 2.62a8.74 8.74 0 00-.23 2.38 4.2 4.2 0 01-2 3.72.6.6 0 01-.49 0 2.33 2.33 0 01-.68-2.89 9.27 9.27 0 00.33-2.44v-.34c.51-2 1-4.09 1.56-6.12.24-.87.66-1.68.91-2.55s.49-2 .74-3l.85-3.34c.16-.67.29-1.36.47-2 .48-1.72 1-3.44 1.49-5.14a50.3 50.3 0 001.63-5.1c.23-1.11.82-1 1.23-1.27.65-.45 1 .25 1 .87a3.3 3.3 0 01-.38 1.5c-.23.54-.66 1-.85 1.54-.42 1.27-.77 2.57-1.11 3.87-.25 1-.42 1.94-.65 2.91-.15.63-.34 1.24-.49 1.86l-.8 3.44a1.11 1.11 0 00-.08.24l-.17.55c-.06.2-.12.4-.16.55a1.15 1.15 0 01-.11.24zM54.36 111.2c.83.46.76.66-.06 2-1 1.73-1.93 3.53-2.88 5.3-.53 1-1.07 2-1.56 3l-2.59 5.5q-1.19 2.45-2.45 4.85c-1 1.89-2.06 3.74-3 5.64-.47.89-.74 1.89-1.19 2.79-.67 1.38-1.42 2.73-2.16 4.07a1.75 1.75 0 01-2.47.24c-.8-.85.5-2.76.91-3.52s.79-1.67 1.25-2.47c.69-1.2 1.43-2.36 2.14-3.53.36-.6.75-1.19 1.08-1.8.69-1.28 1.31-2.6 2.06-3.84 1-1.66 2.08-3.26 3.07-4.92a26.31 26.31 0 001.24-2.51c.56-1.22 1-2.49 1.66-3.68.44-.82 1.09-1.52 1.57-2.33.7-1.16 1.38-2.35 2-3.57.32-.72 1.02-1.42 1.38-1.22zm-5.44 37.33a1.49 1.49 0 01-1.25-2c0-.1.36-.33.45-.55.73-1.78 1.46-3.57 2.16-5.36s1.29-3.48 2-5.19c.64-1.54 1.39-3 2-4.58.43-1 .73-2.14 1.15-3.19l2.25-5.47c.35-.88.69-1.77 1-2.66a5.18 5.18 0 011.77-2.75c.15-.11.41.08.61.15s.12.15.19.2c.72.53.67.87 0 1.9a17.89 17.89 0 00-1.66 3.3c-.94 2.47-1.74 5-2.63 7.48-.45 1.24-1 2.44-1.46 3.68-.67 1.87-1.26 3.77-1.92 5.64-.48 1.36-1.05 2.69-1.52 4.06-.26.76-.37 1.58-.56 2.37 0 .11-.15.19-.21.3a3.33 3.33 0 00-.26.58c-.03.25-.24 2.88-2.11 2.09zm48.01 9.13s-1 .43-1.42-.95a7.34 7.34 0 01.25-1.21c0-1.05 0-4.11.09-5.16.07-1.76.19-3.51.24-5.27v-2.84c0-.28.06-1.56.1-2.52l.18-4.33c0-1.32 0-4.65.09-6 .06-.86-.07-2 0-4.54a5.84 5.84 0 01.35-2.23 3.54 3.54 0 01.74-1.61c.22-.19 1 .08 1.18.42a4.85 4.85 0 01.34 1.67v.22c-1 .94-.79 2.26-.78 3.53v7.58l.17 5.8v4.29l.17 5.21v5a7.4 7.4 0 00.13 1.41c.15.64-.76 1.52-1.83 1.53zm-47.93-23c-.48 1.54-.92 3.1-1.44 4.63-.35 1-.85 2-1.27 3-.23.58-.38 1.21-.65 1.77-.42.86-1.26.56-1.72.12s-1.48-.6-1-1.54c.36-.71.73-1.42 1-2.15s.43-1.25.7-1.85c.51-1.16 1.08-2.28 1.58-3.45s1-2.66 1.6-4q1.14-2.53 2.39-5c.75-1.5 1.58-3 2.35-4.46.94-1.85 2.61-5.58 3.59-7.4a2.56 2.56 0 011.25-1c.23-.1.61.29.71.62a4.92 4.92 0 01.06 1.55c0 .06-.49.14-.67.33a4 4 0 00-.62 1c-.71 1.5-2.15 4.88-2.87 6.38-.6 1.25-1.29 2.46-1.83 3.73-.87 2-1.06 2.39-1.87 4.46-.2.53-.66 1.75-.87 2.28-.04-.03-.42.99-.42.98zm41.19 17.54l.18-3.93c.14-2.79.23-5.59.44-8.37.13-1.9.45-3.78.64-5.67.11-1 .12-2 .19-3 .1-1.26.14-5 .31-6.19a13.44 13.44 0 01.62-3 1.23 1.23 0 011.25-.49 1.83 1.83 0 01.49 1.39c-1 1.64-.48 6-.78 7.77a34.38 34.38 0 000 4.19c-.1 2.05-.37 4.08-.43 6.12 0 1.88.12 3.77.16 5.65 0 .55-.2 1.1-.2 1.65 0 1.82.06 3.63.08 5.45a9.85 9.85 0 01-.13 1.88 1.34 1.34 0 01-1 .07 3.16 3.16 0 01-1.82-3.52zM49.5 107.29c.46.1 1 .39.89.57a5.08 5.08 0 01-1.3 1.91 9.41 9.41 0 00-.89.67c-1.64 1.64-4.14 5.78-5.52 7.68-1.19 1.64-4.81 6.72-6 8.39-.79 1.14-1.34 2.45-2.09 3.61-1 1.51-2.1 2.94-3.16 4.41-.64.89-1.21 1.84-1.9 2.68a2.55 2.55 0 01-1.17.55c-.17.06-.43-.09-.6 0-1.08.34-1.16-.7-1.27-1.13a2.16 2.16 0 011.3-2.56c.71-.42 1.11-1.3 1.66-2 1.43-1.71 2.88-3.4 4.24-5.15.75-1 1.34-2.07 2.07-3s4.15-5.36 4.93-6.38c1.56-2 4.39-5.69 5.94-7.7.65-.81 1.38-1.55 2.07-2.31a.83.83 0 01.8-.24zm1.74 4.49c-.88 1.33-.57.6-1.22 1.64-.87 1.4-2.69 4.57-3.46 6s-3.67 6.22-4.5 7.61-2.23 4.67-3.09 6.18c-.63 1.08-1.37 2.1-2 3.15-.54.82-1 1.66-1.61 2.45a5.26 5.26 0 01-1 .85c-.84.16-1.64.14-2-1-.19-.7-.44-1.3.26-1.87a11.75 11.75 0 001.47-1.92c.68-.87 1.4-1.72 2-2.61 2-2.82 6.65-10.85 8.64-13.68.81-1.17 2.6-4.11 3.37-5.32.42-.66.88-1.31 1.29-2a3 3 0 011-1.14c.27-.16.75.16.89.47s-.01.98-.04 1.19zm-27.81 21.8c-.28-.44-.45-1-.8-1.21-.73-.39-.34-.73-.37-1.18-.06-.85.53-.83 1-1.18 1.2-1 3.38-3.95 4.57-5a14.68 14.68 0 001.71-1.54 37.52 37.52 0 013-3.53c1.33-1.28 5.08-5.83 6.39-7.14s3.73-4.21 5.3-5c.33-.16 1-.24 1-.14a5.26 5.26 0 01-.28 1.48c0 .09-.4.17-.59.32a10.38 10.38 0 00-1.36 1.12c-1.07 1.17-3.34 4-4.34 5.19s-4.45 5.81-5.45 7.13c-.82 1-1.67 2.06-2.47 3.12-1.06 1.41-3.27 4.47-4.39 5.83a11.53 11.53 0 01-2.33 1.79c-.17.1-.4-.01-.59-.06zM152 147.67l-1.18-4.41c-.14-.53-.25-1.07-.36-1.6l-.54-2.55-.54-2.45c-.31-1.34-.65-2.67-.92-4-.22-1.08-.31-2.19-.52-3.27s-.59-2.39-.84-3.6c-.18-.86-.24-1.75-.43-2.61s-.55-1.74-.69-2.63-.14-2-.22-2.92c-.09-1.13-.3-2.28-.29-3.39a4.81 4.81 0 01.56-1.78.86.86 0 01.77-.18 4.43 4.43 0 01.71.48 7 7 0 01.33.68c.24.6-.34.79-.43 1.29a4 4 0 000 1.2c.21 1.14.47 2.28.69 3.42l1.07 5.6c.28 1.5.51 3 .85 4.5s.89 3.21 1.28 4.83c.48 2 .85 4 1.33 6 .41 1.7.89 3.39 1.39 5.06.36 1.2.84 2.35 1.16 3.56a1.18 1.18 0 01-.42 1.07c-1.15.58-1.94.12-2.4-1.27-.18-.44-.36-.87-.36-1.03zm-9.12-27.15c.28 1.47.54 3 .85 4.41.38 1.77.79 3.54 1.23 5.29s1 3.48 1.43 5.24c.52 2.23.85 4.52 1.41 6.74.49 2 1.2 3.89 1.8 5.83.07.24 0 .52.05.76a2.69 2.69 0 00.3.7c.13.21.38.38.45.6a3.91 3.91 0 01.12 1c0 .06-.11.17-.18.19-.83.18-1.65.93-2.51.25a2.76 2.76 0 01-.8-1.4c-.48-1.87-.89-3.75-1.3-5.64-.12-.52-.07-1.08-.19-1.6l-1.7-7.44c-.18-.83-.2-1.69-.39-2.52a36.61 36.61 0 00-1.16-4.32 26.24 26.24 0 01-.93-4.34c-.28-1.39-.56-2.78-.77-4.18-.11-.69-.06-1.41-.11-2.11 0-.44-.15-.87-.2-1.31 0-.08.11-.17.13-.25.23-.9.41-1 .94-1.22a5.67 5.67 0 011.69 1.25c.09.3.17.8 0 1-.81.94-.1 2-.16 3.07zm9.87-9.64c.7-.19 1.36.57 1.48 1.54s.44 1.68.63 2.53.24 1.64.47 2.43c.48 1.63 1 3.25 1.58 4.87l2.5 7.21c.53 1.52 1.08 3 1.58 4.57.42 1.29.74 2.63 1.2 3.91s1.65 4.23 2.12 5.57a18.65 18.65 0 01.94 3.76c0 .32-.75.94-1.24 1a1.52 1.52 0 01-1.24-.77c-.69-1.79-1.73-5.29-2.3-7.12-.3-1-.5-2-.81-3-.19-.59-.52-1.14-.76-1.72-.15-.37-.26-.76-.38-1.15l-1.82-5.89-1.34-4.37-2.07-7.18c-.36-1.3-.66-2.61-1-3.89-.29-.92-.12-2.12.46-2.3zm-15.99 3.97a8.64 8.64 0 011.08 1.28c.24.43.95.92.12 1.51-.18.13 0 1 .07 1.44l1.08 5.41 1.24 6.51q.63 3.23 1.36 6.43l1.45 6c.24 1 .43 2.09.62 3.14l.44 2.55c.12.7.27 1.41.32 2.11s-.25.94-.89.74a2.16 2.16 0 00-.43 0c-1 .09-1.33-.53-1.35-.65-.14-.65.24-.9.19-1.16q-.48-2.81-1-5.58l-.77-3.51-.68-3.7-.84-4.09-.45-2.35c-.19-.91-.44-1.82-.61-2.74l-1-6.06c-.29-1.61-.65-3.21-1-4.81-.06-.29-.29-.7-.2-.84-.06-.93.25-1.58 1.25-1.63zM130 118.7c0 1-.13 1.73-.11 2.44 0 .54.2 1.08.23 1.61.06 1.34 0 2.69.14 4 .06.68.4 1.35.53 2 .24 1.24.38 2.49.61 3.73.64 3.41 1.33 6.93 1.94 10.38.34 2 .61 3.9.93 5.84.1.61.3 1.21.37 1.83s.29 1.55 0 1.93c-.56.68-1.35.5-2.23.06-1.12-.57-.68-1.08-.32-1.75 0-.07.08-.22 0-.27-.63-.81-.23-1.82-.52-2.72a21 21 0 01-.62-3.54l-.37-2.63a12.37 12.37 0 00-.48-2.58 26.63 26.63 0 01-.62-4.19c-.27-1.72-.58-3.45-.81-5.18-.33-2.51-.54-5-.93-7.52a4.86 4.86 0 011-4.3c.09-.1.32-.21.37-.16.41.41.74.8.89 1.02zm20.58-5.4c.42-.09.53.25.71 1.36s-.1 2.32.29 3.48c.13.41.2.84.31 1.25.36 1.28.77 2.57 1.1 3.85.23.94.56 1.86.79 2.8.17.68.18 1.4.36 2.07.64 2.41 1.25 4.82 2 7.19.65 2.1 1.57 4.11 2.2 6.22.57 1.87.88 3.82 1.31 5.74 0 .17.21.3.05.65a1.05 1.05 0 01-.78.67c-1 .19-1.67-.52-2-1.87-.44-1.8-1-3.59-1.45-5.38-.21-.81-.34-1.64-.57-2.44l-2.52-8.89c-.39-1.43-.76-2.88-1.12-4.32-.3-1.14-.55-2.14-.85-3.28-.19-.72-.31-1.45-.43-2.18-.17-1.1-.34-2.2-.45-3.3a7.26 7.26 0 01.15-1.22v-1.27a2.37 2.37 0 01.21-.67 1.18 1.18 0 01.23-.27c.16-.15.39-.13.46-.19zm-14.02 21.6c.32 1.86.31 2.09.71 3.94.28 1.29.79 2.53 1.11 3.82.23.87.27 1.78.46 2.65a9.23 9.23 0 00.7 2.29 4.45 4.45 0 01-.27 4.18.51.51 0 01-.41.16 2.33 2.33 0 01-1.66-2.36 10.46 10.46 0 00-.67-2.36c0-.11-.13-.2-.14-.3-.37-2.07-.76-4.14-1.08-6.23-.14-.88-.09-1.8-.22-2.7s-.38-2.05-.57-3.08l-.59-3.4c-.12-.68-.29-1.35-.39-2-.26-1.76-.54-3.52-.74-5.29a49.26 49.26 0 00-.56-5.34c-.25-1.1.41-1.26.72-1.7.49-.69 1.12-.16 1.45.37a3 3 0 01.24 1.52c0 .6-.26 1.18-.22 1.76.11 1.34.3 2.67.5 4 .15 1 .39 2 .56 2.94.12.63.18 1.27.28 1.9l.62 3.63a1 1 0 000 .26c0 .15 0 .36.06.56s.05.41.07.57a1 1 0 01.04.21zm-22.26-15.67c1.15-.06 1.2.14 1.21 1.75 0 2 .2 4 .32 6 .06 1.11.12 2.23.24 3.34l.7 6c.19 1.8.35 3.61.48 5.42.15 2.13.23 4.26.4 6.39.08 1 .35 2 .45 3 .15 1.52.23 3.06.32 4.6a1.52 1.52 0 01-1.66 1.48c-1-.27-1-2.58-1-3.44s-.23-1.83-.29-2.75c-.08-1.38-.11-2.76-.16-4.13 0-.7 0-1.4-.09-2.1-.11-1.45-.31-2.89-.36-4.33-.08-1.94 0-3.88-.1-5.82a27.17 27.17 0 00-.3-2.83c-.2-1.33-.51-2.64-.64-4-.08-.93.11-1.88.09-2.82 0-1.36-.1-2.73-.27-4.07-.13-.68.15-1.67.66-1.69zm13.91 35.16c-.66.21-1.44.08-1.83-1.19 0-.1.14-.46.12-.69-.2-1.92-.4-3.84-.63-5.75s-.49-3.67-.67-5.52c-.17-1.66-.21-3.33-.37-5-.1-1.12-.35-2.23-.47-3.35l-.58-5.89c-.1-.94-.21-1.88-.4-2.8a4.59 4.59 0 01.37-3.26c.1-.17.46-.13.7-.15.09 0 .19.07.29.08 1 .11 1.11.46.94 1.68a15.26 15.26 0 000 3.7c.28 2.63.72 5.24 1 7.86.17 1.31.22 2.63.39 3.94l.85 5.9c.19 1.43.29 2.88.5 4.31.12.79.38 1.57.56 2.36a2.33 2.33 0 010 .36 2.69 2.69 0 000 .64c.02.22 1.02 2.65-.77 2.77zm46.49-9.71s-.8.79-1.78-.29a7.82 7.82 0 01-.22-1.22c-.39-1-1.54-3.81-1.9-4.8-.61-1.65-1.18-3.32-1.81-5-.2-.5-.91-2.1-1.12-2.6l-.89-2.37-1.5-4.06c-.48-1.23-1.8-4.29-2.23-5.53-.28-.81-.83-1.83-1.73-4.2a6.42 6.42 0 01-.55-2.18 3.64 3.64 0 010-1.74c.11-.25.84-.25 1.17 0a5.86 5.86 0 011 1.42c0 .06.09.16.07.2-.49 1.21.22 2.36.73 3.51.74 1.71 2.27 5.26 3 7l2.45 5.27 1.73 3.93 2.23 4.72 2 4.61a7.14 7.14 0 00.69 1.24c.3.41-.27 1.64-1.34 2.09zm-52.7-2.54c.33 1.58.71 3.15 1 4.74.19 1.07.24 2.16.37 3.24.08.63.24 1.24.28 1.87.07.95-.7 1.1-1.25.95s-1.41.17-1.47-.88c0-.8-.1-1.6-.2-2.39s-.24-1.3-.32-1.95c-.15-1.26-.23-2.52-.39-3.77-.19-1.42-.47-2.82-.63-4.24q-.31-2.76-.5-5.53c-.12-1.67-.14-3.35-.24-5-.11-2.07-.57-6.13-.62-8.2a2.4 2.4 0 01.68-1.52c.19-.2.8-.06 1.09.17a4 4 0 01.91 1.29c0 .06-.42.37-.49.64a3.23 3.23 0 00-.08 1.17c.1 1.66.52 5.31.62 7 .09 1.38.08 2.77.23 4.15.25 2.2.27 2.6.58 4.8.08.56.28 1.85.37 2.42-.03-.05.14 1.03.06 1.04zm44 .18l-1.28-3.73c-.89-2.64-1.83-5.28-2.66-7.94-.57-1.82-1-3.68-1.48-5.51-.28-1-.65-1.93-1-2.89-.37-1.21-1.69-4.66-2-5.87a14.9 14.9 0 01-.54-3 1.1 1.1 0 01.91-.87c.28 0 1 .87.95 1.12-.27 1.87 1.83 5.74 2.23 7.48a34.2 34.2 0 001.53 3.9c.68 1.93 1.18 3.92 1.9 5.83.65 1.76 1.52 3.45 2.27 5.18.21.51.22 1.1.43 1.6.68 1.69 1.43 3.34 2.13 5a8.9 8.9 0 01.58 1.79c0 .09-.6.45-.9.43a3.14 3.14 0 01-3.07-2.52zm-59.57-23.4c.57-.23 1.34-.3 1.38-.1a4.09 4.09 0 01.09 2.3 6.89 6.89 0 00-.4 1.07c-.43 2.3.13 7.11.16 9.46 0 2 .21 8.26.31 10.29.07 1.38.4 2.75.49 4.13.12 1.8.1 3.61.15 5.42 0 1.1.14 2.2.11 3.29a2.72 2.72 0 01-.5 1.15c-.08.15-.33.19-.41.33-.53.93-1.12.15-1.43-.13a2.44 2.44 0 01-.5-2.81 9.62 9.62 0 000-2.58c0-2.22.1-4.44.07-6.66 0-1.23-.24-2.45-.28-3.68s-.11-6.77-.11-8.06c0-2.54-.12-7.19-.09-9.72a26.49 26.49 0 01.3-3.09c.07-.27.33-.48.66-.61zm5.04 2.56c0 1.59-.18.81-.13 2 .06 1.64.36 5.29.55 6.92s.47 7.21.57 8.82.78 5.13.91 6.87c.08 1.24 0 2.49.08 3.74 0 1 .09 2 .08 2.93a6.78 6.78 0 01-.27 1.23c-.52.57-1.08 1-1.84.32-.48-.45-1-.8-.77-1.67a12.78 12.78 0 000-2.4c0-1.11.11-2.22.11-3.33 0-3.46-.91-12.68-.94-16.14 0-1.43-.28-4.86-.36-6.29 0-.79 0-1.59-.1-2.37a2.54 2.54 0 01.23-1.54c.16-.28.89-.34 1.25-.14s.53.86.63 1.05zm-8.67 34.31c-.41-.15-.84-.47-1.16-.39-.68.16-.62-.32-.9-.64-.51-.59-.13-1-.07-1.52.2-1.54-.13-5.2 0-6.77a17.56 17.56 0 00.22-2.3 39.78 39.78 0 01-.13-4.63c.13-1.85-.13-7.73 0-9.58s-.06-5.63.8-7.21c.18-.34.72-.82.81-.74a4.64 4.64 0 01.93 1.29c0 .09-.25.39-.31.63a8.1 8.1 0 00-.39 1.74c-.06 1.59 0 5.18.06 6.77s.41 7.31.49 9c.06 1.32.06 2.65.14 4 .1 1.76.37 5.53.38 7.29a13.8 13.8 0 01-.5 2.88c-.02.03-.23.09-.37.18zm117.26-55.08l-4.17-1.86c-.5-.23-1-.49-1.47-.74l-2.3-1.21-2.23-1.15c-1.22-.62-2.46-1.21-3.67-1.86-1-.53-1.88-1.17-2.85-1.7s-2.21-1.07-3.3-1.65c-.78-.42-1.51-.92-2.29-1.33s-1.68-.71-2.45-1.16-1.62-1.09-2.44-1.62-2-1.18-2.84-1.84a5.14 5.14 0 01-1.1-1.35c-.07-.1.1-.48.25-.53a4.18 4.18 0 01.75-.13c.05 0 .7.18.71.18.61.19.49.64.85 1a4.89 4.89 0 001 .68l3.11 1.56 5.07 2.59c1.35.71 2.68 1.46 4.05 2.12s3.08 1.29 4.59 2c1.86.86 3.66 1.82 5.52 2.67 1.59.74 3.22 1.39 4.86 2 1.17.45 2.38.75 3.53 1.23a1.17 1.17 0 01.52 1.09c-.38 1.42-1.3 1.84-2.68 1.34zm-26.48-10.86c1.28.79 2.55 1.59 3.84 2.35 1.56.92 3.13 1.82 4.73 2.67s3.25 1.59 4.84 2.46c2 1.1 3.92 2.4 5.95 3.46 1.8.95 3.73 1.65 5.61 2.46.23.09.37.36.59.48a2.25 2.25 0 00.74.2c.26 0 .57-.09.8 0a2.69 2.69 0 01.79.57c.05 0 0 .22 0 .3-.54.92-.68 2.26-1.85 2.58a2.28 2.28 0 01-1.63-.28c-1.69-.91-3.34-1.92-5-2.93-.46-.28-.82-.72-1.28-1-2.18-1.31-4.38-2.58-6.54-3.92-.72-.44-1.36-1-2.08-1.46a38.55 38.55 0 00-3.91-2.19 30.49 30.49 0 01-3.75-2.37c-1.19-.78-2.38-1.55-3.53-2.37-.58-.4-1.07-.9-1.62-1.34-.35-.27-.73-.49-1.09-.75-.07 0-.07-.17-.12-.24-.56-.7-.56-.88-.42-1.26a5.7 5.7 0 011.87-.09c.29.14.72.41.77.59.31 1.07 1.51 1.37 2.29 2.08zm-2.66-11.16c.09-.47 1.09-.51 2-.16s1.66.49 2.49.76 1.53.6 2.33.83c1.64.46 3.3.87 5 1.27l7.43 1.72c1.57.36 3.15.7 4.71 1.08 1.33.32 2.62.77 4 1.06s4.49.8 5.87 1.1a15.27 15.27 0 013.67 1.24c.28.14.37 1.36.16 1.93a1.56 1.56 0 01-1.37.81c-1.88-.39-5.37-1.46-7.21-2-1-.29-1.94-.7-2.93-1-.6-.17-1.25-.18-1.86-.3a12 12 0 01-1.17-.33L208 85l-4.36-1.33-7.12-2.28c-1.28-.41-2.54-.87-3.82-1.26-.97-.35-1.84-1.05-1.78-1.44zm-5.04 10.61a10.79 10.79 0 011.53.34c.44.17 1.21.13 1.15 1 0 .18.68.67 1.09 1l4.51 3.15 5.4 3.84c1.8 1.26 3.61 2.49 5.45 3.68s3.51 2.19 5.26 3.3c.9.57 1.77 1.19 2.64 1.8.71.5 1.4 1 2.09 1.53a18.26 18.26 0 011.7 1.31c.44.41.42.93-.25 1.34a3.23 3.23 0 00-.37.37c-.83 1-1.5.71-1.59.65-.55-.38-.38-.89-.59-1.05-1.5-1.16-3-2.28-4.56-3.39L206.4 106l-3-2.27-3.4-2.4-1.9-1.43c-.76-.55-1.56-1.06-2.3-1.62l-4.86-3.77c-1.3-1-2.64-2-4-2.92-.24-.17-.66-.35-.7-.49-.63-.69-.84-1.26-.36-1.8zm-1.53 6.02c.61.81 1 1.4 1.48 2s.81.72 1.17 1.12c.89 1 1.71 2.08 2.62 3.07a20.85 20.85 0 001.65 1.29c.94.84 1.82 1.74 2.76 2.58l7.9 7c1.46 1.32 2.88 2.69 4.33 4 .45.42 1 .75 1.41 1.2s1.19 1 1.15 1.58c-.08 1-.95 1.4-2 1.65-1.37.33-1.25-.41-1.31-1.2 0-.09-.06-.23-.12-.25-1-.22-1.26-1.33-2.06-1.86a19.63 19.63 0 01-2.6-2.48l-1.87-1.89a12.43 12.43 0 00-1.91-1.79 24.92 24.92 0 01-3-3c-1.24-1.23-2.52-2.43-3.73-3.7-1.75-1.81-3.42-3.71-5.21-5.48a5.53 5.53 0 01-2-3.82c0-.13.07-.32.13-.3.48.07.94.21 1.21.28zM192 81.08c.12-.29.46-.19 1.49.27A29.91 29.91 0 00196.5 83c.41.13.8.31 1.2.46 1.25.45 2.54.86 3.78 1.34.9.35 1.83.62 2.73 1 .65.26 1.25.66 1.91.91 2.32.88 4.64 1.79 7 2.56 2.09.68 4.27 1.07 6.36 1.75 1.86.61 3.62 1.51 5.43 2.29.16.07.38 0 .55.36a1.24 1.24 0 010 1.18c-.53 1.13-1.51 1.27-2.78.73-1.71-.73-3.46-1.36-5.19-2-.77-.32-1.51-.72-2.29-1l-8.61-3.32c-1.38-.55-2.76-1.13-4.13-1.71l-3.13-1.3c-.68-.28-1.35-.62-2-1-1-.51-2-1-2.94-1.55a7.51 7.51 0 01-.92-.77c-.33-.24-.72-.46-1-.7a2.12 2.12 0 01-.43-.48.59.59 0 01-.12-.27c-.08-.2.08-.33.08-.4zm7.44 22.92c1.45 1.2 1.61 1.38 3.11 2.51 1.06.8 2.27 1.39 3.37 2.13.74.5 1.36 1.17 2.08 1.7a8.17 8.17 0 002.06 1.22 3.93 3.93 0 012.44 3.44.74.74 0 01-.26.47 2.26 2.26 0 01-3-.58 9.32 9.32 0 00-2-1.38c-.09-.06-.23-.06-.31-.13-1.61-1.36-3.22-2.72-4.79-4.12-.67-.61-1.2-1.35-1.86-2s-1.61-1.34-2.41-2l-2.61-2.26c-.53-.45-1.09-.87-1.6-1.33-1.32-1.2-2.65-2.39-3.94-3.62a51.73 51.73 0 00-3.85-3.71c-.9-.71-.53-1.12-.66-1.61-.18-.73.56-.65 1.13-.44a3.91 3.91 0 011.19 1c.4.44.64 1 1.06 1.39 1 .93 2 1.81 3 2.67.75.65 1.56 1.24 2.33 1.86.5.4 1 .84 1.46 1.25l2.84 2.35.19.18.42.39.42.38c.12.12.2.24.19.24zm-25.91-1.28c.84-.52 1-.36 1.81 1 1 1.72 2.18 3.38 3.29 5.06.61.93 1.22 1.87 1.87 2.77l3.59 4.88c1.07 1.47 2.1 3 3.12 4.47 1.19 1.77 2.31 3.59 3.51 5.35.57.84 1.31 1.55 1.9 2.38.89 1.25 1.72 2.54 2.56 3.83a1.71 1.71 0 01-.93 2.24c-1.08.31-2.16-1.73-2.64-2.46s-1.1-1.48-1.59-2.26c-.73-1.17-1.41-2.37-2.11-3.56-.36-.6-.7-1.21-1.09-1.8-.79-1.21-1.66-2.37-2.41-3.61-1-1.66-1.9-3.39-2.9-5-.49-.81-1.06-1.57-1.63-2.33-.82-1.07-1.71-2.07-2.47-3.18-.52-.78-.83-1.69-1.31-2.5-.7-1.17-1.42-2.33-2.21-3.43-.45-.65-.73-1.63-.36-1.85zm30.34 22.49a1.52 1.52 0 01-2.36.2c-.08-.06-.12-.48-.27-.66q-1.81-2.25-3.68-4.45c-1.2-1.42-2.45-2.79-3.62-4.23-1.05-1.29-2-2.67-3.07-4-.71-.87-1.53-1.66-2.25-2.52l-3.76-4.55c-.6-.73-1.22-1.44-1.89-2.11a5.32 5.32 0 01-1.59-2.85c0-.17.26-.31.42-.44s.18 0 .26-.07c.78-.38 1-.15 1.65.91a19 19 0 002.14 3c1.73 2 3.58 3.89 5.35 5.84.89 1 1.68 2 2.57 3 1.33 1.48 2.72 2.89 4.06 4.36 1 1.06 1.88 2.2 2.86 3.25.55.59 1.22 1.07 1.83 1.61.09.08.1.23.17.33a2.16 2.16 0 00.39.5c.16.21 2.42 1.59.79 2.88zm27.07-49.5a2.69 2.69 0 010 .75 1.5 1.5 0 01-1 1.13c-.58 0-.94-.38-1.19-.4-1.05-.07-4.1-.28-5.14-.38-1.76-.18-3.5-.41-5.26-.56-.54 0-2.28-.09-2.83-.12l-2.51-.23-4.31-.41c-1.32-.1-4.65-.24-5.95-.39-.86-.09-2 0-4.54-.26a8.92 8.92 0 01-2.2-.35 5.31 5.31 0 01-1.57-.53c-.16-.15.06-.57.41-.71a7.59 7.59 0 011.66-.22.53.53 0 01.22 0c1 .65 2.29.55 3.55.54l7.58.06c1.93 0 3.86-.09 5.79-.13h4.3c1.74 0 3.47-.14 5.21-.19h5a5.55 5.55 0 001.41-.17c.29-.08.65.19.95.68a3.28 3.28 0 01.42 1.89zm-39.3 42.92c1.13 1.16 2.29 2.29 3.39 3.48.74.8 1.35 1.7 2 2.55.4.49.87.91 1.24 1.42.55.77-.11 1.36-.72 1.56s-1.24 1-1.83.13c-.45-.66-.9-1.33-1.39-2s-.89-1-1.3-1.49c-.77-1-1.49-2-2.27-3s-1.86-2.17-2.72-3.31c-1.13-1.47-2.21-3-3.27-4.49s-1.85-2.8-2.8-4.19c-1.18-1.71-3.66-5-4.79-6.69a2.6 2.6 0 01-.31-1.59c0-.24.55-.38.89-.31a4.74 4.74 0 011.39.69c.06 0-.11.49 0 .74a3.78 3.78 0 00.57 1c1 1.35 3.27 4.22 4.25 5.57.81 1.12 1.53 2.3 2.39 3.39 1.38 1.73 1.6 2.07 3 3.77l1.6 1.85s.72.89.68.92zM224.63 84l-3.86-.78c-2.73-.57-5.48-1.1-8.2-1.74-1.85-.43-3.67-1-5.52-1.49-1-.25-2-.41-3-.63-1.23-.27-4.87-.87-6.08-1.19a20.47 20.47 0 01-2.87-.89c-.34-.14-.56-.68-.39-.89a2.37 2.37 0 011.42-.17c1.55.89 5.93 1 7.66 1.45a37.23 37.23 0 004.16.51c2 .31 4 .81 6 1.1 1.86.27 3.76.28 5.64.43.55 0 1.07.35 1.61.41 1.81.18 3.63.29 5.44.44a7.21 7.21 0 011.85.35 2.1 2.1 0 01-.09 1.23c-.93 1.78-2.09 2.24-3.77 1.86zm-57.3 21.52c.34-.43.93-.74 1-.59a4.63 4.63 0 011.11 2 6.78 6.78 0 00.16 1.1c.68 2.21 3.28 6.3 4.36 8.39.92 1.8 3.84 7.31 4.82 9.08.67 1.21 1.58 2.29 2.28 3.49.91 1.57 1.69 3.2 2.53 4.79.51 1 1.09 1.91 1.55 2.91a2.72 2.72 0 010 1.27c0 .17-.24.33-.26.5-.13 1.1-1 .69-1.46.58-1.13-.26-1.56-1.11-1.7-2.3a8.61 8.61 0 00-1.06-2.35c-.92-2-1.81-4.07-2.79-6.06-.55-1.1-1.27-2.1-1.83-3.19l-3.58-7.23c-1.1-2.29-3.22-6.43-4.3-8.73-.44-.93-.76-1.92-1.12-2.89a.85.85 0 01.29-.77zm5.14.31c.75 1.4.24.79.86 1.85.83 1.42 2.8 4.5 3.73 5.86s3.79 6.14 4.64 7.52 3.1 4.16 4 5.63c.66 1.06 1.22 2.18 1.82 3.27.48.85 1 1.68 1.44 2.56a5.4 5.4 0 01.3 1.23c-.24.77-.57 1.48-1.64 1.24-.67-.16-1.3-.22-1.5-1.1a12 12 0 00-1-2.17c-.48-1-.9-2-1.41-3-1.58-3.08-6.59-10.88-8.2-13.94-.67-1.26-2.46-4.2-3.18-5.44-.4-.68-.77-1.39-1.18-2.06a2.79 2.79 0 01-.53-1.45c0-.32.53-.66.9-.63s.77.51.95.63zm7.32 34.58c-.48 0-1-.07-1.32.15-.6.46-.74 0-1.14-.18-.73-.3-.52-.82-.68-1.36-.44-1.49-2.23-4.69-2.73-6.2a15.58 15.58 0 00-.72-2.19 38.13 38.13 0 01-2-4.18c-.63-1.74-3.26-7-3.92-8.75s-2.34-5.13-2.27-6.89c0-.38.27-1 .37-1a4.88 4.88 0 011.32.84c.08.06 0 .45 0 .68a9 9 0 00.4 1.72c.6 1.47 2.18 4.7 2.87 6.13s3.41 6.48 4.17 8c.61 1.18 1.17 2.38 1.79 3.55.83 1.56 2.66 4.86 3.41 6.46a12.56 12.56 0 01.7 2.84c.03.09-.15.23-.25.38zm9.58-118.74l-1.89 4.15c-.23.5-.49 1-.74 1.47l-1.21 2.3-1.15 2.23c-.62 1.23-1.2 2.47-1.85 3.68-.53 1-1.17 1.88-1.69 2.85s-1.07 2.21-1.65 3.3c-.41.78-.93 1.51-1.34 2.29s-.68 1.68-1.14 2.46-1.13 1.6-1.71 2.41-1.22 1.94-2 2.79a4.7 4.7 0 01-1.6 1c-.13.07-.66-.18-.75-.38a4.87 4.87 0 01-.26-.84 4.58 4.58 0 01.18-.73c.2-.62.79-.38 1.18-.7a3.32 3.32 0 00.78-.92c.58-1 1.11-2 1.67-3.06L177 41c.75-1.33 1.54-2.64 2.23-4s1.37-3 2.11-4.53c.91-1.83 1.91-3.62 2.82-5.45.77-1.57 1.48-3.18 2.17-4.78.5-1.15.87-2.34 1.4-3.47a1.2 1.2 0 011-.56c1.21.27 1.5 1.12 1 2.49zM178.94 48.3c.74-1.3 1.49-2.59 2.2-3.91q1.29-2.4 2.49-4.84c.79-1.63 1.47-3.31 2.29-4.92 1.05-2.05 2.27-4 3.28-6.07.9-1.82 1.58-3.76 2.37-5.64.09-.23.34-.39.45-.61a2.56 2.56 0 00.21-.73c0-.26-.06-.54 0-.77a3.47 3.47 0 01.54-.81.27.27 0 01.26 0c.79.44 1.95.45 2.19 1.55a2.66 2.66 0 01-.28 1.6c-.85 1.74-1.76 3.44-2.68 5.14-.25.47-.65.86-.91 1.34l-3.55 6.75c-.4.75-1 1.42-1.34 2.16a37.54 37.54 0 00-1.94 4 27.61 27.61 0 01-2.13 3.89c-.7 1.23-1.39 2.47-2.14 3.67-.37.59-.87 1.11-1.28 1.68-.26.35-.46.75-.7 1.12 0 .07-.19.06-.25.11-.74.54-1 .52-1.43.33a5.65 5.65 0 01-.39-2c.12-.29.39-.72.59-.76 1.21-.23 1.43-1.5 2.15-2.28zm-13.94.93c-.71-.29-.73-1.33-.17-2.14a23.89 23.89 0 001.17-2.31c.4-.73.91-1.39 1.26-2.14.71-1.55 1.36-3.13 2-4.7l2.85-7.08c.6-1.5 1.18-3 1.81-4.48.53-1.26 1.16-2.47 1.66-3.73s1.55-4.29 2.07-5.6a19.65 19.65 0 011.76-3.45c.17-.26 1.15-.25 1.56 0a1.42 1.42 0 01.41 1.35c-.65 1.8-2.14 5.14-2.91 6.89-.41.95-.93 1.85-1.33 2.8-.24.57-.35 1.19-.55 1.79-.13.37-.3.74-.46 1.11l-2.47 5.66-1.83 4.18-3.13 6.79c-.56 1.22-1.19 2.41-1.74 3.64-.43.9-1.41 1.67-1.96 1.42zm14.61 7.26a9.46 9.46 0 01.07-1.63c.1-.48-.09-1.28.89-1.22.21 0 .64-.71.9-1.14l2.74-4.78 3.36-5.72q1.63-2.85 3.2-5.74c1-1.82 1.9-3.68 2.87-5.51.5-.94 1.05-1.85 1.59-2.77l1.35-2.21c.38-.61.72-1.24 1.15-1.8s.83-.54 1.21.05l.34.3c.9.63.72 1.28.65 1.39-.32.58-.8.51-.94.74-1 1.61-2 3.24-2.91 4.87l-1.74 3.14-2 3.22-2.08 3.62-1.22 2c-.46.81-.87 1.65-1.36 2.45L184.49 51c-.84 1.4-1.64 2.83-2.45 4.25-.15.26-.26.7-.41.75-.63.76-1.28 1.07-2.02.49zm6.39.9c.71-.71 1.24-1.17 1.72-1.69s.65-.88 1-1.27c.9-1 1.87-1.91 2.76-2.91.46-.51.74-1.2 1.15-1.76l2.31-3c2-2.81 4.15-5.71 6.21-8.56 1.17-1.59 2.39-3.13 3.58-4.7.37-.5.65-1.07 1.05-1.54s.92-1.29 1.49-1.25c1 .06 1.61.92 2 2 .55 1.39-.25 1.29-1.08 1.39-.1 0-.24.08-.25.14-.09 1.09-1.23 1.37-1.68 2.21a18.66 18.66 0 01-2.25 2.8l-1.75 2a12.28 12.28 0 00-1.62 2 24.08 24.08 0 01-2.76 3.22c-1.13 1.33-2.23 2.69-3.39 4-1.68 1.89-3.43 3.72-5.06 5.64a6.7 6.7 0 01-3.43 2.53c-.11 0-.27 0-.26-.08.05-.45.17-.91.26-1.17zm-17.67-8.56c-.39-.24-.26-.55.34-1.51s1.59-1.66 2.05-2.8c.16-.4.39-.76.57-1.15.56-1.21 1.08-2.46 1.66-3.65.43-.87.78-1.78 1.21-2.64.31-.63.77-1.18 1.07-1.81 1.08-2.24 2.17-4.47 3.15-6.76.86-2 1.48-4.16 2.37-6.18.78-1.79 1.8-3.47 2.71-5.21.09-.15 0-.37.38-.52a1 1 0 011 0c.88.51.89 1.46.27 2.7-.82 1.66-1.56 3.37-2.35 5.05-.36.76-.8 1.47-1.14 2.23L177.79 35c-.62 1.36-1.27 2.7-1.92 4l-1.47 3.06a20.47 20.47 0 01-1.07 2c-.58.95-1.17 1.9-1.79 2.81a8 8 0 01-.92.82c-.3.3-.56.66-.86 1a2.14 2.14 0 01-.6.35 1.11 1.11 0 01-.36 0c-.2-.04-.38-.2-.47-.21zM193 41.54c1-1.59 1.18-1.76 2.13-3.39.67-1.15 1.11-2.43 1.71-3.62.41-.8 1-1.49 1.43-2.28a9 9 0 001-2.18c.32-1.19 1.7-2.85 3.16-2.8a.8.8 0 01.51.23 2.25 2.25 0 01-.17 3.05 8.38 8.38 0 00-1.12 2.19c0 .1 0 .24-.09.33-1.18 1.75-2.35 3.5-3.58 5.21-.52.73-1.21 1.35-1.74 2.07s-1.15 1.75-1.74 2.61l-2 2.85c-.39.57-.74 1.17-1.15 1.73-1 1.45-2.07 2.9-3.15 4.32a52.13 52.13 0 00-3.2 4.26c-.6 1-1 .72-1.45.88-.69.26-.57-.46-.52-1.09a3.26 3.26 0 01.84-1.29 13.35 13.35 0 001.27-1.21c.79-1.06 1.54-2.18 2.28-3.3.55-.83 1-1.7 1.56-2.54.34-.54.72-1.06 1.07-1.6l2-3.1.16-.2.33-.47.33-.46c.07-.12.13-.21.13-.2zm-1.73 23.82c-.25-.55-.08-.68 1.34-1.43 1.77-.92 3.52-1.93 5.28-2.89 1-.54 2-1.07 2.92-1.63l5.19-3.16q2.34-1.39 4.72-2.72l5.64-3c.89-.49 1.65-1.2 2.52-1.72 1.32-.78 2.68-1.48 4-2.19.73-.4 2.16.58 2.41 1.6.33 1.35-1.9 2.13-2.66 2.52s-1.61.92-2.45 1.3c-1.25.57-2.53 1.08-3.79 1.63-.64.27-1.3.53-1.92.84-1.3.64-2.56 1.37-3.89 1.95-1.77.79-3.6 1.48-5.36 2.28-.86.4-1.69.87-2.51 1.35-1.16.67-2.27 1.42-3.47 2-.83.42-1.76.66-2.62 1.06-1.23.57-2.47 1.17-3.65 1.82-.63.35-1.59.63-1.7.39zm23.15-29.49a1.73 1.73 0 01.48 2.59c-.05.09-.49.1-.67.25q-2.21 1.88-4.36 3.79c-1.38 1.24-2.72 2.52-4.13 3.73s-2.61 2.07-3.87 3.16c-.85.74-1.62 1.59-2.46 2.33l-4.41 3.9c-.71.62-1.4 1.27-2.06 1.94a6.58 6.58 0 01-2.71 1.79c-.17 0-.28-.17-.4-.28s0-.16 0-.22c-.32-.63-.09-.94.89-1.62a22.5 22.5 0 002.85-2.35c1.89-1.84 3.69-3.77 5.55-5.65.93-.94 1.95-1.79 2.89-2.72 1.4-1.4 2.74-2.87 4.13-4.28 1-1 2.11-2 3.12-3a23.19 23.19 0 001.47-1.92c.08-.1.24-.11.34-.18a2.43 2.43 0 00.49-.41c.05-.2 1.22-2.61 2.86-.85zm-43.36-26.5s1.08-.07 1.05 1.38a7.2 7.2 0 01-.64 1.05c-.37 1-1.43 3.86-1.82 4.83-.66 1.64-1.36 3.25-2 4.89-.2.51-.75 2.17-.93 2.68-.11.26-.58 1.46-.94 2.35l-1.62 4c-.48 1.23-1.56 4.38-2.08 5.59-.34.79-.61 1.91-1.55 4.27a6.18 6.18 0 01-1.07 2 3.68 3.68 0 01-1.22 1.28c-.27.11-.85-.39-.94-.78a5 5 0 01.23-1.69c0-.07.05-.19.09-.2 1.23-.56 1.47-1.88 1.89-3.08l2.5-7.15 1.77-5.53 1.4-4.06 1.57-5c.33-.95 1.33-3.8 1.67-4.74a7.32 7.32 0 00.34-1.38c.09-.55 1.24-1.08 2.3-.71zm37.41 39.3c1.18-1.13 2.28-2.28 3.47-3.38.8-.73 1.72-1.34 2.57-2 .49-.39.9-.88 1.42-1.23A.88.88 0 01217 42a2.12 2.12 0 01.65 1c.21.64 1.13 1.55.23 2.09-.69.42-1.37.84-2 1.3s-1 .86-1.53 1.24c-1 .73-2.11 1.39-3.14 2.14s-2.24 1.76-3.42 2.57c-1.52 1-3.07 2.06-4.64 3L198.81 58c-1.75 1.11-5.1 3.45-6.86 4.54a3.31 3.31 0 01-1.45.43c-.22 0-.21-.4-.12-.68a6 6 0 01.78-1.23s.44 0 .69-.08a5.52 5.52 0 001-.6c1.35-1 4.25-3.24 5.61-4.2 1.13-.8 2.3-1.52 3.4-2.36 1.76-1.35 2.1-1.57 3.82-3l1.88-1.57s.87-.62.91-.58zm-32.81-31.84l-1.51 3.64c-1.07 2.57-2.11 5.17-3.25 7.72-.78 1.73-1.71 3.39-2.54 5.1-.44.92-.79 1.87-1.21 2.79-.51 1.15-1.81 4.61-2.39 5.72a13.23 13.23 0 01-1.58 2.56 1.14 1.14 0 01-1.3 0 1.81 1.81 0 010-1.48c1.48-1.19 2.47-5.49 3.34-7a32.78 32.78 0 001.46-3.93c.78-1.89 1.73-3.7 2.47-5.61.69-1.75 1.17-3.58 1.77-5.37.18-.52.56-1 .75-1.48.61-1.71 1.16-3.45 1.76-5.16a8.91 8.91 0 01.76-1.73 1.35 1.35 0 01.91.28 3.21 3.21 0 01.56 3.95zM192 69.33c-.24-.24-.42-.56-.22-.65a7.69 7.69 0 012.21-.64h1.09c2.29-.31 6.89-1.75 9.18-2.32 2-.48 8-2 10-2.5 1.34-.35 2.58-1 3.91-1.4 1.73-.51 3.51-.86 5.27-1.29 1.07-.26 2.11-.61 3.2-.79a2.46 2.46 0 011.28.47c.16.08.27.41.43.5 1.07.59.45 1.54.26 2-.53 1.25-1.47 1.4-2.67 1.09a6.92 6.92 0 00-2.56.31c-2.21.28-4.42.54-6.61.92-1.21.22-2.38.65-3.58.88l-7.94 1.42c-2.51.42-7.06 1.33-9.56 1.79-1 .18-2 .29-3 .43a.75.75 0 01-.69-.22zm1.8-3.33c1.49-.56.8-.18 1.94-.63 1.53-.6 4.89-2 6.39-2.72s6.67-2.76 8.17-3.37 4.57-2.43 6.17-3.13c1.15-.49 2.35-.85 3.53-1.27.92-.32 1.83-.7 2.77-1a5.19 5.19 0 011.31 0c.8.51 1.54 1.11 1.11 2.33-.26.75-.42 1.47-1.34 1.42a9.4 9.4 0 00-2.35.54c-1.08.23-2.18.42-3.25.7-3.33.93-12 4.31-15.29 5.27-1.36.41-4.6 1.59-6 2.05-.75.26-1.51.49-2.25.76a4.31 4.31 0 01-1.48.33.44.44 0 01-.33-.6c.17-.27.74-.59.9-.68zm35.05 1.66a4.41 4.41 0 00-.25 1.63c.25.91-.28.85-.57 1.23-.58.7-1 .22-1.52.15-1.55-.19-5.19.36-6.77.24a14.65 14.65 0 00-2.3-.16 34.09 34.09 0 01-4.62.35c-1.85 0-7.72.48-9.57.48s-5.61.29-7.25-.12c-.35-.09-.84-.37-.77-.43a7.52 7.52 0 011.25-.71c.09 0 .41.11.64.12a11.34 11.34 0 001.75.07c1.58-.11 5.15-.53 6.72-.71s7.25-1.08 8.88-1.33c1.31-.19 2.63-.33 3.94-.54 1.75-.28 5.46-1 7.21-1.18a10 10 0 012.93.42c.11.02.19.3.3.49zM113.11 3.41c.12 1.71.21 3.13.31 4.56v4.24l.05 2.51c0 1.37.12 2.74.11 4.12 0 1.1-.13 2.2-.13 3.31s.11 2.46.12 3.69c0 .88-.1 1.76-.09 2.64s.2 1.81.17 2.71-.24 1.94-.35 2.91a33.37 33.37 0 01-.39 3.37 4.39 4.39 0 01-.94 1.6 1 1 0 01-.84 0 4 4 0 01-.62-.61 4.28 4.28 0 01-.19-.72c-.12-.63.51-.72.7-1.19a3.37 3.37 0 00.25-1.18v-3.49l.07-5.71c0-1.52.1-3.05.06-4.58s-.24-3.32-.3-5c-.07-2 0-4.09-.11-6.14-.07-1.75-.2-3.49-.36-5.23-.11-1.24-.35-2.47-.42-3.71a1.2 1.2 0 01.61-1c1.19-.32 1.85.31 2 1.76.18.52.27.97.29 1.14zm3.47 28.39c0-1.5.08-3 .08-4.5 0-1.81 0-3.62-.11-5.43s-.28-3.6-.32-5.4c0-2.3.1-4.6 0-6.9-.08-2-.39-4-.6-6.06 0-.25.12-.51.11-.76a2.72 2.72 0 00-.16-.74c-.09-.23-.31-.44-.34-.68a3.22 3.22 0 01.09-1 .28.28 0 01.22-.15c.9 0 1.93-.6 2.67.26a2.7 2.7 0 01.53 1.56c.08 1.93.08 3.86.08 5.79 0 .54-.17 1.07-.17 1.61l.08 7.63c0 .85-.17 1.7-.16 2.54a37 37 0 00.21 4.48 28.46 28.46 0 010 4.43c0 1.42-.06 2.84-.15 4.25 0 .7-.24 1.39-.33 2.09 0 .43 0 .88-.08 1.31 0 .09-.14.15-.17.22-.39.83-.58.91-1.09 1a5.37 5.37 0 01-1.31-1.55c0-.31 0-.82.16-.95.93-.85.49-2.01.76-3.05zm-11.86 7.45c-.77.07-1.28-.85-1.17-1.82a22.69 22.69 0 000-2.6c0-.82.14-1.65.09-2.47-.11-1.7-.29-3.4-.47-5.1l-.86-7.58c-.18-1.6-.38-3.2-.54-4.8-.13-1.36-.14-2.73-.31-4.08s-.67-4.51-.83-5.91a18.56 18.56 0 01-.1-3.87c0-.31.89-.75 1.36-.74a1.47 1.47 0 011 1c.29 1.9.55 5.54.71 7.45.09 1 .07 2.06.16 3.09.06.62.26 1.22.37 1.84a11.89 11.89 0 01.12 1.2l.53 6.15.37 4.55.48 7.46c.08 1.34.09 2.68.2 4 .04 1.04-.47 2.18-1.11 2.23zm16.28-.58a10.33 10.33 0 01-.71-1.47c-.13-.47-.68-1.09.22-1.5.19-.08.22-.93.24-1.43l.15-5.5.26-6.62q.09-3.28.11-6.57c0-2.07-.07-4.14-.09-6.21 0-1.07 0-2.13.09-3.2l.14-2.59c0-.71 0-1.43.17-2.13s.47-.86 1.09-.53a2.83 2.83 0 00.44.11c1.1.13 1.24.79 1.24.92 0 .66-.46.82-.48 1.09-.12 1.89-.2 3.78-.26 5.67v3.59l-.2 3.76-.11 4.17-.11 2.39v2.81l-.38 6.14c-.08 1.63-.1 3.27-.15 4.91 0 .29.1.74 0 .86-.29.91-.66 1.48-1.66 1.33zm7-2.19c.29-1 .54-1.63.7-2.33.12-.52.08-1.09.18-1.62.27-1.31.64-2.6.87-3.92.12-.68 0-1.41 0-2.11.08-1.25.27-2.5.36-3.76.24-3.47.5-7 .74-10.54.16-2 .39-3.93.57-5.89.06-.62 0-1.25.1-1.85s.11-1.58.53-1.86c.74-.51 1.5-.12 2.28.55 1 .85.39 1.22-.15 1.77-.06.06-.13.19-.11.25.43 1-.25 1.82-.19 2.77a21.85 21.85 0 01-.32 3.58l-.33 2.63a12.77 12.77 0 00-.21 2.61 25.86 25.86 0 01-.49 4.21c-.19 1.74-.33 3.49-.57 5.22-.33 2.5-.78 5-1.05 7.5a5 5 0 01-2 3.89c-.11.07-.34.12-.37.06-.21-.43-.41-.91-.54-1.16zm-20.49.84c-.45 0-.49-.35-.43-1.48s.61-2.23.48-3.45v-1.28c-.08-1.33-.22-2.68-.27-4 0-1-.16-1.93-.19-2.9 0-.7.11-1.4.08-2.1-.12-2.48-.22-5-.45-7.44-.2-2.19-.67-4.37-.85-6.56-.16-1.95-.06-3.92-.09-5.88 0-.17-.14-.35.09-.64a1 1 0 01.86-.47c1 0 1.47.84 1.52 2.22.07 1.86.23 3.71.33 5.57 0 .83 0 1.67.06 2.5l.65 9.21c.1 1.48.16 3 .22 4.46l.17 3.39a20.59 20.59 0 010 2.22c0 1.11-.12 2.23-.24 3.33a6.42 6.42 0 01-.41 1.16c-.12.41-.17.85-.3 1.25a2.16 2.16 0 01-.37.6.86.86 0 01-.29.21c-.25.11-.49.04-.57.08zm18.24-18.1c.13-1.88.19-2.11.24-4 0-1.33-.16-2.66-.18-4 0-.89.17-1.79.18-2.68a8.65 8.65 0 00-.15-2.39 4.26 4.26 0 011.3-4 .6.6 0 01.47-.06 2.32 2.32 0 011.1 2.71 10.2 10.2 0 00.08 2.46c0 .11.08.22.08.33-.15 2.1-.29 4.2-.48 6.29-.09.9-.36 1.78-.46 2.67-.12 1-.13 2.09-.2 3.13l-.26 3.45c0 .69 0 1.38-.12 2.07-.18 1.77-.35 3.55-.58 5.31a49.13 49.13 0 00-.75 5.31c0 1.14-.67 1.13-1 1.48-.6.55-1-.12-1.23-.72a3 3 0 01.13-1.53c.14-.58.5-1.08.59-1.66.21-1.32.34-2.65.46-4 .09-1 .09-2 .16-3 0-.64.12-1.28.17-1.92l.27-3.67a1.25 1.25 0 000-.25l.07-.57.07-.56a.92.92 0 01.04-.2zm16.67 21.01c-1-.3-1-.51-.58-2 .57-1.92 1-3.89 1.48-5.85.26-1.08.54-2.16.75-3.25l1.12-6c.35-1.78.74-3.55 1.15-5.32.48-2.08 1-4.14 1.51-6.22.23-1 .26-2 .46-3 .31-1.51.69-3 1.06-4.49a1.57 1.57 0 012.11-.88c.87.57.16 2.77 0 3.61s-.33 1.82-.55 2.71c-.34 1.34-.74 2.66-1.1 4-.19.67-.4 1.34-.56 2-.33 1.41-.57 2.85-1 4.25-.52 1.86-1.14 3.7-1.66 5.57a26.34 26.34 0 00-.57 2.78c-.22 1.33-.32 2.68-.6 4-.2.91-.67 1.76-.92 2.67a38.74 38.74 0 00-1 4c-.09.69-.64 1.55-1.1 1.42zm-3.3-37.7c.73 0 1.48.34 1.51 1.67 0 .1-.27.4-.31.63-.35 1.9-.68 3.79-1 5.69s-.54 3.67-.87 5.49c-.3 1.65-.72 3.26-1 4.91-.2 1.1-.27 2.24-.46 3.35l-1.06 5.82c-.16.93-.31 1.87-.38 2.81a4.75 4.75 0 01-1.22 3c-.13.14-.45 0-.68 0s-.16-.11-.25-.15c-.89-.34-.89-.72-.42-1.85a16 16 0 001-3.57c.43-2.6.72-5.23 1.1-7.85.19-1.31.5-2.6.69-3.91l.76-5.9c.2-1.43.49-2.85.68-4.28.1-.8.06-1.62.09-2.42 0-.12.1-.23.14-.35a2.65 2.65 0 00.14-.62c0-.22-.31-2.8 1.54-2.47zM91.18 1.25a1.91 1.91 0 01.55-.11c.31 0 .69.2 1 .85a7.17 7.17 0 01-.07 1.23c.15 1 .58 4.07.69 5.12.2 1.75.35 3.5.57 5.25.06.53.36 2.26.45 2.79 0 .28.18 1.56.29 2.51l.47 4.3c.16 1.31.7 4.6.81 5.91.08.86.38 2 .66 4.5a6 6 0 010 2.24 3.51 3.51 0 01-.49 1.7c-.19.22-.95.07-1.23-.23a4.94 4.94 0 01-.6-1.6v-.22c.85-1.08.44-2.36.24-3.61-.29-1.84-.89-5.66-1.17-7.49l-1-5.71-.68-4.24-1-5.12c-.15-1-.61-4-.77-5A7.12 7.12 0 0089.57 3c-.21-.57.57-1.58 1.61-1.75zm50.62 14.83c.13-1.61.21-3.22.38-4.83.12-1.08.39-2.14.56-3.21.11-.62.12-1.26.26-1.87.21-.93 1-.85 1.53-.54s1.46.22 1.21 1.25c-.18.78-.37 1.56-.51 2.35-.11.64-.13 1.31-.24 1.95-.23 1.25-.52 2.48-.72 3.73s-.37 2.83-.63 4.23c-.33 1.82-.71 3.63-1.12 5.44-.38 1.63-.84 3.25-1.24 4.89-.48 2-1.22 6-1.77 8a2.49 2.49 0 01-1 1.29c-.22.14-.74-.16-.94-.47a4.26 4.26 0 01-.47-1.5c0-.06.48-.23.63-.46a3.89 3.89 0 00.4-1.1c.37-1.63 1-5.24 1.37-6.87.31-1.35.71-2.68 1-4 .38-2.18.48-2.57.81-4.76.08-.57.25-1.86.33-2.43-.04 0 .11-1.09.16-1.09zM98.74 5.65l.4 3.91c.28 2.78.6 5.56.81 8.35.14 1.89.1 3.8.19 5.7 0 1 .19 2 .26 3 .1 1.26.6 4.91.62 6.17a13.5 13.5 0 01-.17 3 1.17 1.17 0 01-1.15.65 1.78 1.78 0 01-.7-1.26c.74-1.78-.43-6-.41-7.81a33.64 33.64 0 00-.59-4.15c-.21-2-.24-4.08-.49-6.11-.23-1.87-.68-3.71-1-5.57-.09-.54 0-1.11-.05-1.66-.27-1.79-.61-3.58-.9-5.37a9.87 9.87 0 01-.15-1.88 1.32 1.32 0 01.94-.2 3.18 3.18 0 012.39 3.23zm50.7 37.23c-.59 0-1.29-.15-1.27-.35a4.3 4.3 0 01.64-2.21 7.62 7.62 0 00.7-.89c1.1-2 2.11-6.77 2.82-9 .62-1.93 2.42-7.9 3-9.85.37-1.34.49-2.75.84-4.09.46-1.74 1.05-3.45 1.57-5.18.32-1.05.57-2.13.95-3.16.13-.36.54-.64.85-.92.13-.11.38-.07.51-.18.82-.71 1.15.22 1.36.58a2.39 2.39 0 01-.42 2.83 9.5 9.5 0 00-.87 2.42c-.74 2.1-1.52 4.18-2.2 6.3-.38 1.16-.56 2.39-.92 3.56s-2.09 6.45-2.48 7.68c-.82 2.4-2.19 6.84-3 9.24-.34 1-.82 1.91-1.25 2.84a.89.89 0 01-.83.38zm-3.77-3.97c.48-1.52.41-.73.74-1.91.44-1.59 1.28-5.15 1.6-6.76s1.77-7 2.17-8.57.82-5.11 1.23-6.8c.3-1.22.71-2.4 1.07-3.6.28-.94.52-1.89.83-2.81a6.4 6.4 0 01.69-1.09c.69-.39 1.39-.68 1.92.24.33.59.69 1.09.23 1.85a12.69 12.69 0 00-.8 2.27c-.37 1-.79 2.06-1.14 3.11-1.07 3.29-3.09 12.35-4.14 15.64-.43 1.36-1.25 4.7-1.62 6.08-.21.76-.45 1.52-.64 2.29a2.54 2.54 0 01-.68 1.38c-.24.23-.92.09-1.19-.19s-.24-.92-.27-1.13zm19.1-29.82c.36.29.66.76 1 .8.7.07.49.51.65.9.3.74-.19 1-.44 1.47-.69 1.38-1.58 5-2.24 6.38a18 18 0 00-1 2.09 39.15 39.15 0 01-1.4 4.42c-.73 1.7-2.42 7.35-3.13 9.06s-1.81 5.34-3.11 6.53c-.27.25-.92.52-1 .43a5 5 0 01-.43-1.5c0-.1.36-.3.49-.51a8 8 0 00.92-1.53c.58-1.48 1.66-4.9 2.15-6.41s2-7 2.46-8.63c.38-1.27.8-2.53 1.16-3.8.48-1.7 1.44-5.35 2-7a13 13 0 011.43-2.57c.1-.1.33-.09.49-.13z" fill="currentColor"/></svg>