<svg xmlns="http://www.w3.org/2000/svg" viewBox="0 0 198.25 124.47"><path d="M27.56 28c.38-.86.78-1.73 1.13-2.63.17-.4.1-.93.35-1.28s.56-1 .92-1.23c.76-.46 1.66-.27 2.44-.66.12-.06.67-.08 1.05-.19A3 3 0 0134 22c.18 0 .33.21.52.26.41.09 1 .33 1.19.16.5-.48 1.24-1.2 1.17-1.71-.23-1.67 1.8-2.08 1.93-3.45 0 0 .1-.44.18-.45.37-.07.2-.57.56-.63 0-.05.38-.12.38-.16.47-.19 1.1.43 1.58.3.31-.08.87.28 1 .32 1.4.31 1.53.81 2.53.46a3.89 3.89 0 001.79-1.1 5 5 0 011-1.21c.76-.55 1.38-1.3 2.12-1.89.09-.08.28 0 .43 0a10.15 10.15 0 001.65.05c.32-.05.59-.29.92-.31.62 0 1.14.43 1.73.43.08 0 .23-.19.24-.18a3.25 3.25 0 002.71.11c.65-.47.6-.9 1.36-1.23.08 0 .09-.19.16-.25 1-.82 1.31-1.84 2.42-2.42.65-.36 1.67.07 2.5 0 .47 0 .93-.33 1.4-.35s1.19.22 1.75.15A4.33 4.33 0 0070 7.44c.54-.68.73-1.56 1.55-2.05 1.31-.76 2.16.18 3.11.56a10.92 10.92 0 012 1.33.58.58 0 00.21.08l-.62-3.87c-.42-.25-.85-.49-1.26-.77A4.56 4.56 0 0073.15 2a10.6 10.6 0 00-2.52.48 4.19 4.19 0 00-2 1.68c-.39 1.1-1.36 1.22-2.09 1.7-1.16.82-2.41 0-3.65.14-1 .09-2.09-.63-3 .43-.44.53-.9 1-1.35 1.56a10.83 10.83 0 00-1.51 1.76c-.48.86-1.09.32-1.62.35-1.11.07-2.1-.86-3.3-.4-.16.06-.4-.11-.58-.07-.56.14-.84-.05-1.4.12-.19.06-.49.21-.58.14-.44 0-1.16-.06-1.45.67a3.82 3.82 0 01-.95 1.32 15.79 15.79 0 01-2 1.72c-.32.21-.75.51-1 .46-.63-.1-1.2-.5-1.83-.61a6.75 6.75 0 00-2.24-.07c-1.22.53-1.75.24-2.8 2-.23.38-.79.52-1.06.89a4.2 4.2 0 00-.66 1.3c-.22.7-.8.87-1.35 1.14-.27.13-.42.52-.67.61a12.37 12.37 0 01-2.43.38H31a.37.37 0 01-.15 0h-.12c-.73.44-1.73.43-2.55.87a5 5 0 00-2 3.5 2.79 2.79 0 01-.18 1.02c-.35 0-.71 0-1.06-.05l2.48 3a.32.32 0 00.14-.04z" fill="currentColor"/><path d="M5.81 73.84c-.51-.76-1-1.56-1.54-2.34-.27-.36-.74-.6-.88-1a4.72 4.72 0 01-.47-1.5c.05-.89.79-1.49.92-2.35 0-.12.34-.57.47-.93a2 2 0 01.38-.44c.15-.13.38-.13.54-.25.33-.25.92-.57.89-.8-.06-.67-.21-1.68-.62-1.94-1.38-.88-.4-2.69-1.32-3.69 0 0-.25-.37-.21-.44.2-.31-.28-.53-.08-.84 0 0 .17-.37.13-.39.17-.48 1.07-.51 1.33-.94s.8-.43.94-.53c1.2-.76 1.6-.52 2.09-1.43a3.39 3.39 0 00.42-2 4 4 0 01-.1-1.55c.2-.9.14-1.88.31-2.8 0-.12.18-.22.29-.32a9 9 0 001.27-1c.21-.25.25-.61.5-.82.47-.4 1.18-.37 1.61-.74.06 0 .05-.29.07-.29A2.41 2.41 0 0014 44a2.38 2.38 0 00.94-1c.21-.75-.08-1.05.29-1.78v-.3c.27-1.19-.06-2.23.49-3.35.34-.65 1.4-.89 2.06-1.39.37-.27.55-.81.93-1.08s1.13-.45 1.55-.81a4.66 4.66 0 001-1.24 3.45 3.45 0 00.52-1.44c.08-.86-.21-1.7.21-2.56.72-1.35 1.94-1 2.94-1.14a9.15 9.15 0 012.37.17.61.61 0 00.22 0l-2.48-3c-.5 0-1 0-1.51-.05a4.75 4.75 0 00-1.89.36c-.78.74-1.32.87-1.92 1.77a4.08 4.08 0 00-.8 2.49c.23 1.12-.49 1.78-.82 2.6-.53 1.3-2 1.33-3 2.18-.74.67-2.11.7-2.2 2.11-.05.68-.11 1.37-.17 2.06a9.73 9.73 0 00-.12 2.34c.14 1-.67.9-1.09 1.25-.83.74-2.12.68-2.8 1.8-.09.15-.39.16-.51.31-.34.48-.67.52-1 1-.11.18-.24.48-.36.5-.32.3-.92.73-.65 1.48a4.16 4.16 0 01.17 1.64c-.08.91-.14 1.76-.3 2.67-.08.37-.19.88-.45 1.06-.53.36-1.24.47-1.75.86a6.44 6.44 0 00-1.6 1.61c-.52 1.26-1.05 1.49-.5 3.48.11.42-.11 1 0 1.41a4.62 4.62 0 00.54 1.38c.37.61.14 1.17 0 1.78-.06.29.16.67.06.92a6.37 6.37 0 01-.6 1.13c-.21.35-.42.69-.62 1s-.08.06-.12.1-.07 0-.09.08c-.07.87-.72 1.69-.83 2.64a4.29 4.29 0 00.48 2.07 4.83 4.83 0 001.21 1.71c.3.21.79.73.75.78-.21.31-.4.59-.61.88L5.82 74a.18.18 0 00-.01-.16z" fill="currentColor"/><path d="M39 111.54c-.95.08-1.89.12-2.84.25-.45 0-.88.38-1.3.34a3.84 3.84 0 01-1.53-.22c-.75-.47-1-1.35-1.75-1.82-.1-.07-.4-.52-.67-.82a2.87 2.87 0 01-.25-.53c-.05-.19 0-.41 0-.59-.11-.41-.18-1.07-.4-1.14-.66-.21-1.67-.47-2.07-.19-1.35 1-2.63-.67-3.94-.12 0 0-.43.1-.48 0-.22-.3-.6.07-.81-.23 0 0-.27-.3-.31-.27-.38-.34-.1-1.19-.42-1.56s-.14-.88-.18-1.06c-.3-1.4.1-1.72-.61-2.47a4.28 4.28 0 00-.8-.65 2.67 2.67 0 00-.91-.42 5.08 5.08 0 01-1.5-.43c-.82-.45-1.67-.81-2.51-1.25-.11 0-.15-.24-.2-.38-.19-.5-.28-1.05-.52-1.54-.15-.29-.46-.46-.58-.76-.22-.57.05-1.21-.15-1.74 0-.07-.24-.15-.23-.16a3.14 3.14 0 00-.64-2.54c-.62-.47-1-.33-1.5-.94-.05-.06-.2 0-.28-.08-1-.66-2.1-.77-2.88-1.73a2 2 0 01-.34-1.11 11.07 11.07 0 00-.09-1.31c-.09-.44-.48-.83-.57-1.28s.09-1.19 0-1.72A4.25 4.25 0 007 81.72a3.53 3.53 0 00-1-1.11c-.71-.47-1.64-.6-2.14-1.4-.8-1.31 0-2.18.48-3.11a9.55 9.55 0 011.39-1.9.4.4 0 00.08-.2l-3.88.48c-.27.42-.52.86-.8 1.27a4.47 4.47 0 00-.7 1.87 11.7 11.7 0 00.61 2.63 4.09 4.09 0 001.83 1.94c1.1.33 1.36 1.28 2 2 .91 1.07.35 2.42.71 3.65.25 1-.15 2.22 1.06 2.9.6.34 1.21.67 1.85 1a11.76 11.76 0 002.09 1c1 .22.62.94.8 1.45.38 1-.18 2.27.68 3.27.11.13 0 .42.12.58.32.49.23.83.58 1.31.14.16.39.38.36.5.18.41.4 1.1 1.19 1.11a4.37 4.37 0 011.58.43 16.82 16.82 0 012.41 1.18c.31.22.76.49.85.78.16.61.05 1.29.22 1.93a5.74 5.74 0 00.93 2.06c1 .87 1 1.51 3 1.67.45 0 .85.45 1.3.53a4.21 4.21 0 001.46 0c.71-.11 1.13.31 1.65.66.24.16.67.1.86.29a14.85 14.85 0 011.48 2 .48.48 0 010 .15v.11c.75.4 1.23 1.29 2 1.82s3.14.5 4 0a2.69 2.69 0 011-.31c.18.32.31.65.48 1l1.45-3.64c.12-.05.07-.09.02-.08zm53.54 7.22c-.84.46-1.69.92-2.5 1.43-.38.24-.63.71-1 .86a4.85 4.85 0 01-1.46.5c-.89 0-1.52-.73-2.4-.82-.13 0-.6-.3-1-.42a3.08 3.08 0 01-.49-.34c-.13-.14-.16-.37-.3-.51-.29-.3-.68-.85-.92-.79-.69.14-1.72.4-1.93.86-.69 1.52-2.64.75-3.47 1.91 0 0-.31.32-.38.29-.35-.13-.46.4-.81.26 0 .05-.38-.09-.4 0-.5-.06-.73-.94-1.21-1.08-.3-.09-.61-.68-.74-.8-1.06-1-.93-1.46-2-1.66a3.77 3.77 0 00-2.06.16 5.1 5.1 0 01-1.49.55c-.94.11-1.85.42-2.78.62-.12 0-.28-.09-.41-.16a10.66 10.66 0 00-1.42-.85c-.31-.11-.66 0-1-.18-.55-.28-.79-.94-1.32-1.2-.07 0-.29.06-.29 0a3.49 3.49 0 00-2.27-1.39c-.8.1-1 .48-1.79.44-.09 0-.17.12-.26.15-1.24.3-2 1-3.28 1-.73 0-1.43-.84-2.18-1.2-.42-.19-1-.16-1.39-.37s-.92-.79-1.45-1a4.72 4.72 0 00-3.08-.06c-.8.33-1.4 1-2.35 1-1.54.07-1.79-1.23-2.41-2a10.84 10.84 0 01-1-2.15.64.64 0 00-.13-.17l-1.45 3.64c.23.43.48.86.69 1.3a4.55 4.55 0 001.22 1.51 8.43 8.43 0 002.45.82 4.1 4.1 0 002.55-.46c.88-.74 1.8-.42 2.67-.5 1.41-.16 2.12 1.21 3.27 1.65.93.36 1.55 1.53 2.83 1l1.92-.73a12.37 12.37 0 002.18-.86c.82-.52 1.1.26 1.58.5 1 .48 1.45 1.7 2.72 1.89.17 0 .29.29.47.34.56.15.71.46 1.28.59.2 0 .52 0 .57.16.39.2 1 .58 1.59.08a3.73 3.73 0 011.47-.68 15.44 15.44 0 012.61-.51 1.74 1.74 0 011.13.12c.5.4.79 1 1.29 1.44a6.32 6.32 0 001.88 1.17c1.3.21 1.6.7 3.38-.27.39-.21.93 0 1.35-.21a4.21 4.21 0 001.24-.74c.55-.46 1.12-.31 1.73-.25.29 0 .64-.24.89-.17a11.57 11.57 0 012.22 1 1.2 1.2 0 01.11.12s0 .06.08.08c.85 0 1.66.61 2.56.71a5.17 5.17 0 003.58-1.73 2.53 2.53 0 01.8-.72c.29.21.55.46.83.68l-.19-3.91a.26.26 0 00-.13.06zm53.82-9.22c-.66.69-1.33 1.38-2 2.11-.29.35-.4.86-.75 1.1a4.76 4.76 0 01-1.28.85c-.88.16-1.66-.3-2.52-.15-.13 0-.66-.12-1-.14a3.25 3.25 0 01-.56-.22c-.16-.1-.25-.32-.41-.42-.36-.22-.88-.66-1.09-.56-.63.3-1.56.78-1.65 1.29a2.13 2.13 0 01-1.36 1.5c-.63.3-1.28.55-1.54 1.2 0 0-.23.39-.31.38-.36 0-.35.49-.72.44h-.4c-.5 0-.94-.74-1.44-.75-.31 0-.76-.49-.91-.57-1.27-.66-1.27-1.17-2.34-1.09a3.68 3.68 0 00-2 .66 5.22 5.22 0 01-1.3.94c-.88.37-1.67.91-2.52 1.36-.1.06-.29 0-.43 0a12.22 12.22 0 00-1.61-.4c-.33 0-.65.16-1 .1-.62-.1-1-.67-1.63-.77-.08 0-.26.14-.27.13a3.35 3.35 0 00-2.68-.59c-.74.35-.77.77-1.58 1-.09 0-.12.17-.21.22-1.09.64-1.61 1.6-2.81 2-.7.22-1.63-.31-2.47-.4-.47 0-1 .18-1.45.13s-1.15-.41-1.72-.42a4.44 4.44 0 00-2.92 1.08c-.62.63-.93 1.45-1.79 1.82-1.4.61-2.13-.42-3-.91a11.37 11.37 0 01-1.8-1.54.63.63 0 00-.2-.1l.19 3.91c.38.3.78.59 1.15.91a4.48 4.48 0 001.69.87 10.17 10.17 0 002.53-.18 3.89 3.89 0 002.15-1.4c.53-1 1.5-1 2.28-1.43 1.26-.63 2.39.38 3.62.42 1 0 2 .92 3 0 .52-.45 1-.88 1.58-1.3a12.39 12.39 0 001.8-1.47c.62-.76 1.12-.12 1.65 0 1.11.14 1.88 1.21 3.15 1 .17 0 .37.2.55.2.57 0 .8.24 1.38.19.2 0 .51-.1.59 0 .43.08 1.1.28 1.54-.36a3.65 3.65 0 011.22-1.06 15.8 15.8 0 012.36-1.19 1.8 1.8 0 011.13-.16c.59.27 1 .79 1.61 1.06a6.24 6.24 0 002.1.64c1.29-.14 1.7.3 3.19-1 .32-.3.89-.26 1.25-.51a4.46 4.46 0 001-1c.42-.6 1-.58 1.63-.67.29 0 .56-.38.83-.37a16.48 16.48 0 012.42.44h.05a1.25 1.25 0 01.12.08.33.33 0 01.1.06c.82-.22 1.76.12 2.68 0a3.85 3.85 0 001.79-1 4.8 4.8 0 001.21-1.66 2.69 2.69 0 01.57-.92c.33.11.65.27 1 .4l-1.3-3.69a.27.27 0 00-.14-.09zM188 77.37c-.06.92-.13 1.87-.14 2.83 0 .44.27.93.15 1.33a4.59 4.59 0 01-.51 1.47c-.59.68-1.48.8-2.06 1.45-.09.09-.62.28-.95.5a2.12 2.12 0 01-.56.16c-.19 0-.39-.1-.58-.08-.42 0-1.08 0-1.19.2-.29.63-.74 1.56-.54 2 .73 1.5-1.11 2.48-.78 3.87v.49c-.34.16 0 .59-.37.75 0 0-.33.22-.31.26-.41.32-1.2-.1-1.62.16s-.9 0-1.07 0c-1.4.13-1.69-.34-2.55.25a3.5 3.5 0 00-1.32 1.56 4.11 4.11 0 01-.64 1.44c-.59.72-1 1.57-1.56 2.36-.06.09-.26.12-.4.16a15.39 15.39 0 00-1.6.37c-.3.12-.5.42-.82.51-.6.17-1.22-.15-1.78 0-.07 0-.16.24-.18.24a2.37 2.37 0 00-1.36 0 2.6 2.6 0 00-1.28.52c-.52.6-.38 1-1 1.51-.07 0 0 .2-.1.28-.71 1-.82 2.12-1.8 2.9-.57.46-1.63.3-2.43.52-.44.12-.82.54-1.29.64s-1.21 0-1.75.18a4.65 4.65 0 00-2.36 2c-.39.77-.42 1.65-1.12 2.28-1.14 1-2.14.29-3.14.09a10.71 10.71 0 01-2.18-1 .78.78 0 00-.22 0l1.3 3.69c.46.18.94.35 1.39.55a4.24 4.24 0 001.9.35 10.62 10.62 0 002.38-1 3.94 3.94 0 001.64-2c.16-1.16 1.08-1.5 1.68-2.13 1-1 2.4-.46 3.56-.9.94-.33 2.18.13 2.83-1.07.32-.6.65-1.21 1-1.83a12.75 12.75 0 001.06-2.08c.26-.94 1-.55 1.51-.69 1.06-.33 2.21.27 3.28-.46.14-.09.42 0 .58-.07.52-.26.84-.14 1.35-.44.18-.11.41-.34.52-.29.43-.14 1.13-.28 1.22-1.06a3.75 3.75 0 01.6-1.51c.5-.74.9-1.51 1.48-2.22.24-.3.58-.69.89-.72.64-.07 1.3.16 2 .09a5.67 5.67 0 002.15-.61c1-.86 1.67-.7 2.15-2.71.09-.44.57-.76.73-1.18a4.31 4.31 0 00.26-1.45c0-.72.51-1 .93-1.5.2-.21.22-.65.43-.81a13.51 13.51 0 012.21-1.12h.23a.5.5 0 01.12 0c.52-.68 1.46-1 2.12-1.71a3.64 3.64 0 00.77-1.93 5 5 0 00-.12-2.07 2.69 2.69 0 01-.16-1.08c.33-.13.68-.22 1-.33l-3.41-1.92c-.17-.08-.17-.03-.17.01z" fill="currentColor"/><path d="M180.54 30.66l2.77.56c.43.1.93-.06 1.31.12a4.84 4.84 0 011.37.71c.59.66.5 1.6 1 2.32.07.1.15.65.3 1a3.48 3.48 0 010 .57c0 .18-.19.35-.21.54 0 .39-.25 1-.09 1.17.49.45 1.24 1.1 1.75 1a1.88 1.88 0 011.84.72 2.7 2.7 0 001.61 1.09s.44.1.46.18c.07.36.58.21.64.57.06 0 .09.4.14.39.16.5-.5 1.1-.42 1.59.06.31-.32.84-.37 1-.39 1.32-.91 1.4-.73 2.39a3.14 3.14 0 00.89 1.74 4 4 0 011 1.17c.36.82 1 1.56 1.39 2.41 0 .1 0 .28-.07.42a9.1 9.1 0 00-.48 1.54c0 .32.15.63 0 1-.18.58-.79.93-1 1.46 0 .07.11.26.1.27a2.27 2.27 0 00-.74 1.08 2.41 2.41 0 00-.3 1.28c.19.73.59.85.64 1.64 0 .08.14.15.17.24.37 1.14 1.12 1.88 1.17 3.13.05.74-.84 1.42-1.2 2.15-.21.4-.14 1-.34 1.36s-.83.87-1.05 1.38a4.72 4.72 0 00-.22 3c.26.81.86 1.46.8 2.42a1.66 1.66 0 01-.85 1.47c-.45.29-1 .45-1.42.71a10 10 0 01-2.23.71.62.62 0 00-.19.11l3.41 1.92c.48-.17.92-.38 1.39-.54a4.75 4.75 0 001.65-1.06c.24-.49.46-.82.66-1.16a4.29 4.29 0 00.44-1.26 4.14 4.14 0 00-.21-2.63c-.69-.94-.32-1.85-.35-2.73 0-1.4 1.25-2.11 1.73-3.3a8.91 8.91 0 01.88-1.32 1.68 1.68 0 00.11-1.6l-.69-1.95a10.59 10.59 0 00-1.06-2.1c-.61-.75.13-1.11.31-1.63.29-1 1.44-1.7 1.41-3 0-.17.25-.36.26-.54 0-.6.27-.82.24-1.42 0-.22-.08-.55 0-.63.09-.44.36-1.16-.3-1.63a4.17 4.17 0 01-1.12-1.25c-.5-.79-.89-1.52-1.36-2.33A1.81 1.81 0 01195 46c.19-.62.65-1.15.84-1.8a6.23 6.23 0 00.16-2.28c-.23-.67-.27-1.13-.45-1.59a3.57 3.57 0 00-1.51-1.42c-.39-.24-.55-.82-.91-1.11a3.56 3.56 0 00-1.34-.65c-.72-.18-.93-.75-1.25-1.3-.15-.26-.56-.39-.65-.64a16 16 0 01-.67-2.4v-.33c-.55-.69-.66-1.73-1.26-2.48a4.9 4.9 0 00-3.86-1.39 2.87 2.87 0 01-1.1 0c-.08-.35-.12-.7-.18-1.06l-2.45 3.06c.09-.01.13.04.17.05zM131.16 8.89c.93-.23 1.87-.45 2.79-.74.43-.13.8-.53 1.22-.56a4.72 4.72 0 011.55-.11c.83.34 1.25 1.16 2.07 1.5.11 0 .49.46.82.67a2.84 2.84 0 01.37.47c.09.16.06.4.15.57.19.37.42 1 .66 1 .7 0 1.75.1 2.09-.3 1.11-1.32 2.74 0 3.86-.83 0 0 .39-.22.45-.17.29.23.55-.23.84 0 0 0 .34.2.37.17.46.22.43 1.11.85 1.38s.4.81.49 1c.73 1.21.46 1.65 1.41 2.12a3.71 3.71 0 002 .49 5.22 5.22 0 011.59-.08c.92.16 1.88.13 2.83.22.12 0 .24.16.34.27a9.08 9.08 0 001.14 1.18c.26.19.63.21.87.43.45.43.49 1.15.91 1.57.06.05.29 0 .29 0a3.31 3.31 0 001.84 2c.8.14 1.06-.19 1.85.09.08 0 .19-.08.29-.07 1.27.07 2.25-.44 3.46-.09.69.25 1.13 1.25 1.74 1.83.34.32.9.41 1.25.73s.69 1 1.15 1.34a4.37 4.37 0 003 .81c.87-.13 1.62-.65 2.53-.4 1.48.39 1.42 1.65 1.8 2.57a8.29 8.29 0 01.32 2.35.47.47 0 00.07.21l2.45-3.06c-.09-.49-.21-1-.28-1.49a4.12 4.12 0 00-.8-1.79 11.85 11.85 0 00-2.21-1.48 3.78 3.78 0 00-2.6-.15c-1 .53-1.85 0-2.71-.17-1.39-.23-1.73-1.69-2.7-2.47-.78-.6-1-2-2.4-1.79-.69.08-1.38.14-2.07.2a13.64 13.64 0 00-2.33.21c-.93.27-1-.55-1.38-.91-.83-.75-.88-2.08-2-2.66-.15-.08-.19-.37-.35-.46-.5-.29-.55-.62-1.07-.89-.18-.09-.49-.19-.51-.3-.32-.31-.77-.84-1.49-.54a3.86 3.86 0 01-1.61.22 14.6 14.6 0 01-2.63-.29c-.37-.08-.87-.21-1-.48-.35-.53-.46-1.19-.81-1.73a6.57 6.57 0 00-1.48-1.63c-1.2-.54-1.33-1.14-3.32-.74-.43.08-.9-.24-1.34-.22a3.69 3.69 0 00-1.41.37c-.66.31-1.17 0-1.74-.22-.27-.11-.68.05-.91-.09a12 12 0 01-1.84-1.6.59.59 0 01-.06-.14.39.39 0 01-.06-.11c-.81-.25-1.43-1-2.26-1.43a5.25 5.25 0 00-3.94.75 2.65 2.65 0 01-1 .48c-.22-.27-.41-.58-.62-.87l-.94 3.8a.25.25 0 00.16.06zM77 7.35c.78-.56 1.57-1.11 2.32-1.72.35-.28.55-.77.93-1A4.73 4.73 0 0181.63 4c.88 0 1.59.57 2.47.57.12 0 .63.24 1 .31a3.7 3.7 0 01.51.29c.15.12.2.35.35.47.32.27.77.77 1 .7.67-.21 1.66-.53 1.83-1 .54-1.58 2.55-1.07 3.26-2.26 0 0 .28-.35.36-.33.36.1.42-.42.78-.32 0 0 .39.06.4 0 .51 0 .82.87 1.31 1 .31.06.67.61.81.71 1.14.84 1 1.36 2.11 1.48a3.61 3.61 0 002-.32 4.84 4.84 0 011.44-.71c.92-.23 1.79-.58 2.71-.86.11 0 .28.07.41.13a8.51 8.51 0 001.5.7c.32.09.66 0 1 .08.58.22.89.84 1.43 1.06.08 0 .28-.08.29-.07a3.36 3.36 0 002.5 1.17c.79-.18.91-.58 1.74-.62.08 0 .15-.14.25-.17 1.19-.43 1.92-1.25 3.16-1.32.73-.05 1.51.7 2.3 1 .44.16 1 0 1.44.19s1 .64 1.57.78a4.33 4.33 0 003.07-.28c.75-.43 1.26-1.16 2.19-1.32 1.51-.25 2 .88 2.69 1.62a11.48 11.48 0 011.33 2 .58.58 0 00.16.15l.85-3.83c-.29-.4-.6-.79-.87-1.21a4.63 4.63 0 00-1.4-1.32 10.46 10.46 0 00-2.52-.42 4 4 0 00-2.45.81c-.77.86-1.72.61-2.57.78-1.38.33-2.24-.87-3.43-1.21-1-.27-1.7-1.37-2.91-.76l-1.83.94a13.12 13.12 0 00-2.08 1.07c-.77.6-1.12-.14-1.63-.32-1-.38-1.59-1.62-2.88-1.65-.17 0-.32-.27-.5-.3-.57-.09-.75-.38-1.32-.44-.21 0-.53 0-.59-.1-.41-.17-1-.51-1.59 0a4 4 0 01-1.4.79 15.06 15.06 0 01-2.55.79 1.82 1.82 0 01-1.14 0c-.53-.37-.88-1-1.41-1.34a5.8 5.8 0 00-2-1c-1.32 0-1.66-.56-3.35.55-.37.24-.93.15-1.33.35a4.36 4.36 0 00-1.1.92c-.5.53-1.09.42-1.71.41-.29 0-.6.28-.86.25a12.39 12.39 0 01-2.32-.78s-.07-.07-.11-.1-.06-.06-.1-.08c-.84.07-1.71-.43-2.62-.44a5.07 5.07 0 00-3.48 2.07 2.62 2.62 0 01-.72.81c-.31-.17-.59-.38-.89-.58l.62 3.87a.31.31 0 00.19-.01z" fill="currentColor"/></svg>