<svg xmlns="http://www.w3.org/2000/svg" viewBox="0 0 142.71 115.25"><path d="M52.97 13.8q.35-2.66.82-5.37c.06-.32.17-.62.25-.93 0 .16.74 1 .86 1.19a21.89 21.89 0 011.32 2.71c.42.86.85 1.72 1.29 2.57.31.6.64 1.24 1 1.86l.14.27a12 12 0 001.4 2c.2.22.37.18.5 0a1.55 1.55 0 00.61-.48c.14-.71.7-.56.87-1.28.2-.91.42-1.53.56-2.47.22-1.38.26-2.79.52-4.16a47 47 0 011-4.66c.08-.24.31-.4.47-.6.05.08.14.14.17.23.37 1.26.86 3.41 1.15 4.69a19.09 19.09 0 01.34 2.25 28 28 0 00.77 3c.3 1.08.88 2.1 1.77 1.84 0 0 .15.11.2.09s.32-.12.33-.22c.16-1.19.29-2.36.48-3.53a31 31 0 01.66-3.48 39.14 39.14 0 011.7-4.77 2 2 0 01.82-.76c.05 0 .42.31.46.51.23 1.34.67 1.6.84 2.94s.23 2.44.42 3.63c.1.59.42 1.13.56 1.73.27 1.12 1 .7 1.53.74s.87-.55 1.07-1c.45-1 .45-1.08.84-2.15.29-.77.63-1.52 1-2.26s.75-1.43 1.16-2.13c.22-.38.47-.71.71-1.07a2.9 2.9 0 01.18.76 4 4 0 01.08.62c.09 1.9.14 3.8.3 5.69a19.39 19.39 0 00.59 2.59c0 .07.15.13.22.14 1.09.06 1.57-1 2.08-1.91.6-1.14 1.15-2.35 1.81-3.48 1-1.73 2.15-3.34 3.33-5a2.05 2.05 0 01.31-.34 1.78 1.78 0 01.14.55l-.28 3.64a11.44 11.44 0 00.8 6.12c.17.33 1 .52 1.24.29 1-1.16 2-2.38 3.08-3.64s2.65-5.22 3.73-6.39c.11-.13.31-.17.46-.25a2.31 2.31 0 01.11.56c0 .32-.44 1.47-.43 1.79 0 1.12-.41 4.16-.37 5.28s0 2.23.15 3.31c.07.61 1.45.93 1.79.5.83-1 1.65-2 2.5-3.07s1.32-1.47 2.28-2.61c.39-.47.69-1.05 1.11-1.5a3.07 3.07 0 01.9-.52.4.4 0 01.06.13 11.3 11.3 0 01-.09 1.17c-.3 1.46-.05 2.17-.36 3.62-.25 1.16-.43 2.33-.65 3.49s0 2.06.87 2.23c.48.09.81-.37 1.24-.8.43-.67.93-1.3 1.41-1.91l2-4c-.38.37-.74.77-1.1 1.17a8.06 8.06 0 01-1.11 1.16 2 2 0 01-.55.27 3.09 3.09 0 01-.07-.74c.06-.6.17-1.2.26-1.8a3.86 3.86 0 01.12-.57 18.13 18.13 0 00.66-2.22c.2-1.32-.34-1.9-.34-3.21 0-.51-.22-1.31-.55-1.44a2 2 0 00-1.81.19 42.48 42.48 0 00-3.74 3.86c-.91 1-1.8 2.15-2.66 3.23a1.33 1.33 0 01-.26.21 1.49 1.49 0 010-.36c.06-.71.75-3.33.72-4-.07-1.71.36-4.28 0-6a1.79 1.79 0 00-1.26-1.09 2.24 2.24 0 00-1.6.69 42.08 42.08 0 00-2.7 3.74c-.69.92-1.72 3.77-2.37 4.67a15 15 0 01-1 1.24c0 .06-.38-.08-.38-.13.08-1.77.17-3.54.25-5.31 0-1.42.07-2.85 0-4.26 0-.28-.35-.76-.57-.78-1.1-.11-2.27-.11-3 1.09q-.63 1.14-1.35 2.22c-.38.58-.85 1.12-1.2 1.74-.49.87-.88 1.8-1.33 2.69a9.53 9.53 0 01-.72 1.2 7.06 7.06 0 01-.66.68 6.3 6.3 0 01-.05-.75c.05-1.3.24-2.61.16-3.89-.09-1.49-.48-3-.68-4.45-.08-.65-.38-.9-.9-.82s-1 .18-1.19.49a40.56 40.56 0 00-2 3.73c-.84 1.66-1.35 2.23-2.13 3.92a3.31 3.31 0 01-.29.47 2.34 2.34 0 01-.26-.56c-.13-1.2-.47-1.34-.65-2.53a14.06 14.06 0 00-.76-2.72 7.42 7.42 0 00-.8-1.95c-.57-.74-2.61-.29-3 .54a34.44 34.44 0 00-1.82 3.78 25.61 25.61 0 00-.86 3.23c-.11.48-.15 1-.23 1.46a.71.71 0 01-.13.22s-.11-.11-.12-.17c-.16-1.07-.29-2.15-.49-3.22a15.1 15.1 0 00-.61-2.31c-.23-.63-.94-2.35-1.12-3-.23-.86-1.53-1.48-2.17-.86-1.22 1.17-1.66 3.8-1.95 5.45-.24 1.34-.61 2.66-.88 4s-.57 3-.8 4.45v.07l-.07-.18a19.66 19.66 0 00-1.33-2.91v.08a16.79 16.79 0 00-1.67-3.13c-.71-1.28-1.57-2.52-2.16-3.87-.43-1-1.08-.69-1.65-.64a1.3 1.3 0 00-.9.81 18.78 18.78 0 00-.49 2.46c-.3 1.47-.62 2.92-.8 4.42v.33l1.66 4.11c.09-.71.19-1.46.28-2.19zM11.84 55.16c-1.24-1.25-2.48-2.55-3.67-3.94-.21-.24-.38-.5-.57-.76a6.57 6.57 0 001.46.09 24.48 24.48 0 012.92.74c.93.24 1.86.47 2.8.68l2.06.46.29.07a12.94 12.94 0 002.42.28c.3 0 .37-.15.32-.35a1.44 1.44 0 000-.72c-.46-.55 0-.84-.43-1.41s-.9-1.27-1.52-2c-.91-1-2-2-2.81-3.09a39.11 39.11 0 01-2.84-3.77 2.22 2.22 0 01-.16-.74.65.65 0 01.28 0c1.18.57 3.1 1.65 4.24 2.3a19.57 19.57 0 011.91 1.25 26 26 0 002.72 1.45c1 .5 2.13.79 2.52 0 0-.05.18 0 .2-.08s.12-.29 0-.37c-.77-.89-1.57-1.78-2.33-2.71a28 28 0 01-2.1-2.8 40.33 40.33 0 01-2.35-4.47 1.92 1.92 0 010-1.11 1 1 0 01.68 0c1.13.76 1.62.63 2.71 1.45s1.91 1.52 2.9 2.22c.49.34 1.1.49 1.62.8 1 .59 1.17-.26 1.55-.55s.21-1 0-1.44c-.43-1-.48-1.08-1-2.1a22.25 22.25 0 01-.93-2.28c-.27-.75-.49-1.52-.7-2.29-.11-.42-.18-.85-.27-1.27a3 3 0 01.66.41 4.2 4.2 0 01.49.37c1.41 1.28 2.79 2.58 4.24 3.8a18.69 18.69 0 002.26 1.42.26.26 0 00.25 0c.82-.69.41-1.76.07-2.8-.38-1.23-.83-2.45-1.16-3.71a58.64 58.64 0 01-1.11-5.84 1.77 1.77 0 010-.46 1.69 1.69 0 01.48.3l2.43 2.8a11.46 11.46 0 004.87 3.77c.35.12 1.1-.34 1.09-.65-.07-1.56-.24-3.17-.37-4.77s-1.8-5.59-1.86-7.18a1.48 1.48 0 01.16-.49 2.23 2.23 0 01.48.32c.21.24.72 1.35.95 1.57.82.77 2.66 3.25 3.48 4s1.6 1.56 2.45 2.22c.47.35 1.71-.39 1.66-.93-.14-1.33-.28-2.65-.41-4s-.13-2-.23-3.46c0-.6-.24-1.22-.27-1.83a3.13 3.13 0 01.26-1h.13a7.13 7.13 0 01.78.87c.82 1.22 1.52 1.55 2.34 2.78.67 1 1.39 1.94 2.07 2.91s1.54 1.41 2.24.89c.42-.29.33-.85.33-1.45a20.17 20.17 0 01.17-2.57L51 11.85c-.12 1.11-.15 2.23-.22 3.34a2.1 2.1 0 01-.2.58 3.87 3.87 0 01-.59-.46c-.39-.46-.74-.94-1.11-1.42a4.07 4.07 0 01-.33-.48 15.86 15.86 0 00-1.13-2c-.8-1-1.61-1.08-2.55-2-.37-.36-1.1-.78-1.42-.62a2.1 2.1 0 00-1.13 1.45 38.57 38.57 0 00.1 5.37c.1 1.4.24 2.8.39 4.17a1.26 1.26 0 01-.05.33 2.09 2.09 0 01-.28-.22c-.47-.55-1.84-2.89-2.36-3.37-1.26-1.16-2.77-3.26-4.19-4.22a1.78 1.78 0 00-1.68.15 2.12 2.12 0 00-.65 1.62c0 1.21.56 3.35.73 4.53s1.43 3.89 1.61 5a14.38 14.38 0 01.17 1.58c0 .08-.34.2-.37.17-1.19-1.33-2.38-2.64-3.57-4-1-1-1.95-2.07-3-3a1 1 0 00-.95-.14c-.83.74-1.7 1.5-1.36 2.86.22.85.43 1.72.61 2.57.15.69.19 1.39.38 2.06.26 1 .63 1.89 1 2.83a8.66 8.66 0 01.36 1.37 5 5 0 010 1c-.19-.17-.4-.32-.57-.5-.88-1-1.67-2-2.63-2.86-1.13-1-2.44-1.76-3.63-2.68-.53-.4-.92-.36-1.24.06a1.73 1.73 0 00-.47 1.2 41.79 41.79 0 001.24 4c.59 1.74.69 2.54 1.34 4.25a3.3 3.3 0 01.13.52 2 2 0 01-.58-.21c-.95-.75-1.29-.61-2.27-1.31a13.57 13.57 0 00-2.5-1.38 7.08 7.08 0 00-1.93-.77c-.91-.09-2.07 1.63-1.73 2.55a35.55 35.55 0 001.53 3.88 23 23 0 001.81 2.8c.28.4.62.77.93 1.16a.78.78 0 01.08.23.71.71 0 01-.21 0c-.9-.6-1.78-1.24-2.7-1.81a14.78 14.78 0 00-2.11-1.13c-.61-.26-2.36-.91-3-1.2-.79-.41-2.15.11-2.11 1 .1 1.67 1.73 3.72 2.79 5 .9 1.09 1.69 2.29 2.52 3.29s1.89 2.33 2.86 3.43l.05.05-.17-.06a18.71 18.71 0 00-3.06-.89h.07a17 17 0 00-3.46-.78c-1.45-.3-2.94-.46-4.37-.87-1-.28-1.22.38-1.55.85a1.33 1.33 0 00.05 1.27 19.83 19.83 0 001.61 1.93 40.48 40.48 0 003 3.33l.24.22 4.29 1.23z" fill="currentColor"/><path d="M32.63 99.44a71.56 71.56 0 01-4.3 3.27 8.37 8.37 0 01-.82.48c.14-.08.18-1.21.24-1.43a23.26 23.26 0 011-2.83l.95-2.71c.21-.64.44-1.31.67-2l.09-.29a13.31 13.31 0 00.54-2.38c0-.29-.1-.38-.3-.34a1.12 1.12 0 00-.7-.06c-.6.43-.79-.08-1.39.32-.76.49-1.33.78-2.08 1.33-1.12.81-2.18 1.76-3.32 2.49a33.79 33.79 0 01-4 2.41 2.11 2.11 0 01-.75.07.77.77 0 010-.28c.72-1.1 2.06-2.86 2.85-3.9a20.41 20.41 0 011.49-1.72c.59-.66 1.27-1.76 1.8-2.51.64-.91 1.12-2 .51-2.37v-.19c0-.02-.24-.13-.32-.07-1 .68-1.93 1.35-2.91 2a24.93 24.93 0 01-3 1.71c-.76.34-1.53.65-2.33.92s-1.55.49-2.35.69a1.88 1.88 0 01-1.06-.19.89.89 0 01.19-.64c1-.94 1-1.41 2-2.29s1.9-1.54 2.8-2.36c.43-.39.76-.93 1.19-1.36.82-.81.17-1.07 0-1.41s-.81-.26-1.29-.16c-1 .22-1.08.26-2.14.52a21 21 0 01-2.37.41 18.66 18.66 0 01-2.34.13c-.41 0-.82-.05-1.23-.08a3.15 3.15 0 01.61-.48 4.28 4.28 0 01.52-.35c1.66-.92 3.34-1.82 5-2.77.77-.45 1.43-1 2.14-1.53a.21.21 0 00.05-.2c-.32-.68-1.32-.61-2.38-.58-1.23 0-2.52.08-3.8 0a35.61 35.61 0 01-5.75-1 2.26 2.26 0 01-.42-.19 1.93 1.93 0 01.47-.29l3.52-.92a15.18 15.18 0 005.64-2.44c.27-.22.22-.89-.06-1-1.4-.48-2.79-1-4.28-1.58a34.53 34.53 0 00-3.58-.84 17.05 17.05 0 01-3.51-1c-.15-.08-.23-.25-.34-.38a2.66 2.66 0 01.52-.23c.32 0 1.53.1 1.84 0 1.09-.27 4.15-.49 5.23-.73s2.14-.43 3.18-.73c.59-.17.63-1.39.14-1.62-1.23-.59-2.4-1.16-3.53-1.77s-1.69-1-3-1.71c-.53-.3-1.15-.49-1.67-.81a3.5 3.5 0 01-.69-.79s.07-.07.12-.07a9.24 9.24 0 011.17-.1c1.49.07 2.16-.27 3.64-.18l3.55.14c1.29.06 2-.29 2-1.08 0-.45-.48-.71-1-1.06a20.16 20.16 0 01-1.82-1.63l-4.3-1.25c.81.76 1.68 1.46 2.52 2.16a2 2 0 01.34.48 3.68 3.68 0 01-.73.17h-1.8a3.77 3.77 0 01-.58 0 18 18 0 00-2.29-.33c-1.3 0-1.81.6-3.11.8-.5.07-1.27.42-1.34.76a1.91 1.91 0 00.51 1.74 33.93 33.93 0 004.43 2.93c1.22.68 2.48 1.31 3.71 1.89a1.64 1.64 0 01.25.19 1.35 1.35 0 01-.34.11c-.71.07-3.41-.08-4.1.08-1.66.39-4.3.49-5.85 1.16a1.74 1.74 0 00-.75 1.5 2.13 2.13 0 001 1.39 30.66 30.66 0 004.29 1.51c1.07.4 4.08.59 5.11.9.48.15 1 .32 1.46.49.07 0 0 .33 0 .34-1.72.41-3.45.82-5.16 1.27-1.37.37-2.73.76-4.07 1.24-.27.09-.62.56-.57.77s.12.54.2.8a3.68 3.68 0 00.37.71 2.08 2.08 0 001.43.88l2.53.44a19.13 19.13 0 002 .37c1 .07 2 0 2.95 0a11.67 11.67 0 011.35.08 6.54 6.54 0 01.82.22c-.23.12-.44.25-.67.35-1.2.5-2.45.89-3.59 1.49-1.32.75-2.48 1.65-3.75 2.49-.55.35-.64.73-.34 1.15s.59.78 1 .81a24.26 24.26 0 004.17-.09 40.23 40.23 0 004.29-.36 3.15 3.15 0 01.53 0 2.51 2.51 0 01-.36.48c-1 .74-.92 1.06-1.83 1.85a13.3 13.3 0 00-1.91 2.06 7.27 7.27 0 00-1.23 1.71c-.36.9 1.2 2.27 2.1 2.15a22.32 22.32 0 004-.89 20.68 20.68 0 003-1.37c.41-.22.82-.5 1.25-.76a.86.86 0 01.23-.06c0 .07 0 .15-.06.19-.73.81-1.49 1.59-2.2 2.41a15.32 15.32 0 00-1.46 1.88c-.35.57-1.25 2.19-1.63 2.73-.52.72-.17 2.12.71 2.22 1.66.13 3.9-1.27 5.3-2.17 1.12-.73 2.35-1.41 3.48-2.13s2.44-1.65 3.69-2.54h.05l-.08.17a19.32 19.32 0 00-1.2 3v-.08a16.91 16.91 0 00-1.13 3.37c-.44 1.42-.76 2.89-1.3 4.27-.38 1 .25 1.28.7 1.61a1.38 1.38 0 001.21.07 19.27 19.27 0 002.07-1.4c1.23-.83 2.49-1.69 3.64-2.61l.24-.22 1.68-4.14z" fill="currentColor"/><path d="M93.96 102.99c-.41 1.74-.85 3.49-1.36 5.26-.09.31-.22.6-.34.9.06-.16-.63-1-.73-1.26a23.5 23.5 0 01-1-2.84c-.32-.9-.66-1.8-1-2.69-.25-.63-.51-1.3-.79-2l-.12-.28a12.07 12.07 0 00-1.23-2.09c-.18-.24-.36-.21-.5-.06a1.48 1.48 0 00-.65.42c-.21.71-.76.52-1 1.2-.3.87-.58 1.47-.83 2.38-.36 1.34-.55 2.76-1 4.11a40.31 40.31 0 01-1.44 4.52c-.1.22-.34.37-.52.55a.87.87 0 01-.15-.24c-.25-1.29-.53-3.48-.69-4.78a17.18 17.18 0 01-.12-2.27 25.07 25.07 0 00-.48-3c-.2-1.1-.68-2.17-1.61-2-.06 0-.15-.12-.21-.1s-.33.09-.35.19c-.28 1.15-.54 2.31-.84 3.47a30.86 30.86 0 01-1 3.4 43.84 43.84 0 01-2.13 4.62 2 2 0 01-.91.68 1 1 0 01-.41-.56c-.12-1.35-.55-1.65-.61-3s0-2.45-.13-3.66c0-.59-.35-1.16-.44-1.76-.19-1.14-1-.74-1.53-.82s-1 .46-1.2.91c-.54 1-.54 1.05-1 2.09-.35.75-.74 1.49-1.16 2.21s-.87 1.39-1.33 2c-.24.35-.52.68-.79 1a3.27 3.27 0 01-.14-.77 4.1 4.1 0 01-.05-.62c0-1.9.07-3.8 0-5.69a16.89 16.89 0 00-.48-2.63.28.28 0 00-.23-.14c-1.16-.14-1.71.89-2.29 1.81-.69 1.1-1.31 2.28-2 3.37a82.31 82.31 0 01-3.58 4.92 2.67 2.67 0 01-.35.31 1.94 1.94 0 01-.12-.56l.31-3.63a10.42 10.42 0 00-.8-6.13c-.19-.32-1.11-.52-1.32-.31-1.1 1.12-2.16 2.37-3.22 3.63s-2.66 5.21-3.73 6.4a1.78 1.78 0 01-.47.26 3 3 0 01-.12-.56c0-.32.43-1.48.41-1.79 0-1.13.35-4.19.28-5.31s-.08-2.24-.24-3.32c-.1-.6-1.56-.88-1.88-.47l-2.46 3.12-2.23 2.67c-.38.48-.67 1.06-1.07 1.52a2.94 2.94 0 01-.89.54.33.33 0 01-.06-.12 7.58 7.58 0 010-1.17c.24-1.46 0-2.16.22-3.62.2-1.16.34-2.35.53-3.52s-.11-2.09-1-2.2c-.49-.07-.81.4-1.23.85a19.13 19.13 0 01-1.86 1.73l-1.63 4.13c.86-.72 1.64-1.48 2.45-2.25a2.19 2.19 0 01.54-.3 3.14 3.14 0 01.1.74c0 .6-.12 1.2-.19 1.8a3.78 3.78 0 01-.1.57 18.45 18.45 0 00-.58 2.24c-.15 1.31.4 1.91.44 3.23 0 .5.27 1.29.61 1.4a2.11 2.11 0 001.81-.25 44.24 44.24 0 003.65-4c.9-1.08 1.76-2.17 2.61-3.27a1.33 1.33 0 01.26-.21 1.51 1.51 0 01.06.35c0 .72-.68 3.35-.63 4.06.11 1.71-.26 4.27.09 6a1.79 1.79 0 001.32 1.07 2.21 2.21 0 001.59-.73 45.05 45.05 0 002.67-3.73c.7-.93 1.75-3.78 2.42-4.69a15.34 15.34 0 011-1.21c0-.06.39.09.39.14l-.27 5.31c-.06 1.42-.1 2.84-.06 4.26 0 .28.35.75.57.77 1.12.09 2.28.19 3-1 .47-.75 1-1.49 1.47-2.2s.9-1.09 1.28-1.69c.53-.85 1-1.76 1.47-2.62a9 9 0 01.81-1.17 6.31 6.31 0 01.72-.65 6.26 6.26 0 010 .75 33.92 33.92 0 00-.35 3.87c0 1.5.34 3 .47 4.48.05.66.34.92.87.87a1.86 1.86 0 001.22-.42c.83-1.12 1.53-2.38 2.26-3.6 1-1.6 1.52-2.16 2.44-3.77a4.46 4.46 0 01.33-.43 2 2 0 01.23.58c0 1.21.38 1.38.47 2.58a13.44 13.44 0 00.57 2.75 7.15 7.15 0 00.65 2c.51.76 2.58.53 3.1-.26a40.45 40.45 0 002.13-3.63 27 27 0 001.18-3.14c.15-.47.25-1 .38-1.43a.56.56 0 01.14-.2.58.58 0 01.11.18c.06 1.09.09 2.17.19 3.25a14.35 14.35 0 00.39 2.36c.17.64.71 2.42.83 3.07.15.88 1.38 1.61 2.08 1 1.28-1 2-3.55 2.45-5.22.37-1.33.88-2.61 1.29-3.9.46-1.44.89-2.87 1.27-4.35v-.07a1.67 1.67 0 010 .18 19.29 19.29 0 001 3v-.08a17.83 17.83 0 001.5 3.41c.58 1.36 1.29 2.69 1.76 4.1.33 1 1 .8 1.58.81a1.35 1.35 0 001-.72 20.11 20.11 0 00.73-2.4c.45-1.45.93-2.83 1.26-4.29l.06-.33-1.29-4.33c-.14.74-.33 1.44-.5 2.16zm38.18-39.34c1.38 1.11 2.81 2.28 4.13 3.52a8 8 0 01.62.69 6.24 6.24 0 00-1.46.07 23.33 23.33 0 01-3-.4q-1.42-.2-2.85-.36l-2.12-.18h-.3a12.33 12.33 0 00-2.43 0c-.29 0-.34.19-.26.38a1.31 1.31 0 00.09.71c.51.49.07.83.57 1.34s1 1.16 1.73 1.79c1 .92 2.18 1.76 3.18 2.75a34.45 34.45 0 013.21 3.41 2 2 0 01.21.62.88.88 0 01-.28 0c-1.23-.44-3.26-1.32-4.46-1.84-.87-.38-1.19-.59-2-1a28 28 0 00-2.85-1.16c-1-.4-2.19-.56-2.45.23 0 0-.17 0-.18.1s-.08.29 0 .36c.85.78 1.72 1.56 2.56 2.39a27.64 27.64 0 012.4 2.56 33.15 33.15 0 012.79 4.19 1.87 1.87 0 01.07 1.08 1 1 0 01-.68 0c-1.18-.66-1.65-.51-2.8-1.23s-2-1.36-3.08-2c-.51-.3-1.12-.42-1.66-.69-1-.52-1.11.28-1.4.59s-.11.89.12 1.32c.51.95.57 1 1.14 2 .41.7.78 1.43 1.12 2.17a20.37 20.37 0 01.87 2.22c.13.4.22.8.32 1.2a3 3 0 01-.67-.4 4.2 4.2 0 01-.5-.36c-1.44-1.24-2.87-2.51-4.34-3.7a22.64 22.64 0 00-2.22-1.43.22.22 0 00-.22 0c-.67.57-.15 1.65.2 2.59.44 1.14.93 2.32 1.29 3.54a31.49 31.49 0 011.14 5.83 1.83 1.83 0 010 .46 2.25 2.25 0 01-.46-.33L115 93.8a12 12 0 00-4.61-4.07c-.33-.14-1 .29-1 .58 0 1.5.06 3.09.13 4.71a25.73 25.73 0 00.74 3.62 18.09 18.09 0 01.63 3.64 1.92 1.92 0 01-.19.48 2 2 0 01-.45-.36c-.19-.26-.62-1.41-.83-1.64-.76-.84-2.39-3.44-3.13-4.27s-1.46-1.69-2.23-2.42c-.42-.38-1.7.2-1.68.75 0 1.3.08 2.62.1 4s-.05 2-.06 3.47c0 .6.13 1.23.1 1.84a3.12 3.12 0 01-.35 1 .33.33 0 01-.13-.07 6.79 6.79 0 01-.68-.94c-.72-1.31-1.36-1.68-2.06-3-.56-1-1.18-2-1.75-3.08s-1.39-1.58-2.13-1.15c-.43.25-.4.81-.45 1.42a22.18 22.18 0 01-.41 2.55l1.26 4.29c.22-1.1.36-2.22.53-3.32a2.14 2.14 0 01.25-.56 3.32 3.32 0 01.54.52c.34.5.65 1 1 1.54a3.1 3.1 0 01.27.51 17 17 0 00.94 2.13c.69 1.14 1.49 1.26 2.33 2.24.32.39 1 .86 1.34.73a2 2 0 001.26-1.31 35.32 35.32 0 00.37-5.36V98.1a1.8 1.8 0 01.06-.32 1.6 1.6 0 01.27.25c.41.58 1.58 3 2.06 3.55 1.17 1.29 2.48 3.49 3.82 4.56a1.79 1.79 0 001.68 0 2.2 2.2 0 00.78-1.55 39.63 39.63 0 00-.44-4.58c-.09-1.15-1.18-4-1.3-5.07 0-.53-.07-1-.07-1.56 0-.07.34-.17.36-.14 1.1 1.39 2.19 2.79 3.31 4.16.9 1.09 1.82 2.17 2.79 3.2a1 1 0 00.94.19c.86-.69 1.81-1.37 1.49-2.77l-.56-2.57c-.15-.69-.19-1.37-.39-2-.27-.94-.66-1.85-1-2.75a12.17 12.17 0 01-.4-1.3 5.72 5.72 0 01-.09-.91 6.55 6.55 0 01.56.49c.9.94 1.71 2 2.67 2.83 1.13 1 2.43 1.75 3.63 2.64.53.39.92.35 1.21-.08s.54-.82.45-1.17a26.77 26.77 0 00-1.46-3.94c-.73-1.71-.86-2.45-1.65-4.06a3.53 3.53 0 01-.17-.49 2.55 2.55 0 01.59.19c1 .69 1.32.53 2.34 1.15a12.91 12.91 0 002.54 1.16 6.92 6.92 0 002 .63c.92 0 1.89-1.8 1.52-2.64a31.16 31.16 0 00-1.94-3.72 24.56 24.56 0 00-2.08-2.59c-.32-.36-.69-.69-1-1a1.12 1.12 0 01-.1-.22h.21c1 .5 1.91 1 2.88 1.52a15.91 15.91 0 002.22.91c.65.2 2.43.65 3 .89.83.32 2.07-.37 1.94-1.25-.26-1.65-2-3.47-3.3-4.67-1-1-1.88-2-2.83-3s-2.13-2.09-3.22-3.07h.18a21 21 0 003.14.53h-.08a17.32 17.32 0 003.52.38c1.47.13 3 .12 4.43.36 1 .17 1.17-.52 1.43-1a1.33 1.33 0 00-.14-1.19 19.05 19.05 0 00-1.84-1.74c-1.1-1-2.16-2.07-3.31-3l-.26-.2-4.58-.85zm-20.68-49.34q2.4-1.34 4.88-2.62a8.81 8.81 0 01.89-.38c-.16.07-.29 1.19-.36 1.41a22.44 22.44 0 01-1.25 2.74c-.39.87-.77 1.74-1.13 2.62-.26.63-.53 1.29-.78 2a2.36 2.36 0 01-.12.28c-.37.75-.71 1.5-1 2.18-.1.26 0 .32.09.27a1.23 1.23 0 00.54.06c.59-.38.71.08 1.29-.27.75-.43 1.33-.69 2.09-1.15 1.13-.67 2.31-1.49 3.52-2.06a24.6 24.6 0 014.34-1.79 2.27 2.27 0 01.73.07 1 1 0 01-.12.26c-.93.93-2.59 2.38-3.58 3.25-.71.62-1 .82-1.79 1.39s-1.61 1.46-2.28 2.09-1.51 1.62-1.07 2.09c0 0-.05.16 0 .19s.19.15.28.11c1.06-.48 2.15-.91 3.25-1.32a22.54 22.54 0 013.35-1 31.74 31.74 0 015-.53 2 2 0 011 .45.92.92 0 01-.29.62c-1.12.75-1.18 1.26-2.35 2s-2.13 1.16-3.13 1.83c-.5.33-.86.85-1.34 1.22-.92.72-.19 1.25 0 1.75s.88.63 1.4.63c1.13 0 1.2 0 2.35-.06h2.51c.84 0 1.63.12 2.45.21.44 0 .87.13 1.3.2-.17.25-.38.31-.6.5a2.66 2.66 0 01-.5.36c-1.66.93-3.32 1.85-5 2.82a25.24 25.24 0 00-2.15 1.58.23.23 0 000 .21c.26.79 1.36.68 2.43.66h1.93c.63 0 1.25 0 1.88.08a45.67 45.67 0 015.83 1 2.05 2.05 0 01.43.18 1.77 1.77 0 01-.46.31l-3.49 1.05a13.57 13.57 0 00-5.53 2.74c-.26.25-.18 1 .11 1.08.7.25 1.47.47 2.19.72l2.2.77c1.42.49 5.77.81 7.24 1.48.16.07.26.24.39.36a2.3 2.3 0 01-.52.26c-.31.08-1.53 0-1.83.11-1.08.36-4.13.81-5.2 1.16s-2.14.63-3.14 1c-.56.23-.46 1.52.05 1.71 1.24.47 2.4 1 3.61 1.48s1.77.85 3.12 1.46c.56.25 1.19.38 1.74.66a3.23 3.23 0 01.76.72s-.06.08-.11.09a7.25 7.25 0 01-1.13.21c-1.49.09-2.13.5-3.61.57-1.19 0-2.38.17-3.56.24s-2 .53-1.92 1.33c0 .47.59.68 1.11 1a17 17 0 012.06 1.34l4.41.76c-.87-.67-1.77-1.27-2.72-1.88a2 2 0 01-.41-.46 3.32 3.32 0 01.69-.24c.59-.09 1.19-.14 1.79-.2a3.71 3.71 0 01.58 0 16.32 16.32 0 002.31.08c1.31-.13 1.76-.79 3-1.12.5-.13 1.23-.55 1.28-.9a2.08 2.08 0 00-.7-1.69 38.89 38.89 0 00-4.7-2.53c-1.23-.59-2.54-1.11-3.84-1.61a1.06 1.06 0 01-.27-.18 1.53 1.53 0 01.32-.13c.7-.14 3.41-.21 4.07-.43 1.63-.54 4.2-.86 5.73-1.65a1.8 1.8 0 00.7-1.55 2.29 2.29 0 00-1.19-1.32 38.44 38.44 0 00-4.36-1.35c-1.09-.34-4.05-.41-5.16-.67-.52-.13-1-.28-1.51-.45-.07 0 0-.35 0-.36 1.69-.5 3.4-1 5.09-1.53 1.35-.43 2.7-.88 4-1.42a1 1 0 00.54-.8c-.24-1.07-.69-2.14-2.09-2.34-.87-.11-1.73-.25-2.57-.38-.68-.11-1.32-.32-2-.38a29.37 29.37 0 00-3 0 10.37 10.37 0 01-1.38-.07 4.71 4.71 0 01-.86-.22 6 6 0 01.66-.35c1.2-.51 2.45-.91 3.58-1.52 1.32-.71 2.5-1.67 3.77-2.49.55-.36.65-.74.37-1.17s-.58-.81-.95-.85c-1.41-.17-2.84-.19-4.26-.25-1.88-.08-2.64-.33-4.51-.37a3.38 3.38 0 01-.54-.09 1.84 1.84 0 01.4-.47c1-.62 1-1 2-1.66a13.83 13.83 0 002.15-1.81 7.44 7.44 0 001.58-1.55c.43-.83-.77-2.53-1.73-2.57a27.38 27.38 0 00-4.15 0 19 19 0 00-3.23.71c-.47.13-.93.32-1.38.48a1 1 0 01-.24 0s.06-.13.11-.17c.88-.63 1.79-1.24 2.65-1.89a15 15 0 001.81-1.56c.47-.47 1.69-1.87 2.17-2.33.68-.6.62-2-.24-2.3-1.6-.47-4 .52-5.54 1.23-1.24.57-2.46 1.05-3.65 1.65s-2.56 1.39-3.79 2.17l.1-.15a21.91 21.91 0 001.59-2.78v.07a18.29 18.29 0 001.6-3.15c.62-1.34 1.1-2.77 1.76-4.1.47-.94-.17-1.26-.58-1.65a1.38 1.38 0 00-1.21-.19 23.92 23.92 0 00-2.26 1.14l-2.05 1a10 10 0 00-1.66 1.24l-.22.21-2 4c.26-.47.7-.95 1.14-1.44z" fill="currentColor"/></svg>