<svg xmlns="http://www.w3.org/2000/svg" viewBox="0 0 145.16 120.27"><path d="M90.42 1.44l2.64-.24c.83-.05 1.62-.08 2.42-.07a21.29 21.29 0 014.44.52c.29.07.59 1.11.45 1.56s-.86 1.16-1.19 1.11c-2.5-.47-5-1-7.53-1.38a5.2 5.2 0 01-1.32-.2c-.17-.07-.3-.56-.26-.84s.33-.43.35-.46zM83.26 2c-.31 1-1.08.9-1.73 1-1.39.17-2.8 0-4.21.07A14.74 14.74 0 0074.43 3c-.69.14-1.09-.12-1.41-.93a.43.43 0 01.14-.4A21.1 21.1 0 0176.5 1c1.11-.17 2.23-.35 3.38-.56.46-.1.91-.26 1.37-.39.92-.28 2 .62 2.01 1.95zm25.64 2.77c1.36.16 3.53.84 4.49 1a12.69 12.69 0 012.74.71 2.27 2.27 0 01.87 1.34c0 .15-.45.52-.7.79-1.06 1.12-1.89.22-2.8-.14-.47-.21-1.33-.62-2.19-1.05a12.69 12.69 0 00-2.23-1c-1.18-.29-1.24-.62-.46-1.63.12-.09.44-.06.28-.02zm-68.51 7.48a46.27 46.27 0 014.06-3 20.72 20.72 0 014-2c.28-.1 1.09.59 1.23 1s-.07 1.47-.38 1.59c-2.36 1-4.74 1.9-7.07 3a6.91 6.91 0 01-1.21.56c-.18 0-.55-.31-.68-.56a.88.88 0 01.05-.59zm-5.68 4.39c.26 1-.4 1.37-.91 1.78a38 38 0 01-3.49 2.35 16.85 16.85 0 00-2.44 1.55c-.5.49-1 .48-1.69 0a.43.43 0 01-.11-.42c.77-.88 1.59-1.65 2.41-2.42S30.18 18 31 17.16c.32-.35.62-.71.94-1.06a1.8 1.8 0 012.77.54zm22.9-11.85c1.24-.56 3.38-1.35 4.28-1.68a14.63 14.63 0 012.64-1A2.34 2.34 0 0166 2.7c.13.09-.07.68-.12 1-.21 1.55-1.42 1.3-2.36 1.53-.51.13-1.46.24-2.41.37a18.94 18.94 0 00-2.38.5c-1.15.4-1.38.18-1.3-1.1.01-.18.3-.33.18-.21zM5.67 49.54A40.33 40.33 0 017 44.63a22.48 22.48 0 012-4c.17-.24 1.24-.18 1.62.1s.81 1.21.64 1.49c-.62 1.11-1.28 2.19-1.94 3.29s-1.27 2.19-1.86 3.33A5.26 5.26 0 016.88 50c-.12.14-.63.11-.88 0s-.31-.43-.33-.46zm-1.58 6.99c.83.58.58 1.3.46 1.94s-.31 1.35-.47 2-.39 1.35-.58 2a13.82 13.82 0 00-.73 2.77c0 .7-.39 1-1.26 1.16-.11 0-.35-.15-.35-.23 0-1.17 0-2.3.11-3.43s.3-2.24.35-3.43v-1.43a1.8 1.8 0 012.47-1.35zM15 33.23c.64-1.21 2-3 2.54-3.83a12.38 12.38 0 011.63-2.32 2.28 2.28 0 011.54-.36c.16 0 .32.61.49.94.68 1.38-.46 1.84-1.12 2.56-.36.38-1 1-1.75 1.69a11.58 11.58 0 00-1.67 1.75c-.69 1-1 .94-1.69-.14-.11-.16.03-.45.03-.29zm-4 65.29a30.81 30.81 0 01-3.8-3.43c-.47-.59-.93-1.2-1.36-1.82a9.69 9.69 0 01-1.12-2c-.13-.28.49-1.16.93-1.34s1.45 0 1.6.24a17.58 17.58 0 00.9 1.65L9 93.48c.67 1 1.36 2.11 2.09 3.14a4.65 4.65 0 01.81 1c.07.17-.18.61-.4.78a.87.87 0 01-.5.12zm5.69 4.31c.86-.55 1.38 0 1.94.33 1.2.68 2.2 1.68 3.35 2.46a12.25 12.25 0 002.29 1.74c.64.28.81.72.62 1.57 0 .1-.27.27-.35.24-.56-.19-1.09-.4-1.62-.62s-1-.51-1.51-.77l-3.06-1.6c-.43-.21-.89-.36-1.33-.54a1.78 1.78 0 01-.33-2.81zM2 82.06a14 14 0 01-.77-2.34c-.23-.83-.45-1.63-.6-2.1A16.82 16.82 0 010 74.83a2.07 2.07 0 01.79-1.38c.12-.11.66.18 1 .28 1.47.44 1.07 1.56 1.17 2.53a9.54 9.54 0 010 1c0 .42.06.88.09 1.35a16.17 16.17 0 00.3 2.39c.4 1.13.15 1.36-1.13 1.23-.22.01-.32-.29-.22-.17zm55.7 36.37c-1.87.1-3.46.24-5.05.22a21.91 21.91 0 01-4.42-.55c-.29-.07-.59-1.09-.46-1.55s.86-1.18 1.19-1.11c2.51.48 5 1 7.55 1.45a5.71 5.71 0 011.32.25c.17.07.28.56.24.84s-.34.43-.37.45zm7.18-.29c.37-.94 1.14-.85 1.8-.86a27.18 27.18 0 014.22.21 15.76 15.76 0 002.88.27c.71-.08 1.08.22 1.34 1 0 .11-.09.37-.18.39a33.59 33.59 0 01-3.38.43c-1.12.08-2.24.13-3.4.31a13.27 13.27 0 00-1.39.31 1.83 1.83 0 01-1.89-2.06zm-25.67-2.96c-1.34-.2-3.56-.69-4.5-.91a15.66 15.66 0 01-2.77-.59 2.31 2.31 0 01-.91-1.32c-.05-.15.43-.53.67-.8 1-1.14 1.87-.26 2.8 0 .5.16 1.34.62 2.22 1a16.93 16.93 0 002.26.88c1.19.29 1.27.58.51 1.63-.11.17-.44.15-.28.11zm69.39-3.26l-1.13.77-1.1.67c-.71.43-1.4.83-2.11 1.2a20.3 20.3 0 01-4.18 1.58c-.28.08-1-.68-1.12-1.15s.22-1.45.54-1.55c1.21-.4 2.46-.68 3.67-1.08l3.65-1.16a5.24 5.24 0 011.24-.47c.19 0 .53.36.63.62s-.09.54-.09.57zm6.02-3.92c-.17-1 .5-1.33 1-1.72a16 16 0 011.78-1.1c.62-.32 1.25-.64 1.84-1a19.71 19.71 0 002.51-1.4c.55-.44 1-.44 1.69.07a.53.53 0 01.09.43 24.64 24.64 0 01-2.55 2.28l-1.31 1.09c-.46.34-.91.7-1.36 1.08s-.67.67-1 1a1.45 1.45 0 01-1.35.35 2.2 2.2 0 01-1.34-1.08zm-23.91 9.61c-1.28.49-3.51.92-4.43 1.23a12.12 12.12 0 01-2.73.73 2.34 2.34 0 01-1.4-.73c-.12-.11.13-.67.22-1 .36-1.49 1.54-1.1 2.51-1.23s3.84-.13 4.86-.37c1.17-.32 1.38-.06 1.17 1.2-.03.15-.33.28-.2.17zm51.22-43.14c-.05.48-.09.93-.13 1.37s-.13.85-.19 1.27c-.13.82-.28 1.61-.46 2.39a16.62 16.62 0 01-1.54 4.21c-.13.27-1.19.33-1.6.08s-.95-1.12-.81-1.42c1.11-2.28 2.07-4.63 3-7a5 5 0 01.43-1.25c.1-.16.61-.18.87-.09s.4.42.43.44zm.79-7.12c-.9-.49-.65-1.22-.65-1.88a26.61 26.61 0 01.63-4.13 16.57 16.57 0 00.44-2.84c0-.7.29-1 1.14-1.27.11 0 .36.11.37.2a33.25 33.25 0 01.22 3.42c0 1.13-.08 2.25 0 3.44 0 .47.11.94.17 1.42.14.97-1.04 1.87-2.32 1.64zm-8.39 24.29c-.29.62-.7 1.44-1.14 2.19s-.91 1.4-1.15 1.82a12.58 12.58 0 01-1.5 2.44 2.37 2.37 0 01-1.57.38c-.16 0-.34-.59-.51-.91a1.26 1.26 0 010-1.49c.27-.38.67-.72 1-1.1.61-.82 2.73-2.66 3.17-3.62.6-1 .94-1 1.69 0 .12.15 0 .46.01.29zm.03-66.73a43.52 43.52 0 013.42 3.76 20.61 20.61 0 012.34 3.81c.13.27-.49 1.14-.94 1.32s-1.46.05-1.61-.24c-1.16-2.27-2.3-4.55-3.6-6.75a5.63 5.63 0 01-.67-1.15c-.06-.18.25-.59.48-.73a.88.88 0 01.58-.02zm-4.96-5.18c-1 .37-1.4-.26-1.87-.71-1-1-1.83-2.1-2.74-3.17a13.69 13.69 0 00-1.79-2.22c-.55-.44-.61-.9-.23-1.68a.51.51 0 01.4-.16 64.48 64.48 0 015.33 4.32c.37.29.78.54 1.17.81a1.79 1.79 0 01-.27 2.81zm13.47 21.93c.57 1.24 1.14 3.46 1.51 4.37a11.11 11.11 0 01.78 2.74 2.26 2.26 0 01-.7 1.42c-.11.12-.68-.13-1-.21-1.5-.35-1.13-1.51-1.27-2.47s-.35-3.77-.62-4.77-.19-1.37 1.1-1.27c.16.01.33.3.2.19z" fill="currentColor"/></svg>