<svg xmlns="http://www.w3.org/2000/svg" viewBox="0 0 191.06 117.93"><path d="M18.54 39.49c-.67-1.65-1.33-3.36-1.9-5.11-.1-.3-.14-.61-.21-.92 0 .16 1.13.51 1.33.62a24.44 24.44 0 012.46 1.75c.77.56 1.55 1.1 2.34 1.64l1.75 1.17.25.17a11.78 11.78 0 002.17 1.12c.28.1.41 0 .45-.21a1.49 1.49 0 00.31-.68c-.22-.7.34-.83.14-1.54-.26-.91-.34-1.55-.64-2.44-.42-1.31-1-2.61-1.43-3.95a36.26 36.26 0 01-1.21-4.6 2.06 2.06 0 01.15-.76c.09 0 .2.05.26.12.9 1 2.3 2.66 3.14 3.67a18.81 18.81 0 011.31 1.84 27.4 27.4 0 002 2.32c.76.83 1.72 1.47 2.4.84h.23c.04 0 .24-.24.21-.34-.38-1.12-.78-2.24-1.13-3.38a29.84 29.84 0 01-.94-3.44 42.14 42.14 0 01-.49-5 2.29 2.29 0 01.43-1.07.92.92 0 01.64.25c.8 1.09 1.33 1.14 2.07 2.28s1.28 2.08 2 3.07c.35.49.89.83 1.28 1.3.74.89 1.27.15 1.74 0s.55-.91.55-1.41c0-1.11-.05-1.18-.14-2.31a23.12 23.12 0 01-.07-2.5c0-.81.07-1.63.15-2.45 0-.43.13-.85.2-1.28a3.19 3.19 0 01.5.6 3.37 3.37 0 01.35.52c.92 1.66 1.8 3.34 2.79 5a17.63 17.63 0 001.71 2.06.28.28 0 00.27 0c1.02-.56 1.02-1.73 1.1-2.81.08-1.3.06-2.63.18-3.95.1-1 .22-2 .36-3s.33-2 .5-3a2.39 2.39 0 01.18-.44c.12.14.3.26.37.43l1.44 3.34a10.47 10.47 0 003.61 5c.31.2 1.25 0 1.35-.33.48-1.52.85-3.13 1.23-4.75s0-5.86.4-7.43a1.67 1.67 0 01.3-.47 2.55 2.55 0 01.38.43c.14.29.31 1.5.47 1.77.59 1 1.69 3.84 2.29 4.79a32.78 32.78 0 001.86 2.79c.38.49 1.91.05 2-.49.26-1.34.52-2.66.78-4s.47-2 .77-3.41c.12-.61.09-1.26.23-1.86a3.12 3.12 0 01.55-.92s.1 0 .12.08a8.5 8.5 0 01.55 1c.51 1.4 1.13 1.86 1.65 3.24.41 1.11.9 2.21 1.35 3.32s1.24 1.74 2.14 1.39c.52-.2.58-.77.74-1.36a24.52 24.52 0 01.85-2.5l-.73-4.36c-.41 1.07-.72 2.17-1.08 3.25a2.92 2.92 0 01-.36.53 3.85 3.85 0 01-.5-.58c-.28-.54-.52-1.1-.78-1.65a4 4 0 01-.21-.54 14.69 14.69 0 00-.64-2.23c-.54-1.21-1.35-1.45-2.06-2.57-.28-.43-.91-1-1.26-.91a2.26 2.26 0 00-1.49 1.14 46.9 46.9 0 00-1.41 5.23c-.3 1.4-.57 2.79-.83 4.17a1.73 1.73 0 01-.14.31 1.49 1.49 0 01-.23-.28c-.31-.65-1-3.27-1.39-3.87-.93-1.45-1.83-3.9-3-5.22a1.88 1.88 0 00-1.62-.29 2.35 2.35 0 00-1.12 1.39c-.34 1.17-.48 3.35-.68 4.57s.19 4.18 0 5.3a13.78 13.78 0 01-.37 1.57c0 .08-.41.1-.43.06l-2.26-4.83c-.62-1.28-1.26-2.56-2-3.78a1 1 0 00-.88-.41c-1.06.47-2.16.95-2.28 2.36-.07.87-.16 1.77-.27 2.64-.09.71-.29 1.4-.34 2.11-.07 1 0 2-.05 3a8.33 8.33 0 01-.15 1.41 6.39 6.39 0 01-.32.93 6.11 6.11 0 01-.38-.65 38 38 0 00-1.57-3.56c-.75-1.3-1.77-2.43-2.61-3.68-.37-.55-.76-.63-1.21-.32s-.84.61-.89 1a40.58 40.58 0 00-.23 4.27c0 1.89-.29 2.63-.28 4.5a3.55 3.55 0 01-.06.55 1.92 1.92 0 01-.49-.39c-.64-1-1-1-1.71-2a13.37 13.37 0 00-1.91-2.09 7.22 7.22 0 00-1.59-1.39c-.86-.42-2.56.91-2.59 1.88a31.13 31.13 0 000 4.21 24.94 24.94 0 00.67 3.35c.11.48.29.95.43 1.42a.71.71 0 010 .25c-.06 0-.15 0-.18-.1-.63-.88-1.23-1.79-1.88-2.66a15 15 0 00-1.58-1.8c-.49-.46-1.91-1.68-2.35-2.17-.61-.68-2.06-.6-2.36.26a6 6 0 00-.08 2.86 25.91 25.91 0 00.7 2.89c.41 1.32.67 2.67 1 4s.88 2.92 1.36 4.33v.06l-.06-.12a20.74 20.74 0 00-2.55-2l.06.06a17.16 17.16 0 00-3-2c-1.24-.75-2.51-1.43-3.75-2.33-.82-.63-1.28-.07-1.77.27a1.43 1.43 0 00-.45 1.15 21.33 21.33 0 00.76 2.43c.47 1.45.86 2.87 1.45 4.25l.14.3 3.53 2.76c-.31-.69-.58-1.37-.86-2.05z" fill="currentColor"/><path d="M19.26 90.71a53 53 0 01-5.17 1.52c-.31.07-.63.1-.95.14.17 0 .61-1 .75-1.24a25.17 25.17 0 012-2.26l1.9-2.14 1.39-1.6.2-.22a15.32 15.32 0 001.41-2c.14-.25.06-.36-.13-.4a1.24 1.24 0 00-.57-.3c-.69.16-.69-.35-1.39-.21-.89.17-1.54.24-2.42.43-1.31.29-2.66.73-4 .94a29.39 29.39 0 01-4.66.51 2.41 2.41 0 01-.7-.27c.05-.08.09-.18.16-.22 1.12-.7 3.06-1.73 4.22-2.35a21.58 21.58 0 012.08-.93c.81-.36 1.89-1.06 2.69-1.51s1.8-1.31 1.46-1.92c0 0 .09-.15.06-.19s-.15-.21-.26-.19c-1.14.19-2.33.41-3.48.54a27 27 0 01-3.47.22c-.82 0-1.66-.09-2.49-.2s-1.63-.26-2.45-.43a2 2 0 01-.88-.66s.22-.39.42-.48c1.28-.42 1.51-.87 2.82-1.22s2.37-.56 3.54-.91c.57-.17 1.08-.53 1.65-.73 1.09-.38.59-.93.58-1.32s-.59-.65-1.05-.73c-1-.27-1.11-.27-2.21-.51a17.07 17.07 0 01-2.3-.71 23 23 0 01-2.17-.95c-.38-.19-.76-.42-1.11-.64a4 4 0 01.76-.19 4 4 0 01.62-.09c1.89-.14 3.8-.23 5.68-.42.88-.09 1.73-.36 2.59-.53a.22.22 0 00.13-.18c0-.86-.93-1.26-1.91-1.72a34.24 34.24 0 01-3.43-1.71 38 38 0 01-4.83-3.45 2.54 2.54 0 01-.29-.36 1.85 1.85 0 01.56-.08l3.6.55a13.39 13.39 0 006.12-.09c.35-.11.6-.82.39-1-1.09-1.07-2.15-2.15-3.29-3.3s-4.78-3.39-5.77-4.62a1.35 1.35 0 01-.17-.5 2.18 2.18 0 01.57 0c.31.07 1.37.68 1.68.72 1.11.15 4 1.11 5.14 1.28s2.21.4 3.28.49c.59.05 1.08-1.16.76-1.55-.85-1-1.71-2-2.55-3s-1.18-1.58-2.09-2.75c-.37-.48-.86-.9-1.21-1.4a3 3 0 01-.32-1 .32.32 0 01.14 0A8.35 8.35 0 0112 43c1.34.6 2.11.53 3.45 1.16 1.09.5 2.19.94 3.27 1.43s2 .45 2.33-.31c.2-.44-.16-.87-.48-1.38a21.29 21.29 0 01-1.17-2.28l-3.53-2.84c.46 1 1 2 1.51 3a2.3 2.3 0 01.13.59 3.16 3.16 0 01-.75-.11c-.57-.2-1.12-.44-1.68-.66a4.12 4.12 0 01-.52-.24 17.69 17.69 0 00-2-1.16c-1.22-.48-1.94-.09-3.22-.38-.51-.11-1.36-.07-1.56.23a2.2 2.2 0 00-.2 1.87 31.59 31.59 0 003 4.47c.86 1.11 1.75 2.18 2.64 3.21a1.12 1.12 0 01.16.28 2.06 2.06 0 01-.35 0c-.68-.2-3.13-1.36-3.82-1.46-1.69-.25-4.14-1.13-5.87-1.09a1.74 1.74 0 00-1.36 1.12 2.25 2.25 0 00.42 1.73 30.36 30.36 0 003.33 3.2c.82.81 3.51 2.19 4.33 2.9.4.35.78.72 1.14 1.08 0 .06-.12.34-.17.33-1.74-.28-3.49-.59-5.25-.84-1.41-.19-2.8-.36-4.25-.47-.27 0-.8.28-.83.5-.14 1.13-.34 2.31.85 3.11.73.49 1.46 1 2.16 1.49s1.07.9 1.66 1.26c.86.5 1.79.9 2.68 1.32a10.68 10.68 0 011.2.68 6.29 6.29 0 01.66.59 6.45 6.45 0 01-.76 0c-1.29 0-2.59-.23-3.88-.16-1.5.08-2.95.46-4.44.67-.65.09-.9.4-.81.93s.19 1 .51 1.19a31.32 31.32 0 003.82 1.79 41.11 41.11 0 004.07 1.63 5.12 5.12 0 01.47.22 2.58 2.58 0 01-.54.29c-1.19.25-1.28.57-2.44.89a12.28 12.28 0 00-2.6 1 6.7 6.7 0 00-1.83 1 1.66 1.66 0 00-.12 1.62 2.16 2.16 0 001.1 1.33 22.67 22.67 0 004 1 20.29 20.29 0 003.31.06c.48 0 1-.1 1.47-.15a.64.64 0 01.23 0s-.08.12-.14.15c-1 .42-2 .8-3 1.24a15.72 15.72 0 00-2.09 1.35c-.56.36-2.07 1.47-2.64 1.8-.77.43-1.08 1.9-.25 2.36a5.78 5.78 0 002.79.57 21 21 0 003-.29c1.37-.21 2.7-.29 4-.51q2.25-.39 4.35-.93h.07l-.14.12a21.17 21.17 0 00-2.28 2.26h.06a16.83 16.83 0 00-2.33 2.66c-.95 1.13-1.79 2.38-2.81 3.45-.72.75-.22 1.28 0 1.8a1.45 1.45 0 001.13.53 17.1 17.1 0 002.46-.53 40.11 40.11 0 004.33-1.29l.3-.12 3-3.31zM79.1 108.7c-1 1.58-1.91 3.18-2.91 4.75-.17.27-.39.51-.58.76.1-.13-.38-1.18-.43-1.41a22.94 22.94 0 01-.33-3q-.15-1.42-.36-2.85c-.1-.67-.2-1.39-.33-2.09 0-.1 0-.2-.05-.3a10.72 10.72 0 00-.73-2.37.34.34 0 00-.54-.18 1.78 1.78 0 00-.82.25c-.42.65-1 .32-1.39.93-.54.78-1 1.3-1.46 2.13-.7 1.22-1.22 2.56-1.94 3.79a45.88 45.88 0 01-2.48 4.12 2.3 2.3 0 01-.65.43 1 1 0 01-.12-.28c0-1.32.19-3.51.3-4.82a15.73 15.73 0 01.36-2.25 24.07 24.07 0 00.15-3.08c0-1.12-.26-2.27-1.29-2.3-.07 0-.13-.15-.19-.15s-.38 0-.42.11c-.54 1.07-1.05 2.19-1.59 3.25a32.46 32.46 0 01-1.73 3.11 48.57 48.57 0 01-3.09 4.13 2 2 0 01-1 .5c-.06 0-.33-.42-.31-.63.13-1.35-.24-1.73 0-3.08.18-1.2.44-2.4.58-3.61.06-.59-.13-1.21-.11-1.82 0-1.15-.9-1-1.39-1.12s-1.07.3-1.4.68c-.73.85-.75.91-1.44 1.83-.5.67-1 1.3-1.6 1.92s-1.14 1.18-1.73 1.74c-.32.31-.67.59-1 .86a3.5 3.5 0 010-.79 3.26 3.26 0 01.07-.61c.4-1.86.83-3.72 1.14-5.59a15.84 15.84 0 00.05-2.67c0-.08-.11-.17-.19-.2-1.1-.37-1.85.51-2.62 1.32s-1.74 2-2.69 2.86c-1.45 1.38-3 2.76-4.59 4a4 4 0 01-.41.22 1.61 1.61 0 010-.58l1.13-3.46a10.89 10.89 0 00.67-6.13c-.1-.35-.9-.76-1.16-.61-1.31.83-2.62 1.79-4 2.75s-3.9 4.34-5.27 5.21a1.46 1.46 0 01-.52.11 2.69 2.69 0 010-.57c.1-.3.8-1.31.87-1.61.25-1.1 1.44-3.92 1.7-5s.56-2.18.71-3.25c.09-.61-1.17-1.25-1.6-.93-1 .76-2.11 1.53-3.2 2.28s-1.68 1.07-2.93 1.9c-.5.34-.95.8-1.47 1.11a3.05 3.05 0 01-1 .24v-.14a8.54 8.54 0 01.41-1.1c.69-1.31.66-2 1.37-3.35.53-1 1.09-2.09 1.64-3.14s.62-2-.1-2.35c-.42-.2-.88.14-1.41.43a18 18 0 01-2.3 1l-3 3.31c1.05-.38 2-.83 3.06-1.3a2.43 2.43 0 01.6-.1 3.57 3.57 0 01-.16.72c-.24.55-.52 1.09-.78 1.63-.09.17-.18.34-.28.5a18.12 18.12 0 00-1.3 1.93c-.57 1.18-.26 2-.61 3.2-.14.49-.15 1.32.15 1.54a2.15 2.15 0 001.82.36 37.34 37.34 0 004.7-2.68c1.17-.76 2.29-1.54 3.43-2.39a1.66 1.66 0 01.31-.12 2.11 2.11 0 01-.05.35c-.24.67-1.59 3-1.74 3.71-.38 1.67-1.45 4-1.56 5.77a1.8 1.8 0 001 1.4 2.32 2.32 0 001.77-.25 39.56 39.56 0 003.58-2.91c.91-.72 2.64-3.22 3.51-3.94.42-.34.86-.64 1.29-.93.07 0 .36.19.34.24-.51 1.7-1.05 3.4-1.54 5.1-.39 1.36-.76 2.73-1 4.12a1 1 0 00.38.89c1.1.34 2.23.75 3.26-.27.63-.63 1.28-1.23 1.93-1.82s1.13-.86 1.63-1.36c.71-.71 1.34-1.5 2-2.24a9 9 0 011-1 5.42 5.42 0 01.84-.49 6 6 0 01-.13.74 36.14 36.14 0 00-1.16 3.67c-.28 1.48-.26 3-.44 4.49-.08.66.17 1 .71 1a1.9 1.9 0 001.31-.16c1.07-1 2-2 3-3.08 1.29-1.38 2-1.79 3.2-3.19a3.7 3.7 0 01.42-.37 1.89 1.89 0 01.12.61c-.19 1.19.12 1.41 0 2.61a13.3 13.3 0 000 2.82 7.31 7.31 0 00.27 2.09c.38.86 2.52 1.06 3.21.35 1-1 2-2 2.9-3.11a24.57 24.57 0 001.83-2.84c.26-.43.46-.89.69-1.33 0-.08.13-.12.19-.18s.08.14.07.2c-.15 1.08-.34 2.15-.46 3.23a13.54 13.54 0 00-.09 2.38c0 .67.24 2.53.22 3.19 0 .89 1.07 1.87 1.89 1.47 1.51-.72 2.79-3.08 3.63-4.58.68-1.22 1.49-2.35 2.23-3.52s1.61-2.59 2.39-3.93v-.06.18a19 19 0 00.34 3.19v-.09a16.8 16.8 0 00.68 3.63c.26 1.47.66 2.92.78 4.4.08 1 .81 1 1.38 1.16a1.4 1.4 0 001.17-.41 21.92 21.92 0 001.34-2.15c.85-1.28 1.73-2.53 2.51-3.83l.16-.29v-4.47c-.43.59-.83 1.27-1.22 1.91z" fill="currentColor"/><path d="M145.18 97.47c-.21 1.79-.45 3.61-.75 5.44 0 .31-.15.62-.23.94 0-.17-.79-1-.92-1.14a22.25 22.25 0 01-1.42-2.64c-.45-.84-.92-1.69-1.4-2.52-.34-.59-.7-1.22-1.08-1.83l-.15-.26a12.47 12.47 0 00-1.52-2c-.22-.21-.4-.16-.53 0a1.6 1.6 0 00-.63.51c-.12.74-.72.63-.87 1.37-.19.94-.41 1.55-.54 2.49-.19 1.38-.19 2.81-.42 4.2s-.46 3.45-.83 4.73a2 2 0 01-.46.63c-.06-.07-.16-.13-.19-.21-.44-1.24-1-3.37-1.38-4.63a17.23 17.23 0 01-.44-2.23 23.32 23.32 0 00-.92-3c-.36-1.06-1-2-2-1.75-.07 0-.17-.1-.23-.08s-.33.13-.35.24c-.12 1.19-.21 2.39-.35 3.59a26.49 26.49 0 01-.56 3.55c-.45 1.65-1 3.28-1.6 4.9a2.19 2.19 0 01-.84.84s-.47-.27-.52-.47c-.36-1.31-.86-1.52-1.16-2.85s-.45-2.4-.76-3.57c-.16-.58-.57-1.08-.78-1.65-.41-1.09-1.27-.54-1.84-.51-.41 0-1 .66-1.14 1.15a21.41 21.41 0 00-.72 2.27c-.23.81-.51 1.61-.81 2.4s-.63 1.53-1 2.28c-.19.41-.41.8-.62 1.19a3 3 0 01-.3-.72 3.14 3.14 0 01-.19-.59c-.39-1.86-.74-3.73-1.23-5.56a14.8 14.8 0 00-1.11-2.44c0-.06-.18-.1-.28-.09-1.3.12-1.67 1.24-2.07 2.29-.47 1.24-.85 2.54-1.36 3.78-.77 1.9-1.63 3.82-2.49 5.67a2.63 2.63 0 01-.29.39 2.28 2.28 0 01-.27-.51l-.6-3.59a9.74 9.74 0 00-2.45-5.73 1.48 1.48 0 00-1.5 0c-.88 1.4-1.65 2.91-2.4 4.39s-1.26 5.76-2 7.21c-.08.15-.27.25-.4.37a2.1 2.1 0 01-.29-.5c-.08-.31 0-1.53-.12-1.83-.4-1.06-.92-4.09-1.35-5.14a29 29 0 00-1.24-2.87c-.3-.55-2-.4-2.19.11l-1.55 3.76c-.57 1.39-.83 1.86-1.38 3.27-.23.58-.31 1.23-.55 1.79a3.18 3.18 0 01-.71.81s-.09 0-.11-.1a7.34 7.34 0 01-.37-1.12c-.29-1.46-.83-2-1.12-3.48-.24-1.17-.55-2.32-.82-3.48s-1-1.9-2-1.69c-.57.13-.72.68-1 1.24a23.44 23.44 0 01-1.25 2.31v4.47c.57-1 1.06-2 1.59-3a2.2 2.2 0 01.44-.48 3.22 3.22 0 01.41.65c.2.57.36 1.16.53 1.74a3.38 3.38 0 01.12.57 16.05 16.05 0 00.28 2.3c.35 1.27 1.12 1.62 1.65 2.83.2.48.73 1.14 1.1 1.13a2.15 2.15 0 001.69-.84 54.37 54.37 0 002.33-5c.54-1.32 1.08-2.62 1.63-3.94a1.26 1.26 0 01.2-.27 1.39 1.39 0 01.18.31c.19.7.39 3.4.66 4.06.66 1.61 1.09 4.18 1.95 5.66a1.84 1.84 0 001.62.61 2.3 2.3 0 001.38-1.14c.58-1.07 1.17-3.21 1.63-4.33s.74-4.1 1.2-5.17a12.75 12.75 0 01.76-1.47c0-.07.44 0 .46 0 .37 1.74.75 3.46 1.13 5.2.32 1.39.65 2.77 1.06 4.13.08.27.54.65.77.61 1.15-.2 2.34-.37 2.81-1.74q.43-1.26 1-2.49c.28-.66.67-1.28.92-2 .35-1 .59-2 .91-2.91a8.34 8.34 0 01.58-1.34 5.82 5.82 0 01.62-.79 6 6 0 01.19.73 32.85 32.85 0 00.51 3.86c.36 1.45 1 2.83 1.48 4.27.2.63.56.83 1.08.65s1-.35 1.15-.7c.61-1.3 1.07-2.66 1.59-4 .69-1.76 1.18-2.43 1.85-4.19a3.43 3.43 0 01.29-.4c.12.18.3.33.34.52.28 1.18.66 1.27 1 2.43a13.81 13.81 0 001.08 2.61 7.31 7.31 0 001 1.83c.66.66 2.74.06 3.15-.82.6-1.29 1.23-2.56 1.7-3.9a26.74 26.74 0 00.75-3.33c.09-.48.12-1 .18-1.48 0-.08.08-.15.12-.23s.12.11.13.17c.23 1.06.41 2.13.66 3.19a13.69 13.69 0 00.74 2.27c.26.62 1.07 2.3 1.29 2.93.28.84 1.65 1.4 2.28.75 1.16-1.24 1.53-3.88 1.77-5.57.2-1.37.55-2.7.8-4 .27-1.5.5-3 .71-4.54v-.07l.08.17a18.72 18.72 0 001.47 2.85v-.08a17 17 0 001.82 3.07c.78 1.27 1.69 2.48 2.35 3.81.47.92 1.15.67 1.72.55a1.44 1.44 0 00.91-.86 20.73 20.73 0 00.44-2.5c.27-1.5.59-2.94.75-4.46v-.33l-1.83-4.09c-.03.72-.12 1.47-.21 2.2zm36.8-43.52a34.74 34.74 0 014.64 2.6c.26.18.49.39.74.59-.13-.1-1.19.24-1.42.26a23.1 23.1 0 01-3 0h-5.29a18.25 18.25 0 00-2.41.19c-.28 0-.31.17-.21.33a1 1 0 00.19.58c.57.4.17.72.73 1.14s1.17 1 1.92 1.53c1.13.8 2.29 1.53 3.34 2.43a31.67 31.67 0 013.46 3.22 1.82 1.82 0 01.24.7.67.67 0 01-.28 0c-1.26-.38-3.32-1.17-4.55-1.64a20.15 20.15 0 01-2.06-1 29.53 29.53 0 00-2.92-1c-1.06-.36-2.21-.5-2.43.24 0 0-.17 0-.18.09s-.06.28 0 .35c.93.75 1.8 1.5 2.66 2.3a26.37 26.37 0 012.46 2.5c.53.65 1 1.33 1.52 2s.89 1.4 1.32 2.13a2.06 2.06 0 01.09 1.11.91.91 0 01-.68 0c-1.2-.64-1.67-.46-2.83-1.16s-2.05-1.21-3.05-1.81c-.52-.29-1.13-.38-1.67-.64-1-.5-1.18.31-1.5.64s-.1 1 .15 1.42c.51 1 .59 1 1.15 2a21.17 21.17 0 011.1 2.18c.32.73.6 1.49.86 2.25.15.41.25.84.36 1.26a3.17 3.17 0 01-.68-.36 3.85 3.85 0 01-.52-.34c-1.49-1.18-3-2.38-4.5-3.5a19 19 0 00-2.34-1.28.25.25 0 00-.25.07c-.76.73-.29 1.77.11 2.79.47 1.21 1 2.4 1.35 3.65a55.27 55.27 0 011.45 5.87 2.46 2.46 0 010 .47 1.83 1.83 0 01-.5-.27l-2.57-2.64a11.32 11.32 0 00-5-3.53c-.36-.09-1.07.43-1.06.73.09 1.54.3 3.14.5 4.77s2 5.53 2.06 7.14a1.41 1.41 0 01-.15.51 2.26 2.26 0 01-.49-.31c-.22-.22-.77-1.32-1-1.53-.85-.74-2.78-3.13-3.63-3.86s-1.67-1.48-2.55-2.1c-.49-.35-1.76.45-1.69 1 .17 1.34.33 2.66.5 4 .17 1.49.14 2 .3 3.48.06.61.27 1.22.31 1.83a3.25 3.25 0 01-.26 1 .3.3 0 01-.13 0 7.3 7.3 0 01-.82-.85c-.88-1.2-1.58-1.47-2.46-2.67-.7-1-1.45-1.87-2.17-2.81s-1.62-1.37-2.35-.82c-.43.31-.33.88-.31 1.49a22.62 22.62 0 01-.12 2.6l1.83 4.09c.09-1.13.1-2.27.15-3.39a1.91 1.91 0 01.19-.6 3 3 0 01.62.44c.41.44.79.92 1.18 1.38a3.82 3.82 0 01.35.47 15.86 15.86 0 001.21 2c.85 1 1.68 1 2.66 1.9.38.34 1.13.71 1.46.54a2.23 2.23 0 001.14-1.5 37.77 37.77 0 00-.21-5.41c-.13-1.41-.3-2.81-.48-4.19a1.86 1.86 0 010-.33 1.61 1.61 0 01.3.21c.48.53 1.93 2.82 2.48 3.27 1.33 1.13 2.91 3.18 4.38 4.06a1.84 1.84 0 001.71-.25 2.28 2.28 0 00.63-1.66 38.32 38.32 0 00-.86-4.55c-.19-1.14-1.56-3.86-1.77-5a14 14 0 01-.2-1.57c0-.07.34-.21.37-.18 1.24 1.25 2.47 2.53 3.73 3.77 1 1 2 2 3.13 2.89a1 1 0 001 .08c.82-.8 1.74-1.58 1.3-3-.26-.85-.5-1.7-.71-2.55-.18-.69-.25-1.39-.47-2.06-.31-1-.72-1.85-1.09-2.78a9.37 9.37 0 01-.44-1.36 6 6 0 01-.08-.94 5.3 5.3 0 01.6.46c.94.89 1.79 1.9 2.8 2.69 1.19.92 2.55 1.59 3.81 2.43.55.36 1 .29 1.25-.16a1.71 1.71 0 00.42-1.24 37.17 37.17 0 00-1.52-4c-.69-1.69-.84-2.48-1.67-4.13a4.4 4.4 0 01-.18-.51 2 2 0 01.6.16c1 .65 1.33.48 2.37 1.09a13 13 0 002.6 1.11 7.39 7.39 0 002 .6c.93 0 1.87-1.94 1.48-2.8a25.13 25.13 0 00-2-3.7 20.94 20.94 0 00-2.14-2.55 14.6 14.6 0 00-1.06-1 .51.51 0 01-.11-.22h.2c1 .47 1.94 1 2.93 1.43a13.92 13.92 0 002.23.83c.64.18 2.46.57 3.09.78.83.29 2.09-.47 2-1.37-.29-1.67-2.3-3.46-3.56-4.54-1-.89-2-1.85-3-2.71s-2.33-1.82-3.52-2.63h-.06.18a21.25 21.25 0 003.17.24h-.08a16.75 16.75 0 003.54 0c1.47 0 3-.22 4.45-.17 1 0 1.13-.68 1.3-1.23a1.41 1.41 0 00-.37-1.19 16.64 16.64 0 00-2-1.43 29 29 0 00-3.82-2.26l-.3-.12-4.47.14c.56.33 1.21.6 1.85.9z" fill="currentColor"/><path d="M140.24 17.23c1.4-1.17 2.82-2.36 4.29-3.51.25-.2.54-.36.81-.54-.14.09 0 1.23-.07 1.45a22.55 22.55 0 01-.7 2.92c-.22.93-.43 1.86-.62 2.81-.14.67-.29 1.38-.41 2.09 0 .1 0 .2-.05.3a10.51 10.51 0 00-.14 2.49c0 .31.2.4.43.36a1.62 1.62 0 00.84.06c.6-.46 1 0 1.61-.4.77-.56 1.36-.9 2.1-1.53 1.07-.92 2-2 3.12-2.92l1.84-1.58a20 20 0 011.89-1.43 2.29 2.29 0 01.76-.18v.29c-.47 1.23-1.39 3.24-1.94 4.43a16.76 16.76 0 01-1.1 2 21.36 21.36 0 00-1.2 2.85c-.41 1-.54 2.22.42 2.62.06 0 .07.19.13.21s.36.12.44 0c.87-.82 1.72-1.68 2.6-2.5a31.8 31.8 0 012.69-2.33 42.2 42.2 0 014.37-2.81 2 2 0 011.15-.09 1 1 0 01.09.7c-.58 1.23-.36 1.72-1 2.92s-1.22 2.11-1.75 3.21c-.26.54-.28 1.19-.5 1.76-.41 1.08.55 1.22 1 1.56s1.12.1 1.57-.16a22.54 22.54 0 002-1.27c.7-.47 1.43-.9 2.18-1.31s1.51-.75 2.18-1.1c.38-.18.78-.33 1.17-.48a3.19 3.19 0 01-.29.72 3.25 3.25 0 01-.28.56c-1 1.61-2 3.21-3 4.85a22.47 22.47 0 00-1 2.43.23.23 0 00.08.22c.77.57 1.65 0 2.58-.51 1.09-.61 2.21-1.28 3.39-1.82.92-.41 1.82-.77 2.74-1.08s1.87-.61 2.84-.89a2.38 2.38 0 01.46 0 2 2 0 01-.25.5l-2.54 2.61a15.17 15.17 0 00-3.57 5c-.13.32.25.88.54.82l2.18-.45 2.26-.41c.74-.12 2.12-.61 3.53-1a15.47 15.47 0 013.56-.81 1.54 1.54 0 01.48.17 2.63 2.63 0 01-.36.45c-.25.19-1.39.64-1.62.85-.83.75-3.44 2.38-4.28 3.07s-1.73 1.36-2.54 2.05c-.46.39 0 1.28.52 1.24 1.29-.1 2.5-.12 3.81-.11s1.93.11 3.41.21c.61 0 1.24 0 1.83.06a2.85 2.85 0 01.89.44s0 .09-.08.11a7.21 7.21 0 01-1 .52c-1.4.5-1.88 1-3.29 1.46-1.12.36-2.21.74-3.34 1.08s-1.86.87-1.61 1.44c.14.33.71.39 1.29.52a15 15 0 012.32.77l4.47-.14a24.1 24.1 0 00-3.05-1.12 2.29 2.29 0 01-.5-.3 3.46 3.46 0 01.62-.36l1.7-.57c.19-.06.37-.12.56-.16a16.91 16.91 0 002.27-.47c1.23-.44 1.57-1.19 2.66-1.84.43-.25 1-.86.92-1.21a2 2 0 00-1.1-1.44 26.45 26.45 0 00-5.28-.79 35.07 35.07 0 00-4.1 0 1.55 1.55 0 01-.31 0 2 2 0 01.26-.24c.61-.37 3.09-1.45 3.63-1.89 1.32-1.09 3.6-2.37 4.7-3.72a1.8 1.8 0 00-.09-1.71 2.2 2.2 0 00-1.58-.77 29.08 29.08 0 00-4.55.7c-1.13.18-3.83 1.52-4.85 1.79-.51.12-1 .23-1.53.32-.07 0-.19-.27-.15-.3 1.27-1.23 2.55-2.46 3.79-3.73 1-1 2-2.06 2.86-3.16a1 1 0 00.09-1c-.78-.81-1.72-1.57-3-1.09l-2.42.88c-.68.25-1.37.4-2 .69-.91.41-1.77.94-2.63 1.41a11.4 11.4 0 01-1.24.57 8.06 8.06 0 01-.88.19 6.18 6.18 0 01.4-.64 38.24 38.24 0 002.38-3.07c.8-1.27 1.33-2.68 2-4 .3-.58.18-1-.3-1.2s-.93-.42-1.27-.27c-1.28.52-2.53 1.26-3.81 1.94-1.69.9-2.48 1.09-4.13 2a4.81 4.81 0 01-.53.2 2.06 2.06 0 01.09-.62c.57-1.06.35-1.38.87-2.47a13.2 13.2 0 00.9-2.68 7.44 7.44 0 00.44-2.06c-.07-.94-2-1.87-2.88-1.47a42.89 42.89 0 00-3.81 2 28.66 28.66 0 00-2.74 1.99c-.38.31-.73.68-1.1 1-.06.06-.16.06-.24.09s0-.15 0-.21c.51-1 1.06-1.89 1.54-2.87a12.81 12.81 0 00.9-2.21c.19-.65.64-2.46.88-3.08.33-.83-.36-2.13-1.26-2a6.17 6.17 0 00-2.61 1.14 28.59 28.59 0 00-2.36 1.91c-1.06.92-2.21 1.71-3.3 2.57s-2.41 1.92-3.58 2.89l-.05.05a1.54 1.54 0 00.05-.17 19.1 19.1 0 00.78-3.13v.08a16.71 16.71 0 00.67-3.52c.26-1.47.38-3 .77-4.42.27-1-.41-1.26-.91-1.56a1.5 1.5 0 00-1.26 0 23.15 23.15 0 00-2 1.56c-1.22.92-2.46 1.8-3.62 2.77l-.25.22-1.44 4.24zm-65.63-5.98c.7-1.71 1.41-3.42 2.15-5.11.13-.29.31-.56.46-.85-.08.15.55 1.11.64 1.33a25.37 25.37 0 01.77 2.91q.36 1.38.78 2.76c.2.65.41 1.34.64 2l.09.29a10.59 10.59 0 001.07 2.25.34.34 0 00.55.1 1.79 1.79 0 00.76-.36c.31-.69.9-.46 1.22-1.13.42-.86.78-1.43 1.13-2.32.51-1.31.83-2.72 1.36-4a46.91 46.91 0 011.85-4.44c.12-.22.38-.35.58-.52a.92.92 0 01.15.25c.17 1.3.31 3.5.4 4.81a17.35 17.35 0 010 2.28 24.91 24.91 0 00.3 3.07c.14 1.11.59 2.2 1.62 2.08.06 0 .15.14.21.12s.37-.07.4-.17c.38-1.14.72-2.31 1.11-3.44a32.55 32.55 0 011.26-3.33 50.8 50.8 0 012.48-4.51 2.2 2.2 0 011-.67s.4.37.41.58c.07 1.35.5 1.68.51 3s-.07 2.44 0 3.65c0 .6.32 1.19.4 1.79.15 1.15 1.05.81 1.58.91s1-.44 1.31-.89c.6-1 .61-1 1.16-2.06a23.15 23.15 0 011.3-2.15c.45-.67.94-1.32 1.44-2 .27-.35.57-.67.86-1a2.82 2.82 0 01.12.77 4.12 4.12 0 010 .62c-.08 1.9-.19 3.8-.17 5.69a16 16 0 00.44 2.64c0 .07.15.14.24.15 1.22.16 1.83-.84 2.45-1.73.75-1.08 1.43-2.23 2.21-3.3 1.21-1.64 2.51-3.23 3.83-4.82a2.17 2.17 0 01.37-.31 1.56 1.56 0 01.12.56c-.13 1.2-.26 2.41-.4 3.61a10.36 10.36 0 00.72 6.19 1.33 1.33 0 001.38.38c1.19-1.09 2.32-2.32 3.45-3.55s2.85-5.17 4-6.32a1.43 1.43 0 01.48-.23 2.34 2.34 0 01.12.56c0 .32-.44 1.47-.43 1.79.06 1.13-.35 4.19-.28 5.31a33.42 33.42 0 00.3 3.34c.11.6 1.7.92 2.06.49.86-1.05 1.72-2.09 2.58-3.1s1.35-1.48 2.3-2.63c.39-.48.67-1.06 1.08-1.52a3.54 3.54 0 01.92-.56s.07.09.07.13a7.75 7.75 0 010 1.18c-.2 1.47.13 2.17-.07 3.64-.16 1.18-.24 2.37-.36 3.55s.29 2.08 1.26 2.19c.55.09.87-.39 1.29-.83a21.42 21.42 0 011.92-1.76l1.42-4.17c-.85.74-1.64 1.55-2.46 2.31a1.86 1.86 0 01-.56.29 3.46 3.46 0 01-.17-.76c0-.6.05-1.2.08-1.8a3.83 3.83 0 01.07-.58 15 15 0 00.49-2.26c.08-1.31-.53-1.88-.64-3.19 0-.51-.33-1.3-.68-1.41a2.2 2.2 0 00-1.87.27 50.76 50.76 0 00-3.72 3.91c-.93 1.07-1.84 2.19-2.74 3.29a1.89 1.89 0 01-.27.2 1.45 1.45 0 01-.07-.35c0-.72.67-3.35.62-4.06-.14-1.71.24-4.28-.13-6a1.87 1.87 0 00-1.36-1.09 2.24 2.24 0 00-1.65.65c-.85.82-2 2.75-2.81 3.7s-1.87 3.74-2.59 4.63a13.94 13.94 0 01-1.16 1.19c-.06.06-.42-.1-.41-.15.12-1.78.25-3.55.37-5.32.09-1.42.15-2.85.14-4.27 0-.28-.34-.78-.57-.81-1.14-.17-2.35-.22-3.16.95-.5.73-1 1.45-1.56 2.14s-1 1.06-1.37 1.64c-.58.83-1.06 1.72-1.6 2.57a8.07 8.07 0 01-.87 1.13 5.94 5.94 0 01-.77.64 6.42 6.42 0 010-.76 34.15 34.15 0 00.47-3.86c0-1.5-.29-3-.37-4.49 0-.66-.33-.93-.88-.89a2 2 0 00-1.28.39c-.9 1.11-1.66 2.32-2.46 3.49-1 1.54-1.66 2.12-2.68 3.69a3.81 3.81 0 01-.37.43 2 2 0 01-.21-.59c0-1.2-.35-1.38-.4-2.58a13.8 13.8 0 00-.48-2.79 7.26 7.26 0 00-.6-2 1.83 1.83 0 00-1.59-.56 2.31 2.31 0 00-1.63.69 41.16 41.16 0 00-2.42 3.5 26.73 26.73 0 00-1.41 3.07c-.19.46-.32 1-.48 1.42a1 1 0 01-.17.2c0-.07-.1-.13-.1-.19V6.81a14.44 14.44 0 00-.26-2.37c-.14-.66-.6-2.46-.68-3.12-.12-.86-1.34-1.67-2.1-1.15-1.39.93-2.31 3.43-2.92 5-.49 1.31-1.13 2.54-1.69 3.81s-1.2 2.82-1.77 4.25v-.12a19.33 19.33 0 00-.8-3.1v.08a17.14 17.14 0 00-1.09-3.41c-.48-1.41-1.08-2.79-1.42-4.24-.24-1-1-.88-1.54-.92a1.43 1.43 0 00-1.1.6 22.8 22.8 0 00-1 2.3c-.64 1.4-1.33 2.76-1.9 4.17l-.25.35.7 4.42c.3-.7.64-1.41.93-2.11z" fill="currentColor"/></svg>