<svg xmlns="http://www.w3.org/2000/svg" viewBox="0 0 178.96 153.32"><path d="M97.39 5.78h-.68A8.68 8.68 0 0094 6h-.11a3.48 3.48 0 011.06-.14 13.73 13.73 0 002.44-.08zM94 13.9l3-.11c.69 0 1.39-.09 2.08-.14-1.39.03-3.5.12-5.08.25zm.3-2.27c.35 0 .7-.05 1-.05-.3 0-.71.02-1 .05zm2.4 7.52zm-.81 5.69c.45 0 .91.06 1.36 0h.22-1.74zm.38 5.8a7.54 7.54 0 00.83-.12l-.91.13zm-.36 5.59c.78-.06 1.79-.08 2.85-.15h-1.12c-.58-.02-1.15.09-1.73.15z" fill="currentColor"/><path d="M92.2 8.41h.28c.62 0 1.24-.12 1.87-.18h.09c1.35-.12 2.51-.11 3.9-.14h3.25a27.35 27.35 0 013.26.25c.85.1 1.71.23 2.56.28 1.53.07 3.07-.05 4.6.13.85.08 1.69.2 2.53.32l2.52.47c1 .15 1.93.35 2.9.49 2 .25 3.44 1 5.42 1.36a30.58 30.58 0 013.4 1.09c1.52.47 3 1.11 4.49 1.64.72.25 1.42.57 2.13.84l1.2.49 1.4.55.68-.77.25-1.07c-.56-.28-1.07-.58-1.6-.87l-.69-.39-.61-.31a27.31 27.31 0 00-3.24-1.07c-1.14-.35-1.86-.84-3-1.13s-1.93-.83-3-1.12a27.05 27.05 0 01-3.55-1 5.72 5.72 0 00-2.43-.5 8.91 8.91 0 01-1.88-.36c-.39-.08-2.19-.46-2.71-.51l-3.56-.38c-2-.26-4-.37-6.08-.51-.94 0-2-.18-2.93-.17 0 0-.93 0-.93-.08h-3.08a10.22 10.22 0 00-2.2.06 13.73 13.73 0 01-2.46.09 3.48 3.48 0 00-1.11.09 8.56 8.56 0 01-1.87.36l-.15.87zm-.47-5.67c1-.08 1.93-.19 2.9-.21h2.77c1.8 0 3.75.14 5.56.15 1.57.09 3.16-.14 4.75-.09.93 0 1.82.23 2.75.26s2.07.33 3.11.36c1.19 0 2.28.45 3.46.59a23.38 23.38 0 012.86.48c1 .23 1.9.47 2.85.63a67.6 67.6 0 017.61 1.88 41 41 0 014.15 1.48c.72.29 1.44.57 2.14.91l1.05.5 1.29.57c.5.23 1 .44 1.58.66l.73-.87.32-1.2-1.73-.73-1.88-.83c-.54-.23-1.08-.47-1.62-.67l-3.3-1.2c-1.37-.48-2.77-.9-4.16-1.34s-2.81-.75-4.23-1.1-2.79-.62-4.25-.87a42.9 42.9 0 01-3.21-.69A19.21 19.21 0 00114 .8c-1.43-.11-2.53-.19-4-.21s-3-.45-4.35-.43l-3.58.07c-.72 0-1.45-.2-2.17-.22-1.35-.01-2.65.11-4.06.15s-2.84.16-4.3.27v1.19zM92.67 14h.1l1.23-.1c1.59-.13 3.7-.22 5.13-.25h.59c.2 0 .7-.08 1-.12a19.47 19.47 0 012.16 0c1.38.09 2.76.18 4.13.31 1 .08 1.94.06 2.91.15 1.32.17 2.63.43 4 .63l3.36.56 3.34.7c1.24.28 2.46.62 3.68.94s2.15.71 3.24 1 2.08.71 3.12 1.05 2 .69 3 1.1c.59.25 1.21.68 1.84 1l.79-.86.22-1.12-3.33-1.36c-1-.41-2-.75-3.05-1.16s-1.72-.88-2.62-1.19-1.61-.34-2.39-.55c-1-.25-2-.6-3.07-.87A78 78 0 00111.61 12c-1.47-.19-2.94-.29-4.42-.4-2.41-.14-4.86-.43-7.29-.49a10.2 10.2 0 00-1.43.19 7.15 7.15 0 01-1.3.12c-.65 0-.93.09-1.54.11h-.28c-.35 0-.7 0-1 .05l-1.17.08-.65.06-.13 1.13zm.44 5.35h.14c.8 0 1.58-.19 2.38-.2h1.28c.94 0 2.36-.28 3.31-.23a.92.92 0 00.16 0h2.22c1.1.08 2.21 0 3.32.1s2.14.29 3.21.38c1.45.18 2.91.26 4.35.49s2.72.55 4.07.86 2.61.4 3.9.72a22.59 22.59 0 012.24.62c1.38.45 2.8.82 4.15 1.37l2.08.81 2 .94c.36.17.7.39 1.06.56l.78-.87.23-1.13-.77-.33-2.11-.9c-1.53-.61-3.07-1.21-4.62-1.76-1.15-.37-2.28-.79-3.45-1.09a76.46 76.46 0 00-7.75-1.69c-.55-.09-1.11-.19-1.67-.25s-1.3 0-1.93-.1c-.85-.1-1.69-.34-2.54-.44-2.76-.34-4.78-.15-7.54-.28-1.15 0-3.14-.24-4.3-.14-.37 0-.74.13-1.12.15a3 3 0 00-.42 0c-1 0-1.9.12-2.84.18l-.22 1.21zm.47 5.65a6.45 6.45 0 011.21-.15h5.09c.29 0 1.27-.14 2.22-.12.42 0 .83.12 1.25.15.59.05 1.2 0 1.8 0a51 51 0 015.82.56c.92.1 1.84.28 2.76.44.53.09 1 .33 1.55.42 1.5.3 3 .51 4.51.85 1.68.3 3 1.11 4.62 1.56a31 31 0 013.75 1.46 7.89 7.89 0 001.24.44l1 .23.72-.77.21-1.05c-.35-.11-.71-.21-1.06-.33a8.39 8.39 0 01-1.16-.49 12.14 12.14 0 00-2.2-1l-1.78-.56-1.75-.52c-1.16-.38-2.33-.69-3.57-1s-2.32-.65-3.5-.95a39.58 39.58 0 00-6.69-1l-2.22-.2c-1.54-.13-3.09-.09-4.63-.19l-2.48-.16c-.83-.06-1.66-.13-2.49-.13s-1.64.2-2.45.26a17.17 17.17 0 00-2 .24l-.16 1.08zm.48 5.72a12.13 12.13 0 002-.06h.1l.91-.13c.34 0 .68-.08 1-.1a12.88 12.88 0 011.37-.19l1.1-.1h1.16a27.87 27.87 0 013 .19c1.07.11 2.12.29 3 .35 1.22.11 2.19.22 3.17.27s1.94.21 3.15.39c.69.12 1.23.49 1.89.65.9.21 1.84.26 2.72.56.46.15 1 .34 1.46.53a10.41 10.41 0 001.45.55 24.62 24.62 0 012.4.73c.6.23 1.21.44 1.8.72a11.08 11.08 0 001.32.59l.44.18a1.59 1.59 0 01.32.16l1-.56-.07-1.27a1.45 1.45 0 01-.29-.11l-.53-.27-.74-.35c-.48-.24-1-.46-1.56-.71s-1.46-.36-2.13-.66c-.93-.36-1.8-.63-2.66-.9s-1.76-.46-2.7-.78a48.42 48.42 0 00-9.62-1.87h-1.46l-1.72-.09h-1.72c-1.33 0-2.46-.19-3.79-.17-.83 0-1.59.05-2.36.07a9.89 9.89 0 00-1.76.12c-.62.1-1.24.22-1.82.28l-.09 1.08zm.47 5.6l1.3-.08h.08c.58-.06 1.15-.17 1.73-.19h1.12c.37 0 .65.06 1 .07a15.26 15.26 0 002-.11h1.01a14.89 14.89 0 002-.06 11.66 11.66 0 012 .07c.5.06.92-.28 1.43-.06a6.67 6.67 0 00.92.39 5.51 5.51 0 001.14-.11 4.73 4.73 0 01.82.22c.85.19 1.72.52 2.55.75s1.71.22 2.55.48c1 .35 2.09.62 3.08 1.06.4.16 1.17.39 1.58.51a17.44 17.44 0 011.9.75 4.33 4.33 0 001.3.4 2.19 2.19 0 01.51.12 2.16 2.16 0 01.33.14c.13.06.3.15.28.17a1.58 1.58 0 00.15.12l.87-.49v-1.26a.46.46 0 01-.29-.09 2.54 2.54 0 00-.42-.18l-.57-.2a10.28 10.28 0 01-1.11-.47 21.58 21.58 0 00-2.46-1.21c-.77-.29-1.54-.57-2.32-.82l-2.38-.63-2.41-.56c-.69-.19-1.4-.14-2.08-.34-.85-.23-1.35-.21-2.2-.4a13.82 13.82 0 00-3.07-.28h-4.6c-1 0-2-.17-2.93-.23-.52 0-1 .1-1.56.13h-1.24a3.54 3.54 0 00-.46 0c-.66.13-1.16.27-1.7.37l-.09 1.06zm-42.21-18.6l-.61.3a9.84 9.84 0 00-2.35 1.41l-.09.07a4.32 4.32 0 01.9-.59 17.12 17.12 0 002.15-1.19zm.55 8.79c.77-.35 2-1.1 2.69-1.46s1.22-.66 1.81-1c-1.29.59-3.1 1.68-4.5 2.46zm-.72-2.16l.93-.51c-.28.16-.68.36-.93.51zM57.63 30l-.18.09zm1.8 5.49c.4-.2.84-.36 1.22-.6l.18-.12-1.54.78zm2.92 5.03A7 7 0 0063 40l-.75.53zm2.15 5.17c.69-.36 1.54-.92 2.48-1.4a7.17 7.17 0 00-1 .45c-.53.26-.98.66-1.48.95z" fill="currentColor"/><path d="M48.83 22.39l.24-.15 1.61-1h.08a37.57 37.57 0 013.44-1.85c1-.46 1.9-1 2.88-1.49s2-.83 3-1.23a24.6 24.6 0 002.41-.86c1.38-.66 2.73-1.36 4.14-1.94 1.57-.63 3.22-1 4.82-1.57.93-.26 1.87-.52 2.78-.86 1.89-.67 3.45-.69 5.37-1.25 1-.28 2.4-.44 3.46-.62 1.55-.21 3.1-.47 4.65-.64s3-.42 4.47-.5l.21-1-.38-1a19.59 19.59 0 00-2.65-.07c-1.11.12-2.2.37-3.29.58s-2 .18-3.14.41-2 .19-3.1.41-2.34.61-3.53.75a5.16 5.16 0 00-2.36.63 7.83 7.83 0 01-1.8.55c-.39.1-2.15.54-2.63.75-1.09.44-2.21.81-3.31 1.24l-2.82 1.02c-.94.37-1.86.78-2.79 1.17s-1.86.69-2.7 1.14c0 0-.83.4-.85.36-.52.27-.76.39-1.06.53-.57.24-1.24.62-1.71.8a16.64 16.64 0 00-2 1 17.12 17.12 0 01-2.15 1.19 4.32 4.32 0 00-.9.59 12 12 0 01-1.5 1.13l.25.84zm-2.94-4.88c.82-.53 1.67-1 2.53-1.46l2.15-1.13.31-.14c1.64-.75 3.4-1.58 5-2.3.72-.33 1.4-.72 2.09-1.11s1.38-.75 2.1-1.08 1.69-.64 2.54-1 2-.63 2.9-1.07 2.23-.57 3.32-1c1.75-.7 3.69-1 5.49-1.57 1.23-.35 2.46-.71 3.7-1l3.75-.83c1.41-.25 2.83-.45 4.25-.62s3-.23 4.51-.35l1.15-.09.21-1.13-.35-1.2-1.21.1c-2.26.19-4.53.44-6.76.83l-2.11.33-2.09.41-2.08.43-2.06.53-2.06.52c-.68.19-1.35.39-2 .62-2 .63-4.23 1-6.22 1.69-1.31.54-2.3 1-3.59 1.57s-2.83 1-4 1.54-2.08 1.15-3.15 1.66c-.65.3-1.39.44-2 .76-1.27.62-2.4 1.26-3.63 1.95s-2.53 1.39-3.76 2.16l.5 1.08zm5.83 9.65h.09c.3-.17.66-.39 1.06-.61 1.4-.78 3.21-1.87 4.5-2.48l.53-.27a8.13 8.13 0 00.87-.58c.63-.35 1.27-.68 1.93-1 1.24-.58 2.54-1 3.82-1.56.89-.38 1.75-.83 2.67-1.15 1.24-.46 2.52-.82 3.79-1.21 2.15-.71 4.32-1.34 6.5-1.91 1.23-.29 2.44-.64 3.68-.86s2.21-.41 3.32-.58l3.23-.56c1-.14 2.07-.32 3.1-.44.61-.08 1.24.06 1.86 0l.23-1.14-.42-1.06c-1.08.07-2.14.21-3.21.35s-2.13.25-3.2.41-1.9 0-2.84.16-1.55.48-2.34.65c-1 .21-2.06.38-3.09.63a83 83 0 00-10 3c-1.37.54-2.76 1-4.11 1.62-2.21.94-4.52 1.78-6.73 2.79a9.34 9.34 0 00-1.19.82 7.57 7.57 0 01-1.13.66 14 14 0 00-1.32.8l-.24.13-.93.51c-.34.19-.69.37-1 .58l-.55.34.4 1.15zm2.79 4.63l.12-.07c.67-.42 1.35-.84 2-1.21l.77-.41.18-.09.19-.1c.83-.44 2-1.25 2.86-1.67l.14-.08c.65-.35 1.33-.64 2-.94 1-.45 2-1 3-1.38s2-.75 3.05-1.1c.68-.25 1.36-.53 2-.8s1.38-.49 2.07-.72c1.31-.45 2.69-.7 4-1.09s2.53-.79 3.8-1.16c.74-.22 1.52-.31 2.28-.47 1.42-.3 2.87-.54 4.31-.75s3-.29 4.45-.42h1.25l.21-1.15-.39-1.08-.8.05c-.76 0-1.51.16-2.26.23-1.64.15-3.26.4-4.89.62-1.19.16-2.37.42-3.55.64s-2.58.61-3.87.91l-3.82 1.08c-.54.17-1.08.35-1.6.56s-1.17.54-1.77.74c-.81.3-1.65.5-2.47.77-2.61.91-4.33 2-6.86 3.1-1.06.45-2.91 1.22-3.93 1.76-.32.19-.6.46-.93.65l-.36.23c-.83.46-1.67.9-2.47 1.41l.35 1.19zm2.93 4.86a5.77 5.77 0 011-.68l.84-.42 1.54-.78c.23-.12.47-.22.71-.33a12.54 12.54 0 001.48-.7 15.08 15.08 0 012-1.07c.4-.14.79-.28 1.18-.44.55-.23 1.07-.56 1.62-.8a53 53 0 015.48-2.13l2.68-.86c.52-.17 1.09-.15 1.6-.31 1.47-.48 3-.9 4.44-1.34a12.41 12.41 0 012.43-.43c.81-.09 1.61-.18 2.45-.34a29.22 29.22 0 014.06-.49c.85-.07 1.77-.37 2.67-.52l.19-1-.36-1c-.88.14-1.75.32-2.59.37a14.15 14.15 0 00-2.44.13c-2.51.55-4.82.88-7.32 1.48-1.18.29-2.4.44-3.57.77s-2.21.56-3.28.93A25.09 25.09 0 0071 27.85c-.68.3-1.4.51-2.09.8l-4.21 1.91c-1.53.63-3.07 1.26-4.6 1.93-.74.34-1.37.93-2.07 1.34a10.55 10.55 0 00-1.65 1.07l.33 1zm2.96 4.91a19.79 19.79 0 001.77-.92l.08-.06L63 40a7.73 7.73 0 01.86-.54c.39-.2.77-.59 1.16-.77l.93-.59c.34-.19.7-.33 1-.51 1.52-.8 4-1.57 5.6-2.19 2.33-.87 3.66-1.54 6-2.27.69-.21 1.34-.16 2-.32.93-.2 1.81-.6 2.73-.77s2.19-.18 3.16-.4 1.6-.33 2.53-.49a14.76 14.76 0 012-.2c1 0 2-.27 3-.26l.47-1-.64-1a5.16 5.16 0 01-.54 0c-1.29 0-2.2.15-3.5.21-.76 0-1.48.39-2.24.45a22 22 0 00-2.83.46c-.91.17-1.81.37-2.81.55a47.59 47.59 0 00-9.54 2.75c-.46.17-.9.41-1.34.6-1 .5-2.12.94-3.15 1.46s-2.32.89-3.48 1.55l-2.09 1.09a25.29 25.29 0 00-3 2l.4 1zm2.91 4.8c.43-.26.91-.52 1.13-.63h.06c.5-.29 1-.68 1.46-.95a7.17 7.17 0 011-.45 8.93 8.93 0 00.9-.37c.61-.31 1.2-.66 1.79-1l.19-.11.72-.34c1.5-.7 2-1.19 3.59-1.78.5-.16.73-.64 1.28-.69a6.79 6.79 0 001-.09c.39-.11.64-.43 1-.59a5.83 5.83 0 01.85-.19c.85-.27 1.81-.3 2.68-.5s1.68-.61 2.57-.77c1.11-.23 2.22-.38 3.34-.51.44-.06 1.27-.23 1.71-.3s1.62-.24 2.12-.27c1.52 0 1.27-.49 2.8-.45h1l.37-.87-.54-1.08a6 6 0 01-1 .09 23.45 23.45 0 01-2.49.29 24.53 24.53 0 00-2.84.12c-.85.06-1.68.25-2.52.39s-1.66.34-2.48.54-1.65.39-2.47.62-1.35.49-2.06.64c-.88.19-1.31.48-2.19.65a17.51 17.51 0 00-2.92 1.14l-4.17 2a13.6 13.6 0 01-1.38.54c-.45.19-.92.36-1.36.57s-.91.52-1.35.78l-1.08.61a3.18 3.18 0 00-.4.23c-.54.38-.93.72-1.36 1.06l.39 1zM17.44 49.6l-.39.59a8.63 8.63 0 00-1.39 2.47v.1a4.43 4.43 0 01.47-1 15.56 15.56 0 001.31-2.16zm4.84 7.4c.24-.35.52-.86.81-1.36l.8-1.28c.39-.59.72-1.21 1.06-1.83-.76 1.24-1.95 3.03-2.67 4.47zm-1.72-1.51l.54-.93c-.17.27-.4.67-.54.93zm7.59 2.13l-.1.16zm4.3 3.8c.24-.37.56-.71.77-1.09l.1-.19c-.32.47-.66.92-1 1.4zm5.06 2.88c.11-.2.22-.45.34-.72-.13.27-.27.52-.38.79zM42 67.65c.32-.65.86-1.43 1.35-2.28a9.94 9.94 0 00-.62.83 12.29 12.29 0 00-.73 1.45z" fill="currentColor"/><path d="M16.69 55.53l.14-.26c.31-.55.6-1.13.9-1.71l.05-.07c.64-1.24 1.35-2.21 2.11-3.42.59-.94 1.21-1.87 1.84-2.79a24 24 0 012.1-2.59 24.49 24.49 0 001.71-2c1-1.21 1.79-2.53 2.8-3.71s2.35-2.5 3.6-3.67c.72-.68 1.41-1.39 2.09-2.08 1.41-1.47 2.77-2.25 4.27-3.6a15.18 15.18 0 011.38-1.12l1.46-1 1.93-1.37 2-1.31c1.24-.86 2.51-1.67 3.79-2.45l-.26-1-.8-.75c-.79.39-1.66.66-2.42 1.12-.95.58-1.79 1.34-2.7 2s-1.77 1.07-2.68 1.81-1.79 1.06-2.61 1.77-1.87 1.6-2.86 2.3a5.76 5.76 0 00-1.83 1.67 10.87 10.87 0 01-1.38 1.33c-.3.28-1.67 1.52-2 1.9-.79.91-1.58 1.82-2.39 2.7s-1.34 1.56-2 2.34-1.34 1.57-1.95 2.4-1.32 1.55-1.87 2.34c0 0-.55.78-.59.76-.33.52-.48.75-.67 1-.39.51-.83 1.17-1.17 1.57a14 14 0 00-1.2 1.93 15.56 15.56 0 01-1.34 2.16 4.43 4.43 0 00-.47 1 10.16 10.16 0 01-.75 1.8l.64.6z" fill="currentColor"/><path d="M11.67 52.84c.48-.9.95-1.79 1.48-2.66l1.38-2.13.2-.28c1-1.58 2.3-3.17 3.38-4.7 1-1.33 1.77-2.72 2.71-4 .56-.76 1.25-1.37 1.83-2.12s1.45-1.55 2.11-2.37 1.71-1.62 2.51-2.5c1.28-1.44 2.86-2.68 4.25-4l1.42-1.35 1.47-1.27c1-.85 2-1.69 3-2.46A41.47 41.47 0 0141 20.47c1.27-.84 2.59-1.59 3.91-2.34l1-.62-.31-1.11-.89-.87-1 .65c-2 1.13-3.86 2.46-5.74 3.77-1.16.86-2.33 1.69-3.47 2.59s-2.25 1.81-3.32 2.78-2.18 1.88-3.25 2.94a30.64 30.64 0 01-2.45 2.22 22.54 22.54 0 00-2.38 2.3c-1 1.08-1.62 2-2.51 3.15a19.88 19.88 0 01-1.48 1.66c-.51.58-1 1.16-1.42 1.72s-.7 1-1 1.52-.66 1.06-1 1.57-1 1.13-1.48 1.74c-.88 1.2-1.48 2.43-2.28 3.67s-1.5 2.62-2.24 3.93l1 .68zm9.94 5.32l.06-.08.61-1.08c.75-1.44 1.91-3.23 2.67-4.47.11-.18.22-.35.33-.5a10 10 0 00.51-.93c.39-.62.77-1.24 1.2-1.83.83-1.12 1.77-2.14 2.62-3.24.64-.74 1.19-1.55 1.84-2.29.86-1 1.89-1.89 2.8-2.87 1.61-1.61 3.22-3.22 4.94-4.71.93-.86 1.92-1.65 2.9-2.44s1.81-1.36 2.71-2l1.32-1 1.34-.95c.85-.59 1.68-1.25 2.58-1.78.52-.32 1.13-.51 1.68-.81l-.3-1.18-.85-.77c-.91.58-1.83 1.15-2.72 1.74s-1.79 1.22-2.7 1.8-1.68.91-2.46 1.45a21.6 21.6 0 00-1.82 1.63c-.81.69-1.7 1.28-2.49 2a79.7 79.7 0 00-7.54 7.39c-1 1.12-1.95 2.26-2.9 3.41-.74 1-1.53 1.91-2.33 2.84s-1.54 2-2.29 3a7.33 7.33 0 00-.64 1.32A8.32 8.32 0 0122 53c-.39.54-.45.84-.78 1.36l-.15.24-.54.93-.59 1-.31.58.87.73zm4.76 2.55l.07-.11c.4-.69.72-1.42 1.12-2.1l.49-.72.1-.16.12-.18c.54-.77 1.05-2.13 1.65-2.87l.08-.13c.43-.61.84-1.21 1.29-1.81.65-.89 1.3-1.78 2-2.66s1.47-1.57 2.16-2.4c.92-1.12 1.92-2.19 2.9-3.26s2.06-1.87 3.06-2.82 1.85-1.89 2.86-2.75c.59-.51 1.21-1 1.81-1.46 1.16-.88 2.32-1.77 3.52-2.6s2.5-1.63 3.81-2.34c.36-.2.75-.36 1.12-.55l-.34-1.13-.82-.79-.69.42c-.64.39-1.3.77-1.93 1.18-1.37.92-2.76 1.79-4.09 2.77-1 .68-2 1.4-2.89 2.17l-1.54 1.25L40.72 39c-1 .87-2 1.79-2.91 2.72a15 15 0 00-1.17 1.22c-.42.5-.77 1-1.21 1.51-.6.62-1.25 1.19-1.82 1.83a24.77 24.77 0 00-2.36 3c-.69 1-1.39 1.95-2.2 3.07-.34.47-.84 1.08-1.34 1.7s-.91 1.3-1.2 1.8c-.2.32-.31.69-.51 1l-.21.38c-.48.82-.93 1.66-1.4 2.48l.9.85zm5 2.69a6.64 6.64 0 01.52-1.07l.48-.79c.29-.48.63-.93 1-1.4l.43-.62c.34-.45.59-.86.91-1.32.15-.23.6-1.09 1.15-1.84.27-.31.51-.63.79-.93.39-.45.68-1 1-1.46a28.65 28.65 0 011.83-2.26l.94-1.09 1-1c.64-.67 1.27-1.35 2-2 .38-.37.88-.63 1.25-1 .52-.56 1.1-1.06 1.64-1.6s1.08-1.08 1.66-1.59a16.79 16.79 0 012-1.48 20.81 20.81 0 002-1.38 32 32 0 013.38-2.25 20.87 20.87 0 002.16-1.64l-.29-1-.76-.74a15.86 15.86 0 01-2.17 1.46 16.25 16.25 0 00-2.1 1.23c-2 1.58-3.89 2.94-5.86 4.58-.91.79-1.89 1.5-2.81 2.29S41.79 46 41 46.78s-1.53 1.65-2.24 2.53c-.44.59-1 1.12-1.43 1.69s-1 1.2-1.4 1.82-.93 1.23-1.39 1.83c-1 1.32-2.07 2.52-3 3.89a19.05 19.05 0 00-1.12 2.15 15.64 15.64 0 00-.86 1.74l.82.72zm5.05 2.71a9.71 9.71 0 001-1.63v-.08c.11-.27.25-.52.38-.79s.3-.59.46-.86.33-.87.56-1.21l.52-.91.63-.91a16.46 16.46 0 011.8-2.27c.67-.81 1.42-1.54 2-2.18l2-2.4a28.15 28.15 0 012.13-2.32 15 15 0 011.62-1.16c.72-.58 1.27-1.37 2-1.89s1.8-1.18 2.6-1.76 1.23-1 2-1.56c.55-.36 1.1-.73 1.67-1 .86-.5 1.66-1.07 2.53-1.54v-1.11l-1-.64c-.15.1-.31.21-.45.29-1.14.6-1.92 1.07-3 1.74-.65.38-1.18 1-1.8 1.38-1.7 1.06-2.9 2.23-4.52 3.39a46.84 46.84 0 00-7.06 6.72c-.31.37-.56.78-.86 1.16-.72.87-1.36 1.8-2 2.71s-1.48 1.87-2.21 2.92l-1.21 1.93a19.44 19.44 0 00-1.57 3.09l.86.66zm4.95 2.65c.24-.41.5-.85.61-1.05v-.06a12.29 12.29 0 01.73-1.45 9.94 9.94 0 01.62-.83q.28-.36.54-.72a12.64 12.64 0 001-1.61l.1-.17c.16-.22.28-.43.43-.61 1-1.23 1.1-2 2.21-3.12.34-.37.3-.89.74-1.19a6.59 6.59 0 00.85-.51c.29-.26.34-.66.57-1a6.71 6.71 0 01.63-.55c.64-.58 1.44-1 2.07-1.61s1.21-1.24 1.89-1.8c.87-.66 1.77-1.3 2.67-1.91.38-.23 1-.73 1.37-1a13.6 13.6 0 011.75-1.16c1.32-.71.88-1 2.27-1.63.18-.08.52-.26.87-.46l-.06-1-1-.72a5.82 5.82 0 01-.84.54 10.25 10.25 0 00-1 .68 5 5 0 01-1 .67 17.24 17.24 0 00-2.46 1.35 24.07 24.07 0 00-2 1.43c-.64.53-1.31 1-1.92 1.57s-1.24 1.1-1.87 1.63-.91 1.06-1.47 1.49-.91 1-1.58 1.54A8.46 8.46 0 0047 56.68l-.91 1.21c-.45.6-.89 1.2-1.3 1.82s-.89 1.2-1.28 1.8c-.51.76-1.2 1.4-1.75 2.14-.27.41-.46.87-.7 1.29s-.43.65-.62 1a1.83 1.83 0 00-.21.39c-.24.57-.37 1-.57 1.51l.84.65zM6.53 97.66l.12.76a9.1 9.1 0 00.72 3v.12a5.45 5.45 0 01-.37-1.13 20.59 20.59 0 00-.47-2.75zm8.64 2.4c-.08-.44-.25-1-.37-1.6s-.21-1.16-.28-1.55c-.12-.72-.29-1.44-.46-2.15.13.74.3 1.66.47 2.6.1.46.17.94.28 1.4s.25.89.36 1.3zm-2.29.08c-.1-.37-.2-.74-.28-1.11.06.32.19.8.28 1.11zm6.98-3.69v.19zm5.72-.17c-.07-.4 0-.84-.14-1.23l-.06-.19c.08.51.11 1 .22 1.56-.01-.05-.01-.1-.02-.14zm5.65-1.35a4.55 4.55 0 00-.2-.64c.08.24.14.48.22.71zm5.56-.79c-.2-.49-.24-1.24-.43-2 0 .26 0 .53.06.79a5.51 5.51 0 00.37 1.21z" fill="currentColor"/><path d="M10.16 103l-.09-.3c-.17-.67-.38-1.35-.59-2v-.1a35.17 35.17 0 01-.82-4.28c-.22-1.19-.31-2.36-.45-3.55 0-.61-.08-1.2-.1-1.8s.05-1.17.07-1.77c.05-.93.15-1.87.11-2.79.05-1.63-.1-3.29 0-4.92a49.71 49.71 0 01.85-5.33c.21-1 .42-2 .57-3a21.4 21.4 0 01.78-2.78L11 69c.16-.45.31-.91.45-1.41a30.08 30.08 0 011.28-3.43c.66-1.48 1.24-3 2-4.45s1.25-2.83 2-4.16l-.73-.76-1.08-.23a18.12 18.12 0 00-1.54 2.27c-.51 1-.9 2.14-1.33 3.21s-.91 1.87-1.33 3-.93 1.93-1.29 3-.74 2.43-1.19 3.62a6.26 6.26 0 00-.64 2.51 12.51 12.51 0 01-.4 2c-.1.42-.55 2.31-.63 2.85-.12 1.27-.25 2.54-.4 3.81-.17 1.1-.17 2.23-.29 3.32s-.15 2.2-.1 3.32-.07 2.21 0 3.25c-.06 0 .07 1 0 1 .09.66.13 1 .16 1.32 0 .69.14 1.55.15 2.12a13.29 13.29 0 00.41 2.46 20.59 20.59 0 01.5 2.79 5.45 5.45 0 00.38 1.17 11.36 11.36 0 01.77 2h.88z" fill="currentColor"/><path d="M4.7 104.62c-.32-1.11-.64-2.22-.89-3.34-.15-.87-.32-1.89-.48-2.8 0-.13 0-.26-.05-.39-.36-2.1-.38-4.32-.57-6.39-.1-1.78-.33-3.55-.43-5.34 0-1 .19-2 .2-3 0-.57.07-1.15.13-1.72s.18-1.13.2-1.7c.08-1.28.48-2.49.63-3.75a57.48 57.48 0 011.36-6 61.43 61.43 0 012.31-7.84c.55-1.41 1.14-2.81 1.78-4.18s1.47-2.79 2.21-4.19l.57-1-.82-.98-1.22-.29c-.2.38-.41.76-.61 1.12a68.85 68.85 0 00-3 6.51c-.58 1.4-1.17 2.79-1.64 4.24S3.34 66.47 3 68s-.86 2.9-1.09 4.48a33.68 33.68 0 01-.83 3.44 26.94 26.94 0 00-.63 3.53 40 40 0 00-.18 4.4c0 .76-.11 1.59-.2 2.44S0 88 0 88.76c.06 1.37.2 2.72.37 4.11.08.84 0 1.7 0 2.54a16.23 16.23 0 00.36 2.42l.46 2.41a44.64 44.64 0 001.25 5l1.18-.18zm10.81-3.2v-.11l-.32-1.25c-.11-.41-.23-.85-.36-1.3s-.18-.94-.28-1.4c-.17-.94-.34-1.86-.47-2.6 0-.22-.05-.43-.07-.61s-.14-.73-.21-1.08c-.11-.74-.23-1.49-.29-2.25v-4.3c.07-1 0-2 .1-3a13.89 13.89 0 01.27-2c.12-.68.24-1.35.33-2 .14-1.16.43-2.28.64-3.43.12-.56.22-1.14.36-1.7l.45-1.68.5-1.86c.19-.62.41-1.22.62-1.83.38-1.08.76-2.17 1.21-3.21s.8-2.07 1.24-3.09.85-2 1.31-2.9a15.9 15.9 0 011.05-1.57l-.82-.82-1.13-.22c-.54 1-1 2-1.46 3s-1 2-1.39 3-1 1.68-1.37 2.57-.4 1.63-.66 2.41c-.33 1-.77 2-1 3.09L13 73.75c-.22.88-.38 1.77-.56 2.66a54.51 54.51 0 00-.81 5.4c-.15 1.54-.21 3.1-.3 4.65v3.86c0 1.29.09 2.61.16 3.91a6.26 6.26 0 00.39 1.5 9.51 9.51 0 01.32 1.38c.07.69.23 1 .34 1.62l.06.3c.08.37.18.74.28 1.11l.32 1.23.19.68 1.14-.08z" fill="currentColor"/><path d="M20.69 99.89v-.14c-.19-.76-.46-1.49-.64-2.25l-.13-.86v-.4a29.3 29.3 0 01-.66-3.2v-.16c-.07-.73-.15-1.46-.2-2.2 0-1.09-.09-2.19-.11-3.28s.22-2.14.27-3.2l.06-1.08.01-1.12c.07-.72.15-1.44.25-2.16.23-1.36.66-2.69.91-4s.54-2.58.86-3.86c.23-.74.51-1.46.76-2.19.44-1.39 1-2.72 1.59-4.07s1.33-2.66 2-4c.21-.36.48-.69.7-1l-.86-.79-1.12-.27-.39.71c-.38.66-.68 1.36-1 2s-.75 1.48-1.08 2.23l-1 2.28c-.52 1.1-.87 2.26-1.28 3.4a56.75 56.75 0 00-2 7.74 10.69 10.69 0 00-.27 1.68c-.05.65 0 1.31-.11 1.94-.05.43-.15.86-.22 1.29s-.12.86-.16 1.29a19.64 19.64 0 00-.07 3.81c.07 1.2.09 2.41.23 3.8 0 .58 0 1.38.08 2.18a20.21 20.21 0 00.29 2.17c.08.37.24.73.31 1.1 0 .14.06.28.1.43.21.93.49 1.86.73 2.79h1.23z" fill="currentColor"/><path d="M26.13 98.28a6.3 6.3 0 01-.34-1l-.19-.82c-.11-.51-.14-1-.22-1.56l-.08-.7c-.05-.52-.14-1-.18-1.48 0-.26-.23-1.14-.3-2v-1.15c0-.56-.08-1.11-.1-1.67a18 18 0 01.07-2.75l.09-1.37.2-1.37c.15-.88.21-1.76.43-2.63.1-.51.37-1 .46-1.49l.19-1.08.26-1.08.47-2.18c.47-1.59 1.19-2.88 1.81-4.42.22-.62.48-1.24.74-1.84s.62-1.18.93-1.76c.39-.74.61-1.65 1-2.47l-.76-.71-1-.26c-.37.8-.67 1.63-1.07 2.34a12.74 12.74 0 00-1.17 2.1c-.39 1.2-.86 2.3-1.27 3.43s-.82 2.25-1.17 3.45-.78 2.24-1.05 3.39-.52 2.15-.7 3.23-.29 2.17-.34 3.26c0 .72-.08 1.43-.12 2.14v1.11L22.7 88c0 .73.05 1.47 0 2.2.14 1.55 0 3.15.25 4.69a13.13 13.13 0 00.61 2.23 13.78 13.78 0 00.58 1.75l1.07-.09z" fill="currentColor"/><path d="M31.63 96.65a6.79 6.79 0 00-.35-1.56v-.07c-.08-.23-.14-.47-.22-.71a8.15 8.15 0 01-.2-.82c-.06-.34-.33-.73-.37-1.08 0 0-.13-.7-.18-.91s-.05-.64-.1-1a13.67 13.67 0 010-2.57c0-.91.19-1.86.22-2.61 0-1.08.14-2 .2-2.85 0-.44 0-.88.11-1.36s.17-1 .27-1.53a11.72 11.72 0 01.65-1.74c.27-.83.3-1.73.61-2.55s.89-1.84 1.19-2.72.51-1.46.85-2.27a10.64 10.64 0 01.84-1.69c.49-.82.77-1.73 1.31-2.51l-.58-.92h-1.22a5 5 0 01-.24.46c-.66 1.06-1 1.86-1.63 2.94-.37.63-.42 1.4-.75 2-.22.43-.41.85-.59 1.26s-.29.84-.43 1.26c-.26.83-.6 1.65-.89 2.55s-.51 1.5-.75 2.24-.34 1.48-.5 2.22a18.85 18.85 0 00-.37 2.23c-.07.75-.24 1.51-.25 2.27v1.33a28.67 28.67 0 00.05 3.06v1.66c0 .54 0 1.08.09 1.65s.25 1.34.34 2a12.54 12.54 0 00.88 2.9l1.06-.16zM37 95.06c-.07-.35-.16-.71-.2-.87a5.51 5.51 0 01-.38-1.19c0-.26 0-.53-.06-.79s0-.45 0-.7a7.1 7.1 0 00-.24-1.5v-.16a3.13 3.13 0 010-.6c0-1.28-.38-1.78-.18-3.14 0-.41-.31-.75-.14-1.18a7.92 7.92 0 00.37-.78c.09-.33-.11-.64-.11-1a6.62 6.62 0 01.17-.71c.16-.74.58-1.47.75-2.21s.27-1.53.51-2.29a27.44 27.44 0 011.11-2.79l.58-1.45a17.69 17.69 0 01.8-1.77c.74-1.19.23-1.24 1-2.41a8.38 8.38 0 00.5-.76l-.65-.76-1.18-.17a6.23 6.23 0 01-.44.84 22.45 22.45 0 01-1 2.1 15.64 15.64 0 00-1.31 2.28 16 16 0 00-.9 2.15c-.57 1.45-.88 2.93-1.31 4.38a16.46 16.46 0 01-.34 1.86c-.28.75-.13 1.2-.35 1.94a6.17 6.17 0 00-.21 1.33v1.3a17 17 0 00.09 1.91c.06.62.06 1.25.1 1.86s0 1.53 0 2.3c0 .39.21.76.29 1.14s.09.62.15.92a2.58 2.58 0 00.1.33c.21.45.41.77.56 1.14l1-.17zm1.27 42.44l.63.33a9.61 9.61 0 002.61 1.17h.11a3.36 3.36 0 01-1-.38 16.48 16.48 0 00-2.35-1.12zm6.84-5.6l-2.8-1.32c-.62-.33-1.29-.56-1.94-.87.64.37 1.47.71 2.3 1.11s1.69.78 2.44 1.08zm-1.31 1.87a9.57 9.57 0 01-1-.45 8.54 8.54 0 001 .45zm1.3-7.77l.17.09zm3.31-4.7c-.39-.21-.76-.47-1.16-.64l-.2-.08 1.49.8a.57.57 0 00-.13-.08zm2.32-5.3c-.21-.09-.47-.17-.75-.26l.82.29zm2.83-4.87l-2.38-1.07c.29.18.58.36.88.51.49.22.99.37 1.5.56z" fill="currentColor"/><path d="M44.24 137.61l-.24-.11c-.58-.25-1.19-.48-1.79-.7h-.08c-1.29-.54-2.36-1.1-3.64-1.74l-3-1.57a27 27 0 01-2.88-1.9l-1.1-.81c-.36-.29-.72-.57-1.1-.82-.69-.45-1.39-.86-2.09-1.29s-1.38-.94-2-1.44a44.24 44.24 0 01-4.1-3.79c-.76-.75-1.47-1.6-2.25-2.35a13 13 0 01-1.97-2.46c-.55-.83-1.14-1.62-1.8-2.54a39.3 39.3 0 01-2-3.44l-1.2-2.41c-.37-.81-.79-1.6-1.08-2.44l-.92-2.38-.45-1.2-.39-1.22h-1l-.93.62c.1.5.15 1 .24 1.51a12.42 12.42 0 00.4 1.48 28.9 28.9 0 001.61 3.54c.64 1.21.91 2.15 1.57 3.35s1 2.14 1.71 3.2 1.66 2.26 2.37 3.46a5.83 5.83 0 001.79 2.16 11.07 11.07 0 011.46 1.59c.16.16.55.67 1 1.13s.91.92 1.14 1.1c1 .88 2 1.78 3 2.57.88.68 1.74 1.43 2.64 2.05l2.71 1.89c.86.57 1.76 1.22 2.65 1.71 0 .05.85.51.83.56.55.3.81.41 1.12.58.56.32 1.28.7 1.73 1a10.14 10.14 0 002.06 1 16.48 16.48 0 012.31 1.09 3.36 3.36 0 001 .38 9.72 9.72 0 011.85.54l.53-.7z" fill="currentColor"/><path d="M42.11 142.88c-.94-.38-1.87-.72-2.78-1.17L37 140.57l-.3-.17c-.85-.42-1.71-1-2.58-1.45s-1.73-1-2.56-1.5-1.49-.85-2.26-1.24l-1.15-.59c-.38-.22-.75-.45-1.12-.69-.87-.56-1.6-1.23-2.46-1.79s-1.78-1.55-2.74-2.22S20 129 19 128.16c-.41-.35-.82-.73-1.21-1.11s-.75-.84-1.12-1.27l-2.2-2.56c-1-1.17-1.93-2.35-2.83-3.59s-1.68-2.57-2.5-3.88c-.81-1.52-1.56-3.1-2.27-4.68s-1.19-3.43-1.77-5.14l-.38-1.31H3.56l-1.06.7c.14.47.28 1 .41 1.41a51.36 51.36 0 003.17 7.74l1.18 2.35L8.6 119c.46.73.92 1.47 1.41 2.19s1 1.38 1.56 2.06 1 1.38 1.6 2 1.12 1.25 1.73 1.88c.44.45.86.93 1.28 1.42l1.29 1.45a21.74 21.74 0 002.7 2.65c1.3 1 2.32 1.76 3.65 2.64s2.63 2.15 3.93 2.86L31.2 140c.68.37 1.27.91 1.95 1.3 1.33.79 2.61 1.27 4 1.92s2.76 1.24 4.14 1.8l.57-1zm4.23-10.45l-.09-.05-1.14-.48c-.75-.3-1.6-.7-2.44-1.08s-1.66-.74-2.3-1.11l-.52-.29c-.18-.1-.67-.27-1-.4a16 16 0 01-2-1c-1.19-.78-2.38-1.53-3.52-2.39-.81-.6-1.72-1-2.49-1.71-.54-.44-1.06-.9-1.57-1.36l-.78-.69-.74-.74a50.3 50.3 0 01-4.89-5.21l-1.21-1.6-.6-.8-.54-.85c-.6-1-1.27-2-1.79-3.1l-1.6-3.11c-.41-1-.86-2-1.25-3.09a11.4 11.4 0 01-.4-1.93h-1.16l-1 .65a27.66 27.66 0 001.17 3.31l.63 1.65c.21.54.5 1.06.73 1.61.45.93.67 2 1.15 2.9.44.76 1.07 1.42 1.55 2.16a33.78 33.78 0 001.93 2.84 47.4 47.4 0 003.68 4.32 48.88 48.88 0 004.17 3.74c.61.49 1.21 1 1.83 1.47l1.91 1.33c1 .75 2.09 1.42 3.14 2.14s2.12 1.38 3.21 2a12.11 12.11 0 001.39.53 7.88 7.88 0 011.24.51c.58.32.89.35 1.44.62l.26.12a9.57 9.57 0 001 .45l1.1.47.61.24.63-.94z" fill="currentColor"/><path d="M48.37 127.43l-.13-.06c-.72-.32-1.49-.54-2.2-.9l-.77-.4-.17-.07-.2-.09a15.26 15.26 0 00-1.52-.63 13.09 13.09 0 01-1.49-.71l-.15-.07c-.64-.36-1.31-.66-1.93-1.08-.91-.62-1.91-1.09-2.81-1.72s-1.69-1.32-2.54-2c-1.1-.93-2.32-1.73-3.33-2.77-.49-.47-1-1-1.45-1.46s-.87-1.06-1.33-1.57c-.92-.93-1.75-1.94-2.59-3a15.42 15.42 0 01-1.25-1.9c-.36-.63-.81-1.21-1.11-1.86l-.95-2c-.16-.33-.33-.66-.46-1l-.36-1-.71-2.09a12.29 12.29 0 01-.23-1.21h-1.17l-1 .6.21.79c.22.74.52 1.45.78 2.18a41.52 41.52 0 002 4.6c.53 1.11 1.23 2.12 1.86 3.18s1.59 2.18 2.39 3.26 1.77 2 2.73 3c.42.4.83.79 1.27 1.16s1 .79 1.55 1.19c.67.55 1.27 1.18 1.93 1.75a35.47 35.47 0 003.15 2.15c1.06.57 2.09 1.19 3.28 1.9a40.08 40.08 0 003.75 2.17c.34.15.72.22 1.07.38a3.7 3.7 0 00.4.16c.85.43 1.74.76 2.61 1.14l.75-1z" fill="currentColor"/><path d="M50.5 122.17a7.51 7.51 0 01-1.13-.4c-.27-.14-.56-.25-.83-.39l-1.49-.8-.67-.35c-.49-.26-.89-.53-1.38-.77-.24-.13-1.14-.46-1.93-.92-.32-.24-.63-.49-1-.71s-1-.54-1.51-.83l-2.27-1.57c-.72-.56-1.39-1.16-2.09-1.73s-1.24-1.2-1.87-1.78a11 11 0 01-.91-1.16L32 109.25c-.43-.54-.88-1.07-1.33-1.59a8.11 8.11 0 01-1.15-1.89c-.33-.65-.65-1.28-1-2s-.56-1.07-.81-1.62a16.46 16.46 0 01-.6-1.71c-.23-.72-.74-1.42-1-2.2h-1l-.92.54c.26.79.66 1.51.87 2.26a8.71 8.71 0 00.69 2.15 50.19 50.19 0 003.59 5.9c.34.45.65.92 1 1.4s.7.89 1.07 1.33.68.82 1 1.21l1.15 1.12a17.51 17.51 0 002.49 2q.43.31.84.66t.87.63c.61.41 1.22.83 1.85 1.23s1.3.75 1.92 1.16 1.36.86 2 1.3 1.36.89 2.08 1.27 1.53.56 2.26.88a14.65 14.65 0 001.83.66l.63-.89z" fill="currentColor"/><path d="M52.65 116.85a12.48 12.48 0 00-1.74-.82h-.09l-.82-.33a8.83 8.83 0 01-.9-.35 9.4 9.4 0 01-1.23-.44l-.94-.39c-.32-.17-.63-.34-1-.5-.68-.38-1.47-.94-2.27-1.49s-1.47-1.2-2.1-1.62c-.8-.69-1.52-1.17-2.18-1.68a24.78 24.78 0 01-2-1.78c-.39-.44-.56-1-.92-1.39-.46-.6-1-1.12-1.45-1.74s-.7-1.6-1.15-2.23-.63-1.11-1-1.76c-.11-.23-.24-.45-.34-.69s-.15-.5-.21-.76a20.76 20.76 0 01-.73-2.23l-1-.17-.93.75a3.52 3.52 0 01.13.43c.24 1 .55 1.73.82 2.78.21.59.71 1 .93 1.63a6.37 6.37 0 00.5 1.09c.2.34.41.66.61 1l.6 1c.24.32.47.65.7 1a23.62 23.62 0 005.86 6.17 7.48 7.48 0 001.11.71 30.1 30.1 0 002.68 1.66c.54.3 1 .64 1.47 1s1 .61 1.55.89 1.34.68 2 1a8.91 8.91 0 001.55.68c.58.18 1.17.35 1.7.55l.56-.93z" fill="currentColor"/><path d="M54.76 111.65l-1.13-.49h-.07c-.51-.19-1-.34-1.5-.56-.3-.15-.59-.33-.88-.51s-.48-.34-.73-.47a11 11 0 00-1.64-.75l-.17-.09-.57-.35a14.51 14.51 0 00-1.5-.77 10 10 0 01-1.38-.87c-.35-.24-.77-.16-1-.54a3.59 3.59 0 00-.41-.69c-.22-.22-.6-.2-.82-.38s-.26-.36-.4-.51a7 7 0 01-.64-.78 8.21 8.21 0 00-.52-.82 5.3 5.3 0 00-.68-.66 5.08 5.08 0 01-.58-.72c-.2-.32-.43-.63-.61-1l-.49-1a3.65 3.65 0 00-.3-.5l-.24-.5c-.15-.3-.46-1-.58-1.26-.19-1-.59-.7-.77-1.7 0-.12-.06-.4-.12-.66l-.9-.07-1 .62a5.31 5.31 0 01.21.7A9.9 9.9 0 0136 98a10.88 10.88 0 00.58 1.92l.15.42.23.39.46.79a10.76 10.76 0 001.03 1.48l.54.75c.22.23.43.47.63.71.36.42.77.74 1.15 1.16s.79.72 1.25 1.26a9.85 9.85 0 002 1.53c.57.33 1.12.66 1.67 1s1.18.63 1.75 1 1.46 1 2.2 1.46a9.77 9.77 0 001.33.55c.35.15.69.34 1 .5a3.52 3.52 0 00.4.18c.61.17 1.1.26 1.59.41l.56-.91zm28.64 35.92h.66a9.3 9.3 0 002.64 0h.11a3.35 3.35 0 01-1 .05 14.4 14.4 0 00-2.41-.05zm3.85-7.88c-.83-.08-2.27-.07-3-.09s-1.38 0-2.06 0c1.4.11 3.48.04 5.06.09zm-.46 2.23h-1c.26-.01.71 0 1 0zm-1.87-7.65zm1.2-5.64c-.46 0-.93-.11-1.38-.1h-.23l1.77.11zm.01-5.82c-.24 0-.55 0-.86.08l1-.08zm.79-5.54h-3a11.76 11.76 0 001.18.11c.58-.01 1.2-.12 1.82-.11z" fill="currentColor"/><path d="M88.6 145.31h-2.19c-1.32 0-2.45 0-3.79-.1-1.05-.08-2.1-.07-3.15-.13a27.48 27.48 0 01-3.14-.39 23.15 23.15 0 00-2.46-.36c-1.48-.07-3-.07-4.43-.2-1.62-.13-3.26-.53-4.89-.77-.94-.18-1.88-.37-2.83-.47-2-.23-3.37-.91-5.33-1.24-1-.21-2.34-.68-3.37-1-1.49-.5-3-1-4.48-1.5s-2.89-1-4.3-1.57l-.65.8-.12 1.1a21.28 21.28 0 002.39 1.28c1.06.39 2.18.66 3.26 1s1.87.72 3 1 1.91.74 3 1 2.36.49 3.48.89a5 5 0 002.36.47 7.71 7.71 0 011.83.31c.38.09 2.12.47 2.62.5 1.15.1 2.3.28 3.42.39 1.94.19 3.86.46 5.8.59.9.08 1.9.26 2.81.29 0 .05.88.07.88.11h1.15c.59.05 1.34.07 1.82.15a12.25 12.25 0 002.12.07 14.4 14.4 0 012.38 0 3.35 3.35 0 001-.05 11.36 11.36 0 011.81-.2l.2-.86zm.05 5.69h-2.81c-.72 0-1.57-.08-2.33-.1h-.32c-1.73-.14-3.58-.34-5.3-.44-1.49-.13-3 0-4.52-.07-.88 0-1.7-.27-2.58-.32s-2-.33-2.93-.36-2.18-.5-3.31-.59c-1.83-.15-3.66-.75-5.49-1q-1.86-.33-3.72-.72l-3.72-.92c-1.39-.39-2.76-.85-4.13-1.32s-2.85-1.15-4.28-1.74l-1.1-.45-.71.91-.16 1.12 1.17.47c2.16.87 4.36 1.66 6.54 2.31l2.06.63 2.05.56c1.37.38 2.73.7 4.1 1s2.7.59 4.1.78c2 .32 4.09 1.05 6.12 1.27 1.34.11 2.37.15 3.71.23s2.8.47 4.08.53l3.39.07c.68 0 1.35.27 2 .32 1.34.12 2.58.08 3.93.1s2.75.06 4.13 0l.12-1.18zm-.09-11.27h-1.31c-1.58-.05-3.66 0-5.07-.09h-.58c-.2 0-.7 0-1 .06h-2.14c-1.35-.13-2.69-.33-4-.46-1-.08-1.9-.12-2.85-.24-1.3-.17-2.58-.41-3.88-.65-2.21-.34-4.42-.73-6.62-1.19-1.23-.29-2.46-.52-3.67-.87s-2.16-.6-3.23-.93L51 134.3c-1-.33-2-.63-3-1a15.52 15.52 0 01-1.66-.88l-.73.91-.1 1.14c1 .43 2 .79 3.06 1.14s2 .73 3.07 1.06 1.73.83 2.63 1.11 1.6.26 2.38.46c1 .26 2 .56 3 .79a92 92 0 0010.19 1.75c1.43.15 2.86.37 4.3.48 2.34.19 4.72.61 7.09.78a9.67 9.67 0 001.41-.11 11 11 0 011.28 0 15.18 15.18 0 001.52 0h3.06l.22-1.12zm-.04-5.4h-3.81c-.95 0-2.38.11-3.33 0h-.16c-.74 0-1.48-.07-2.23-.13-1.1-.12-2.21-.15-3.32-.25s-2.14-.33-3.21-.47c-1.45-.18-2.92-.27-4.36-.53s-2.72-.57-4.08-.82-2.62-.42-3.93-.66c-.77-.13-1.5-.39-2.25-.59-1.42-.35-2.82-.77-4.2-1.23s-2.79-1.05-4.17-1.6c-.38-.17-.73-.4-1.1-.58l-.7.94-.15 1.14.75.31c.69.31 1.42.53 2.12.81 1.54.59 3.11 1.09 4.67 1.61 1.14.38 2.31.67 3.47 1s2.57.6 3.86.9 2.59.51 3.9.73c.55.09 1.11.18 1.67.23s1.28.06 1.91.13c.85.11 1.68.32 2.53.46a26.86 26.86 0 003.74.32c1.19 0 2.37.13 3.74.22 1.15.08 3.12.42 4.27.4.38 0 .75-.1 1.12-.09h.43c1 0 1.89.06 2.84 0l.3-1.2zm-.04-5.68a5.78 5.78 0 01-1.24 0h-1l-1.77-.11h-.79a15.67 15.67 0 00-1.67-.14c-.29 0-1.31.06-2.29 0l-1.27-.2c-.61-.08-1.24 0-1.86-.08-2-.09-4-.43-6-.67l-2.83-.47c-.54-.08-1-.36-1.58-.44-1.55-.24-3.08-.52-4.61-.79a12.23 12.23 0 01-2.39-.69c-.76-.27-1.52-.54-2.34-.78a26.59 26.59 0 01-3.82-1.34c-.79-.31-1.73-.46-2.59-.72l-.63.83-.14 1.06c.84.27 1.69.5 2.46.83a14.14 14.14 0 002.23 1c2.48.61 4.7 1.33 7.22 1.91 1.19.27 2.36.66 3.56.9s2.24.48 3.38.65a25.75 25.75 0 003.42.39c.76.05 1.51.19 2.27.27 1.56.15 3.14.17 4.7.36s3.35.4 5 .56c.82.06 1.68-.12 2.5-.12a11.14 11.14 0 002-.07l.25-1.07zm-.05-5.74a18.29 18.29 0 00-2.09-.11h-.1l-1 .08a9.66 9.66 0 01-1.07 0 14.13 14.13 0 01-1.45.1h-2.36a28.72 28.72 0 01-3.14-.34l-3.12-.45c-2.6-.31-4.13-.32-6.65-.74-.71-.13-1.29-.48-2-.63-.93-.23-1.9-.27-2.82-.54s-2-.8-3-1-1.57-.41-2.47-.68a11.86 11.86 0 01-1.83-.69c-.89-.41-1.85-.62-2.7-1.07l-.85.68.09 1.22c.16.06.34.12.48.19 1.13.55 2 .83 3.16 1.35.69.29 1.5.3 2.2.58a21.77 21.77 0 002.73.84c.89.24 1.8.46 2.79.75a56 56 0 0010 1.89c.5.06 1 0 1.53.09 1.2.1 2.4.15 3.59.22 1.39.1 2.56.3 3.94.35.86 0 1.65.08 2.44.08a31.41 31.41 0 003.72-.13l.18-1.07zm-.04-5.61h-1.47c-.62 0-1.24.1-1.86.08a11.76 11.76 0 01-1.18-.11c-.35 0-.7-.11-1-.13a16.15 16.15 0 00-2.2 0h-.23c-.31 0-.6 0-.86-.06-1.78-.18-2.52.1-4.3-.18-.55-.09-1 .22-1.57 0a6.63 6.63 0 00-1-.4 7.08 7.08 0 00-1.23.07 7.13 7.13 0 01-.88-.23c-.93-.16-1.83-.56-2.72-.77s-1.84-.22-2.72-.48c-1.12-.3-2.2-.64-3.27-1-.42-.14-1.24-.35-1.65-.48s-1.54-.49-2-.69c-1.33-.64-1.32-.11-2.62-.8a8.73 8.73 0 00-.83-.42l-.7.62v1.2a4.26 4.26 0 01.9.35 22.86 22.86 0 012.28.81 22.69 22.69 0 002.56 1.15c.78.31 1.62.52 2.43.76s1.66.43 2.5.62 1.68.38 2.54.56 1.47.17 2.2.36c.9.23 1.44.18 2.34.43a21.6 21.6 0 003.32.35c1.65.1 3.3.1 4.94.24 1 .05 2.07.27 3.11.38a13 13 0 001.65 0h1.31a4 4 0 00.49 0c.7-.07 1.24-.13 1.81-.21l.18-1.06zm40.68 22.55l.64-.27a10.5 10.5 0 002.52-1.2l.1-.07a4.15 4.15 0 01-1 .51 15.28 15.28 0 00-2.26 1.03zm.27-8.85c-.8.28-2.13.92-2.83 1.22l-1.91.88c1.4-.46 3.26-1.44 4.74-2.1zm.53 2.23l-1 .43c.31-.12.73-.3 1-.43zm-4.97-6.12l.17-.07zm-1.33-5.6c-.41.16-.86.28-1.25.47l-.19.11 1.58-.63zm-2.47-5.27a5.62 5.62 0 00-.7.42l.77-.45zm-1.72-5.31c-.69.29-1.56.71-2.47 1.13a7.42 7.42 0 001-.35c.51-.22.96-.56 1.47-.78z" fill="currentColor"/><path d="M133 135.46l-.25.13c-.56.3-1.15.55-1.72.85h-.09c-1.24.6-2.33 1.07-3.64 1.58-1 .37-2 .82-3.06 1.21a23.16 23.16 0 01-3.15.92c-.84.21-1.7.36-2.51.65-1.44.51-2.87 1.06-4.34 1.5-1.62.5-3.3.69-5 1-1 .21-1.9.35-2.84.57-1.93.46-3.47.38-5.42.7a33.2 33.2 0 01-3.45.29l-4.62.23c-1.46 0-2.93.12-4.4.14l-.28 1 .3 1.05c.86.06 1.71.27 2.57.27a30 30 0 003.25-.3c1.14-.13 2 0 3.1-.12s2 0 3.07-.11a35 35 0 013.55-.38 5.61 5.61 0 002.38-.41 8.07 8.07 0 011.84-.33c.4 0 2.18-.36 2.68-.49 1.13-.33 2.28-.55 3.42-.89 2-.56 3.92-1 5.85-1.68.9-.29 1.94-.52 2.83-.86 0 .05.88-.3.89-.27l1.12-.46c.59-.21 1.32-.5 1.81-.64a11.84 11.84 0 002.07-.84 15.28 15.28 0 012.29-1 4.15 4.15 0 001-.51 14 14 0 011.63-1l-.18-.87zm2.58 5.1a27.87 27.87 0 01-2.72 1.26c-.72.29-1.56.65-2.3 1l-.32.12c-1.74.64-3.63 1.23-5.35 1.87-1.51.5-2.94 1.22-4.44 1.77-.88.34-1.78.42-2.65.71s-2 .44-3 .79-2.27.32-3.4.64a56.21 56.21 0 01-5.58 1l-1.86.37-1.87.26c-1.24.16-2.49.34-3.74.47s-2.79.18-4.19.22-2.92-.05-4.38 0h-1.11l-.29 1.11.3 1.2h4.46c1.1 0 2.2-.13 3.3-.19 2.75-.14 5.53-.47 8.29-.86 1.4-.25 2.74-.43 4.14-.72 2-.45 4.29-.51 6.34-1 1.36-.4 2.4-.77 3.75-1.2s2.94-.68 4.23-1.14c1.13-.43 2.23-.88 3.36-1.35.69-.26 1.44-.34 2.14-.58s1.33-.51 2-.77 1.26-.6 1.93-.89c1.31-.58 2.71-1.17 4-1.87l-.4-1.12zm-5.02-10.1h-.1c-.31.16-.69.34-1.12.52-1.48.64-3.37 1.62-4.74 2.1l-.55.2c-.19.07-.63.32-.94.48-.66.29-1.32.6-2 .84l-4 1.16c-.93.3-1.85.61-2.79.86-1.29.33-2.6.58-3.9.81l-3.32.69-3.33.54c-1.24.22-2.49.35-3.73.48s-2.22.22-3.34.27l-3.23.26c-1 .09-2.07.14-3.1.17-.61 0-1.22-.13-1.83-.15l-.32 1.12.34 1.09c2.13-.08 4.22-.12 6.36-.24.93 0 1.87.14 2.81.1s1.58-.33 2.37-.43c1-.14 2.08-.14 3.11-.3 1.72-.29 3.44-.51 5.14-.86s3.42-.67 5.1-1.15c1.42-.41 2.86-.73 4.27-1.19 1.15-.38 2.33-.71 3.51-1s2.35-.74 3.51-1.12A11.32 11.32 0 00126 135c.4-.19.78-.43 1.19-.58.62-.23.84-.44 1.4-.69l.26-.11 1-.43 1.09-.48.58-.31-.29-1.1zm-2.41-4.83l-.13.06c-.7.36-1.41.71-2.14 1l-.81.33-.17.07-.2.09c-.86.38-2.1 1.09-3 1.39l-.15.07c-.69.26-1.37.53-2.08.78-1.06.32-2.09.72-3.15 1.05s-2.09.51-3.14.77c-1.4.37-2.8.82-4.23 1.08s-2.74.48-4.11.68-2.59.59-3.91.77c-.76.11-1.54.16-2.31.24-1.45.19-2.91.26-4.37.35s-3 .05-4.48 0c-.42 0-.83-.07-1.25-.08l-.29 1.14.31 1.1h3.06c1.64 0 3.27-.15 4.91-.19 1.2 0 2.4-.2 3.59-.31l2-.22 2-.3c1.31-.21 2.62-.38 3.91-.68.56-.12 1.11-.23 1.65-.38s1.22-.4 1.84-.55c.84-.22 1.69-.33 2.53-.52.68-.16 1.3-.31 1.89-.5l1.71-.62 3.55-1.27c1.08-.4 3-.87 4.08-1.4.34-.16.64-.4 1-.56l.38-.2c.86-.39 1.76-.73 2.59-1.18l-.25-1.22zm-2.52-5.08a4.5 4.5 0 01-1 .57l-.87.34-1.58.63-.72.28c-.54.18-1 .31-1.53.53-.26.11-1.12.57-2 .89-.4.12-.81.19-1.21.3-.58.15-1.12.43-1.68.63l-1.39.47c-.47.14-1 .26-1.42.38l-2.83.71-2.77.55c-.54.11-1.09.08-1.62.17-1.53.26-3 .61-4.58.88-1.72.26-3.26.16-5 .29a30.25 30.25 0 01-4.15.15 20.92 20.92 0 00-2.75.32l-.27 1 .28 1a17.24 17.24 0 012.65-.17 12 12 0 002.47.07c1.28-.18 2.52-.25 3.74-.38l3.75-.39c1.2-.17 2.42-.26 3.64-.41s2.24-.39 3.36-.6l1.66-.36c.55-.14 1.09-.32 1.63-.5.71-.23 1.44-.38 2.16-.57 1.48-.45 2.91-1 4.39-1.46s3.16-.94 4.72-1.49c.75-.28 1.43-.8 2.16-1.14a8.89 8.89 0 001.72-.91l-.25-1.06zm-2.56-5.14c-.61.29-1.21.4-1.8.74h-.08l-.77.45c-.29.16-.58.32-.88.46a10.53 10.53 0 01-1.19.65l-1 .47-1.06.42a20.58 20.58 0 01-2.84.86l-1.51.4c-.5.1-1 .21-1.38.32-2.38.65-3.8 1.12-6.24 1.66-.71.12-1.36 0-2.06.08-.94.1-1.85.48-2.82.5s-2.23 0-3.24.12-1.67.18-2.64.24a14 14 0 01-2 0c-1-.07-2 .07-3.09 0l-.56 1 .58 1.09h.56l3.6.08c.77 0 1.55-.26 2.32-.26h1.5l1.41-.15c.93-.11 1.87-.2 2.9-.26a51.61 51.61 0 009.8-1.78c.47-.12.92-.32 1.39-.46 1.11-.33 2.17-.75 3.25-1.12 1.25-.42 2.33-.71 3.56-1.18.76-.31 1.46-.56 2.13-.89a23.79 23.79 0 003.11-1.63l-.32-1zm-2.5-5.02c-.42.22-.92.41-1.13.5h-.06c-.51.22-1 .56-1.47.78a7.42 7.42 0 01-1 .35c-.31.08-.62.16-.92.26a13.2 13.2 0 00-1.8.81l-.19.09a7.37 7.37 0 01-.74.26c-1.56.46-2.06 1-3.69 1.37-.5.11-.78.56-1.33.56a5.7 5.7 0 00-1 0 8.33 8.33 0 00-1 .49 8.55 8.55 0 01-.87.09c-.89.14-1.83.16-2.73.24s-1.77.41-2.69.51c-1.15.1-2.32.14-3.47.19l-1.79.13c-.53 0-1.7.1-2.22.08-1.59-.06-1.38.38-3 .22h-1l-.46.85.48 1.11a7 7 0 011.06-.05c.83 0 1.78-.17 2.61-.06s2.15.12 3 .11a22.71 22.71 0 002.61-.15c.86-.09 1.74-.15 2.59-.29l2.55-.38c.74-.07 1.41-.36 2.13-.44.89-.09 1.36-.32 2.26-.4a17.38 17.38 0 003-.85c1.46-.47 2.84-1.1 4.29-1.55.89-.35 1.84-.53 2.75-.82a7.43 7.43 0 001.36-.66l1.08-.48a3 3 0 00.41-.19c.54-.33 1-.6 1.38-.9l-.32-1zm44.74-3.58l.31-.64a11.19 11.19 0 001.11-2.65v-.11a4 4 0 01-.39 1 15.87 15.87 0 00-1.03 2.4zm-5.62-6.9c-.42.76-1 2.13-1.31 2.83s-.62 1.27-.9 1.93c.76-1.26 1.52-3.27 2.21-4.76zm1.86 1.32l-.45 1c.14-.3.34-.72.45-1zm-7.77-1.29l.09-.18zm-4.71-3.34c-.19.39-.44.77-.6 1.17l-.07.2.75-1.5zm-5.33-2.32c-.08.2-.15.47-.23.75.09-.28.18-.55.26-.82zm-4.82-2.82c-.31.62-.61 1.49-1 2.32a3.8 3.8 0 00.5-.85c.18-.48.29-1 .5-1.47z" fill="currentColor"/><path d="M165.44 100.77l-.12.27c-.26.58-.51 1.19-.75 1.8v.08c-.26.66-.53 1.26-.81 1.85a16.63 16.63 0 01-.93 1.83c-.55 1-1 2-1.58 3a20 20 0 01-1.92 2.85c-.54.73-1.14 1.43-1.6 2.2s-.87 1.37-1.32 2-.9 1.37-1.4 2a38.3 38.3 0 01-3.71 4.06l-1.1 1.15L149 125a48 48 0 01-4.69 3.72c-.87.7-2.09 1.43-3 2l-4.16 2.47c-1.35.74-2.7 1.49-4.07 2.19l.18 1 .74.81c.84-.34 1.74-.56 2.55-1 .51-.26 1-.56 1.49-.86l1.43-1c1-.67 1.83-1 2.84-1.65s1.87-1 2.77-1.69 2-1.47 3.13-2.29a7.12 7.12 0 002.08-1.81 13.41 13.41 0 011.57-1.44c.32-.31 1.76-1.71 2.14-2.15.84-1 1.76-2 2.5-3a62.11 62.11 0 003.87-5.29c.55-.85 1.25-1.74 1.75-2.62.05 0 .53-.83.56-.82.27-.56.4-.81.57-1.12.32-.56.7-1.29 1-1.73a15.36 15.36 0 001.09-2.06 15.87 15.87 0 011.05-2.35 4 4 0 00.39-1 9.57 9.57 0 01.6-1.87l-.7-.53z" fill="currentColor"/><path d="M170.72 102.89c-.4 1-.8 1.9-1.25 2.83l-1.11 2.28c-.06.11-.1.21-.17.32-1 1.67-2.05 3.46-3 5.14-.92 1.43-1.64 3-2.53 4.48-.49.88-1.22 1.57-1.8 2.41s-1.5 1.75-2.14 2.7-1.87 1.81-2.7 2.84a27.53 27.53 0 01-2.26 2.33c-.85.72-1.72 1.42-2.52 2.16l-1.66 1.48c-.29.26-.56.48-.82.68l-.81.6-3.26 2.4c-1.26.82-2.56 1.57-3.86 2.32a21.76 21.76 0 01-2.09 1.08l-2.12 1-1 .56.21 1.14.82.93 1.12-.59c1.06-.52 2.11-1.07 3.16-1.63l3.06-1.85 1.91-1.18 1.85-1.29 1.83-1.32.91-.66c.31-.25.64-.54 1-.81 1.29-1.12 2.54-2.14 3.78-3.31.86-.87 1.75-1.72 2.69-2.56a22.28 22.28 0 002.59-2.65c1-1.27 1.65-2.29 2.56-3.59s2-2.6 2.82-3.87 1.33-2.27 1.89-3.42c.37-.68.92-1.27 1.31-2a39.73 39.73 0 002-4c.63-1.34 1.25-2.81 1.86-4.22l-1-.57zm-10.46-4.2v.09l-.52 1.13c-.69 1.49-1.45 3.5-2.21 4.76l-.29.52c-.1.18-.28.67-.41 1-.32.67-.62 1.35-1 2l-2.41 3.5a29.31 29.31 0 01-1.73 2.45 35 35 0 01-2.74 3.09l-2.44 2.56c-.85.82-1.78 1.57-2.68 2.35-.5.43-1 .88-1.51 1.28l-1.57 1.11c-.95.64-1.87 1.32-2.84 1.91l-2.81 1.77c-.88.59-1.82 1.09-2.75 1.59-.55.29-1.17.44-1.74.69l.2 1.16.78.82c1.94-1 3.86-2 5.75-3.2.83-.48 1.78-.76 2.61-1.28.68-.45 1.26-1.08 1.92-1.57.87-.66 1.8-1.14 2.66-1.92a50.06 50.06 0 007.87-7.87l1.43-1.84a19 19 0 001.36-1.87c.68-1 1.41-2.09 2.15-3.12s1.34-2.13 2-3.21a11 11 0 00.54-1.38c.17-.42.36-.84.55-1.24.31-.59.34-.9.6-1.47l.12-.25.45-1 .5-1.1.27-.61-.95-.64z" fill="currentColor"/><path d="M155.25 96.68l-.06.12c-.34.72-.6 1.47-.94 2.18l-.38.78-.09.18-.09.19c-.36.87-.9 2.17-1.36 3a.91.91 0 00-.07.14c-.35.65-.7 1.3-1.07 2-.62.9-1.16 1.86-1.77 2.78-.3.44-.6.89-.94 1.3s-.7.81-1 1.23a32.66 32.66 0 01-2.74 3.36c-.47.49-1 1-1.46 1.45l-.74.72-.79.66c-1 .84-1.87 1.84-2.89 2.67-.62.47-1.27.89-1.9 1.33a40.38 40.38 0 01-3.67 2.38c-.64.36-1.27.77-1.94 1.09l-2 1c-.37.18-.77.3-1.15.47l.25 1.15.75.86.72-.37 2-1c1.47-.75 2.85-1.66 4.29-2.46 1-.62 2-1.35 3-2 .54-.4 1.11-.74 1.61-1.19l1.54-1.3 1.54-1.31c.5-.45.93-1 1.41-1.44s.79-.83 1.16-1.26.8-1 1.18-1.55c.54-.67 1.15-1.29 1.71-2a17.48 17.48 0 001.21-1.57l.94-1.57.94-1.56.51-.81.49-.89c.57-1 1.74-2.66 2.21-3.72.14-.35.21-.74.36-1.08.06-.13.1-.27.15-.41l1.18-2.6-1-.74z" fill="currentColor"/><path d="M150 94.57a8.83 8.83 0 01-.43 1.09l-.41.81-.76 1.53a4.22 4.22 0 01-.36.66 12.33 12.33 0 00-.79 1.36c-.13.24-.47 1.13-.92 1.93-.21.35-.5.63-.72 1s-.57 1-.87 1.49l-.74 1.19c-.25.4-.56.73-.84 1.1l-1.72 2.15c-.59.65-1.22 1.24-1.81 1.89-.35.36-.8.61-1.14 1-1.05.93-2.05 1.89-3.11 2.87a15.51 15.51 0 01-2 1.33c-.68.4-1.35.8-2.06 1.24-.55.37-1.12.71-1.69 1a17.57 17.57 0 01-1.77.93 16.37 16.37 0 00-2.23 1.46l.2 1 .7.8a15 15 0 012.24-1.29 9.6 9.6 0 002.16-1c1-.75 2.08-1.32 3-2s2-1.37 3-2.12 1.81-1.39 2.7-2.11 1.55-1.51 2.31-2.27c.37-.4.76-.77 1.1-1.19s.65-.88 1-1.34.88-1.12 1.32-1.69c.85-1.23 1.54-2.56 2.41-3.78l2.59-4.1c.37-.71.52-1.54.83-2.27a15.69 15.69 0 00.7-1.78l-.9-.62z" fill="currentColor"/><path d="M144.66 92.43a10.1 10.1 0 00-.85 1.67v.09c-.08.27-.17.54-.26.82s-.2.61-.32.9-.27.85-.47 1.19l-.4.94c-.17.31-.34.62-.5 1a15.55 15.55 0 01-1.53 2.26l-.84 1.16c-.29.35-.58.67-.81 1-.7.83-1.15 1.62-1.69 2.27s-1.1 1.3-1.82 2.09c-.41.46-1 .57-1.44.93a8.14 8.14 0 00-.85.81 3.9 3.9 0 01-.93.81c-.81.49-1.83 1-2.59 1.54s-1.28.88-2 1.35a13.45 13.45 0 01-1.66.92c-.89.37-1.68.9-2.56 1.29v1.1l1 .73a5.2 5.2 0 01.46-.25c1.13-.53 2-.88 3.06-1.45.64-.34 1.17-.91 1.81-1.24a15 15 0 002.31-1.47l1.09-.77c.37-.25.79-.5 1.11-.77l1.73-1.31a9.1 9.1 0 00.83-.68l.75-.78c.51-.52 1-1 1.51-1.57s.92-1.18 1.41-1.77c.27-.35.49-.75.75-1.1.6-.86 1.11-1.82 1.67-2.72a30.5 30.5 0 001.86-3c.34-.7.74-1.28 1-2 .5-.89.79-2.17 1.22-3.18l-.93-.56zm-5.21-2.09l-.51 1v.07c-.21.47-.32 1-.53 1.47a3.8 3.8 0 01-.5.85c-.17.24-.34.47-.49.71a11.56 11.56 0 00-.74 1.64c0 .05 0 .12-.08.17a5.88 5.88 0 01-.36.58 9.92 9.92 0 00-.81 1.49 4.75 4.75 0 01-.89 1.43c-.28.32-.18.79-.57 1a4.23 4.23 0 00-.7.46 1 1 0 00-.21.44 1.53 1.53 0 01-.19.41c-.14.17-.38.27-.54.43-.51.46-1.14.89-1.65 1.29s-.92.92-1.45 1.33a8.58 8.58 0 01-1.23.89l-1.32.8c-.17.1-.42.27-.65.44l-.67.42c-.4.25-1.3.77-1.72 1-1.26.6-.92.88-2.26 1.37a9.15 9.15 0 00-.84.38v.94l.87.81a5.46 5.46 0 01.84-.47c.68-.31 1.38-.85 2.08-1.11s1.77-.78 2.41-1.11a18.57 18.57 0 002-1.26l1-.67c.16-.11.34-.22.47-.33l.36-.33c.49-.43 1-.85 1.51-1.25l.32-.27.27-.35a3.58 3.58 0 01.6-.63c.56-.46.75-.84 1.33-1.29a21.3 21.3 0 002.58-3.85q.5-.87 1.05-1.71c.4-.78 1-1.47 1.43-2.22a6.4 6.4 0 00.57-1.28c.14-.35.32-.69.46-1 .05-.13.13-.26.17-.4.18-.57.27-1 .43-1.5l-.91-.55zm32.19-31.86l-.14-.73a8.62 8.62 0 00-.78-2.9l-.05-.1a3.44 3.44 0 01.39 1.11 17.71 17.71 0 00.58 2.62zM163 56.51c.24.85.59 2.31.74 3.08s.33 1.4.53 2.09c-.16-.72-.36-1.62-.57-2.53-.1-.46-.21-.92-.31-1.37s-.3-.87-.39-1.27zm2.26-.16a8.64 8.64 0 01.29 1.08 5.74 5.74 0 00-.29-1.08zm-6.87 3.92v-.19zm-5.7.36c.06.42.08.86.18 1.27l.06.19-.26-1.61a.77.77 0 00.02.15zm-5.62 1.55a5.76 5.76 0 00.24.69c-.08-.26-.17-.51-.25-.76zm-5.52.92c.21.55.31 1.4.54 2.22a8.85 8.85 0 00-.11-.9 7 7 0 00-.43-1.32z" fill="currentColor"/><path d="M167.88 53.47l.1.29c.19.64.43 1.29.66 2v.09c.42 1.4.61 2.64.91 4.1.12.57.25 1.14.38 1.71s.18 1.13.26 1.7c.15 1.17.2 2.29.27 3.45.07.91-.06 1.82 0 2.71.1 1.59.47 3.19.41 4.78 0 .88 0 1.77-.1 2.65s-.09 1.76-.21 2.63-.24 2-.28 3c0 2.1-.77 3.57-1 5.63A16.68 16.68 0 01169 90c-.19.6-.38 1.21-.54 1.74l-.68 2.34-.34 1.17-.44 1.12c-.52 1.46-1 2.95-1.55 4.4l.8.65 1.11.12c.41-.82.91-1.6 1.24-2.46.4-1.09.68-2.23 1-3.35s.69-2 1-3.17.8-2 1-3.11a33.45 33.45 0 01.77-3.71 5 5 0 00.35-2.53 8.69 8.69 0 01.19-2c0-.42.36-2.3.33-2.85v-5.33c0-.53 0-1.07-.07-1.6l-.17-3.21a22.15 22.15 0 00-.26-3.13s-.13-1-.09-1c-.11-.62-.15-.91-.2-1.26-.08-.66-.16-1.48-.25-2a16.91 16.91 0 00-.53-2.34 17.71 17.71 0 01-.58-2.62 3.44 3.44 0 00-.39-1.11 10.81 10.81 0 01-.83-1.92h-.89z" fill="currentColor"/><path d="M173.3 51.71c.34 1 .71 2.1 1 3.17.17.82.36 1.79.54 2.65l.06.36c.17 1 .37 2 .52 3s.22 2 .33 3 .27 1.69.44 2.54.25 1.68.34 2.53 0 2 .09 2.94-.11 2.22 0 3.32c.06 1.25-.25 2.44-.23 3.69-.07 2-.53 4-.69 6-.18 1.34-.4 2.67-.62 4l-.36 2c-.14.66-.32 1.31-.48 2-.38 1.47-.79 2.93-1.27 4.36l-1.76 4.44c-.14.38-.26.77-.42 1.14l.9.71 1.25.15c.17-.4.3-.82.45-1.21a64.17 64.17 0 002.32-6.85c.39-1.45.82-2.9 1.17-4.37s.58-3 .82-4.44a39.81 39.81 0 00.57-4.5c.08-1.12.31-2.25.49-3.4a31.56 31.56 0 00.27-3.47 37.48 37.48 0 00-.2-4.22c-.13-1.46 0-3.26-.1-4.72-.2-1.3-.49-2.59-.67-3.88-.11-.79 0-1.61-.11-2.41-.29-1.57-.69-3-1-4.53A35.44 35.44 0 00175.5 51l-1.17.22zm-10.73 3.47v.11c.11.34.24.77.38 1.22s.28.82.39 1.27.21.91.31 1.37c.21.91.41 1.81.57 2.53 0 .21.09.42.13.6l.28 1c.13.73.27 1.46.35 2.19l.21 2.12.06 2.12c0 1 .18 2 .21 3 0 1.36-.2 2.71-.25 4.06 0 1.16-.16 2.3-.29 3.45s-.23 2.29-.4 3.43l-.73 3.78c-.19 1.13-.57 2.21-.86 3.31s-.53 2.16-.86 3.22-.64 2-1 3c-.22.59-.56 1.12-.83 1.69l.9.73 1.16.1c.38-1 .72-2.09 1.09-3.13s.76-2.07 1.05-3.14.77-1.78 1-2.72a18.15 18.15 0 00.41-2.45c.18-1.06.47-2.1.67-3.16a65.13 65.13 0 001-10.72c.08-1.51-.07-3-.13-4.57 0-.62 0-1.25-.06-1.88s-.11-1.26-.15-1.89c-.11-1.27-.19-2.54-.33-3.8a12.26 12.26 0 00-.5-1.44 9.07 9.07 0 01-.37-1.33c-.1-.68-.26-.95-.4-1.57l-.06-.29a8.64 8.64 0 00-.29-1.08l-.37-1.19-.21-.66-1.14.12z" fill="currentColor"/><path d="M157.44 56.85v.13c.22.76.56 1.48.73 2.24l.15.86v.4c.16.92.7 2.24.85 3.17v.16c.1.73.2 1.45.27 2.2.1 1.09.37 2.17.37 3.27v3.22c0 1.45 0 2.9-.06 4.36a14.43 14.43 0 01-.23 2.06 39.9 39.9 0 00-.28 2c-.1 1.31-.24 2.63-.44 3.93-.12.77-.31 1.52-.45 2.28-.36 1.41-.75 2.81-1.14 4.21s-1.05 2.79-1.57 4.17c-.16.38-.36.75-.54 1.12l.94.7 1.14.14c.11-.25.19-.51.29-.76l.78-2.14c.27-.78.6-1.54.83-2.33l.7-2.38a28.34 28.34 0 00.89-3.52c.24-1.31.54-2.61.73-3.92l.46-4a12 12 0 00.08-1.69c0-.65-.11-1.3-.09-1.94 0-.86.23-1.72.18-2.59 0-1.4-.11-2.6-.22-3.79s-.39-2.37-.51-3.76c-.08-.58 0-1.38-.21-2.16s-.25-1.57-.39-2.14c-.09-.37-.26-.72-.35-1.09 0-.14-.07-.27-.11-.41-.2-.94-.55-1.84-.82-2.76l-1.23.06z" fill="currentColor"/><path d="M152 58.59a6.91 6.91 0 01.4 1.06l.23.83.26 1.61.12.72a12.21 12.21 0 00.29 1.51 17.74 17.74 0 01.39 2.07c0 .4 0 .8.05 1.19 0 .57.24 1.12.25 1.7a36.52 36.52 0 01.09 5.63c-.06.91-.06 1.81-.15 2.72-.06.52-.28 1-.33 1.54l-.19 2.23c-.07.74-.21 1.48-.29 2.22a15.38 15.38 0 01-.54 2.34 19.79 19.79 0 00-.74 2.29c-.15.64-.32 1.28-.51 1.91s-.49 1.23-.74 1.84a18.93 18.93 0 00-.64 2.57l.82.61 1.07.15a17.14 17.14 0 01.76-2.45 13.28 13.28 0 001-2.2c.25-1.24.54-2.4.86-3.56s.5-2.35.76-3.58c.11-.59.27-1.16.39-1.75s.2-1.17.28-1.76c.13-1.1.37-2.2.39-3.31s.06-2.21 0-3.32c0-.73 0-1.45-.07-2.18l-.13-2.22c0-.75-.21-1.48-.26-2.22s-.13-1.6-.17-2.4-.22-1.58-.33-2.37a21.75 21.75 0 00-.67-2.26A15.59 15.59 0 00154 58l-1.08.1zm-5.42 1.77A9.13 9.13 0 00147 62v.08c.08.25.17.5.25.76s.18.57.25.86.36.78.42 1.15l.13.39a4.1 4.1 0 01.14.56c0 .34.08.69.14 1a17.67 17.67 0 01.23 2.7c0 1-.05 2 0 2.76.06 1.14 0 2.07 0 3v1.41c0 .49-.08 1-.13 1.6s-.37 1.21-.46 1.85a23.94 23.94 0 01-.37 2.64c-.24.91-.59 2-.87 2.86s-.33 1.51-.56 2.37a10 10 0 01-.65 1.75c-.41.85-.6 1.78-1 2.63l.67.83 1.23-.07c.07-.16.1-.34.17-.48.48-1.14.78-1.95 1.28-3.08.3-.66.24-1.45.5-2.13a26.26 26.26 0 00.76-2.62c.15-.86.32-1.73.57-2.66.11-.4.22-.79.3-1.18s.12-.78.19-1.17c.1-.78.21-1.55.31-2.31.16-1.54.13-3.08.21-4.68 0-.46-.12-.91-.16-1.37l-.13-1.61a10.32 10.32 0 00-.17-1.59c-.23-1.2-.14-2.28-.37-3.48-.18-.72-.32-1.39-.47-2.07a6.11 6.11 0 00-.39-1.54c-.23-.5-.47-1-.64-1.49l-1.06.18zm-5.34 1.73c.1.38.23.78.29.95v.06a7 7 0 01.43 1.32 8.85 8.85 0 01.11.9 6.93 6.93 0 00.1.78c.13.53.18 1.12.35 1.67a1.49 1.49 0 000 .18q0 .36.09.66c.05.34.11.64.17.9s.09.53.13.78a10 10 0 01.16 1.74c0 .45.43.77.24 1.26a4.76 4.76 0 00-.31.87c-.05.36.17.66.2 1a6.76 6.76 0 01-.1.77c0 .79-.44 1.6-.54 2.39a17.74 17.74 0 01-.25 2.41c-.27 1-.48 2-.8 3-.15.38-.34 1.12-.44 1.51a14.81 14.81 0 01-.57 1.86c-.61 1.23-.1 1.23-.75 2.45-.09.16-.21.48-.36.82l.61.67 1.21.06a6 6 0 01.29-.88 17.87 17.87 0 01.77-2.16 13.93 13.93 0 001-2.42 14.56 14.56 0 00.67-2.25c.29-1.53.66-3.06.81-4.6a18.5 18.5 0 01.19-2c.16-.8 0-1.26.15-2.06a8.82 8.82 0 000-2.81c-.08-.68-.16-1.36-.22-2s-.23-1.32-.3-2a9.07 9.07 0 01-.07-1.28V66l-.09-.61c-.07-.43-.25-.84-.36-1.26s-.13-.68-.21-1a.93.93 0 00-.1-.37c-.24-.48-.47-.84-.65-1.23l-1 .18zm2.59-45.33l-.5-.33a7.73 7.73 0 00-2.1-1.17h-.09a3.14 3.14 0 01.84.42 12.24 12.24 0 001.85 1.08zm-7.08 5.01c.7.51 1.88 1.16 2.5 1.55.28.18.57.34.86.5l.95.5zm1.54-1.67l.84.51c-.24-.16-.6-.38-.84-.51zM136 27.63l-.16-.11zm-3.84 4.27c.41.27.8.59 1.22.83l.22.1-1.57-1zm-2.92 5.03a8.15 8.15 0 00.88.42l-1-.47zm-3.56 4.34l3.08 1.82c-.38-.27-.76-.55-1.15-.79-.61-.38-1.31-.66-1.93-1.03z" fill="currentColor"/><path d="M138 16l.32.19c.67.41 1.57.92 2 1.13l.06.05c1.07.58 1.94 1.16 3 1.82l.82.49c.32.18.6.4.9.59.58.39 1 .65 1.52 1a27.78 27.78 0 012.81 2.43c.7.71 1.37 1.45 2.09 2.14a40 40 0 013.75 3.73 44.89 44.89 0 013.2 4.55c.53.85 1.07 1.72 1.62 2.51 1.16 1.66 1.56 3.12 2.59 4.74.53.85 1 2.06 1.47 2.95.62 1.17 1.35 3 2 4.51.32.77.71 1.52 1 2.29s.53 1.55.77 2.34h1.05l.91-.64c-.22-1-.31-2-.61-2.89-.48-1.16-1.12-2.27-1.67-3.4a16.53 16.53 0 01-.7-1.65c-.11-.29-.2-.5-.3-.71s-.21-.43-.35-.67c-.48-.84-.67-1.75-1.16-2.63a28.5 28.5 0 01-1.6-3.06 5.33 5.33 0 00-1.23-2.07 9.27 9.27 0 01-1-1.64l-.71-1.19c-.31-.51-.66-1-.83-1.27-.77-1-1.57-2.09-2.43-3.15a50.49 50.49 0 00-4.89-5.3c-.84-.76-1.72-1.66-2.62-2.32 0-.05-.84-.67-.82-.7-.56-.38-.81-.57-1.12-.79-.56-.44-1.22-.87-1.83-1.35a10.43 10.43 0 00-1.24-.8l-.87-.46a12.24 12.24 0 01-1.9-1.12 3.14 3.14 0 00-.84-.42l-.21-.08-.31-.14-.62-.28a7.31 7.31 0 01-1.09-.6l-.56.68z" fill="currentColor"/><path d="M140.56 10.88l1.89 1.12.64.39.52.33c.54.35 1.17.76 1.74 1.11l.24.16.48.32.63.41c.6.36 1.16.79 1.71 1.19.85.62 1.73 1.31 2.58 2 1.47 1.17 3.13 2.24 4.59 3.6.87.78 1.52 1.68 2.34 2.49s1.57 2 2.37 2.92 1.47 2.25 2.23 3.27c1.28 1.67 2.12 3.5 3.11 5.07 1.36 2.14 2.49 4.19 3.59 6.22l.44.85c.15.3.28.52.46.94l1 2.31a42.74 42.74 0 011.78 4.92l.41 1.24h1.16l1-.71c-.15-.44-.3-.9-.44-1.33-.2-.63-.38-1.26-.61-1.88l-.79-1.86c-.53-1.24-1.09-2.47-1.65-3.69-.19-.43-.31-.62-.46-.92l-.42-.84-.88-1.69c-.59-1.12-1.23-2.29-1.91-3.46-.35-.61-.69-1.2-1-1.79s-.73-1.22-1.13-1.84c-1.23-1.83-2.24-4.14-3.85-6.13A47.36 47.36 0 00159 22c-1.19-1.21-2.53-2.89-3.86-4-1.16-1-2.41-1.81-3.56-2.65-.34-.25-.67-.57-1-.85l-.48-.42a8.75 8.75 0 00-.55-.44 15 15 0 00-1.35-.89l-1-.58c-.5-.28-1-.55-1.49-.85l-1.52-.93-2.63-1.56-.64 1zM135.44 21l.1.07 1.21.74 4.31 2.55a5.65 5.65 0 01.57.37c.19.14.7.4 1 .56a21.7 21.7 0 011.88 1.3 42.36 42.36 0 013.26 3c.74.73 1.53 1.44 2.2 2.24a41.57 41.57 0 012.48 3.41c1.34 1.94 2.55 3.89 3.66 5.84.63 1.09 1.22 2.17 1.79 3.26l1.47 2.92c.49.88 1 2 1.46 3a30.84 30.84 0 011.34 3c.19.62.24 1.28.4 1.9h1.17l.94-.67-.55-1.63a12 12 0 00-.62-1.6c-.47-1.06-.94-2.11-1.39-3.19s-.59-1.83-1-2.65-.86-1.3-1.23-2c-.49-.89-.91-1.83-1.41-2.73a63.41 63.41 0 00-5.93-9 41.58 41.58 0 00-3.26-3.69 56.23 56.23 0 00-6.07-5.29 3.19 3.19 0 00-.77-.43l-.76-.32a6.9 6.9 0 01-1.08-.56c-.5-.35-.78-.4-1.26-.69l-.22-.14-.84-.51-1.15-.71-.69-.41-.7.9z" fill="currentColor"/><path d="M133 25.78l.11.08c.63.4 1.34.74 2 1.18l.75.48.16.11.18.12c.41.25.95.52 1.48.79a7 7 0 011.4.8l.14.08c.61.41 1.18.85 1.76 1.31.42.35.85.69 1.28 1s.83.7 1.23 1.08c.75.75 1.42 1.58 2.11 2.38a40.27 40.27 0 012.69 3.38c.76 1.15 1.42 2.36 2.13 3.55s1.45 2.22 2.12 3.37c.4.67.73 1.37 1.09 2.06l1 2a19.67 19.67 0 01.94 2l.84 2 .42 1 .3 1.07c.11.4.16.81.27 1.21l1.17-.07 1-.62-.25-.78a17.47 17.47 0 00-.76-2.17c-.67-1.51-1.27-3.11-2-4.56-.52-1.07-1.06-2.13-1.62-3.19-1.23-2.32-2.52-4.63-4-6.87-.32-.48-.63-1-1-1.4s-.87-1-1.27-1.48c-.52-.7-1-1.44-1.55-2.13a35.59 35.59 0 00-5.76-5.08c-.45-.38-1.07-.85-1.73-1.37s-1.31-.89-1.81-1.17c-.33-.19-.69-.29-1-.48l-.38-.2-2.44-1.48-.82.93z" fill="currentColor"/><path d="M130.42 30.86a3.82 3.82 0 01.78.4l.83.54 1.57 1 .7.47.7.47.49.32.64.36a8.11 8.11 0 011 .7l.8.77c.4.35.84.63 1.24 1a22.37 22.37 0 013.42 3.82c.5.69 1 1.4 1.48 2.16.29.41.42 1 .71 1.39q1.22 1.9 2.47 3.95c.94 1.5 1.36 3.08 2.24 4.67a6.39 6.39 0 01.43.88l.36.86.68 1.72.5 1.12c.18.38.37.77.56 1.15l1-.06.98-.55c-.36-.77-.64-1.57-.9-2.31a16.31 16.31 0 00-.77-2.16c-.3-.54-.51-1-.82-1.61s-.6-1.13-.9-1.69c-.59-1.12-1.16-2.25-1.79-3.4s-1.1-2.2-1.7-3.25a26.92 26.92 0 00-3.72-5.33c-.47-.49-.89-1-1.36-1.52-1-1-2.07-1.89-3.17-2.8-.59-.48-1.16-1-1.78-1.48-.29-.23-.53-.46-.82-.65l-1-.72c-.71-.48-1.57-.77-2.31-1.2a10.28 10.28 0 00-1.54-.82l-.72.82z" fill="currentColor"/><path d="M127.82 36l.34.31.37.25c.16.1.34.19.52.28l.1.05 1 .47c.36.18.71.36 1 .56s1.15.47 1.18.52a5.47 5.47 0 01.61.29l.77.55a19.52 19.52 0 013.18 3.18 35.64 35.64 0 013.36 4.25c.36.55.47 1.22.8 1.81.44.85 1.08 1.6 1.51 2.51s.88 2.19 1.4 3.16l.7 1.26.16.29.18.26c.07.16.14.33.22.5.22.51.43 1 .61 1.53a18.83 18.83 0 01.8 2.37l1 .16.89-.79a4 4 0 01-.15-.45c-.15-.54-.24-1-.4-1.48s-.35-.88-.53-1.4-.64-1.1-.91-1.78c-.89-2-1.86-3.57-2.75-5.49a33.81 33.81 0 00-4.9-7.75 7.18 7.18 0 00-.85-.81 20.57 20.57 0 00-2-1.79c-.43-.32-.79-.67-1.19-1-.2-.17-.38-.34-.61-.51s-.46-.33-.6-.42l-1.88-1.13a14 14 0 00-1.74-1c-.77-.39-.9-.39-1.22-.57l-.67.86zm-2.55 5s.06 0 .08.08l.21.13h.09c.62.37 1.31.65 1.93 1 .39.24.77.52 1.15.79l.25.18.13.09v.06a.21.21 0 00.07.05l.33.2c.23.13.4.25.62.35l.13.08c.17.11.28.22.4.31.79.66 1.24.67 1.87 1.44.2.22.63.2.74.54a3.4 3.4 0 00.2.69c.14.22.48.29.68.51a3 3 0 01.32.59c.39.61.63 1.43 1 2.16a10.34 10.34 0 00.71 1.1 11.21 11.21 0 01.72 1.2 91.31 91.31 0 011.59 3.4c.21.47.67 1.36.92 1.81.06.13.18.34.24.48s.1.26.15.4.2.55.25.73a1.89 1.89 0 00.51.89 1.89 1.89 0 01.25.33 2.46 2.46 0 01.14.65 7.53 7.53 0 00.17.74l.9.07 1-.67a3.76 3.76 0 01-.26-.76c-.09-.66-.6-1.19-.72-1.79-.05-.29-.15-.67-.25-1.06-.05-.19-.11-.38-.16-.56l-.3-.7c-.4-.9-.82-1.77-1.25-2.6-.86-1.67-1.76-3.26-2.56-4.67-.34-.61-.81-1.09-1.08-1.65s-.69-.94-1-1.57a6.21 6.21 0 00-1.44-1.63c-.76-.67-1.51-1.22-2.35-1.88a7.56 7.56 0 01-.82-.71l-.22-.19-.11-.1a.76.76 0 00-.14-.16l-.17-.1-.42-.22c-.28-.15-.57-.29-.85-.45l-1.29-.77a4.85 4.85 0 00-.49-.29l-.52-.25c-.11-.05-.12 0-.14 0h-.06a1.64 1.64 0 01-.23 0l-.68.84z" fill="currentColor"/></svg>