<svg xmlns="http://www.w3.org/2000/svg" viewBox="0 0 147.2 120.11"><path d="M89.75 7.77c1.19.16 2.07.31 2.94.51s1.77.38 3 .68c2 .44 4.84 1.14 6.7 1.72a76.68 76.68 0 0110.55 4.14c9.56 4.73 18.45 11.36 24.42 20.14a40.35 40.35 0 014.64 9.29l.25.78c0 .1.06.16.09.26a43.59 43.59 0 012 14.13c0 .68-.09 1.6-.15 2.61a26.06 26.06 0 01-.32 3.15c-.34 2.06-.62 3.86-.76 4.14-.16.48-.54 2.2-1 3.89s-1.11 3.36-1.27 3.84-1 2.36-1.9 4.47-2.15 4.26-2.74 5.1-1.23 2-1.93 2.93l-2.13 2.78a64.8 64.8 0 01-5.79 6.14 68.15 68.15 0 01-6.65 5.39c-1.37 1.05-2.91 1.87-4.38 2.8l-.61.36c-1 .51-2.14 1.13-3.3 1.76a81.22 81.22 0 01-20.93 6.94 108.35 108.35 0 01-22.11 1.82 111.78 111.78 0 01-15.54-1.28c-9.18-1.47-18.32-3.92-26.54-8.19-.95-.52-1.84-1-2.69-1.45l-2.49-1.52c-.83-.55-1.67-1.16-2.61-1.83s-1.87-1.53-2.94-2.5a42.54 42.54 0 01-3.36-3.53c-.29-.34-.59-.68-.87-1l-.76-1c-.48-.67-1-1.27-1.29-1.78-.61-1-1.14-1.8-1.63-2.59l-1.2-2.34a17.82 17.82 0 01-1-2.42 22.42 22.42 0 01-1-2.89A42.44 42.44 0 012.86 68a56.21 56.21 0 013.27-15c.43-1.29 1-2.52 1.53-3.78s1.19-2.44 1.79-3.65a95.27 95.27 0 016.7-10.49 54.91 54.91 0 017.65-8.69 89.71 89.71 0 018.05-6.66A79 79 0 0140.68 14a84 84 0 0114.75-6.46A87 87 0 0171.09 3.9c3.2-.41 6.47-.61 9.61-.73a75.37 75.37 0 0123 2.55c1.66.44 4.5 1.14 7 1.9a47.17 47.17 0 005.31 1.47c.65 0 0-.65.57-.69 1.4-.05-3-3.25-7.63-4.67A83.6 83.6 0 0094.09.64 84.14 84.14 0 0078.23.19a103.31 103.31 0 00-12.34 1.87 104.81 104.81 0 00-12.78 3.49 74.64 74.64 0 00-9.56 3.93 104.16 104.16 0 00-9.15 5.2 83.31 83.31 0 00-17.56 15.14c-1.31 1.46-2.49 3-3.69 4.54s-2.29 3.17-3.29 4.84-2 3.37-2.92 5.07-1.73 3.49-2.44 5.3C.7 58.67-1 69 .57 78.66l.43 2.5c.17.83.43 1.64.65 2.47a41.46 41.46 0 001.67 4.81 40.68 40.68 0 005.2 8.75 43 43 0 007.13 7.21l1 .8 1 .74c.69.48 1.36 1 2.07 1.45 1.43.88 2.84 1.8 4.34 2.56s3 1.51 4.51 2.23c.76.34 1.54.64 2.31 1s1.55.63 2.34.9a87.14 87.14 0 009.58 2.88 118.54 118.54 0 0019.7 2.91 120.5 120.5 0 0019.83-.3 96.57 96.57 0 0023.95-5.57l1.26-.46.21-.07a70.75 70.75 0 0011.71-6.09 60.5 60.5 0 0010.13-8.08l1.16-1.13c.38-.39.72-.81 1.09-1.21l2.16-2.41 1.92-2.55 1-1.3.87-1.36c.65-1.06 1.38-2.07 2-3.17l1.74-3.3a59.75 59.75 0 002.79-6.91 53.66 53.66 0 002.84-14.45A44.73 44.73 0 00140.73 35c-4.88-7.86-11.92-14.06-19.6-18.86A80.1 80.1 0 0093.47 4.86a41.8 41.8 0 00-7.41-.79c-2.24 0-3-.08-3.75 0-1 .12-1.3.4-1.19.75.32.99 3.97 2.31 8.63 2.95z" fill="currentColor"/></svg>