<svg xmlns="http://www.w3.org/2000/svg" viewBox="0 0 201.93 114.83"><path d="M64.51 5.73a6 6 0 01.86-.08c.3 0 .69-.22 1-.28.53-.11 1-.28 1.57-.37 1.51-.25 3-.49 4.54-.67L75.73 4c2.26-.28 4.54-.4 6.81-.59l1.07-.07h.36c6.26-.4 12.55-.47 18.82-.35 3.54 0 12.24.55 13 .66 1.31.08 9.12.83 10.45 1l2.6.29 4.41.63c.27-.92-.29-1.9 0-2.81a219 219 0 00-27.9-2.61C99.61-.06 93.86 0 88.13.23c-2.87.15-5.74.3-8.6.56-1.43.11-2.87.21-4.29.41l-2.88.32c-1.26.14-2.51.35-3.77.53s-2.86-.07-4.21.16a2 2 0 00-1 .43c-.28.24-.38.21-.47.36a1.23 1.23 0 000 .82c.21.91.95 2.1 1.6 1.91z" fill="currentColor"/><path d="M177.73 20.82l1 .6 1 .62 1.15.83 2.56 1.85c.83.62 1.54 1.28 2.14 1.77l1 .82c.79.63 1.5 1.43 2.3 2.2l1.21 1.2c.42.39.75.87 1.14 1.3l1.55 1.87c.48.64.91 1.33 1.37 2a35.93 35.93 0 012.3 4.12c.35.72.6 1.48.9 2.22l.44 1.12c.12.38.21.77.31 1.15.2.77.44 1.53.59 2.31l.34 2.37A32.11 32.11 0 01195 67.72a56.24 56.24 0 01-12.28 15.16 90.22 90.22 0 01-16.1 11.46 115.41 115.41 0 01-25.72 10.56l-3 .83c-1 .25-2 .47-3 .71-2 .49-4.08.89-6.14 1.28s-4.11.82-6.19 1.14-4.13.73-6.22 1a206.39 206.39 0 01-25.06 2.21l-5.55.07c-1.77 0-3.49-.06-5.3-.08-3.62-.1-7.56-.37-12.8-1-2.27-.34-5.55-.79-8.78-1.46-1.63-.28-3.22-.7-4.7-1s-2.81-.7-3.89-1c-2-.51-3.76-1.07-5.38-1.59s-3.07-1.07-4.55-1.59-2.89-1.19-4.46-1.83c-.78-.31-1.55-.73-2.39-1.12s-1.73-.8-2.63-1.33A58.47 58.47 0 0110 82.42a38 38 0 01-7-25.76 38.45 38.45 0 014.21-13.61 50.1 50.1 0 016.35-9.14 65.22 65.22 0 017.86-7.61l2-1.62 2-1.47c1.32-1 2.74-1.85 4.15-2.76s2.93-1.67 4.46-2.54 3.22-1.62 5-2.4a140.43 140.43 0 0136.19-10c5-.69 9.84-1.24 14.65-1.54l3.6-.24 3.59-.13 3.57-.13h2.62c1 0 2.1 0 3.2.09a18.17 18.17 0 001.93.12 39.41 39.41 0 014.65.28c.68.05 2.35-.29 2.57-.74.13-.26 0-.59.08-.86C116 1.71 115 .61 114 .59s-2 0-3 0-2-.07-3-.04c-.82 0-1.64.3-2.44.26h-4.08c-6 .06-12.11.32-18.29 1-3.12.27-6.19.76-9.3 1.19s-6.14 1-9.17 1.68c-13.34 2.76-26.65 7.25-38.43 14.71A67.52 67.52 0 0010.52 33a54.52 54.52 0 00-5.82 8.78A43.42 43.42 0 001 51.65a38.45 38.45 0 00-.76 13.4 40.26 40.26 0 003.87 12.86C8.05 86 14.4 92.52 21.38 97.52c9.77 7 21.12 11.31 32.67 13.94a148.62 148.62 0 0035.3 3.35 221.25 221.25 0 0035.22-3.62c2.9-.54 5.79-1.12 8.68-1.72l4.33-1c1.44-.35 2.85-.79 4.28-1.18a130.18 130.18 0 0016.71-6.06c10.74-4.87 21-11.22 29.35-19.73 1.45-1.41 2.68-2.94 3.93-4.38.61-.75 1.15-1.53 1.72-2.27l.83-1.12.75-1.17a43.69 43.69 0 004.79-9.66l.79-2.56c.22-.87.37-1.76.56-2.64a18.37 18.37 0 00.36-2.68 19.34 19.34 0 00.16-2.75 29.72 29.72 0 00-2-11.3 22.89 22.89 0 00-.93-2.26l-.18-.36a40.19 40.19 0 00-9-11.91 13.64 13.64 0 00-1.39-1.25L186.9 24l-1.4-1.17-1.5-1.09c-1-.7-1.94-1.41-2.92-2.09l-3-1.87a85.25 85.25 0 00-12.9-6.43c-1.81.21-3.94.61-4 1.51 2.35.85 4.47 1.75 7 2.84 1.56.75 3.22 1.44 4.8 2.34.8.44 1.61.85 2.4 1.31z" fill="currentColor"/><path d="M68.2 4.77a8.16 8.16 0 011.14-.12c.51 0 1.47-.07 2-.15l1.14-.19h.39l1.08-.12c1.69-.19 3.52-.44 5.62-.59a217.36 217.36 0 0155.91 2.41c4.84.83 9.65 2 14.36 3.25a136.37 136.37 0 0121.05 7.72c1.58.73 3 1.55 4.51 2.31l4.27 2.59c1.37 1 2.74 2 4.17 3l2 1.73a24.48 24.48 0 012.08 1.89 38.72 38.72 0 0110 15.12l.57 2.19a11 11 0 01.27 1.1l.16 1.12c.09.75.26 1.49.28 2.25l.06 2.27a30.05 30.05 0 01-1.52 9 43.4 43.4 0 01-7.43 13.49 67.63 67.63 0 01-10.78 10.56c-1.6 1.39-3.35 2.58-5 3.85l-2.65 1.76-1.33.88-1.37.82-2.76 1.63-2.84 1.51-1.42.75-1.46.7-2.94 1.38a19.39 19.39 0 015.43-.11 106.65 106.65 0 0017.72-10.93l.48-.37 1.82-1.47 1.79-1.63a57.41 57.41 0 0011.83-14.28L198 68c.18-.36.38-.7.55-1.07l.45-1.13.91-2.21.71-2.3.35-1.16.23-1.18.47-2.36.21-2.4c0-.4.09-.8.09-1.2v-1.2c.05-7.13-2.84-14-7-19.63a60 60 0 00-15.69-13.75 91.37 91.37 0 00-18.88-8.89 154.63 154.63 0 00-19.9-5.43A218.08 218.08 0 0088.69.19c-4.82.24-9.64.53-14.44 1.1l-2.32.26-.79.1L68 2.1a4.16 4.16 0 01.2 2.67zM43.78 9.12a.94.94 0 01-.11-1 1.55 1.55 0 011.23-.86 18.56 18.56 0 004-1.2c1.45-.46 3-.7 4.43-1.21.53-.18 1.17-.3 1.8-.47a4.91 4.91 0 001.71-.64 2.11 2.11 0 012.72.24A1.74 1.74 0 0160 5.3c-.14 1-1.42 1.34-2.23 1.54s-1.49-.11-2.33.09c-.4.11-.83.11-1.25.2-1.47.3-2.94.6-4.41.93-.69.16-1.4.14-2.1.25s-1.3.59-2 .74c-.49.09-1.53.45-1.9.07zm-5.52-.24c.46-.19 1.9-.66 2.18 0a1.34 1.34 0 01-.06 1 12.16 12.16 0 01-.48 1.44 1.59 1.59 0 01-.42.65c-.53.43-1.35.36-2 .58-1.1.38-2.3.32-3.47.63s-2.07 1.08-3.13.38a2.46 2.46 0 01.77-1.26c1-.58 2-1.13 3.09-1.69L37.93 9zm-13.93 6.76a2.51 2.51 0 011.34-.41c1.19 0 2.2 1.52 1 2.37a8.34 8.34 0 01-2.19.9 6.54 6.54 0 01-1.37.35c-.5.08-.94 0-.91-.45 0-.78 1.1-1.92 1.63-2.4a4.06 4.06 0 01.5-.36zM16 23.61l-.06-.05c-1.08-.93.19-3.11 1.5-3.15a1.82 1.82 0 011.69 2.13c-.32.92-2.27 1.71-3.13 1.07z" fill="currentColor"/></svg>