<svg xmlns="http://www.w3.org/2000/svg" viewBox="0 0 196.52 122.07"><path d="M54.14 10.65c-.33 0-.67-.16-1 .06-.55.42-.85 0-1.09-.31a1.92 1.92 0 01-.42-2c.29-.75.74-.61 1.34-.74.84-.17 2 .06 2.2.93a1.85 1.85 0 01-.16 1 3.71 3.71 0 01-.2.67 1.23 1.23 0 01-.37.31.6.6 0 01-.3.08zm-7.22 1.83c-.06.2 0 .84-.33 1a1.72 1.72 0 01-3-.73c-.11-.55-.15-1.48.15-1.65 1.42-.78 2.33-.41 3.18 1.38zM70 2.91h.21a9.21 9.21 0 001.18 0c.38 0 .45.14.65.5A1.62 1.62 0 0172.28 5c-.13.49-.31.69-1 1.09S69.72 6 69 5a.81.81 0 01-.12-.6 10.66 10.66 0 01.47-1c.25-.34.27-.5.65-.49zm-8.08 5.48c-.82 0-2-1.33-1.86-1.83.2-.72.79-1.64 1.4-1.78s1.48.5 2.23.8a2.09 2.09 0 01-1.77 2.81zM23.79 27.73c-.3.13-.68.1-.86.41-.35.6-.79.31-1.12.13a1.92 1.92 0 01-1.16-1.72c0-.81.45-.85 1-1.2.7-.49 1.84-.69 2.38 0a1.76 1.76 0 01.22 1 3.31 3.31 0 01.06.7 1 1 0 01-.21.42.66.66 0 01-.31.26zm-5.92 4.46c0 .21.31.78.13 1.09-.47 1-1.1 1.28-1.68 1.25a1.89 1.89 0 01-1.32-.68c-.33-.44-.76-1.28-.57-1.57.94-1.37 1.96-1.38 3.44-.09zM36 15.07h.21a9.07 9.07 0 001.11-.4c.37-.11.47 0 .78.26a1.77 1.77 0 01.19 2.76c-.6.7-1.53.44-2.49-.3a.81.81 0 01-.31-.53c0-.35.09-.71.14-1.06s.05-.63.37-.73zm-5.8 7.8c-.75.29-2.34-.55-2.37-1.06a2.82 2.82 0 01.69-2.19c.57-.36 1.59 0 2.39 0a2.1 2.1 0 01-.71 3.25zM4.92 56.25c-.17.28-.5.46-.47.82 0 .68-.48.69-.85.73a1.91 1.91 0 01-1.93-.8c-.47-.67-.11-1 .12-1.56.31-.81 1.21-1.6 2-1.28a1.8 1.8 0 01.73.72c.13.19.34.33.42.54a1.06 1.06 0 010 .47.55.55 0 01-.02.36zm-2.24 6.99c.15.15.71.44.75.79a1.7 1.7 0 01-2 2.29c-.54-.15-1.43-.55-1.43-.9-.12-1.69.72-2.32 2.68-2.18zm6.44-24l.16-.13a8.16 8.16 0 00.8-.88c.28-.27.41-.23.81-.12a1.61 1.61 0 011.32.93 1.68 1.68 0 01.11 1.46c-.2.89-1.15 1.08-2.36.86a.83.83 0 01-.52-.36 9.83 9.83 0 01-.34-1c-.1-.4-.22-.52.02-.76zm-1.35 9.61c-.5.61-2.31.69-2.6.27a2.75 2.75 0 01-.48-2.23C5 46.27 6 46.05 6.76 45.7a2.11 2.11 0 011.32 1.63 2.22 2.22 0 01-.31 1.52zM9.4 89.28c.08.31 0 .68.26.91.53.43.18.82-.05 1.12a1.9 1.9 0 01-1.87.89c-.8-.11-.78-.59-1-1.16-.39-.78-.37-2 .45-2.35a1.81 1.81 0 011 0 5.36 5.36 0 01.69.06 1.21 1.21 0 01.39.28.63.63 0 01.13.25zm3.6 6.4c.21 0 .8-.22 1.08 0a1.69 1.69 0 01.3 3c-.47.29-1.35.63-1.61.41-1.32-1.04-1.23-2.09.23-3.41zM.41 74.27a.88.88 0 010-.21c.07-.42 0-.8 0-1.2s.18-.45.56-.63a1.61 1.61 0 011.6-.16c.49.17.64.37 1 1s-.12 1.54-1.17 2.19a.83.83 0 01-.61.11 7 7 0 01-.92-.52c-.33-.21-.48-.24-.46-.58zm5.64 7.89c.06.78-1.15 2.12-1.65 2A2.67 2.67 0 012.49 83c-.23-.65.33-1.54.62-2.31a2.16 2.16 0 012.94 1.52zM36 110.62c.25.21.39.57.74.6.69.07.64.56.62.94a1.93 1.93 0 01-1 1.81c-.72.39-1 0-1.5-.35-.74-.44-1.42-1.37-1-2.17a1.86 1.86 0 01.8-.65 3.53 3.53 0 01.59-.35 1 1 0 01.48 0 .55.55 0 01.27.17zm6.59 3.38c.17-.11.58-.6.93-.57a1.71 1.71 0 011.79 2.5c-.27.48-.85 1.23-1.19 1.17-1.62-.3-2.07-1.19-1.53-3.1zm-23.28-9l-.13-.17a8.53 8.53 0 00-.81-.88c-.24-.3-.19-.44-.05-.83a1.63 1.63 0 011-1.25 1.6 1.6 0 011.44 0c.86.28 1 1.19.72 2.38a.79.79 0 01-.37.5c-.32.12-.68.2-1 .29s-.58.18-.8-.04zm9.52 2c.57.55.49 2.36.05 2.61a2.71 2.71 0 01-2.25.29c-.58-.35-.74-1.37-1-2.13a2.12 2.12 0 013.2-.77zm41.29 11.23c.31.12.56.41.91.33.68-.18.78.34.88.7a1.92 1.92 0 01-.42 2c-.57.58-.93.28-1.53.16-.83-.17-1.78-.81-1.64-1.7a1.78 1.78 0 01.54-.88c.16-.17.26-.41.45-.54a1.11 1.11 0 01.47-.14.64.64 0 01.34.07zm7.38 1.27c.13-.16.38-.74.73-.81a1.71 1.71 0 012.42 1.91c-.13.54-.5 1.41-.83 1.45-1.63.17-2.3-.58-2.32-2.55zm-24.97-.29l-.18-.1a8.33 8.33 0 00-1.1-.43c-.35-.16-.37-.3-.41-.72a1.61 1.61 0 01.36-1.57c.31-.4.56-.52 1.31-.63.91-.13 1.45.68 1.68 1.87a.83.83 0 01-.12.6 9 9 0 01-.81.7c-.35.29-.43.41-.73.28zm9.54-1.94c.74.31 1.33 2 1 2.42a2.75 2.75 0 01-2 1.09c-.66-.12-1.18-1-1.75-1.6a2.1 2.1 0 012.75-1.91zm43.35.03c.33.06.63.3 1 .15.64-.3.83.19 1 .52a1.93 1.93 0 010 2.08c-.45.68-.86.45-1.47.44-.84 0-1.89-.46-1.93-1.37a1.74 1.74 0 01.37-1 3.33 3.33 0 01.35-.61 1.08 1.08 0 01.42-.23.71.71 0 01.26.02zm7.51-.06c.1-.18.25-.8.59-.94a1.71 1.71 0 012.7 1.5c0 .55-.26 1.46-.59 1.55-1.57.43-2.35-.17-2.7-2.11zm-24.5 4.69l-.2-.05a9.56 9.56 0 00-1.17-.14c-.37-.06-.42-.2-.57-.59a1.63 1.63 0 010-1.61c.2-.47.42-.64 1.12-.94.86-.36 1.58.29 2.08 1.42a.81.81 0 010 .61c-.19.3-.41.58-.62.86s-.32.51-.64.44zM97.3 118c.8.14 1.72 1.67 1.48 2.13-.34.66-1.09 1.49-1.7 1.5s-1.37-.77-2-1.21A2.08 2.08 0 0197.3 118zm42.88-7.15c.33 0 .66.19 1 0 .57-.4.85 0 1.07.35a1.9 1.9 0 01.33 2c-.32.74-.77.58-1.37.67-.85.14-2-.14-2.15-1a1.84 1.84 0 01.2-1 2.88 2.88 0 01.24-.66 1.13 1.13 0 01.38-.3.58.58 0 01.3-.06zm7.31-1.47c.06-.2.08-.83.37-1a1.68 1.68 0 012.94.82c.09.54.09 1.49-.21 1.65-1.44.76-2.34.36-3.1-1.47zm-23.39 8.55h-.21a7.6 7.6 0 00-1.17 0c-.37 0-.44-.14-.65-.5a1.62 1.62 0 01-.27-1.59c.13-.49.31-.69 1-1.09s1.61.07 2.27 1.11a.82.82 0 01.11.61 9.1 9.1 0 01-.48.93c-.25.39-.28.54-.6.53zm8.22-5.2c.8 0 1.92 1.41 1.75 1.9-.24.69-.88 1.63-1.48 1.74s-1.46-.58-2.19-.93a2.09 2.09 0 011.92-2.71zm38.89-17.65c.31-.11.7-.06.9-.36.36-.6.78-.3 1.1-.1a1.92 1.92 0 011.09 1.77c0 .83-.47.85-1 1.16-.74.43-1.9.59-2.4-.16a1.89 1.89 0 01-.18-1 3.22 3.22 0 010-.69 1.08 1.08 0 01.25-.41.66.66 0 01.24-.21zm6.11-4.21c0-.21-.27-.79-.08-1.09.52-1 1.17-1.23 1.74-1.18a2 2 0 011.3.74c.31.46.7 1.33.5 1.61-1.02 1.31-2.04 1.28-3.46-.08zm-18.82 16.35h-.2c-.41.08-.74.26-1.13.35s-.48 0-.77-.3a1.62 1.62 0 01-.7-1.45c0-.51.11-.75.63-1.3s1.52-.42 2.46.37a.81.81 0 01.29.55c0 .35-.12.7-.19 1s-.07.69-.39.78zm6.12-7.54c.75-.27 2.29.63 2.31 1.15 0 .73-.23 1.85-.78 2.14s-1.59 0-2.39-.1a2.07 2.07 0 01.86-3.19zm26.73-32.23c.2-.26.54-.43.54-.79 0-.68.47-.68.85-.7a1.92 1.92 0 011.91.83c.48.7.08 1-.2 1.55-.38.79-1.25 1.56-2.08 1.2a1.84 1.84 0 01-.71-.75c-.12-.19-.33-.34-.41-.56a1.06 1.06 0 010-.47.65.65 0 01.1-.31zm2.47-6.89c-.15-.15-.67-.45-.74-.8a1.7 1.7 0 012-2.26c.53.15 1.38.56 1.39.92a2 2 0 01-.47 1.78 3.11 3.11 0 01-2.18.36zm-7.42 23.68l-.16.13c-.33.26-.55.57-.86.83s-.43.2-.83.07a1.62 1.62 0 01-1.27-1 1.59 1.59 0 010-1.44c.24-.88 1.16-1 2.36-.77a.85.85 0 01.51.36 10.12 10.12 0 01.3 1c.11.47.19.58-.05.82zm1.79-9.54c.53-.58 2.35-.58 2.61-.15a2.73 2.73 0 01.37 2.26c-.33.59-1.34.79-2.11 1.1a2.15 2.15 0 01-1.24-1.7 2.18 2.18 0 01.37-1.51zm-2.1-39.48c-.12-.3-.07-.67-.38-.86-.59-.35-.29-.78-.1-1.1a1.91 1.91 0 011.76-1.11c.82 0 .86.49 1.2 1 .48.73.55 2-.2 2.41a1.8 1.8 0 01-1 .15 3.09 3.09 0 01-.68 0 1.21 1.21 0 01-.39-.24.64.64 0 01-.21-.25zm-4.35-5.87c-.21 0-.78.34-1.1.19a1.71 1.71 0 01-.69-3c.42-.35 1.23-.81 1.53-.62 1.42.92 1.52 1.9.26 3.43zm14.35 20.16a1.62 1.62 0 010 .21c-.07.43 0 .81 0 1.22s-.16.46-.54.64a1.6 1.6 0 01-1.6.18c-.48-.15-.67-.35-1-1s.05-1.52 1.09-2.21a.79.79 0 01.6-.12c.32.13.64.31 1 .48s.45.26.45.6zm-6.03-7.58c-.07-.78.94-2.19 1.47-2.15a2.48 2.48 0 012 1.1c.27.64-.24 1.58-.43 2.35a2.13 2.13 0 01-3.04-1.3zM157.34 16c-.25-.21-.38-.57-.74-.6-.71-.06-.63-.58-.59-.95a1.92 1.92 0 011.09-1.77c.73-.36 1 0 1.49.35.74.42 1.41 1.36 1 2.17a1.77 1.77 0 01-.81.62 3.7 3.7 0 01-.61.35 1.16 1.16 0 01-.49 0 .71.71 0 01-.34-.17zm-6.48-3.71c-.18.1-.62.58-1 .53a1.67 1.67 0 01-1.64-2.57c.3-.46.94-1.16 1.27-1.09 1.62.37 2.02 1.25 1.37 3.13zm23.33 8.8a2.11 2.11 0 01.15.15 10.51 10.51 0 00.91.74c.28.25.25.39.16.79a1.61 1.61 0 01-.85 1.37 1.66 1.66 0 01-1.46.2c-.92-.15-1.17-1.09-1-2.3a.85.85 0 01.31-.53c.32-.15.66-.27 1-.39s.59-.25.78-.03zm-9.62-1.38c-.6-.53-.58-2.33-.13-2.59a2.8 2.8 0 012.25-.39c.59.32.77 1.34 1.12 2.06a2.16 2.16 0 01-3.24.92zM123.74 5.65c-.29-.15-.51-.47-.87-.42-.69.1-.74-.42-.8-.79a1.93 1.93 0 01.62-2c.62-.52.94-.18 1.53 0 .81.25 1.69 1 1.47 1.87a1.91 1.91 0 01-.63.82c-.18.15-.3.37-.51.48a1.07 1.07 0 01-.47.1.64.64 0 01-.34-.06zm-7.21-1.98c-.15.14-.45.7-.81.74a1.73 1.73 0 01-2.22-2.17c.18-.52.62-1.34 1-1.34 1.6.01 2.2.8 2.03 2.77zm24.8 2.74a1.2 1.2 0 01.17.11 8.47 8.47 0 001.07.49c.33.18.33.32.35.74a1.63 1.63 0 01-.5 1.53c-.34.38-.6.48-1.37.55-.93.07-1.4-.77-1.51-2a.77.77 0 01.17-.59 10.41 10.41 0 01.86-.62c.43-.24.43-.37.76-.21zm-9.67 1.02c-.72-.38-1.13-2.13-.77-2.49A2.76 2.76 0 01133 4c.65.17 1.08 1.12 1.59 1.74a2.12 2.12 0 01-2.93 1.69zm-43.05-3.6c-.32-.08-.61-.33-.94-.19-.65.26-.83-.23-1-.57A1.92 1.92 0 0186.82 1c.47-.65.87-.4 1.48-.37.85 0 1.88.54 1.88 1.45a1.79 1.79 0 01-.41.94 4 4 0 01-.37.6 1.19 1.19 0 01-.44.21.7.7 0 01-.35 0zm-7.47-.19c-.11.18-.27.8-.61.93A1.7 1.7 0 0177.86 3c0-.56.27-1.46.6-1.55 1.59-.37 2.36.24 2.68 2.19zM105.85.25l.2.07c.39.15.77.11 1.15.22s.41.24.52.65a1.62 1.62 0 01-.1 1.61c-.24.45-.47.57-1.19.83-.88.31-1.55-.4-2-1.55a.83.83 0 010-.62c.21-.28.45-.54.69-.81s.42-.48.73-.4zm-9.12 3.36c-.79-.2-1.62-1.81-1.35-2.24C95.76.74 96.55 0 97.17 0s1.32.85 2 1.32a2.09 2.09 0 01-2.44 2.29z" fill="currentColor"/></svg>