<svg xmlns="http://www.w3.org/2000/svg" viewBox="0 0 158.2 133.36"><path d="M103.92 9.09c0 1 .1 1.67.07 2.68a21.33 21.33 0 01-.5 3.17c-.07.44 0 1.15-.25 1.52a.66.66 0 01-.55.28.79.79 0 00.22.06c.21 0 .38-.27.47-.5.56-1.47.67-2.84 1.28-4.3l.86-2a13.08 13.08 0 012.22-3.82 5.64 5.64 0 012.68-1.4 7.41 7.41 0 012.3-.12 18.49 18.49 0 012.55.31 4.17 4.17 0 012.14 1.25 7.73 7.73 0 011.66 2.08 6 6 0 01.38 2c0 .69.2 1.3.24 2a9.49 9.49 0 01-.5 3.07c-.37 1.3-1.07 2.59-1.37 3.89a2 2 0 00.85 2.26c.33.2.71-.14 1.08-.66a18.53 18.53 0 001.67-4.24 34.49 34.49 0 00.58-5.32 9 9 0 000-2.08 9.58 9.58 0 00-1.53-3.36 4.84 4.84 0 00-1.78-1.73A10.09 10.09 0 00115 2.68a31 31 0 00-3.24-.34 6.85 6.85 0 00-3.14.64 9.66 9.66 0 00-3 2.4 24.35 24.35 0 00-1.7 2.78v.06c-.01.31 0 .61 0 .87z" fill="currentColor"/><path d="M103.49 14.94a21.33 21.33 0 00.5-3.17c0-1-.07-1.67-.07-2.68v-.87l-1.34 8.5a.34.34 0 00.14 0 .66.66 0 00.55-.28c.24-.35.15-1.06.22-1.5zM33.26 27.61a8.49 8.49 0 01.68.56c.76.66 1.32 1 2.06 1.7a22 22 0 012 2.47c.28.35.88.75 1 1.2a.69.69 0 01-.15.59.76.76 0 00.19-.12c.15-.15 0-.47-.07-.68-.74-1.4-1.69-2.38-2.39-3.81l-.94-2a12.66 12.66 0 01-1.4-4.18 5.59 5.59 0 01.76-2.91 7.28 7.28 0 011.42-1.8 16.38 16.38 0 011.9-1.72 4.14 4.14 0 012.32-.78 7.59 7.59 0 012.65.11 5.68 5.68 0 011.77 1c.52.43 1.11.68 1.64 1.1a9.17 9.17 0 012 2.37c.75 1.13 1.28 2.5 2.07 3.57a2 2 0 002.29.81c.81-.29-.14-2.37-.69-3.61l-.13-.18a15 15 0 01-.58-1.63 13.89 13.89 0 01-.6-4.49 8 8 0 011.17-4c.21-.3.59-.46.82-.75a5.85 5.85 0 014.1-1.83A5.71 5.71 0 0162 10.26 11.82 11.82 0 0163.79 12a14.38 14.38 0 012 4.82c.22.74.61 2.35 1.39 2.41A1.16 1.16 0 0068.5 18c0-.5-.2-1-.24-1.5a17.42 17.42 0 01-.34-1.72c0-1.37-.32-2.88-.17-4.23a9.34 9.34 0 01.44-1.88 4 4 0 011.3-1.89 11.48 11.48 0 011.87-1.28c1-.49.83-.77 1.91-1.17a5.74 5.74 0 014.15.2A10.36 10.36 0 0180 5.81 15.9 15.9 0 0182.71 9c1.4 2.05 1.05 4.32 1.52 6.63.16.78.88 1.62 1.52 1.15a2.78 2.78 0 00.91-1.42 8.93 8.93 0 000-1.37 9.45 9.45 0 01.43-2.68c.39-.94.6-3.35 1.07-4.26a9.54 9.54 0 011.57-2.18 16.27 16.27 0 011.66-1.54 5.33 5.33 0 012.73-.91 16.47 16.47 0 013 0 5.38 5.38 0 012.75 1.3c.8.72 1.13 3.28 1.53 4.28a7.52 7.52 0 01.21 2.2c.06.86.1 1.73.14 2.59s-.27 1.65-.21 2.46a1.75 1.75 0 00.58 1.3.89.89 0 00.43.15 1.75 1.75 0 01-.56-1.59 42.77 42.77 0 01.91-4.56 14.59 14.59 0 011-2.34 13.45 13.45 0 00-1.06-4.78 6.22 6.22 0 00-2.21-2.21 6.85 6.85 0 00-3-1 13 13 0 00-3.76-.11 9.08 9.08 0 00-3.1 1.27 10.68 10.68 0 00-2.56 2.16 21.21 21.21 0 00-1.91 3.34c-.42.86-.27 2.24-.62 3.14a.45.45 0 000 .12.6.6 0 01-.06-.11 27.37 27.37 0 00-1.18-2.65 15.56 15.56 0 00-1.85-2.63 9.41 9.41 0 00-2-1.69 6.38 6.38 0 00-2.4-1.17A17.46 17.46 0 0075 1.76a9.08 9.08 0 00-3 .63 10.51 10.51 0 00-4.58 3.4 7 7 0 00-1.28 2 14.31 14.31 0 00-.51 2.7.89.89 0 01-.08.17l-.15-.14a25.54 25.54 0 00-3-2.91 9.34 9.34 0 00-5.66-1.17 9.55 9.55 0 00-3 .67 6.07 6.07 0 00-3.4 3.16 15.58 15.58 0 00-1.29 3 12.44 12.44 0 00-.47 3.21 3 3 0 00.07.8 17 17 0 00-2.89-2.61 9.73 9.73 0 00-3.52-1 5 5 0 00-2.46.2 10.22 10.22 0 00-3.42 1.73c-.73.67-1.62 1.39-2.37 2.22a6.65 6.65 0 00-1.57 2.78 9.39 9.39 0 00-.21 3.86 25.56 25.56 0 001 3.11z" fill="currentColor"/><path d="M102 15.08a1.75 1.75 0 00.56 1.59l1.34-8.51a14.59 14.59 0 00-1 2.34 42.77 42.77 0 00-.9 4.58zM38.05 32.34a22 22 0 00-2-2.47c-.74-.68-1.3-1-2.06-1.7a8.49 8.49 0 00-.68-.56l5.51 6.62a.52.52 0 00.11-.1.69.69 0 00.15-.59c-.15-.45-.75-.85-1.03-1.2zM10.64 94.87c.26-.18.51-.36.73-.5.86-.53 1.37-1 2.24-1.47a24.89 24.89 0 013-1.25c.41-.17 1-.6 1.42-.59a.63.63 0 01.5.27.47.47 0 00-.06-.19C18.36 91 18 91 17.8 91c-1.53.33-2.76.94-4.32 1.19l-2.15.31a12.11 12.11 0 01-4.45 0 5.27 5.27 0 01-2.53-1.8 7.76 7.76 0 01-1.22-2.13c-.59-1.66-1.44-3.56-.6-5.2a8.19 8.19 0 011.24-2.45 5.15 5.15 0 011.71-1.15c.63-.27 1.13-.68 1.75-1a9.29 9.29 0 013-.65c1.35-.12 2.8 0 4.12-.13a1.91 1.91 0 001.79-1.49c.16-.78-2.12-1-3.47-1.13h-.22a14 14 0 01-1.7-.3 13.18 13.18 0 01-4.2-1.75 7.2 7.2 0 01-2.7-3.02c-.14-.35-.09-.77-.22-1.13-.58-1.65.07-3.22.68-4.63a5.89 5.89 0 014.15-3.18 12.06 12.06 0 012.43-.44A14.47 14.47 0 0116 62.11c.73.25 2.28.86 2.76.29a1.14 1.14 0 00-.26-1.76c-.43-.28-.92-.43-1.35-.69s-1.21-.45-1.59-.74A41.73 41.73 0 0112 56.86a9.33 9.33 0 01-1.25-1.48 4 4 0 01-.75-2.2 14.68 14.68 0 01.15-2.29c.24-1.13-.12-1.15.24-2.26a6 6 0 012.77-3.19 10.79 10.79 0 012.63-1.18A16.16 16.16 0 0117.9 44a18.69 18.69 0 012.12.09c2.46.23 4 1.95 6.06 3.07.69.37 1.78.38 1.82-.4a2.81 2.81 0 00-.5-1.6 9.91 9.91 0 00-1-.9 9.49 9.49 0 01-1.77-2c-.47-.91-2.17-2.63-2.56-3.58a9.22 9.22 0 01-.63-2.61 15.51 15.51 0 01-.08-2.27 5.41 5.41 0 011.1-2.68 16.51 16.51 0 012-2.25 5.27 5.27 0 012.8-1.22c1.09-.1 3.23 1.28 4.26 1.71a7.24 7.24 0 011.79 1.29c.69.53 1.37 1.06 2 1.61S36.36 33.53 37 34a1.84 1.84 0 001.36.42.89.89 0 00.4-.22 1.78 1.78 0 01-1.56-.63 43 43 0 01-2.82-3.7 14.49 14.49 0 01-1.12-2.27 13.71 13.71 0 00-4.29-2.36 6.1 6.1 0 00-3.13.22 6.83 6.83 0 00-2.75 1.66 13.14 13.14 0 00-2.52 2.74 9.2 9.2 0 00-1.09 3.2 10.59 10.59 0 000 3.37A19.58 19.58 0 0020.73 40c.38.88 1.53 1.66 2 2.5a.34.34 0 00.09.08h-.12a23.8 23.8 0 00-2.79-.8 15 15 0 00-3.21-.26 9 9 0 00-2.61.53 6.16 6.16 0 00-2.43 1.16 14.61 14.61 0 00-2.09 2.42 9.57 9.57 0 00-1.42 2.84A10.48 10.48 0 008 54.31a7.61 7.61 0 00.83 2.24 13.14 13.14 0 001.87 2 .54.54 0 01.1.16h-.21a25.07 25.07 0 00-4.1.76c-1.78.67-3.06 2.26-4.25 4.13a11.55 11.55 0 00-1.06 3A5 5 0 001 67.9a5.68 5.68 0 00.15 1.24A8.42 8.42 0 002 71.4a12.07 12.07 0 004.47 4.8 3.51 3.51 0 00.73.33 15.31 15.31 0 00-3.6 1.31A9.8 9.8 0 001 80.62a5.61 5.61 0 00-.86 2.47c-.07.68-.13 1.39-.14 2.1a8.7 8.7 0 00.34 2.06c.55 2.07 1.58 4.81 3.3 6a9.55 9.55 0 003.7 1.56 19.65 19.65 0 003.25 0z" fill="currentColor"/><path d="M37.17 33.56a1.78 1.78 0 001.56.63l-5.51-6.63a14.49 14.49 0 001.12 2.27 43 43 0 002.83 3.73zM16.58 91.65a24.89 24.89 0 00-3 1.25c-.87.5-1.38.94-2.24 1.47-.22.14-.47.32-.73.5l7.91-3.42-.05-.12a.63.63 0 00-.5-.27c-.41-.01-.97.42-1.39.59z" fill="currentColor"/><path d="M75.23 126.15c-.06-.31-.11-.6-.15-.86-.13-1-.32-1.63-.43-2.63a21.5 21.5 0 010-3.21c0-.45-.18-1.14 0-1.55a.74.74 0 01.52-.36h-.23c-.22 0-.35.33-.4.56-.36 1.55-.28 2.92-.69 4.46l-.57 2.1a13.41 13.41 0 01-1.63 4.07 5.66 5.66 0 01-2.4 1.82 7.56 7.56 0 01-2.19.49c-1.62.14-3.45.43-4.75-.69a8.4 8.4 0 01-2-1.72 6 6 0 01-.77-1.86c-.14-.65-.45-1.23-.63-1.88a9.6 9.6 0 01-.15-3.12c.09-1.35.5-2.76.51-4.09a1.93 1.93 0 00-1.37-2c-.84-.26-1.32 2-1.63 3.29v.23a13.37 13.37 0 01-.52 1.64 14 14 0 01-2.21 4 7.65 7.65 0 01-3.29 2.48c-.34.11-.74 0-1.1.13-1.62.47-3.1-.23-4.43-.91a5.89 5.89 0 01-2.95-4.24 12.27 12.27 0 01-.39-2.44 14.42 14.42 0 011.29-5c.27-.73.91-2.26.33-2.75a1.17 1.17 0 00-1.79.2c-.28.42-.44.92-.7 1.35s-.48 1.2-.77 1.57a40.3 40.3 0 01-2.4 3.47 9.87 9.87 0 01-1.34 1.12 3.76 3.76 0 01-2.2.7 14.73 14.73 0 01-2.3-.15c-1.14-.22-1.15.08-2.26-.3a5.54 5.54 0 01-3.24-2.84 9.23 9.23 0 01-1.15-2.67 15.88 15.88 0 010-4.19c.36-2.43 2.16-3.88 3.39-5.89.41-.68.52-1.75-.21-1.81a2.9 2.9 0 00-1.6.47 9 9 0 00-1 1 9.16 9.16 0 01-2.15 1.61c-.91.41-2.76 2-3.75 2.25a9.43 9.43 0 01-2.71.37 13.11 13.11 0 01-2.29-.24c-2-.45-3.41-2.39-4.62-4.06a5.72 5.72 0 01-.71-3.16c.07-1.11 2-2.92 2.63-3.81a7.19 7.19 0 011.71-1.41c.68-.53 1.38-1 2.09-1.54s1.51-.69 2.17-1.17a1.81 1.81 0 00.79-1.11.8.8 0 00-.09-.39h-.05c0 .51-.6 1-1.05 1.24a40.88 40.88 0 01-4.32 1.72 12.26 12.26 0 01-2.52.46 11.94 11.94 0 00-3.36 3.55 6.24 6.24 0 00-.48 3.29A8.07 8.07 0 008 105a15 15 0 002.48 3.22 9.87 9.87 0 003.19 1.68 9.5 9.5 0 003.45.47 17.45 17.45 0 003.73-.95c.93-.33 1.78-1.43 2.65-1.85a.34.34 0 00.09-.08.53.53 0 010 .12 23.26 23.26 0 00-1 2.73 14 14 0 00-.42 3.23 9.69 9.69 0 00.46 2.63 5.91 5.91 0 001.12 2.52 24.39 24.39 0 002.43 2.19 11.29 11.29 0 002.82 1.47 10.64 10.64 0 005.81.17 7.72 7.72 0 002.26-.82 13.37 13.37 0 002-1.83.61.61 0 01.18-.09v.2a27 27 0 00.68 4.1 9.46 9.46 0 003.87 4.33 10.7 10.7 0 002.78 1.19 6.12 6.12 0 004.59-.51 13.36 13.36 0 005.1-3.94c0 .07.21-.29.43-.69a17.61 17.61 0 00.72 3.8 9.71 9.71 0 002.13 3 5.21 5.21 0 002 1.33c.59.21 1.19.41 1.8.57a7.29 7.29 0 001.84.19c1-.05 2.07-.06 3.14-.22a6.44 6.44 0 002.99-1.16 9.76 9.76 0 002.61-2.8 25.41 25.41 0 001.3-3z" fill="currentColor"/><path d="M17.45 92.71c.45-.22 1-.73 1.05-1.24l-7.91 3.43a12.26 12.26 0 002.52-.46 40.88 40.88 0 004.34-1.73zm57.25 26.74a21.5 21.5 0 000 3.21c.11 1 .3 1.63.43 2.63 0 .26.09.55.15.86l.19-8.61a.86.86 0 00-.16 0 .74.74 0 00-.52.36c-.27.41-.07 1.1-.09 1.55z" fill="currentColor"/><path d="M141.78 97.7l-.82-.32c-.92-.41-1.55-.59-2.46-1a22.64 22.64 0 01-2.7-1.75c-.37-.25-1.05-.47-1.28-.85a.68.68 0 01-.05-.6.79.79 0 00-.14.17c-.09.18.11.44.28.61 1.13 1.11 2.33 1.78 3.42 2.93l1.48 1.61a12.16 12.16 0 012.54 3.62 5.61 5.61 0 010 3.07 9.66 9.66 0 01-.92 2.21c-1 1.45-2 3.15-3.72 3.59a8.6 8.6 0 01-2.75.45 5.35 5.35 0 01-2-.65c-.59-.33-1.21-.47-1.8-.78a8.84 8.84 0 01-2.35-2c-.9-1-1.65-2.27-2.59-3.2a2 2 0 00-2.37-.51c-.73.39.51 2.31 1.23 3.46l.16.16a14.93 14.93 0 012 5.91 7.55 7.55 0 01-.67 4.07c-.17.32-.52.55-.72.87a4 4 0 01-1.74 1.6 10.77 10.77 0 01-2.18.8 5 5 0 01-2.64.06 6.29 6.29 0 01-2.43-1.17 11.53 11.53 0 01-1.92-1.51 14.49 14.49 0 01-2.45-4.6c-.29-.72-.84-2.26-1.61-2.26a1.14 1.14 0 00-1.2 1.34c.08.5.3 1 .39 1.47s.46 1.2.5 1.68c.1 1.36.59 2.83.57 4.19a9.83 9.83 0 01-.26 1.94 3.77 3.77 0 01-1.14 2 14.43 14.43 0 01-1.76 1.45c-1 .6-.75.88-1.81 1.33a5.81 5.81 0 01-4.15.16 10.88 10.88 0 01-2.64-1.1 16.47 16.47 0 01-3-2.89c-1.57-1.93-1.42-4.21-2.09-6.47-.23-.77-1-1.55-1.63-1a2.82 2.82 0 00-.79 1.52 9.12 9.12 0 00.1 1.37 9.75 9.75 0 01-.19 2.71c-.3 1-.3 3.38-.68 4.32a10 10 0 01-1.36 2.31 14.92 14.92 0 01-1.49 1.72c-1.45 1.23-3.63 1.38-5.51 1.48a5.27 5.27 0 01-2.84-1c-.86-.66-1.53-3.07-2-4.09a7.56 7.56 0 01-.49-2.17c-.17-.85-.32-1.7-.47-2.56s0-1.66-.12-2.47a1.74 1.74 0 00-.77-1.22 1 1 0 00-.45-.09 1.7 1.7 0 01.78 1.5 39.27 39.27 0 01-.31 4.63 14.46 14.46 0 01-.65 2.47 14.6 14.6 0 001.66 4.6 6.72 6.72 0 005.5 2.54A12.84 12.84 0 0086 133a10.53 10.53 0 005.24-4 19.63 19.63 0 001.59-3.48c.34-.91.07-2.27.33-3.2a.57.57 0 000-.13l.06.1a26.36 26.36 0 001.42 2.55 16.24 16.24 0 002.06 2.48 8.91 8.91 0 002.17 1.49 6.3 6.3 0 002.48 1 16 16 0 003.12-.14 11.52 11.52 0 003-.86 11.17 11.17 0 004.28-3.81 7.82 7.82 0 001.1-2.15 14.52 14.52 0 00.26-2.73.58.58 0 01.06-.17l.16.13a23.38 23.38 0 003.27 2.59 9.39 9.39 0 005.82.54 11.72 11.72 0 002.91-1 6.25 6.25 0 003.06-3.61 12.34 12.34 0 00.9-6.46 2.89 2.89 0 00-.19-.78 17.19 17.19 0 003.27 2.14 8.62 8.62 0 003.75.31 6 6 0 002.53-.76 11.38 11.38 0 003.13-2.67l1-1.35a15.38 15.38 0 00.88-1.54 7.08 7.08 0 00.88-3.2 8.91 8.91 0 00-.88-3.84 23.72 23.72 0 00-1.84-2.7z" fill="currentColor"/><path d="M76.2 119.09a1.7 1.7 0 00-.78-1.5l-.19 8.62a14.46 14.46 0 00.65-2.47 39.27 39.27 0 00.32-4.65zm59.6-24.48a22.64 22.64 0 002.7 1.75c.91.43 1.54.61 2.46 1l.82.32-7.24-4.68a.75.75 0 00-.07.12.68.68 0 00.05.6c.23.42.91.64 1.28.89z" fill="currentColor"/><path d="M138.62 27.06c-.2.24-.39.47-.57.66-.69.74-1.06 1.29-1.76 2a21.31 21.31 0 01-2.53 2c-.35.27-.77.85-1.22.94a.71.71 0 01-.6-.16 1.07 1.07 0 00.13.19c.14.15.46 0 .68-.06 1.41-.7 2.43-1.62 3.87-2.27l2-.88a12.9 12.9 0 014.22-1.27 5.51 5.51 0 012.93.81 8.59 8.59 0 011.76 1.48c1.14 1.24 2.44 2.62 2.36 4.35a8.48 8.48 0 01-.22 2.67 5.7 5.7 0 01-1.1 1.73c-.47.51-.76 1.1-1.21 1.61a9.2 9.2 0 01-2.52 1.86c-1.18.66-2.58 1.1-3.71 1.81a1.83 1.83 0 00-1 2.06c.22.72 2.35 0 3.65-.41l.19-.12a15.7 15.7 0 011.67-.4 12.8 12.8 0 014.49-.08 7.74 7.74 0 013.84 1.77c.27.26.36.68.61 1a6.46 6.46 0 011.19 4.57 6 6 0 01-2.63 4.55 10.43 10.43 0 01-2.14 1.29 14.4 14.4 0 01-5.16.81c-.77 0-2.44.06-2.68.77a1.11 1.11 0 00.89 1.51c.5.09 1 0 1.52.13s1.29 0 1.75.09c1.33.36 2.88.4 4.16.89a8.62 8.62 0 011.69.91 3.93 3.93 0 011.46 1.77 13.94 13.94 0 01.76 2.2c.2 1.14.49 1 .55 2.2a5.73 5.73 0 01-1.4 4 11.32 11.32 0 01-2 2 15.11 15.11 0 01-3.83 1.64c-2.41.66-4.43-.4-6.78-.7-.79-.1-1.82.28-1.59 1a2.93 2.93 0 001.08 1.31 9.83 9.83 0 001.29.48 9.71 9.71 0 012.4 1.29c.78.68 2.94 1.67 3.63 2.43a9.59 9.59 0 011.49 2.22 15.62 15.62 0 01.89 2.13 5.21 5.21 0 01-.16 2.92 24.21 24.21 0 01-1.1 2.84 5.34 5.34 0 01-2.32 2.1c-1 .46-3.45-.16-4.55-.24a7.24 7.24 0 01-2.09-.66c-.82-.29-1.64-.6-2.45-.92s-1.45-.88-2.18-1.12a1.87 1.87 0 00-1.43 0 .81.81 0 00-.3.31 1.8 1.8 0 011.67.16 43 43 0 013.81 2.65 12.65 12.65 0 011.75 1.84 13.81 13.81 0 004.86.93 7.16 7.16 0 005-3.79c.56-1.42 1.18-2 1.46-3.51a9.7 9.7 0 00.17-1.7 11.21 11.21 0 00-.22-1.73 11.39 11.39 0 00-1.14-3.2 9.18 9.18 0 00-1.14-1.52c-.49-.55-1-1.07-1.35-1.41-.69-.69-2-1-2.78-1.63h-.11.12a25.59 25.59 0 002.9-.25 15.56 15.56 0 003.11-.9A8.44 8.44 0 00155 77.5a6.22 6.22 0 001.86-2c.23-.51.45-1 .65-1.51a11.74 11.74 0 00.43-1.51 11.43 11.43 0 00.29-3.19 9.08 9.08 0 00-.65-2.89 11.92 11.92 0 00-1.39-2.58 6.26 6.26 0 00-1.61-1.79 13.34 13.34 0 00-2.58-1.14c-.06 0-.1-.08-.15-.12l.18-.11a25.26 25.26 0 003.54-2.26c1.39-1.3 2-3.27 2.33-5.48a5.37 5.37 0 000-1.63c-.06-.48-.14-1-.23-1.57a6.14 6.14 0 00-2.64-4.12 14.8 14.8 0 00-2.89-1.77 9.74 9.74 0 00-1.48-.55 12.49 12.49 0 00-1.66-.31 3.48 3.48 0 00-.82 0 14.88 14.88 0 002.79-2.7 9.88 9.88 0 001.24-3.63 5.53 5.53 0 00-.11-2.49 10.36 10.36 0 00-1.63-3.51c-1.23-1.57-2.87-3.64-4.88-4.16a9.63 9.63 0 00-3.85-.33 24.76 24.76 0 00-3.15.87z" fill="currentColor"/><path d="M136.25 93.23a1.8 1.8 0 00-1.67-.16l7.25 4.67a12.65 12.65 0 00-1.75-1.84 43 43 0 00-3.83-2.67zm-2.49-61.52a21.31 21.31 0 002.53-2c.7-.71 1.07-1.26 1.76-2 .18-.19.37-.42.57-.66l-6.77 5.32s.05.08.09.11a.71.71 0 00.6.16c.46-.08.87-.64 1.22-.93z" fill="currentColor"/><path d="M123.77 16.51c-1.26 1.11-1.81 2.33-3.09 3.38a3.41 3.41 0 00-.86 1.8.76.76 0 00.71.85c.69 0 1.49-.9 2-1.48.74-.92 1.36-2 2.18-2.83a12.78 12.78 0 013.07-2.59 9 9 0 012.62-.63 13.4 13.4 0 012.29-.06c2 .23 3.59 1.8 4.93 3.21a5.1 5.1 0 011.13 2.84c.08 1.1-1.36 3.2-1.81 4.22A7.35 7.35 0 01135.6 27c-.55.68-1.1 1.34-1.66 2s-1.31 1-1.83 1.67a1.77 1.77 0 00-.47 1.35.78.78 0 00.21.4 1.74 1.74 0 01.67-1.53 42.8 42.8 0 013.77-2.72 15 15 0 012.35-1.17 13.71 13.71 0 002.48-4.23 6.81 6.81 0 00-1.76-5.95c-1.08-1.05-1.39-1.81-2.73-2.61A10.54 10.54 0 00130 13a17.36 17.36 0 00-3.63 1.33 12.82 12.82 0 00-2.6 2.18z" fill="currentColor"/><path d="M132.56 30.81a1.74 1.74 0 00-.67 1.53l6.78-5.34a15 15 0 00-2.31 1.06 42.8 42.8 0 00-3.8 2.75z" fill="currentColor"/></svg>