<svg xmlns="http://www.w3.org/2000/svg" viewBox="0 0 229.5 154.6"><path d="M50.91 20.17l-.61.3a9.79 9.79 0 00-2.36 1.36l-.09.07a4 4 0 01.9-.57 15.18 15.18 0 002.16-1.16zm.41 8.83c.78-.34 2-1.07 2.72-1.41s1.23-.65 1.83-1c-1.31.55-3.13 1.63-4.55 2.41zm-.68-2.2l.94-.49c-.28.14-.68.34-.94.49zM56 32.55l-.17.09zm1.74 5.51c.41-.2.86-.36 1.24-.59l.19-.12-1.58.77zm2.83 5.08c.21-.13.45-.3.7-.49l-.77.53zm2.06 5.2c.71-.36 1.59-.9 2.57-1.39a6.25 6.25 0 00-1.06.45c-.53.27-.99.66-1.51.94z" fill="currentColor"/><path d="M47.36 24.77l.24-.15c.54-.3 1.08-.62 1.63-.94h.08a38.76 38.76 0 013.45-1.8c1-.45 1.92-1 2.88-1.45s2-.79 3-1.17c.8-.28 1.61-.54 2.38-.87 1.38-.6 2.7-1.35 4.09-1.92 1.56-.59 3.16-1.07 4.74-1.59.91-.27 1.82-.54 2.71-.89 1.83-.74 3.37-.75 5.22-1.38a27.55 27.55 0 013.36-.73c1.5-.29 3-.62 4.49-.87s2.86-.56 4.29-.8l.11-1-.43-1c-.85.06-1.71 0-2.55.12-1.05.12-2.05.44-3.14.67s-1.91.27-3 .57-2 .2-3 .5a25.43 25.43 0 01-3.42.83 4.87 4.87 0 00-2.28.69 7 7 0 01-1.75.57c-.38.1-2.09.55-2.56.77-1.07.44-2.15.85-3.24 1.25-1.84.71-3.69 1.45-5.52 2.22-.86.38-1.84.71-2.67 1.13 0 0-.83.37-.85.33l-1 .53c-.56.25-1.24.6-1.71.77a16.17 16.17 0 00-2 1 15.18 15.18 0 01-2.16 1.16 4 4 0 00-.9.57A12.56 12.56 0 0146.33 23l.24.85zm-2.85-4.93c.83-.52 1.68-1 2.54-1.4.68-.33 1.47-.73 2.16-1.1l.3-.13 5-2.22c1.42-.6 2.73-1.49 4.13-2.14.83-.37 1.68-.58 2.5-.95s1.92-.67 2.84-1.07 2.17-.58 3.22-1c1.7-.71 3.58-1 5.3-1.63 1.18-.4 2.36-.73 3.55-1.07s2.38-.67 3.58-.94 2.69-.59 4-.82L88 4.76l1-.2.08-1.14-.44-1.14-1.14.2c-2.12.34-4.24.68-6.36 1.17-1.32.29-2.65.55-4 .87s-2.64.69-3.95 1.06-2.6.76-3.92 1.21c-1.93.65-4.1 1-6 1.72-1.28.49-2.23 1-3.49 1.55s-2.78.89-4 1.5-2.07 1.1-3.13 1.58c-.63.32-1.36.45-2 .75-1.27.58-2.39 1.2-3.62 1.88s-2.52 1.33-3.76 2.07l.48 1.09zm5.64 9.76h.1c.3-.17.67-.38 1.07-.59 1.42-.75 3.24-1.83 4.55-2.42l.53-.25c.18-.08.6-.38.89-.56a16.53 16.53 0 011.92-1c1.27-.53 2.55-1 3.82-1.54.91-.35 1.77-.8 2.67-1.14 1.23-.5 2.53-.79 3.77-1.23 2.13-.76 4.29-1.36 6.44-2l3.62-.94c1.08-.29 2.18-.48 3.27-.71l3.2-.79c1-.2 2-.44 3-.62.61-.1 1.23-.05 1.84-.12l.16-1.15-.48-1-6.24 1.16c-.91.17-1.86.14-2.78.31s-1.51.5-2.28.72c-1 .28-2 .46-3 .72-1.66.43-3.31 1-5 1.47S67.92 19 66.3 19.6l-4.08 1.62c-1.11.45-2.23.93-3.36 1.35s-2.27.89-3.37 1.39a11.27 11.27 0 00-1.2.79 9.86 9.86 0 01-1.14.65c-.59.27-.79.49-1.32.78l-.25.13-.94.49-1 .55-.55.34.36 1.08zm2.71 4.67l.13-.06c.68-.4 1.37-.82 2.08-1.18l.79-.39.17-.09.19-.1c.84-.45 2.05-1.23 2.91-1.64a.61.61 0 00.14-.07c.67-.33 1.33-.67 2-.95 1-.42 2-.94 3-1.38s2.06-.69 3.07-1.09c1.36-.55 2.74-1.07 4.13-1.55s2.7-.75 4-1.17c.64-.19 1.26-.43 1.89-.65l1.91-.61c.75-.22 1.52-.38 2.27-.58 1.44-.33 2.88-.65 4.32-.94s3-.47 4.46-.69c.41-.06.83-.06 1.25-.11l.12-1.17-.48-1-.79.13-2.23.39c-1.63.25-3.24.58-4.86.9-1.18.22-2.36.46-3.53.78s-2.57.63-3.84 1l-3.81 1.15c-.54.18-1.07.37-1.6.58s-1.16.57-1.76.78c-.82.26-1.66.48-2.47.77-2.64.9-4.35 2-6.91 3.07-1.05.48-2.94 1.17-4 1.73-.33.19-.62.45-1 .63l-.36.23c-.84.45-1.7.87-2.52 1.36l.33 1.2zm2.84 4.92a5.51 5.51 0 011-.66l.85-.41 1.58-.77c.24-.11.47-.23.72-.33a13.8 13.8 0 001.52-.68 19.61 19.61 0 012-1.08c.4-.14.81-.27 1.21-.42.57-.22 1.09-.56 1.65-.82.9-.44 1.85-.78 2.77-1.15s1.86-.71 2.81-1l2.74-.92c.52-.17 1.1-.17 1.63-.34 1.5-.49 3-1 4.51-1.48a18.28 18.28 0 012.48-.56 22.79 22.79 0 002.51-.44c.68-.17 1.37-.32 2.06-.45s1.4-.2 2.1-.3a20.14 20.14 0 002.72-.74l.13-1-.46-1a16.91 16.91 0 01-2.62.58 17.09 17.09 0 00-2.49.28c-1.26.37-2.48.65-3.7.92s-2.43.6-3.71.92-2.41.54-3.61.87a47.35 47.35 0 00-6.56 2.23c-.68.32-1.4.55-2.11.84-1.46.57-2.85 1.32-4.3 1.9l-4.67 1.9c-.75.35-1.4.92-2.12 1.32a11.15 11.15 0 00-1.69 1l.31 1zm2.87 4.96a17.31 17.31 0 001.83-.91h.08l.77-.53c.3-.19.59-.38.89-.54s.79-.59 1.2-.77l1-.58 1.06-.53c.8-.38 1.83-.78 2.87-1.17s2.1-.7 2.92-1l3.1-1.25c1-.37 1.89-.8 3.14-1.17.71-.22 1.39-.19 2.09-.37.94-.27 1.87-.68 2.83-.87s2.26-.35 3.3-.57 1.66-.44 2.63-.65a16.25 16.25 0 012.09-.34c1.06-.1 2.07-.39 3.12-.51l.49-1-.81-1c-.19 0-.38.09-.56.11l-3.61.36c-.79.08-1.53.48-2.32.6a29.74 29.74 0 00-2.93.59c-.93.24-1.86.49-2.9.69-1.76.32-3.37.82-5 1.28s-3.19 1.06-4.82 1.7c-.47.19-.91.45-1.37.65Q68 37 66.37 37.84a18 18 0 01-1.8.74c-.58.25-1.16.49-1.77.81s-1.46.69-2.14 1.08a28 28 0 00-3.11 1.91l.38 1zM61.38 49c.45-.26 1-.5 1.18-.62h.07c.52-.28 1-.67 1.51-.94A6.25 6.25 0 0165.2 47c.31-.12.63-.23.94-.37a19.74 19.74 0 001.85-1l.2-.1.76-.34a36.19 36.19 0 013.76-1.82c.52-.18.76-.68 1.34-.75a9.65 9.65 0 001.07-.09c.41-.11.67-.45 1-.62a6.8 6.8 0 01.89-.22c.89-.3 1.91-.35 2.82-.59s1.77-.71 2.73-.88c1.19-.24 2.36-.5 3.56-.7.48-.07 1.36-.27 1.83-.38a22.32 22.32 0 012.28-.43c1.65-.14 1.36-.58 3-.67.22 0 .63-.06 1.07-.13l.42-.91-.73-1a6.34 6.34 0 01-1.07.21c-.86.1-1.8.47-2.66.48a23.73 23.73 0 00-3 .32 26.24 26.24 0 00-2.67.52c-1.75.43-3.49.88-5.2 1.39-.75.21-1.43.54-2.17.7-.91.22-1.37.52-2.28.73a14.88 14.88 0 00-3 1.2c-1.48.66-2.89 1.42-4.35 2.07l-2.83 1.12a12 12 0 00-1.4.79l-1.11.6c-.14.08-.29.14-.42.23-.55.39-1 .7-1.41 1l.37 1zm-46.09 3l-.39.62a9.25 9.25 0 00-1.39 2.57v.11a4.57 4.57 0 01.47-1 16.43 16.43 0 001.31-2.3zm4.93 7.4c.24-.37.51-.9.8-1.4l.79-1.32c.38-.6.69-1.25 1.05-1.87-.42.6-.85 1.41-1.33 2.21s-.93 1.64-1.31 2.38zm-1.75-1.48L19 57c-.17.23-.39.64-.53.92zm7.65 1.95L26 60zm4.37 3.72c.23-.36.53-.7.74-1.08l.09-.19c-.3.46-.63.92-.91 1.4zm5.11 2.79a6.22 6.22 0 00.31-.71c-.12.26-.23.52-.35.77zm4.59 3.22c.27-.6.78-1.35 1.21-2.17-.19.26-.39.52-.56.8a10.69 10.69 0 00-.65 1.37z" fill="currentColor"/><path d="M14.57 58.1l.14-.27c.31-.58.6-1.18.89-1.79l.05-.08c.64-1.29 1.35-2.3 2.11-3.55l1.86-2.86a28.81 28.81 0 012.14-2.65c.57-.69 1.22-1.32 1.77-2s.93-1.27 1.39-1.92 1-1.25 1.49-1.84c1.13-1.35 2.46-2.48 3.7-3.7.71-.7 1.48-1.33 2.16-2 1.42-1.5 2.88-2.17 4.37-3.56.81-.72 2-1.43 2.91-2.07 1.29-.93 2.65-1.72 4-2.6s2.55-1.61 3.84-2.38l-.25-1-.81-.83c-.8.38-1.66.64-2.43 1.08a28.46 28.46 0 00-2.74 2c-1 .71-1.77 1-2.7 1.74s-1.8 1.05-2.67 1.71a33.57 33.57 0 01-2.92 2.27A5.17 5.17 0 0031 33.4a8.18 8.18 0 01-1.43 1.32c-.32.25-1.71 1.51-2.07 1.91-.82.9-1.67 1.77-2.48 2.7s-1.42 1.55-2.09 2.36l-2 2.45c-.61.77-1.34 1.61-1.9 2.43 0 0-.57.78-.61.76l-.69 1.05c-.38.53-.82 1.22-1.16 1.63a12 12 0 00-1.23 2A16.43 16.43 0 0114 54.26a4.57 4.57 0 00-.47 1 10.08 10.08 0 01-.75 1.88l.66.59z" fill="currentColor"/><path d="M9.48 55.55c.48-.95 1-1.9 1.49-2.82l1.39-2.23c.06-.1.13-.2.2-.3.52-.83 1.11-1.64 1.7-2.46s1.16-1.65 1.74-2.4c1-1.32 1.78-2.86 2.81-4.16.59-.78 1.28-1.43 1.87-2.2s1.54-1.54 2.21-2.39 1.8-1.59 2.6-2.51c1.29-1.5 3-2.62 4.38-4a77.52 77.52 0 016.07-5c1.16-.9 2.4-1.64 3.63-2.42s2.64-1.5 4-2.25l1-.6-.29-1.11-.87-.89-1 .62c-1 .58-2 1.13-3 1.75l-2.87 1.9a82.86 82.86 0 00-7 5.26c-1.15.94-2.2 1.89-3.29 2.92-.79.75-1.66 1.48-2.53 2.22a20.76 20.76 0 00-2.47 2.3c-1 1.14-1.7 2-2.62 3.21s-2.19 2.29-3 3.48l-2.12 3.19c-.43.65-1 1.18-1.48 1.82-.91 1.23-1.53 2.52-2.33 3.83s-1.53 2.77-2.27 4.17l1 .66zm10.08 5.05l.06-.09.6-1.11c.38-.74.83-1.58 1.31-2.38s.91-1.61 1.33-2.21l.34-.5c.12-.17.34-.64.5-1a18 18 0 011.21-1.86c.87-1.12 1.74-2.22 2.67-3.27.65-.75 1.17-1.61 1.86-2.32.94-1 1.89-1.95 2.88-2.86 1.63-1.63 3.32-3.18 5-4.69l3-2.4 2.77-2c.89-.65 1.81-1.25 2.71-1.89s1.73-1.2 2.63-1.73c.53-.31 1.14-.49 1.69-.78l-.27-1.13-.83-.78-2.77 1.69-2.73 1.76c-.82.49-1.73.84-2.51 1.39s-1.23 1.1-1.87 1.59l-2.55 2c-1.38 1.1-2.68 2.33-4 3.51s-2.57 2.48-3.74 3.84l-1.49 1.72-1.45 1.75-2.37 2.9c-.82 1-1.57 2-2.31 3a8.34 8.34 0 00-.66 1.34 8.6 8.6 0 01-.64 1.2c-.39.56-.45.86-.78 1.4L19 57l-.53 1-.58 1-.31.61.89.71z" fill="currentColor"/><path d="M24.39 63l.07-.12c.38-.69.69-1.43 1.08-2.12L26 60l.11-.17.12-.18c.49-.8 1-2.13 1.62-2.89 0 0 .05-.09.08-.14.42-.6.8-1.24 1.28-1.82.69-.86 1.26-1.82 2-2.67s1.46-1.6 2.18-2.4c1-1.06 1.9-2.23 3-3.23.49-.48 1-.95 1.53-1.41s1.07-.89 1.59-1.36c1-.91 1.91-1.85 2.92-2.71a21.36 21.36 0 011.86-1.43c1.18-.86 2.34-1.76 3.6-2.53l1.9-1.2 2-1.09c.36-.2.76-.34 1.13-.54l-.31-1.13-.82-.81-.69.41-2 1.16c-1.39.88-2.79 1.76-4.17 2.68-1 .69-2 1.38-2.95 2.12s-2.1 1.65-3.11 2.52-2 1.75-3 2.69c-.41.4-.81.8-1.2 1.22s-.81 1-1.24 1.49c-.59.64-1.25 1.2-1.86 1.82a35.94 35.94 0 00-2.4 3c-.67 1-1.38 2-2.2 3.1a40.1 40.1 0 00-2.53 3.55c-.18.33-.3.71-.49 1l-.2.39c-.48.83-.91 1.69-1.37 2.54l.92.82zm5.07 2.55a7.81 7.81 0 01.49-1l.46-.78c.28-.48.61-.94.91-1.4l.42-.62c.3-.46.6-.85.89-1.31a20.31 20.31 0 011.12-1.85c.28-.3.56-.6.82-.91s.64-1 1-1.46c.6-.76 1.21-1.5 1.83-2.23s1.31-1.4 2-2.1 1.34-1.28 2-1.94c.38-.38.87-.63 1.27-1l1.67-1.57c.55-.53 1.14-1 1.71-1.54 1.16-1.22 2.64-1.77 3.95-2.84a38.85 38.85 0 013.47-2.18 19.74 19.74 0 002.21-1.62l-.27-1-.75-.75a15.93 15.93 0 01-2.2 1.44 12.44 12.44 0 00-2.15 1.19c-.52.39-1 .76-1.54 1.12l-1.47 1.1-1.5 1.09-1.47 1.18c-1 .74-2 1.45-2.86 2.24s-1.69 1.46-2.47 2.25a22.27 22.27 0 00-2.27 2.49c-.47.57-1 1.08-1.46 1.67L33.83 55c-.43.62-.88 1.24-1.35 1.83s-1 1.29-1.5 1.93-1 1.28-1.46 2a19.78 19.78 0 00-1.08 2.16 17.39 17.39 0 00-.81 1.74l.84.69zm5.13 2.57a9.26 9.26 0 00.93-1.57v-.09c.12-.25.23-.51.35-.77s.28-.57.43-.84a12.39 12.39 0 01.54-1.17l.49-.91c.2-.3.4-.59.59-.91.46-.66 1.12-1.44 1.77-2.22s1.4-1.49 1.92-2.12c.82-.86 1.41-1.61 2-2.33s1.39-1.46 2.23-2.29c.52-.46 1.12-.69 1.64-1.12.69-.6 1.34-1.3 2.08-1.85s1.86-1.1 2.65-1.7 1.27-1 2.06-1.52c.56-.37 1.11-.73 1.7-1.05.91-.44 1.7-1 2.6-1.51V43l-1-.66c-.16.1-.31.21-.46.29-1.15.62-2 1-3.09 1.7-.66.38-1.19 1-1.85 1.35-1.71 1.07-3 2.16-4.6 3.33a41.69 41.69 0 00-7.14 6.55 13 13 0 00-.86 1.13c-.67.89-1.4 1.74-2 2.67-.36.52-.75 1-1.12 1.43s-.71.93-1 1.46-.79 1.27-1.16 1.89a17.31 17.31 0 00-1.46 3l.87.62zm5.02 2.52c.23-.38.45-.79.55-1v-.06a10.69 10.69 0 01.65-1.37c.17-.28.37-.54.56-.8l.54-.68a11.13 11.13 0 00.92-1.57L43 65l.43-.58a27.45 27.45 0 012.1-3c.3-.36.31-.86.75-1.13a5.55 5.55 0 00.82-.49c.28-.26.31-.66.56-.94a5.49 5.49 0 01.65-.52c.62-.57 1.39-1 2.07-1.55s1.16-1.25 1.9-1.75S54 53.76 55 53.2c.38-.23 1-.73 1.38-1s1.37-.88 1.81-1.12c1.33-.72.93-1 2.35-1.61.18-.08.52-.26.88-.46v-.95l-1-.74a6.1 6.1 0 01-.86.54c-.71.37-1.43 1-2.14 1.32a24.07 24.07 0 00-2.52 1.31c-.7.45-1.4.92-2.08 1.4C51.48 52.9 50.19 54 49 55c-.54.45-1 1-1.49 1.44s-.94.95-1.6 1.48A14.11 14.11 0 0044 60.17c-.42.59-.84 1.18-1.28 1.75s-.79 1.18-1.22 1.75-1.13 1.38-1.68 2.09a11.31 11.31 0 00-.71 1.24c-.17.32-.39.63-.57 1a1.85 1.85 0 00-.19.37c-.21.55-.32 1-.5 1.44l.87.61zM9 102.39l.25.74a9.4 9.4 0 001.2 2.87l.07.11A4.87 4.87 0 0110 105a22.52 22.52 0 00-1-2.61zm8.9.92c-.15-.43-.4-1-.63-1.53s-.42-1.1-.56-1.48c-.23-.69-.55-1.36-.79-2.06.19.74.56 1.6.89 2.5s.73 1.8 1.09 2.57zm-2.25.45l-.45-1c.12.24.31.72.45 1zM21.91 99l.06.18zm5.62-1.19c-.14-.38-.2-.81-.36-1.19l-.09-.18c.17.5.29 1 .49 1.51a.74.74 0 00-.04-.14zm5.35-2.28c-.09-.18-.2-.39-.33-.61.12.23.22.46.35.67zm5.34-1.69c-.28-.5-.47-1.21-.79-1.91a6.37 6.37 0 00.21.78 7.09 7.09 0 00.58 1.13z" fill="currentColor"/><path d="M13.43 107l-.13-.29c-.28-.63-.59-1.26-.9-1.89v-.09a41.4 41.4 0 01-1.55-4.08l-1.1-3.43c-.27-1.21-.45-2.38-.63-3.6-.09-1-.12-1.92-.3-2.85s-.26-1.68-.41-2.52a18 18 0 01-.3-2.53v-2.83l.18-2.81c.06-1.08.23-2.14.27-3.21a15.13 15.13 0 01.51-3c.11-.47.22-.94.33-1.43s.24-1 .34-1.52.29-1.22.47-1.86l.63-1.81c.5-1.63 1.17-3.18 1.78-4.76s1.24-3 2-4.39l-.74-.73-1.1-.19a22.46 22.46 0 00-1.5 2.44 13.72 13.72 0 00-.68 1.68l-.6 1.76a16.74 16.74 0 01-.66 1.61 13 13 0 00-.57 1.64c-.31 1.14-.89 2.09-1.14 3.26S7 72.2 6.68 73.5a6.15 6.15 0 00-.42 2.7 10.88 10.88 0 01-.21 2.12 25.79 25.79 0 00-.27 3.07c0 1.33 0 2.68.07 4 0 1.15.12 2.29.23 3.44l.17 1.72.26 1.7a26.29 26.29 0 00.56 3.31s.23 1 .19 1c.18.65.26.95.35 1.31.17.68.44 1.52.56 2.08a11.3 11.3 0 00.8 2.38A22.52 22.52 0 0110 105a4.87 4.87 0 00.56 1.08 11.16 11.16 0 011.06 1.84l.87-.15z" fill="currentColor"/><path d="M8.31 109.53c-.48-1-1-2-1.39-3.1l-1-2.69-.12-.37c-.35-1-.6-2.07-.88-3.14l-.42-1.58c-.12-.54-.23-1.06-.34-1.58-.19-.9-.47-1.78-.7-2.68s-.44-1.8-.61-2.71c-.22-1.07-.14-2.12-.29-3.19s-.06-2.43-.16-3.63a12.38 12.38 0 010-2 16.68 16.68 0 00.15-2v-1.65c0-.55.13-1.1.2-1.64.17-1.1.29-2.2.46-3.26A43.77 43.77 0 014.06 70c.31-1.43.64-2.85 1.08-4.22.23-.77.47-1.55.74-2.31l.9-2.22c.61-1.58 1.44-3 2.15-4.53.17-.38.36-.76.55-1.13l-.84-.8-1.23-.24c-.21.4-.41.81-.59 1.21-.55 1.1-1.09 2.24-1.59 3.42l-1.38 3.59c-.5 1.54-1 3.07-1.45 4.65s-.82 3.16-1.06 4.8c-.14.83-.28 1.63-.42 2.43s-.19 1.64-.26 2.48C.61 77.75.52 78.37.44 79l-.21 1.9c-.08.64-.15 1.28-.2 1.91a17.4 17.4 0 000 1.91c0 .84.09 1.58.15 2.32s.19 1.48.3 2.32c.16 1.58.22 3.56.52 5.14.27 1.4.75 2.75 1.07 4.14.19.83.27 1.7.49 2.54a24.07 24.07 0 00.74 2.36l.88 2.29c.53 1.59 1.34 3.15 2 4.72l1.13-.38zm10.14-4.94v-.1l-.51-1.18c-.36-.77-.77-1.66-1.09-2.57s-.7-1.76-.89-2.5l-.17-.59c-.06-.2-.29-.69-.43-1a15.3 15.3 0 01-.62-2.2c-.34-1.43-.46-2.88-.67-4.33-.14-1-.29-2-.38-3a18.58 18.58 0 010-2.11V82.9a54.36 54.36 0 01.7-7.1l.35-2c.14-.65.31-1.28.47-1.92.27-1.15.67-2.26 1-3.37s.72-2.16 1.1-3.23.77-2 1.22-3a15.28 15.28 0 011-1.64l-.84-.81-1.14-.18c-1 2-1.84 4.1-2.68 6.23-.4.91-.89 1.8-1.23 2.75a9.13 9.13 0 00-.31 1.25c-.07.43-.12.86-.22 1.28-.25 1.09-.62 2.16-.8 3.27a46.73 46.73 0 00-.86 11.21c0 .8.09 1.59.16 2.39s.1 1.59.25 2.38c.22 1.29.31 2.6.58 3.9l.35 2c.13.65.3 1.28.46 1.92s.43.95.62 1.44a9.26 9.26 0 01.56 1.3c.2.68.4.93.63 1.54l.11.29.45 1 .51 1.17.3.63 1.1-.26z" fill="currentColor"/><path d="M23.3 102.23l-.05-.14c-.31-.72-.7-1.41-1-2.14-.1-.27-.18-.55-.28-.82l-.06-.13-.07-.2a16.07 16.07 0 00-.65-1.52 16.18 16.18 0 01-.54-1.55.94.94 0 00-.06-.15l-.31-1.06c-.07-.36-.15-.72-.23-1.09-.1-.54-.23-1.07-.37-1.6s-.2-1.09-.27-1.63c-.19-1.06-.15-2.14-.24-3.21-.08-.72-.09-1.44-.12-2.17a19.64 19.64 0 010-2.17c0-.69.11-1.38.17-2.07s.21-1.37.28-2 .14-1.31.22-2 .14-1.31.26-2 .38-1.5.57-2.25.43-1.4.63-2.1a18.65 18.65 0 01.73-2.06c.28-.69.55-1.38.86-2.06l1-2a10.51 10.51 0 01.62-1.11l-.88-.77-1.13-.23c-.12.24-.26.47-.37.72l-1 2.09c-.38.75-.64 1.54-1 2.31s-.62 1.55-.87 2.35l-.59 1.74c-.17.59-.31 1.19-.46 1.78-.37 1.3-.57 2.64-.82 4-.12.67-.17 1.34-.26 2s-.17 1.35-.19 2-.05 1.15-.05 1.73.15 1.31.15 2c0 .87-.1 1.75 0 2.63 0 .7.09 1.36.17 2s.23 1.22.34 1.82c.2 1.2.59 2.36.84 3.75a31.18 31.18 0 001.13 4.24c.14.36.36.68.5 1 0 .13.11.27.17.4.38.9.78 1.77 1.17 2.66l1.21-.24z" fill="currentColor"/><path d="M28.4 99.74a7.76 7.76 0 01-.51-1l-.32-.8c-.2-.49-.32-1-.49-1.51l-.21-.68c-.17-.49-.23-1-.41-1.44a11.11 11.11 0 01-.64-1.92c0-.38-.08-.76-.15-1.14-.11-.53-.27-1.06-.37-1.6l-.24-1.33L25 87a24 24 0 01-.09-2.68c0-.86.06-1.73.1-2.59 0-.5.21-1 .27-1.48.08-.7.1-1.42.21-2.12l.22-2.13a17 17 0 01.64-2.23 20 20 0 00.79-2.18 15.1 15.1 0 01.66-1.81c.25-.59.49-1.19.8-1.76a24.16 24.16 0 00.86-2.45l-.77-.68-1.05-.23a20.8 20.8 0 01-1 2.34 10.17 10.17 0 00-1 2.12c-.76 2.36-1.42 4.5-1.95 6.9-.2 1.14-.56 2.26-.69 3.41a25.35 25.35 0 00-.22 6.45c.09.7.11 1.4.18 2.11s.24 1.44.35 2.16.28 1.43.43 2.14.26 1.54.45 2.3a22.62 22.62 0 00.55 2.3 16.86 16.86 0 001 2.11 14.36 14.36 0 00.85 1.65l1.05-.25z" fill="currentColor"/><path d="M33.56 97.23a7.43 7.43 0 00-.6-1.55l-.05-.07c-.13-.21-.23-.44-.35-.67s-.25-.51-.35-.77a6.58 6.58 0 01-.51-1l-.36-.84c-.09-.3-.19-.6-.26-.92a13.62 13.62 0 01-.4-2.45c0-.45-.08-.89-.12-1.31s0-.82-.05-1.18c-.13-1-.1-1.85-.21-2.67a22.86 22.86 0 010-2.72c.06-.61.35-1.1.44-1.68.19-.78.12-1.62.35-2.4l1-2.61a18.67 18.67 0 01.66-2.17 13.79 13.79 0 01.7-1.63c.47-.77.68-1.64 1.17-2.42l-.62-.92h-1.21c-.08.15-.15.31-.23.45-.53 1-1 1.79-1.45 2.87-.28.63-.37 1.35-.62 2A39.43 39.43 0 0029 77.43a25.55 25.55 0 00-.78 8.63c0 .42.15.83.2 1.25a14.09 14.09 0 00.25 1.47c.1.49.16 1 .28 1.46.31 1.1.32 2.1.71 3.18.2.69.42 1.3.66 1.92a14.62 14.62 0 001.37 2.78l1-.33z" fill="currentColor"/><path d="M38.6 94.77c-.13-.35-.28-.72-.35-.88a7.09 7.09 0 01-.58-1.13 6.37 6.37 0 01-.21-.78c0-.22-.06-.46-.12-.69-.11-.47-.36-.91-.5-1.38a.66.66 0 01-.05-.15c0-.2-.09-.38-.13-.55-.16-.57-.25-1-.39-1.39a4 4 0 01-.27-1.48c0-.38-.41-.63-.29-1a3.83 3.83 0 00.27-.73c0-.3-.22-.55-.27-.84a3 3 0 01.12-.65 7 7 0 01.19-1c.08-.34.21-.67.26-1a8.74 8.74 0 00.07-1 9.17 9.17 0 01.16-1l.15-.63.22-.64c.14-.42.27-.84.43-1.25a10.69 10.69 0 00.43-1.32 9.83 9.83 0 01.66-1.62c.56-1.1.13-1.13.82-2.21l.42-.72-.64-.81-1.18-.16c-.11.25-.22.51-.36.8-.32.6-.52 1.39-.87 2a13.86 13.86 0 00-1.1 2.13 14.78 14.78 0 00-.69 2 17.85 17.85 0 00-.46 2c-.13.67-.27 1.34-.34 2s0 1.15-.11 1.71-.06 1.09-.12 1.77a7 7 0 000 1.22c.05.42.15.83.2 1.19.08.59.23 1.17.36 1.74s.27 1.14.41 1.7c.13.73.23 1.48.38 2.22a5.79 5.79 0 00.47 1.09c.12.29.21.6.32.89a1.91 1.91 0 00.16.32c.28.43.53.75.74 1.11l1-.34zm5.15 43.53l.63.31a10.31 10.31 0 002.58 1h.11a4.27 4.27 0 01-1-.37 19.45 19.45 0 00-2.32-.94zm6.75-5.72c-.76-.4-2.12-1-2.82-1.26s-1.28-.6-1.93-.86c1.25.69 3.25 1.48 4.75 2.12zm-1.3 1.88l-1-.44c.31.14.73.33 1 .44zm1.21-7.78l.17.08zm3.28-4.74c-.4-.2-.79-.45-1.2-.61l-.21-.07 1.55.75zm2.31-5.37c-.22-.08-.5-.16-.8-.24l.87.28zm2.77-4.83c-.68-.33-1.65-.65-2.54-1.11a6.1 6.1 0 00.93.54c.52.23 1.09.35 1.61.57z" fill="currentColor"/><path d="M49.66 138.31l-.27-.1c-.57-.25-1.17-.48-1.77-.72h-.08a32.35 32.35 0 01-3.61-1.66c-1-.51-2-.93-3-1.45s-1.91-1.17-2.86-1.79c-.75-.46-1.43-1.08-2.21-1.52s-1.39-.76-2.09-1.15-1.38-.83-2-1.28c-1.5-1-2.81-2.25-4.21-3.37-.78-.7-1.54-1.42-2.36-2.07a14.94 14.94 0 01-2.13-2.2c-.63-.72-1.25-1.44-2-2.25a24.3 24.3 0 01-2.36-3c-.5-.7-1-1.4-1.48-2.12l-1.37-2.21c-.46-.69-.86-1.42-1.27-2.15s-.82-1.45-1.17-2.21l-1 .13-.82.77a25.65 25.65 0 001.1 2.79 27.61 27.61 0 002.09 3.14c.73 1.11 1.14 1.93 2 3 .37.47.66 1 1 1.45a14.77 14.77 0 001 1.4l1.33 1.52c.45.49.9 1 1.3 1.5a5.94 5.94 0 001.91 1.89 9.44 9.44 0 011.49 1.35l1 1c.47.4.95.81 1.17 1 1 .74 2 1.56 3.07 2.25l2.65 1.84 2.7 1.7c.84.54 1.75 1.13 2.63 1.58 0 0 .83.46.82.5.55.27.8.4 1.1.57.55.31 1.27.64 1.71.91a16.81 16.81 0 002 1 19.45 19.45 0 012.29 1 4.27 4.27 0 001 .37 11.79 11.79 0 011.83.54l.52-.71z" fill="currentColor"/><path d="M47.55 143.6c-.92-.35-1.84-.75-2.73-1.17l-2.26-1.05-.3-.17c-1.64-.91-3.41-1.81-5-2.78-1.43-.81-3-1.39-4.45-2.26-.85-.5-1.59-1.08-2.43-1.61s-1.77-1.37-2.72-1.95-1.87-1.69-2.92-2.42a19.29 19.29 0 01-2.38-2.07c-.76-.76-1.54-1.46-2.29-2.22a54.43 54.43 0 01-5.85-6.43 38.86 38.86 0 01-2.77-4.11c-.44-.76-.9-1.49-1.29-2.28l-1.18-2.36c-.2-.4-.43-.78-.62-1.19l-1.14.16-.94.86c.2.44.46.86.66 1.28a55.87 55.87 0 004.1 6.89 57.71 57.71 0 006.23 7.6l1.7 1.73c.57.55 1.15 1.07 1.77 1.6 1.79 1.58 3.44 3.41 5.33 4.79 1.29.85 2.3 1.49 3.6 2.29s2.6 1.89 3.86 2.59 2.27 1.07 3.37 1.67c.67.38 1.25.87 1.91 1.23 1.31.67 2.56 1.23 3.87 1.8s2.71 1.19 4.07 1.73l.56-1.05zm4.17-10.47h-.09c-.32-.13-.71-.32-1.13-.5-1.49-.64-3.46-1.43-4.75-2.12l-.53-.27c-.18-.09-.68-.25-1-.37a18.06 18.06 0 01-2-1l-1.81-1.08-1.76-1.16c-.84-.54-1.75-1-2.54-1.57-1.11-.82-2.18-1.66-3.22-2.56-.9-.75-1.83-1.46-2.68-2.27s-1.76-1.55-2.56-2.43a38.75 38.75 0 01-2.65-2.95l-1.11-1.37-1-1.43-1-1.38-1-1.44-.89-1.38c-.28-.47-.56-.95-.82-1.44a19.12 19.12 0 01-.72-1.82l-1.15.17-.84.8c.52 1 1.11 2 1.66 3.06l1.82 3c.54.85 1 1.79 1.53 2.63a21.18 21.18 0 001.76 1.91c.37.42.72.86 1.07 1.3s.73.84 1.12 1.24c1.25 1.37 2.62 2.6 4 3.84.69.6 1.42 1.16 2.12 1.74l1.08.85 1.11.78 1.88 1.33c.63.43 1.28.82 1.93 1.22s1 .67 1.57 1l1.59 1c1.07.66 2.12 1.35 3.22 1.91a10.85 10.85 0 001.39.48 7.48 7.48 0 011.23.53c.58.3.89.32 1.45.57l.25.11 1 .44 1.09.48c.2.09.41.16.61.24l.63-1z" fill="currentColor"/><path d="M53.72 128.11l-.13-.06c-.74-.31-1.49-.58-2.21-.91l-.8-.38-.17-.08-.2-.09c-.86-.4-2.21-.87-3.06-1.31l-.15-.06c-.67-.31-1.31-.68-2-1.06-.94-.58-2-1-2.89-1.64s-1.79-1.22-2.65-1.87c-1.18-.85-2.43-1.62-3.54-2.57-.53-.45-1.07-.89-1.56-1.38s-1-1-1.5-1.44c-1-.86-1.95-1.78-2.92-2.69-.52-.57-1-1.19-1.48-1.78s-.91-1.14-1.34-1.73-.89-1.15-1.25-1.78l-1.15-1.92c-.36-.65-.66-1.32-1-2-.17-.37-.32-.75-.46-1.14l-1.14.22-.88.76c.11.25.24.49.37.73l1.08 2c.87 1.43 1.71 2.88 2.7 4.23a31.91 31.91 0 002.25 2.92c.83 1.06 1.83 2 2.74 3s2 1.85 3 2.73c.45.37.89.73 1.36 1.06l1.62 1.13c.7.51 1.35 1.1 2 1.63a32.82 32.82 0 003.23 2c1.06.57 2.15 1.09 3.34 1.81 1 .58 2.74 1.61 3.8 2.11.35.14.73.21 1.08.35a2.86 2.86 0 00.41.15c.87.38 1.74.79 2.63 1.14l.74-1z" fill="currentColor"/><path d="M55.82 122.83a5 5 0 01-1.15-.41l-.84-.41-1.55-.75c-.24-.12-.46-.25-.68-.37a14.12 14.12 0 00-1.43-.77 13 13 0 01-2-.91c-.33-.23-.67-.47-1-.69s-1.08-.5-1.57-.81c-.82-.5-1.64-1-2.43-1.52s-1.52-1.11-2.28-1.67l-2.09-1.71c-.41-.31-.66-.81-1.05-1.14-.53-.49-1.12-.94-1.64-1.45l-1.58-1.49a34.66 34.66 0 01-2.75-3.73l-.58-.76-.48-.8c-.31-.55-.65-1.08-.93-1.64a17.93 17.93 0 00-1.39-2.08l-1 .21-.82.68a17.47 17.47 0 011.25 2.14 11.18 11.18 0 001.07 2.06c.34.5.71 1 1.08 1.43s.71.94 1.05 1.41c.77.89 1.46 1.84 2.32 2.73s1.51 1.79 2.38 2.59l1.19 1.14c.41.37.84.72 1.27 1.07s.85.7 1.3 1 .92.62 1.39.91c.63.38 1.17.87 1.82 1.24l2 1.17c.65.39 1.34.73 2 1.13 1.39.87 2.82 1.69 4.25 2.53.72.39 1.58.53 2.32.84a12.5 12.5 0 001.84.68l.63-.9z" fill="currentColor"/><path d="M57.94 117.51a14.66 14.66 0 00-1.79-.86h-.09l-.87-.28a5.86 5.86 0 01-.94-.35c-.37-.19-.9-.25-1.27-.46l-1-.38c-.34-.15-.66-.33-1-.51a23.28 23.28 0 01-2.46-1.5c-.82-.6-1.66-1.17-2.32-1.63a54.42 54.42 0 01-4.78-3.45c-.48-.43-.73-1-1.17-1.41-.54-.62-1.26-1.1-1.79-1.73s-1-1.6-1.56-2.28-.91-1.06-1.33-1.74c-.29-.47-.59-1-.84-1.45-.33-.77-.83-1.44-1.14-2.21h-1l-.8.9c.06.14.15.28.22.41.48 1 .78 1.75 1.35 2.73a18.68 18.68 0 001.2 1.61 14 14 0 001.49 2c.54.62 1 1.28 1.64 2a30.72 30.72 0 006.76 6.08 11.84 11.84 0 001.2.71c1 .53 1.87 1.16 2.88 1.64s2 1.31 3.21 1.83l2.09 1a29.88 29.88 0 003.35 1.23l.56-.93zm2.06-5.22c-.47-.19-.94-.43-1.17-.53h-.07c-.52-.22-1.09-.34-1.61-.57a6.1 6.1 0 01-.93-.54 8.06 8.06 0 00-.8-.48c-.57-.3-1.2-.53-1.77-.79l-.18-.08-.65-.36a30.07 30.07 0 01-3.24-1.7c-.38-.27-.85-.18-1.16-.57a4.06 4.06 0 00-.54-.73c-.28-.23-.65-.22-.93-.4s-.34-.38-.53-.54a7.08 7.08 0 01-.8-.84 9 9 0 00-.73-.88c-.26-.27-.57-.48-.85-.72a9.18 9.18 0 01-.77-.76 21.37 21.37 0 01-1.61-2.14c-.2-.29-.55-.81-.77-1.08a6.8 6.8 0 01-.48-.66 13.3 13.3 0 01-.37-.71c-.5-1-.81-.67-1.16-1.75 0-.15-.19-.39-.29-.67l-.88.06-.88.8a6.63 6.63 0 01.39.67c.25.57.71 1.11 1 1.69.11.28.27.66.43 1s.41.72.57 1l.54.86c.21.28.43.55.65.82l.66.81c.23.26.49.51.73.76.48.52 1 1 1.51 1.53s.95.77 1.41 1.21 1 .74 1.51 1.32a15.39 15.39 0 002.33 1.58c.64.33 1.27.67 1.88 1s1.3.65 1.92 1c.79.46 1.56 1 2.4 1.48a13 13 0 001.38.59l1.12.48a3.12 3.12 0 00.42.18c.63.19 1.1.31 1.64.45l.56-.91zm28.62 36.33l.65.06a8.07 8.07 0 002.59 0H92a3.56 3.56 0 01-1 0 19.27 19.27 0 00-2.38-.06zm4.03-7.78c-.83-.11-2.26-.09-3-.16s-1.37-.06-2.06-.06l2.47.15zm-.53 2.22l-1-.05c.27-.01.71.05 1 .05zm-1.65-7.68zm1.37-5.62c-.47 0-1-.12-1.42-.13h-.22c.59.07 1.2.1 1.8.15zM92 124c-.26 0-.57 0-.9.06l1-.06zm1-5.58c-.87 0-2 0-3.19-.12.41.07.82.14 1.23.17.64.04 1.3-.07 1.96-.05z" fill="currentColor"/><path d="M93.8 146.49h-2.15a34.21 34.21 0 01-3.75-.21c-1-.09-2.08-.1-3.12-.17a27.91 27.91 0 01-3.12-.45 22.67 22.67 0 00-2.45-.38c-1.48-.09-3-.13-4.45-.28-1.64-.16-3.26-.56-4.89-.85-.93-.18-1.88-.33-2.82-.48-2-.3-3.36-.89-5.3-1.3-1-.21-2.34-.68-3.36-1l-4.47-1.49c-1.42-.5-2.85-1-4.26-1.55l-.65.82-.11 1.09c.8.39 1.54.91 2.37 1.23.52.21 1.06.38 1.6.54l1.63.41c1.13.31 1.86.74 3 1s1.9.74 2.94 1 2.34.53 3.46.91a5.52 5.52 0 002.35.5 9.56 9.56 0 011.82.34c.38.07 2.11.46 2.61.52l3.42.43c1.94.23 3.88.53 5.81.68.9.09 1.89.29 2.8.33 0 0 .88.08.88.13h1.14c.58.06 1.32.09 1.79.17a14.08 14.08 0 002.09.12 19.27 19.27 0 012.33.11 3.56 3.56 0 001 0 7.59 7.59 0 011.77-.15l.23-.85zm-.15 5.69c-.91 0-1.82 0-2.73-.1l-2.27-.16h-.31c-1.7-.19-3.51-.38-5.21-.54-1.49-.16-3-.05-4.5-.13-.88 0-1.71-.28-2.59-.35s-2-.37-3-.42-2.16-.52-3.29-.63a26 26 0 01-2.73-.48c-.91-.2-1.82-.46-2.73-.61-2.46-.4-4.93-1-7.38-1.67-1.38-.37-2.74-.87-4.09-1.34s-2.81-1.16-4.23-1.7l-1.09-.41-.7.92-.15 1.23 1.15.43c1.06.43 2.14.85 3.21 1.24l3.24 1.05c1.36.45 2.71.82 4.07 1.19s2.71.74 4.07 1 2.67.61 4.06.83c2 .26 4.07 1.11 6.08 1.32 1.35.13 2.39.19 3.74.3s2.79.49 4.06.58 2.25.06 3.36.13c.67 0 1.33.28 2 .35 1.32.12 2.54.11 3.85.19s2.66.09 4 .14l.16-1.18zm.35-11.27h-.1l-1.2-.06-2.59-.07-2.47-.15h-.58a10.25 10.25 0 00-1 0 19 19 0 01-2.13-.08c-1.35-.16-2.69-.38-4-.52-1-.09-1.92-.15-2.87-.28-1.3-.21-2.59-.44-3.89-.7-2.21-.42-4.42-.77-6.62-1.29-1.23-.27-2.46-.53-3.67-.89l-3.24-.94-3.14-1c-1-.28-2-.63-3-1-.58-.23-1.1-.59-1.67-.84L51 134l-.1 1.14c2.05.75 4.07 1.48 6.13 2.16.89.31 1.71.86 2.62 1.12s1.6.27 2.38.47c1 .26 2 .61 3 .82a99.59 99.59 0 0010.19 1.87c1.43.17 2.87.42 4.31.55 2.35.2 4.72.69 7.08.89A9.49 9.49 0 0088 143a6.84 6.84 0 011.28 0 9.45 9.45 0 001.5 0h.27l1 .05 1.14.05h.63l.25-1.1zm.09-5.39h-.14c-.8 0-1.61 0-2.4-.05l-.89-.06h-.41c-1-.09-2.4 0-3.35-.06a.86.86 0 00-.16 0c-.75-.06-1.49-.08-2.24-.18-1.11-.14-2.23-.17-3.34-.3s-2.15-.35-3.22-.51c-1.45-.22-2.93-.29-4.37-.59s-2.74-.59-4.11-.88-2.63-.44-3.94-.69c-.76-.17-1.51-.41-2.26-.62l-2.13-.58-2.13-.73c-.71-.24-1.43-.48-2.12-.75l-2.08-.86c-.38-.17-.74-.38-1.12-.55l-.7.95-.13 1.13.75.29 2.13.82c1.55.59 3.13 1.07 4.68 1.62 1.16.37 2.32.69 3.49 1s2.58.62 3.87.93l2 .43 2 .35c.55.1 1.11.2 1.67.27s1.29.07 1.92.15c.85.12 1.69.35 2.54.5a29.23 29.23 0 003.75.38c1.19.05 2.38.15 3.76.29 1.15.11 3.12.43 4.28.48.37 0 .75-.06 1.12-.05h.43l2.84.11.35-1.19zm.16-5.68a9.06 9.06 0 01-1.27 0l-1-.07c-.6 0-1.21-.08-1.8-.15l-.81-.1a16.28 16.28 0 00-1.7-.16h-2.32c-.43-.08-.86-.17-1.29-.23-.61-.1-1.24-.06-1.87-.11-2-.11-4-.48-6-.77-.95-.14-1.89-.35-2.84-.51-.55-.1-1.06-.36-1.61-.45-1.55-.27-3.09-.58-4.65-.83s-3.11-1.07-4.78-1.52a35 35 0 01-3.88-1.37 20.19 20.19 0 00-2.63-.72l-.63.84-.13 1.06a16.15 16.15 0 012.49.82 12.17 12.17 0 002.27 1c2.5.66 4.75 1.34 7.28 2 1.21.27 2.38.65 3.58.95a49.42 49.42 0 006.85 1.13c.76.05 1.51.2 2.27.3 1.58.16 3.17.21 4.74.42l5.08.67a21.58 21.58 0 002.54-.05 15.35 15.35 0 002 0l.29-1zm.15-5.73a13.17 13.17 0 00-2.16-.16h-.14l-1 .06a8.07 8.07 0 01-1.1 0c-.47 0-1 .11-1.49.06h-1.19l-1.23-.07c-.92 0-2-.23-3.18-.4l-3.15-.49c-1.29-.19-2.33-.27-3.37-.38s-2-.25-3.33-.47a18 18 0 01-2-.67c-.94-.25-1.94-.27-2.87-.55s-2.08-.83-3.07-1.08-1.61-.42-2.52-.7a18.53 18.53 0 01-1.89-.68c-.9-.44-1.86-.68-2.77-1.09l-.87.67c0 .42.07.82.11 1.22l.51.18c1.19.51 2 .9 3.24 1.37.71.28 1.52.32 2.23.61a20.94 20.94 0 002.78.85l2.82.79a43.5 43.5 0 005 1.22l2.5.46 2.59.35c.51.07 1 .06 1.53.11 1.21.12 2.43.19 3.64.28 1.4.11 2.59.36 4 .42.89 0 1.69.1 2.5.16a38.17 38.17 0 003.84 0l.23-1.06zm.15-5.61l-1.47-.08H93c-.65 0-1.31.09-2 0-.41 0-.82-.1-1.23-.17s-.72-.12-1.08-.15a19.24 19.24 0 00-2.28 0 1.92 1.92 0 01-.24 0l-.87-.09c-1.81-.2-2.59.07-4.37-.24-.55-.1-1 .21-1.57 0a6.68 6.68 0 00-1-.41c-.43-.1-.84.1-1.25.06s-.6-.19-.89-.25c-.93-.2-1.86-.6-2.78-.8s-1.85-.28-2.77-.53c-1.15-.29-2.23-.7-3.33-1.07-.43-.16-1.28-.36-1.7-.5s-1.57-.53-2-.73c-1.42-.6-1.36-.13-2.71-.84-.17-.09-.53-.25-.9-.4l-.72.62v1.2a6.36 6.36 0 011 .33c.73.32 1.63.49 2.35.86s1.9.89 2.63 1.17 1.66.54 2.49.79c1.65.52 3.42.8 5.12 1.26.75.17 1.51.15 2.25.37.91.25 1.44.23 2.36.48a22.09 22.09 0 003.33.4c1.66.12 3.35.14 5 .32 1.07.09 2.14.31 3.21.43.57.06 1.14 0 1.71 0s.92 0 1.37.06h.52c.73-.05 1.3-.13 1.91-.16l.23-1zm38.04 27.73l.63-.07a8.68 8.68 0 002.48-.44h.1a3.41 3.41 0 01-1 .21 12.23 12.23 0 00-2.21.3zm2.35-8.37c-.82 0-2.22.29-2.95.38s-1.33.23-2 .38zm-.09 2.27l-1 .13c.29-.03.73-.08 1-.13zm-3.11-7.25h.19zm.26-5.75c-.48.05-1 0-1.44.13h-.23l1.83-.19zm-1-5.74a9.34 9.34 0 00-.91.23l1-.24zm-.07-5.6l-3.31.52c.43 0 .87 0 1.31-.11.67-.09 1.33-.31 2-.41z" fill="currentColor"/><path d="M137.13 143.17l-.26.05-1.73.32h-.08c-1.25.23-2.34.35-3.63.51-1 .13-2 .35-3 .48s-2 .16-3.06.22a21.69 21.69 0 00-2.42.16c-1.41.25-2.82.57-4.25.75-1.58.19-3.17.3-4.77.39-.92.06-1.84.11-2.75.25-1.88.28-3.34 0-5.24.21-1 .11-2.32 0-3.35.05H93.8l-.31 1 .25 1.07a21.25 21.25 0 002.48.38c1.06 0 2.11-.12 3.16-.17s1.89.15 3 .07 1.92.14 2.93.09a25.89 25.89 0 013.41-.08 5 5 0 002.27-.18 6.91 6.91 0 011.76-.15c.38 0 2.08-.06 2.56-.14 1.08-.17 2.18-.31 3.27-.43 1.87-.2 3.74-.39 5.6-.66.86-.11 1.84-.13 2.7-.29 0 0 .84-.11.86-.06.54-.1.78-.14 1.08-.18.57-.05 1.27-.18 1.74-.2a12.38 12.38 0 002-.32 12.23 12.23 0 012.25-.33 3.41 3.41 0 001-.21 8.63 8.63 0 011.66-.49l.06-.88zm.93 5.62c-.86.16-1.73.32-2.6.41-.68.07-1.48.16-2.18.26h-.3l-5 .52c-1.42.17-2.81.6-4.23.85-.82.14-1.64.12-2.47.25s-1.9.09-2.83.27-2.11 0-3.17.22c-1.72.24-3.52.14-5.25.34-2.34.28-4.72.35-7.09.49-1.32.08-2.66 0-4 0s-2.79-.11-4.21-.2h-1.07l-.32 1.1.25 1.22h1.13c2.11.11 4.19.06 6.29.06q3.91 0 7.81-.26c1.31-.11 2.55-.16 3.86-.31a23.9 23.9 0 012.94-.08 23.5 23.5 0 002.92-.15c1.26-.17 2.23-.36 3.5-.56s2.68-.14 3.88-.34c1-.18 2.09-.44 3.15-.58.64-.08 1.3 0 1.94-.05 1.26-.15 2.39-.42 3.64-.59s2.54-.36 3.8-.6l-.08-1.18zm-1.84-11.12h-.1l-1.18.19-4.95.76-.57.08a9.88 9.88 0 00-1 .26 21 21 0 01-2.08.34c-1.33.15-2.67.23-4 .39-.94.12-1.87.32-2.81.4-1.3.11-2.6.13-3.89.24-2.2.2-4.41.32-6.61.49-1.23.1-2.47.12-3.7.16l-3.3.06-3.22.06c-1 0-2 .08-3.07.07-.61 0-1.21-.2-1.81-.26L93.6 142l.29 1.1c2.1.09 4.17 0 6.28 0 .91 0 1.83.27 2.74.26s1.56-.22 2.34-.26h3.06c3.35-.22 6.73-.41 10.06-.82 1.41-.17 2.83-.26 4.23-.47 2.29-.33 4.67-.37 7-.63a9.16 9.16 0 001.33-.39 7.67 7.67 0 011.23-.25c.62 0 .88-.19 1.45-.27h.27l1-.13c.38 0 .75-.1 1.12-.17l.61-.11v-1.14zm-.89-5.33h-.14c-.79.14-1.58.32-2.38.41l-.88.1h-.41c-1 .11-2.34.54-3.3.65h-.15c-.74.12-1.48.21-2.24.29-1.11.1-2.21.32-3.33.45s-2.18.16-3.26.25l-4.4.48c-1.4.14-2.81.08-4.21.2s-2.66.34-4 .41c-.78.06-1.56.05-2.35.07-1.47.06-3 .12-4.42.09s-3-.06-4.52-.15c-.41 0-.83-.13-1.25-.16l-.33 1.12.27 1.12h.81c.75 0 1.51.05 2.26.05l4.92.07c1.2 0 2.4 0 3.6-.08 2.65 0 5.28-.28 7.92-.43a15.5 15.5 0 001.67-.18c.64-.1 1.26-.28 1.89-.33.86-.08 1.72-.06 2.58-.11 2.75-.19 4.69-.78 7.44-1 1.14-.11 3.13-.24 4.27-.43.36-.06.72-.21 1.09-.27l.42-.08c.93-.13 1.87-.26 2.8-.43l.12-1.23zm-.92-5.6a8.81 8.81 0 01-1.27.28l-1 .1-1.83.19-.82.08a16.67 16.67 0 00-1.73.21 19.59 19.59 0 01-2.32.43c-.44 0-.88 0-1.33.06-.63 0-1.25.22-1.88.31-2.07.34-4.12.49-6.17.66l-3 .25c-.57 0-1.15-.09-1.71 0l-4.85.47c-1.8.15-3.39-.14-5.19 0-1.42.05-2.85 0-4.27-.07-.9 0-1.89.13-2.84.19l-.32 1 .26 1a24.6 24.6 0 012.7 0 17.88 17.88 0 002.52.17c2.64-.13 5.06-.2 7.72-.27l3.78-.09a55.43 55.43 0 007-.61c.76-.12 1.54-.15 2.31-.24 1.6-.22 3.18-.51 4.79-.67l5.17-.41c.84-.08 1.68-.4 2.51-.53a12.42 12.42 0 002-.42l.08-1.09zm-.94-5.66a20.38 20.38 0 00-2.22.26h-.11l-1 .24a10.89 10.89 0 01-1.11.22c-.48.08-1 .34-1.5.39l-1.2.28-1.27.18c-1.88.28-4.75.4-6.63.59-2.72.22-4.33.67-7 .84-.78.06-1.46-.12-2.22-.1-1 0-2.06.3-3.08.26s-2.38-.17-3.47-.12-1.78.11-2.8.11c-.72 0-1.44 0-2.16-.06-1.09-.07-2.16 0-3.23-.1l-.62.93.56 1.11h.58c1.37.14 2.36.12 3.74.21.81 0 1.64-.16 2.45-.1 2.17.09 4-.15 6.15-.07 1.84 0 3.6-.07 5.36-.17s3.51-.33 5.34-.49c.53-.06 1.05-.18 1.57-.25l3.73-.57c1.43-.24 2.69-.19 4.13-.45l2.55-.39a31.44 31.44 0 003.86-.78v-1.09zm-.92-5.54l-1.52.23h-.1c-.67.1-1.33.32-2 .41-.44.06-.88.08-1.31.11s-.77 0-1.15.09c-.79.1-1.58.28-2.36.44h-.25l-.93.11c-1.92.23-2.66.64-4.59.79-.6 0-1 .45-1.64.36a7.75 7.75 0 00-1.15-.16 7.06 7.06 0 00-1.29.37c-.31.06-.67 0-1 0-1 .07-2.1-.12-3.11-.08s-2 .27-3.07.29c-1.28 0-2.56 0-3.84-.08h-2c-.53 0-1.85 0-2.42-.06-1.71-.16-1.5.35-3.2.11-.22 0-.65-.07-1.1-.1l-.52.82.47 1.14a7 7 0 011.12 0c.87.09 1.91-.13 2.78 0s2.3.26 3.16.3 1.89 0 2.84 0l2.84-.09 2.85-.16c.83 0 1.61-.22 2.43-.2 1 0 1.56-.18 2.57-.17a23.12 23.12 0 003.53-.4c1.74-.3 3.49-.63 5.24-.85 1.11-.14 2.25-.13 3.38-.26.6-.06 1.18-.24 1.77-.34l1.41-.21c.18 0 .36 0 .53-.08.74-.18 1.31-.38 1.92-.54v-1.08zm43.51 19.17l.63-.27a10.25 10.25 0 002.43-1.23l.09-.06a4.13 4.13 0 01-.93.51 15.84 15.84 0 00-2.22 1.05zm-.06-8.79c-.79.33-2.1 1-2.79 1.28s-1.25.62-1.86 1c1.33-.65 3.24-1.56 4.65-2.28zm.62 2.21l-1 .44c.38-.12.74-.3 1-.44zm-5.16-5.99l.18-.08zm-1.46-5.56c-.42.18-.88.31-1.28.51l-.19.11 1.62-.67zm-2.64-5.19c-.21.11-.46.27-.72.44l.8-.47zm-1.83-5.27c-.72.33-1.66.78-2.63 1.26.36-.13.72-.25 1.07-.41.54-.25 1.03-.6 1.56-.85z" fill="currentColor"/><path d="M179.81 130.26l-.25.14c-.55.27-1.09.62-1.65.9h-.08c-1.21.62-2.28 1.07-3.54 1.64-1 .46-2 .91-2.95 1.32s-2 .73-3.06 1.08c-.82.26-1.66.41-2.45.73-1.41.54-2.74 1.3-4.19 1.75s-3.21.93-4.82 1.38c-.94.22-1.87.45-2.78.74a18.25 18.25 0 01-2.65.62 23.25 23.25 0 00-2.55.49c-1 .27-2.25.4-3.24.59-1.43.27-2.88.51-4.33.75s-2.76.53-4.14.75l-.11 1 .44 1c.82-.05 1.65 0 2.45-.09 1-.16 2-.47 3-.7s1.83-.21 2.89-.47 1.88-.17 2.84-.38a25.32 25.32 0 013.3-.63 5.42 5.42 0 002.32-.59 7.84 7.84 0 011.8-.48 23.49 23.49 0 002.61-.64c1.1-.4 2.21-.76 3.32-1.11 1-.28 1.89-.61 2.83-1l2.82-1a24.89 24.89 0 002.73-1s.84-.35.86-.31c.54-.25.78-.36 1.08-.48.57-.22 1.28-.52 1.75-.67a14.17 14.17 0 002-.94 15.84 15.84 0 012.22-1.05 4.13 4.13 0 00.93-.51 9.23 9.23 0 011.55-1.07l-.2-.86zm2.65 5.04a26.44 26.44 0 01-2.6 1.32c-.69.3-1.5.65-2.21 1l-.31.12c-1.65.73-3.47 1.36-5.13 2-.72.29-1.41.64-2.11 1s-1.41.67-2.13 1-1.71.52-2.55.87-2 .55-2.91.92-2.21.49-3.29.89c-1.75.64-3.66.83-5.44 1.36-.59.16-1.23.36-1.78.49l-1.69.4-3.37.75c-1.26.28-2.53.51-3.81.68l-4 .54-1 .18-.09 1.14.47 1.14 1.06-.18q3-.46 6-1c2.47-.49 4.94-1 7.42-1.53 1.36-.35 2.66-.63 4-1 2-.53 4.18-.78 6.15-1.45 1.32-.44 2.31-.83 3.59-1.39s2.84-.8 4.07-1.3 2.11-1 3.19-1.51c.66-.27 1.4-.36 2.07-.61 1.3-.52 2.42-1.19 3.7-1.76l1.92-.91c.65-.32 1.29-.69 1.92-1l-.42-1.11zm-5.25-9.98h-.09l-1.09.56c-1.44.72-3.35 1.63-4.65 2.24-.19.09-.37.18-.54.24s-.62.34-.91.5c-.66.31-1.31.63-2 .89s-1.28.5-1.93.73l-2 .64c-.91.31-1.79.74-2.71 1.05-1.27.41-2.57.66-3.84 1-2.16.68-4.36 1.16-6.55 1.71-1.23.32-2.41.53-3.62.77l-3.22.6c-1 .22-2.07.45-3.12.64s-2 .43-3 .6c-.59.1-1.21 0-1.8.11l-.14 1.15.5 1c2-.37 4-.77 6.09-1.08.89-.14 1.82-.09 2.71-.24s1.48-.46 2.23-.63c1-.22 2-.33 3-.54l5-1.23c1.68-.45 3.33-1 5-1.49 1.4-.42 2.77-1 4.16-1.45 2.27-.77 4.58-1.59 6.86-2.41a7.22 7.22 0 001.23-.77 8.61 8.61 0 011.16-.62c.6-.23.82-.44 1.37-.7l.25-.12 1-.44 1-.54.57-.31-.31-1.1zm-2.51-4.77h-.13a22.53 22.53 0 01-2.12 1.11l-.81.35-.18.08-.2.09c-.88.36-2.06 1.21-3 1.53l-.15.07q-1 .44-2.07.84c-1 .4-2 .91-3.1 1.24s-2.09.62-3.11 1c-1.39.47-2.79.92-4.2 1.34s-2.73.62-4.08 1-2.55.8-3.86 1.09c-.76.18-1.54.3-2.31.45-1.45.29-2.89.61-4.35.86s-3 .45-4.48.65c-.41.06-.84 0-1.26.1l-.11 1.17.48 1 .79-.13 2.23-.37c1.61-.27 3.23-.51 4.84-.81 1.18-.21 2.36-.43 3.53-.67 2.59-.46 5.17-1.17 7.75-1.78.54-.16 1.09-.32 1.62-.51s1.19-.52 1.8-.7c.83-.24 1.69-.36 2.51-.64 1.32-.42 2.44-.87 3.55-1.32s2.18-1 3.48-1.47l2-.71c.74-.29 1.47-.59 2-.85.34-.17.64-.42 1-.58l.38-.2c.87-.38 1.71-.83 2.55-1.28l-.27-1.21zm-2.64-5.03a8.33 8.33 0 01-1.05.63c-.29.14-.58.26-.87.38l-1.62.67-.73.3c-.54.21-1 .42-1.53.65-.26.12-1.13.61-2 1-.4.12-.81.24-1.21.38-.57.21-1.1.53-1.68.74a55.24 55.24 0 01-5.66 1.89l-2.76.8c-.52.15-1.11.11-1.63.25-1.55.39-3 .86-4.6 1.26-1.77.46-3.41.43-5.19.85a41.48 41.48 0 01-4.28.7 22 22 0 00-2.8.75l-.12 1 .45 1a17.71 17.71 0 012.67-.57 19.34 19.34 0 002.54-.27c2.6-.65 5-1.08 7.63-1.61l3.65-.71a46.15 46.15 0 006.64-1.89L160 123q2.2-.83 4.37-1.71c1.56-.6 3.19-1 4.73-1.71.77-.31 1.45-.84 2.18-1.2a11.06 11.06 0 001.72-1l-.28-1.06zm-2.67-5.08c-.65.28-1.21.51-1.84.84l-.08.06-.8.47c-.3.18-.61.35-.92.5s-.8.58-1.2.75c0 0-.18.11-.41.22l-.59.3-1.09.46a25.29 25.29 0 01-2.88 1.06c-1.06.31-2.12.61-3 .91-1.19.44-2.18.72-3.13 1.08a29.17 29.17 0 01-3.17 1c-.71.18-1.38.11-2.08.25-.95.2-1.85.62-2.92.76s-2.44.24-3.53.47-1.78.45-2.81.63c-.73.13-1.46.25-2.2.32-1.11.11-2.18.41-3.29.53l-.45 1 .78 1c.2 0 .4-.09.59-.11l3.8-.49c.83-.09 1.62-.44 2.45-.56 2.2-.3 4-.82 6.18-1.12 1.74-.3 3.38-.65 5-1s3.21-1 4.87-1.46c.47-.17.92-.41 1.38-.6 1.1-.45 2.22-.82 3.29-1.3 1.24-.57 2.38-.84 3.63-1.38l2.16-1a19.79 19.79 0 003.18-1.78l-.34-1zm-2.61-4.96l-1.18.6h-.07c-.54.25-1 .6-1.56.85-.35.16-.71.28-1.07.41s-.63.22-.93.36a15.72 15.72 0 00-1.91.89l-.2.1-.75.32c-.79.34-1.33.61-1.88.87a13.77 13.77 0 01-1.93.77c-.51.16-.77.66-1.35.69a6.24 6.24 0 00-1.06 0c-.42.09-.69.42-1.07.57a8.24 8.24 0 01-.89.18c-.88.26-1.89.25-2.81.43s-1.78.57-2.71.75c-1.29.21-2.62.41-3.93.58-.53.07-1.5.28-2 .39a21.53 21.53 0 01-2.49.41c-1.79.16-1.48.6-3.27.7-.23 0-.68.07-1.16.13l-.37.92.69 1a7.08 7.08 0 011.15-.23c.92-.1 1.93-.47 2.85-.49a28 28 0 003.28-.3c1-.14 1.93-.31 2.89-.49s1.94-.37 2.86-.57 1.72-.41 2.58-.6 1.44-.45 2.17-.58c.91-.17 1.38-.45 2.29-.61a13.74 13.74 0 003.07-1c1.46-.64 3-1.22 4.39-1.87.92-.4 1.94-.59 2.87-1 .49-.21.94-.51 1.41-.75l1.15-.54a4.28 4.28 0 00.43-.2c.59-.35 1-.71 1.44-1l-.33-1zm46.22-.96l.44-.59a9.54 9.54 0 001.49-2.52v-.11a5.11 5.11 0 01-.53 1 10 10 0 00-.72 1.07c-.21.39-.45.77-.68 1.15zm-4.58-7.63c-.53.7-1.23 2-1.7 2.65s-.8 1.18-1.17 1.8l1.45-2.12zm1.67 1.56l-.58.93c.17-.27.43-.67.58-.93zm-7.52-2.31l.11-.16zm-4.22-3.94l-.76 1.06-.1.18a15.78 15.78 0 00.95-1.36zm-4.97-3.03a6.87 6.87 0 00-.31.7c.12-.26.23-.51.35-.76zM189 85.74c-.17.29-.36.62-.58 1s-.49.73-.75 1.12c.22-.25.45-.49.65-.76s.38-.93.68-1.36z" fill="currentColor"/><path d="M214 98.47l-.15.26c-.35.55-.67 1.14-1 1.73l-.05.07c-.36.63-.7 1.21-1.07 1.77l-1.2 1.7c-.68.91-1.25 1.92-2 2.78s-1.47 1.71-2.24 2.56c-.62.65-1.31 1.21-1.87 1.9s-1 1.23-1.47 1.86-1 1.19-1.57 1.76-1.24 1.23-1.88 1.82l-2 1.68c-.76.64-1.49 1.33-2.23 2-1.52 1.35-2.91 2.11-4.51 3.35-.85.67-2.07 1.36-3 2-1.34.84-2.72 1.61-4.07 2.43s-2.61 1.5-3.94 2.21l.2 1 .75.8c.82-.34 1.7-.56 2.49-1a28.34 28.34 0 002.81-1.85c1-.66 1.8-.93 2.77-1.61s1.83-1 2.72-1.63l1.49-1.08a17.14 17.14 0 011.52-1 5.85 5.85 0 001.95-1.56 14.89 14.89 0 011.47-1.25c.32-.27 1.77-1.44 2.15-1.81.88-.83 1.72-1.72 2.58-2.59s1.49-1.47 2.2-2.24l2.1-2.36a23.77 23.77 0 002-2.33s.59-.76.63-.73c.37-.51.54-.73.75-1 .43-.48.89-1.16 1.23-1.57a16.59 16.59 0 001.32-1.92c.25-.38.49-.76.72-1.13a10 10 0 01.72-1.07 5.11 5.11 0 00.53-1 11.19 11.19 0 01.85-1.83l-.62-.61z" fill="currentColor"/><path d="M219 101.26c-.54.91-1.07 1.83-1.65 2.72-.45.69-1 1.5-1.48 2.18a3 3 0 01-.22.28l-1.81 2.39c-.6.8-1.27 1.53-1.86 2.29s-1 1.34-1.47 2-1 1.33-1.52 2-1.33 1.37-1.95 2.11-1.61 1.45-2.31 2.27a11.89 11.89 0 01-1.32 1.24 12.45 12.45 0 00-1.41 1.16 58 58 0 01-4.54 3.76 72.67 72.67 0 01-6.24 4.74c-1.2.84-2.47 1.53-3.73 2.26s-2.69 1.41-4 2.09l-1 .55.24 1.13.83.92 1.08-.58c2-1 4-2.21 5.95-3.41 1.24-.72 2.43-1.56 3.63-2.38s2.39-1.63 3.51-2.57 2.3-1.75 3.41-2.76a31.76 31.76 0 012.6-2.1c.45-.34.91-.68 1.34-1s.84-.76 1.22-1.16c1-1.09 1.79-1.92 2.75-3.06s2.26-2.22 3.17-3.32 1.46-2.09 2.24-3.09c.47-.62 1.12-1.08 1.58-1.72.92-1.24 1.65-2.45 2.52-3.71s1.65-2.7 2.46-4.07l-1-.7zm-9.85-5.53l-.07.09-.66 1.07-1.42 2.33-1.47 2.12-.35.49c-.12.16-.35.64-.53.94-.43.6-.85 1.21-1.32 1.78s-.9 1.08-1.37 1.61l-1.44 1.53c-.68.71-1.23 1.57-2 2.23-1 .94-2 1.82-3 2.74-1.74 1.49-3.42 3.06-5.26 4.42-1 .79-2 1.58-3.07 2.28l-2.83 1.88-2.72 1.76-1.33.86c-.45.27-.91.53-1.37.77s-1.17.44-1.73.7l.23 1.15.8.81 2.84-1.56 2.8-1.66c.82-.49 1.77-.74 2.57-1.28s1.25-1.06 1.92-1.53c.87-.61 1.79-1.16 2.62-1.83 1.4-1.09 2.82-2.14 4.14-3.34l2-1.77c.65-.61 1.27-1.25 1.9-1.88l1.6-1.6 1.51-1.69c.82-.93 1.7-1.82 2.51-2.78s1.7-1.86 2.45-2.88a10.38 10.38 0 00.7-1.32 8 8 0 01.72-1.16 8.21 8.21 0 00.83-1.37l.16-.25.58-.93.64-1 .35-.58-.85-.76z" fill="currentColor"/><path d="M204.44 93.09l-.08.11c-.42.67-.77 1.39-1.21 2l-.47.73-.11.16-.13.18c-.56.75-1.19 2-1.76 2.81l-.09.13c-.43.6-.91 1.16-1.39 1.74-.7.85-1.32 1.78-2.1 2.58s-1.51 1.54-2.28 2.31c-1.06 1-2 2.12-3.11 3.09s-2.16 1.76-3.23 2.65-2 1.74-3 2.59c-.62.47-1.29.88-1.93 1.32l-1.81 1.25-1.89 1.14-1.94 1.12c-.66.36-1.35.67-2 1-.38.18-.78.31-1.16.49l.26 1.14.78.84.72-.38 2-1.06 4.29-2.5c1-.66 2-1.34 3-2s2.14-1.6 3.21-2.4 2.07-1.67 3.08-2.55c.43-.38.85-.75 1.26-1.15s.82-1 1.29-1.45c.62-.6 1.32-1.14 2-1.72 1-1 1.74-1.93 2.51-2.86s1.44-1.94 2.35-3l.67-.76.73-.91c.49-.63 1-1.26 1.31-1.75.21-.31.35-.67.54-1 .07-.12.13-.26.2-.39l1.51-2.45-.89-.87zm-4.94-2.79a7.19 7.19 0 01-.56 1l-.5.75a15.78 15.78 0 01-.95 1.36L197 94a14.33 14.33 0 00-1 1.26 10.82 10.82 0 01-1.22 1.79c-.29.29-.58.58-.84.89s-.68 1-1.08 1.4c-.63.74-1.27 1.45-1.91 2.17l-2.07 2c-.65.66-1.37 1.25-2.08 1.86-.4.35-.91.58-1.3.94-1.14 1-2.36 2-3.5 3-1.36 1.06-2.79 1.64-4.19 2.62-1.14.75-2.34 1.42-3.55 2.06a18 18 0 00-2.28 1.51l.22 1 .73.79a15.16 15.16 0 012.27-1.34 13.14 13.14 0 002.18-1.11c2.14-1.44 4.09-2.72 6.18-4.23 1-.74 2-1.38 3-2.11l2.6-2.18a28.5 28.5 0 002.38-2.41c.49-.54 1.06-1 1.53-1.6 1-1.15 2-2.32 2.94-3.51.51-.63 1.09-1.22 1.61-1.84l1.54-1.9a13.12 13.12 0 001.2-2.06 14.29 14.29 0 00.91-1.69l-.8-.72zm-5-2.81a9.39 9.39 0 00-1 1.52v.08c-.12.25-.23.5-.35.76a6.45 6.45 0 01-.49.81c-.23.33-.36.83-.61 1.15l-.5.9-.68.86a18.77 18.77 0 01-1.86 2.15c-.74.72-1.47 1.44-2 2.05-.86.83-1.51 1.53-2.15 2.25s-1.38 1.35-2.27 2.17a14.08 14.08 0 01-1.69 1.06c-.76.54-1.38 1.26-2.14 1.78s-1.93 1-2.74 1.59-1.34.93-2.13 1.43c-.57.34-1.14.69-1.73 1-.92.42-1.76 1-2.67 1.39v1.11l1 .7c.16-.09.32-.19.47-.26 1.18-.56 2-.94 3.16-1.57.68-.35 1.23-.93 1.9-1.28a20.59 20.59 0 002.4-1.53l2.35-1.61c.7-.47 1.38-.94 2-1.42s1.25-1 1.87-1.53c1.25-1 2.35-2.15 3.53-3.31a9.39 9.39 0 00.91-1.09c.7-.87 1.47-1.69 2.13-2.58s1.62-1.74 2.3-2.8c.43-.65.85-1.23 1.27-1.83a24.94 24.94 0 001.6-3l-.85-.66zm-4.9-2.75c-.25.37-.5.76-.61.94v.06c-.26.43-.39.93-.68 1.34s-.43.51-.65.76-.38.43-.55.66c-.33.5-.69 1-1 1.53l-.11.16-.44.57c-.45.6-.76 1-1.08 1.49a13 13 0 01-1.17 1.44c-.32.35-.36.84-.81 1.1a5 5 0 00-.86.45c-.3.25-.36.64-.59.93s-.47.32-.68.49c-.66.54-1.48 1-2.14 1.49s-1.28 1.15-2 1.66c-.87.65-1.86 1.18-2.81 1.75-.39.21-1 .72-1.42.94s-1.41.83-1.86 1c-1.35.67-1 1-2.41 1.51a9.82 9.82 0 00-.9.42v1l.92.78a5 5 0 01.89-.5c.73-.33 1.46-.92 2.19-1.23s1.89-.85 2.58-1.2 1.42-.88 2.12-1.34c1.44-.89 2.65-2 4-3 .54-.45 1-1 1.54-1.41s1-.89 1.66-1.42a13.5 13.5 0 002.01-2.11c.88-1.15 1.83-2.26 2.66-3.4a10.78 10.78 0 01.91-1 12 12 0 00.88-1c.28-.37.48-.81.74-1.2a9.1 9.1 0 00.59-.93 2.6 2.6 0 00.21-.36c.24-.53.38-1 .59-1.4l-.84-.65zm30.16-31.45l-.31-.76a9.24 9.24 0 00-1.53-2.89l-.08-.1a5.77 5.77 0 01.68 1.08c.38.82.77 1.77 1.24 2.67zm-9.03-.29c.19.42.48 1 .77 1.49a15.54 15.54 0 01.68 1.46c.29.7.63 1.37 1 2-.31-.71-.7-1.58-1.09-2.48s-.97-1.75-1.36-2.47zm2.2-.69l.56 1c-.16-.31-.39-.72-.56-1zm-5.81 5.33l-.07-.18zm-5.52 1.61c.19.34.28.75.44 1.1l.09.17a8.11 8.11 0 00-.58-1.4.69.69 0 00.05.13zM196.46 62c.1.15.24.32.36.52a3.24 3.24 0 00-.4-.57zm-5.15 2.16c.1.21.28.43.4.69a8.48 8.48 0 00.37.83c-.06-.21-.11-.43-.19-.64s-.4-.58-.58-.88z" fill="currentColor"/><path d="M214.81 48.78l.17.28c.34.63.72 1.26 1.1 1.89v.09a28.19 28.19 0 011.92 4.12 35.34 35.34 0 011.31 3.56c.2.62.38 1.23.52 1.84s.2 1.24.31 1.88c.14 1 .28 2 .43 3a42.43 42.43 0 01.77 5.24c0 1 .07 2 0 2.92l-.23 2.89c-.06 1.12-.26 2.2-.36 3.29-.15 2.28-.95 3.84-1.36 6a36.94 36.94 0 01-1.26 3.67c-.58 1.63-1.35 3.14-2 4.72s-1.41 2.91-2.19 4.32l.71.75 1.08.25c.53-.79 1.15-1.54 1.61-2.38.28-.54.53-1.09.77-1.65l.63-1.74c.45-1.22 1-2 1.4-3.22s.93-2.1 1.29-3.26.61-2.69 1.08-4a6 6 0 00.48-2.76 11.46 11.46 0 01.3-2.16c.11-.45.3-2.58.32-3.18s0-1.38 0-2.07l-.07-2.1a31 31 0 00-.26-3.59c-.16-1.19-.25-2.4-.5-3.58s-.41-2.36-.71-3.45a10.12 10.12 0 00-.25-1.09c-.24-.67-.34-1-.47-1.35-.21-.71-.51-1.59-.66-2.17a16.74 16.74 0 00-1-2.43c-.47-.9-.86-1.85-1.24-2.67a5.77 5.77 0 00-.68-1.08 12.7 12.7 0 01-1.27-1.83l-.86.22z" fill="currentColor"/><path d="M219.67 45.81c.61 1 1.21 2.08 1.75 3.15.45.81.85 1.85 1.25 2.75l.14.39a63.13 63.13 0 012.19 6.57c.27.94.53 1.88.8 2.82a26.11 26.11 0 01.74 2.86c.19 1.13.2 2.24.37 3.36.23 1.27 0 2.55.17 3.81a12.49 12.49 0 010 2.12 16.38 16.38 0 00-.18 2.09 49.23 49.23 0 01-.87 6.79c-.23 1.49-.59 2.94-.92 4.4s-.83 2.84-1.27 4.25l-.4 1.17-.47 1.12-1 2.23a22.74 22.74 0 01-1.16 2.25l-1.22 2.19c-.21.37-.38.77-.59 1.13l.79.83 1.22.3c.23-.38.43-.82.64-1.2.61-1.12 1.2-2.25 1.78-3.39s1-2.39 1.53-3.58a56.53 56.53 0 002.95-9.54c.09-.42.18-.84.28-1.25l.21-1.26c.13-.84.26-1.68.36-2.55.16-1.29.33-2.61.5-3.93.08-.67.17-1.33.23-2a16.85 16.85 0 000-2 37 37 0 00-.49-4.9c-.13-.84-.2-1.79-.27-2.73a16.2 16.2 0 00-.45-2.73c-.37-1.48-.79-2.93-1.3-4.37-.28-.87-.37-1.82-.65-2.7-.55-1.73-1.37-3.19-2.07-4.84s-1.71-3.22-2.61-4.81l-1.09.47zm-9.62 5.88v.11l.63 1.15c.39.77 1 1.6 1.33 2.51s.78 1.77 1.09 2.48a4.56 4.56 0 01.23.6c.06.2.3.69.45 1 .28.73.56 1.46.79 2.21.3 1.46.6 2.93.79 4.4.12 1 .35 2.07.46 3.11 0 1.43 0 2.87-.07 4.29-.09 1.2-.14 2.42-.27 3.62l-.48 3.59c-.31 1.3-.61 2.6-1 3.88L212.85 88c-.41 1.07-.85 2.12-1.27 3.18s-.89 2-1.36 3c-.31.56-.72 1.07-1.07 1.6l.79.84 1.14.25c1-2 2.06-4 3-6.14.41-.92 1-1.74 1.36-2.71.3-.82.4-1.7.65-2.52.31-1.09.63-2.19.91-3.29a42.22 42.22 0 001-11.41 40.23 40.23 0 00-.46-4.89c-.18-1.33-.5-2.66-.71-4s-.67-2.65-1-4a7 7 0 00-.76-1.42 8.86 8.86 0 01-.65-1.31 13.8 13.8 0 00-.76-1.54l-.14-.28-.56-1-.63-1.15-.36-.62-1.07.36z" fill="currentColor"/><path d="M205.45 54.51l.06.13c.37.69.81 1.34 1.17 2a7 7 0 01.37.78l.07.18.07.19c.18.44.45 1 .73 1.47a6.26 6.26 0 01.67 1.5v.15c.23.69.45 1.38.66 2.09.25 1.07.53 2.13.76 3.2s.15 2.14.28 3.19c.07.72.06 1.44.11 2.16a14.29 14.29 0 010 2.17 37.18 37.18 0 01-.53 4.09c-.1.65-.15 1.31-.24 2l-.37 2a14.1 14.1 0 01-.64 2.22l-.62 2.02c-.22.7-.55 1.35-.83 2s-.58 1.37-.95 2l-1.09 2c-.21.35-.44.69-.68 1l.84.81 1.12.29c.15-.23.26-.48.39-.72l1.06-2c.41-.73.73-1.5 1.07-2.27s.7-1.52 1-2.3c.41-1.15.84-2.3 1.19-3.48s.71-2.62.92-4a36.44 36.44 0 00.54-4c0-.58.08-1.15.09-1.73s-.15-1.32-.15-2c0-.88.12-1.76 0-2.65a34.21 34.21 0 00-1.61-7.55c-.15-.57-.36-1.35-.56-2.14s-.57-1.52-.82-2.06c-.16-.35-.4-.66-.55-1a3.85 3.85 0 00-.23-.38l-1.41-2.56-1.17.35z" fill="currentColor"/><path d="M200.61 57.48a6.17 6.17 0 01.57.9l.37.74a8.11 8.11 0 01.58 1.4l.24.64c.15.48.34.87.5 1.33.08.24.46 1 .7 1.81a6.58 6.58 0 01.18 1.08c.08.52.29 1 .42 1.52a22.73 22.73 0 01.47 5.14 23.56 23.56 0 01-.12 2.51c-.05.48-.19.94-.28 1.42-.1.69-.18 1.38-.26 2.08s-.26 1.38-.36 2.08a9.64 9.64 0 01-.27 1.12 10.52 10.52 0 01-.43 1 20.53 20.53 0 00-.84 2.13c-.23.59-.49 1.18-.75 1.76a12.56 12.56 0 01-.88 1.71 19.35 19.35 0 00-.95 2.4l.73.72 1 .28a17.91 17.91 0 011.11-2.25c.21-.34.45-.66.65-1a6 6 0 00.49-1.06c.2-.58.41-1.15.63-1.7s.36-1.12.56-1.67.37-1.1.56-1.66.29-1.15.44-1.74c.32-1.1.58-2.21.79-3.33a22.4 22.4 0 00.28-6.32c0-.69-.13-1.37-.21-2-.12-1.43-.6-2.78-.83-4.17a45.64 45.64 0 00-1.26-4.39 9.66 9.66 0 00-1.13-2 15 15 0 00-1-1.54l-1 .36z" fill="currentColor"/><path d="M195.72 60.47a5.5 5.5 0 00.65 1.36v.06a3.24 3.24 0 01.4.57c.12.22.25.44.35.67s.45.58.57.88c0 0 .26.58.35.75s.17.55.27.82a19.61 19.61 0 01.65 4.47c.1.93.09 1.71.2 2.47s0 1.57 0 2.56c-.1.57-.4 1-.51 1.58a14.44 14.44 0 01-.41 2.3c-.2.79-.76 1.68-1 2.49a15 15 0 01-.74 2.1 10 10 0 01-.76 1.58c-.5.74-.78 1.59-1.26 2.34l.56.9 1.22.1c.09-.14.14-.31.22-.44.58-1 1-1.74 1.58-2.77.31-.61.39-1.33.7-1.93a37.3 37.3 0 001.59-4.75 22.61 22.61 0 00.9-8.22c0-.4-.18-.78-.24-1.17s-.12-.92-.22-1.37l-.36-1.33q-.09-.39-.15-.75c-.06-.25-.13-.48-.19-.72-.12-.47-.23-1-.4-1.45s-.51-1.16-.75-1.73a5.14 5.14 0 00-.25-.63c-.13-.2-.27-.41-.42-.61-.29-.41-.6-.82-.83-1.22l-1 .44z" fill="currentColor"/><path d="M190.93 63.4c.12.29.28.59.35.72.18.3.49.55.58.88s.13.43.19.64a3.62 3.62 0 00.17.56 4 4 0 00.46 1.11l.06.11a1.46 1.46 0 01.13.46 4 4 0 00.39 1.13 3.8 3.8 0 01.24 1.21c0 .32.45.52.29.89a2.44 2.44 0 00-.27.63c0 .26.22.48.28.73s-.11.39-.14.58a12.08 12.08 0 01-.46 1.79 5.88 5.88 0 00-.1.93 3.62 3.62 0 010 .47c0 .16-.08.32-.13.48a15.62 15.62 0 01-.88 2.35c-.15.32-.31.93-.43 1.26s-.53 1.18-.72 1.53C190.35 83 190.77 83 190 84c-.1.13-.24.41-.43.7l.53.74 1.18.22a7.88 7.88 0 01.38-.78 20.93 20.93 0 011-1.89c.34-.52.9-1.46 1.19-2l.73-1.9a32 32 0 00.86-3.78 5.31 5.31 0 00.09-.79 2.83 2.83 0 010-.77 12.62 12.62 0 00.13-1.61 5.62 5.62 0 00-.18-2.13c-.17-1-.54-2-.75-3-.24-.59-.21-1.27-.42-1.88-.12-.32-.34-.6-.48-.91a5.46 5.46 0 00-.34-.74c-.06-.09-.1-.18-.16-.26-.29-.35-.54-.6-.75-.89l-.95.44zM182.6 21l-.6-.3c-.42-.24-.81-.47-1.19-.65a5.6 5.6 0 00-1.22-.39h-.1a3.93 3.93 0 011 .34 17.25 17.25 0 002.11 1zm-6.68 5.66c.37.2.89.43 1.4.65s1 .48 1.32.65c.61.32 1.24.59 1.88.85-1.27-.63-3.12-1.57-4.6-2.15zm1.34-1.86l.94.42zm-1.38 7.75l-.17-.1zm-3.38 4.66c.42.18.81.49 1.23.68l.21.08c-.52-.29-1-.6-1.58-.84zm-2.36 5.31l.84.3a8.62 8.62 0 00-.93-.33zm-3 4.77c.8.3 1.81.82 2.86 1.33-.35-.22-.7-.44-1.06-.63a13.14 13.14 0 00-1.8-.7z" fill="currentColor"/><path d="M177 21l.25.11c.54.24 1.11.46 1.68.68h.08a29.26 29.26 0 013.38 1.65c.93.48 1.89.89 2.82 1.36s1.82 1 2.74 1.55c.72.4 1.37.93 2.1 1.31 1.3.68 2.67 1.24 4 1.94.72.39 1.42.81 2.12 1.23l1 .63c.35.21.7.42 1.09.69.86.59 1.73 1.19 2.64 1.72a12.45 12.45 0 012.4 1.83 28.19 28.19 0 002.33 2c.92.76 1.94 1.94 2.78 2.79a22.33 22.33 0 011.76 2l1.71 2.06c1 1.39 2.06 2.76 3 4.24l1-.22.74-.85a21.36 21.36 0 00-1.46-2.76c-.37-.55-.77-1.07-1.18-1.58l-1.33-1.43c-.93-1-1.38-1.89-2.37-2.81s-1.52-1.78-2.42-2.62-2.15-1.69-3.09-2.66a5.43 5.43 0 00-2.18-1.62 10.34 10.34 0 01-1.73-1.14 25.78 25.78 0 00-2.4-1.61c-1-.51-2-1.05-3-1.6l-5-2.85a25.42 25.42 0 00-2.47-1.32c0-.05-.79-.39-.77-.43-.52-.23-.76-.34-1-.48-.51-.28-1.18-.6-1.59-.85a13.27 13.27 0 00-2.03-.96 17.25 17.25 0 01-2.11-1 3.93 3.93 0 00-1-.34 8.24 8.24 0 01-1.73-.51l-.53.7z" fill="currentColor"/><path d="M179.25 15.8c.85.35 1.7.69 2.53 1.09.65.29 1.38.72 2.05 1.05l.27.16c1.5.83 3.1 1.73 4.62 2.5 1.32.69 2.79 1.09 4.1 1.8.77.4 1.44.92 2.22 1.31s1.65 1.06 2.53 1.47 1.8 1.23 2.79 1.72a10.62 10.62 0 011.3.78l1.31.92 2.62 1.87q1.77 1.3 3.5 2.68c1.14.94 2.22 2 3.32 3.05l.9.89.84 1 1.65 2 .83 1.07.77 1.16 1.5 2.31c.26.4.54.77.77 1.19l1.14-.25.83-1c-.24-.45-.56-.87-.82-1.28-.78-1.19-1.59-2.36-2.41-3.51s-1.78-2.14-2.69-3.19a52.21 52.21 0 00-7.4-6.92c-.67-.51-1.3-1.06-2-1.51s-1.31-.9-2-1.34c-.5-.32-1-.66-1.49-1l-.74-.56c-.24-.18-.43-.3-.64-.45a25 25 0 00-2.55-1.64c-1.17-.62-2.1-1.05-3.29-1.65s-2.32-1.58-3.47-2.11-2.08-.84-3.08-1.33c-.61-.29-1.12-.78-1.72-1.1-1.17-.63-2.31-1.08-3.48-1.68s-2.48-1.09-3.71-1.63l-.59 1zm-4.52 10.32l.09.05 1.1.49c1.48.58 3.33 1.52 4.6 2.15l.51.27c.17.09.66.24 1 .35.65.29 1.31.56 1.94.89 1.21.62 2.4 1.28 3.55 2 .82.49 1.7.87 2.52 1.36 1.13.67 2.21 1.41 3.34 2.08l1.44.84 1.46 1c1 .68 2 1.27 2.9 2s2.08 1.64 3.07 2.53l2.52 2.52c.8.84 1.55 1.74 2.33 2.61a26.49 26.49 0 012.05 2.66 13.46 13.46 0 01.93 1.76l1.13-.26.76-.89a54.39 54.39 0 00-4.23-5.71c-.32-.41-.61-.84-.9-1.28a9.32 9.32 0 00-1-1.19c-.61-.63-1.37-1.11-2-1.71-.84-.77-1.69-1.5-2.56-2.23a52.37 52.37 0 00-4.51-3.24c-.78-.56-1.51-.92-2.25-1.36l-2.23-1.26-3.75-2.14-1.54-.88-1.56-.86-3.12-1.75a11 11 0 00-1.33-.46 7.62 7.62 0 01-1.17-.5c-.55-.33-.84-.36-1.37-.63l-.25-.11-.94-.42-1.06-.46-.58-.24-.62.9z" fill="currentColor"/><path d="M172.57 31.07l.12.07c.74.32 1.5.57 2.23.91.26.12.53.26.79.4l.17.1.19.1c.84.45 2.22.9 3.06 1.35l.15.07c.67.33 1.33.66 2 1 1 .54 2.05.91 3 1.5s1.83 1.19 2.77 1.74l3.85 2.16c1.24.68 2.27 1.61 3.44 2.36s2.17 1.48 3.25 2.27l.9.72.82.82 1.56 1.52c.53.5 1 1.09 1.44 1.64s1 1.13 1.36 1.75l1.21 1.86a9.42 9.42 0 01.57 1.09l1.12-.33.79-.84a7.31 7.31 0 00-.43-.7l-1.32-1.91a20 20 0 00-1.54-2c-.55-.64-1-1.32-1.63-1.93-.86-.88-1.72-1.76-2.61-2.61l-3.14-2.56-3.34-2.27a14.42 14.42 0 00-1.48-.84c-.57-.29-1.18-.51-1.74-.83-.74-.43-1.43-.95-2.16-1.41-1.17-.74-2.23-1.29-3.29-1.84s-2.18-1-3.4-1.62c-1-.55-2.71-1.61-3.76-2.1-.34-.16-.71-.24-1.05-.41a2.27 2.27 0 00-.39-.16L173.47 29l-.78 1zm-2.28 5.2a8.36 8.36 0 011.19.44l.88.42c.55.24 1.06.55 1.58.84l.71.4a16.64 16.64 0 001.5.81c.27.12 1.24.47 2.12.93.37.23.74.46 1.11.67.54.31 1.17.47 1.71.77 1.81 1 3.54 2 5.28 3.07l2.52 1.48c.42.29.75.72 1.18 1l1.83 1.17c.57.44 1.15.86 1.74 1.27.32.24.62.48.91.73s.49.56.73.85a19.55 19.55 0 001.53 1.65c.4.45.8.92 1.18 1.4l.57.71c.18.24.32.51.49.76a19.89 19.89 0 001.56 1.85l1-.31.76-.76a18.1 18.1 0 01-1.45-1.94c-.19-.32-.34-.68-.55-1a6.76 6.76 0 00-.71-.89c-.42-.43-.82-.85-1.2-1.29s-.84-.79-1.25-1.2L196 48.86c-.44-.39-.92-.75-1.39-1.14s-.88-.76-1.31-1.15-.92-.72-1.39-1.07A37.28 37.28 0 00186 42c-.69-.34-1.33-.77-2-1.14l-2.09-1.15c-.72-.35-1.44-.68-2.14-1.06-1.5-.79-2.95-1.7-4.43-2.56a17.71 17.71 0 00-2.34-.99 16.83 16.83 0 00-1.89-.71l-.66.87zM168 41.52a13 13 0 001.93.91h.1a8.62 8.62 0 01.93.33 8.92 8.92 0 011 .44c.41.2 1 .29 1.39.51l1.1.44 1.11.54c.83.39 1.85.93 2.84 1.52s1.92 1.27 2.72 1.72c1.14.67 2.09 1.16 3 1.64a21.76 21.76 0 012.8 1.58c.53.35.85.84 1.35 1.2.64.51 1.35.91 2 1.44s1.16 1.43 1.78 2a10.11 10.11 0 011.45 1.48 7.17 7.17 0 011 1.25c.34.7.92 1.23 1.26 1.92l1-.12.73-1c-.07-.12-.16-.25-.24-.36-.27-.45-.51-.83-.75-1.22a9.75 9.75 0 00-.78-1.21c-.38-.51-1-.86-1.32-1.38a31.33 31.33 0 00-3.55-3.44A25.22 25.22 0 00187.3 49c-1.41-.87-3-1.72-4.5-2.61-.45-.26-.93-.46-1.39-.7-1.09-.56-2.13-1.21-3.26-1.68-1.28-.58-2.28-1.28-3.56-1.89-.79-.37-1.5-.74-2.23-1.1a22 22 0 00-3.55-1.39l-.6.91zm-2.26 5.15l1.32.59h.08a13.14 13.14 0 011.8.7c.36.19.71.41 1.06.63s.61.39.93.55a17.46 17.46 0 002.08.91l.22.1.79.38a32.58 32.58 0 014 1.93c.48.31 1 .21 1.48.63a7.37 7.37 0 00.8.78 7.18 7.18 0 001.21.41 8.43 8.43 0 01.78.55 16 16 0 011.9 1.58 8 8 0 00.93.57 5.13 5.13 0 01.83.62l.95.88a11.3 11.3 0 01.8.93c.2.25.66.65.88.87s.69.86.88 1.14a2.49 2.49 0 00.64.68 1.49 1.49 0 01.54.72c0 .12.22.32.3.55l.84-.19.83-.83c-.1-.18-.28-.33-.4-.56a16.19 16.19 0 01-1-1.41 20.26 20.26 0 00-1.09-1.75l-1.33-1.42c-.44-.47-1-.85-1.54-1.3l-.79-.65-.88-.61a18.22 18.22 0 01-1.53-1c-.79-.57-1.34-.73-2.12-1.3a23 23 0 00-3-1.66l-2.26-1.15-2.29-1.07c-1-.47-1.85-1.1-2.79-1.63-.5-.27-1-.45-1.56-.69s-.79-.44-1.21-.6a3.9 3.9 0 00-.47-.2c-.69-.21-1.24-.33-1.81-.52l-.61.89zM139.6 7.66l-.6-.14a8.86 8.86 0 00-2.61-.27h-.1a3.34 3.34 0 011 .06 22.87 22.87 0 002.31.35zM134.81 15c.82.19 2.25.31 3 .44s1.35.21 2 .28l-2.45-.41zm.75-2.14l1 .14c-.28 0-.72-.12-1-.14zm.9 7.79h-.2zm-1.91 5.46c.46.08.92.21 1.38.26h.23c-.58-.13-1.18-.21-1.77-.32zm-.74 5.77h.89-1zm-1.5 5.41c.85.12 2 .21 3.12.43-.4-.11-.8-.22-1.2-.3-.63-.09-1.29-.05-1.92-.13z" fill="currentColor"/><path d="M134.2 9.28h.27c.59.09 1.2.14 1.8.2h.09c.65.06 1.25.14 1.86.22s1.2.24 1.86.36c1 .2 2.07.32 3.1.51s2 .43 3.07.7a22.43 22.43 0 002.39.69c1.45.27 2.93.39 4.38.68l1.2.27 1.18.35 2.35.71c.9.27 1.81.53 2.73.72 1.91.36 3.2 1.19 5.06 1.71 1 .28 2.21.84 3.19 1.2l2.13.8c.7.28 1.39.61 2.09.9 1.33.57 2.69 1.09 4 1.67l.66-.8.16-1.08c-.74-.41-1.42-.94-2.19-1.29-1-.43-2-.72-3-1.09s-1.75-.79-2.82-1.14-1.76-.82-2.76-1.15a25.07 25.07 0 01-3.27-1.2 4.8 4.8 0 00-2.26-.65 7.3 7.3 0 01-1.75-.46c-.37-.12-2-.67-2.51-.77-1.11-.23-2.19-.57-3.31-.78l-5.7-1.24a26.52 26.52 0 00-2.75-.61s-.87-.14-.87-.19c-.56-.07-.82-.1-1.13-.16-.57-.12-1.31-.23-1.77-.36a13.28 13.28 0 00-2.08-.34 22.87 22.87 0 01-2.33-.34 3.34 3.34 0 00-1-.06 8.21 8.21 0 01-1.8 0l-.32.82zm.69-5.65c.91.11 1.83.2 2.74.36.7.12 1.53.23 2.27.38l.3.07c1.68.37 3.48.78 5.16 1.08 1.47.25 3 .32 4.45.59.87.16 1.66.46 2.53.61s1.89.53 2.87.66 2.06.74 3.15 1c1.76.37 3.48 1.09 5.23 1.51 2.35.62 4.65 1.44 7 2.2a33.8 33.8 0 013.81 1.49l3.88 1.83 1 .43.71-.91.22-1.21-1.06-.45c-2-.87-3.9-1.75-5.91-2.5-2.53-.9-5.05-1.83-7.6-2.66-1.3-.41-2.54-.76-3.87-1.09-1.94-.46-3.84-1.47-5.79-1.91-1.32-.24-2.34-.39-3.66-.61s-2.7-.8-3.95-1-2.27-.3-3.37-.5c-.67-.11-1.3-.43-2-.56-1.31-.26-2.53-.4-3.83-.61s-2.69-.34-4-.51l-.27 1.16zm-1.37 11.19h.1l1.19.17 2.58.31 2.45.41.57.11c.19 0 .69 0 1 .06.71.09 1.42.16 2.11.3 1.35.22 2.65.62 4 .93.93.22 1.89.33 2.82.55 1.28.31 2.54.67 3.79 1.07l6.44 1.84c1.19.38 2.36.81 3.53 1.23l3.12 1.2c1 .36 2.05.67 3 1.1s1.93.74 2.87 1.15c.56.24 1.06.62 1.6.89l.75-.89.14-1.13c-2-.82-3.89-1.59-5.83-2.46-.86-.33-1.64-.87-2.51-1.2s-1.54-.38-2.29-.63c-1-.33-1.93-.75-2.9-1.09-1.62-.53-3.28-1-4.92-1.45l-2.47-.7c-.82-.24-1.65-.45-2.49-.61L148 15c-2.29-.55-4.62-1.12-6.95-1.61a9.39 9.39 0 00-1.41-.06 6.79 6.79 0 01-1.27-.16 11.43 11.43 0 00-1.5-.16h-.27l-1-.14-1.14-.16-.63-.07-.36 1.07zm-.66 5.36h.14c.8.11 1.6.14 2.39.27l.87.14h.41c.94.19 2.38.23 3.32.42a.88.88 0 00.16 0c.74.13 1.47.25 2.21.4.55.11 1.1.19 1.65.28s1.1.22 1.64.35c1.06.25 2.1.59 3.16.84 1.43.33 2.89.56 4.3 1s2.66.89 4 1.27c.64.18 1.29.33 1.95.47s1.28.36 1.92.56 1.47.53 2.21.79c1.38.5 2.79 1 4.16 1.49s2.74 1.25 4.1 1.89c.38.18.73.41 1.11.6l.73-.92.17-1.13-.74-.32-2.08-.91-2.26-1c-.75-.34-1.53-.59-2.3-.9-1.12-.43-2.25-.84-3.38-1.25-2.48-.95-5-1.64-7.58-2.38-.55-.15-1.09-.31-1.64-.43l-1.89-.36c-.84-.2-1.65-.49-2.48-.71-2.68-.7-4.68-.91-7.4-1.42-1.13-.23-3.06-.76-4.21-.94-.37-.06-.75 0-1.12-.05h-.43l-2.81-.23-.46 1.15zm-.69 5.63a8.46 8.46 0 011.26.1l1 .16c.59.11 1.19.19 1.77.32l.79.18c.58.14 1.08.26 1.67.35.29 0 1.31.09 2.29.28.42.11.83.23 1.26.32l1.85.3c2 .41 4 .88 5.93 1.36l2.8.83c.53.15 1 .46 1.57.61 1.53.42 3.1.75 4.62 1.24 1.71.5 3.07 1.36 4.76 1.89a27.8 27.8 0 013.9 1.65 20.67 20.67 0 002.69.87l.67-.81.15-1.06a17 17 0 01-2.51-.95 18.88 18.88 0 00-2.24-1.14c-2.52-.79-4.76-1.61-7.24-2.51-1.17-.45-2.34-.86-3.53-1.24l-3.34-1-1.68-.47c-.57-.12-1.14-.22-1.72-.31-.75-.13-1.49-.34-2.24-.5-1.56-.31-3.11-.66-4.67-.93s-3.32-.79-5-1.18a17.7 17.7 0 00-2.52-.19 16.52 16.52 0 00-2-.16l-.38 1zm-.69 5.7a14 14 0 002.12.36h1.1a6.49 6.49 0 011.09.11c.46.08 1 0 1.48.1l1.17.11 1.22.2c1.83.2 4.44 1.13 6.22 1.52 1.29.31 2.34.44 3.36.7s2 .47 3.32.82c.73.21 1.29.61 2 .83a26.39 26.39 0 012.88.85c1 .41 2.1 1 3.1 1.35s1.67.5 2.61.85c.65.28 1.3.56 1.93.89.95.5 2 .81 2.91 1.29l.92-.63-.1-1.24c-.18-.07-.37-.13-.53-.21L165 37.83a7.31 7.31 0 00-1.13-.43 7.63 7.63 0 01-1.15-.35c-2-.84-3.67-1.29-5.64-2.13-1.66-.7-3.32-1.15-5-1.66l-2.48-.72c-.83-.24-1.69-.4-2.56-.6-.51-.12-1-.16-1.53-.25-1.2-.23-2.39-.49-3.59-.7-1.39-.19-2.55-.57-3.94-.79-.86-.13-1.65-.28-2.45-.42a37.76 37.76 0 00-3.8-.3l-.32 1zm-.69 5.57l1.43.21h.09c.63.08 1.29 0 1.92.13.4.08.8.19 1.2.3s.69.19 1 .26a16.93 16.93 0 002.24.28h.25l.86.14c1.8.33 2.56.27 4.34.72.55.14 1.05-.12 1.59.15a6.53 6.53 0 001 .51c.43.12.84 0 1.26.08a7.4 7.4 0 01.89.34c.93.3 1.84.81 2.77 1.11s1.92.38 2.84.76c1.14.47 2.28.94 3.41 1.43.45.2 1.32.49 1.78.64l1.11.4a10.85 10.85 0 011.06.51c1.48.79 1.47.26 2.92 1.11.18.1.57.29 1 .48l.79-.58v-1.19a6 6 0 01-1-.41c-.77-.39-1.76-.6-2.5-1.07-.35-.22-.84-.51-1.34-.77s-1-.47-1.41-.63c-.85-.35-1.7-.69-2.56-1l-2.59-.94c-.86-.31-1.76-.52-2.63-.81s-1.53-.31-2.25-.6c-.9-.36-1.46-.38-2.36-.75a19.8 19.8 0 00-3.32-.7c-1.67-.24-3.3-.61-5-.84-1-.17-2.07-.53-3.12-.76-.55-.12-1.13-.14-1.69-.22s-.89-.13-1.34-.18a4.43 4.43 0 00-.51-.06h-1.88l-.32 1zM94.62 7.15l-.62.06a8.4 8.4 0 00-2.55.43h-.1a4 4 0 011-.22 14 14 0 002.27-.27zm-2.51 8.38c.83-.06 2.24-.31 3-.39a20 20 0 002-.34c-1.39.2-3.45.48-5 .73zm.11-2.28l1-.14c-.28.03-.72.09-1 .14zm3.05 7.26h-.19zM95 26.26c.47-.05 1 0 1.42-.11h.22c-.6.06-1.2.09-1.8.17zm.89 5.74l.87-.22-1 .23zm.05 5.62l3.17-.47c-.42 0-.83 0-1.24.08-.64.07-1.27.28-1.93.39z" fill="currentColor"/><path d="M89.94 10.18h.27c.58-.08 1.17-.19 1.76-.31h.08c1.26-.25 2.39-.33 3.72-.49l3.1-.4a30.06 30.06 0 013.13-.19 22.75 22.75 0 002.48-.06c1.46-.2 2.92-.44 4.39-.56.81-.06 1.63-.09 2.45-.11h2.45c.94 0 1.88 0 2.82-.09 1.93-.16 3.4.27 5.33.19a24.29 24.29 0 013.4.24l4.53.41c1.45.09 2.89.28 4.33.46l.4-.95-.15-1.09c-.82-.19-1.63-.52-2.46-.64a28.7 28.7 0 00-3.21-.11c-1.13 0-1.9-.29-3-.32s-1.94-.36-3-.36a23.65 23.65 0 01-3.47-.16 4.76 4.76 0 00-2.34 0 7.3 7.3 0 01-1.81 0c-.39 0-2.13-.06-2.62 0l-3.39.24c-1.94.11-3.87.21-5.8.41-.9.08-1.9.05-2.8.18 0 0-.87.11-.88.06-.56.09-.82.13-1.13.16-.59 0-1.32.14-1.8.15a11.18 11.18 0 00-2.08.29 14 14 0 01-2.32.31 4 4 0 00-1 .22 8 8 0 01-1.7.47l-.06.87zM89 4.56c.89-.14 1.78-.3 2.67-.4L94 3.91h.31c1.69-.17 3.54-.26 5.23-.43 1.48-.16 3-.5 4.43-.71.87-.11 1.72-.06 2.58-.14s2 0 2.94-.14 2.19.06 3.3 0c1.78-.13 3.63 0 5.43 0 2.42 0 4.86 0 7.29.09 1.36.08 2.71.21 4.07.36.71.08 1.42.16 2.12.26l2.12.35 1.09.13.42-1.06-.14-1.24-1.19-.19c-2.11-.35-4.25-.47-6.38-.64-1.34-.09-2.67-.25-4-.28s-2.68-.09-4-.1h-2c-.66 0-1.32 0-2 .06-2 .12-4.09-.34-6.09-.14-1.32.12-2.34.26-3.67.4s-2.81 0-4.07.18c-1.11.13-2.21.37-3.32.51-.67.08-1.36 0-2 0-1.33.1-2.51.39-3.82.54s-2.61.39-3.92.59l.07 1.18zm1.83 11.13h.1l1.18-.16c1.55-.25 3.61-.55 5-.73l.58-.06c.19 0 .68-.15 1-.23.71-.11 1.41-.24 2.11-.31 1.36-.12 2.72-.12 4.07-.23 1-.08 1.9-.24 2.86-.27h3.93c2.24 0 4.47-.1 6.7 0l3.73.12 1.66.08 1.66.15 3.23.2c1 .06 2.07.08 3.08.23.61.08 1.19.32 1.79.43l.46-1.07-.19-1.12-3.14-.36c-1.05-.08-2.1-.16-3.16-.28-.91-.09-1.81-.4-2.74-.5a20.9 20.9 0 00-2.37.06c-1 0-2.06-.13-3.09-.17-1.71-.08-3.42 0-5.13 0h-2.56l-2.56.14c-1.44.1-2.88.13-4.32.28-1.17.11-2.36.16-3.55.2l-3.56.22a8.35 8.35 0 00-1.37.35 7.58 7.58 0 01-1.26.24c-.63 0-.89.17-1.48.25h-.26l-1 .14-1.12.16-.62.1v1.13zm.85 5.31h.14c.8-.11 1.58-.3 2.38-.39l.88-.09h.41c1-.1 2.34-.53 3.3-.59h.16c.74-.08 1.48-.17 2.23-.23 1.11-.11 2.22-.24 3.34-.33s2.17-.07 3.26-.1c1.47-.06 2.94-.23 4.41-.26s2.81.1 4.21.07 2.67-.08 4-.1c.78 0 1.56.06 2.34.09 1.47.06 2.94.2 4.41.32s3 .29 4.47.57c.42.06.82.19 1.23.27l.44-1.09-.15-1.14-.8-.1-2.25-.3-4.91-.46c-1.2-.14-2.4-.21-3.6-.24l-4-.14h-4c-.56 0-1.13 0-1.69.05s-1.22.19-1.89.19h-2.58a32.29 32.29 0 00-3.76.33c-1.18.14-2.36.3-3.74.42-1.15.08-3.15.13-4.29.32-.37.06-.73.21-1.1.26l-.42.08-2.82.41L91.2 20zm.9 5.63a8.13 8.13 0 011.25-.25l1-.11c.6-.08 1.2-.11 1.8-.17l.81-.07c.59 0 1.11-.09 1.69-.16.3 0 1.3-.28 2.29-.36h1.3c.62 0 1.24-.17 1.86-.24 2-.25 4.06-.29 6.08-.36 1-.05 1.94 0 2.92-.05.56 0 1.12.15 1.68.14 1.6-.07 3.19-.08 4.79-.11 1.79-.05 3.34.35 5.11.46 1.41.06 2.81.23 4.21.4a18.66 18.66 0 002.82.1l.41-1-.16-1.06a16.48 16.48 0 01-2.67-.23 16.35 16.35 0 00-2.48-.38c-1.32 0-2.57-.09-3.83-.19l-3.83-.15c-1.25 0-2.49-.22-3.74-.22h-3.49c-1.17 0-2.33.12-3.49.23-.76.09-1.53.07-2.29.13-1.59.15-3.16.35-4.75.47s-3.4.14-5.11.28c-.83.07-1.66.36-2.49.51a19 19 0 00-2 .39l-.09 1.09zm.9 5.66a15.63 15.63 0 002.18-.24h.11l1-.23c.36-.08.72-.15 1.08-.2s1-.32 1.45-.36l1.16-.23 1.23-.14a27.41 27.41 0 013.2-.21l3.21-.11c1.32-.05 2.37-.15 3.42-.26s2.11-.14 3.43-.17c.76 0 1.41.21 2.15.22 1 .07 2-.08 3 0s2.31.3 3.37.38 1.74.06 2.74.14c.71.06 1.41.12 2.11.23 1.05.18 2.11.23 3.16.43l.7-.87-.46-1.16c-.19 0-.39 0-.56-.06-1.35-.25-2.3-.41-3.66-.57-.79-.11-1.61 0-2.41-.08-2.11-.34-3.89-.21-6-.43a46.38 46.38 0 00-5.23-.21c-1.72 0-3.43.09-5.22.18-.52 0-1 .12-1.54.17l-3.64.4c-1.4.17-2.61.15-4 .32l-2.46.31a31.1 31.1 0 00-3.79.73v1.09zm.89 5.54l1.48-.19h.09c.66-.11 1.29-.32 1.93-.39.41 0 .82-.06 1.24-.08s.73 0 1.08-.06a19 19 0 002.24-.36h.24l.87-.1c1.83-.14 2.54-.51 4.38-.57.56 0 1-.39 1.57-.28a6.82 6.82 0 001.09.23 6.33 6.33 0 001.23-.31 6.2 6.2 0 011 .07c1 0 2 .24 3 .27s2-.14 3 0q1.84.15 3.69.33c.49.07 1.41.14 1.89.16s1.8.16 2.34.25c1.65.27 1.49-.24 3.12.19.21 0 .62.13 1.06.2l.59-.77-.5-1.29a6.29 6.29 0 01-1.09-.11c-.85-.17-1.86-.11-2.71-.29s-2.21-.43-3-.55a25.33 25.33 0 00-2.75-.26c-1.83-.06-3.67-.16-5.5-.17-.8 0-1.56.14-2.34.07-1-.09-1.51 0-2.48 0a22.75 22.75 0 00-3.4.22c-1.67.23-3.34.45-5 .63-1.06.13-2.15.06-3.22.14-.57.06-1.12.22-1.69.31s-.9.1-1.35.18c-.17 0-.35 0-.52.08-.72.19-1.27.38-1.87.52L94 37z" fill="currentColor"/></svg>