<svg xmlns="http://www.w3.org/2000/svg" viewBox="0 0 145.45 119.88"><path d="M100.15 4.16c-.22-.13-.38-.37-.66-.34-.53.07-.57-.32-.61-.6a1.42 1.42 0 01.51-1.48c.49-.39.74-.12 1.19 0 .62.22 1.28.81 1.1 1.46a1.47 1.47 0 01-.5.59 2.64 2.64 0 01-.4.35.9.9 0 01-.37.05.59.59 0 01-.26-.03zm-5.53-1.6c-.12.11-.36.53-.63.55-1.7.31-1.89-1.11-1.72-1.61s.49-1 .75-1c1.27-.01 1.73.59 1.6 2.06zm19.07 2.93l.13.09a8.07 8.07 0 00.78.47c.25.16.25.27.23.59a1.17 1.17 0 01-.46 1.11c-.29.26-.49.31-1.07.29s-1-.66-1.06-1.59a.58.58 0 01.16-.45 8 8 0 01.7-.41c.3-.15.38-.24.59-.1zm-7.49.24c-.54-.3-.81-1.62-.51-1.88a2.07 2.07 0 011.63-.61c.5.17.79.92 1.16 1.41a1.59 1.59 0 01-2.28 1.08zM73.1 3.15c-.25 0-.48-.22-.74-.11-.49.22-.64-.14-.77-.39a1.41 1.41 0 010-1.56c.34-.51.66-.33 1.14-.33.65 0 1.47.35 1.5 1a1.43 1.43 0 01-.29.73 3.3 3.3 0 01-.24.51.89.89 0 01-.33.18.5.5 0 01-.27-.03zm-5.77.2c-.08.14-.17.61-.43.73a1.31 1.31 0 01-2.13-1c0-.42.15-1.11.4-1.19 1.21-.4 1.83.02 2.16 1.46zm19-3.35a.58.58 0 01.16.05c.3.11.59.09.89.17s.32.17.41.47a1.18 1.18 0 01-.06 1.21c-.18.34-.35.46-.91.64s-1.19-.33-1.53-1.17a.57.57 0 010-.46 6.1 6.1 0 01.52-.62c.19-.22.28-.29.52-.29zm-6.99 2.72c-.61-.14-1.29-1.3-1.1-1.64A2.07 2.07 0 0179.6 0c.52 0 1 .6 1.55.94a1.6 1.6 0 01-1.81 1.78zM47 10.43c-.25 0-.52-.07-.73.12-.4.36-.65.07-.85-.14A1.42 1.42 0 0145 8.92c.18-.59.53-.52 1-.67.63-.2 1.51-.12 1.74.53a1.38 1.38 0 01-.06.77 3 3 0 01-.11.52.92.92 0 01-.26.26.52.52 0 01-.31.1zm-5.46 1.92c0 .15 0 .62-.19.81a1.29 1.29 0 01-2.32-.3c-.12-.4-.2-1.11 0-1.26 1.04-.75 1.76-.54 2.51.75zm17.13-8.87h.16a6.65 6.65 0 00.91-.12c.29 0 .35.07.53.33a1.16 1.16 0 01.31 1.16c-.07.39-.2.55-.68.9s-1.23.08-1.81-.64a.61.61 0 01-.09-.45 6.66 6.66 0 01.31-.73c.1-.32.11-.43.36-.45zm-5.85 4.67c-.62.07-1.63-.85-1.54-1.23.12-.54.51-1.29 1-1.44s1.17.25 1.76.42a1.62 1.62 0 01-1.22 2.25zM24.38 25.33c-.22.11-.51.1-.64.35-.26.48-.6.28-.85.15a1.42 1.42 0 01-.9-1.27c0-.62.32-.67.7-1 .54-.39 1.42-.57 1.83 0a1.31 1.31 0 01.19.75 2.29 2.29 0 01.05.52.87.87 0 01-.17.33.68.68 0 01-.21.17zm-4.51 3.58c0 .16.22.59.08.83a1.3 1.3 0 01-2.29.47c-.25-.34-.56-1-.41-1.2.75-1.01 1.51-1.01 2.62-.1zm13.46-13.82l.15-.05a6.88 6.88 0 00.82-.39c.28-.1.36 0 .61.15a1.18 1.18 0 01.65 1c0 .39 0 .57-.37 1.05s-1.14.46-1.91 0a.59.59 0 01-.26-.38c0-.27 0-.54.06-.81s.02-.47.25-.57zm-4.13 6.25c-.56.26-1.8-.29-1.84-.68a2.13 2.13 0 01.46-1.66c.41-.33 1.2-.12 1.82-.13a1.62 1.62 0 01-.44 2.47zM8.32 47c-.17.18-.45.28-.49.55-.07.53-.46.47-.74.45a1.4 1.4 0 01-1.31-.85c-.25-.56.07-.73.33-1.14s1.08-1.06 1.67-.72a1.4 1.4 0 01.45.63 2.37 2.37 0 01.25.47.93.93 0 010 .37.51.51 0 01-.16.24zm-2.86 5c.08.14.44.47.41.74A1.3 1.3 0 013.93 54c-.35-.22-.88-.68-.83-.94.28-1.24.95-1.56 2.36-1.06zM13 34.22a.63.63 0 01.12-.1 8.13 8.13 0 00.67-.63c.22-.19.32-.16.62-.07a1.2 1.2 0 011 .74 1.23 1.23 0 010 1.11c-.21.67-.9.82-1.81.61a.61.61 0 01-.37-.27c-.09-.25-.15-.52-.22-.78s-.17-.44-.01-.61zm-1.67 7.3c-.46.42-1.78.37-2 0a2 2 0 01-.13-1.72c.29-.43 1.09-.53 1.66-.76a1.6 1.6 0 01.47 2.48zM2.5 73.06c-.07.25-.3.46-.18.72.21.5-.16.62-.41.73a1.4 1.4 0 01-1.56-.12C-.15 74 0 73.7.08 73.22c.08-.66.5-1.45 1.18-1.42a1.44 1.44 0 01.69.36c.13.11.31.16.42.3a.85.85 0 01.14.34.57.57 0 01-.01.26zm-.06 5.7c.14.08.6.18.71.43a1.33 1.33 0 01-1 2.13c-.42 0-1.14-.12-1.21-.38-.38-1.24.06-1.87 1.5-2.18zm-1.16-19.2s0-.09.07-.14a8.26 8.26 0 00.32-.86c.13-.27.24-.28.55-.31a1.21 1.21 0 011.18.29c.29.25.35.44.45 1s-.49 1.11-1.4 1.29a.59.59 0 01-.45-.1 6 6 0 01-.51-.62c-.22-.25-.31-.32-.21-.55zm1.49 7.33c-.19.58-1.44 1.1-1.75.86a2.15 2.15 0 01-.92-1.5c.06-.52.77-1 1.19-1.4a1.62 1.62 0 011.48 2.04zm9.38 30.5c.11.23.09.52.33.66.45.27.25.61.12.86a1.39 1.39 0 01-1.27.89c-.62 0-.66-.35-.94-.75s-.56-1.42 0-1.82a1.48 1.48 0 01.77-.17 2.28 2.28 0 01.52 0 .78.78 0 01.33.16.46.46 0 01.14.17zm3.58 4.44c.16 0 .59-.25.83-.13a1.32 1.32 0 01.57 2.29c-.32.26-.94.6-1.16.45-1.08-.7-1.16-1.44-.24-2.61zM3 87.44a.86.86 0 010-.17 6.55 6.55 0 00-.21-.9c0-.29 0-.37.28-.57a1.18 1.18 0 011.13-.41c.39 0 .57.15 1 .58s.18 1.2-.48 1.87a.63.63 0 01-.42.19 6.65 6.65 0 01-.76-.23c-.41-.11-.54-.11-.54-.36zm5.52 5.01c.17.58-.51 1.78-.89 1.78A2 2 0 016 93.57c-.27-.45 0-1.21 0-1.82a1.64 1.64 0 012.52.7zm26.2 19.18c.21.15.33.41.61.42.54 0 .51.42.52.7a1.41 1.41 0 01-.71 1.39c-.54.3-.74 0-1.17-.21-.59-.3-1.17-1-.89-1.59a1.4 1.4 0 01.58-.52 2.09 2.09 0 01.44-.29.92.92 0 01.37 0 .44.44 0 01.25.1zM40 114c.13-.09.42-.47.7-.46a1.32 1.32 0 011.47 1.85c-.2.36-.62.93-.89.89-1.28-.19-1.65-.84-1.28-2.28zm-18.46-5.73l-.11-.12a7.55 7.55 0 00-.7-.59c-.22-.2-.2-.31-.13-.61a1.18 1.18 0 01.65-1 1.26 1.26 0 011.11-.11c.7.13.88.85.76 1.77a.63.63 0 01-.23.4 6.77 6.77 0 01-.75.28c-.32.09-.41.16-.6-.02zm7.46.93c.48.41.55 1.76.23 2a2 2 0 01-1.7.33c-.47-.23-.65-1-.95-1.55a1.61 1.61 0 012.42-.78zm32.38 7.8c.24.1.43.32.7.26.53-.13.61.25.68.52a1.44 1.44 0 01-.33 1.53c-.44.45-.72.21-1.18.11-.64-.14-1.37-.65-1.27-1.32a1.38 1.38 0 01.42-.64c.13-.13.2-.3.35-.4a1.14 1.14 0 01.36-.1.59.59 0 01.27.04zm5.7 1c.11-.12.3-.56.57-.61 1.68-.51 2 .93 1.87 1.43s-.39 1-.65 1.08c-1.26.1-1.78-.45-1.79-1.9zm-19.29-.27l-.14-.08c-.29-.15-.58-.18-.86-.3s-.29-.21-.33-.52a1.2 1.2 0 01.24-1.19c.23-.31.42-.4 1-.5s1.14.49 1.34 1.39a.66.66 0 01-.04.47c-.19.19-.41.35-.61.52s-.39.3-.6.21zm7.34-1.52c.59.23 1 1.51.8 1.81a2.15 2.15 0 01-1.52.83c-.51-.08-.92-.76-1.37-1.18a1.63 1.63 0 012.09-1.46zm33.44-.31c.26 0 .5.21.74.08.48-.25.65.09.79.34a1.42 1.42 0 01.06 1.56c-.32.55-.64.37-1.12.39-.66 0-1.49-.29-1.55-1a1.34 1.34 0 01.25-.73 2.6 2.6 0 01.24-.47.85.85 0 01.32-.18.52.52 0 01.27.01zm5.76-.47c.07-.14.14-.62.39-.75a1.3 1.3 0 012.17.89c0 .42-.09 1.12-.34 1.21-1.19.46-1.83.08-2.22-1.35zm-18.79 4.36h-.15a7.51 7.51 0 00-.91-.11c-.29 0-.33-.15-.44-.44A1.18 1.18 0 0174 118c.16-.35.32-.48.86-.7s1.22.23 1.62 1a.61.61 0 010 .46c-.14.23-.31.44-.47.66s-.22.41-.47.37zm6.81-3.15c.61.09 1.36 1.23 1.19 1.58s-.82 1.12-1.29 1.16-1.07-.53-1.6-.83a1.63 1.63 0 011.7-1.91zm31.81-9.48c.25 0 .54 0 .72-.17.36-.41.64-.14.85.05a1.41 1.41 0 01.58 1.45c-.11.62-.47.59-.92.75-.62.24-1.51.21-1.79-.4a1.26 1.26 0 010-.77 2.18 2.18 0 01.07-.52 1 1 0 01.25-.28.44.44 0 01.24-.11zm5.22-2.42c0-.16-.09-.63.1-.83a1.29 1.29 0 012.34.06c.16.38.32 1.07.12 1.25-.94.85-1.69.72-2.56-.48zM103 114.88h-.16a8.89 8.89 0 00-.9.15c-.29 0-.36 0-.55-.3a1.17 1.17 0 01-.37-1.15c.05-.38.17-.56.63-.92s1.23-.12 1.84.55a.62.62 0 01.16.43 7 7 0 01-.27.77c-.15.33-.15.44-.38.47zm5.53-5.04c.61-.1 1.68.74 1.62 1.13a2.14 2.14 0 01-.87 1.5c-.48.2-1.19-.17-1.78-.29a1.63 1.63 0 011.03-2.34zM133.64 89c.2-.16.48-.23.56-.49.12-.52.48-.43.76-.37a1.41 1.41 0 011.22 1c.22.6-.15.73-.45 1.1s-1.23.92-1.77.52a1.29 1.29 0 01-.37-.68 2.62 2.62 0 01-.19-.49.85.85 0 01.08-.35.45.45 0 01.16-.24zm3.36-4.66c-.07-.15-.39-.51-.34-.78a1.29 1.29 0 012-1.13c.33.25.82.77.74 1-.35 1.25-1.05 1.51-2.4.91zM127.22 101l-.15.07a7.57 7.57 0 00-.79.49c-.26.15-.36.1-.63 0a1.2 1.2 0 01-.8-.91 1.22 1.22 0 01.21-1.07c.35-.59 1-.63 1.89-.27.11 0 .3.19.32.33a7.17 7.17 0 01.09.81c.02.27.07.39-.14.55zm2.78-7c.49-.37 1.83-.11 2 .25a2.15 2.15 0 01-.08 1.75c-.34.4-1.14.39-1.72.55A1.65 1.65 0 01130 94zm12.39-30.38c.11-.23.33-.41.28-.69-.1-.52.29-.59.56-.65a1.39 1.39 0 011.51.38c.42.46.17.73.06 1.19-.16.64-.68 1.35-1.34 1.22a1.37 1.37 0 01-.64-.46c-.12-.13-.29-.21-.38-.37a.92.92 0 01-.1-.36.55.55 0 01.05-.26zM143.5 58c-.12-.1-.56-.29-.61-.56-.44-1.65.9-2 1.43-1.88s1.07.37 1.12.63c.09 1.26-.44 1.81-1.94 1.81zm-1.6 19.19a.8.8 0 01-.09.14 7 7 0 00-.43.81c-.15.25-.26.25-.57.25a1.19 1.19 0 01-1.14-.41c-.27-.27-.33-.48-.34-1.06s.64-1 1.58-1.12a.63.63 0 01.44.14c.15.21.29.45.42.67s.23.39.13.58zm-.64-7.45c.27-.55 1.57-.91 1.85-.63a2.22 2.22 0 01.72 1.6c-.1.51-.88.84-1.35 1.24a1.63 1.63 0 01-1.22-2.21zm-1.9-32.61c0-.25.08-.52-.1-.72-.36-.4 0-.65.15-.84a1.41 1.41 0 011.51-.42c.59.19.52.55.65 1 .21.63.09 1.51-.58 1.71a1.32 1.32 0 01-.75-.1 2.42 2.42 0 01-.53-.13 1.28 1.28 0 01-.26-.26.51.51 0 01-.09-.24zm-1.81-5.45c-.16 0-.64 0-.82-.2a1.31 1.31 0 01.36-2.33c.41-.11 1.11-.17 1.26 0 .71 1.09.48 1.85-.8 2.53zM145 49.44a1 1 0 010 .16 7.1 7.1 0 000 .92c0 .29-.12.34-.4.47a1.17 1.17 0 01-1.2.1c-.37-.13-.51-.29-.79-.8s.11-1.22.91-1.68a.62.62 0 01.46-.06 6.92 6.92 0 01.68.42c.25.19.34.22.34.47zM141.19 43c0-.63 1-1.52 1.39-1.41a1.94 1.94 0 011.32 1.12c.1.52-.4 1.16-.65 1.72a1.58 1.58 0 01-2.06-1.43zm-16.53-28.21c-.14-.21-.17-.5-.42-.6-.5-.18-.36-.54-.27-.8a1.4 1.4 0 011.12-1.09c.62-.12.72.23 1 .59s.77 1.33.29 1.81a1.43 1.43 0 01-.72.27 4.7 4.7 0 01-.51.12.86.86 0 01-.35-.12.42.42 0 01-.14-.18zM120.4 11c-.15.05-.54.34-.81.25-1.71-.41-1.26-1.8-.89-2.17s.87-.71 1.11-.61c1.19.53 1.32 1.25.59 2.53zm14.67 12.38a1.31 1.31 0 01.05.15 7.92 7.92 0 00.34.85c.1.27 0 .36-.17.6a1.17 1.17 0 01-1 .6c-.39 0-.58 0-1-.41s-.4-1.16.13-1.91a.58.58 0 01.39-.25 7 7 0 01.8.1c.26.05.39.03.46.27zm-6.16-4.21c-.25-.55.26-1.81.64-1.87a2.09 2.09 0 011.7.44c.33.41.13 1.21.15 1.82a1.62 1.62 0 01-2.49-.39z" fill="currentColor"/></svg>