<svg xmlns="http://www.w3.org/2000/svg" viewBox="0 0 183.2 155.21"><path d="M86.66 3.93C87 5.6 87.31 7 87.6 8.4c.11.53.19 1.07.27 1.62l.39 2.57.39 2.48c.23 1.35.49 2.7.68 4.06.15 1.09.18 2.2.34 3.29s.44 2.43.62 3.64c.13.87.15 1.76.28 2.63s.43 1.77.53 2.67.06 2 .1 2.93c0 1.13.18 2.28.13 3.38a4.68 4.68 0 01-.58 1.71.8.8 0 01-.72.13 3.46 3.46 0 01-.64-.53 4.35 4.35 0 01-.28-.69c-.21-.61.33-.77.43-1.27a3.63 3.63 0 000-1.19c-.14-1.16-.34-2.31-.51-3.46l-.79-5.64c-.2-1.51-.35-3-.61-4.53s-.72-3.26-1-4.89l-1-6.06c-.32-1.72-.72-3.43-1.13-5.13-.29-1.22-.71-2.39-1-3.61a1.15 1.15 0 01.48-1C85.2 1 86 1.49 86.35 2.9zm7.11 27.7c-.16-1.49-.3-3-.49-4.46q-.34-2.7-.78-5.38c-.3-1.78-.72-3.54-1-5.33-.35-2.27-.49-4.57-.88-6.84-.34-2-.91-4-1.39-5.95 0-.23.06-.51 0-.76A2.36 2.36 0 0089 2.2c-.12-.23-.37-.4-.43-.64a3.12 3.12 0 010-1c0-.06.13-.16.21-.17.93-.13 1.91-.82 2.78-.09a2.5 2.5 0 01.71 1.46c.32 1.91.55 3.82.78 5.74.06.53 0 1.08 0 1.62l1 7.57c.1.84 0 1.7.16 2.54a38 38 0 00.71 4.42 28.75 28.75 0 01.49 4.41c.14 1.41.27 2.82.36 4.24 0 .7-.06 1.4-.06 2.1 0 .44.07.88.08 1.32 0 .08-.1.16-.12.23-.24.88-.4 1-.84 1.12-.16 0-1.3-1.23-1.35-1.41s-.11-.81 0-1c.72-.84.18-1.97.29-3.03zm-9.34 8.9c-.65.2-1.27-.62-1.36-1.59s-.37-1.69-.53-2.55-.19-1.64-.39-2.44c-.42-1.66-.89-3.3-1.37-4.93l-2.2-7.31c-.47-1.54-1-3.08-1.39-4.62-.37-1.31-.64-2.66-1-4s-1.48-4.31-1.89-5.66a18.25 18.25 0 01-.79-3.79c0-.31.77-.92 1.25-1a1.5 1.5 0 011.2.82c.61 1.82 1.5 5.36 2 7.22.26 1 .42 2 .69 3 .16.6.46 1.16.67 1.75a11.77 11.77 0 01.33 1.16l1.57 6L82.31 27l1.76 7.26c.31 1.31.56 2.63.89 3.93.25 1.02.04 2.17-.53 2.34zM98.49 38a9.73 9.73 0 01-.77-1.39c-.17-.45-.72-1 0-1.51.16-.11.1-1 .07-1.45l-.44-5.49-.46-6.61q-.26-3.27-.6-6.54c-.22-2.06-.52-4.11-.76-6.16-.12-1.06-.19-2.13-.26-3.19L95.15 3c0-.71-.11-1.42-.07-2.13s.4-.92 1.07-.65l.47.06C97.76.35 98 1 98 1.13c.05.66-.39.86-.38 1.12.07 1.9.19 3.78.31 5.67l.31 3.58.19 3.76.3 4.16.13 2.39c.07.93.19 1.86.24 2.8l.23 6.14c.08 1.64.21 3.27.32 4.9 0 .3.16.73.08.86-.12.94-.43 1.49-1.24 1.49zm5.92-2.81c.2-1 .38-1.68.48-2.39.07-.52 0-1.09.06-1.62.16-1.33.42-2.65.55-4 .07-.69-.12-1.4-.12-2.1 0-1.26.09-2.51.09-3.77V10.76c0-2 .1-3.94.14-5.91 0-.62-.09-1.25 0-1.86s0-1.58.4-1.9c.73-.56 1.56-.23 2.4.38 1.08.77.49 1.19 0 1.77-.06.07-.12.2-.09.26.49.92-.14 1.83 0 2.77a21.57 21.57 0 01-.1 3.59l-.22 2.66a12 12 0 000 2.61 27.27 27.27 0 01-.23 4.23c-.09 1.75-.13 3.5-.25 5.24-.18 2.52-.47 5-.59 7.55a5.52 5.52 0 01-1.55 4.05c-.09.09-.29.16-.32.09-.31-.41-.52-.86-.65-1.1zm-17.89 3.07c-.4.06-.49-.28-.63-1.4s.16-2.3-.16-3.48c-.12-.41-.16-.84-.26-1.26-.3-1.29-.65-2.6-.92-3.9-.19-.95-.47-1.88-.66-2.83-.14-.68-.13-1.4-.27-2.09-.53-2.43-1-4.86-1.65-7.27-.55-2.12-1.37-4.18-1.91-6.31-.48-1.9-.7-3.86-1-5.79 0-.18-.19-.32 0-.66a1 1 0 01.8-.62c1-.15 1.64.6 1.9 2 .35 1.82.8 3.63 1.19 5.44.17.82.26 1.65.45 2.47l2.06 9c.32 1.45.61 2.91.91 4.37.23 1.15.44 2.16.68 3.32.15.72.24 1.46.32 2.2.13 1.1.25 2.21.32 3.31a8.42 8.42 0 01-.18 1.21c0 .42 0 .86-.07 1.27a2 2 0 01-.22.64 1.09 1.09 0 01-.22.26c-.2.09-.42.06-.48.12zM101 18.13c0-1.88 0-2.12-.12-4-.08-1.33-.4-2.63-.54-4-.1-.88 0-1.79-.06-2.68a8.39 8.39 0 00-.39-2.36 4.21 4.21 0 011-4.11.6.6 0 01.48-.09 2.31 2.31 0 011.37 2.61A9.8 9.8 0 00103 6a2.07 2.07 0 01.1.33c0 2.1.07 4.21 0 6.31 0 .9-.21 1.8-.24 2.7s0 2.09.06 3.14v3.45c0 .69.06 1.38 0 2.07 0 1.78 0 3.57-.13 5.35a50.88 50.88 0 00-.28 5.35c.06 1.13-.5 1.17-.81 1.55-.48.58-.92 0-1.14-.59a3.5 3.5 0 010-1.55c.08-.58.35-1.13.39-1.71.08-1.33.08-2.68.08-4 0-1-.09-2-.12-3v-1.93l-.07-3.68a.81.81 0 000-.26v-1.14a.93.93 0 01.16-.26zm16.07 20c-.9-.25-.89-.46-.45-2 .55-1.93 1-3.9 1.44-5.86.26-1.08.53-2.17.75-3.26l1.12-6q.52-2.67 1.14-5.32c.48-2.08 1-4.14 1.51-6.22.22-1 .24-2 .44-3 .31-1.5.69-3 1.06-4.49a1.67 1.67 0 012.22-.87c.93.57.18 2.77 0 3.61s-.34 1.82-.58 2.7c-.35 1.34-.76 2.65-1.14 4-.2.67-.41 1.34-.58 2-.34 1.41-.6 2.84-1 4.23-.53 1.87-1.17 3.7-1.7 5.57a26.42 26.42 0 00-.6 2.78c-.23 1.33-.36 2.67-.66 4-.21.91-.66 1.77-.92 2.67-.37 1.31-.73 2.63-1 4-.12.69-.65 1.57-1.05 1.46zM113.3.64c.76-.07 1.57.28 1.65 1.6 0 .1-.26.41-.29.64-.28 1.91-.53 3.82-.77 5.73s-.4 3.69-.66 5.52c-.24 1.65-.59 3.29-.83 4.94-.16 1.12-.18 2.25-.33 3.37l-.82 5.86c-.12.94-.23 1.88-.27 2.82a5.36 5.36 0 01-1 3.09c-.12.15-.41 0-.61 0s-.14-.11-.22-.14c-.81-.3-.82-.68-.45-1.83a18.14 18.14 0 00.79-3.61c.3-2.62.46-5.26.7-7.89.13-1.32.37-2.62.5-3.94l.47-5.93c.13-1.44.36-2.88.47-4.32.07-.8 0-1.61 0-2.42 0-.12.09-.23.12-.35a2.32 2.32 0 00.11-.63c-.04-.15-.5-2.78 1.44-2.51zm-49.23 5.2s.81-.76 1.74.36A7.76 7.76 0 0166 7.43c.36 1 1.4 3.86 1.73 4.86.56 1.67 1.07 3.36 1.65 5 .17.51.82 2.13 1 2.64.09.27.5 1.49.8 2.4l1.37 4.1c.43 1.25 1.64 4.35 2 5.61.25.82.77 1.86 1.58 4.26a6.8 6.8 0 01.49 2.19 3.82 3.82 0 010 1.73c-.11.25-.81.2-1.11 0a5.21 5.21 0 01-.89-1.44.43.43 0 01-.08-.21c.48-1.22-.17-2.36-.64-3.54L71.13 28l-2.25-5.35-1.6-4-2.06-4.78-1.84-4.71a7.1 7.1 0 00-.64-1.26c-.33-.49.26-1.66 1.33-2.06zm52.48 8.22c.09-1.62.13-3.24.26-4.85.08-1.08.32-2.15.48-3.23.08-.62.07-1.26.2-1.87.19-.94 1-.85 1.57-.54s1.52.22 1.29 1.25c-.18.78-.36 1.56-.48 2.35s-.12 1.32-.22 2c-.21 1.25-.48 2.49-.67 3.74-.21 1.41-.33 2.84-.57 4.24-.31 1.83-.66 3.64-1 5.45-.36 1.64-.79 3.27-1.15 4.91-.45 2-1.13 6.05-1.63 8.06a2.57 2.57 0 01-.92 1.31c-.2.15-.65-.14-.82-.44a4.87 4.87 0 01-.43-1.47c0-.06.43-.26.56-.5a4 4 0 00.34-1.11c.32-1.63.87-5.27 1.19-6.9.27-1.35.64-2.69.85-4.06.33-2.19.42-2.58.7-4.78.07-.57.21-1.86.28-2.44-.01-.03.12-1.12.17-1.12zm-44-5.51l1.13 3.77c.79 2.68 1.62 5.35 2.35 8 .5 1.83.83 3.71 1.28 5.56.24 1 .57 1.95.84 2.93.33 1.21 1.51 4.71 1.77 5.94a14.73 14.73 0 01.45 3 1 1 0 01-.87.84c-.26 0-.91-.91-.88-1.16.29-1.85-1.63-5.8-2-7.55a38.91 38.91 0 00-1.39-4C74.65 24 74.21 22 73.57 20c-.59-1.79-1.39-3.5-2.07-5.26-.19-.51-.18-1.1-.37-1.62-.62-1.71-1.31-3.39-1.95-5.09a9.05 9.05 0 01-.51-1.81c0-.09.6-.43.9-.4a3.12 3.12 0 012.98 2.73zM123 40.64c-.52.07-1.1-.11-1.07-.31a4.94 4.94 0 01.72-2.19 7.36 7.36 0 00.68-.88c1.14-2 2.39-6.69 3.19-8.9.69-1.91 2.76-7.79 3.4-9.72.43-1.31.61-2.71 1-4 .53-1.73 1.2-3.41 1.8-5.11.37-1 .66-2.1 1.09-3.11.15-.37.58-.63.93-.89.13-.11.4 0 .54-.15.89-.65 1.2.32 1.4.69a2.3 2.3 0 01-.55 2.82 8.68 8.68 0 00-1 2.36c-.86 2-1.77 4.09-2.57 6.16-.44 1.14-.69 2.36-1.12 3.51l-2.9 7.52c-.91 2.37-2.59 6.7-3.5 9.07-.39 1-.89 1.87-1.35 2.78a.79.79 0 01-.69.35zm-3-3.88c.49-1.51.39-.72.74-1.9.48-1.57 1.39-5.11 1.76-6.72s1.9-7 2.34-8.52.93-5.09 1.37-6.78c.32-1.21.76-2.38 1.14-3.57.3-.93.56-1.88.9-2.8a6.19 6.19 0 01.68-1.07c.73-.35 1.47-.63 2 .35.33.6.7 1.11.2 1.85a12.88 12.88 0 00-.88 2.24c-.41 1-.87 2-1.25 3.08-1.17 3.25-3.49 12.24-4.64 15.5-.46 1.34-1.39 4.66-1.81 6-.23.76-.49 1.51-.71 2.27a2.86 2.86 0 01-.68 1.37c-.22.22-.81.08-1-.2s-.16-.86-.16-1.1zm20.16-28.89c.35.32.65.81 1 .88 1.06.26.77.66 1 1.12.48.84-.23 1-.56 1.41-.93 1.28-2.11 4.75-3 6.1a12.94 12.94 0 00-1.24 2 34.8 34.8 0 01-1.83 4.26c-.9 1.62-3.18 7-4 8.7L130 35.63a9.84 9.84 0 01-1.85 3c-.28.25-.87.49-.91.39a5.86 5.86 0 01-.21-1.51c0-.1.35-.29.49-.48a8.81 8.81 0 001-1.46c.67-1.43 2-4.77 2.6-6.24s2.52-6.88 3.09-8.44c.47-1.24 1-2.46 1.43-3.71.6-1.66 1.81-5.24 2.49-6.86a12 12 0 011.63-2.43c-.01-.04.24 0 .4-.02zM18.5 45.37c1.47.88 2.69 1.63 3.91 2.37.46.28.91.6 1.36.91l2.14 1.48L28 51.54c1.14.76 2.3 1.5 3.42 2.29.9.64 1.73 1.38 2.63 2s2.07 1.34 3.07 2c.73.5 1.39 1.09 2.12 1.59s1.58.9 2.3 1.45 1.47 1.28 2.21 1.91 1.79 1.42 2.57 2.19a5.55 5.55 0 01.9 1.54c.06.12-.17.52-.36.56a4.8 4.8 0 01-.79.08c-.06 0-.68-.27-.7-.27-.58-.27-.36-.74-.66-1.13a3.78 3.78 0 00-.86-.83c-.94-.67-1.92-1.3-2.89-2l-4.68-3.25C35 58.89 33.8 58 32.52 57.14s-2.87-1.69-4.28-2.58l-5.12-3.37c-1.48-.93-3-1.8-4.53-2.65-1.09-.61-2.25-1.09-3.32-1.73a1.21 1.21 0 01-.43-1.09c.44-1.28 1.41-1.49 2.7-.82zm24.98 13.9c-1.18-.91-2.35-1.85-3.56-2.74-1.45-1.08-2.92-2.14-4.42-3.16s-3.06-1.94-4.54-3c-1.87-1.32-3.64-2.81-5.54-4.1-1.68-1.14-3.5-2.07-5.26-3.08-.21-.12-.33-.4-.54-.54a2.07 2.07 0 00-.7-.29c-.25-.07-.55 0-.77-.11a3 3 0 01-.72-.65c-.05 0 0-.21 0-.28.55-.83.79-2 1.94-2.14a2.49 2.49 0 011.56.49c1.59 1.09 3.13 2.25 4.66 3.42.43.33.75.79 1.18 1.11l6.12 4.56c.67.51 1.25 1.15 1.93 1.65a37.87 37.87 0 003.7 2.59A30 30 0 0142 55.71c1.1.89 2.21 1.77 3.29 2.69.53.46 1 1 1.48 1.51.32.3.68.56 1 .85.06.06.05.18.09.25.46.77.44 1 .23 1.34a5.68 5.68 0 01-1.92-.06c-.27-.17-.66-.48-.69-.67-.13-1.14-1.3-1.54-2-2.35zm.64 12.27c-.25.55-1.27.45-2.06-.1s-1.53-.82-2.28-1.25-1.37-.92-2.11-1.3c-1.52-.77-3.06-1.49-4.61-2.2l-7-3.15c-1.47-.66-2.95-1.3-4.41-2-1.18-.54-2.37-1.25-3.65-1.8s-4.23-1.7-5.52-2.27a17.17 17.17 0 01-3.37-1.9c-.26-.18-.17-1.24.1-1.69a1.5 1.5 0 011.41-.42c1.78.74 5 2.42 6.73 3.28.92.47 1.79 1 2.71 1.49.56.27 1.19.41 1.77.64.37.15.73.35 1.09.53l5.51 2.78 4.07 2.08 6.6 3.5c1.19.63 2.34 1.32 3.54 1.93.93.46 1.69 1.38 1.48 1.85zm7.11-11.11a11.37 11.37 0 01-1.52-.43c-.44-.2-1.22-.22-1.06-1.07 0-.18-.61-.73-1-1l-4.23-3.53-5-4.29c-1.69-1.41-3.38-2.79-5.11-4.15s-3.3-2.49-4.94-3.76c-.85-.65-1.65-1.34-2.47-2l-1.95-1.71a17.86 17.86 0 01-1.57-1.44c-.41-.45-.37-.93.31-1.23 0 0 .37-.29.37-.3.84-.83 1.46-.53 1.55-.45.51.42.34.89.54 1.07 1.4 1.28 2.83 2.52 4.26 3.75l2.77 2.29L35 44.57l3.18 2.7 1.79 1.58c.71.61 1.46 1.17 2.16 1.8l4.54 4.14c1.22 1.09 2.48 2.14 3.72 3.21.22.19.63.4.66.55.54.72.78 1.37.18 1.88zm2.07-6.03c-.57-.84-.93-1.46-1.36-2s-.77-.77-1.11-1.19C50 50.12 49.25 49 48.4 48c-.44-.53-1.08-.89-1.57-1.39-.89-.89-1.71-1.84-2.6-2.73l-7.47-7.47c-1.38-1.4-2.71-2.86-4.08-4.28-.43-.44-.93-.82-1.33-1.29s-1.13-1.11-1.06-1.63c.1-.94.95-1.27 2-1.44 1.33-.21 1.19.5 1.23 1.28 0 .09.05.23.11.25 1 .3 1.19 1.39 2 2A21 21 0 0138 33.85l1.76 2a13.49 13.49 0 001.81 1.89 25.75 25.75 0 012.82 3.16c1.18 1.29 2.38 2.57 3.52 3.89 1.65 1.91 3.22 3.89 4.92 5.76a5.49 5.49 0 011.75 3.93c0 .12-.08.31-.15.29-.43-.12-.87-.29-1.13-.37zm-9.6 14.26c-.2.31-.52.15-1.45-.49A24.68 24.68 0 0039.54 66c-.39-.19-.74-.44-1.11-.65-1.17-.64-2.37-1.26-3.52-1.93-.83-.49-1.71-.9-2.54-1.39-.61-.36-1.13-.85-1.74-1.19-2.15-1.24-4.3-2.5-6.51-3.64-1.95-1-4-1.77-6-2.79-1.74-.91-3.34-2.06-5-3.1-.15-.1-.37-.06-.5-.43a1.11 1.11 0 01.09-1c.59-1 1.59-.88 2.75-.16 1.59 1 3.23 1.84 4.84 2.79.72.42 1.39.92 2.12 1.33l8 4.54c1.29.74 2.56 1.51 3.83 2.28l2.92 1.74c.63.37 1.24.8 1.84 1.23.9.65 1.81 1.3 2.67 2a8.5 8.5 0 01.78.91c.29.31.63.58.92.89a2 2 0 01.35.58 1.13 1.13 0 01.06.32c.07.12-.09.25-.09.33zm-4.86-23.9c-1.36-1.3-1.51-1.49-2.92-2.74-1-.87-2.15-1.55-3.19-2.38-.7-.56-1.28-1.27-2-1.85a8.74 8.74 0 00-1.95-1.38 4.1 4.1 0 01-2.22-3.58.6.6 0 01.26-.42 2.27 2.27 0 012.83.84 9.81 9.81 0 001.94 1.52c.09.06.23.08.3.15 1.51 1.47 3 2.93 4.51 4.44.62.64 1.12 1.41 1.74 2.06s1.51 1.45 2.26 2.18l2.5 2.4c.5.48 1 .93 1.51 1.43 1.24 1.28 2.49 2.55 3.69 3.86s2.28 2.79 3.6 4c.84.75.48 1.17.55 1.66.11.76-.63.63-1.2.37a3.86 3.86 0 01-1.11-1.07c-.36-.46-.55-1-.94-1.47-.9-1-1.85-1.94-2.8-2.88-.71-.7-1.48-1.34-2.2-2-.47-.44-.91-.91-1.37-1.35L40 46l-.18-.2-.39-.41L39 45a1.29 1.29 0 01-.16-.24zm25.49 2.82c-.85.45-1 .3-1.76-1.1-1-1.76-2.06-3.45-3.1-5.17-.58-1-1.15-1.91-1.77-2.84l-3.41-5q-1.51-2.27-2.95-4.58c-1.12-1.81-2.18-3.66-3.32-5.47-.53-.85-1.24-1.6-1.8-2.45-.84-1.28-1.63-2.61-2.42-3.92a1.63 1.63 0 011-2.15c1.06-.24 2.08 1.83 2.53 2.57s1 1.53 1.5 2.33c.69 1.19 1.33 2.41 2 3.62.34.61.66 1.23 1 1.83.76 1.24 1.58 2.44 2.29 3.7.94 1.69 1.78 3.44 2.72 5.13a25 25 0 001.55 2.39c.77 1.1 1.63 2.14 2.34 3.28.5.79.78 1.71 1.23 2.54.66 1.19 1.34 2.37 2.09 3.5.39.61.65 1.59.28 1.79zM35.22 23.64a1.46 1.46 0 012.29 0c.07.07.11.48.25.67q1.73 2.31 3.48 4.61c1.13 1.47 2.32 2.89 3.42 4.38s1.9 2.76 2.9 4.1c.67.9 1.45 1.73 2.13 2.62l3.55 4.75c.57.75 1.16 1.49 1.78 2.19a5.35 5.35 0 011.48 2.92c0 .18-.26.3-.42.43s-.18 0-.26 0c-.79.34-1.07.08-1.61-1a17.72 17.72 0 00-2-3.1c-1.63-2.08-3.38-4.06-5-6.11-.84-1-1.59-2.11-2.43-3.13l-3.88-4.54c-.9-1.11-1.77-2.29-2.7-3.43-.52-.62-1.16-1.13-1.74-1.7-.08-.08-.09-.23-.15-.34a2.73 2.73 0 00-.37-.52c-.16-.12-2.31-1.63-.72-2.8zM4.5 64.75a1.27 1.27 0 011.42-1.23c.55.19.82.57 1.06.66 1 .35 3.87 1.36 4.85 1.74 1.64.63 3.27 1.31 4.92 1.92.51.19 2.18.71 2.69.88l2.37.9 4 1.54c1.24.46 4.41 1.49 5.63 2 .79.32 1.92.58 4.29 1.47a7.54 7.54 0 012 1 4.14 4.14 0 011.33 1.06c.14.23-.32.68-.7.75a5.84 5.84 0 01-1.66-.23c-.07 0-.19 0-.21-.07-.68-1-2-1.29-3.18-1.66l-7.24-2.26-5.52-1.62-4.12-1.25L11.4 69c-1-.27-3.83-1.2-4.8-1.49a6.59 6.59 0 00-1.39-.28c-.59-.07-1.09-1.33-.71-2.48zM47 30.89c-1.07-1.21-2.18-2.38-3.22-3.62-.69-.83-1.28-1.76-1.93-2.63-.37-.5-.83-.95-1.17-1.47-.53-.8.12-1.35.71-1.51s1.24-.9 1.8 0c.42.68.85 1.36 1.31 2s.85 1 1.23 1.55c.74 1 1.41 2.09 2.16 3.11s1.76 2.25 2.59 3.42Q52 34 53.53 36.35c.91 1.42 1.75 2.87 2.64 4.29 1.11 1.75 3.46 5.1 4.53 6.87a2.58 2.58 0 01.3 1.57c0 .25-.55.37-.88.29a4.61 4.61 0 01-1.34-.74s.12-.49.05-.75a4.24 4.24 0 00-.54-1c-.92-1.39-3.09-4.35-4-5.74-.83-1.14-1.51-2.39-2.29-3.51-1.31-1.79-1.52-2.14-2.87-3.9l-1.52-1.92s-.67-.89-.61-.92zM12.17 59.55l3.59 1.6c2.55 1.14 5.12 2.24 7.64 3.44 1.72.82 3.37 1.79 5.07 2.64.9.46 1.85.83 2.77 1.27 1.14.53 4.56 1.91 5.67 2.5a16.73 16.73 0 012.57 1.56.91.91 0 01.11 1.12 2.05 2.05 0 01-1.44-.1c-1.25-1.35-5.5-2.46-7.07-3.31a37.35 37.35 0 00-3.92-1.49c-1.88-.78-3.7-1.74-5.6-2.5-1.74-.69-3.58-1.18-5.36-1.79-.52-.18-1-.57-1.48-.76-1.72-.62-3.43-1.17-5.15-1.73a8.63 8.63 0 01-1.72-.78 1.52 1.52 0 01.3-1 3.08 3.08 0 014.02-.67zM70.43 45.1c-.34.41-.9.7-1 .54a4.83 4.83 0 01-1-2 8.25 8.25 0 00-.13-1.1c-.63-2.23-3.08-6.4-4.09-8.52-.87-1.83-3.61-7.44-4.53-9.24-.64-1.23-1.5-2.35-2.16-3.57-.85-1.59-1.58-3.24-2.37-4.87-.48-1-1-1.94-1.46-2.95a2.73 2.73 0 010-1.27c0-.17.24-.32.26-.49.14-1.09 1-.65 1.43-.53a2.36 2.36 0 011.61 2.38 9.12 9.12 0 001 2.38c.86 2 1.68 4.11 2.6 6.13.51 1.12 1.2 2.15 1.72 3.26s2.81 6.16 3.35 7.33c1 2.33 3 6.53 4 8.86.41 1 .71 2 1 2.93a.88.88 0 01-.23.73zm-4.99-.56c-.72-1.42-.23-.79-.81-1.87-.79-1.45-2.65-4.59-3.53-6s-3.58-6.25-4.38-7.67-2.94-4.26-3.83-5.77c-.62-1.08-1.14-2.22-1.72-3.33-.45-.87-.93-1.72-1.34-2.6a5.64 5.64 0 01-.28-1.23c.25-.76.59-1.45 1.62-1.16.66.19 1.26.28 1.45 1.16a12.27 12.27 0 001 2.21c.45 1 .84 2.05 1.31 3.06 1.49 3.12 6.22 11.09 7.73 14.2.63 1.28 2.33 4.28 3 5.54.37.7.71 1.41 1.11 2.1a2.93 2.93 0 01.49 1.46c0 .32-.54.63-.89.58s-.77-.55-.93-.68zM59 9.88c.46 0 1 .11 1.3-.1.6-.42.72.05 1.11.24.71.34.49.84.64 1.38.39 1.51 2.07 4.77 2.52 6.29a17 17 0 00.65 2.21 41 41 0 011.86 4.24c.58 1.76 3 7.12 3.63 8.87s2.17 5.21 2.07 6.94c0 .36-.28 1-.38.94a4.84 4.84 0 01-1.27-.89c-.08-.07 0-.45 0-.69a9.46 9.46 0 00-.37-1.74c-.56-1.48-2-4.76-2.67-6.21s-3.19-6.59-3.9-8.08c-.57-1.2-1.09-2.42-1.67-3.61-.77-1.59-2.49-5-3.19-6.56a12.85 12.85 0 01-.62-2.87c-.02-.08.16-.24.29-.36zM21.14 129.11l3-3.46c.36-.41.75-.8 1.13-1.19l1.83-1.86 1.74-1.8c.95-1 1.87-2 2.85-3 .78-.78 1.65-1.47 2.43-2.25s1.68-1.81 2.54-2.68c.62-.63 1.32-1.18 1.93-1.82s1.17-1.39 1.82-2 1.5-1.26 2.24-1.89 1.68-1.56 2.54-2.22a6.18 6.18 0 011.53-.75c.1 0 .4.18.4.35a4.28 4.28 0 01-.11.74s-.37.61-.38.63c-.36.53-.73.3-1.15.56a4.59 4.59 0 00-.92.75l-2.37 2.57-3.94 4.21c-1 1.1-2.14 2.16-3.16 3.3s-2.11 2.58-3.21 3.83c-1.34 1.55-2.77 3-4.12 4.55-1.15 1.32-2.24 2.7-3.3 4.08-.76 1-1.4 2.07-2.18 3a1.18 1.18 0 01-1.2.2 1.81 1.81 0 01-.55-3zm18.24-22.02c-1.13 1-2.28 1.94-3.4 2.94-1.34 1.21-2.68 2.44-4 3.7s-2.5 2.61-3.8 3.86c-1.66 1.59-3.47 3-5.1 4.64-1.44 1.44-2.68 3.07-4 4.64-.16.19-.46.24-.64.41a2 2 0 00-.41.66c-.1.24-.07.58-.22.78a2.83 2.83 0 01-.78.58.38.38 0 01-.3-.1c-.76-.83-2.05-1.42-2-2.67a2.22 2.22 0 01.75-1.49c1.4-1.34 2.87-2.59 4.34-3.84.41-.34.94-.54 1.35-.89 1.93-1.66 3.83-3.36 5.78-5 .65-.55 1.4-1 2-1.52a43.46 43.46 0 003.33-3 31.4 31.4 0 013.47-2.79c1.12-.87 2.23-1.76 3.36-2.6.56-.42 1.18-.75 1.76-1.15.35-.25.69-.54 1-.8.07-.05.17 0 .24-.06.78-.34 1-.32 1.22-.13a6.41 6.41 0 01-.61 1.66 2 2 0 01-.76.57c-.96.03-1.68 1.05-2.58 1.6zm11.12.27c.47.28.24 1.26-.38 2s-1 1.44-1.48 2.14-1 1.27-1.5 2c-.93 1.43-1.81 2.89-2.69 4.36l-3.86 6.57c-.82 1.39-1.61 2.8-2.45 4.17-.7 1.17-1.51 2.27-2.19 3.45s-2.13 4-2.83 5.26a16.76 16.76 0 01-2.26 3.15c-.21.23-1.29 0-1.73-.34a1.49 1.49 0 01-.3-1.47c.92-1.69 3-4.72 4-6.33.57-.86 1.23-1.65 1.78-2.52.34-.52.54-1.13.84-1.69.19-.35.42-.68.65-1l3.39-5.16 2.53-3.8 4.23-6.16c.77-1.1 1.57-2.18 2.31-3.29.57-.9 1.53-1.58 1.94-1.34zm-7.68-6.76c-.37.44-.57.81-.92 1.18s-.59 1-1.29.8a4.54 4.54 0 00-1.25.72l-4.49 3.2-5.42 3.81c-1.78 1.28-3.54 2.57-5.28 3.9s-3.22 2.59-4.84 3.88c-.83.67-1.71 1.28-2.58 1.9-.7.5-1.41 1-2.13 1.47a16.22 16.22 0 01-1.8 1.16c-.53.27-1.06.07-1.25-.77a5.27 5.27 0 00-.23-.53c-.67-1.23-.23-1.77-.13-1.84.55-.38 1 0 1.22-.15 1.61-1 3.19-2 4.76-3.1 1-.66 1.95-1.39 2.95-2l3.17-2 3.48-2.32 2-1.28c.78-.52 1.53-1.09 2.32-1.58l5.24-3.23 4.12-2.66c.25-.16.58-.46.72-.47.86-.48 1.47-.61 1.63-.09zm-4.22-2.23c-1 .27-1.64.42-2.32.63-.51.16-1 .44-1.51.6-1.27.42-2.57.74-3.84 1.16-.66.22-1.24.65-1.89.93l-3.49 1.43-9.67 4.27c-1.81.79-3.64 1.51-5.46 2.28-.57.24-1.1.6-1.68.8s-1.44.66-1.92.34c-.86-.59-1-1.66-.78-2.84.22-1.5.88-1 1.65-.65.09 0 .25.06.28 0 .63-.9 1.76-.55 2.57-1A18.29 18.29 0 0113.9 105l2.52-.84a12.26 12.26 0 002.45-.93 25.47 25.47 0 014-1.36c1.66-.58 3.3-1.18 5-1.71 2.4-.77 4.84-1.47 7.22-2.29a7.7 7.7 0 014.23-.48c.1 0 .22.12.17.16zm9.21 9.23c.25.21 0 .5-.68 1.35a30 30 0 00-2.44 2.47c-.24.35-.53.68-.78 1-.79 1.07-1.55 2.19-2.36 3.24-.59.77-1.11 1.59-1.7 2.35-.43.56-1 1-1.4 1.58-1.5 2-3 4-4.43 6-1.25 1.81-2.25 3.79-3.5 5.6-1.11 1.61-2.47 3.05-3.71 4.57-.12.14-.1.36-.5.43a1.21 1.21 0 01-1.1-.26c-.91-.81-.77-1.79.11-2.85 1.18-1.44 2.28-3 3.43-4.41.52-.65 1.11-1.25 1.61-1.91l5.64-7.32c.91-1.18 1.85-2.33 2.79-3.49l2.14-2.64c.46-.57 1-1.12 1.47-1.66.76-.8 1.53-1.61 2.31-2.39a11.2 11.2 0 011-.68c.33-.25.63-.56 1-.81a3 3 0 01.59-.3 1 1 0 01.3 0c.05-.04.14.12.21.13zm-23.25.85c-1.66.91-1.88 1-3.5 2-1.13.68-2.14 1.61-3.23 2.36-.73.51-1.59.84-2.34 1.32a7.36 7.36 0 00-1.87 1.49 3.63 3.63 0 01-4.16.87.87.87 0 01-.35-.47 2.24 2.24 0 011.59-2.66 8.21 8.21 0 002.05-1.38c.09-.06.14-.19.23-.24 1.89-.94 3.76-1.9 5.67-2.78.82-.38 1.72-.58 2.54-1s1.86-.95 2.8-1.42l3.09-1.54c.62-.31 1.23-.65 1.85-.94 1.62-.75 3.24-1.51 4.87-2.23s3.35-1.31 4.9-2.15a1.83 1.83 0 011.63-.2c.66 0 .22.57-.19 1a5 5 0 01-1.35.76c-.54.23-1.12.31-1.64.55-1.2.58-2.39 1.2-3.57 1.83-.88.46-1.73 1-2.6 1.48l-1.69.89-3.23 1.77-.24.11-.51.24-.51.25a.89.89 0 01-.24.09zm13.61-19.66c0 .74-.25.77-1.85.73-2-.06-4 0-6 0h-3.35l-6.06.28c-1.81.07-3.62.12-5.44.13L9 89.9c-1 0-2 .24-3 .27-1.53.06-3.07 0-4.61 0-.83 0-1.61-1.35-1.35-2.24.36-1.18 2.65-.88 3.52-.86s1.85-.06 2.77 0c1.37.07 2.75.2 4.13.3.69.05 1.39.12 2.09.13 1.45 0 2.9 0 4.35.08 1.94.12 3.87.35 5.8.46.95.06 1.9 0 2.85 0 1.34-.06 2.67-.21 4-.19.93 0 1.86.24 2.8.29 1.36.08 2.73.13 4.08.11.79-.04 1.76.21 1.74.54zM3.26 102.7a1.7 1.7 0 011-2.39c.09 0 .48.15.71.11q2.85-.48 5.68-1c1.82-.35 3.63-.77 5.46-1.09 1.64-.28 3.31-.45 5-.74 1.11-.2 2.2-.53 3.3-.74l5.82-1.07c.93-.18 1.86-.37 2.77-.61a6.7 6.7 0 013.11-.17c.17 0 .15.27.19.42s-.06.13-.06.2c-.06.65-.42.8-1.6.9a24.5 24.5 0 00-3.65.58c-2.57.61-5.11 1.34-7.67 2-1.28.33-2.59.54-3.87.87-1.92.48-3.82 1.05-5.74 1.55-1.4.36-2.83.62-4.23 1a23.89 23.89 0 00-2.25.89h-.38a2.19 2.19 0 00-.63.1c-.22.05-2.45 1.49-2.96-.81zM39.67 146a1.27 1.27 0 01-1.06-1.54c.24-.52.64-.75.75-1 .45-.95 1.73-3.73 2.2-4.67.8-1.57 1.63-3.12 2.39-4.71.24-.49.92-2.1 1.14-2.59.13-.25.7-1.41 1.12-2.27l1.93-3.87c.57-1.19 1.91-4.24 2.52-5.41.4-.76.77-1.85 1.89-4.13a7.07 7.07 0 011.17-1.81 4 4 0 011.19-1.21c.23-.1.68.37.72.75a5.88 5.88 0 01-.38 1.65.54.54 0 01-.09.2c-1.15.54-1.51 1.83-2 3-.72 1.71-2.24 5.27-3 7l-2.13 5.39-1.66 4-1.87 4.87-2 4.62a6.49 6.49 0 00-.42 1.36c-.02.45-1.31.9-2.41.37zM15 95c-1.58.37-3.15.79-4.73 1.13-1.06.23-2.16.29-3.24.44-.62.09-1.22.3-1.85.35-1 .07-1.11-.89-1-1.57s-.2-1.75.85-1.78c.8 0 1.61-.05 2.4-.13s1.3-.24 2-.31c1.26-.12 2.53-.16 3.78-.3 1.42-.16 2.83-.41 4.25-.54 1.84-.16 3.69-.27 5.54-.35l5-.16c2.07-.09 6.14-.46 8.21-.52a3 3 0 011.49.4c.18.11 0 .5-.25.71a6 6 0 01-1.29.67c-.06 0-.37-.25-.64-.28a5 5 0 00-1.16 0c-1.65.16-5.29.64-6.95.78-1.37.13-2.76.15-4.13.32-2.19.28-2.6.3-4.79.64l-2.42.4L15 95zm20.22 42.86l2-3.42c1.39-2.42 2.74-4.87 4.19-7.26 1-1.62 2.12-3.16 3.14-4.77.54-.86 1-1.76 1.53-2.63.65-1.08 2.36-4.35 3-5.39a17.18 17.18 0 011.8-2.41.87.87 0 011.1 0 2.16 2.16 0 01-.26 1.42c-1.44 1.12-3 5.23-4 6.71a39.83 39.83 0 00-1.86 3.76c-1 1.8-2.08 3.52-3 5.33s-1.53 3.45-2.31 5.17c-.22.5-.66.9-.9 1.39-.78 1.64-1.49 3.31-2.25 5a8.3 8.3 0 01-.94 1.64 1.63 1.63 0 01-1-.42 3.07 3.07 0 01-.24-4.12zm4.2-54.28c.16.43.09 1-.1 1A5.69 5.69 0 0137 84.2c-.37-.16-.6-.34-1-.47-2.19-.72-7-1.19-9.32-1.6-2-.35-8.15-1.39-10.15-1.69-1.37-.21-2.78-.14-4.16-.32-1.79-.23-3.56-.6-5.34-.91-1.03-.21-2.13-.29-3.2-.55-.38-.09-.7-.5-1-.81-.12-.12-.11-.42-.24-.55-.81-.83.13-1.32.47-1.61a2.2 2.2 0 012.88.08 8.21 8.21 0 002.49.64c2.16.53 4.31 1.11 6.48 1.57 1.2.25 2.44.31 3.64.55l7.89 1.66 9.51 2c1 .23 2 .56 3 .85a.82.82 0 01.47.54zm-3.21 3.1c-1.58-.17-.79-.21-2-.32-1.64-.15-5.29-.36-6.93-.4s-7.21-.49-8.82-.61-5.18.1-6.92 0c-1.25-.08-2.49-.28-3.73-.42-1-.11-1.95-.18-2.91-.34a5 5 0 01-1.18-.5c-.49-.7-.87-1.44 0-2.22.55-.48 1-1 1.81-.59a11.22 11.22 0 002.36.47c1.08.22 2.15.5 3.24.69 3.41.56 12.67 1.19 16.08 1.72 1.41.21 4.84.52 6.26.68.79.09 1.57.21 2.36.28a3.53 3.53 0 011.49.38c.27.15.25.66 0 .88s-.91.25-1.11.3zM4.35 71.72c.29-.41.74-.79.76-1.17 0-.79.5-.59.89-.8.72-.39 1 .12 1.48.35 1.42.63 5 1.31 6.5 1.9a15.18 15.18 0 002.14.86A38.37 38.37 0 0120.61 74c1.74.63 7.47 2 9.22 2.61s5.44 1.51 6.76 2.57c.29.23.6.75.52.8a5.17 5.17 0 01-1.42.37c-.09 0-.34-.28-.56-.38a10.6 10.6 0 00-1.61-.73C32 78.8 28.5 78 27 77.6s-7.17-1.48-8.79-1.81c-1.3-.28-2.58-.61-3.88-.87-1.73-.34-5.44-1-7.15-1.43a12 12 0 01-2.69-1.29c-.1-.05-.1-.3-.14-.48zM98 151.63c-.2-1.7-.37-3.11-.53-4.53-.06-.54-.09-1.09-.13-1.64l-.16-2.59-.18-2.51c-.1-1.37-.25-2.73-.31-4.1-.06-1.1 0-2.21 0-3.32s-.23-2.45-.3-3.68v-2.64c0-.88-.27-1.8-.29-2.7s.12-2 .17-2.93 0-2.29.19-3.38a4.61 4.61 0 01.78-1.66.86.86 0 01.76 0 4.57 4.57 0 01.6.57 4.84 4.84 0 01.22.72c.15.62-.42.74-.57 1.23a3.55 3.55 0 00-.16 1.18c0 1.16.12 2.32.18 3.48l.25 5.69c.07 1.52.08 3.05.2 4.57s.41 3.31.56 5l.44 6.12c.16 1.74.39 3.48.64 5.21.18 1.24.48 2.46.62 3.7a1.15 1.15 0 01-.55 1c-1.18.38-1.88-.2-2.14-1.65-.17-.53-.29-.97-.29-1.14zm-4.69-28.21c0 1.5 0 3 .12 4.5.08 1.81.19 3.62.34 5.42s.42 3.6.54 5.4c.15 2.29.11 4.6.3 6.89.17 2 .57 4 .86 6.05 0 .24-.09.5-.07.75a2.47 2.47 0 00.2.74c.09.24.32.43.36.66a3.25 3.25 0 010 1 .29.29 0 01-.21.16c-.91 0-1.91.63-2.68-.18a2.65 2.65 0 01-.58-1.52c-.16-1.92-.24-3.85-.32-5.78 0-.53.13-1.08.1-1.61l-.37-7.62c0-.85.09-1.7 0-2.54a38.86 38.86 0 00-.37-4.47 28.58 28.58 0 01-.15-4.43v-4.25c0-.7.17-1.4.22-2.1v-1.32c0-.08.12-.15.15-.23.33-.85.5-.94 1-1a5.52 5.52 0 011.25 1.48 1.58 1.58 0 01-.1 1c-.85.79-.38 1.96-.59 3zm10.44-8.02c.67-.11 1.21.77 1.2 1.74s.2 1.72.27 2.59 0 1.65.13 2.46c.24 1.69.55 3.37.86 5l1.43 7.49c.31 1.59.64 3.16.91 4.75.24 1.34.36 2.7.63 4s1 4.44 1.3 5.83a18.48 18.48 0 01.4 3.84c0 .32-.85.83-1.34.86a1.51 1.51 0 01-1.1-.93c-.42-1.87-.94-5.49-1.24-7.38-.16-1-.21-2.05-.38-3.07-.1-.61-.35-1.2-.5-1.81-.09-.38-.14-.79-.21-1.18l-1-6.11-.7-4.51-1-7.4c-.18-1.34-.29-2.68-.5-4-.1-.91.27-2.08.84-2.17zm-14.86 1.34a10.79 10.79 0 01.71 1.46c.14.46.68 1.08-.15 1.5-.17.09-.18.94-.18 1.44v12.13c0 2.19.06 4.39.13 6.58s.22 4.13.31 6.2c.05 1.07 0 2.13 0 3.2v2.59c0 .71 0 1.43-.08 2.13s-.45.88-1.07.56a2.51 2.51 0 00-.44-.1c-1.09-.11-1.26-.77-1.26-.89 0-.66.43-.84.44-1.11.06-1.89.07-3.78.06-5.68l-.06-3.58.06-3.77v-6.56c0-.93-.07-1.87 0-2.81l.17-6.14v-4.91c0-.3-.12-.74 0-.86.11-.93.47-1.52 1.36-1.38zm-6.51 2.43c-.26 1-.48 1.65-.61 2.36-.11.52 0 1.08-.14 1.61-.23 1.33-.55 2.63-.74 4-.1.68.08 1.4 0 2.1-.06 1.26-.2 2.51-.26 3.76-.15 3.48-.31 7-.46 10.56-.11 2-.28 3.94-.4 5.9 0 .62 0 1.25-.06 1.86s-.06 1.58-.46 1.88c-.71.53-1.48.16-2.25-.48-1-.81-.42-1.2.1-1.76a.37.37 0 00.1-.26c-.44-.94.2-1.82.12-2.77a21.79 21.79 0 01.23-3.59l.26-2.64A13.55 13.55 0 0078 139a25.84 25.84 0 01.38-4.21c.14-1.75.24-3.5.43-5.24.26-2.51.64-5 .85-7.52a5.2 5.2 0 011.8-4c.1-.07.32-.13.35-.07.24.49.44.96.57 1.21zm19.01-1.69c.41 0 .47.34.49 1.46s-.4 2.25-.2 3.46c.08.42.08.86.14 1.28.17 1.32.39 2.65.52 4 .1 1 .29 1.92.39 2.88.06.7 0 1.41.06 2.1.28 2.47.54 5 .92 7.4.34 2.18 1 4.31 1.28 6.49.28 1.93.31 3.9.46 5.86 0 .18.17.34 0 .64a1 1 0 01-.84.53c-1 .06-1.54-.74-1.67-2.12-.17-1.85-.45-3.69-.66-5.53-.09-.83-.1-1.67-.21-2.5l-1.18-9.15c-.18-1.48-.34-3-.49-4.44-.12-1.17-.23-2.2-.36-3.37-.08-.74-.1-1.48-.11-2.22v-3.34a7.45 7.45 0 01.31-1.19c.08-.41.1-.85.19-1.26a2.2 2.2 0 01.29-.62.92.92 0 01.26-.22c.11-.15.34-.1.41-.14zM85 136.37c-.07 1.88-.12 2.11-.12 4 0 1.33.24 2.65.3 4 0 .89-.11 1.79-.1 2.69a9 9 0 00.23 2.38 4.3 4.3 0 01-1.16 4 .58.58 0 01-.46.07 2.35 2.35 0 01-1.16-2.68 10.22 10.22 0 00-.15-2.45c0-.11-.08-.22-.08-.33.09-2.1.16-4.21.29-6.31.06-.9.3-1.78.38-2.68s.06-2.09.1-3.14l.16-3.44c0-.69 0-1.39.06-2.08.12-1.78.24-3.56.41-5.33a51.05 51.05 0 00.58-5.33c0-1.13.6-1.14 1-1.5.55-.57 1 .09 1.19.68a3.56 3.56 0 01-.08 1.54c-.12.58-.45 1.1-.52 1.67-.16 1.33-.25 2.67-.32 4-.06 1 0 2-.06 3 0 .64-.09 1.28-.12 1.92l-.15 3.68a2.15 2.15 0 000 .26v1.13a1.27 1.27 0 01-.22.25zm-16.26-20.46c1 .24 1 .45.53 2-.53 1.93-.94 3.91-1.39 5.87-.25 1.09-.51 2.18-.71 3.27l-1 6q-.51 2.67-1.09 5.33c-.45 2.09-1 4.16-1.43 6.25-.21 1-.23 2-.42 3-.29 1.5-.65 3-1 4.5a1.58 1.58 0 01-2.12.91c-.89-.57-.19-2.77 0-3.62s.31-1.82.53-2.71c.33-1.34.71-2.66 1.07-4 .18-.68.39-1.35.54-2 .32-1.41.56-2.85.93-4.25.49-1.87 1.1-3.71 1.6-5.58.24-.91.4-1.86.55-2.79.21-1.33.31-2.68.59-4 .19-.92.64-1.77.88-2.68.36-1.31.69-2.63.93-4 .08-.75.58-1.62 1.01-1.5zm3.65 37.5c-.71 0-1.46-.28-1.51-1.61 0-.1.25-.41.29-.64q.45-2.85.84-5.72c.26-1.83.45-3.68.74-5.51.26-1.65.64-3.28.9-4.93.18-1.11.22-2.25.38-3.36l.92-5.85c.14-.94.26-1.88.32-2.82a4.93 4.93 0 011.11-3.07c.12-.14.43 0 .65 0s.15.12.24.15c.86.35.86.73.43 1.86a17.07 17.07 0 00-.9 3.58c-.36 2.61-.58 5.25-.89 7.87-.16 1.32-.43 2.61-.59 3.92l-.62 5.92c-.16 1.44-.42 2.87-.57 4.31-.08.8 0 1.61 0 2.42 0 .12-.1.23-.13.35a2.62 2.62 0 00-.12.62c-.04.24.32 2.83-1.49 2.51zm48.05-1.41s-.89.68-1.7-.53a6.41 6.41 0 010-1.24c-.26-1-1-4-1.23-5-.37-1.72-.71-3.45-1.11-5.17-.12-.52-.6-2.2-.74-2.73l-.55-2.47-.94-4.22c-.3-1.29-1.18-4.5-1.43-5.79-.17-.84-.58-1.93-1.13-4.4a6.8 6.8 0 01-.27-2.23 3.93 3.93 0 01.2-1.71c.14-.24.82-.13 1.1.15a5.59 5.59 0 01.74 1.53c0 .07.07.18 0 .21-.6 1.13-.07 2.36.28 3.58l2 7.3 1.7 5.55 1.17 4.13 1.57 5 1.34 4.84a7.61 7.61 0 00.51 1.33c.31.49-.41 1.59-1.51 1.87zM69.5 140c-.1 1.61-.15 3.23-.29 4.84-.1 1.08-.34 2.15-.49 3.23-.09.62-.09 1.26-.22 1.87-.19.94-1 .87-1.51.56s-1.45-.19-1.23-1.22c.18-.78.35-1.57.47-2.36s.11-1.31.22-2c.2-1.25.46-2.49.65-3.74.21-1.41.32-2.84.56-4.25.3-1.82.65-3.64 1-5.45.34-1.64.77-3.26 1.13-4.91.44-2 1.11-6.06 1.61-8.07a2.64 2.64 0 011-1.31c.21-.14.69.15.88.44a4.49 4.49 0 01.46 1.49c0 .06-.45.25-.58.48a4 4 0 00-.37 1.11c-.32 1.63-.88 5.26-1.21 6.89-.28 1.36-.65 2.7-.86 4.06-.34 2.19-.44 2.59-.72 4.79-.06.57-.22 1.86-.28 2.43-.05.02-.18 1.12-.22 1.12zm42.78 8.44l-.73-3.87c-.51-2.74-1.07-5.48-1.51-8.24-.31-1.88-.44-3.78-.7-5.67-.14-1-.37-2-.53-3-.2-1.25-1-4.85-1.15-6.1a16 16 0 01-.14-3 1 1 0 011-.73 2 2 0 01.75 1.25c-.48 1.8 1 5.93 1.18 7.71a38.19 38.19 0 001 4.08c.41 2 .64 4 1.07 6 .4 1.83 1 3.62 1.51 5.44.15.53.07 1.12.21 1.65.44 1.76.94 3.51 1.4 5.26a9.94 9.94 0 01.33 1.86 1.41 1.41 0 01-.94.3 3.12 3.12 0 01-2.75-2.94zm-49.79-35c.52-.06 1.12.12 1.1.31a4.73 4.73 0 01-.66 2.21 9.3 9.3 0 00-.66.89c-1.08 2-2.19 6.76-2.93 9-.63 1.92-2.52 7.86-3.1 9.81-.39 1.32-.53 2.73-.9 4.07-.48 1.74-1.1 3.44-1.65 5.16-.33 1-.6 2.12-1 3.14-.14.36-.56.63-.89.9-.13.11-.39.06-.52.17-.86.68-1.19-.26-1.41-.62a2.32 2.32 0 01.47-2.82 9.1 9.1 0 00.94-2.4c.79-2.08 1.63-4.15 2.36-6.24.4-1.16.62-2.38 1-3.55s2.23-6.4 2.66-7.61c.87-2.39 2.33-6.8 3.21-9.18.36-1 .83-1.9 1.27-2.83a.8.8 0 01.71-.41zm3.26 3.86c-.47 1.52-.39.73-.72 1.92-.44 1.58-1.27 5.14-1.6 6.75s-1.75 7-2.15 8.58-.83 5.1-1.24 6.8c-.29 1.21-.7 2.4-1.06 3.6-.27.93-.51 1.89-.83 2.81a5.32 5.32 0 01-.65 1.09c-.7.37-1.41.63-1.94-.3-.34-.59-.71-1.08-.24-1.84a12 12 0 00.82-2.27c.38-1 .81-2.06 1.16-3.11 1.09-3.29 3.17-12.32 4.24-15.61.43-1.36 1.27-4.7 1.65-6.08.21-.76.46-1.52.65-2.28a2.82 2.82 0 01.66-1.36c.22-.23.83-.08 1.06.21s.16.88.19 1.09zm-19.37 29.48c-.37-.31-.68-.78-1-.83-.74-.11-.5-.55-.66-.95-.29-.76.23-1 .51-1.44.77-1.35 1.83-4.87 2.56-6.27a15.27 15.27 0 001.08-2 39.66 39.66 0 011.61-4.34c.81-1.66 2.79-7.21 3.57-8.89s2.06-5.24 3.32-6.45c.27-.26.87-.53.91-.43a5.26 5.26 0 01.27 1.49c0 .11-.34.3-.47.5a8.93 8.93 0 00-.93 1.5c-.62 1.46-1.84 4.84-2.38 6.33s-2.28 7-2.8 8.53c-.42 1.26-.89 2.5-1.3 3.76-.54 1.68-1.63 5.3-2.24 6.94a13.11 13.11 0 01-1.55 2.5c-.1.04-.33.02-.5.05zm122.74-34.59l-4.12-2c-.49-.24-1-.51-1.44-.78l-2.28-1.26-2.2-1.21c-1.21-.64-2.44-1.26-3.63-1.94-.95-.55-1.85-1.21-2.81-1.75s-2.18-1.14-3.26-1.74c-.77-.43-1.49-1-2.26-1.38s-1.66-.75-2.42-1.22-1.6-1.13-2.4-1.68-1.93-1.23-2.79-1.92a5.14 5.14 0 01-1.06-1.31c-.07-.11.13-.49.31-.54a5.83 5.83 0 01.77-.15c.06 0 .7.2.71.2.6.21.47.7.8 1.05a4.16 4.16 0 00.93.71l3.08 1.65 5 2.75c1.33.74 2.64 1.53 4 2.23s3 1.39 4.53 2.13c1.83.91 3.61 1.92 5.44 2.84 1.57.77 3.17 1.48 4.78 2.17 1.15.49 2.36.85 3.49 1.38a1.13 1.13 0 01.51 1c-.38 1.33-1.28 1.68-2.64 1.14zM143 100.68c1.27.81 2.52 1.63 3.79 2.41 1.55 1 3.11 1.88 4.69 2.77s3.22 1.65 4.79 2.56c2 1.14 3.87 2.47 5.89 3.57 1.78 1 3.69 1.74 5.56 2.58.22.11.36.37.58.49a2.23 2.23 0 00.73.23c.27 0 .56-.07.78 0a2.93 2.93 0 01.79.58.3.3 0 010 .29c-.55.88-.71 2.18-1.88 2.45a2.43 2.43 0 01-1.62-.33c-1.67-1-3.3-2-4.93-3-.45-.29-.81-.73-1.26-1-2.15-1.35-4.33-2.67-6.47-4.05-.71-.46-1.34-1-2-1.5a43.14 43.14 0 00-3.86-2.26 30.83 30.83 0 01-3.71-2.44c-1.17-.79-2.34-1.59-3.49-2.42-.57-.42-1.06-.93-1.61-1.37-.34-.27-.72-.5-1.07-.77-.07 0-.07-.17-.12-.23-.54-.7-.54-.87-.4-1.23A5.91 5.91 0 01140 98c.29.14.71.41.75.59.25 1.04 1.44 1.41 2.25 2.09zm-2.1-11.81c.19-.56 1.21-.57 2.06-.12s1.61.64 2.4 1 1.47.76 2.24 1.05c1.6.59 3.22 1.14 4.84 1.67l7.26 2.35c1.53.49 3.07 1 4.6 1.47 1.29.44 2.54 1 3.84 1.39s4.4 1.22 5.75 1.64a17.47 17.47 0 013.56 1.51c.27.16.29 1.22.07 1.7a1.5 1.5 0 01-1.37.58c-1.84-.53-5.24-1.84-7-2.51-1-.36-1.9-.82-2.86-1.17-.59-.21-1.22-.28-1.82-.44-.39-.11-.76-.27-1.14-.4l-5.79-2.16-4.27-1.61-6.95-2.75c-1.25-.5-2.48-1-3.73-1.52-.99-.37-1.86-1.2-1.69-1.68zm-5.51 10.91a14.22 14.22 0 011.51.44c.43.19 1.19.22 1.13 1 0 .17.67.67 1.07 1l4.45 3.25 5.32 4q2.65 1.93 5.37 3.8c1.71 1.17 3.47 2.27 5.2 3.41.89.59 1.75 1.23 2.61 1.86.69.51 1.38 1 2.06 1.56a18 18 0 011.66 1.34c.44.42.4.93-.31 1.32a3.46 3.46 0 00-.39.36c-.87 1-1.51.7-1.61.63-.53-.4-.36-.91-.57-1.08-1.46-1.2-3-2.35-4.47-3.5l-2.89-2.13-2.94-2.34-3.32-2.53-1.87-1.48c-.75-.57-1.52-1.1-2.25-1.68l-4.76-3.9-3.87-3c-.23-.18-.63-.38-.68-.52-.66-.8-.95-1.38-.45-1.81zm-1.15 5.35c.59.82 1 1.44 1.42 2s.77.77 1.11 1.19c.84 1 1.6 2.12 2.45 3.16.43.53 1.06.92 1.56 1.42l2.59 2.74 7.48 7.47c1.39 1.4 2.73 2.85 4.1 4.27.42.45.94.81 1.34 1.28s1.14 1.11 1 1.65c-.21 1-1.16 1.41-2.31 1.64-1.46.29-1.24-.47-1.21-1.29 0-.1 0-.25-.1-.26-1.05-.28-1.15-1.43-1.91-2a17.44 17.44 0 01-2.41-2.66l-1.71-2a12 12 0 00-1.77-1.93 26.42 26.42 0 01-2.74-3.23c-1.15-1.33-2.32-2.63-3.43-4-1.6-2-3.13-4-4.78-5.87a6.86 6.86 0 01-1.9-3.77c0-.11.06-.25.12-.23zm7.43-13.49c.18-.31.51-.19 1.5.34a24.75 24.75 0 002.92 1.83c.4.15.78.36 1.18.53 1.22.51 2.49 1 3.7 1.53.88.4 1.8.71 2.68 1.11.64.29 1.21.72 1.85 1 2.28 1 4.55 2 6.86 2.91 2.06.8 4.22 1.32 6.27 2.12 1.82.72 3.54 1.69 5.3 2.54.16.08.38 0 .53.38a1.1 1.1 0 010 1.07c-.51 1-1.47 1.08-2.72.48-1.68-.79-3.4-1.5-5.09-2.26-.76-.35-1.49-.77-2.25-1.1l-8.47-3.67c-1.36-.6-2.71-1.23-4.06-1.86l-3.07-1.42c-.68-.31-1.33-.67-2-1-1-.55-1.94-1.1-2.88-1.69a8.65 8.65 0 01-.89-.82c-.32-.27-.69-.51-1-.78a2.24 2.24 0 01-.41-.52 1.11 1.11 0 01-.08-.3c-.01-.2.13-.34.13-.42zm7.04 23c1.41 1.25 1.56 1.44 3 2.62 1 .84 2.23 1.48 3.31 2.26.72.52 1.32 1.21 2 1.76a8 8 0 002 1.28c1.17.42 2.54 2.17 2.29 3.55a.8.8 0 01-.31.47 2.25 2.25 0 01-3-.67 9 9 0 00-2-1.44c-.09-.07-.23-.07-.31-.15-1.54-1.43-3.09-2.86-4.59-4.33-.64-.64-1.15-1.4-1.78-2s-1.55-1.41-2.31-2.13l-2.51-2.36c-.51-.48-1-.92-1.53-1.41-1.27-1.25-2.55-2.5-3.78-3.78s-2.38-2.7-3.72-3.85c-.85-.75-.57-1.1-.68-1.53-.17-.67.54-.48 1.08-.26a4.39 4.39 0 011.16 1c.39.44.64 1 1 1.39.94.94 1.93 1.85 2.92 2.75.74.67 1.52 1.28 2.28 1.94.48.42.94.87 1.42 1.29l2.75 2.44.18.19.41.39.41.4a1 1 0 01.31.18zM124 110.52c.83-.38 1-.21 1.63 1.25.83 1.81 1.8 3.59 2.71 5.38.51 1 1 2 1.55 3l3 5.25q1.34 2.37 2.6 4.79l2.89 5.71c.47.89 1.13 1.69 1.62 2.57.74 1.35 1.42 2.73 2.11 4.1a1.7 1.7 0 01-1.17 2.12c-1.11.17-1.94-2-2.34-2.76s-.91-1.6-1.31-2.43c-.59-1.24-1.13-2.52-1.7-3.77-.28-.64-.55-1.29-.86-1.91-.66-1.3-1.39-2.56-2-3.88-.8-1.76-1.5-3.57-2.31-5.33-.39-.86-.87-1.69-1.34-2.51-.69-1.16-1.46-2.26-2.07-3.45-.43-.83-.65-1.77-1-2.63-.56-1.24-1.15-2.47-1.8-3.66-.38-.69-.57-1.68-.21-1.84zm27.49 25.74a1.51 1.51 0 01-2.36 0c-.07-.07-.07-.48-.2-.68q-1.59-2.42-3.22-4.8c-1.05-1.52-2.15-3-3.17-4.56s-1.74-2.86-2.66-4.25c-.63-.94-1.36-1.81-2-2.74l-3.29-4.93c-.52-.78-1.07-1.55-1.66-2.29a5.54 5.54 0 01-1.33-3c0-.18.26-.27.42-.38s.18 0 .25 0c.8-.25 1 0 1.54 1.11a19.62 19.62 0 001.85 3.18c1.53 2.15 3.18 4.22 4.75 6.34.79 1.06 1.48 2.19 2.26 3.25 1.18 1.6 2.43 3.15 3.62 4.73.87 1.16 1.65 2.38 2.53 3.53.49.63 1.11 1.18 1.66 1.77.08.09.08.24.14.35a2.69 2.69 0 00.33.54c.16.12 2.27 1.72.54 2.83zM181 91.19s.22 1.17-1.24 1.37a7.64 7.64 0 01-1.12-.53c-1-.24-4-.92-5-1.19-1.71-.44-3.41-.93-5.12-1.35-.52-.13-2.24-.46-2.77-.58l-2.45-.62-4.19-1.08c-1.29-.31-4.55-1-5.82-1.34-.82-.23-2-.36-4.43-1a7.47 7.47 0 01-2.12-.75 4.17 4.17 0 01-1.47-.92c-.15-.21.22-.72.59-.84a5.79 5.79 0 011.7 0 .38.38 0 01.21 0c.76 1 2.1 1.07 3.34 1.3l7.45 1.44 5.72 1 4.22.78 5.15.81 4.94.95a6.67 6.67 0 001.41.13c.59.04 1.26 1.23 1 2.42zm-40.94 37.24c1 1.28 2 2.52 3 3.82.65.87 1.17 1.84 1.76 2.75.34.52.77 1 1.08 1.54.48.83-.24 1.34-.86 1.47s-1.34.86-1.83-.08c-.38-.7-.76-1.41-1.18-2.09s-.77-1.07-1.12-1.63c-.66-1.07-1.26-2.19-1.93-3.26s-1.61-2.36-2.35-3.58c-.95-1.58-1.87-3.19-2.76-4.81l-2.34-4.47c-1-1.83-3.1-5.32-4-7.16a2.75 2.75 0 01-.19-1.58c0-.24.55-.3.87-.19a5.1 5.1 0 011.28.87c.05 0-.15.45-.08.71a4 4 0 00.47 1.06c.84 1.44 2.81 4.53 3.64 6 .69 1.2 1.3 2.45 2 3.62 1.18 1.87 1.37 2.23 2.61 4.07l1.39 2s.58.91.54.94zM174 97.19L170.26 96c-2.66-.85-5.34-1.65-8-2.56-1.8-.62-3.55-1.39-5.34-2-.95-.35-1.93-.62-2.89-.94-1.19-.4-4.75-1.39-5.92-1.84a18 18 0 01-2.74-1.26.94.94 0 01-.24-1.11 2 2 0 011.44-.06c1.4 1.2 5.74 1.82 7.4 2.49a37.67 37.67 0 004.06 1c2 .57 3.88 1.31 5.85 1.84 1.81.5 3.69.77 5.53 1.18.53.11 1 .46 1.55.58 1.77.43 3.55.78 5.32 1.17a9.23 9.23 0 011.8.58 1.57 1.57 0 01-.18 1 3 3 0 01-3.9 1.12zm-56 15.15c.37-.36.94-.57 1-.41a5 5 0 01.85 2.14 10.12 10.12 0 000 1.1c.42 2.26 2.48 6.65 3.29 8.86.69 1.9 2.89 7.73 3.65 9.61.51 1.29 1.28 2.48 1.82 3.76.7 1.66 1.27 3.38 1.91 5.07.38 1 .84 2 1.17 3.07a2.71 2.71 0 01-.15 1.27c0 .16-.28.29-.32.45-.26 1.08-1.11.54-1.51.39a2.31 2.31 0 01-1.38-2.51 8.68 8.68 0 00-.75-2.46c-.66-2.13-1.28-4.26-2-6.37-.4-1.16-1-2.25-1.4-3.4l-2.63-7.63c-.83-2.4-2.33-6.79-3.16-9.19-.32-1-.52-2-.76-3a.81.81 0 01.37-.75zm4.76 1.07c.6 1.47.17.8.66 1.93.65 1.5 2.24 4.8 3 6.26s3 6.55 3.71 8 2.58 4.5 3.33 6.08c.54 1.12 1 2.3 1.43 3.45.38.91.79 1.8 1.12 2.71a5.24 5.24 0 01.16 1.26c-.33.74-.74 1.4-1.77 1-.64-.24-1.25-.38-1.35-1.27a12.34 12.34 0 00-.77-2.29c-.35-1.05-.65-2.12-1-3.16-1.2-3.25-5.21-11.61-6.43-14.84-.52-1.33-1.94-4.47-2.5-5.78-.32-.73-.6-1.47-.92-2.19a3 3 0 01-.37-1.5c0-.31.56-.56.9-.48s.65.67.8.82zm3.24 35.08c-.47 0-1-.21-1.32 0-.64.37-.71-.11-1.08-.33-.69-.4-.41-.88-.5-1.44-.23-1.54-1.57-4.95-1.87-6.51a17.44 17.44 0 00-.42-2.27 40.31 40.31 0 01-1.43-4.4c-.39-1.82-2.28-7.39-2.71-9.2s-1.63-5.4-1.37-7.12c.06-.37.36-.94.46-.89a5.11 5.11 0 011.14 1c.07.08-.08.44-.06.68a9.37 9.37 0 00.19 1.75c.41 1.52 1.55 4.94 2 6.44s2.52 6.88 3.08 8.44c.45 1.25.85 2.51 1.31 3.76.61 1.65 2 5.17 2.52 6.84a12.73 12.73 0 01.33 2.91c.03.09-.17.21-.27.34zm38.92-118.02l-3.65 2.76c-.44.32-.9.62-1.35.92l-2.17 1.44-2.09 1.41c-1.13.77-2.24 1.58-3.4 2.32-.93.59-1.92 1.09-2.85 1.69s-2 1.41-3 2.09c-.74.48-1.53.88-2.26 1.37s-1.43 1.12-2.2 1.59-1.74.9-2.6 1.36-2 1.15-3 1.6a6.48 6.48 0 01-1.68.4c-.13 0-.35-.27-.3-.41a5.29 5.29 0 01.3-.66c0-.05.51-.51.52-.53.47-.43.74-.17 1.19-.34a6.28 6.28 0 001.05-.56l2.85-2 4.7-3.21c1.27-.85 2.56-1.66 3.8-2.55s2.61-2.07 3.95-3.07c1.64-1.22 3.35-2.34 5-3.56 1.41-1 2.76-2.16 4.1-3.29 1-.81 1.82-1.73 2.78-2.51a1.2 1.2 0 011.21.06c1.11 1 1 2-.1 3zm-22.25 17.99c1.3-.76 2.6-1.49 3.88-2.27 1.55-.95 3.08-1.91 4.59-2.91s2.94-2.11 4.47-3.08c1.93-1.24 4-2.32 5.88-3.59 1.69-1.13 3.23-2.47 4.84-3.72.19-.15.49-.16.7-.3a2.13 2.13 0 00.54-.54c.15-.21.2-.52.38-.68a3.25 3.25 0 01.88-.42c.06 0 .21.05.25.12.56.86 1.55 1.47 1.25 2.58a2.57 2.57 0 01-1.05 1.24c-1.61 1.06-3.27 2-4.93 3-.46.28-1 .41-1.46.69l-6.52 4c-.72.44-1.53.73-2.25 1.18a36.7 36.7 0 00-3.75 2.46 28.76 28.76 0 01-3.82 2.25c-1.23.69-2.46 1.4-3.72 2.05-.62.32-1.31.52-2 .8-.4.18-.78.42-1.17.61h-.27c-.9.11-1.06 0-1.35-.32a4.86 4.86 0 01.76-1.76 1.73 1.73 0 01.88-.4c1.17.28 1.99-.65 2.99-.99zm-10.26-1.94c-.29-.23.13-1.12.82-1.79s1.15-1.3 1.74-1.93 1.19-1.15 1.73-1.77c1.12-1.28 2.2-2.6 3.28-3.92 1.61-2 3.19-4 4.77-5.95 1-1.26 2-2.54 3-3.79.87-1.05 1.83-2 2.66-3.1s2.65-3.71 3.52-4.83a14.51 14.51 0 012.7-2.78c.25-.19 1.41.27 1.85.75a1.69 1.69 0 01.18 1.64c-1.16 1.52-3.67 4.18-5 5.59-.69.76-1.49 1.43-2.17 2.2-.42.46-.71 1-1.09 1.53-.24.32-.53.6-.8.9l-4.21 4.52-3.12 3.33-5.2 5.38c-.93 1-1.89 1.9-2.81 2.87-.67.74-1.63 1.35-1.85 1.15zm6.51 9.01a8.85 8.85 0 01.92-1.35c.33-.34.6-1.12 1.39-.58.17.11.91-.29 1.35-.53l4.81-2.68 5.82-3.17q2.88-1.59 5.71-3.26c1.78-1.05 3.52-2.17 5.3-3.23.91-.55 1.85-1 2.79-1.56L169.3 38c.64-.33 1.26-.69 1.92-1s1 0 1 .64a3.08 3.08 0 00.12.42c.4 1-.1 1.41-.21 1.47-.58.33-.93.05-1.17.17-1.68.87-3.34 1.77-5 2.69l-3.11 1.79-3.34 1.82-3.64 2-2.1 1.13c-.81.47-1.6 1-2.43 1.42l-5.46 2.83c-1.44.77-2.86 1.59-4.29 2.39-.26.14-.58.47-.74.43-.85.29-1.61.2-1.93-.67zm5.08 4.23c1-.28 1.66-.43 2.34-.65.51-.16 1-.45 1.5-.62 1.28-.43 2.58-.76 3.85-1.2.65-.22 1.23-.67 1.86-.95l3.45-1.47 9.61-4.38c1.79-.81 3.62-1.55 5.43-2.34.56-.24 1.08-.61 1.66-.81s1.43-.68 1.92-.38a2.36 2.36 0 01.79 2.71c-.28 1.46-.9 1-1.64.67-.09 0-.24-.05-.28 0-.64.89-1.74.58-2.56 1.09a19 19 0 01-3.34 1.32l-2.5.89a12.23 12.23 0 00-2.43 1 24.68 24.68 0 01-4 1.44c-1.64.61-3.27 1.25-4.93 1.82-2.38.81-4.8 1.55-7.16 2.42a9.92 9.92 0 01-2.27.57 6 6 0 01-2-.12c-.11 0-.24-.13-.2-.17.37-.33.71-.6.9-.84zm-9.38-13.48c-.13-.2.11-.44 1-1.17s1.89-1.18 2.77-2c.3-.3.64-.57 1-.86 1-.91 1.93-1.85 2.92-2.74.72-.64 1.39-1.35 2.12-2 .52-.46 1.14-.82 1.66-1.28 1.85-1.67 3.72-3.31 5.48-5.05 1.58-1.54 2.91-3.32 4.47-4.88 1.39-1.38 3-2.52 4.52-3.77.14-.11.16-.35.58-.31a1.42 1.42 0 011.11.58c.82 1.05.51 2-.57 2.87-1.45 1.16-2.82 2.42-4.24 3.61-.64.54-1.35 1-2 1.55-2.32 2-4.64 4-7 6-1.14 1-2.3 1.9-3.45 2.83l-2.63 2.15c-.57.46-1.18.9-1.79 1.32L137.81 45a11.43 11.43 0 01-1.06.51c-.36.2-.72.45-1.07.64a3.12 3.12 0 01-.59.23.55.55 0 01-.25 0c-.14.05-.16-.09-.22-.1zM158 49.51c1.68-.87 1.91-.94 3.54-1.87 1.16-.65 2.19-1.51 3.32-2.2.76-.47 1.62-.79 2.39-1.24a9.41 9.41 0 002-1.35 4.58 4.58 0 014.05-1 .48.48 0 01.27.32 2 2 0 01-.09.74 2.24 2.24 0 01-.34.77 2.53 2.53 0 01-1.29.93 8.74 8.74 0 00-2.08 1.39c-.09.06-.14.2-.24.24-1.88.95-3.75 1.92-5.66 2.82-.81.38-1.7.58-2.52 1s-1.86 1-2.79 1.43L155.47 53c-.62.31-1.22.66-1.85.95-1.61.76-3.22 1.53-4.85 2.25s-3.34 1.3-4.89 2.16a1.66 1.66 0 01-1 .28c-.2 0-.46-.24-.7-.3-.79-.24-.47-1-.06-1.47a3.09 3.09 0 011.38-.68c.57-.17 1.2-.12 1.73-.34 1.24-.5 2.45-1.09 3.65-1.68.9-.44 1.75-1 2.63-1.42.57-.3 1.16-.56 1.73-.85l3.27-1.68a.77.77 0 00.24-.1l.52-.23.52-.24zm-12.89 20.85c0-.82.16-.86 1.77-.92 2-.07 4-.26 6-.39 1.11-.08 2.23-.15 3.34-.26l6-.71c1.81-.19 3.61-.36 5.42-.5l6.4-.41c1-.08 2-.37 3-.48 1.52-.16 3.06-.23 4.6-.32a1.49 1.49 0 011.16.67 1.74 1.74 0 01.32 1.35c-.31 1.14-2.61 1-3.48 1.08s-1.84.2-2.76.23h-6.23c-1.44.08-2.89.24-4.34.26h-5.8c-1 0-1.9.13-2.84.24-1.34.16-2.66.42-4 .51-.93.06-1.87-.12-2.81-.1-1.36 0-2.72.07-4.07.2-.72.12-1.69-.08-1.68-.45zm34.17-15.76a1.64 1.64 0 01-.91 2.32c-.09 0-.48-.13-.71-.08q-2.82.6-5.64 1.26c-1.8.42-3.59.91-5.4 1.3-1.63.35-3.29.58-4.92.94-1.1.24-2.17.61-3.27.86l-5.78 1.29c-.92.21-1.84.44-2.73.72a5.88 5.88 0 01-3.21.22c-.16 0-.16-.29-.22-.45s.06-.15.06-.22c0-.7.35-.86 1.55-1a22.15 22.15 0 003.64-.67c2.55-.68 5.07-1.49 7.61-2.23 1.26-.36 2.57-.62 3.84-1 1.91-.54 3.79-1.17 5.7-1.72 1.38-.41 2.8-.72 4.19-1.14a24 24 0 002.23-.94c.1-.05.25 0 .37 0a2.21 2.21 0 00.63-.13c.21-.04 2.4-1.51 2.97.67zM148.14 9.85s.93.05.58 1.44a8.21 8.21 0 01-.8.94c-.54.9-2.1 3.53-2.66 4.42l-2.84 4.45c-.28.46-1.13 2-1.4 2.46l-1.35 2.14-2.32 3.65c-.7 1.12-2.34 4-3.08 5.11-.48.71-.94 1.77-2.3 3.91a5.77 5.77 0 01-1.44 1.74 3.34 3.34 0 01-1.49 1c-.28.06-.92-.64-.61-.85.15-.37.5-1 .75-1.5a1.39 1.39 0 01.11-.19c.37-.32.67-.8 1.1-1.26a16 16 0 001-1.61l3.86-6.53 2.83-5.06 2.15-3.72c.85-1.52 1.62-3.08 2.44-4.62.47-.89 2-3.47 2.52-4.35a4.67 4.67 0 00.52-1.33c0-.3.56-.42 1.16-.39a1.76 1.76 0 011.27.15zm19.71 52.77c1.54-.44 3.08-.95 4.64-1.36 1-.28 2.14-.39 3.2-.6.62-.13 1.22-.35 1.84-.43.93-.13 1.23.79 1.07 1.43s.26 1.65-.79 1.75c-.8.07-1.59.15-2.38.27s-1.29.32-1.94.42c-1.25.2-2.5.32-3.75.53-1.41.24-2.8.58-4.22.79q-2.75.4-5.5.7l-5 .45c-2.06.21-6.1.82-8.15 1a2.72 2.72 0 01-1.5-.38c-.18-.13 0-.56.15-.78a5.16 5.16 0 011.25-.79c.06 0 .39.26.66.29a4.61 4.61 0 001.16-.06c1.65-.24 5.26-.91 6.91-1.14 1.38-.19 2.77-.29 4.13-.53 2.18-.39 2.58-.43 4.75-.89l2.39-.53c-.01.05 1.06-.19 1.08-.14zm-16.11-44.16l-2.36 3.15c-1.67 2.23-3.32 4.49-5 6.68-1.19 1.49-2.49 2.87-3.69 4.35-.63.78-1.21 1.62-1.83 2.42-.77 1-2.87 4-3.67 5a20.63 20.63 0 01-2 2.21.58.58 0 01-.25.12c-.1 0-.21 0-.25.07s-.19 0-.18 0a3.34 3.34 0 01.25-.59c.11-.29.17-.62.3-.67 1.23-1.22 3.3-5.05 4.35-6.49.84-1.07 1.42-2.4 2.17-3.58 1.11-1.72 2.39-3.34 3.49-5.06s1.79-3.31 2.68-5c.26-.48.78-.82 1.05-1.3.91-1.57 1.71-3.2 2.57-4.8a5.78 5.78 0 011.1-1.54 1.46 1.46 0 01.6.21 3.07 3.07 0 01.73.55l.28.35a3.09 3.09 0 01.17.29 3 3 0 01.25.56 2.85 2.85 0 01.18 1.06 3.38 3.38 0 01-.94 2.01zm-7.46 57.66c-.2-.45-.18-1 0-1a5.26 5.26 0 012.3.12 9.1 9.1 0 001 .39c2.25.53 7.08.53 9.43.71 2 .16 8.24.61 10.27.71 1.38.08 2.77-.12 4.16-.08 1.8.06 3.6.26 5.41.39 1.09.08 2.19.08 3.28.23a2.85 2.85 0 011.1.69c.14.11.15.4.29.51.88.72.05 1.3-.28 1.6a2.24 2.24 0 01-2.87.2 8.68 8.68 0 00-2.55-.37c-2.2-.32-4.39-.67-6.6-.91-1.21-.13-2.46-.06-3.68-.18l-8-.86-9.66-1c-1-.13-2-.37-3.06-.56a.85.85 0 01-.54-.59zm2.93-3.63c1.59.05.81.16 2 .17 1.64 0 5.3-.09 6.94-.19s7.22-.11 8.84-.13 5.14-.53 6.89-.58c1.24 0 2.5.06 3.75.1 1 0 2 0 2.93.09a5.06 5.06 0 011.22.38c.56.63 1 1.32.22 2.12-.5.51-.89 1-1.74.73a11.74 11.74 0 00-2.39-.25c-1.1-.12-2.2-.3-3.3-.38-3.45-.25-12.72 0-16.17-.26-1.42-.09-4.87-.08-6.3-.11-.79 0-1.58-.07-2.37-.07a3.11 3.11 0 01-1.5-.26.76.76 0 01-.09-.95c.23-.23.86-.34 1.07-.41zm33.16 11.84c-.22.44-.61.86-.58 1.24.07.78-.43.62-.79.87-.68.46-1 0-1.51-.18-1.48-.47-5.14-.76-6.67-1.19a15.39 15.39 0 00-2.21-.61 41.24 41.24 0 01-4.61-.66c-1.8-.44-7.64-1.19-9.45-1.6s-5.56-.9-7-1.84c-.31-.2-.71-.7-.63-.75a5 5 0 011.39-.55c.1 0 .37.25.59.33a9.2 9.2 0 001.68.56c1.56.29 5.12.74 6.7 1s7.28.71 8.93.87c1.32.14 2.63.33 4 .45 1.75.16 5.52.43 7.26.67a12.09 12.09 0 012.77 1c.04-.02.06.22.13.39z" fill="currentColor"/></svg>