<svg xmlns="http://www.w3.org/2000/svg" viewBox="0 0 147.14 119.8"><path d="M128.15 25c.27.2.32.38.58.62s.59.39.79.57c.4.35.87.62 1.25 1a37.92 37.92 0 013.1 3.24 2.09 2.09 0 01.24.28l.55.66c.25.3.49.61.73.92a46.42 46.42 0 012.68 3.85l.37.63.13.2a60.29 60.29 0 012.82 5.77 47 47 0 011.81 6.14 39.31 39.31 0 011 8.84 54.22 54.22 0 01-.38 7.19c0 .17-.13.87-.25 1.78-.07.46-.14 1-.21 1.49s-.23 1-.35 1.54c.91.3 1.89 0 2.78.33a49.38 49.38 0 00.59-20 42.58 42.58 0 00-1.54-6l-.49-1.48a9.33 9.33 0 00-.56-1.44l-1.3-2.83a39.6 39.6 0 00-3.12-5.34c-.6-.84-1.2-1.68-1.84-2.49-.31-.41-.65-.8-1-1.2l-.37-.44c-.85-1-1.72-1.93-2.64-2.84a42.19 42.19 0 00-2.75-3.28 2 2 0 00-1-.5c-.36-.06-.4-.16-.58-.13a1.24 1.24 0 00-.64.51c-.55.68-.95 2-.4 2.41zm-1.38 72.71l-.56.55a14.85 14.85 0 01-1.35 1.23c-1.09.88-2.34 2-3.21 2.62l-.74.51c-1.17.78-2.45 1.79-3.88 2.63a67.41 67.41 0 01-12.39 6.14c-2.15.87-4.38 1.51-6.58 2.21s-4.48 1.2-6.77 1.62A97.12 97.12 0 0177.47 117a118.21 118.21 0 01-14 0 108.06 108.06 0 01-19.38-2.72 81.23 81.23 0 01-16.46-5.79 50.8 50.8 0 01-14.07-9.89c-.92-1-1.75-1.91-2.53-2.84s-1.5-1.86-2.15-2.91a29.38 29.38 0 01-2-3.42l-1-2c-.26-.79-.55-1.59-.88-2.43-.12-.38-.31-.77-.42-1.23s-.25-.94-.38-1.45l-.41-1.57c-.12-.54-.19-1.1-.29-1.66s-.17-1.09-.26-1.66-.1-1.09-.16-1.61c-.06-1-.21-2-.2-2.76a53.25 53.25 0 01.24-7.2c.14-1.07.26-2.15.44-3.32s.45-2.4.8-3.81a68.14 68.14 0 0119.78-32.92 70.5 70.5 0 018-6.47 102.93 102.93 0 0113.52-8 70.78 70.78 0 0113.55-5.25 92.14 92.14 0 0126-3.43 87 87 0 0110.23.83c.84.09 1.66.27 2.48.4s1.64.27 2.45.46l2.43.54 1.79.47a31 31 0 013 1 16.15 16.15 0 001.77.69 25.45 25.45 0 014.23 1.76c.61.29 2.26.57 2.63.24s.19-.56.4-.77c.48-.47 0-1.86-.93-2.22s-1.88-.71-2.83-1-2-.8-3-1.06c-.8-.21-1.67-.22-2.43-.5a8.74 8.74 0 00-1.24-.34l-.54-.16-.32-.1h-.2L104 2.48A82.13 82.13 0 0078 .19a91.05 91.05 0 00-53.3 21.4 72.79 72.79 0 00-21 30.06A60.38 60.38 0 00.56 63.89a48.06 48.06 0 00-.25 12.68 42.44 42.44 0 003.33 12.29 39.27 39.27 0 007 10.61c5.78 6.29 13.25 10.71 21 13.73A99.27 99.27 0 0056 118.93a124.06 124.06 0 0024.9.45 96.28 96.28 0 0015.29-2.62 85.38 85.38 0 0014.53-5c.48-.22 1-.43 1.53-.7l.25-.13a63.76 63.76 0 009-5.29A61.92 61.92 0 00136 91.31c0-1.4-.24-3.12-1.06-3.48-.24.37-.46.74-.71 1.08l-.76 1-1.6 2.18a50.92 50.92 0 01-5.1 5.62z" fill="currentColor"/><path d="M131.13 27.23a8.15 8.15 0 01.76.83c.32.39.9 1.13 1.23 1.5s.54.57.78.81l.18.19.09.1.48.57c.77.9 1.53 1.91 2.37 3.08a43.86 43.86 0 012.52 4.08c.71 1.43 1.36 2.89 2 4.34.48 1.53 1.07 3 1.46 4.57l.51 2.34.26 1.18c.08.39.1.79.15 1.19a48.92 48.92 0 01-1.31 19.14 53.85 53.85 0 01-3.57 9.53 70.66 70.66 0 01-8.49 13c-.8.91-1.49 1.87-2.32 2.68l-2.44 2.48a52.09 52.09 0 01-5.85 4.61l-1.35.93c-.46.3-.93.56-1.4.85-.94.55-1.86 1.14-2.81 1.67-1.94 1-3.84 2.07-5.86 2.91s-4 1.66-6.09 2.46-4.18 1.39-6.34 1.89a94.89 94.89 0 01-21.59 3 112.36 112.36 0 01-18-.68 12.86 12.86 0 013.23 2.57 137 137 0 0014.61.69h.43c1.11 0 2.22-.07 3.36-.12a89.55 89.55 0 0025.63-5 77.2 77.2 0 0013.24-6.09 61 61 0 0011.75-8.82l1.32-1.29.66-.64.61-.7 2.43-2.78a67.85 67.85 0 004.26-6 36.18 36.18 0 001.88-3.17c.56-1.09 1.18-2.15 1.7-3.26l1.48-3.37c.49-1.12.83-2.31 1.25-3.45a52.15 52.15 0 002.77-18.48 44.38 44.38 0 00-4.44-18 42.73 42.73 0 00-5.58-8.77l-.92-1.11-.27-.31-.54-.61c-.72-.8-1.47-1.59-2.24-2.35a4.2 4.2 0 01-1.99 1.81zm-19.64-14.72a.93.93 0 01.63-.85 1.49 1.49 0 011.48.23 25.42 25.42 0 003.76 1.89c.68.35 1.34.76 2 1.16s1.34.77 2 1.13c1 .51 2.15 1.54 3.27 1.79a2.11 2.11 0 011.66 2.19 1.72 1.72 0 01-.76 1.21c-.8.53-1.92-.16-2.61-.6s-.94-1.15-1.66-1.61c-.35-.22-.65-.53-1-.77-.61-.44-1.23-.84-1.87-1.24s-1.25-.82-1.89-1.2-1.09-.89-1.67-1.3-1.35-.45-2-.8c-.33-.25-1.33-.74-1.34-1.23zm-3.96-3.89c.49.16 1.86.81 1.64 1.48a1.45 1.45 0 01-.7.68 13 13 0 01-1.31.74 1.61 1.61 0 01-.74.2c-.67 0-1.24-.63-1.85-.86-1.09-.38-1.94-1.29-3-1.8s-2.28-.51-2.63-1.72a2.6 2.6 0 011.41-.48c2.3.43 4.59 1 6.87 1.66a2.75 2.75 0 01.31.1zM92.54 4.66a2.54 2.54 0 011.27.57c.89.81.7 2.6-.73 2.48A10.58 10.58 0 0190.83 7c-.53-.17-2.32-.9-1.68-1.56A5.49 5.49 0 0192 4.63a2.82 2.82 0 01.54.03zM81 5.21v-.08c-.16-1.4 2.23-2.23 3.22-1.36a1.81 1.81 0 01-.15 2.71c-.84.46-2.85-.21-3.07-1.27z" fill="currentColor"/></svg>