<svg xmlns="http://www.w3.org/2000/svg" viewBox="0 0 206.45 134.57"><path d="M11.25 52.21l.86.22c1 .29 1.63.38 2.59.7a22.7 22.7 0 012.87 1.45c.39.21 1.1.33 1.37.71a.76.76 0 01.08.64.74.74 0 00.13-.21c.09-.2-.13-.46-.32-.61-1.22-1-2.49-1.54-3.68-2.61L13.54 51a11.54 11.54 0 01-2.8-3.47 6.05 6.05 0 01-.27-3.28 11.23 11.23 0 01.85-2.44 15.41 15.41 0 011.42-2.54 4.6 4.6 0 012.12-1.79 9.75 9.75 0 012.73-1 5.86 5.86 0 012.09.32c.65.23 1.32.26 2 .46a8.51 8.51 0 012.69 1.59c1.07.84 2 2 3.07 2.75a2.07 2.07 0 002.54 0c.74-.57-.78-2.28-1.66-3.31l-.19-.13a12.12 12.12 0 01-1-1.4 12.63 12.63 0 01-1.76-4.23 8.3 8.3 0 01.23-4.35c.16-.36.51-.66.68-1a5.71 5.71 0 011.66-2 12.54 12.54 0 012.22-1.26 6.32 6.32 0 015.55.05 11.72 11.72 0 012.24 1.12 13.11 13.11 0 013.2 4.13c.4.66 1.2 2.12 2 1.94a1.34 1.34 0 001.13-1.64c-.15-.5-.44-.92-.6-1.4S43 27 42.92 26.48c-.29-1.35-1-2.71-1.14-4.08a9.38 9.38 0 010-2 4.42 4.42 0 011-2.26 13.81 13.81 0 011.7-1.8c1-.79.71-1 1.76-1.72a7 7 0 014.47-1 11.3 11.3 0 013 .53 17 17 0 013.71 2.25c2 1.58 2.19 3.88 3.28 6 .36.71 1.37 1.31 1.95.67a2.81 2.81 0 00.64-1.68 7.8 7.8 0 00-.29-1.34 8.64 8.64 0 01-.21-2.71c.18-1-.22-3.41.06-4.42a10.08 10.08 0 011.1-2.58 13.44 13.44 0 011.33-2C66.64 6.86 69 6.23 71 5.8a6.16 6.16 0 013.26.39c1.06.49 2.22 2.76 2.94 3.66a7.15 7.15 0 01.92 2c.33.81.66 1.61 1 2.42s.25 1.65.58 2.41a1.73 1.73 0 001.07 1 1.11 1.11 0 00.51 0 1.64 1.64 0 01-1.14-1.3 38.3 38.3 0 01-.5-4.63 13.73 13.73 0 01.27-2.56A13.73 13.73 0 0077.26 5a7.65 7.65 0 00-6.42-1.4c-1.55.42-2.41.24-3.87 1a12 12 0 00-2.91 2.11 12.31 12.31 0 00-2.12 2.87 19.77 19.77 0 00-1.18 3.76c-.23 1 .28 2.26.14 3.24a.25.25 0 000 .12.73.73 0 01-.09-.08 27.42 27.42 0 00-1.94-2.23 16.25 16.25 0 00-2.63-2 9.69 9.69 0 00-2.58-1 7.1 7.1 0 00-2.82-.45 21.31 21.31 0 00-3.35.78 11.13 11.13 0 00-3.08 1.51 13.64 13.64 0 00-2.37 2.08 13.42 13.42 0 00-1.71 2.62 7.87 7.87 0 00-.92 2.34 14 14 0 00.1 2.73.49.49 0 010 .2l-.19-.1a26.92 26.92 0 00-3.83-1.93 10.62 10.62 0 00-6.25.68 12.36 12.36 0 00-3 1.66 7.3 7.3 0 00-2.82 4.34 16.65 16.65 0 00-.58 3.47 12 12 0 00.34 3.36 2.79 2.79 0 00.28.77A15.22 15.22 0 0019.79 34a10.4 10.4 0 00-3.91.34 6.08 6.08 0 00-2.46 1.23 12 12 0 00-3 3.21C9.3 40.72 7.79 43.35 8 45.61a16.12 16.12 0 00.35 2.1 6.27 6.27 0 00.77 1.86 21.3 21.3 0 002 2.62z" fill="currentColor"/><path d="M80.13 16.37a1.64 1.64 0 001.14 1.3L79.9 9.16a13.73 13.73 0 00-.27 2.56 38.3 38.3 0 00.5 4.65zM17.57 54.58a22.7 22.7 0 00-2.87-1.45c-1-.32-1.62-.41-2.59-.7l-.86-.22L19 56.07a.46.46 0 00.07-.14.76.76 0 00-.08-.64c-.32-.38-.99-.5-1.42-.71zm23.99 65.29a8.6 8.6 0 01.14-.86c.2-1 .23-1.66.47-2.65a19 19 0 011.18-3c.17-.42.22-1.14.58-1.43a.79.79 0 01.65-.13.82.82 0 00-.23-.11c-.22-.08-.46.16-.59.36-.91 1.29-1.31 2.61-2.27 3.88l-1.33 1.74a12.33 12.33 0 01-3.16 3.17 5.8 5.8 0 01-3.19.63 9.94 9.94 0 01-2.5-.52c-1.76-.65-3.81-1.28-4.7-3a8.82 8.82 0 01-1.32-2.59 5.79 5.79 0 01.06-2.12c.15-.67.09-1.34.22-2a8.45 8.45 0 011.26-2.86c.71-1.15 1.75-2.19 2.39-3.36a2.06 2.06 0 00-.27-2.49c-.62-.65-2.16 1-3.1 2l-.11.2a12.55 12.55 0 01-1.29 1.16 12.2 12.2 0 01-4 2.16 7.61 7.61 0 01-4.39.09c-.38-.14-.72-.47-1.11-.63a5.65 5.65 0 01-1.21-.66 7.11 7.11 0 01-.95-1 11.44 11.44 0 01-1.44-2.25 7.24 7.24 0 01-.74-2.9 6.19 6.19 0 01.62-2.7 10.92 10.92 0 011.16-2.23 13.13 13.13 0 014.24-3c.68-.38 2.16-1.13 2.05-1.89a1.2 1.2 0 00-1.5-1.07c-.49.12-.94.38-1.42.51s-1.17.57-1.64.64a34.21 34.21 0 01-4.15.82 8.45 8.45 0 01-2-.23 4 4 0 01-2.14-1.27 11.36 11.36 0 01-1.61-2C3.6 87 3.33 87.24 2.79 86a7.12 7.12 0 01-.07-4.88l.53-1.53A5 5 0 014 78.21a13.44 13.44 0 013.25-2.92c2.13-1.37 4.38-.78 6.71-1.1.79-.1 1.65-.73 1.3-1.4a2.91 2.91 0 00-1.33-1.07 7.55 7.55 0 00-1.36-.19 9.24 9.24 0 01-2.57-.78c-.87-.53-3.21-1.09-4-1.76a9.34 9.34 0 01-2-2.1 15.7 15.7 0 01-1.18-2.15 6.63 6.63 0 01-.26-3.3 17.85 17.85 0 01.83-3.37 6 6 0 012.12-2.75c1-.69 3.52-.43 4.67-.52a6.57 6.57 0 012.2.38c.85.18 1.7.37 2.54.58s1.49.73 2.29.9a1.75 1.75 0 001.43-.21 1 1 0 00.29-.38h-.05a1.73 1.73 0 01-1.7.09 35.73 35.73 0 01-4.07-2.25 11 11 0 01-1.91-1.69 12.29 12.29 0 00-5-.19c-1.93.46-4.19 2.85-4.81 5.08C1 58.77.37 59.51.31 61.31a10.47 10.47 0 00.08 1.94 13.58 13.58 0 00.44 1.91 10.6 10.6 0 001.68 3.32 15.37 15.37 0 003 2.61c.81.59 2.2.58 3.06 1.06a.23.23 0 00.12 0l-.11.06a20.28 20.28 0 00-2.79 1 13.44 13.44 0 00-2.75 1.86 8.65 8.65 0 00-1.78 2.27 7.13 7.13 0 00-1.21 2.8 14.88 14.88 0 001 7.4 11.85 11.85 0 004.24 5.16 8.42 8.42 0 002.32 1.2 11.09 11.09 0 002.83.15.82.82 0 01.19.06l-.11.18a20.81 20.81 0 00-2 3.81 10.38 10.38 0 00.86 6.53 12 12 0 001.91 3.05 6 6 0 002.17 1.82 8.79 8.79 0 002.5.88 16.91 16.91 0 003.57.31 11.53 11.53 0 003.34-.67 3.25 3.25 0 00.73-.36 15.33 15.33 0 00-1.07 3.81 10.23 10.23 0 00.84 3.86 5.89 5.89 0 001.53 2.3c.53.5 1.09 1 1.67 1.47a9.17 9.17 0 001.88 1.09c2.05.91 4.8 2 7 1.55a10.52 10.52 0 003.78-1.54 22.49 22.49 0 002.4-2.27z" fill="currentColor"/><path d="M17.2 56.14a1.73 1.73 0 001.7-.09l-7.7-3.86a11 11 0 001.91 1.69 35.73 35.73 0 004.09 2.26zm26.15 57.24a19 19 0 00-1.18 3c-.24 1-.27 1.67-.47 2.65a8.6 8.6 0 00-.14.86l3.18-8-.16-.05a.79.79 0 00-.65.13c-.36.27-.41 1.03-.58 1.41z" fill="currentColor"/><path d="M124.17 124.21c-.13-.29-.24-.57-.33-.82-.33-1-.66-1.53-1-2.48a19.82 19.82 0 01-.55-3.17c-.07-.44-.42-1.08-.25-1.52a.87.87 0 01.52-.47.89.89 0 00-.27 0c-.24.06-.33.39-.35.64-.11 1.59.25 2.92.09 4.5l-.21 2.18a13.18 13.18 0 01-1 4.34 6.27 6.27 0 01-2.2 2.29 9.38 9.38 0 01-2.22 1c-1.7.51-3.58 1.16-5.22.43a8.77 8.77 0 01-2.53-1.19 6 6 0 01-1.29-1.64c-.32-.61-.8-1.07-1.15-1.66a8.79 8.79 0 01-1-3c-.25-1.33-.17-2.8-.51-4.09a2 2 0 00-2-1.55c-1 0-.93 2.25-.9 3.61l.06.22a12.22 12.22 0 01-.11 1.72 13.63 13.63 0 01-1.28 4.39 8.54 8.54 0 01-2.77 3.3c-.32.2-.77.24-1.11.44a7.34 7.34 0 01-4.88.39 6.36 6.36 0 01-4.47-3.14 12.21 12.21 0 01-1.24-2.17 12.93 12.93 0 01-.49-5.19c0-.77.14-2.44-.71-2.7a1.39 1.39 0 00-1.9.77c-.13.49-.11 1-.22 1.5s0 1.29-.2 1.75c-.47 1.29-.58 2.83-1.16 4.08a9.53 9.53 0 01-1.05 1.69 4.33 4.33 0 01-1.95 1.46 15.84 15.84 0 01-2.35.69c-1.22.2-1.09.53-2.34.62a6.8 6.8 0 01-4.34-1.3 10.35 10.35 0 01-2.37-1.91 18.4 18.4 0 01-2.18-3.76c-1-2.32-.08-4.44 0-6.79 0-.79-.59-1.81-1.41-1.54a2.77 2.77 0 00-1.35 1.16 7.35 7.35 0 00-.36 1.32 8.53 8.53 0 01-1.1 2.5c-.64.83-1.43 3.12-2.15 3.9a9.93 9.93 0 01-2.19 1.71 15.73 15.73 0 01-2.18 1.11 6.15 6.15 0 01-3.14.21 23.79 23.79 0 01-3.21-.73 6.33 6.33 0 01-2.68-2c-.71-.92-.59-3.48-.76-4.62a6.81 6.81 0 01.23-2.22q.16-1.29.39-2.58c.13-.82.61-1.55.72-2.36a1.74 1.74 0 00-.37-1.43 1 1 0 00-.43-.25 1.67 1.67 0 01.29 1.69 36.77 36.77 0 01-1.93 4.23 12.44 12.44 0 01-1.53 2.07 13.29 13.29 0 00.17 5 6.38 6.38 0 001.94 2.73 8.39 8.39 0 003.07 1.73c1.58.4 2.27.91 3.94 1a12.18 12.18 0 006.83-1.95 21.32 21.32 0 002.82-2.8c.67-.73.83-2.11 1.42-2.9a.42.42 0 000-.12v.12a25.87 25.87 0 00.65 2.9 15 15 0 001.34 3 11.45 11.45 0 001.76 2.14 6.83 6.83 0 002.24 1.76 15.13 15.13 0 006.6 1.12 12.12 12.12 0 005.77-2 8.22 8.22 0 002-1.56 14.72 14.72 0 001.4-2.41c0-.06.09-.1.14-.14l.11.18a27 27 0 002.22 3.69 10.78 10.78 0 005.4 2.91 13.15 13.15 0 003.21.32 6.82 6.82 0 004.59-1.78 14.35 14.35 0 004.31-5.15 3.1 3.1 0 00.27-.77 18.16 18.16 0 001.77 3.49 10.86 10.86 0 003 2.36 5.49 5.49 0 002.45.82 12.57 12.57 0 004-.12c2-.48 4.66-1.1 6.11-2.66a10.61 10.61 0 002.24-3.27 29.2 29.2 0 00.84-3.21z" fill="currentColor"/><path d="M45 113.61a1.67 1.67 0 00-.29-1.69l-3.19 8a12.44 12.44 0 001.53-2.07 36.77 36.77 0 001.95-4.24zm77.31 4.13a19.82 19.82 0 00.55 3.17c.32 1 .65 1.53 1 2.48.09.25.2.53.33.82l-1.41-8.5h-.18a.87.87 0 00-.52.47c-.19.48.16 1.12.23 1.56z" fill="currentColor"/><path d="M194.59 84c-.3-.08-.6-.17-.84-.26-1-.34-1.62-.46-2.56-.83a20.31 20.31 0 01-2.8-1.58c-.38-.23-1.09-.39-1.33-.78A.67.67 0 01187 80a1.33 1.33 0 00-.14.19c-.1.2.1.47.28.63 1.17 1.06 2.42 1.65 3.54 2.77l1.54 1.56a12.1 12.1 0 012.65 3.63A6.09 6.09 0 01195 92a8.11 8.11 0 01-1 2.41c-.92 1.65-1.91 3.57-3.74 4.14a9.31 9.31 0 01-2.75.86 5.75 5.75 0 01-2.08-.41c-.64-.27-1.31-.32-2-.56a8.48 8.48 0 01-2.62-1.71c-1-.88-1.89-2.07-3-2.88a2 2 0 00-2.52-.07c-.78.53.66 2.3 1.5 3.37l.18.14a12.58 12.58 0 011 1.44 13.08 13.08 0 011.59 4.32 7.62 7.62 0 01-.43 4.31c-.16.36-.52.65-.71 1a5 5 0 01-.75 1.11 6 6 0 01-1 .82 12.47 12.47 0 01-2.26 1.18 6.33 6.33 0 01-5.54-.28 11.25 11.25 0 01-2.19-1.2 12.89 12.89 0 01-3-4.26c-.38-.67-1.11-2.16-2-2a1.33 1.33 0 00-1.21 1.58c.13.49.4.93.55 1.42s.6 1.14.68 1.62a42.37 42.37 0 011 4.15 8.75 8.75 0 01-.11 2 4.29 4.29 0 01-1.06 2.19 17.2 17.2 0 01-1.76 1.76c-1 .75-.76 1-1.85 1.61a6.6 6.6 0 01-4.51.83 12.39 12.39 0 01-3-.66 15.84 15.84 0 01-3.61-2.42c-1.93-1.67-2-4-3-6.13-.33-.72-1.3-1.37-1.91-.76a2.9 2.9 0 00-.71 1.65 7.12 7.12 0 00.25 1.35 8.6 8.6 0 01.08 2.72c-.23 1 0 3.4-.28 4.4a10.26 10.26 0 01-1.23 2.51 16.21 16.21 0 01-1.45 1.93c-1.42 1.44-3.71 1.88-5.71 2.3a5.69 5.69 0 01-3.19-.48c-1-.5-2.16-2.78-2.88-3.68a7.07 7.07 0 01-.91-2c-.32-.81-.65-1.61-1-2.42s-.25-1.65-.58-2.4a1.75 1.75 0 00-1.1-1 1.19 1.19 0 00-.53 0v.06a1.63 1.63 0 011.16 1.3 36.06 36.06 0 01.51 4.62 13.53 13.53 0 01-.26 2.55 14.08 14.08 0 002.63 4.19 7.62 7.62 0 006.25 1.52c1.5-.37 2.32-.19 3.76-.85a12.38 12.38 0 005.21-4.71 19.45 19.45 0 001.36-3.69c.28-1-.16-2.27 0-3.25a.5.5 0 000-.12l.09.09a25.41 25.41 0 001.83 2.31 15.82 15.82 0 002.53 2.14 9.25 9.25 0 002.53 1.17 7.12 7.12 0 002.81.56 15 15 0 006.54-2 12.43 12.43 0 004.28-4.52 7.52 7.52 0 001-2.34 13.87 13.87 0 000-2.81.7.7 0 01.06-.19l.18.11a27.07 27.07 0 003.76 2.09 11 11 0 006.28-.43 14 14 0 003-1.55 7.31 7.31 0 003-4.2 13.3 13.3 0 00.54-6.8c.06.05-.08-.35-.24-.78a14.73 14.73 0 003.57 1.63 10.46 10.46 0 003.92-.15 5.8 5.8 0 002.51-1.12 11.51 11.51 0 003.12-3.06 25.59 25.59 0 001.87-3.21 7.9 7.9 0 00.86-3.48 9.91 9.91 0 00-.94-4 22 22 0 00-1.89-2.7z" fill="currentColor"/><path d="M123.93 117.07a1.63 1.63 0 00-1.16-1.3l1.41 8.5a13.53 13.53 0 00.26-2.55 36.06 36.06 0 00-.51-4.65zm64.46-35.71a20.31 20.31 0 002.8 1.58c.94.37 1.6.49 2.56.83.24.09.54.18.84.26l-7.5-4.22a1 1 0 00-.09.19.67.67 0 00.05.63c.25.37.95.5 1.34.73z" fill="currentColor"/><path d="M161.84 19.4c-.05.31-.11.6-.17.86-.24 1-.28 1.64-.54 2.62a19.2 19.2 0 01-1.28 2.95c-.18.4-.24 1.13-.62 1.41a.85.85 0 01-.68.11.84.84 0 00.23.12c.24.08.49-.15.64-.35 1-1.28 1.39-2.58 2.39-3.83l1.38-1.72a12.29 12.29 0 013.22-3.09 6 6 0 013.1-.62 10.7 10.7 0 012.42.48c1.71.56 3.73 1 4.62 2.64a10.16 10.16 0 011.37 2.49 5.85 5.85 0 01.1 2.08c-.1.68 0 1.34 0 2a8.88 8.88 0 01-.95 3c-.58 1.23-1.51 2.37-2 3.61a2 2 0 00.73 2.48c.79.59 2.09-1.3 2.87-2.41l.08-.21a13 13 0 011.1-1.33 12 12 0 013.66-2.7 7.71 7.71 0 014.35-.73c.4.09.78.38 1.18.49a6 6 0 012.37 1.25 14.76 14.76 0 011.72 2.1 8.27 8.27 0 01.76 1.35 6.78 6.78 0 01.36 1.46 6.26 6.26 0 01-.29 2.85 9 9 0 01-.91 2.36 13.17 13.17 0 01-3.89 3.49c-.63.45-2 1.36-1.84 2.08a1.16 1.16 0 001.57.84c.48-.16.9-.46 1.37-.64a16.3 16.3 0 011.56-.79 31.3 31.3 0 014-1.21 8 8 0 012 .07 3.73 3.73 0 012.26 1.11 18.72 18.72 0 011.78 2c.71 1.16.93.9 1.53 2.16a7.05 7.05 0 01.33 5 10.51 10.51 0 01-1.24 3 10.93 10.93 0 01-1.48 1.58 15.53 15.53 0 01-1.75 1.33c-2.13 1.36-4.37.77-6.7 1.07-.78.1-1.65.69-1.31 1.34a2.83 2.83 0 001.31 1 8.45 8.45 0 001.35.21 8.84 8.84 0 012.61.82c.91.54 3.22 1.14 4 1.82a9.65 9.65 0 011.84 2.16c.16.27.4.66.63 1.07a8.49 8.49 0 01.49 1.14 7.31 7.31 0 01.16 3.34 28.86 28.86 0 01-1 3.36 6.47 6.47 0 01-2.25 2.66c-1 .66-3.55.27-4.7.31a6.85 6.85 0 01-2.18-.48c-.84-.22-1.68-.45-2.51-.7s-1.46-.8-2.25-1a1.75 1.75 0 00-1.43.15 1.19 1.19 0 00-.29.37 1.7 1.7 0 011.69 0 37.86 37.86 0 014 2.44 12.08 12.08 0 011.92 1.78 12.18 12.18 0 004.94.42 6.54 6.54 0 003-1.74 9.31 9.31 0 002.08-3.13c.5-1.7 1.11-2.43 1.3-4.22a13.37 13.37 0 00-.38-3.91 12 12 0 00-1.6-3.41 8.29 8.29 0 00-1.39-1.45c-.59-.5-1.2-.95-1.59-1.24-.81-.6-2.19-.61-3-1.1a.53.53 0 00-.12 0h.11a20.38 20.38 0 002.81-1 12.85 12.85 0 002.75-1.87 9.69 9.69 0 001.75-2.35 7.41 7.41 0 001.12-2.88 14.48 14.48 0 00-1.3-7.6 10.36 10.36 0 00-2-2.89 9.72 9.72 0 00-2.64-2.08 8.13 8.13 0 00-2.42-1 10.37 10.37 0 00-2.83.11.45.45 0 01-.2 0l.08-.19a19.85 19.85 0 001.62-4 7.06 7.06 0 00-.26-3.13 13 13 0 00-1.46-3.42 13.78 13.78 0 00-2.34-2.83 7.19 7.19 0 00-2.43-1.51 7.54 7.54 0 00-2.62-.52 12.1 12.1 0 00-6.76 1.34 3.39 3.39 0 00-.68.47 17.06 17.06 0 00.61-3.86 10.66 10.66 0 00-1.08-3.68 6.28 6.28 0 00-1.54-2.13 18.85 18.85 0 00-1.61-1.32 8.91 8.91 0 00-1.81-.94c-2-.7-4.58-1.78-6.67-1.33a9.57 9.57 0 00-3.72 1.5 25.35 25.35 0 00-2.48 2.23z" fill="currentColor"/><path d="M188.82 79.81a1.7 1.7 0 00-1.69 0l7.52 4.22a12.08 12.08 0 00-1.85-1.79 37.86 37.86 0 00-3.98-2.43zm-28.97-53.98a19.2 19.2 0 001.28-2.95c.26-1 .3-1.64.54-2.62.06-.26.12-.55.17-.86l-3.45 7.89a.76.76 0 00.16.06.85.85 0 00.68-.11c.38-.24.44-1.01.62-1.41z" fill="currentColor"/><path d="M79.91 9.22a8 8 0 01.32.82c.33 1 .66 1.54 1 2.5a18.9 18.9 0 01.53 3.17c.06.44.41 1.09.24 1.53a.84.84 0 01-.52.45 1.18 1.18 0 00.26 0c.25-.06.34-.39.35-.63.12-1.59-.22-2.92-.06-4.51l.23-2.18a13.14 13.14 0 011-4.34 6.2 6.2 0 012.24-2.28 10.21 10.21 0 012.3-.91c1.73-.51 3.67-1.06 5.31-.27a8.49 8.49 0 012.5 1.3 5.61 5.61 0 011.22 1.7c.3.62.75 1.11 1.07 1.72a8.59 8.59 0 01.82 3c.19 1.34 0 2.8.29 4.11a2.09 2.09 0 001.99 1.74c1 .1 1.05-2.18 1.11-3.54l-.06-.22a13.77 13.77 0 01.22-1.72 13.51 13.51 0 011.56-4.31 8.09 8.09 0 013-3.09c.35-.18.8-.17 1.16-.34a7.23 7.23 0 014.94 0 6.6 6.6 0 014.21 3.52 12.52 12.52 0 011.08 2.25 12.92 12.92 0 010 5.22c-.08.77-.35 2.41.45 2.78a1.37 1.37 0 002-.59c.18-.47.2-1 .37-1.47a16.4 16.4 0 01.36-1.72c.58-1.24.84-2.77 1.54-4a9.73 9.73 0 011.21-1.58 4.38 4.38 0 012.09-1.28 16.21 16.21 0 012.41-.43c1.23-.07 1.14-.41 2.39-.37A6.32 6.32 0 01135.13 7a12.33 12.33 0 012.17 2.16 18.33 18.33 0 011.8 3.93c.79 2.39-.34 4.41-.61 6.76-.1.79.41 1.87 1.26 1.69a2.79 2.79 0 001.47-1 8 8 0 00.48-1.29 8.76 8.76 0 011.3-2.42c.72-.76 1.71-3 2.5-3.66a10.38 10.38 0 012.34-1.56 13 13 0 012.2-.94c2-.49 4.22.32 6.19 1a5.49 5.49 0 012.51 2.09c.62 1 .36 3.54.48 4.68a7 7 0 01-.32 2.2c-.16.86-.32 1.72-.49 2.57s-.69 1.52-.82 2.33A1.74 1.74 0 00158 27a1.15 1.15 0 00.44.28v-.05a1.66 1.66 0 01-.25-1.72 37.38 37.38 0 012.08-4.15 12.56 12.56 0 011.61-2 14 14 0 000-4.95 6.81 6.81 0 00-1.72-2.82 8.77 8.77 0 00-1.37-1.16 6.38 6.38 0 00-1.51-.7c-1.52-.47-2.16-1.05-3.77-1.24a11.5 11.5 0 00-3.56.14 13.11 13.11 0 00-3.34 1.26 21.66 21.66 0 00-3.05 2.51c-.73.67-1 2-1.69 2.75a1.17 1.17 0 000 .11v-.12a24.25 24.25 0 00-.36-3 14.73 14.73 0 00-1-3.15 11.36 11.36 0 00-1.54-2.27 6.82 6.82 0 00-2.05-2 22 22 0 00-3.12-1.3 13.11 13.11 0 00-3.33-.5 11.81 11.81 0 00-6 1.4 8.49 8.49 0 00-2.11 1.36 14.7 14.7 0 00-1.62 2.28 1 1 0 01-.16.12l-.16-.08a28.58 28.58 0 00-1.83-3.87 11.2 11.2 0 00-5.17-3.37 10.78 10.78 0 00-3.22-.58 7.12 7.12 0 00-4.77 1.41 14.48 14.48 0 00-4.68 4.87 3 3 0 00-.32.75 16.52 16.52 0 00-1.58-3.59 10.64 10.64 0 00-2.91-2.5 5.63 5.63 0 00-2.46-.93 12.83 12.83 0 00-4.1 0c-2.06.49-4.82 1-6.31 2.54A10.25 10.25 0 0080.77 6a27 27 0 00-.87 3.19z" fill="currentColor"/><path d="M158.16 25.52a1.66 1.66 0 00.25 1.72l3.45-7.9a12.56 12.56 0 00-1.61 2 37.38 37.38 0 00-2.09 4.18zm-76.43-9.81a18.9 18.9 0 00-.53-3.17c-.31-1-.64-1.55-1-2.5a8 8 0 00-.32-.82l1.36 8.5a1.13 1.13 0 00.18 0 .84.84 0 00.52-.45c.2-.47-.15-1.12-.21-1.56z" fill="currentColor"/></svg>