<svg xmlns="http://www.w3.org/2000/svg" viewBox="0 0 195.51 121.23"><path d="M46 10.9c1.7-1.09 3.16-2 4.67-2.76a30.12 30.12 0 014.45-1.73c.31-.08 1.1.67 1.2 1.14s-.25 1.45-.6 1.56c-1.3.44-2.61.83-3.93 1.22l-3.93 1.29a8.31 8.31 0 01-1.34.48c-.21 0-.55-.35-.65-.62s.13-.54.13-.58zm-6.59 3.99c.14 1-.61 1.37-1.2 1.75a20 20 0 01-2 1.09l-2 1c-.46.23-1 .41-1.44.61a6.5 6.5 0 00-1.33.77c-.6.46-1.09.42-1.77-.14a.44.44 0 010-.43c1.84-1.72 3.86-2.86 5.84-4.44.4-.3.76-.66 1.14-1a1.86 1.86 0 012.76.79zM65.09 4.51C66.45 4 68.78 3.32 69.77 3a19.85 19.85 0 012.87-.9 2.48 2.48 0 011.54.62c.13.09-.11.68-.18 1-.32 1.57-1.6 1.28-2.64 1.48s-4.11.37-5.19.68c-1.26.35-1.5.09-1.3-1.17.03-.18.35-.31.22-.2zM5.27 47.12c.25-1 .55-1.87.82-2.73A18.66 18.66 0 017 42c.34-.72.68-1.46 1.09-2.16s.87-1.36 1.34-2c.2-.26 1.27-.15 1.63.16s.71 1.32.5 1.61l-1.17 1.67c-.39.55-.74 1.13-1.13 1.7-.78 1.12-1.44 2.3-2.14 3.48a8.2 8.2 0 01-.68 1.24c-.13.15-.64.11-.89 0s-.26-.55-.28-.58zm-1.93 7.43c.8.6.56 1.37.44 2.05-.28 1.45-.67 2.89-1 4.33a19.76 19.76 0 00-.66 3c0 .75-.31 1.11-1.16 1.31A.44.44 0 01.54 65c-.28-2.53.17-4.84.28-7.39v-1.53a1.84 1.84 0 012.52-1.53zm13.18-24.14a21.55 21.55 0 011.64-2c.6-.71 1.17-1.37 1.51-1.76a19 19 0 012-2.28 2.42 2.42 0 011.66-.24c.17 0 .25.65.36 1 .48 1.44-.73 1.86-1.51 2.57s-3.27 2.47-4 3.3c-.83 1-1.16.93-1.7-.24-.1-.22.09-.51.04-.35zm-2.58 68.23c-.82-.6-1.57-1.16-2.28-1.7s-1.34-1.15-2-1.74a16.36 16.36 0 01-1.62-1.81 13.68 13.68 0 01-1.38-2c-.17-.28.35-1.24.77-1.45s1.47-.15 1.66.15a58.37 58.37 0 004.8 6.54 6.2 6.2 0 01.92 1.08c.09.18-.13.65-.34.83s-.47.1-.53.1zm6.33 4.36c.86-.56 1.49 0 2.08.32 1.25.79 2.48 1.66 3.68 2.58a20.45 20.45 0 002.52 1.77 1.24 1.24 0 01.73 1.61c0 .11-.27.28-.36.25a67 67 0 01-6.67-3.1l-1.42-.56a1.87 1.87 0 01-.56-2.87zM2.84 81.87a16.8 16.8 0 01-1.07-2.42c-.17-.43-.34-.86-.48-1.23s-.24-.71-.33-1A12.17 12.17 0 010 74.34a2.45 2.45 0 01.65-1.55c.1-.13.68.14 1 .22 1.54.35 1.13 1.59 1.4 2.6.14.53.2 1.54.38 2.54a15.68 15.68 0 00.58 2.5c.52 1.18.3 1.45-1 1.41-.12-.01-.3-.31-.17-.19zm61.71 37.45a51.48 51.48 0 01-5.42.17 22.85 22.85 0 01-4.73-.59c-.31-.08-.65-1.1-.52-1.56s.91-1.18 1.26-1.11c2.7.55 5.4 1.08 8.12 1.56a6.39 6.39 0 011.41.23c.19.08.31.58.27.85s-.37.42-.39.45zm7.7-.21c.4-.93 1.22-.84 1.93-.88a33 33 0 014.54.29 22.17 22.17 0 003.11.32c.76-.07 1.15.24 1.4 1.08 0 .11-.11.37-.2.38-2.47.39-4.78.35-7.28.62-.5.06-1 .19-1.48.28a1.85 1.85 0 01-2.02-2.09zm-27.53-3.29c-1.46-.14-3.8-.82-4.83-1a14.53 14.53 0 01-3-.67 2.51 2.51 0 01-1-1.32c-.06-.15.45-.53.69-.8 1-1.16 2-.25 3 .1s3.74 1.7 4.83 2c1.28.27 1.37.6.58 1.62-.09.14-.44.11-.27.07zm75.17.84l-2.66 1c-.84.27-1.65.52-2.47.74a29.67 29.67 0 01-4.66.88c-.31 0-1-.85-1-1.33s.49-1.39.85-1.43c2.74-.41 5.51-.58 8.26-.93a6.49 6.49 0 011.43-.17c.2 0 .45.48.48.75s-.21.46-.23.49zm7.38-2.22c.16-1 1-1.13 1.67-1.32 1.46-.4 3-.55 4.48-.82a22.17 22.17 0 003.08-.42c.72-.23 1.16-.07 1.63.68.05.09 0 .38-.1.42a24 24 0 01-3.44 1.23c-1.15.35-2.3.75-3.48 1.16-.47.17-.91.41-1.37.61a1.88 1.88 0 01-2.47-1.54zM100 119.55c-1.42.35-3.81.7-4.82.89a18.17 18.17 0 01-3 .57 2.42 2.42 0 01-1.45-.79c-.12-.11.18-.66.3-1 .48-1.48 1.73-1 2.78-1.13h2.63a18.75 18.75 0 002.63-.06c1.3-.2 1.5.08 1.13 1.31-.03.21-.36.3-.2.21zm71.13-22.94l-1.93 2.09c-.63.62-1.26 1.2-1.9 1.76s-1.23 1-1.88 1.5-1.35.87-2 1.25c-.28.16-1.22-.38-1.43-.81s-.11-1.48.2-1.67l1.78-1 1.74-1.08c1.16-.73 2.36-1.41 3.46-2.22a5.91 5.91 0 011.18-.81c.19-.07.62.2.78.43s0 .52 0 .56zm5.22-5.61c-.42-.93.2-1.47.66-2 1-1.12 2.06-2.17 3.16-3.2a17.27 17.27 0 002.18-2.18c.42-.63.91-.74 1.72-.44.1 0 .24.32.19.4-.62 1.08-1.31 2.08-2 3.07s-1.49 1.9-2.18 3c-.29.42-.5.89-.79 1.31a1.89 1.89 0 01-2.94.04zM154 107.27c-1.2.85-3.39 1.89-4.29 2.41a13.78 13.78 0 01-2.66 1.45 2.51 2.51 0 01-1.63-.35c-.15-.08 0-.69 0-1.06 0-1.55 1.36-1.43 2.32-1.87s4-1.09 4.94-1.68c1.15-.63 1.43-.43 1.5.86.04.18-.24.38-.18.24zm39.82-58.69a22.48 22.48 0 01.89 2.71 14.23 14.23 0 01.57 2.58c.1.8.18 1.62.23 2.44s-.07 1.63-.17 2.44c0 .32-1 .76-1.48.66s-1.27-.79-1.24-1.14c0-.67.11-1.33.18-2v-2a33.93 33.93 0 00-.14-4c0-.48-.21-.94-.17-1.39 0-.2.46-.46.74-.5s.56.18.59.2zm-3.08-7.02c-1 .08-1.25-.7-1.64-1.26-.82-1.21-1.33-2.61-2.15-3.85a11.18 11.18 0 00-1.55-2.61c-.53-.53-.54-1-.07-1.75a.42.42 0 01.42-.1 16.91 16.91 0 012.56 2.66c.76 1 1.55 1.9 2.3 2.94.31.41.68.77 1 1.16a1.52 1.52 0 01.28 1.5 2.07 2.07 0 01-1.15 1.31zm1.67 27.04a45.53 45.53 0 01-1.35 4.78 14.25 14.25 0 01-1 2.88 2.3 2.3 0 01-1.43.85c-.17 0-.46-.5-.7-.79-1-1.19 0-2 .44-2.93.26-.49.75-1.38 1.23-2.26a11 11 0 001.1-2.34c.34-1.25.68-1.31 1.66-.48.13.12.08.46.05.29zm-38-56.12c2 .5 3.66.78 5.25 1.36a31.33 31.33 0 014.34 2c.28.16.32 1.23.06 1.64s-1.2.88-1.52.71c-2.46-1.24-4.82-2.7-7.33-3.83a5.73 5.73 0 01-1.29-.63c-.16-.13-.13-.64 0-.9s.46-.33.49-.35zM147 10.45c-.66.79-1.42.46-2.1.28-1.46-.38-2.82-1.11-4.26-1.59a21.06 21.06 0 00-2.9-1.14c-.74-.15-1-.55-1-1.43 0-.11.2-.33.3-.31 1.24.16 2.41.41 3.59.67l3.57.78c.49.09 1 .12 1.5.17a1.88 1.88 0 011.3 2.57zm25.46 10.93c1.35.56 3.54 1.61 4.45 2.13a16.72 16.72 0 012.72 1.42 2.54 2.54 0 01.57 1.59c0 .17-.57.38-.88.56a1.35 1.35 0 01-1.56 0 15.37 15.37 0 01-1.27-.94c-.46-.3-1.22-1-2-1.61a21.5 21.5 0 00-2.17-1.47c-1.18-.59-1.17-.93-.14-1.72.13-.07.46.05.28.04zM100.35 1c2-.26 3.68-.54 5.37-.67a26.08 26.08 0 014.76.16c.32 0 .76 1 .68 1.49s-.79 1.26-1.15 1.23c-1.37-.11-2.74-.28-4.11-.43l-4.12-.35a6.09 6.09 0 01-1.43-.13c-.2-.07-.36-.55-.34-.83s.32-.47.34-.47zm-7.64 1c-.32 1-1.15 1-1.85 1-1.49.16-3 .15-4.54.16a16.29 16.29 0 00-3.12 0c-.75.12-1.2-.16-1.5-.96a.43.43 0 01.16-.4C84.28 1.12 86.59 1 89 .45c.49-.1 1-.26 1.46-.4A1.89 1.89 0 0192.71 2zm27.72.48c1.45 0 3.86.32 4.9.36a12.61 12.61 0 013 .21c.47.12.9.7 1.19 1.17.08.14-.35.59-.56.89-.85 1.31-1.92.48-3 .33s-4-1.15-5.09-1.28c-1.3-.15-1.42-.48-.77-1.57.15-.16.49-.17.33-.11z" fill="currentColor"/></svg>