<svg xmlns="http://www.w3.org/2000/svg" viewBox="0 0 149.02 123.46"><path d="M68.57 7.3l2.07-1.76c.32-.27.48-.78.83-1a4.26 4.26 0 011.29-.66c.82-.05 1.49.57 2.31.57.12 0 .59.23 1 .31a2 2 0 01.48.29c.14.11.19.34.33.46.3.26.71.79.92.72.62-.2 1.54-.51 1.69-1 .51-1.61 2.38-1 3.06-2.18 0 0 .27-.35.34-.32.33.1.4-.43.73-.32 0 0 .37.07.38 0 .48.06.74.91 1.19 1 .29.07.61.64.73.75 1 .9.93 1.39 1.9 1.54a3.06 3.06 0 001.89-.23A4.73 4.73 0 0191 4.9c.86-.13 1.7-.47 2.56-.69.11 0 .26.08.38.15a13.78 13.78 0 001.33.8c.29.1.61 0 .89.16.52.26.74.91 1.22 1.16.07 0 .27-.07.27-.05a3 3 0 002.14 1.36c.74-.11.9-.52 1.66-.46.08 0 .16-.13.25-.15 1.14-.27 1.9-1 3.07-1 .69 0 1.3.87 2 1.24.38.21.91.15 1.29.35s.83.79 1.31 1a4.11 4.11 0 002.87.09c.76-.32 1.36-1 2.26-1 1.45 0 1.61 1.25 2.15 2a7 7 0 01.71 2.1.35.35 0 00.1.16l1.77-3.5c-.21-.44-.41-.89-.61-1.32a4.69 4.69 0 00-1.09-1.52 7.52 7.52 0 00-2.27-.78 3.73 3.73 0 00-2.43.41c-.87.74-1.71.4-2.54.47-1.31.1-1.94-1.2-3-1.66-.85-.37-1.4-1.58-2.62-1l-1.83.73a9.73 9.73 0 00-2 .85c-.77.54-1-.22-1.47-.45-.94-.48-1.34-1.71-2.54-1.86-.16 0-.28-.29-.44-.33-.53-.14-.67-.45-1.21-.56-.19 0-.49 0-.54-.14-.37-.18-.94-.55-1.5 0a3.32 3.32 0 01-1.36.72 18.48 18.48 0 01-2.43.64 1.62 1.62 0 01-1.06-.08c-.48-.4-.78-1-1.27-1.39a6.06 6.06 0 00-1.83-1C83.89.1 83.57-.4 82 .7c-.35.23-.88.11-1.26.3a3.62 3.62 0 00-1.1.85c-.47.52-1 .41-1.6.4-.27 0-.57.28-.81.23A12 12 0 0175 1.69h-.05a1.09 1.09 0 01-.1-.11.71.71 0 00-.09-.07c-.78.08-1.62-.44-2.48-.43a4.62 4.62 0 00-3.13 2.12 2.74 2.74 0 01-.64.83c-.3-.17-.58-.37-.87-.55l.77 3.83c.07.02.13.02.16-.01z" fill="currentColor"/><path d="M24.78 30.4c.26-.85.53-1.71.75-2.6.1-.41-.05-.92.13-1.28a3.84 3.84 0 01.72-1.25c.67-.48 1.55-.36 2.22-.83.09-.07.63-.12 1-.25a2.7 2.7 0 01.57 0c.18 0 .35.19.53.22.4.06 1 .26 1.16.08.4-.52 1-1.29.85-1.77-.43-1.59 1.44-2.13 1.36-3.5 0 0 0-.43.11-.45.34-.09.11-.57.45-.65 0-.05.35-.14.33-.19.43-.22 1.11.35 1.54.19s.85.18 1 .21c1.36.21 1.55.69 2.44.29a3.34 3.34 0 001.45-1.25 4.66 4.66 0 01.81-1.26c.64-.59 1.14-1.36 1.75-2 .08-.08.27-.06.4-.07a8.86 8.86 0 001.54-.04c.3-.08.52-.33.83-.37.58-.06 1.13.37 1.67.32.08 0 .19-.2.2-.19a3 3 0 002.53-.06c.57-.5.48-.9 1.15-1.29.06 0 .06-.19.12-.26.79-.89 1-1.92 2-2.53.59-.36 1.55 0 2.33-.11.44 0 .84-.36 1.28-.41s1.12.18 1.64.08a4 4 0 002.44-1.58c.45-.7.57-1.6 1.3-2.09 1.19-.82 2 .08 2.93.43a9.56 9.56 0 011.9 1.3.43.43 0 00.2.07l-.77-3.83c-.4-.25-.82-.49-1.22-.76a3.84 3.84 0 00-1.72-.62 9.24 9.24 0 00-2.34.59 3.68 3.68 0 00-1.75 1.74c-.29 1.11-1.19 1.26-1.83 1.79-1 .87-2.26.13-3.42.31-.91.18-2-.48-2.75.6L51.5 8.75a11.5 11.5 0 00-1.24 1.85c-.36.86-1 .35-1.48.43-1 .14-2.05-.68-3.14-.17-.15.06-.39-.09-.56 0-.51.18-.79 0-1.3.21-.17.08-.43.24-.53.18-.41 0-1.09 0-1.28.76a3.63 3.63 0 01-.74 1.37 14.81 14.81 0 01-1.69 1.84c-.27.24-.64.56-.93.53-.61-.06-1.2-.4-1.82-.47a5.34 5.34 0 00-2.11.12c-1.08.6-1.64.34-2.4 2.13-.16.39-.66.59-.87 1a3.66 3.66 0 00-.41 1.24c-.11.69-.65.88-1.13 1.21-.22.15-.31.56-.54.65a11.12 11.12 0 01-2.27.53H27a.66.66 0 01-.15 0h-.11c-.61.51-1.57.57-2.31 1s-1.58 2.56-1.43 3.53a2.53 2.53 0 01-.08 1h-1l2.79 2.74c.01.04.06.01.07-.03zM5.67 74.82c-.43-.75-.87-1.53-1.36-2.29-.22-.36-.73-.61-.82-1a4.33 4.33 0 01-.37-1.39c.15-.82.84-1.35 1-2.14 0-.11.38-.52.54-.85a3 3 0 01.4-.39c.15-.11.39-.1.54-.21.33-.22.92-.49.9-.71a6.08 6.08 0 00-.17-1.07 1.13 1.13 0 00-.4-.79c-1.39-.88-.35-2.52-1.33-3.5 0 0-.25-.35-.2-.41.2-.29-.29-.5-.08-.79 0 0 .17-.33.13-.36.18-.44 1.07-.46 1.29-.86s.77-.4.91-.49c1.16-.72 1.63-.47 2.06-1.34A3 3 0 009 54.38a4.24 4.24 0 01-.16-1.47c.13-.86.06-1.76.11-2.66 0-.11.16-.22.26-.3a8.38 8.38 0 001.2-1c.19-.24.21-.57.43-.79.41-.4 1.08-.41 1.49-.77.05 0 0-.27 0-.27a2.92 2.92 0 002-1.56c.13-.73-.2-1 .12-1.71 0-.07-.07-.19-.06-.28.13-1.15-.31-2.12.09-3.22.27-.63 1.26-.92 1.85-1.43.33-.28.45-.79.77-1.09s1-.49 1.4-.86a4 4 0 001.08-2.66c0-.83-.41-1.61-.11-2.45.48-1.38 1.72-1.09 2.67-1.3a10.22 10.22 0 012.28 0 .53.53 0 00.2-.05l-2.79-2.74c-.47 0-.94.07-1.42.07a4.43 4.43 0 00-1.79.46 7.9 7.9 0 00-1.59 1.83 3.72 3.72 0 00-.47 2.42c.4 1.08-.23 1.75-.45 2.54-.37 1.27-1.79 1.41-2.61 2.26-.64.67-2 .77-1.89 2.11 0 .65 0 1.31.07 2a9 9 0 00.11 2.21c.25.92-.55.9-.91 1.25-.74.73-2.09.68-2.6 1.79-.07.14-.36.17-.45.32-.3.45-.63.49-.91 1-.1.17-.2.46-.31.47-.32.28-.85.71-.52 1.41a3.61 3.61 0 01.27 1.54 23.29 23.29 0 01-.15 2.5c-.06.35-.14.83-.39 1-.51.34-1.18.45-1.7.8a5.07 5.07 0 00-1.54 1.48c-.43 1.17-1 1.34-.44 3.21.14.41-.1.9 0 1.32A3.75 3.75 0 002.69 63c.38.59.09 1.09 0 1.66-.06.27.15.63 0 .86a11.61 11.61 0 01-1.3 2 .83.83 0 01-.12.08l-.09.07c-.1.8-.72 1.52-.92 2.39A3.34 3.34 0 00.56 72a4.55 4.55 0 001.19 1.59 2.76 2.76 0 01.7.78c-.22.27-.47.52-.7.78L5.66 75a.23.23 0 00.01-.18zm28.25 36.25c-.89.09-1.8.21-2.69.33-.42 0-.83.37-1.23.33a4.21 4.21 0 01-1.44-.17c-.71-.42-.9-1.32-1.57-1.78-.1-.07-.35-.53-.6-.8a2.61 2.61 0 01-.22-.51c-.05-.17 0-.39 0-.57-.1-.38-.12-1.05-.32-1.11-.61-.2-1.52-.48-1.93-.18-1.37 1-2.46-.63-3.73-.1 0 0-.43.11-.47 0-.2-.29-.59.08-.78-.21 0 0-.24-.28-.28-.26-.33-.35 0-1.17-.28-1.54s-.06-.88-.09-1c-.2-1.34.18-1.62-.4-2.38a3 3 0 00-1.54-1 3.33 3.33 0 01-1.4-.44c-.71-.48-1.54-.8-2.32-1.24-.1 0-.13-.23-.16-.37a8.15 8.15 0 00-.32-1.5c-.12-.28-.4-.45-.49-.74-.16-.54.15-1.13.06-1.66 0-.07-.22-.15-.21-.16a2.74 2.74 0 00-.34-2.41c-.54-.46-.91-.35-1.33-1 0-.06-.19 0-.26-.09a9.56 9.56 0 00-1.42-.79 2.66 2.66 0 01-1.21-1c-.37-.58 0-1.55-.13-2.3-.06-.41-.4-.8-.4-1.24s.23-1.1.16-1.61a3.65 3.65 0 00-.51-1.33 3.07 3.07 0 00-.88-1.12c-.66-.49-1.51-.69-2-1.47-.71-1.27.36-2 .8-2.86a8.85 8.85 0 011.53-1.66.71.71 0 00.14-.13l-3.91.16c-.33.37-.6.75-.91 1.11A4.27 4.27 0 000 77.93a6.89 6.89 0 00.33 2.48 3.91 3.91 0 001.59 2c1 .39 1.2 1.29 1.72 2 .83 1.06 0 2.32.27 3.48.19.93-.44 2.1.67 2.82l1.74 1a10.26 10.26 0 001.91 1.09c.9.26.5.92.62 1.41.29 1-.45 2.17.3 3.16.1.13 0 .4.08.55.27.48.15.8.45 1.27.11.17.32.4.28.51.11.43.28 1.09 1.06 1.12a3.63 3.63 0 011.5.44l1.12.59a9.93 9.93 0 011.11.6c.3.2.7.48.75.78.1.6-.08 1.28.05 1.89a5.83 5.83 0 00.78 2c.46.44.67.82 1 1.11a3 3 0 001.82.53c.43 0 .78.46 1.2.55a3.52 3.52 0 001.41 0c.69-.14 1.07.27 1.54.63.21.16.62.11.79.29a14.41 14.41 0 011.34 1.91.8.8 0 010 .15v.12c.7.39 1.09 1.3 1.82 1.78a4.55 4.55 0 003.82 0 2.8 2.8 0 011-.34c.16.3.28.63.42.94l1.47-3.62a.21.21 0 00-.04-.1zm49.66 6.31l-2.24 1.55c-.34.25-.55.73-.92.89a4.15 4.15 0 01-1.34.54c-.83 0-1.44-.66-2.25-.75-.12 0-.58-.29-.93-.39a2.87 2.87 0 01-.46-.34c-.13-.13-.16-.36-.29-.5-.28-.29-.65-.83-.87-.77-.63.17-1.58.42-1.77.88-.62 1.53-2.44.81-3.2 2 0 0-.29.33-.36.31-.33-.12-.43.4-.75.26 0 0-.36-.1-.38-.06-.47-.08-.68-.94-1.13-1.08-.28-.08-.57-.66-.69-.78-1-1-.86-1.44-1.83-1.63a3.14 3.14 0 00-1.92.15 4.9 4.9 0 01-1.39.57c-.87.14-1.72.46-2.59.64-.11 0-.26-.09-.38-.17a9.05 9.05 0 00-1.32-.82c-.29-.1-.62 0-.9-.16-.52-.25-.74-.91-1.22-1.18-.06 0-.27.06-.27 0a3 3 0 00-2.18-1.33c-.74.11-.89.49-1.66.45-.08 0-.16.13-.25.15-1.15.29-1.91 1.06-3.07 1-.69 0-1.33-.82-2-1.18-.39-.19-.91-.14-1.3-.34s-.85-.76-1.34-1a4 4 0 00-2.87 0c-.76.34-1.34 1-2.23 1.05-1.44 0-1.66-1.18-2.22-2a8.83 8.83 0 01-.87-2.12.52.52 0 00-.13-.17l-1.47 3.62c.2.44.43.86.61 1.31a4 4 0 001.12 1.46 9.44 9.44 0 002.29.8 3.86 3.86 0 002.42-.53c.84-.78 1.68-.41 2.51-.53 1.32-.18 2 1.15 3 1.59.86.35 1.43 1.5 2.63 1l1.83-.67a10.33 10.33 0 002-.86c.78-.52 1 .23 1.48.45.94.45 1.33 1.72 2.52 1.88.16 0 .27.28.44.33.52.14.66.44 1.19.55.19 0 .49 0 .53.15.37.2.92.59 1.49.1a3.64 3.64 0 011.37-.7 13.67 13.67 0 012.44-.55c.35 0 .84-.06 1.06.14.46.42.73 1 1.19 1.42a5.77 5.77 0 001.77 1.14c1.22.17 1.5.74 3.16-.28.36-.22.88-.07 1.27-.23a4 4 0 001.15-.76c.5-.49 1-.31 1.62-.28.27 0 .58-.25.83-.18a11.18 11.18 0 012.1 1 1.09 1.09 0 00.1.11.65.65 0 01.08.09c.79 0 1.57.55 2.43.63a4.67 4.67 0 003.29-1.84 2.58 2.58 0 01.71-.77c.28.19.54.41.81.62l-.4-3.89a.19.19 0 00-.05.01zM128.49 98c-.22.85-.45 1.72-.64 2.62-.09.42.06.93-.14 1.27s-.42 1-.74 1.22c-.69.47-1.56.33-2.23.77-.1.07-.6.13-1 .23a2.74 2.74 0 01-.57 0c-.18 0-.34-.21-.52-.25-.4-.08-1-.32-1.16-.15-.43.48-1 1.22-.93 1.72.38 1.67-1.58 2-1.58 3.39 0 0-.06.43-.14.45-.34.07-.14.56-.48.63 0 0-.35.12-.35.17-.43.2-1.06-.41-1.52-.3-.29.07-.84-.28-1-.31-1.33-.31-1.48-.8-2.4-.47a3.59 3.59 0 00-1.53 1.12 4.4 4.4 0 01-.91 1.18c-.68.54-1.26 1.24-1.91 1.86-.08.07-.27 0-.41 0a9.05 9.05 0 00-1.55-.11c-.31 0-.55.27-.86.28-.58 0-1.08-.46-1.62-.46-.08 0-.21.19-.22.18a3 3 0 00-2.53-.22c-.6.44-.56.86-1.25 1.19-.07 0-.08.18-.15.25-.87.79-1.22 1.76-2.26 2.29-.62.3-1.55-.12-2.33-.12-.43 0-.87.27-1.31.26s-1.1-.3-1.63-.26a3.89 3.89 0 00-1.4.43 3.18 3.18 0 00-1.17.87c-.53.64-.74 1.49-1.52 1.94-1.25.73-2-.27-2.87-.73a10.63 10.63 0 01-1.77-1.47.42.42 0 00-.19-.09l.4 3.89c.38.29.77.56 1.14.86a4.26 4.26 0 001.65.81 7.64 7.64 0 002.38-.37 3.69 3.69 0 001.94-1.57c.41-1 1.31-1.16 2-1.62 1.1-.75 2.27.14 3.44.07.92-.09 1.95.68 2.8-.32.42-.51.85-1 1.28-1.48a10.9 10.9 0 001.4-1.74c.44-.83 1-.26 1.53-.27 1 0 2 .9 3.11.46.15 0 .37.13.54.09.53-.13.8.08 1.33-.08.18-.05.45-.19.55-.12.42 0 1.1.08 1.35-.66a3.52 3.52 0 01.86-1.3 13.29 13.29 0 011.85-1.67c.29-.21.68-.51 1-.46.6.1 1.15.49 1.76.6a6.16 6.16 0 002.14 0c1.15-.49 1.66-.25 2.55-2 .18-.38.71-.54 1-.88a3.48 3.48 0 00.55-1.28c.14-.7.67-.88 1.17-1.17.24-.14.35-.54.59-.62a14.76 14.76 0 012.31-.41h.3c.64-.51 1.61-.56 2.37-1a3.52 3.52 0 001.17-1.59 4.58 4.58 0 00.28-2 2.68 2.68 0 01.06-1c.34 0 .68 0 1-.06l-2.86-2.66a.2.2 0 00-.15.17zm14.7-45.86l.8 1.1.74 1.1c.24.35.72.56.87.93a4.2 4.2 0 01.51 1.36c-.06.82-.68 1.41-.83 2.21 0 .12-.33.56-.46.9a2.42 2.42 0 01-.36.43c-.14.12-.37.14-.52.26-.31.26-.87.59-.82.8.11.63.34 1.58.77 1.8 1.46.74.56 2.48 1.64 3.35 0 0 .3.32.27.39-.16.31.35.47.19.78 0 0-.11.35-.08.37-.15.46-1 .57-1.23 1s-.74.49-.87.59c-1.08.84-1.55.65-1.86 1.56a3.64 3.64 0 00-.18 1 2.65 2.65 0 00.06.94 4.27 4.27 0 01.33 1.44c0 .87.16 1.76.22 2.66 0 .11-.13.23-.23.33a8.85 8.85 0 00-1.09 1.12c-.16.26-.14.59-.34.83-.37.45-1.05.52-1.39.93-.05.06 0 .28 0 .28a3.13 3.13 0 00-1.8 1.75c-.06.74.28 1 .07 1.71 0 .07.09.18.09.27a8.94 8.94 0 00.31 1.57 3.36 3.36 0 010 1.57c-.19.65-1.14 1-1.66 1.61-.3.31-.33.86-.66 1.15s-1 .57-1.33 1a3.81 3.81 0 00-.83 2.74c.08.81.51 1.55.25 2.41-.43 1.37-1.65 1.18-2.56 1.46a9.29 9.29 0 01-2.3 0 .49.49 0 00-.2.05l2.86 2.66c.48 0 1-.09 1.46-.11a3.56 3.56 0 001.77-.56 10.11 10.11 0 001.52-2 3.33 3.33 0 00.32-2.47c-.48-1.06.09-1.78.25-2.59a2.1 2.1 0 011.05-1.37 6.41 6.41 0 001.36-1.11c.57-.74 1.84-1 1.69-2.3-.07-.64-.16-1.3-.28-2a11 11 0 00-.36-2.2c-.34-.88.47-.94.8-1.32.71-.79 1.92-.94 2.35-2.08.06-.15.34-.21.42-.37.25-.48.58-.56.8-1.06.08-.18.15-.48.27-.5.29-.32.76-.81.35-1.47a3.57 3.57 0 01-.45-1.49 14 14 0 01-.11-2.5c0-.35 0-.84.27-1 .45-.4 1.1-.58 1.57-1a6.14 6.14 0 001.38-1.63c.36-1.21.9-1.45.06-3.24-.18-.39 0-.89-.1-1.3a3.8 3.8 0 00-.64-1.23c-.41-.54-.22-1.07-.15-1.65 0-.27-.22-.61-.14-.84a11.69 11.69 0 01.97-2.01l.12-.09a.65.65 0 01.09-.08c.08-.8.62-1.57.72-2.45a4.73 4.73 0 00-1.76-3.38 3 3 0 01-.78-.72c.18-.28.41-.54.61-.82l-3.89.43a.25.25 0 00.08.1zm-25.62-39.87h2.61c.46 0 .89-.28 1.28-.2a4.43 4.43 0 011.42.32c.65.5.83 1.35 1.41 1.89.09.08.28.57.49.86a2.25 2.25 0 01.14.54c0 .18-.1.38-.08.56 0 .4 0 1.05.17 1.13.56.27 1.41.64 1.85.42 1.48-.77 2.31 1 3.64.7h.47c.13.32.58 0 .72.36 0 0 .18.33.22.32.26.4-.22 1.14 0 1.55s-.13.87-.14 1c-.08 1.34-.55 1.56-.11 2.41a3.29 3.29 0 001.29 1.35 4 4 0 011.29.73c.64.6 1.38 1.1 2.07 1.68.08.07.07.26.09.39a7.92 7.92 0 00.12 1.55c.09.3.35.52.4.82.09.58-.31 1.15-.23 1.7 0 .07.22.18.21.19a3 3 0 00.23 2.57c.55.54.95.43 1.4 1.07 0 .07.2.05.27.1.86.72 1.9.87 2.57 1.82.38.56.18 1.5.2 2.28 0 .43.36.83.4 1.26a15 15 0 00-.09 1.61 4.43 4.43 0 001.47 2.42c.67.47 1.53.64 2 1.39.82 1.22-.2 2-.63 2.89a10.2 10.2 0 01-1.45 1.77.56.56 0 00-.09.19l3.89-.43c.28-.38.54-.78.84-1.16a4.37 4.37 0 00.78-1.71 6.92 6.92 0 00-.48-2.43 3.78 3.78 0 00-1.66-1.87 1.87 1.87 0 01-1.07-.84c-.25-.35-.44-.73-.71-1-.86-1-.12-2.29-.31-3.47-.19-.93.36-2.07-.77-2.77l-1.68-1a8.64 8.64 0 00-1.91-1.09c-.9-.3-.44-1-.53-1.46-.2-1 .57-2.08 0-3.13-.07-.14.08-.39 0-.55-.19-.51 0-.8-.26-1.29-.08-.18-.26-.42-.2-.52 0-.42-.07-1.09-.82-1.25a3.61 3.61 0 01-1.38-.7 17.54 17.54 0 01-1.94-1.6 1.69 1.69 0 01-.56-.92c0-.61.32-1.22.33-1.85a5.75 5.75 0 00-.33-2.14c-.74-1.06-.57-1.67-2.51-2.22-.43-.11-.71-.59-1.12-.75a3.75 3.75 0 00-1.4-.24c-.7 0-1-.45-1.45-.86-.2-.2-.61-.2-.76-.4a15.76 15.76 0 01-1.12-2.1v-.05a.77.77 0 010-.15v-.12c-.69-.53-1-1.37-1.66-1.92a4.67 4.67 0 00-3.74-.35 2.63 2.63 0 01-1 .18c-.13-.33-.22-.68-.34-1l-1.77 3.5a.14.14 0 00.03.02z" fill="currentColor"/></svg>