<svg xmlns="http://www.w3.org/2000/svg" viewBox="0 0 160.9 135.33"><path d="M106.08 17c.12.12.24.22.36.21a4.23 4.23 0 001.92-.82c.38-.24.62-.8 1-1.16a6.48 6.48 0 01.89-.67c1-.72 2-1.46 3-2.12.8-.5 1.66-.82 2.48-1.25s1.26-.33 1.62.8c.15.46.32.9.5 1.34a33.07 33.07 0 011.15 3.29c.26 1 .9 1.95.42 3.19a.53.53 0 000 .26 1.52 1.52 0 001.73.89 1.16 1.16 0 001-.86 2.48 2.48 0 000-1.8c-.18-.74-.64-2.49-.89-3.23-.3-1-.58-1.93-.87-2.88s-.52-1.63-.77-2.43.29-1.37-.1-2.15c-.19-.38-1.49-2-2.26-.88 0 .06-.92.44-1 .48-.7.42-.43.61-1.08 1.13-1.2 1-2.17 2.25-3.65 2.75a9.14 9.14 0 00-2.54 1.5c-.81.61-1.65.63-2.13-.15z" fill="currentColor"/><path d="M57.25 22.89a.57.57 0 00.42 0 4.4 4.4 0 001.11-1.78 7.16 7.16 0 00.13-1.5 7 7 0 01.35-1.07 30.35 30.35 0 011.27-2.86c.35-.84 1-2 1.38-2.82s.52-1 1.13-.7l.29.17c.51.3 1 .59 1.5.9.22.14.42.32.64.45 1 .65 1.57 1.06 2.53 1.73s2.15 1.32 3 2c.43.33.75 1 1.21 1.1a1.76 1.76 0 001.41-.38c.43-.48.27-1.18.59-1.81a22.51 22.51 0 011.29-1.94c.36-.57.89-1 1.29-1.53s.82-1.32 1.31-1.91c.81-1 1.79-1.73 2.58-2.71.6-.73 1-.66 1.62-.07 1.34 1.33 2.68 2.66 3.93 4A10 10 0 0188.45 15c.24.61 1.62.86 2.13.81a1.36 1.36 0 00.65-.22c.5-.36.41-1.28.54-1.83a2.44 2.44 0 01.82-1.13 13.25 13.25 0 011.51-1.4c.85-.67 1.85-1.14 2.74-1.8 1.1-.78 2.16-1.68 3.3-2.5 0 0 .3.12.36.24a14.08 14.08 0 00.85 1.47 36.24 36.24 0 012.4 3.36c.72 1.27 1.13 2.73 1.71 4a3.2 3.2 0 00.62.94l.87-4.52a24.58 24.58 0 00-2.1-3.42 10.84 10.84 0 01-2.26-4.52 1.67 1.67 0 00-1.35-1.36 3 3 0 00-1.08.06c-.11 0-.18.17-.25.26s-.43.77-.63 1-.64.41-1 .73a3 3 0 01-.28.23c-.59.42-1.17.83-1.74 1.28-.75.59-1.47 1.22-2.22 1.78s-1.28.85-1.88 1.34-1.23 1.2-1.86 1.71a.45.45 0 01-.46 0 4.43 4.43 0 00-1.11-.82 11.49 11.49 0 01-2.4-2c-1-.94-1.83-2-2.75-3-.28-.31-.69-.71-.68-1 0-1-.77-1.22-1.28-1.35a1.25 1.25 0 00-1.62.71c-.18.47-.08 1.1-.29 1.39L77 9.16c-.57.78-1.45 1.26-2.09 2s-1.43 1.84-2.12 2.75c-.26.34-.75.88-.91.79-1.1-.64-2.18-1.43-3.28-2.15-.7-.45-1.42-.88-2.09-1.41a21.22 21.22 0 01-1.7-1.6c-.37-.36-.93-.61-1.27-1s-.22-.69-.41-1a1.49 1.49 0 00-.59-.25 2.48 2.48 0 00-.89.06 2.13 2.13 0 00-1.11 1 1 1 0 000 .55 4.93 4.93 0 01-.5 1.89c-.91 1.27-.72 2.8-1.64 4.06a10.13 10.13 0 00-1.21 2.7c-.31 1-1 1.45-1.84 1.11z" fill="currentColor"/><path d="M50.89 8.66a98.38 98.38 0 0158.13-7l-3.4 17.67a80.45 80.45 0 00-47.38 5.77z" fill="none"/><path d="M21.53 55.71c.15-.08.27-.17.29-.28a4.33 4.33 0 00-.26-2.06c-.13-.42-.6-.8-.85-1.23a7.78 7.78 0 01-.39-1 26.67 26.67 0 01-.79-3c-.24-.88-.45-2.17-.64-3.09s-.2-1.13.48-1.24h.34c.59-.07 1.17-.14 1.75-.19h.77c1.14-.1 1.89-.1 3.05-.13s2.5-.21 3.56-.16c.54 0 1.19.37 1.63.19a1.72 1.72 0 00.9-1.11c.06-.65-.5-1.13-.6-1.82a22.19 22.19 0 01-.09-2.31c0-.66.13-1.32.15-2s-.11-1.55 0-2.31c.1-1.24.44-2.46.54-3.71.07-.94.45-1.11 1.29-1 1.84.29 3.72.64 5.51 1a9.87 9.87 0 013.47 1.08c.54.37 1.81-.19 2.2-.55a1.37 1.37 0 00.41-.54c.21-.58-.39-1.28-.6-1.81a2.44 2.44 0 010-1.39 14 14 0 01.44-2c.32-1 .88-2 1.24-3 .45-1.29.83-2.6 1.3-3.92 0-.07.31-.07.43 0a11.72 11.72 0 001.53.71 37.35 37.35 0 013.89 1.41 43.62 43.62 0 013.72 2.33 3.26 3.26 0 001 .42l-1.88-4.2a25.38 25.38 0 00-3.65-1.63 10.69 10.69 0 01-4.43-2.42 1.83 1.83 0 00-2.73.32c-.08.07-.05.24-.06.35 0 .3.09.87 0 1.16a12.3 12.3 0 01-.41 1.16A2 2 0 0144 18c-.25.67-.48 1.37-.7 2.05-.29.91-.53 1.83-.82 2.71s-.57 1.45-.78 2.18-.39 1.66-.6 2.48c0 .14-.24.32-.35.29a4.56 4.56 0 00-1.38-.05 12.76 12.76 0 01-3.11-.27c-1.31-.23-2.64-.59-4-.91-.41-.09-1-.19-1.16-.47-.55-.87-1.32-.53-1.82-.36a1.25 1.25 0 00-.89 1.53c.12.49.57 1 .56 1.3 0 1.7-.08 2.9-.12 4.65 0 1-.44 1.89-.53 2.86-.1 1.16-.07 2.29-.08 3.44 0 .42-.08 1.14-.27 1.16-1.26.13-2.61.11-3.9.2-.83.05-1.67.13-2.52.11s-1.53-.2-2.3-.3c-.5-.06-1.09.09-1.59 0-.34-.07-.59-.42-.91-.52a1.53 1.53 0 00-.63.15 2.78 2.78 0 00-.69.6 2.2 2.2 0 00-.31 1.48 1 1 0 00.35.43 4.88 4.88 0 01.76 1.81c.05 1.58 1.14 2.67 1.19 4.22a10.38 10.38 0 00.74 2.87c.37 1 .13 1.73-.72 2z" fill="currentColor"/><path d="M7.61 48.7a79.49 79.49 0 018.15-12.85A87.42 87.42 0 0126 24.84 93.73 93.73 0 0150.89 8.66l7.35 16.44a75.57 75.57 0 00-20.17 13.07A70.44 70.44 0 0030 46.9a62.88 62.88 0 00-6.28 9.9z" fill="none"/><path d="M22.4 99.77c0-.17 0-.31-.1-.37a4.26 4.26 0 00-1.93-.55 10.14 10.14 0 00-1.45.21 5.55 5.55 0 01-1.07-.06 25.81 25.81 0 01-3-.68c-.86-.23-2.05-.7-2.94-1s-1.11-.41-.87-1l.15-.32c.26-.55.52-1.08.8-1.6.13-.23.29-.43.42-.66.57-1 .92-1.6 1.55-2.55s1.36-2.11 2-2.88c.33-.39 1-.69 1.1-1.1a1.44 1.44 0 00-.27-1.28c-.45-.4-1.17-.27-1.79-.58A12.3 12.3 0 0113.11 84c-.52-.38-.89-.92-1.39-1.35s-1.29-.9-1.82-1.45c-.82-.9-1.48-2-2.36-2.9-.69-.7-.51-1.1.17-1.62L10 75l1.12-.79 1.18-.75a9.71 9.71 0 013.21-1.59c.61-.11 1.19-1.34 1.23-1.83a1.36 1.36 0 00-.09-.66c-.26-.54-1.17-.65-1.69-.9a2.5 2.5 0 01-.93-1 14.45 14.45 0 01-1-1.75c-.45-1-.72-2.06-1.12-3.08-.49-1.25-1.1-2.5-1.61-3.82 0-.07.19-.26.32-.29a15.23 15.23 0 001.63-.54 31.81 31.81 0 013.86-1.44 40.68 40.68 0 014.35-.56 3.18 3.18 0 001.07-.33l-4.11-2.07a24.56 24.56 0 00-3.84 1.06 11.3 11.3 0 01-5 1 1.88 1.88 0 00-1.9 2.06c0 .11.12.22.18.31.18.25.65.61.8.87.25.42.23.72.46 1.15.05.11.14.21.18.32.27.68.5 1.34.8 2 .41.87.81 1.72 1.23 2.59.32.71.49 1.44.87 2.13s.87 1.48 1.29 2.2a.42.42 0 01-.06.45 4 4 0 00-1.06.9 12.28 12.28 0 01-2.38 2c-.56.38-1.15.74-1.74 1.11l-1.72 1.19c-.34.23-.81.59-1.13.52-1-.22-1.31.61-1.54 1.11a1.26 1.26 0 00.5 1.76c.45.26 1.08.24 1.34.5 1.31 1.25 2.07 2.1 3.38 3.26.75.66 1.18 1.57 1.84 2.26a25.92 25.92 0 002.65 2.15c.32.26.82.74.72.89-.72 1.06-1.4 2.08-2.14 3.2-.44.7-.89 1.45-1.38 2.15s-1 1.2-1.46 1.81c-.32.4-.52 1-.87 1.37s-.66.27-.93.5a1.72 1.72 0 00-.21.65 3.19 3.19 0 00.14 1 2.4 2.4 0 001.19 1.1 1 1 0 00.55-.08 4.9 4.9 0 012 .32 5.09 5.09 0 002.12.59 6.54 6.54 0 012.19.48 8.49 8.49 0 002.83.67c1 .08 1.65.58 1.49 1.48z" fill="currentColor"/><path d="M10.1 109.33a47.72 47.72 0 01-7.75-14.65A51 51 0 010 78.59 63.76 63.76 0 012.15 63a72.81 72.81 0 015.46-14.3l16.07 8.1A50.81 50.81 0 0018 78.72a32.82 32.82 0 001.5 10.5 29.56 29.56 0 004.81 9.07z" fill="none"/><path d="M65.77 119a.59.59 0 00-.39-.19 4.28 4.28 0 00-1.9 1c-.36.27-.55.85-.87 1.24a7.49 7.49 0 01-.84.75c-.93.84-1.54 1.11-2.52 1.87-.73.56-1.83 1.27-2.59 1.79s-.94.65-1.32.07l-.17-.29c-.3-.51-.61-1-.88-1.52-.13-.23-.21-.47-.34-.7-.55-1-.87-1.68-1.4-2.73s-1.26-2.19-1.68-3.17c-.21-.5-.18-1.23-.53-1.55a1.75 1.75 0 00-1.42-.33c-.61.2-.8.9-1.38 1.31s-1.4.72-2.06 1.09a18.23 18.23 0 01-1.86.71c-.69.31-1.35.78-2.07 1-1.17.47-2.39.65-3.57 1.12-.88.35-1.21.08-1.45-.73-.51-1.84-1-3.64-1.41-5.41a10 10 0 01-.42-3.6c.11-.63-.88-1.54-1.32-1.76a1.28 1.28 0 00-.64-.14c-.6.06-1 .88-1.42 1.28a2.49 2.49 0 01-1.28.54 13.26 13.26 0 01-2 .36c-1.06.09-2.19 0-3.26 0-1.34 0-2.76.16-4.17.12-.07 0-.17-.28-.14-.42a14.67 14.67 0 00.18-1.7 19.57 19.57 0 01.2-4.12 27.74 27.74 0 011.31-4.08 3.3 3.3 0 00.22-1.08l-3.63 2.82a15.73 15.73 0 00-.64 3.92 10.9 10.9 0 01-.25 2.61 12.71 12.71 0 01-.72 2.42c-.72 1.77 1.16 2.57 1.26 2.61s.26 0 .37 0c.3-.08.81-.38 1.11-.42.5-.08.78 0 1.27 0h2.54l2.86-.26c.78 0 1.52 0 2.3-.1s1.69-.32 2.5-.46a.41.41 0 01.4.21 3.58 3.58 0 00.51 1.28 12.52 12.52 0 011 2.93c.33 1.31.58 2.64.88 4 .1.41.26 1 .08 1.25-.55.85.08 1.45.46 1.82a1.26 1.26 0 001.78.13c.39-.32.61-.92.93-1.06l4.25-1.91c.89-.41 1.89-.4 2.81-.76 1.08-.41 2.1-1 3.13-1.41.38-.17 1.08-.42 1.18-.26.66 1.09 1.23 2.29 1.85 3.45a23.65 23.65 0 011.16 2.24 22.18 22.18 0 01.73 2.22c.15.49.51 1 .63 1.47.07.33-.14.7-.1 1 0 .13.29.43.38.51a2.62 2.62 0 00.81.38 2.15 2.15 0 001.43-.33 1.09 1.09 0 00.25-.49 4.91 4.91 0 011.34-1.41c1.41-.67 2-2.09 3.41-2.74a10.61 10.61 0 002.4-1.75c.75-.68 1.6-.77 2.15 0z" fill="currentColor"/><path d="M64.06 134.52a108.09 108.09 0 01-28.56-6.86 70.83 70.83 0 01-13.62-7.28 53.5 53.5 0 01-11.78-11l14.21-11c4.25 5.5 10.66 9.74 18 12.69A89.65 89.65 0 0066 116.63z" fill="none"/><path d="M115.08 112.37a.58.58 0 00-.41 0 4.32 4.32 0 00-1.07 1.81 8 8 0 00-.1 1.51 5.37 5.37 0 01-.34 1c-.38 1.16-.77 1.71-1.24 2.86-.36.84-1 2-1.38 2.83s-.53 1-1.13.69l-.3-.17c-.51-.3-1-.6-1.5-.91-.22-.14-.41-.32-.63-.46-1-.61-1.56-1-2.52-1.72s-2.15-1.37-3-2c-.42-.33-.73-1-1.19-1.09a1.76 1.76 0 00-1.42.34c-.44.47-.28 1.18-.6 1.81s-.89 1.31-1.3 2-.9 1-1.31 1.5-.82 1.33-1.32 1.91c-.81 1-1.79 1.76-2.59 2.71-.6.73-1 .65-1.61 0l-2-1.95-2-2a10.3 10.3 0 01-2.29-2.82c-.24-.58-1.65-.88-2.18-.79a1.41 1.41 0 00-.66.23c-.5.38-.38 1.29-.5 1.85a2.58 2.58 0 01-.81 1.15 14.35 14.35 0 01-1.48 1.44c-.84.69-1.82 1.18-2.69 1.88-1.07.86-2.09 1.78-3.17 2.63-.06 0-.3-.1-.37-.22a11.8 11.8 0 00-.92-1.41 30.11 30.11 0 01-2.6-3.23c-.81-1.2-1.34-2.63-2-3.89a3.44 3.44 0 00-.71-.89l-.51 4.57a25 25 0 002.31 3.24 10.67 10.67 0 012.51 4.38 1.82 1.82 0 002.44 1.16c.11 0 .17-.18.24-.27s.38-.79.57-1 .61-.42.95-.75a2.1 2.1 0 01.24-.27l1.67-1.37c.72-.61 1.42-1.25 2.15-1.83s1.25-.89 1.84-1.4 1.25-1.19 1.87-1.75a.41.41 0 01.46 0 4.58 4.58 0 001.13.83 11.59 11.59 0 012.43 1.93c1 .94 1.84 2 2.76 3 .28.3.69.69.67 1 0 1 .78 1.19 1.28 1.33a1.21 1.21 0 001.57-.72c.19-.48.09-1.1.3-1.39l2.77-3.72c.58-.79 1.46-1.26 2.11-2s1.39-1.86 2.09-2.75c.26-.33.76-.86.93-.76 1.1.69 2.15 1.41 3.25 2.15.7.46 1.42.9 2.09 1.44s1.14 1.08 1.7 1.61c.36.35.91.58 1.26 1s.21.68.41 1a1.37 1.37 0 00.59.26 2.87 2.87 0 00.9 0 2.19 2.19 0 001.12-1 1.18 1.18 0 000-.56 4.93 4.93 0 01.5-1.88c.91-1.29.72-2.82 1.63-4.08a8.93 8.93 0 001.2-2.7c.29-1 1-1.49 1.8-1.14z" fill="currentColor"/><path d="M121.66 126.51a95.17 95.17 0 01-28.6 8 122.85 122.85 0 01-14.56.87c-4.84 0-9.65-.32-14.44-.81l2-17.89c4.17.42 8.34.69 12.49.7a103.27 103.27 0 0012.35-.74 77.21 77.21 0 0023.19-6.4z" fill="none"/><path d="M143.9 76.44c-.13.12-.22.24-.21.35a4.5 4.5 0 00.74 1.92c.23.38.77.63 1.12 1a6.4 6.4 0 01.63.91 26.37 26.37 0 011.53 2.75c.43.79.91 2 1.32 2.82s.48 1.06-.14 1.33l-.32.12a14.68 14.68 0 01-1.65.6c-.25.08-.51.12-.77.2-1.12.34-1.81.53-2.93.83s-2.34.78-3.4.94c-.53.1-1.24-.1-1.63.15a1.59 1.59 0 00-.62 1.24c.08.63.72 1 1 1.63a13.17 13.17 0 01.59 2.21c.17.64.12 1.29.24 1.95s.43 1.5.53 2.27c.17 1.26 0 2.45.1 3.73.08 1-.27 1.19-1.11 1.2h-1.39l-1.43-.06c-.94 0-1.87-.11-2.77-.2a8.5 8.5 0 01-3.47-.7c-.58-.33-1.75.24-2.06.6a1.19 1.19 0 00-.31.56c-.12.58.51 1.24.76 1.76a2.25 2.25 0 01.09 1.38 15.16 15.16 0 01-.33 2c-.26 1-.76 2-1.07 3.11-.4 1.29-.73 2.62-1.16 4 0 .06-.31.08-.43 0a11.28 11.28 0 00-1.55-.64 31.84 31.84 0 01-3.93-1.33 33.79 33.79 0 01-3.73-2.24 3.7 3.7 0 00-1.06-.43l1.94 4.18c.61.27 1.21.59 1.82.89a10 10 0 001.85.66 10.89 10.89 0 014.53 2.33A1.87 1.87 0 00128 120c.08-.08.05-.25.05-.35 0-.31-.12-.88-.07-1.17.07-.49.27-.71.37-1.18 0-.12 0-.24.05-.35.23-.68.44-1.38.62-2.08.25-.94.44-1.88.69-2.78.19-.75.52-1.42.67-2.19s.23-1.72.34-2.54c0-.14.21-.33.32-.31a4.56 4.56 0 001.38 0 18.65 18.65 0 013.09-.09c1.33.06 2.72.24 4.13.34.42 0 1 0 1.24.29.67.79 1.39.3 1.86 0a1.33 1.33 0 00.65-1.71c-.19-.48-.71-.85-.76-1.2-.11-.86-.21-1.59-.3-2.32s-.24-1.47-.39-2.31.05-2 0-2.91a28.68 28.68 0 00-.67-3.37c-.09-.41-.17-1.12 0-1.18 1.19-.39 2.55-.65 3.76-1 .79-.25 1.58-.52 2.41-.7s1.54-.21 2.33-.3c.51-.06 1.06-.34 1.58-.36.35 0 .67.26 1 .29a1.57 1.57 0 00.59-.3 2.57 2.57 0 00.5-.75 2.24 2.24 0 00-.08-1.53 1.12 1.12 0 00-.45-.33 5 5 0 01-1.16-1.61c-.4-1.51-1.68-2.29-2.18-3.81a10.06 10.06 0 00-1.4-2.6c-.58-.82-.53-1.64.22-2.12z" fill="currentColor"/><path d="M159.11 79.84a74.57 74.57 0 01-4.88 14.53l-.79 1.76c-.27.58-.6 1.14-.9 1.71l-1.86 3.41-2.14 3.28c-.37.54-.7 1.1-1.1 1.62l-1.23 1.55c-.84 1-1.59 2.1-2.52 3.07l-2.77 2.9a14.93 14.93 0 01-1.49 1.37l-1.55 1.32-1.55 1.31c-.53.43-1 .76-1.56 1.14a77.6 77.6 0 01-13.11 7.7l-7.6-16.32a58 58 0 0010.12-5.94c.39-.28.83-.55 1.17-.84l1-.87 1-.87a7.08 7.08 0 001-.91l1.89-2c.64-.65 1.16-1.44 1.75-2.15l.87-1.09c.29-.36.52-.78.79-1.17l1.58-2.35 1.36-2.52c.22-.42.47-.83.67-1.26l.59-1.33a56.45 56.45 0 003.69-11z" fill="none"/><path d="M132.83 31.63a.54.54 0 00.17.37 4.36 4.36 0 002 .6 7.47 7.47 0 001.47-.26 6.89 6.89 0 011.11.06 29.66 29.66 0 013.09.5c.92.12 2.16.46 3.07.64s1.14.25 1 .92c-.05.15-.09.28-.1.33-.17.57-.33 1.13-.52 1.68-.08.25-.2.48-.29.73-.38 1.1-.64 1.77-1.06 2.85s-.83 2.4-1.26 3.35c-.21.48-.8.94-.84 1.38a1.43 1.43 0 00.56 1.18c.54.29 1.2 0 1.88.15a14.08 14.08 0 012.14.81c.59.26 1.06.7 1.65 1s1.43.58 2.09 1c1.11.64 1.93 1.54 3 2.24.79.53.76.95.23 1.62a51 51 0 01-3.74 4.22 9.4 9.4 0 01-2.69 2.33c-.57.25-.87 1.59-.77 2.08a1.3 1.3 0 00.25.62c.38.46 1.29.35 1.85.46a2.4 2.4 0 011.16.77 9.86 9.86 0 011.44 1.45c.67.83 1.14 1.81 1.81 2.7l1.28 1.64c.41.55.82 1.1 1.22 1.67 0 .06-.13.3-.26.36a12.14 12.14 0 00-1.46.85 23.8 23.8 0 01-3.4 2.34 41.28 41.28 0 01-4.07 1.59 2.89 2.89 0 00-.94.57l4.49 1a24 24 0 003.45-2 9.93 9.93 0 012.21-1.37 11.54 11.54 0 012.37-.85 1.91 1.91 0 001.31-2.46c0-.11-.16-.19-.24-.26-.23-.2-.77-.43-1-.64-.35-.35-.37-.64-.72-1a3.19 3.19 0 01-.26-.26l-1.32-1.75-1.78-2.21c-.45-.6-.88-1.26-1.39-1.84s-1.21-1.22-1.79-1.82a.42.42 0 010-.45 4.59 4.59 0 00.82-1.14 13.08 13.08 0 011.8-2.49c.89-1 1.9-2 2.87-3 .3-.31.62-.76 1-.77 1 0 1.1-.9 1.18-1.44a1.32 1.32 0 00-.91-1.59c-.49-.14-1.1 0-1.41-.16a71.54 71.54 0 00-4.07-2.35c-.87-.46-1.49-1.25-2.29-1.77a30 30 0 00-3.1-1.46c-.37-.18-1-.53-.91-.7.46-1.19.95-2.42 1.39-3.65.29-.79.55-1.6.89-2.37a22 22 0 011.15-2c.26-.44.36-1 .64-1.46s.61-.38.84-.64a1.54 1.54 0 00.1-.64 2.62 2.62 0 00-.27-.86 2.14 2.14 0 00-1.24-.85 1.13 1.13 0 00-.54.16 4.66 4.66 0 01-1.94 0c-1.46-.58-2.9 0-4.35-.58a10.14 10.14 0 00-2.88-.56c-1-.05-1.68-.56-1.55-1.48z" fill="currentColor"/><path d="M144.92 21.79a87.58 87.58 0 018.44 12.45c.32.54.6 1.11.9 1.66s.59 1.09.87 1.73l1.65 3.74a13.58 13.58 0 01.7 1.9l.63 1.92.61 1.91c.19.65.3 1.3.46 1.94.28 1.29.57 2.59.83 3.88l.5 3.9a36.52 36.52 0 01.28 3.89c0 1.29.15 2.6.1 3.88a72.83 72.83 0 01-.52 7.69 74 74 0 01-1.26 7.56l-17.57-3.93a53.06 53.06 0 001-5.73 53.27 53.27 0 00.4-5.77c.05-1-.06-1.9-.08-2.86a22.18 22.18 0 00-.2-2.83l-.35-2.79-.59-2.71c-.11-.45-.17-.91-.31-1.35l-.43-1.29-.41-1.29a8 8 0 00-.46-1.27L139 45.59a13.64 13.64 0 00-.63-1.28c-.24-.43-.45-.87-.71-1.3a69.72 69.72 0 00-6.66-9.86z" fill="none"/><path d="M121.94 21.05a.77.77 0 00.5.38 1.45 1.45 0 001.23-.42 4.94 4.94 0 011.6-1.07 12.36 12.36 0 012-.22c1.09 0 2.13.23 3.25.26 1.34.08 2.76 0 4.14.14.07 0 .16.28.13.42a12.06 12.06 0 00-.26 1.67 29.6 29.6 0 01-.31 4.12 36.69 36.69 0 01-1.22 4.19 3.26 3.26 0 00-.14 1.11l3.57-2.91a22.89 22.89 0 00.61-3.94 11 11 0 011.13-4.94 1.89 1.89 0 00-1.09-2.57c-.09-.06-.25 0-.36 0-.3.06-.81.33-1.11.36-.49.06-.76-.09-1.25-.06H134c-.72-.05-1.44-.09-2.17-.1h-2.86c-.77 0-1.53-.11-2.3-.07-1.16 0-2.53 0-3.46.81-.72.67-1.8 1.98-1.27 2.84z" fill="currentColor"/><path d="M144.92 21.79a71.4 71.4 0 00-15-14.07l-10 15A53.86 53.86 0 01131 33.15z" fill="none"/><path d="M121.94 21.05a.77.77 0 00.5.38 1.45 1.45 0 001.23-.42 4.94 4.94 0 011.6-1.07 12.36 12.36 0 012-.22c1.09 0 2.13.23 3.25.26 1.34.08 2.76 0 4.14.14.07 0 .16.28.13.42a12.06 12.06 0 00-.26 1.67 29.6 29.6 0 01-.31 4.12 36.69 36.69 0 01-1.22 4.19 3.26 3.26 0 00-.14 1.11l3.57-2.91a22.89 22.89 0 00.61-3.94 11 11 0 011.13-4.94 1.89 1.89 0 00-1.09-2.57c-.09-.06-.25 0-.36 0-.3.06-.81.33-1.11.36-.49.06-.76-.09-1.25-.06H134c-.72-.05-1.44-.09-2.17-.1h-2.86c-.77 0-1.53-.11-2.3-.07-1.16 0-2.53 0-3.46.81-.72.67-1.8 1.98-1.27 2.84z" fill="currentColor"/></svg>