<svg xmlns="http://www.w3.org/2000/svg" viewBox="0 0 201.98 114.91"><path d="M26.6 18.09a36.79 36.79 0 013.57-1.89l1.7-.82 2.08-.9 2.05-.93c.74-.32 1.53-.62 2.3-.93l2.27-.92c.74-.28 1.44-.51 2.07-.72a123.12 123.12 0 0114.9-4.19 194.66 194.66 0 0143.71-4c2.41.07 4.83.1 7.25.25l3.62.2 3.61.29 1.14.09h.38c6.62.61 13.22 1.5 19.74 2.7 1.85.31 5 1 7.83 1.61s5.23 1.29 5.62 1.44c.65.23 3 .81 5.31 1.54L159 12l2 .71 2.2.8c1.12.42 2.52 1 4 1.61s2.91 1.33 4.19 1.91 2.28 1.2 2.9 1.52 1.38.78 2.05 1.21l2 1.28c1.37.82 2.61 1.8 3.88 2.74a56.29 56.29 0 018.41 7.68 38.33 38.33 0 016.2 9.51 28.44 28.44 0 011.95 6.54c0 .31.07.55.11.93a15.5 15.5 0 01.22 2.34c0 .83.09 1.69 0 2.55a33.89 33.89 0 01-4 13.93 52.51 52.51 0 01-8.7 11.93c-6.85 7.23-15.31 12.85-24.19 17.45a112.69 112.69 0 01-19.58 7.79 188.1 188.1 0 01-18.52 4.17c-3.14.5-6.27 1.1-9.42 1.49-1.58.21-3.15.45-4.73.63l-4.73.5c-3 .31-5.47.46-8.2.7s-5.73.33-9.73.25c-3.49.08-10-.32-13.45-.57-1.58-.08-3-.26-4.24-.37s-2.47-.23-3.65-.4l-3.63-.48-4.2-.74a101.74 101.74 0 01-20.2-5.9A72.72 72.72 0 0120 93.19a48.49 48.49 0 01-7.74-7.75c-.49-.56-.9-1.16-1.32-1.74S10 82.55 9.66 82c-.72-1.19-1.51-2.32-2.1-3.54a44.78 44.78 0 01-3.25-7.56 33.17 33.17 0 01-1-3.64c-.12-.61-.28-1.2-.36-1.81s-.15-1.23-.22-1.85a16.46 16.46 0 01-.13-1.87c0-.64-.05-1.28 0-1.93a35.36 35.36 0 01.4-4.1 40.27 40.27 0 014.29-13.13 49.56 49.56 0 018.32-11.27A70.7 70.7 0 0133 18.47a102.2 102.2 0 0120.22-8.13c2.11-.59 4.24-1.19 6.39-1.65L62.85 8 66 7.29c10.5-2.25 20.16-3 31.61-3.38l10-.37a60.63 60.63 0 007.51-.43c.81-.24-.38-.6.35-.85s-.48-.75-2.83-1.15c-1.18-.2-2.61-.38-4.15-.53s-3.19-.16-4.8-.15c-3.4 0-6.79.2-10.18.33s-6.78.45-10.15.84a173.4 173.4 0 00-21 3.31C56.81 6.22 51.44 8 46.23 9.78A113.75 113.75 0 0030 17.17a70.83 70.83 0 00-11.57 7.88A59.92 59.92 0 008.58 35.5a45.21 45.21 0 00-7 14.17A38.84 38.84 0 00.32 65.58a42 42 0 005.19 15.1A51.72 51.72 0 0015.5 93a67.14 67.14 0 0016.67 11.1 99.07 99.07 0 0018.56 6.66 137.53 137.53 0 0026.59 3.91 183.39 183.39 0 0026.83-.59 238.43 238.43 0 0026.49-4c2.19-.41 4.37-1 6.56-1.48s4.33-1.17 6.49-1.78a126.44 126.44 0 0012.64-4.61 107.31 107.31 0 0023.28-13.31 71.76 71.76 0 0012.09-11.6c.85-1 1.61-2.13 2.43-3.2s1.47-2.26 2.23-3.41 1.34-2.45 2-3.71l.87-2a18.18 18.18 0 00.83-2.09c.18-.56.38-1.18.56-1.76l.09-.3a31.08 31.08 0 00-.22-18.07 39 39 0 00-9.38-14.93 66.57 66.57 0 00-13.79-10.67A90.33 90.33 0 00159.12 9a165.05 165.05 0 00-19-4.95 217.59 217.59 0 00-36.25-4C100.83 0 97.78 0 94.74 0s-6.08.13-9.12.33c-6.07.34-12.14.89-18.17 1.82C54.11 4.08 40.67 7.09 28.76 13l-2.37 1.22c-.78.41-1.51.9-2.25 1.35L22 16.89l-1.84 1.4c-1.21.92-2 1.51-2.57 2s-1 .82-1.35 1.21c-.9.92-1.07 1.44-.72 1.6s1.93-.22 3.84-1.18 4.47-2.24 7.24-3.83z" fill="currentColor"/></svg>