<svg width="264" height="280" viewBox="0 0 264 280" xmlns="http://www.w3.org/2000/svg" xmlns:xlink="http://www.w3.org/1999/xlink"><defs><path d="M124 144.611V163h4c39.7645 0 72 32.2355 72 72v9H0v-9c0-39.7645 32.2355-72 72-72h4v-18.389c-17.2374-8.1886-29.6278-24.924-31.6949-44.7298C38.4803 99.0578 34 94.0522 34 88V74c0-5.946 4.3246-10.882 10-11.834V56c0-30.928 25.072-56 56-56s56 25.072 56 56v6.166c5.6754.952 10 5.888 10 11.834v14c0 6.0521-4.4803 11.0578-10.3051 11.8812-2.0671 19.8058-14.4575 36.5412-31.6949 44.7298z" id="a"/></defs><g fill="none" fill-rule="evenodd"><g mask="url(#mask-4)"><g transform="translate(32 36)"><mask id="b" fill="#fff"><use xlink:href="#a"/></mask><use fill="#D0C6AC" xlink:href="#a"/><g mask="url(#b)" fill="#EDB98A"><path d="M0 0h264v280H0z"/></g><path d="M156 79v23c0 30.928-25.072 56-56 56s-56-25.072-56-56V79v15c0 30.928 25.072 56 56 56s56-25.072 56-56V79z" fill-opacity=".1" fill="#000" mask="url(#b)"/></g><g transform="translate(0 170)"><defs><path d="M108 13.0709c-17.9187 2.005-31.7202 7.481-31.9958 21.574C50.1464 45.5682 32 71.1647 32 100.9996V110h200v-9.0005c0-29.8349-18.1464-55.4314-44.0042-66.3545-.2756-14.0932-14.0771-19.569-31.9958-21.5741V32c0 13.2548-10.7452 24-24 24s-24-10.7452-24-24V13.0709z" id="c"/></defs><mask id="d" fill="#fff"><use xlink:href="#c"/></mask><use fill="#B7C1DB" xlink:href="#c"/><g mask="url(#d)" fill="#FF5C5C"><path d="M0 0h264v110H0z"/></g><path d="M102 61.739V110h-7V58.1503c2.2038 1.3098 4.5468 2.5105 7 3.5888zm67-3.5887V98.5c0 1.933-1.567 3.5-3.5 3.5s-3.5-1.567-3.5-3.5V61.739c2.4532-1.0782 4.7962-2.279 7-3.5887z" fill="#F4F4F4" mask="url(#d)"/><path d="M90.9601 12.7244C75.9093 15.5712 65.5 21.2429 65.5 32.3077 65.5 52.02 98.5377 68 132 68s66.5-15.98 66.5-35.6923c0-11.0648-10.4093-16.7365-25.4601-19.5833C182.1249 16.0744 188 21.706 188 31.0769 188 51.469 160.1788 68 132 68S76 51.469 76 31.077c0-9.371 5.875-15.0025 14.9601-18.3526z" fill-opacity=".16" fill="#000" mask="url(#d)"/></g><g fill="#000"><path d="M118 149c0 7.732 6.268 14 14 14s14-6.268 14-14" fill-opacity=".7"/><path d="M120 130c0 4.4183 5.3726 8 12 8s12-3.5817 12-8" fill-opacity=".16"/><g transform="translate(76 90)" fill-opacity=".6"><circle cx="30" cy="22" r="6"/><circle cx="82" cy="22" r="6"/></g><g fill-opacity=".6"><path d="M102.5474 88.1484c-5.807.2683-15.1952 4.4879-14.9533 10.3438.008.1917.2895.2758.4271.1284 2.7549-2.9593 22.3154-5.9497 29.205-4.365.6305.1452 1.1095-.4768.7101-.9262-3.422-3.8482-10.1865-5.4264-15.389-5.181M162.4526 88.1484c5.807.2683 15.1952 4.4879 14.9533 10.3438-.008.1917-.2895.2758-.4271.1284-2.7549-2.9593-22.3154-5.9497-29.205-4.365-.6305.1452-1.1095-.4768-.7101-.9262 3.422-3.8482 10.1865-5.4264 15.389-5.181"/></g></g><defs><path id="e" d="M0 0h264v280H0z"/><path d="M1 64c.3469 1.4884 1.6728 1.2227 2 0-.4627-1.5543 3.296-28.752 13-36 3.6182-2.5166 23.0082-4.768 42.3126-4.7544C77.4086 23.259 96.4208 25.5106 100 28c9.704 7.248 13.4627 34.4457 13 36 .3272 1.2227 1.6531 1.4884 2 0 .7192-10.298 0-63.7256-57-63S.2808 53.702 1 64z" id="i"/></defs><mask id="f" fill="#fff"><use xlink:href="#e"/></mask><g mask="url(#f)"><g transform="translate(48 72)"><defs><path d="M101.4284 98.1686c-2.5136 2.294-5.1912 3.3257-8.5755 2.6043-.5823-.124-2.9566-4.5383-8.853-4.5383-5.8966 0-8.2705 4.4142-8.8532 4.5383-3.3843.7214-6.0619-.3103-8.5754-2.6043-4.7251-4.313-8.6547-10.2604-6.2935-16.7494 1.2306-3.3823 3.232-7.0955 6.8728-8.1733 3.8878-1.1504 9.3463-.002 13.2642-.7876 1.2693-.2548 2.6559-.7074 3.585-1.4583.9292.7509 2.3161 1.2035 3.5848 1.4583 3.9182.7856 9.3767-.3628 13.2644.7876 3.641 1.0778 5.6423 4.791 6.8732 8.1733 2.3612 6.489-1.5684 12.4364-6.2938 16.7494M140.081 26c-3.4103 8.4003-2.0932 18.858-2.7243 27.6759-.5127 7.1673-2.0196 17.9099-8.3838 22.5386-3.2545 2.3671-9.1785 6.3454-13.431 5.2357-2.9274-.7638-3.2397-9.1601-7.0866-12.3032-4.3636-3.5647-9.8123-5.131-15.3062-4.8891-2.3706.1044-7.165.0796-9.1492 1.9026-1.9842-1.823-6.7782-1.7982-9.1488-1.9026-5.4942-.2419-10.943 1.3244-15.3065 4.889-3.847 3.1432-4.159 11.5395-7.0863 12.3033-4.2525 1.1097-10.1765-2.8686-13.4313-5.2357-6.3646-4.6287-7.8708-15.3713-8.3841-22.5386-.6308-8.8179.6863-19.2756-2.724-27.6759-1.6591 0-.5649 16.1289-.5649 16.1289V62.485c.0317 15.2881 9.581 38.1703 30.754 46.9079C63.2861 111.5298 75.0153 115 84 115c8.9846 0 20.7137-3.1398 25.8919-5.2766 21.1729-8.7376 30.7223-31.9502 30.7543-47.2383V42.129S141.74 26 140.081 26" id="g"/></defs><mask id="h" fill="#fff"><use xlink:href="#g"/></mask><use fill="#331B0C" xlink:href="#g"/><g mask="url(#h)" fill="#4A312C"><path d="M-32 0h264v244H-32z"/></g></g><g transform="translate(74 34)"><mask id="j" fill="#fff"><use xlink:href="#i"/></mask><use fill="#28354B" xlink:href="#i"/><g mask="url(#j)" fill="#4A312C"><path d="M0 0h264v280H0z"/></g></g></g></g></g></svg>