<svg xmlns="http://www.w3.org/2000/svg" viewBox="0 0 83.25 178.79"><path d="M57 11l-2.14-1.34c-.19-.12-.5-.23-.53-.39-.08-.49-.38-.38-.72-.33s-.59.11-.75.28-.37.61-.27.78a2.19 2.19 0 00.86.68l1.4.71zm2.34-1.88l-4.18-2.66c-.27-.16-.48-.41-.75-.54a4.16 4.16 0 00-.79-.2 7.15 7.15 0 00-1-.27c-.4 0-.57.12-.57.42a1.47 1.47 0 00.54 1.32c.16.12.41.11.61.2.8.35 1.6.72 2.38 1.1s1.62.73 2.38 1.18c.47.27.92.57 1.38.87l1.84-.34-.26-.2c-.52-.3-1.07-.56-1.58-.88zm-7.66-6.07c.1.36.2.81.48 1a11.29 11.29 0 001.55.55c.92.39 2.62 1.56 3.51 2s1.93 1 2.87 1.55c.56.32 1.9 1.1 2.9 1.7l1.44-.26-.57-.51c-.58-.48-2.71-1.85-3.33-2.26S59 5.89 58.17 5.45A32.31 32.31 0 0053.89 3c-.51-.16-1-1.24-1.87-.38-.12.13-.37.32-.34.43zM61.09.71a.68.68 0 00-.42.12c-.29.2-.69.37-.38.81.15.22.6.35.84.5l1 .59A10.12 10.12 0 0163.77 4c.58.59.76.05 1.08-.11a1.38 1.38 0 00-.22-.68c-.1-.14-.4-.11-.56-.23-.73-.54-1.72-1.43-2.5-2a2.61 2.61 0 00-.48-.27zm3.62-.32a.48.48 0 00-.37-.34.56.56 0 00-.54 0 .68.68 0 00-.1.33c.15.44.19.39.36.48a.62.62 0 00.55 0 .5.5 0 00.1-.47zM56.09 2c-.14.44.33.58.64.74s.8.42 1.19.65c.94.54 1.83 1.14 2.76 1.71S64 7.27 64.85 7.76a.82.82 0 00.68-.12.75.75 0 00.22-.56c0-.11-.25-.23-.41-.3-.33-.15-.68-.27-1-.41S62.2 5 62 4.86c-.58-.46-1.08-1-1.68-1.42s-1.06-.67-1.59-1a7.12 7.12 0 00-1.55-.86 1 1 0 00-.63 0 .66.66 0 00-.46.42zm2.56 18.45c.73.47 1.51.88 2.23 1.39s1.57 1.24 2.37 1.84c1.13.86 2.24 1.75 3.42 2.54.32.21 1 .72 1.31 1s.42.28.62.48l.11.12a1 1 0 00.55.34c.21 0 .58 0 .59-.27s-.3-.64-.44-.84-.52-.45-.74-.71-1.11-.86-1.43-1.16c-.54-.49-1.15-.89-1.72-1.34-.92-.73-1.82-1.47-2.75-2.18-.62-.47-1.27-.89-1.89-1.34l-1.63-1.22c-.58-.41-1.13-.84-1.74-1.2a8.38 8.38 0 00-1.8-.89 3.14 3.14 0 00-1.29 0 .63.63 0 00-.4.35A1.74 1.74 0 0054 18c.36.48.58.81 1.39.58.42-.11 1.06.4 1.56.7s1.11.79 1.7 1.17zm-2.22-8.21c1.41.85 2.75 1.81 4.15 2.72s2.55 1.56 3.8 2.4a16.77 16.77 0 013 2.42c.53.64.75.11 1.09 0a1.33 1.33 0 00-.17-.69c-.09-.15-.39-.15-.54-.28-.73-.63-2-1.85-2.72-2.47a5.89 5.89 0 00-.68-.53l-3.87-2.49c-.37-.24-.62-.66-1-.91s-.93-.42-1.35-.68L57 11l-2.15.41a14 14 0 011.58.83zm6.15.21c.79.51 2.93 2.11 3.69 2.69a1.3 1.3 0 01.17.17c.29.46.51.41.76.38a.75.75 0 00.53-.46.74.74 0 00-.28-.64c-.25-.16-.52-.13-.74-.31-.57-.48-2.59-2.07-3.17-2.51-.76-.57-1.54-1.07-2.34-1.57l-1.84.34c.44.29.87.59 1.31.86.61.38 1.33.66 1.91 1.05zM70 35a1.49 1.49 0 00.07-.47 3.94 3.94 0 00-.61-1c-.22-.24-2.07-1.69-2.33-1.88a49.35 49.35 0 01-3.84-3.38c-2.23-2-4.71-3.14-6.93-4.5-.25-.15-.42-.46-.71-.53-1.38-.37-1 .86-.89 1.13a2.57 2.57 0 01.38.23c.51.36 1.62.77 2.15 1.11l2.47 1.53c.72.41 4.17 3.36 4.53 3.64s1.69 1.56 2.07 1.94c.22.21 1.85 1.41 2 1.68s.08.45.34.6 1.2.33 1.3-.1zM54.06 13.85c.73.56 1.5 1.09 2.29 1.6s1.43.8 2.13 1.23c1 .64 2.09 1.31 3.1 2s1.74 1.32 2.62 1.93 3.12 2.44 4 3a.82.82 0 00.69-.07.72.72 0 00.21-.54c0-.11-.23-.25-.38-.33-.32-.17-.66-.31-1-.48s-2-1.52-2.2-1.7c-.54-.5-1-1.09-1.57-1.54-1.25-1-2.56-1.87-3.83-2.79l-3-2.13a1.15 1.15 0 00-.31-.16 7.68 7.68 0 00-.69-.7c-.19-.14-.5-.16-.63-.33a1.45 1.45 0 00-1.43-.38c-.58.3-.6.93 0 1.39zm.63 7.15c-.29.38-.12.72.3.9.62.26 1.3.42 1.88.73 1.42.77 2.8 1.63 4.2 2.46.34.2 1 .89 1.31 1.11.69.47 1.34 1 2 1.5.48.39.89.84 1.37 1.22s1 .83 1.5 1.25l1.45 1.25c0 .05.55.5.51.57.51.3.51-.18.55-.42.12-.62-.45-.85-.85-1.17s-1.47-1.22-1.83-1.56c-.56-.53-1-1.19-1.59-1.71a21.17 21.17 0 00-2.19-1.68c-.87-.59-2-1.7-2.91-2.26s-1.49-1.06-2.29-1.48-1.68-.64-2.46-1c-.57-.38-.75-.02-.95.29zM63 9.86l.93.59c.4.26.79.56 1.17.86s.68.61 1.06.88c.1.06.34-.07.51-.11.2-.23.28-.71-.39-1a8.12 8.12 0 01-1.85-1.48zm-3 25.88l-2-1.58c-.17-.14-.46-.29-.46-.44 0-.49-.34-.42-.68-.42s-.6 0-.77.18-.45.55-.38.72a2.17 2.17 0 00.76.78l1.29.87zm2.6-1.53c-1.26-1.07-2.54-2.12-3.81-3.15-.24-.19-.42-.46-.68-.63a3.44 3.44 0 00-.76-.3 8.25 8.25 0 00-.93-.38c-.39-.1-.58.05-.62.34a1.43 1.43 0 00.38 1.37c.14.13.39.16.57.27.75.45 1.49.91 2.23 1.38s1.5.93 2.19 1.47c.43.33.85.69 1.26 1.05l1.87-.09-.3-.22c-.43-.39-.94-.72-1.4-1.11zm1.48-2.11c-.69-.6-1.43-1.14-2.17-1.67a31.84 31.84 0 00-3.94-3c-.49-.23-.83-1.36-1.81-.61-.14.14-.41.3-.39.42 0 .36.09.82.35 1a11.21 11.21 0 001.47.74c.86.49 2.4 1.86 3.23 2.43s1.78 1.24 2.65 1.91c.51.38 1.74 1.34 2.65 2.08l1.46-.07c-.17-.2-.33-.4-.5-.59-.51-.52-2.43-2.15-3-2.64zm-3.9 13.1c.63.59 1.31 1.13 1.92 1.76s1.29 1.53 1.94 2.3c.93 1.08 1.79 2.23 2.75 3.32a14 14 0 011 1.31 7.85 7.85 0 01.47.66l.08.16a.94.94 0 00.43.49c.2.09.56.18.65-.12a2.16 2.16 0 00-.19-1c-.11-.33-.39-.6-.54-.93s-.85-1.15-1.09-1.52c-.4-.62-.91-1.17-1.37-1.75-.74-.94-1.45-1.87-2.24-2.75-.51-.58-1.06-1.12-1.59-1.67L61 44a19 19 0 00-1.51-1.46 8.24 8.24 0 00-1.63-1.14 3 3 0 00-1.28-.16.64.64 0 00-.45.26 1.85 1.85 0 00-.15.57c.28.52.45.87 1.28.78.44 0 1 .55 1.41.92s.99.96 1.51 1.43zm-.89-8.31c1.29 1 2.46 2.17 3.71 3.27s2.26 2 3.37 3a15.52 15.52 0 012.49 3c.39.76.72.26 1.07.18a1.39 1.39 0 000-.75c-.07-.17-.36-.22-.49-.38-.6-.79-1.61-2.25-2.24-3a7.35 7.35 0 00-.59-.65c-1.12-1.07-2.31-2.07-3.44-3.08-.32-.3-.52-.74-.85-1s-.86-.54-1.24-.86l-1-.86-2.19.11c.45.31.93.65 1.4 1.02zM65.35 38c.7.62 2.59 2.56 3.24 3.28a1.55 1.55 0 01.14.2c.21.52.44.5.69.51a.76.76 0 00.6-.38.81.81 0 00-.18-.7c-.22-.21-.48-.22-.67-.44-.51-.58-2.25-2.49-2.78-3a26.6 26.6 0 00-2.09-1.89l-1.87.09 1.18 1c.55.45 1.19.82 1.74 1.33zm2.01 24.5a1.78 1.78 0 00.24-.45 3.9 3.9 0 00-.24-1.24c-.14-.32-1.39-2.35-1.61-2.61-1-1.43-1.79-3-2.74-4.41-1.64-2.52-3.81-4.15-5.71-5.86-.21-.19-.31-.51-.58-.64-1.28-.6-1.1.61-1.11.87a2.73 2.73 0 01.33.28c.42.44 1.43 1.06 1.87 1.49l2 2a24.74 24.74 0 011.86 2.39c.77 1 1.4 2.12 1.55 2.3a20.48 20.48 0 011.39 2.52 26.58 26.58 0 011.39 2.3c.06.33-.1.48.1.72s1 .71 1.26.34zM56.72 38.13c.65.64 1.31 1.26 2 1.87s1.29 1 1.91 1.52c.93.8 1.86 1.62 2.72 2.48s1.5 1.59 2.22 2.4c.34.37 1 1.13 1.64 1.91s1.26 1.58 1.61 1.95a.78.78 0 00.69.08.72.72 0 00.37-.5c0-.12-.17-.31-.3-.43s-.58-.47-.86-.71-1.67-2-1.82-2.17a20 20 0 00-1.25-1.85c-1-1.21-2.19-2.31-3.31-3.41a104.8 104.8 0 00-2.64-2.54 1 1 0 00-.29-.2 5.31 5.31 0 00-.59-.78c-.16-.16-.47-.23-.57-.41a1.5 1.5 0 00-1.37-.57c-.58.23-.69.84-.16 1.36z" fill="currentColor"/><path d="M56.19 45c-.34.3-.25.64.13.88.55.36 1.19.64 1.7 1 1.27 1 2.4 2.09 3.6 3.21.3.27.75 1.08 1 1.37a22.72 22.72 0 011.56 2c.35.5.63 1.05 1 1.56s.75 1.1 1.1 1.67l1 1.68c0 .07.38.68.31.73.39.47.56 0 .67-.25.29-.6-.19-1-.47-1.45l-1.31-2.1c-.41-.69-.66-1.47-1.08-2.13A19.6 19.6 0 0063.69 51c-.69-.79-1.61-2.12-2.34-2.83a26.87 26.87 0 00-2-1.88c-.69-.54-1.51-.91-2.21-1.43-.47-.41-.7-.1-.95.14zm9.93-9.55c.35.28.65.54.84.71a14.3 14.3 0 011 1c.32.34.6.72.93 1 .09.09.35 0 .53 0 .23-.21.37-.68-.25-1.12a8.81 8.81 0 01-1.62-1.71zm-8.42 24.4c-.43-.7-.87-1.38-1.34-2.05-.13-.18-.36-.4-.32-.54.13-.44-.19-.48-.52-.58a2.21 2.21 0 00-.79-.07c-.25.09-.58.34-.56.52a2 2 0 00.5.91l.94 1.18zm2.93-.58c-.88-1.41-1.76-2.77-2.71-4.07a8.12 8.12 0 00-.47-.76 4.1 4.1 0 00-.66-.47 6.78 6.78 0 00-.81-.6c-.35-.18-.57-.1-.68.15a1.31 1.31 0 000 1.31c.1.16.33.26.48.41.6.6 1.19 1.24 1.74 1.88a25.32 25.32 0 011.65 2c.3.44.56.91.83 1.38l1.79.54-.16-.29c-.31-.49-.63-.96-1-1.48zm2.06-1.56a24.28 24.28 0 00-1.6-2.23 23.22 23.22 0 00-3-3.81c-.42-.33-.5-1.44-1.62-1-.17.1-.47.18-.48.29a1.51 1.51 0 00.11 1 10.63 10.63 0 001.23 1 35.51 35.51 0 012.46 3.12 29.47 29.47 0 012 2.6c.37.53 1.25 1.84 1.83 2.86l1.4.42c-.08-.25-.17-.5-.26-.74a37.24 37.24 0 00-2.07-3.51zm-8.37 10.56c.3.78.71 1.59.94 2.41s.42 1.95.62 3c.23 1.38.43 2.86.64 4.31a13.61 13.61 0 01.16 1.69 7.51 7.51 0 010 .84v.18a1 1 0 00.09.66c.12.18.38.45.63.23a2.29 2.29 0 00.37-1 8.41 8.41 0 00.06-1.12 13.88 13.88 0 00-.11-1.93c0-.77-.18-1.52-.27-2.26-.15-1.19-.37-2.4-.62-3.53-.15-.75-.44-1.5-.66-2.23s-.37-1.28-.6-1.91a16.85 16.85 0 00-.79-1.9 7.35 7.35 0 00-1.06-1.63 3.22 3.22 0 00-1.12-.64.59.59 0 00-.5.05 2.23 2.23 0 00-.35.4 1.09 1.09 0 00.89 1.11c.41.14.69.86.94 1.37s.47 1.26.74 1.9zm2.32-7.63A42.08 42.08 0 0158.92 65a39.94 39.94 0 011.86 4.15 12.93 12.93 0 01.86 3.94c0 .9.52.57.87.65a1.77 1.77 0 00.33-.74c0-.19-.21-.37-.24-.58-.12-1-.45-2.89-.67-3.84a5.31 5.31 0 00-.26-.86c-.64-1.47-1.27-2.84-2-4.21-.2-.4-.22-.88-.42-1.27a14.31 14.31 0 00-.87-1.24l-.68-1.13-2.09-.63c.39.44.71.91 1.03 1.4zm5.28 3.13c.21.42.6 1.28.93 2.15s.63 1.76.79 2.24a.81.81 0 010 .25c0 .59.2.66.42.77a.71.71 0 00.71-.14.88.88 0 00.12-.76c-.11-.29-.36-.4-.44-.69-.18-.76-1.1-3.28-1.4-4a19.14 19.14 0 00-1.31-2.55l-1.74-.5.77 1.37c.38.63.81 1.2 1.15 1.86zM51.23 86.86a2.37 2.37 0 00.47-.26 4.73 4.73 0 00.57-1.18 23.55 23.55 0 00.21-3.14c0-1.74.17-3.54.17-5.23a22.3 22.3 0 00-2-7.83c-.11-.27-.06-.57-.24-.8-.87-1.1-1.22 0-1.32.17a2.87 2.87 0 01.16.39c.16.55.74 1.54.93 2.12.25.75.59 1.94.78 2.71a18.48 18.48 0 01.35 3c.06 1.27.05 2.56.06 2.79a22.63 22.63 0 01-.37 2.87 19.25 19.25 0 01-.26 2.72c-.14.31-.36.36-.34.67s.39 1.14.83 1zm2.58-26.04c.38.78.83 1.59 1.23 2.37s.83 1.37 1.2 2.09a32.91 32.91 0 011.48 3.35c.36 1 .6 2.07.9 3.16.15.5.33 1.48.51 2.51s.33 2.06.42 2.58c0 .18.34.37.56.4a.82.82 0 00.6-.28c.09-.09 0-.37 0-.54-.12-.38-.28-.73-.4-1.09s-.45-2.58-.52-2.86a20.42 20.42 0 00-.27-2.27 33.27 33.27 0 00-1.57-4.51c-.49-1.15-.94-2.23-1.51-3.3a1.55 1.55 0 00-.2-.29 5.81 5.81 0 00-.27-.89c-.1-.2-.37-.37-.4-.56a1.5 1.5 0 00-1.1-1c-.66.03-.97.5-.66 1.13z" fill="currentColor"/><path d="M50.85 66.29c-.43.08-.47.41-.23.78a14 14 0 011.06 1.65 31.06 31.06 0 011.65 4.45c.12.37.13 1.32.21 1.71a21.83 21.83 0 01.3 2.48v3.88c0 .35-.08 1.66-.13 2 0 .08-.09.79-.18.8.05.62.48.28.71.15.61-.36.47-1 .48-1.51s.07-2 .09-2.53c.07-.8.24-1.64.24-2.44A13.05 13.05 0 0054.7 75a32 32 0 00-.65-3.61 19.66 19.66 0 00-.87-2.52c-.39-.79-1-1.48-1.39-2.21-.29-.57-.63-.43-.94-.37zm12.69-4.69c.23.4.43.76.55 1a12.9 12.9 0 01.6 1.37c.16.45.27.92.46 1.36 0 .12.33.12.5.17.3-.12.62-.55.21-1.2a10.18 10.18 0 01-.92-2.3zM44.93 79.07v-2.41c0-.21-.07-.51 0-.6.33-.29.09-.5-.12-.76s-.4-.46-.61-.52-.64-.06-.72.08a2.06 2.06 0 00-.09 1l.14 1.5zm2.7 1.23c.06-.81.07-1.64.07-2.45s0-1.58-.08-2.38a6.59 6.59 0 000-.89 3.33 3.33 0 00-.31-.74 6.43 6.43 0 00-.37-.91c-.2-.33-.43-.39-.64-.26a1.1 1.1 0 00-.64 1 2.62 2.62 0 00.19.58c.17.81.31 1.64.43 2.48a16.15 16.15 0 01.22 2.58 15 15 0 01-.1 1.62l1.14 1.48v-.34c.08-.56.05-1.18.09-1.77zm2.58-.13a16.58 16.58 0 00-.09-2.73c-.07-.65-.12-1.56-.12-2.44a10 10 0 00-.47-2.35c-.18-.48.27-1.42-.9-1.62-.19 0-.49-.11-.55 0-.2.25-.45.56-.4.86a12.48 12.48 0 00.55 1.5 30.44 30.44 0 01.44 3.89 31.07 31.07 0 01.18 3.25c0 .63-.06 2.19-.19 3.4l.89 1.16c.09-.26.16-.52.23-.78a20.64 20.64 0 00.32-2c.06-.93.09-1.76.11-2.14zM37.3 83.45a23 23 0 01-.86 2.4 18.37 18.37 0 01-1.55 2.58c-.78 1.25-1.72 2.35-2.65 3.57a9.11 9.11 0 01-1.18 1.3c-.22.19-.36.4-.62.59l-.16.11a1 1 0 00-.46.52c-.05.21-.08.58.28.61a2.56 2.56 0 001.07-.39 6.93 6.93 0 00.91-.73 17.44 17.44 0 001.39-1.48 13.44 13.44 0 001.46-1.81 24.94 24.94 0 002-3c.37-.69.68-1.4 1-2.08s.53-1.25.76-1.86a11.75 11.75 0 00.59-1.94 7.34 7.34 0 00.16-1.92 3.33 3.33 0 00-.47-1.2.67.67 0 00-.41-.29 1 1 0 00-.49.08 1.15 1.15 0 000 1.45c.23.39 0 1.08-.13 1.61s-.44 1.22-.64 1.88z" fill="currentColor"/><path d="M43.63 79.05a22.13 22.13 0 01-.27 2.39q-.21 1.17-.48 2.4a35.18 35.18 0 01-1.19 4.43 13.12 13.12 0 01-2 3.58c-.65.67 0 .77.22 1.06a1.7 1.7 0 00.79-.34c.15-.14.09-.43.2-.62a31.46 31.46 0 002.1-3.43 5.14 5.14 0 00.35-.84 35.29 35.29 0 001.09-4.55c.09-.42.35-.84.42-1.28s0-1 0-1.49.09-.84.1-1.29l-1.36-1.73a14 14 0 01.03 1.71zM46 84.73a19.76 19.76 0 01-.61 2.27c-.29.92-.63 1.84-.83 2.29a1.43 1.43 0 01-.14.23c-.41.46-.29.65-.19.87a.74.74 0 00.66.34 1 1 0 00.63-.52c.1-.3 0-.54.1-.83A33.55 33.55 0 0047 85.3a18.76 18.76 0 00.49-2.84L46.39 81c0 .53-.13 1-.19 1.55-.09.69-.06 1.45-.2 2.18zm-24.85 8.81a2.94 2.94 0 00.53.27 3.84 3.84 0 001.4-.21 25.6 25.6 0 002.82-1.68 49.9 49.9 0 004.25-3.35 11.89 11.89 0 002.46-3.41A27.24 27.24 0 0034 81.62c.09-.26.31-.43.33-.72 0-1.37-.82-.89-1-.82s-.07.25-.13.38c-.21.51-.44 1.68-.69 2.18-.31.68-.87 1.75-1.26 2.47a15.47 15.47 0 01-1.88 2.28 21 21 0 01-2.07 1.86 10 10 0 01-1.22.88c-.52.3-1.07.58-1.33.7a14.72 14.72 0 01-2.48 1.41c-.35.05-.53-.11-.79.07s-.76.95-.33 1.23zM41.3 77.48c-.12.86-.25 1.71-.38 2.57s-.15 1.58-.31 2.35a22 22 0 01-1 3.5 24.06 24.06 0 01-1.4 3c-.24.44-.76 1.36-1.36 2.24s-1.26 1.72-1.56 2.18a.69.69 0 00.12.68.9.9 0 00.67.19c.14 0 .29-.27.38-.43.18-.35.32-.71.49-1.06s1.48-2.31 1.62-2.52.48-.62.72-.92a7.41 7.41 0 00.62-1 22.64 22.64 0 001-2.22c.26-.76.5-1.52.72-2.26a31.93 31.93 0 00.81-3.49 1.22 1.22 0 000-.33 4.94 4.94 0 00.28-.88c0-.22-.08-.51 0-.68a1.52 1.52 0 00-.33-1.4c-.51-.38-.99-.21-1.09.48z" fill="currentColor"/><path d="M36 79.69c-.36-.23-.58 0-.63.38A15.65 15.65 0 0135.1 82a23.86 23.86 0 01-1.72 4.37 16.1 16.1 0 01-1.05 1.33 12 12 0 01-1.59 2c-.43.45-.95.83-1.41 1.29a13.05 13.05 0 01-1.63 1.32c-.28.21-1.45 1-1.79 1.2-.07.07-.73.4-.81.34-.49.41.1.55.38.67.75.25 1.18-.28 1.65-.62s1.75-1.2 2.14-1.57c.67-.54 1.44-.94 2-1.49a13 13 0 001.8-2.22 21.77 21.77 0 002-3.06 13.66 13.66 0 001-2.45c.21-.84.21-1.69.35-2.54.13-.57-.2-.73-.42-.88zm12.64 4.21c0 .48-.11.87-.15 1.13-.1.49-.23 1-.38 1.48s-.34.94-.47 1.42c0 .12.19.28.3.43.32.08.84-.1.91-.89a11.63 11.63 0 01.68-2.41zm-24.75.01a14.42 14.42 0 001.86-1.41c.15-.13.34-.38.46-.36.37.09.39-.23.46-.56a2.81 2.81 0 00.06-.79c-.08-.24-.27-.54-.4-.5a2.3 2.3 0 00-.74.56l-1 1zm.53 2.92a18.78 18.78 0 003.62-3 8 8 0 00.59-.57 3.52 3.52 0 00.3-.71 6.53 6.53 0 00.37-.9c.1-.38 0-.58-.21-.64a.77.77 0 00-1 .18c-.11.12-.17.37-.28.53-.21.34-.45.69-.69 1s-.51.62-.79.92a14.07 14.07 0 01-1.84 1.77 12.63 12.63 0 01-1.34.83L22.61 88l.3-.17c.54-.31 1.01-.66 1.51-1z" fill="currentColor"/><path d="M26.11 88.81A14 14 0 0028.16 87l.77-.77c.29-.31.6-.64.88-1a7.48 7.48 0 001.3-1.92c.2-.5 1.1-.83.47-1.81-.12-.14-.25-.42-.34-.4-.28.06-.63.09-.8.31-.26.38-.38 1-.63 1.41a9.53 9.53 0 01-1.13 1.52l-1.3 1.39A14.06 14.06 0 0125 87.88c-.26.2-.71.53-1.25.89s-1.13.67-1.68 1l-.44 1.4c.28-.08.55-.15.81-.24s.49-.19.82-.34.74-.4 1.11-.62c.74-.49 1.43-.97 1.74-1.16zm-9.66-8.95a15.68 15.68 0 01-2.52.45 23.78 23.78 0 01-3-.11 41.62 41.62 0 01-4.4-.68 15.64 15.64 0 01-1.72-.46 7.52 7.52 0 01-.81-.28l-.17-.09a1 1 0 00-.67-.2c-.21 0-.55.19-.42.54s.63.62.87.79a10.48 10.48 0 001.1.48 11.73 11.73 0 002 .58 20.07 20.07 0 002.32.44 22.65 22.65 0 003.64.31 15 15 0 002.31-.17c.67-.07 1.33-.14 2-.24a13.87 13.87 0 002-.51 6.07 6.07 0 001.69-.84 3.78 3.78 0 00.78-1 .62.62 0 000-.48A1.25 1.25 0 0021 78a1.11 1.11 0 00-1.21.72c-.21.38-.94.56-1.47.74a19 19 0 01-1.87.4zm6.77 3.02a20.84 20.84 0 01-4.33 2c-.7.25-1.43.5-2.17.72s-1.48.37-2.27.5a11.4 11.4 0 01-4.16 0c-.94-.22-.69.38-.83.71a2 2 0 00.71.52c.2.07.43-.13.65-.11a30.82 30.82 0 004.06.13 5.27 5.27 0 00.9-.11c.81-.2 1.58-.42 2.33-.66a19.76 19.76 0 002.18-.81c.41-.17.89-.16 1.28-.33a10.87 10.87 0 001.23-.81l1.09-.69.66-2.09a15.45 15.45 0 01-1.33 1.03zM19.83 88a17.45 17.45 0 01-2.32.7c-.93.2-1.92.37-2.44.45a2.5 2.5 0 01-.28 0c-.63-.11-.72.07-.86.27a.75.75 0 00.06.76 1.14 1.14 0 00.82.26c.32-.07.47-.3.78-.34s1.32-.15 2.21-.34 1.75-.45 2.12-.56a13.44 13.44 0 002.69-1.2l.56-1.79-1.4.75c-.64.32-1.24.72-1.94 1.04zM0 70.1a2.14 2.14 0 000 .62A5.66 5.66 0 00.87 72a14.91 14.91 0 001.34 1c.65.39 1.3.73 1.46.81.85.4 1.59.87 2.44 1.25s1.63.75 2.42 1a12.34 12.34 0 004.18.57 27 27 0 003.76-.47c.28 0 .55 0 .81-.09 1.23-.63.38-1.11.21-1.23l-.38.08c-.54 0-1.61.39-2.21.44a22.74 22.74 0 01-2.74.06 11.86 11.86 0 01-2.89-.59 21.3 21.3 0 01-2.63-1 16.26 16.26 0 01-2.57-1.57 19.64 19.64 0 01-2.35-1.66c-.22-.31-.17-.55-.43-.71S.11 69.56 0 70.1z" fill="currentColor"/><path d="M23.33 80.07c-.71.38-1.48.79-2.26 1.12s-1.38.7-2.14 1a24.79 24.79 0 01-3.5.94c-1 .15-2.15.19-3.31.24a22.13 22.13 0 01-2.61-.14c-.53 0-1.09-.1-1.56-.17s-.86-.14-1.13-.17-.46.22-.54.43a1 1 0 00.15.71c.08.11.36.14.55.13.41 0 .8-.06 1.2-.09s2.72.25 3 .25a17.62 17.62 0 002.35.23 14.25 14.25 0 002.47-.28 21.88 21.88 0 002.3-.51 22.67 22.67 0 003.34-1.18 1.86 1.86 0 00.29-.19 5.83 5.83 0 00.84-.24c.19-.1.37-.35.54-.38a1.53 1.53 0 00.93-1.08c.01-.59-.32-.93-.91-.62zm-4.26-3.22c0-.42-.25-.49-.65-.32a11.66 11.66 0 01-1.77.74 22.45 22.45 0 01-2.28.44c-.77.09-1.53.13-2.34.16a12.27 12.27 0 01-1.7-.27 15.29 15.29 0 01-2.47-.51 16.93 16.93 0 01-1.79-.69c-.64-.24-1.29-.53-1.95-.84-.33-.14-1.51-.86-1.84-1.07-.07 0-.71-.48-.69-.57-.61-.26-.44.33-.4.63.11.8.75 1 1.25 1.22s1.95 1 2.42 1.18.75.43 1.11.64a8.75 8.75 0 001.17.53 11.46 11.46 0 002.79.58 20.85 20.85 0 003.66.3 17.63 17.63 0 002.59-.32c.83-.24 1.62-.7 2.38-1 .54-.2.44-.54.51-.83zm2.99 12.87c-.42.22-.81.41-1.06.52a7.88 7.88 0 01-1.49.49c-.49.13-1 .19-1.5.33-.13 0-.14.31-.2.48a.89.89 0 001.31.35 15.23 15.23 0 012.5-.77zM9.91 68.45a15.9 15.9 0 002.09 1c.18.07.48.13.5.24.05.35.36.23.68.15a3 3 0 00.74-.31c.19-.16.4-.45.32-.55a2.16 2.16 0 00-.82-.37 13.14 13.14 0 01-1.34-.44zm-2.37 1.71a18.24 18.24 0 004.3 1.84 4.24 4.24 0 00.81.25 3.48 3.48 0 00.78 0 7.77 7.77 0 001-.09c.37-.09.51-.26.48-.47a.84.84 0 00-.65-.78 3.65 3.65 0 00-.58 0 18 18 0 01-2.41-.43 12.59 12.59 0 01-2.34-.83 8.91 8.91 0 01-1.37-.83L5.68 69l.26.2a17.43 17.43 0 001.6.96z" fill="currentColor"/><path d="M6.52 72.56a13.52 13.52 0 002.54 1c.64.17 1.49.47 2.32.67a7.26 7.26 0 002.31.22c.52 0 1.17.59 1.77-.44.08-.16.27-.41.22-.48-.15-.22-.33-.5-.63-.53-.46 0-1.06.14-1.54.12a9.42 9.42 0 01-1.83-.29c-.72-.16-1.4-.39-1.85-.53a15.15 15.15 0 01-3-1.15 19.74 19.74 0 01-2.94-1.87l-1.45.19a3.85 3.85 0 00.56.65 14 14 0 001.73 1.36 13.25 13.25 0 001.79 1.08zm4.53-11.91A13.8 13.8 0 0110 58.36a21.23 21.23 0 01-.54-3c-.06-.7-.09-1.44-.11-2.2v-2.29a13.92 13.92 0 01.18-1.79 7.28 7.28 0 01.14-.88l.07-.18a1 1 0 00.08-.69c-.08-.2-.28-.51-.6-.32s-.52.71-.65 1a10.27 10.27 0 00-.31 1.18 12 12 0 00-.25 2 19.63 19.63 0 000 2.41 20.73 20.73 0 00.41 3.68 15.49 15.49 0 00.74 2.21 11.34 11.34 0 00.79 1.79 11.89 11.89 0 001 1.65 5.21 5.21 0 001.4 1.23 4.54 4.54 0 001.23.38.78.78 0 00.47-.08c.12-.07.14-.2.2-.3-.18-.38-.25-.65-1.07-.84-.43-.09-.82-.66-1.15-1.09a6.34 6.34 0 01-.54-.81zm-.44 6.81a11.44 11.44 0 01-1-.63c-.29-.23-.57-.48-.86-.74a16.44 16.44 0 01-1.65-1.75 17.42 17.42 0 01-2.55-3.87 15.63 15.63 0 01-.77-2 8.26 8.26 0 01-.29-2.19c0-1-.52-.59-.89-.64a2.57 2.57 0 00-.37.9c0 .22.22.39.25.62a21.21 21.21 0 00.41 2.15 20.15 20.15 0 00.55 2 7.19 7.19 0 00.43.88 23.07 23.07 0 001.35 2A20.6 20.6 0 006.8 66c.32.32.45.76.79 1s.88.5 1.28.77.7.47 1 .67l2.17-.29a10.34 10.34 0 01-1.43-.69zm-6.05-1.04a20.07 20.07 0 01-1.51-2 19.43 19.43 0 01-1.22-2.28 1.66 1.66 0 01-.09-.28c-.09-.69-.31-.72-.54-.79a.71.71 0 00-.69.36 1.27 1.27 0 000 .94c.16.3.43.36.56.67s.23.52.4.89.47.79.73 1.2c.51.8 1 1.53 1.28 1.84a15.89 15.89 0 002.2 2l1.85-.25-1.22-1a11.94 11.94 0 01-1.75-1.3zm12.51-23.48a1.92 1.92 0 00-.55.12 5.27 5.27 0 00-.93 1c-.08.16-.37.83-.62 1.49s-.45 1.39-.49 1.55c-.22.9-.52 1.72-.76 2.59s-.46 1.74-.62 2.57A13.1 13.1 0 0014.53 60c.12.24.1.5.29.71.91 1 1.13.21 1.19.05s-.14-.24-.18-.36c-.18-.47-.74-1.44-.91-2-.1-.35-.25-.84-.35-1.31l-.23-1.33a11.39 11.39 0 01.09-3c.08-.63.2-1.27.3-1.78s.21-.85.23-1a16.26 16.26 0 011-2.79 21.59 21.59 0 011-2.6c.23-.29.47-.26.55-.56s.05-1.12-.44-1.09z" fill="currentColor"/><path d="M13.19 66.54c-.59-.42-1.26-.91-1.91-1.46s-1.11-1-1.63-1.55a13 13 0 01-2-3c-.12-.25-.24-.5-.35-.77L7.05 59c-.17-.53-.32-1.08-.47-1.64a13.94 13.94 0 01-.43-2.66c-.05-.55-.09-1.12-.12-1.62L6 51.9c0-.21-.3-.41-.53-.45a1 1 0 00-.69.31c-.11.1-.06.42 0 .61.07.41.2.8.3 1.19 0 .15.08.88.15 1.57s.21 1.39.22 1.54a17.48 17.48 0 00.3 2.4 16 16 0 002.2 4.33c.35.49.71.95 1.06 1.38A14.05 14.05 0 0010.24 66a1.3 1.3 0 00.27.18 4.34 4.34 0 00.52.62c.16.12.48.17.59.3a1.66 1.66 0 001.38.36c.62-.21.64-.58.19-.92zm1.45-4.14c.4 0 .38-.28.1-.6a9 9 0 01-1.2-1.47 16 16 0 01-1-2 16.51 16.51 0 01-.65-2.24 12.28 12.28 0 010-1.72 15.41 15.41 0 01.11-2.56c0-.66.28-1.24.39-1.88s.3-1.37.49-2.06c.09-.33.54-1.62.68-2 0-.07.31-.77.4-.77.12-.63-.4-.37-.68-.28-.73.24-.74.89-.91 1.42s-.59 2.06-.73 2.56-.29.8-.44 1.2a6.89 6.89 0 00-.33 1.24 10.28 10.28 0 00-.1 2.87 15.83 15.83 0 00.42 3.63 10.92 10.92 0 00.95 2.4 18.16 18.16 0 001.56 1.96.87.87 0 00.94.3zM3.88 69.28c-.37-.31-.69-.6-.89-.79a13.1 13.1 0 01-1.11-1.22c-.34-.42-.55-.92-.87-1.35-.08-.11-.34 0-.52 0a1 1 0 00.19 1.46 14.35 14.35 0 011.75 2.09zM21 52.18a18 18 0 00-.62 2.29c0 .2-.05.51-.16.56-.38.15-.19.42-.05.72s.27.54.45.66.57.27.67.16a2 2 0 00.27-.92c.06-.49.14-1 .23-1.44zm-2.26-1.93a22.74 22.74 0 00-.68 2.33c-.16.79-.3 1.55-.4 2.29a4.74 4.74 0 00-.13.84 4.33 4.33 0 00.19.77 7.19 7.19 0 00.24.94c.15.36.35.47.55.4a.94.94 0 00.69-.82 3.32 3.32 0 00-.08-.59 20.7 20.7 0 01.05-2.41 15.84 15.84 0 01.4-2.5 10.48 10.48 0 01.53-1.52l-.68-1.74-.14.3c-.23.51-.35 1.15-.54 1.71z" fill="currentColor"/><path d="M16.19 49.72a16.53 16.53 0 00-.54 2.68c-.06.66-.2 1.55-.27 2.4a6.55 6.55 0 00.19 2.3c.14.5-.36 1.23.75 1.66.18.05.45.19.5.14s.42-.4.39-.69c-.05-.46-.32-1-.38-1.49a16.15 16.15 0 01.17-3.78 17.58 17.58 0 01.58-3.18 27.57 27.57 0 011.13-3.26l-.53-1.36c-.16.23-.33.44-.46.67a18.31 18.31 0 00-.89 2l-.43 1.12c-.06.31-.15.61-.21.79zm13.28.62A24.14 24.14 0 0131 48.29c.67-.69 1.47-1.31 2.26-2 1.11-.89 2.35-1.72 3.59-2.59a13.1 13.1 0 011.5-.88c.27-.12.47-.29.77-.4l.18-.06a1 1 0 00.6-.37c.11-.18.25-.54-.08-.66a2.73 2.73 0 00-1.14.08 10.28 10.28 0 00-1.09.43 10.78 10.78 0 00-1.75 1 20.83 20.83 0 00-1.93 1.28c-1 .73-2 1.5-2.82 2.27-.57.55-1.08 1.15-1.58 1.72a18.78 18.78 0 00-1.3 1.51 16.05 16.05 0 00-1.16 1.66 6.83 6.83 0 00-.74 1.78 3.59 3.59 0 00.09 1.29.63.63 0 00.29.4 1.29 1.29 0 00.48.06 1.09 1.09 0 00.47-1.34c-.1-.43.34-1 .62-1.51a13.71 13.71 0 011.21-1.62zm-7.28 2.23a14 14 0 01.92-2.18c.36-.7.74-1.47 1.16-2.16a30.32 30.32 0 012.52-3.82 18.09 18.09 0 011.37-1.53 8.44 8.44 0 011.63-1.27c.82-.45.24-.74.13-1.08a1.93 1.93 0 00-.86.09c-.18.07-.21.37-.38.51-.84.65-2.32 1.91-3 2.6a6.64 6.64 0 00-.6.71c-.47.67-.9 1.33-1.31 2s-.77 1.38-1.12 2c-.21.39-.59.67-.78 1.06s-.26 1-.43 1.44L21 52.18l.79 2a14.1 14.1 0 01.4-1.61zm-.63-6.11c.23-.42.73-1.21 1.28-2s1.19-1.52 1.52-1.92a1.31 1.31 0 01.2-.18c.53-.32.48-.54.45-.78a.72.72 0 00-.53-.51 1 1 0 00-.76.32c-.19.26-.15.52-.36.75a20.39 20.39 0 00-1.36 1.7c-.53.72-1 1.43-1.23 1.75a18.2 18.2 0 00-1.31 2.61l.68 1.74.62-1.44a18.2 18.2 0 01.8-2.04zm25.8-1.74a2.12 2.12 0 00-.42-.32 4.08 4.08 0 00-1.3 0c-.36.07-2.67 1-3 1.13-.79.36-1.63.72-2.44 1s-1.61.63-2.39 1a12.49 12.49 0 00-3.38 2.54 28.35 28.35 0 00-2.43 3c-.17.23-.44.34-.54.61-.48 1.29.51 1.08.73 1.06a3.08 3.08 0 01.24-.34c.37-.44.92-1.39 1.32-1.84s1.38-1.46 2-2A15.34 15.34 0 0138.23 49c1.12-.6 2.29-1.13 2.49-1.24a19.39 19.39 0 012.75-1c.16 0 .71-.29 1.28-.52a7.08 7.08 0 011.31-.41c.34 0 .47.19.74 0s.9-.78.56-1.11zM23.92 54.76c.35-.78.71-1.56 1.07-2.34s.63-1.42 1-2.12a20.4 20.4 0 012-3 24.45 24.45 0 012.26-2.42c.18-.18.46-.45.81-.76s.74-.62 1.16-.94c.82-.64 1.71-1.33 2.13-1.63a.69.69 0 00.09-.69.83.83 0 00-.58-.39c-.13 0-.35.18-.48.31s-.52.59-.78.88c-.1.1-.64.52-1.16.93s-1 .88-1.14.95a21.37 21.37 0 00-1.86 1.38 26 26 0 00-3 3.77c-.34.51-.66 1-1 1.51s-.58 1-.83 1.57a1.16 1.16 0 00-.11.32 6.87 6.87 0 00-.52.72c-.1.19-.07.51-.18.65a1.61 1.61 0 00-.06 1.45c.43.5.89.43 1.18-.15z" fill="currentColor"/><path d="M29.57 54.33c.27.34.54.21.73-.19a13.66 13.66 0 01.82-1.77 25.15 25.15 0 013-3.61c.27-.28 1.09-.73 1.41-1a15.22 15.22 0 012.1-1.38c.54-.3 1.17-.55 1.72-.82s1.22-.57 1.85-.84c.31-.15 1.56-.66 1.89-.75.08 0 .76-.24.8-.16.54-.31.05-.55-.17-.71-.58-.43-1.08 0-1.58.21l-2.35 1c-.74.27-1.65.49-2.37.84a13.64 13.64 0 00-1.24.7c-.39.27-.77.57-1.13.87s-1 .71-1.48 1.09A10.69 10.69 0 0032.18 49a14.9 14.9 0 00-1.7 2c-.45.73-.73 1.59-1.12 2.31-.27.56.02.79.21 1.02zM18.75 46.5c.19-.42.37-.8.49-1 .23-.45.51-.9.8-1.35s.64-.77.92-1.18c.07-.11-.1-.33-.16-.5-.29-.17-.87-.19-1.19.55a10.87 10.87 0 01-1.39 2.16zM43 53.72c-.76.32-1.48.62-2.2 1-.19.1-.44.3-.56.24-.4-.18-.49.13-.63.43a2.29 2.29 0 00-.21.77c0 .25.2.61.37.61a2.3 2.3 0 00.93-.34l1.3-.77zm0-2.98c-.77.3-1.53.65-2.25 1s-1.42.68-2.12 1.09c-.26.15-.55.22-.79.39a4.22 4.22 0 00-.52.59 7.38 7.38 0 00-.65.73c-.22.33-.17.56 0 .69a1 1 0 001.18.13c.16-.08.29-.3.45-.43a24.87 24.87 0 012-1.44 15.81 15.81 0 012.25-1.3c.48-.22 1-.4 1.5-.58l.86-1.66-.32.11c-.59.19-1.09.47-1.59.68zm-1.26-2.28a14.46 14.46 0 00-2.44 1.26c-.56.34-1.37.71-2.12 1.17a8.33 8.33 0 00-1.82 1.48c-.33.36-1.31.44-1 1.56.07.16.11.46.2.48a1 1 0 00.85 0 15.59 15.59 0 001-1.18 25.58 25.58 0 013.29-2.08 29.63 29.63 0 012.85-1.53 30.6 30.6 0 013.17-1.26l.67-1.3-.79.11a26.57 26.57 0 00-3.86 1.29zm8.68 10.29c.84-.13 1.7-.34 2.57-.41s2 0 3 0c1.45 0 2.85.15 4.33.16a11.54 11.54 0 011.68.14 8.13 8.13 0 01.81.1h.17a1 1 0 00.66 0c.2-.09.5-.3.34-.57s-.63-.42-.87-.53a7.43 7.43 0 00-1.06-.25 18.17 18.17 0 00-1.92-.21 18.6 18.6 0 00-2.24-.16C56.68 57 55.5 57 54.33 57c-.78 0-1.56.12-2.31.18s-1.33.08-2 .19a18.87 18.87 0 00-2 .34 7.29 7.29 0 00-1.82.68 3.52 3.52 0 00-.87 1 .68.68 0 00-.07.5c.06.16.22.27.33.42a1.07 1.07 0 001.32-.59c.23-.37 1-.47 1.55-.61a17.29 17.29 0 011.96-.36zm-6.9-3.86a35.33 35.33 0 014.65-1.36 41 41 0 014.46-.91c.52-.07 1.26-.14 2-.17a9.82 9.82 0 012 .15c.87.2.66-.38.82-.71a1.68 1.68 0 00-.64-.48c-.18-.06-.4.13-.61.12-1-.07-2.91-.17-3.88-.16a4.47 4.47 0 00-.89.08 43.31 43.31 0 00-4.56 1c-.43.12-.91 0-1.33.15s-.89.43-1.35.61l-1.19.51-1 1.94a17.37 17.37 0 011.52-.77zm4.11-4.54a22.64 22.64 0 012.31-.46c.93-.12 1.88-.22 2.38-.27a1.64 1.64 0 01.26 0c.59.14.71-.05.86-.24a.71.71 0 000-.72.94.94 0 00-.73-.3c-.31.05-.47.27-.77.28s-1.26.07-2.14.19-1.72.25-2.09.32a16.59 16.59 0 00-2.78.77l-.86 1.66 1.5-.51c.69-.2 1.35-.53 2.06-.72zm20.46 14.48a1.64 1.64 0 00-.18-.48 4.79 4.79 0 00-1.07-.65 30.2 30.2 0 00-3-.59c-1.75-.21-3.4-.7-5.11-1a15.61 15.61 0 00-4.25-.08c-1.33.11-2.62.36-3.86.56-.29 0-.58-.07-.84.05-1.26.61-.29 1.21-.1 1.36l.42-.08c.6-.06 1.7-.42 2.3-.47l2.84-.24a22.82 22.82 0 013 .22c1.31.14 2.52.39 2.75.41a21.58 21.58 0 012.8.69c.29.08 2.34.38 2.63.55s.3.38.6.39 1.16-.21 1.07-.64zm-25-7.14l2.53-.75c.75-.21 1.5-.51 2.29-.73a31.48 31.48 0 013.58-.7c1.1-.17 2.15-.15 3.28-.22s4.06.09 5.14.09c.19 0 .43-.27.51-.47a.81.81 0 00-.16-.63c-.08-.09-.36-.08-.54-.06-.38 0-.75.13-1.12.18h-2.89a22.48 22.48 0 00-2.26-.23 36.48 36.48 0 00-4.75.58 33.32 33.32 0 00-3.52.78 1.33 1.33 0 00-.31.14 5.55 5.55 0 00-.92.1c-.21.06-.43.29-.62.28a1.47 1.47 0 00-1.14.89c-.13.55.24.95.9.75z" fill="currentColor"/><path d="M47.76 61.71c0 .45.3.57.71.41a19.08 19.08 0 011.86-.7 43.92 43.92 0 014.72-.69c.39 0 1.3.15 1.7.15a17.39 17.39 0 012.5.15c.61.07 1.21.24 1.83.32s1.33.19 2 .32c.33.06 1.59.33 1.93.41.08 0 .76.18.76.26.61 0 .34-.42.25-.65-.24-.63-.87-.56-1.39-.65l-2.44-.47c-.79-.17-1.54-.51-2.31-.64a16.66 16.66 0 00-2.81-.19 34.63 34.63 0 00-3.67-.07 18.23 18.23 0 00-2.66.32c-.85.21-1.65.64-2.46.87-.59.14-.52.54-.52.85zm-1.98-13.39c.44-.16.84-.28 1.09-.35a9.83 9.83 0 011.49-.3c.48-.07 1-.07 1.46-.17.12 0 .17-.29.26-.45-.06-.32-.43-.73-1.16-.46a12.6 12.6 0 01-2.47.43zM59.6 70.15c-.8-.16-1.64-.27-2.43-.4-.22 0-.54 0-.61-.13-.24-.4-.48-.19-.77 0s-.5.33-.59.54-.15.66 0 .77a2 2 0 001 .25l1.52.11zm1.54-2.54l-2.41-.44c-.81-.12-1.62-.23-2.41-.32-.3 0-.58-.16-.87-.17a4.88 4.88 0 00-.79.17 7.74 7.74 0 00-1 .21c-.37.14-.46.35-.35.59a1.27 1.27 0 001 .88 5 5 0 00.62-.08h2.57a23 23 0 012.6.17 14 14 0 011.59.32l1.61-1-.3-.05c-.64-.13-1.27-.16-1.86-.28zM61.4 65a25.85 25.85 0 00-2.72-.33 22.18 22.18 0 00-4.85-.29c-.52.1-1.39-.55-1.8.58 0 .18-.18.46-.11.54.23.23.5.55.8.57a11.42 11.42 0 001.58-.24 14.29 14.29 0 012 .07c.73.08 1.47.18 2 .2a29.37 29.37 0 013.24.32c.63.09 2.2.33 3.35.59l1.25-.75a5.74 5.74 0 00-.72-.3A38.79 38.79 0 0061.4 65zm2.34 13.42c.83.26 1.67.49 2.47.82s1.82.87 2.71 1.32c1.26.63 2.55 1.31 3.84 1.92.36.17 1.14.56 1.47.77s.47.22.7.4l.14.1a.92.92 0 00.59.27c.21 0 .58-.07.54-.37s-.41-.61-.58-.8-.6-.39-.87-.62-1.24-.69-1.62-.93c-.63-.41-1.31-.71-2-1-1-.57-2.1-1.12-3.16-1.62-.7-.32-1.4-.6-2.13-.89L64 77a14.73 14.73 0 00-2-.67 8.09 8.09 0 00-1.9-.33 3.29 3.29 0 00-1.23.4.7.7 0 00-.3.43 1.76 1.76 0 00.09.55c.47.33.76.56 1.48.14.38-.22 1.12.07 1.66.22s1.28.46 1.94.68z" fill="currentColor"/><path d="M59.46 71.48c1.61.28 3.13.78 4.75 1.22 1.44.41 2.88.8 4.34 1.31a16.06 16.06 0 013.54 1.77c.66.54.76 0 1-.26a1.46 1.46 0 00-.35-.69c-.13-.13-.43-.06-.61-.16-.87-.5-2.41-1.45-3.31-1.87-.27-.13-.54-.25-.81-.35-1.46-.51-3-.9-4.46-1.3-.42-.12-.78-.44-1.22-.55s-1-.08-1.49-.18l-1.29-.27-1.88 1.12c.63.05 1.21.11 1.79.21zm5.88-1.8c.89.25 3.51 1.2 4.39 1.61a1.33 1.33 0 01.21.12c.43.4.62.28.85.19a.72.72 0 00.37-.61.84.84 0 00-.46-.59c-.29-.1-.53 0-.8-.12-.73-.28-3.16-1.28-3.9-1.56a25.71 25.71 0 00-2.73-.72l-1.61 1 1.52.36c.71.09 1.46.13 2.16.32zm12.1 21.23a2.58 2.58 0 000-.48 4.37 4.37 0 00-.75-.94c-.25-.21-2.29-1.42-2.58-1.57-1.5-.82-2.89-1.88-4.31-2.81-2.54-1.62-5.18-2.25-7.59-3.06-.28-.09-.51-.33-.81-.34-1.41 0-.75 1-.65 1.23a2.41 2.41 0 01.41.13c.56.23 1.72.4 2.3.61.76.27 1.92.73 2.68 1a23.89 23.89 0 012.68 1.42l2.37 1.44c.47.24 1.9 1.32 2.33 1.64.25.19 2 1.16 2.24 1.41s.13.44.41.55 1.2.19 1.27-.23zM57.71 73.7c.84.26 1.7.5 2.6.71s1.58.31 2.36.52a33.69 33.69 0 013.5 1.07c1 .38 2 .85 3 1.29s3.61 1.81 4.52 2.24a.77.77 0 00.66-.2.76.76 0 00.15-.61c0-.12-.28-.22-.44-.27-.35-.13-.73-.2-1.09-.31s-2.29-1.14-2.51-1.25a21.12 21.12 0 00-1.92-1.19 44.57 44.57 0 00-4.43-1.7c-1.14-.41-2.33-.77-3.47-1.09a1.53 1.53 0 00-.35 0 4.82 4.82 0 00-.85-.41c-.22-.06-.52 0-.69-.08a1.47 1.47 0 00-1.46.15c-.44.43-.29.94.42 1.13z" fill="currentColor"/><path d="M60 79.83c-.2.4 0 .66.47.73.65.1 1.34.1 2 .26 1.56.4 3.06 1 4.58 1.49.38.14 1.15.68 1.51.85.74.34 1.47.74 2.2 1.15.54.31 1 .69 1.55 1s1.12.68 1.68 1c.29.18 1.35.87 1.62 1.06.07 0 .62.43.59.51.55.23.48-.26.49-.5 0-.65-.57-.8-1-1.07S74 85.31 73.6 85c-.64-.46-1.21-1-1.87-1.47a18 18 0 00-2.45-1.3c-1-.43-2.3-1.3-3.29-1.65s-1.68-.71-2.54-.93-1.77-.2-2.61-.38c-.59-.09-.69.27-.84.56zM64.84 67l1.08.26a14.74 14.74 0 011.42.47c.45.17.88.4 1.32.56.12 0 .3-.17.45-.26.12-.3 0-.82-.74-.94a9.12 9.12 0 01-2.28-.84zm2.79 25.94l-2.13-1.29c-.19-.11-.5-.22-.53-.37-.09-.47-.39-.36-.72-.31s-.59.12-.75.29-.36.59-.26.74a2 2 0 00.84.65l1.4.69zM70 91.08c-1.4-.88-2.8-1.74-4.2-2.55-.27-.15-.49-.38-.77-.51a4.8 4.8 0 00-.79-.16 6.9 6.9 0 00-1-.22c-.39 0-.56.14-.56.43a1.33 1.33 0 00.57 1.23c.16.11.42.1.61.18.8.32 1.59.66 2.38 1a24.78 24.78 0 012.38 1.14c.47.27.93.57 1.38.87l1.84-.34-.29-.15c-.55-.34-1.07-.59-1.55-.92zm1.14-2.29a24.17 24.17 0 00-2.38-1.34c-.58-.3-1.36-.79-2.14-1.25a10.21 10.21 0 00-2.22-1c-.51-.13-1-1.14-1.87-.25-.11.16-.36.35-.32.46.1.33.22.76.5.91a12.45 12.45 0 001.57.45c.92.33 2.64 1.42 3.55 1.86s1.93 1 2.89 1.51c.57.31 1.9 1.09 2.9 1.71l1.44-.26-.57-.52c-.57-.51-2.72-1.88-3.35-2.28zm-2.06 13.56c.72.5 1.49.93 2.19 1.46s1.53 1.29 2.31 1.92c1.11.89 2.17 1.81 3.34 2.64.31.22 1 .74 1.28 1s.41.28.6.49l.11.13a1 1 0 00.54.35c.21 0 .58 0 .6-.26s-.28-.63-.41-.84-.51-.46-.73-.73-1.08-.89-1.39-1.19c-.53-.5-1.12-.92-1.67-1.39-.9-.76-1.78-1.53-2.69-2.27-.6-.48-1.23-.93-1.84-1.39l-1.6-1.27c-.56-.43-1.11-.87-1.7-1.24a8.05 8.05 0 00-1.77-.92 3.17 3.17 0 00-1.3 0 .6.6 0 00-.4.33 2 2 0 00-.07.6c.34.49.56.82 1.37.61.42-.1 1.05.42 1.54.73s1.11.89 1.69 1.24zm-2.03-8.18c1.39.85 2.74 1.83 4.1 2.76s2.53 1.62 3.75 2.5a16.48 16.48 0 012.91 2.57c.51.65.75.13 1.09 0a1.46 1.46 0 00-.15-.71c-.09-.15-.39-.15-.53-.29-.7-.66-2-1.92-2.65-2.57a7.27 7.27 0 00-.67-.55c-1.28-.89-2.55-1.73-3.82-2.58-.37-.25-.62-.67-1-.92s-.91-.42-1.33-.69l-1.13-.71-2.15.4c.53.22 1.08.48 1.58.79zm6.14.28c.8.52 2.9 2.19 3.65 2.79a2.08 2.08 0 01.17.18c.29.48.51.42.75.4a.73.73 0 00.54-.45.78.78 0 00-.27-.66c-.25-.17-.51-.14-.73-.33-.55-.5-2.55-2.15-3.14-2.6a24.74 24.74 0 00-2.33-1.61l-1.83.34 1.32.86c.59.39 1.27.68 1.87 1.08zM80.1 117a1.45 1.45 0 00.07-.45 3.94 3.94 0 00-.61-1c-.22-.22-2-1.65-2.3-1.85a42 42 0 01-3.76-3.43 43.34 43.34 0 00-6.79-4.71c-.25-.16-.41-.47-.69-.56-1.37-.41-1 .83-.93 1.11a4.29 4.29 0 01.38.23c.49.38 1.59.83 2.11 1.19.67.45 1.72 1.17 2.42 1.61s4.08 3.48 4.43 3.75 1.68 1.59 2 2 1.85 1.39 2 1.65.07.44.33.57 1.24.31 1.34-.11zM64.66 95.74c.72.55 1.49 1.08 2.25 1.6s1.42.82 2.11 1.26c1 .66 2 1.35 3 2.08s1.69 1.34 2.55 2 3 2.54 3.86 3.13a.81.81 0 00.69-.06.68.68 0 00.28-.53c0-.11-.22-.26-.37-.34-.32-.19-.66-.34-1-.52s-1.95-1.59-2.14-1.77c-.52-.52-1-1.13-1.52-1.59-1.23-1-2.5-2-3.76-2.9-1-.73-2-1.47-3-2.17a1.15 1.15 0 00-.31-.16 6.36 6.36 0 00-.68-.69c-.19-.14-.5-.17-.62-.33a1.46 1.46 0 00-1.42-.39c-.47.32-.51.93.08 1.38zm.45 7c-.3.36-.14.71.27.9a17 17 0 011.86.79c1.39.81 2.75 1.71 4.12 2.59.33.21 1 .92 1.27 1.15.67.49 1.32 1 1.94 1.56.46.39.86.85 1.33 1.24s1 .85 1.47 1.27l1.42 1.25c.06.05.55.5.5.56.51.3.52-.17.56-.39.13-.6-.44-.84-.83-1.16s-1.43-1.23-1.79-1.57c-.55-.54-1-1.21-1.54-1.74a21.1 21.1 0 00-2.14-1.74c-.84-.62-2-1.76-2.83-2.35s-1.45-1.11-2.25-1.56-1.65-.68-2.42-1.11c-.54-.3-.73.05-.94.31z" fill="currentColor"/><path d="M73.62 91.84l.94.6c.4.27.78.58 1.16.89s.68.64 1 .91c.1.07.34-.06.52-.1.2-.23.28-.72-.39-1.07a9.18 9.18 0 01-1.84-1.49zm-3.51 25.95l-2-1.63c-.17-.14-.46-.3-.46-.46 0-.5-.33-.44-.67-.44s-.6 0-.78.18-.45.56-.38.75a2.33 2.33 0 00.76.81l1.3.91zm2.57-1.55L68.91 113c-.24-.2-.41-.48-.66-.66a3.58 3.58 0 00-.75-.31 7 7 0 00-.93-.42c-.39-.11-.58 0-.62.34a1.48 1.48 0 00.34 1.4c.14.14.39.18.57.29l2.21 1.45c.73.5 1.49 1 2.18 1.51.44.34.85.7 1.26 1.06l1.87-.1-.26-.21c-.46-.35-.98-.72-1.44-1.11zm1.5-2.09c-.68-.61-1.41-1.16-2.13-1.71a35.26 35.26 0 00-3.86-3.11c-.49-.24-.8-1.38-1.8-.67-.14.14-.42.29-.41.41 0 .37.08.84.33 1.06a11.58 11.58 0 001.44.78c.86.53 2.36 2 3.18 2.54s1.76 1.28 2.62 2l2.65 2.06 1.46-.08c-.17-.19-.33-.38-.5-.56-.52-.6-2.42-2.23-2.98-2.72zm-3.44 13.36c.69.55 1.43 1 2.11 1.58s1.47 1.36 2.23 2c1.07.92 2.13 1.86 3.26 2.7.31.23 1 .75 1.26 1s.41.28.6.49l.11.12a.94.94 0 00.53.36c.21 0 .58 0 .6-.24s-.27-.63-.4-.83a9.61 9.61 0 00-.7-.73c-.28-.34-1.06-.89-1.37-1.19-.51-.51-1.09-.94-1.63-1.42L74.75 129 73 127.55l-1.53-1.37c-.53-.47-1-1-1.61-1.39a9.28 9.28 0 00-1.71-1.08 3 3 0 00-1.28-.11.65.65 0 00-.44.32 2.07 2.07 0 00-.11.62c.31.54.5.9 1.33.75.43-.08 1 .51 1.49.86s1.04.93 1.6 1.36zM69.39 119c1.29 1 2.51 2.17 3.8 3.23s2.37 1.77 3.54 2.77a17.55 17.55 0 012.75 2.62c.47.65.74.16 1.08 0a1.34 1.34 0 00-.11-.69c-.08-.14-.38-.16-.52-.3-.66-.67-1.8-2-2.46-2.65a7 7 0 00-.63-.59c-1.19-1-2.4-1.89-3.57-2.87-.34-.29-.54-.73-.88-1s-.86-.53-1.25-.84l-1-.87-2.18.12c.46.32.96.67 1.43 1.07zm6.07 1c.72.59 2.67 2.39 3.37 3a1.37 1.37 0 01.15.18c.24.48.47.44.71.44a.58.58 0 00.37-1c-.23-.18-.5-.18-.7-.37l-2.86-2.8c-.68-.64-1.4-1.24-2.12-1.83l-1.87.1c.39.34.79.69 1.19 1 .56.41 1.21.77 1.76 1.28zm5.98 22.39a1.76 1.76 0 00.07-.45 4.07 4.07 0 00-.61-1c-.22-.22-2-1.64-2.29-1.84a36.72 36.72 0 01-3.72-3.45c-2.14-2.09-4.54-3.39-6.67-4.94-.24-.18-.39-.5-.67-.61-1.35-.48-1 .82-1 1.11a2.47 2.47 0 01.36.26c.48.41 1.57.91 2.08 1.28s1.7 1.24 2.38 1.7 4 3.56 4.38 3.83 1.66 1.58 2 1.95c.21.22 1.85 1.38 2 1.64s.07.44.33.57 1.24.33 1.36-.05zm-14.6-22.08c.66.67 1.36 1.3 2.09 1.91s1.34 1 2 1.48c1 .75 1.94 1.52 2.89 2.31l2.44 2.13c.76.63 2.93 2.62 3.73 3.2a.84.84 0 00.69 0 .69.69 0 00.3-.51c0-.11-.22-.25-.36-.34-.31-.19-.64-.35-1-.54s-1.88-1.62-2.06-1.81c-.49-.53-.9-1.15-1.43-1.64-1.16-1.07-2.37-2.08-3.55-3.13l-2.76-2.48a1.13 1.13 0 00-.29-.2 7.41 7.41 0 00-.6-.79c-.17-.16-.48-.23-.59-.41a1.44 1.44 0 00-1.37-.58c-.57.21-.67.86-.13 1.4zm-.09 7.37c-.32.36-.18.73.23.95.59.32 1.25.54 1.81.91 1.37.89 2.68 1.86 4 2.78.33.22.93 1 1.25 1.19.65.5 1.28 1 1.9 1.59.45.4.85.86 1.31 1.25l1.46 1.28 1.4 1.24c.06 0 .54.5.5.56.5.3.52-.16.57-.39.13-.59-.44-.82-.83-1.14s-1.42-1.23-1.76-1.57c-.55-.54-1-1.2-1.52-1.74a22.42 22.42 0 00-2.1-1.78c-.83-.64-1.91-1.82-2.75-2.44s-1.41-1.18-2.18-1.68-1.62-.78-2.37-1.27c-.49-.34-.67.01-.92.26z" fill="currentColor"/><path d="M76.2 117.46l.84.69c.37.31.72.64 1.06 1s.6.68.94 1c.09.08.35 0 .52 0 .23-.2.37-.65-.26-1a7.91 7.91 0 01-1.64-1.63zm-4.75 25.67l-2-1.64c-.17-.15-.45-.31-.46-.47 0-.51-.33-.44-.67-.45s-.6 0-.78.18-.45.57-.38.75a2.2 2.2 0 00.76.82c.42.32.86.62 1.29.92zm2.55-1.55l-3.75-3.27c-.24-.21-.41-.49-.66-.68a5.14 5.14 0 00-.75-.33 8.5 8.5 0 00-.92-.43c-.38-.12-.58 0-.63.33a1.54 1.54 0 00.33 1.43c.14.15.39.19.57.31l2.2 1.47c.73.51 1.49 1 2.18 1.53.43.34.85.7 1.26 1.06l1.87-.1-.26-.21c-.44-.39-.96-.69-1.44-1.11zm1.53-2.08c-.68-.61-1.4-1.17-2.12-1.73a38.2 38.2 0 00-3.82-3.19c-.47-.26-.75-1.44-1.77-.73-.15.14-.43.29-.42.41a1.8 1.8 0 00.3 1.09 10 10 0 001.44.82c.84.56 2.33 2 3.14 2.6s1.76 1.3 2.62 2l2.63 2.07 1.46-.08c-.16-.19-.32-.38-.49-.56-.5-.58-2.42-2.2-2.97-2.7zm-3.46 13.36c.69.54 1.44 1 2.11 1.57s1.48 1.36 2.24 2c1.07.92 2.12 1.86 3.26 2.69.31.23 1 .75 1.26 1s.41.29.59.49l.11.13a1 1 0 00.53.35c.21 0 .58 0 .61-.24s-.27-.63-.4-.83-.5-.46-.71-.73-1.06-.89-1.36-1.19c-.51-.51-1.1-.94-1.63-1.42-.87-.77-1.72-1.57-2.6-2.34-.58-.5-1.19-1-1.77-1.48s-1-.91-1.52-1.37-1.05-1-1.62-1.38a8.94 8.94 0 00-1.7-1.09 2.91 2.91 0 00-1.29-.1.61.61 0 00-.43.31 2.07 2.07 0 00-.12.63c.32.53.51.89 1.33.74.43-.08 1 .51 1.49.86s1.06.96 1.62 1.4zm-1.35-8.55c1.3 1.05 2.52 2.18 3.8 3.23s2.38 1.82 3.54 2.76a18 18 0 012.75 2.62c.48.66.74.16 1.08.05a1.17 1.17 0 00-.1-.68c-.08-.15-.38-.17-.52-.31-.67-.67-1.81-2-2.47-2.65a6.85 6.85 0 00-.62-.58c-1.19-1-2.4-1.9-3.57-2.88-.35-.29-.54-.73-.88-1s-.87-.53-1.25-.84l-1-.87-2.19.11c.47.32.96.67 1.43 1.04z" fill="currentColor"/><path d="M76.8 145.29c.72.59 2.67 2.4 3.36 3a1.22 1.22 0 01.15.18c.25.48.47.44.72.44a.78.78 0 00.58-.39.74.74 0 00-.22-.65c-.23-.18-.5-.17-.69-.37-.52-.52-2.34-2.29-2.87-2.79-.67-.65-1.39-1.24-2.11-1.84l-1.87.1c.39.35.78.69 1.19 1s1.2.86 1.76 1.32zm5.97 22.44a1.78 1.78 0 00.08-.44 4 4 0 00-.61-1c-.22-.22-2-1.65-2.3-1.85a36.63 36.63 0 01-3.72-3.44c-2.14-2.09-4.54-3.39-6.67-4.94-.24-.18-.38-.5-.67-.6-1.34-.49-1 .82-1 1.1.11.08.25.16.37.26.48.41 1.56.91 2.07 1.29.67.48 1.7 1.23 2.38 1.69s4 3.57 4.38 3.83 1.66 1.59 2 1.95c.21.22 1.84 1.39 2 1.64s.07.44.33.58 1.24.31 1.36-.07zm-14.6-22.08c.67.67 1.37 1.31 2.09 1.91s1.34 1 2 1.48c1 .76 2 1.52 2.9 2.31s1.61 1.43 2.44 2.13 2.93 2.62 3.72 3.2a.82.82 0 00.7 0 .66.66 0 00.29-.5c0-.11-.21-.26-.36-.35-.31-.19-.64-.35-1-.53s-1.89-1.63-2.06-1.82c-.5-.53-.91-1.14-1.44-1.64-1.15-1.07-2.36-2.08-3.54-3.13-.93-.82-1.84-1.66-2.76-2.48a1.45 1.45 0 00-.3-.2 7.12 7.12 0 00-.6-.79c-.17-.16-.48-.23-.58-.41a1.45 1.45 0 00-1.37-.58c-.56.21-.67.86-.13 1.4zm-.09 7.35c-.32.37-.17.73.23.95.6.32 1.26.54 1.82.91 1.36.9 2.68 1.86 4 2.78.33.23.94 1 1.25 1.19.66.51 1.29 1.05 1.9 1.59s.85.87 1.31 1.25 1 .85 1.46 1.28l1.41 1.25c.06.05.54.49.5.55.5.3.51-.16.56-.38.13-.59-.43-.83-.82-1.15s-1.41-1.22-1.7-1.55c-.55-.54-1-1.2-1.51-1.74a23.68 23.68 0 00-2.1-1.77c-.83-.65-1.91-1.82-2.76-2.45s-1.41-1.18-2.18-1.68-1.62-.78-2.36-1.27c-.57-.34-.78.01-1.01.24zm9.45-10.19l.85.68c.37.31.71.64 1.05 1s.6.68.95 1c.09.08.34 0 .52 0 .23-.2.36-.65-.26-1.05a7.9 7.9 0 01-1.64-1.71zm-4.75 25.66l-1.94-1.64c-.17-.15-.46-.31-.46-.47 0-.51-.33-.44-.67-.44s-.6 0-.78.17-.45.57-.38.76a2.24 2.24 0 00.75.82l1.3.91zm2.57-1.55c-1.26-1.08-2.5-2.17-3.75-3.27-.23-.21-.4-.49-.65-.68a4.23 4.23 0 00-.75-.32 6.57 6.57 0 00-.93-.44c-.38-.12-.57 0-.62.33A1.57 1.57 0 0069 164c.14.14.39.18.57.3.73.48 1.47 1 2.19 1.48s1.49 1 2.19 1.52c.43.34.84.7 1.25 1.06l1.87-.1-.26-.21c-.48-.4-1-.73-1.46-1.13zm1.51-2.08c-.67-.61-1.4-1.17-2.12-1.73a39.49 39.49 0 00-3.81-3.19c-.48-.26-.76-1.43-1.78-.73-.14.14-.43.29-.42.41a1.8 1.8 0 00.31 1.09 11.64 11.64 0 001.43.83c.84.55 2.33 2 3.15 2.59s1.75 1.3 2.61 2l2.64 2.06 1.46-.08c-.16-.19-.33-.38-.5-.56-.51-.53-2.41-2.19-2.97-2.69zm6.26 12.79c-.08-.15-.38-.17-.52-.31-.66-.67-1.8-2-2.46-2.64a7 7 0 00-.63-.59c-1.19-1-2.4-1.9-3.57-2.88-.34-.28-.54-.73-.88-1s-.86-.53-1.25-.85-.68-.58-1-.87l-2.18.11c.5.35 1 .7 1.46 1.08 1.29 1 2.51 2.17 3.8 3.22s2.56 2.37 3.73 3.31a13.22 13.22 0 012.31 2.23c.47.66 1 0 1.33-.1a1.32 1.32 0 00-.14-.71z" fill="currentColor"/><path d="M78.13 170.63c.72.6 2.67 2.4 3.37 3 .07.07.13.16.15.18.24.48.47.45.71.44a.74.74 0 00.58-.39.68.68 0 00-.21-.64c-.23-.19-.5-.18-.7-.38-.52-.52-2.34-2.29-2.86-2.79-.67-.65-1.4-1.24-2.12-1.84l-1.87.1c.39.35.79.7 1.19 1 .56.51 1.21.86 1.76 1.32zm3.87-.93a7.91 7.91 0 01-1.64-1.63l-1.46.08.85.69c.36.31.71.64 1 1s.6.68.94 1c.09.07.35 0 .52 0 .25-.3.39-.75-.21-1.14zm-7.49 9.03c.33-.14.75-.23.52-.72-.11-.24-.53-.45-.74-.62s-1.4-1-1.68-1.3a9.79 9.79 0 01-1.44-1.51c-.48-.65-.74-.16-1.08-.05a1.21 1.21 0 00.1.69c.08.14.38.16.52.3.63.64 2.28 2.2 3 2.91a2.79 2.79 0 00.42.35.66.66 0 00.38-.05zm-3.26-1.17a.76.76 0 00-.65-.09.59.59 0 00-.22.55.52.52 0 00.36.46.72.72 0 00.65.07.93.93 0 00.19-.37c-.09-.53-.15-.47-.33-.62zm6.92-.51c-.37-.27-1-.61-1.34-.9-.83-.69-1.61-1.43-2.44-2.13s-2.17-2.46-3-3.05c-.15-.1-1-.5-1.16-.41a1.84 1.84 0 00-.58.8c0 .11.21.25.36.34.31.19.75.75 1.06.94a23.05 23.05 0 012 1.41c.5.53.91 1.15 1.44 1.64s.92.84 1.39 1.24a15.65 15.65 0 002.06 1.46 1.26 1.26 0 00.63.13.72.72 0 00.52-.33c.19-.41-.66-.93-.94-1.14z" fill="currentColor"/></svg>