<svg xmlns="http://www.w3.org/2000/svg" viewBox="0 0 73.17 179.49"><path d="M71.08 136.37a5.13 5.13 0 010-.87c0-.3-.14-.71-.17-1 0-.54-.19-1.08-.23-1.62l-.17-2.3-.25-4.65-.26-6.47v-.68c-.15-3-.3-6-.53-9-.14-1.68-.49-5.83-.52-6.21 0-.63-.53-4.36-.63-5 0-.25-.35-1.95-.58-3.35-1 .09-1.77.55-2.71.62.66 4.33 1.18 8.7 1.51 13 .4 5.34.66 10.71 1 16.08l.39 7c0 1.4-.31 2.82-.26 4.17a2 2 0 00.31 1c.21.3.16.4.3.5a1.18 1.18 0 00.81.12c.84-.06 2.11-.66 1.99-1.34zm-9.54-63.2l-.23-.5c-.13-.31-.33-.72-.56-1.16-.46-.88-1-1.94-1.38-2.59l-.31-.56a31.87 31.87 0 00-1.74-2.81 48.77 48.77 0 00-13.59-14 38.22 38.22 0 00-8.87-4.34A28.9 28.9 0 0025 45.7 31.56 31.56 0 0011.54 49a23.9 23.9 0 00-5.22 3.62A20.47 20.47 0 004.1 55c-.34.42-.63.89-.94 1.33a10.88 10.88 0 00-.85 1.38A18.21 18.21 0 00.42 70.34c.11.5.22 1 .33 1.45s.31.88.47 1.3.3.86.49 1.27.41.8.61 1.21A27.71 27.71 0 006 81l1.42 1.51 1.84 1.59c.66.51 1.36 1 2 1.44s1.28.75 1.78 1a22.66 22.66 0 005 2 23.44 23.44 0 005.31.82 26.71 26.71 0 007-.72c1.16-.22 2.26-.65 3.38-1a33.94 33.94 0 003.21-1.41 36.93 36.93 0 0010.95-8.44 47.5 47.5 0 004.43-5.77A35.5 35.5 0 0056.91 62 86.41 86.41 0 0059 52a84.59 84.59 0 00.51-18.2c-.31-4.8-.8-9.33-1.39-13.8-.3-2.25-.63-4.49-1-6.76l-.59-3.43-.11-.83A15.59 15.59 0 0056.17 7a46 46 0 01-.82-4.66C55.23 1.65 54.48.1 54 0c-.28-.06-.56.19-.85.15-.65-.09-1.47 1.16-1.25 2.06s.51 1.89.73 2.84.37 2 .62 3a9.82 9.82 0 00.38 1.16c.06.19.13.39.18.58l.08.29.12.69c.62 3.55 1.3 7 1.68 10.81.53 5.54 1.31 11.42 1.37 17.15a73.61 73.61 0 01-1.81 18.84 41.54 41.54 0 01-8.06 16.81 37.32 37.32 0 01-8.78 7.9 27.1 27.1 0 01-10.8 4.12C17.1 88.25 6 80.74 3.26 70.61a15.83 15.83 0 013.4-14.56 23.24 23.24 0 0113.74-7.36 28.32 28.32 0 018-.29 28.05 28.05 0 017.7 2.06 37.16 37.16 0 018.63 5 39.08 39.08 0 017 7l.66.87.11.14c1.29 1.69 2.56 3.61 3.75 5.55a54.34 54.34 0 015.4 12c1 .42 2.35 1 3.17.6a40.62 40.62 0 00-1.19-3.52c-.28-.8-.63-1.61-1-2.44s-.72-1.66-1.09-2.49z" fill="currentColor"/><path d="M70.5 132.57a8.72 8.72 0 010-1.16c0-.51.05-1.48 0-2l-.5-8.52c-.54-8.84-1-17.78-2.45-26.66-.38-2.33-.8-4.67-1.29-7A56.65 56.65 0 0063 76.78a85.2 85.2 0 00-4.57-9.11 48.44 48.44 0 00-12-14c-1-.86-2.14-1.57-3.2-2.33S41.11 50 40 49.45a35.91 35.91 0 00-7.11-2.81 31.08 31.08 0 00-12.78-.4 6.21 6.21 0 012.64 1.89 25.44 25.44 0 019.32 1l.26.09a21.31 21.31 0 012 .69 41.94 41.94 0 017.43 3.72 41.78 41.78 0 016.63 5.3A52.72 52.72 0 0159 74.38a73.71 73.71 0 015.41 18.17A207.23 207.23 0 0167 116.64l.87 15.92a4.07 4.07 0 012.63.01zm.79 25.83a1.43 1.43 0 01-1.49.27 2.72 2.72 0 01-1.54-1.81c-.14-1 .44-2.13.44-3.2 0-1.47-.27-2.94-.39-4.42-.08-1 0-1.92-.15-2.86a17 17 0 01-.11-2.57 5.7 5.7 0 000-1.17 3 3 0 01-.16-1.12c.18-1 2.22-1.3 2.91-.71.53.45.36 1.56.36 2.18v2.67c.13 2.13 0 4.28.1 6.41 0 .91.24 1.8.35 2.7s.15 1.7.2 2.56a1.31 1.31 0 01-.52 1.07zM71.2 172a3.09 3.09 0 01-1 0 1.26 1.26 0 01-.74-.4 2.18 2.18 0 01-.49-2.16 9.2 9.2 0 000-2.87 9.22 9.22 0 010-3.1 2 2 0 01.72-1.17c.6-.46 1.35-.61 1.8.14a5.18 5.18 0 01.44 2.91c-.13 1.34.53 2.75.76 4.15a2 2 0 01-.22 1.34A2.49 2.49 0 0171.2 172zm-.13 7.49a3.66 3.66 0 01-.83-.35 1.91 1.91 0 01-.25-3.27c.63-.54 2.26-.61 2.72.16a4.27 4.27 0 01.44 1.32c.1 1.12-.23 2.05-2.08 2.14z" fill="currentColor"/></svg>