<svg xmlns="http://www.w3.org/2000/svg" viewBox="0 0 71.33 171.85"><path d="M56.4 28.25c-.52-1.9-1-3.47-1.41-5.07a33.31 33.31 0 01-.8-4.53c0-.3.84-.95 1.31-1s1.41.46 1.46.82c.37 2.72.52 5.46.67 8.2a5.24 5.24 0 01.06 1.42c0 .2-.5.41-.78.42s-.48-.24-.51-.26zm1.37 7.43c1 .3.95 1.14 1 1.84a24.87 24.87 0 01-.11 4.56 27.86 27.86 0 00-.41 3.09c0 .76-.32 1.13-1.17 1.31a.43.43 0 01-.37-.22c-.23-2.42-.13-4.65-.54-7a13.87 13.87 0 00-.33-1.48 1.87 1.87 0 011.93-2.1zM53.35 8.86c-.47-1.34-1.08-3.61-1.44-4.54a18.78 18.78 0 01-1-2.74 2.41 2.41 0 01.53-1.53c.09-.14.69 0 1.05.1 1.54.2 1.32 1.51 1.56 2.53s.43 4.08.7 5.16c.33 1.26.06 1.48-1.2 1.24-.18-.04-.3-.3-.2-.22zM43.29 78.65a24.6 24.6 0 001.56-2.22c.48-.7.88-1.41 1.32-2.08s.8-1.26 1.22-1.88l1.25-1.84c.17-.24 1.25-.17 1.63.12s.77 1.26.56 1.57a34.16 34.16 0 01-5.53 6.34 4.91 4.91 0 01-1.11.94c-.19.09-.64-.15-.81-.37a.89.89 0 01-.09-.58zm-5.51 5.18c.19 1-.58 1.41-1.21 1.77a15.94 15.94 0 01-4.39 1.7c-.52.13-1.07.19-1.6.27a8.91 8.91 0 00-1.56.26c-.75.23-1.2 0-1.57-.8a.43.43 0 01.13-.4A29.2 29.2 0 0034 83.95a10.3 10.3 0 001.08-.9 1.92 1.92 0 012.7.78zm15.74-21.49c.29-1.38.78-3.65.87-4.63a24.51 24.51 0 01.25-2.86 2.5 2.5 0 011.1-1.16c.14-.1.61.31.93.5 1.35.81.56 1.94.36 3a25.16 25.16 0 01-.84 2.51 24.42 24.42 0 00-.94 2.47c-.37 1.27-.7 1.32-1.67.47-.14-.14-.09-.47-.06-.3zM1.34 68.2a6.75 6.75 0 00.46 1.31l.51 1.19c.38.74.79 1.42 1.13 2.11s.77 1.2 1.12 1.84.81 1.2 1.17 1.83c.14.24-.29 1.19-.7 1.45s-1.5.27-1.69-.07A19.37 19.37 0 01.2 69.78a3.59 3.59 0 01-.2-1.44c0-.21.5-.42.78-.43s.53.27.56.29zm-.05-7.52c-.78-.63-.5-1.5-.17-2.17a12.46 12.46 0 012.69-4c.39-.39.83-.75 1.25-1.1a9 9 0 001.25-1c.53-.6 1.06-.6 1.78-.07a.44.44 0 01.07.41 19.55 19.55 0 00-3.94 5.49 12.89 12.89 0 00-.3 1.34 1.67 1.67 0 01-.89 1 2.37 2.37 0 01-1.74.1zM12 83.47c.66.24 1.49.64 2.29 1s1.59.52 2 .64c.94.12 1.86.22 2.74.4.43.1.82.66 1.11 1.11.09.14-.3.61-.5.92a1.4 1.4 0 01-1.45.75 9.67 9.67 0 01-1.6-.53c-.28-.08-.67-.23-1.11-.41s-.89-.49-1.36-.75c-1-.48-1.8-1.13-2.33-1.37-1.23-.58-1.14-1-.12-1.71.23-.15.54-.05.33-.05zm29.66-30.69c-.91-.38-1.75-.68-2.54-1s-1.58-.49-2.33-.77c-1.42-.45-2.82-.94-4.21-1.44-.27-.11-.48-1.17-.31-1.62s1-1 1.38-.93a28.5 28.5 0 013.9 1.65 41.25 41.25 0 013.62 2.17 5.73 5.73 0 011.19.83c.13.16 0 .66-.17.88s-.5.23-.53.23z" fill="currentColor"/><path d="M48.05 56.78c.93-.47 1.48.19 2 .66a11 11 0 011.58 1.69c.48.61 1 1.22 1.38 1.87.6.87 1 1.88 1.64 2.68.49.59.47 1.08-.09 1.75-.07.08-.37.12-.43 0a52.77 52.77 0 00-4.87-5 9.44 9.44 0 00-1.19-.79 1.9 1.9 0 01-.02-2.86zm-24.73-9.22c-.69.08-1.59.33-2.44.47s-1.63.44-2.09.58a25.56 25.56 0 01-2.59 1.05 2.32 2.32 0 01-1.53-.38c-.15-.07 0-.68 0-1a1.36 1.36 0 01.86-1.37c.5-.19 1.1-.22 1.63-.37a14.77 14.77 0 012.68-.34c1.06-.07 2.11 0 2.68-.13 1.34-.14 1.49.19 1.06 1.38-.08.12-.4.19-.26.11zm42.25 51.8c-.56-1.89-1.12-3.44-1.57-5a43.34 43.34 0 01-1-4.45c0-.3.77-1 1.24-1.06s1.44.37 1.51.73a75.75 75.75 0 011 8.19 5.8 5.8 0 01.09 1.43c0 .2-.49.42-.77.44s-.47-.26-.5-.28zm1.59 7.42c1 .26 1 1.09 1.1 1.78a28.39 28.39 0 01.15 4.52 22.88 22.88 0 00-.13 3.08c.1.75-.19 1.14-1 1.43a.44.44 0 01-.4-.18c-.51-2.39-.58-4.64-1.12-7-.11-.48-.29-.94-.43-1.4a1.86 1.86 0 011.83-2.23zM61.25 80.3c-.32-.63-.73-1.48-1.1-2.28s-.77-1.53-1-1.95a23.22 23.22 0 01-1.49-2.45 2.5 2.5 0 01.18-1.59c.06-.15.68-.11 1-.15 1.57-.16 1.6 1.22 2.06 2.18s1.15 4 1.56 5c.51 1.22.25 1.47-1 1.39-.17.02-.33-.27-.21-.15zm7.65 73.29c-.42-1.93-.85-3.53-1.12-5.16a28.54 28.54 0 01-.43-4.61c0-.3.91-.87 1.39-.85s1.35.58 1.37.94c.13 2.72.09 5.45.1 8.18a6 6 0 010 1.41c0 .2-.53.39-.81.39s-.47-.28-.5-.3zm1.24 7.45c1 .29 1 1.11 1.06 1.8a30.69 30.69 0 01.09 4.5 21.32 21.32 0 00-.15 3.07c.1.75-.19 1.15-1 1.43-.11 0-.38-.09-.39-.18-.52-2.39-.58-4.64-1.08-7-.1-.48-.27-.94-.41-1.41a1.86 1.86 0 011.88-2.21zm-2.52-27.09c-.28-1.39-.55-3.74-.74-4.72a17.16 17.16 0 01-.54-2.88 2.42 2.42 0 01.8-1.42c.12-.12.67.17 1 .28 1.47.47 1 1.71 1.09 2.75s-.22 4.08-.1 5.18c.15 1.29-.14 1.46-1.36 1-.15 0-.23-.36-.15-.19z" fill="currentColor"/></svg>