<svg xmlns="http://www.w3.org/2000/svg" viewBox="0 0 76.98 179.64"><path d="M77 172.81c-.2-1.79 0-2.64 0-4.52-.07-1.54-.45-3.69-.56-5.13-.21-2.82-.63-5.59-.82-8.41-.52-7.95-1-15.92-1.37-23.87l-.46-7.88v-.83c-.16-3.6-.32-7.23-.6-10.86-.14-2-.63-7.13-.63-7.6 0-.77-.74-5.33-.87-6.12-.05-.3-.31-1.92-.68-3.66s-.78-3.59-1-4.35q-.52-2.67-1-5.33a57.34 57.34 0 00-1.75-6.38 36.72 36.72 0 00-2.69-6.22c-.63-1.21-1.22-2.45-1.93-3.63l-.25-.5A15.71 15.71 0 0060.77 65a53.92 53.92 0 00-5.3-7A46.2 46.2 0 0049 52a40.23 40.23 0 00-7.62-4.65 35.69 35.69 0 00-8.62-2.74 38.35 38.35 0 00-12.69.39 27.12 27.12 0 00-10.69 4.32 22.64 22.64 0 00-7.8 9.19 24.81 24.81 0 00-.89 2.58c-.23.85-.32 1.71-.48 2.59a8.75 8.75 0 00-.12 1.38c0 .47 0 1-.07 1.48a13.1 13.1 0 000 1.64c0 .57 0 1.19.12 1.83l.36 2a21.21 21.21 0 00.64 2.28A14.77 14.77 0 002 76.44a10.8 10.8 0 001 1.72 25.69 25.69 0 003 4l1.65 1.6c.59.54 1.28 1.06 2 1.69a27.41 27.41 0 0011.95 5.28 27.06 27.06 0 0012.93-1 46.45 46.45 0 006.29-2.43 24.7 24.7 0 008.19-6c2-2.43 3.6-4.62 5.67-7.4a32.57 32.57 0 002.25-3.54 38.1 38.1 0 001.76-3.79 55.2 55.2 0 002.48-7.9c2-8.53 2.19-16.25 2-24.7a59.13 59.13 0 00-.28-7.33C62 20.7 61.76 15.35 60.77 9.06c-.38-2.6-2.65-8.54-4-9-.74-.28-1.39.55-2.13.32-1.64-.49-3.4 3.78-2.72 7.06.74 3.5 1.55 7 2.12 10.5.6 3.69.9 7.42 1.36 11.11.37 2.92 1.18 5.82 1.17 8.69 0 3 .3 6-.23 9.2-.74 4.57-1.18 9.43-2.66 13.9a42.86 42.86 0 01-3.07 7 34.71 34.71 0 01-4.4 6.23 29.78 29.78 0 01-12.15 8.51 24.68 24.68 0 01-8.93 1.58 18 18 0 01-8.44-2.34 9.87 9.87 0 01-1.32-.8c-.42-.3-.86-.58-1.28-.89a22.71 22.71 0 01-2.29-2.09 20.21 20.21 0 01-2-2.36 19.3 19.3 0 01-1.54-2.62 13.85 13.85 0 01-.7-11.28 15.08 15.08 0 013.12-4.9 20.85 20.85 0 014.9-3.61 25.79 25.79 0 015.94-2.13 27.74 27.74 0 016.36-.63 23.59 23.59 0 016.25 1 33 33 0 016 2.53 38.91 38.91 0 016.74 4.68 29.26 29.26 0 015.4 6.18l.52.73.09.12c1.55 2.35 3.27 5.08 4.63 7.57A63.42 63.42 0 0163 90a178 178 0 012.89 20.39c.47 6.43.78 13 1.16 19.49l1.1 19.54c.22 7.24-.38 14.54-.06 21.54a19.4 19.4 0 00.92 5.28c.56 1.58.45 2.09.83 2.64a1.94 1.94 0 002 .73 6.6 6.6 0 005.16-6.8z" fill="currentColor"/></svg>