<svg xmlns="http://www.w3.org/2000/svg" viewBox="0 0 72.44 179.32"><path d="M72.4 172.67c-.13-1.79-.07-2.64-.16-4.51-.08-1.55-.3-3.7-.39-5.15-.2-2.81-.39-5.59-.59-8.42q-.66-11.92-1.26-23.87l-.39-7.87v-.82c-.18-3.61-.35-7.23-.6-10.84-.13-2-.58-7.07-.61-7.53 0-.76-.63-5.28-.76-6 0-.29-.27-1.9-.59-3.62s-.69-3.53-.86-4.28c-.35-1.74-.72-3.47-1.13-5.19-.39-1.56-1-3.89-1.83-6.17a46.67 46.67 0 00-2.54-6c-.69-1.27-1.25-2.49-1.93-3.6l-.26-.48a23.34 23.34 0 00-1.5-2.41 51.62 51.62 0 00-5.09-6.7 44.54 44.54 0 00-6.18-5.78 39.64 39.64 0 00-7.22-4.52 34.35 34.35 0 00-8.1-2.66 33 33 0 00-11.93.23 26.3 26.3 0 00-9.93 4.18 20.46 20.46 0 00-7.07 8.36c-.34.81-.56 1.58-.82 2.33S.36 62.91.2 63.7a7 7 0 00-.12 1.21L0 66.27a8.22 8.22 0 00.06 1.47c.05.52 0 1.07.14 1.65l.37 1.77a19.14 19.14 0 00.63 2 12.41 12.41 0 00.83 2 10.73 10.73 0 00.83 1.57 25.32 25.32 0 002.77 3.68c.48.49 1 1 1.49 1.5s1.17 1 1.88 1.6a25.12 25.12 0 0011 5 25.11 25.11 0 0012-.91 36 36 0 005.86-2.38 29.1 29.1 0 007.72-5.74 58.77 58.77 0 005.55-6.94 35 35 0 003.76-7 50.5 50.5 0 002.39-7.63c1.93-8.25 2.11-15.81 1.76-24.12-.11-2.42-.17-4.87-.46-7.21-.74-5.84-1.27-11.1-2.36-17.29C55.8 6.72 54.09.73 53.45.11c-.35-.37-.52.35-.88 0-.81-.73-1 3.2-.28 6.54.74 3.54 1.45 7.08 2 10.65s1 7.49 1.38 11.23c.32 3 .77 5.93.82 8.84a74.45 74.45 0 01-.19 9.4 69.88 69.88 0 01-2.7 14.39 39.63 39.63 0 01-7.83 14 32.45 32.45 0 01-12.93 9.2A24.82 24.82 0 0123 86.07a20.48 20.48 0 01-9.35-2.72 10.77 10.77 0 01-1.45-.88c-.46-.33-.94-.64-1.39-1a25.91 25.91 0 01-2.51-2.29 23.54 23.54 0 01-2.17-2.6 21.24 21.24 0 01-1.7-2.91 15.9 15.9 0 01-.76-12.87 17.09 17.09 0 013.56-5.57 22.75 22.75 0 015.43-4 27.39 27.39 0 016.44-2.27 29 29 0 016.9-.59 26.45 26.45 0 016.73 1.1 36.21 36.21 0 016.36 2.69 40.31 40.31 0 017 4.94 38.52 38.52 0 015.77 6.32l.56.74.09.12a69.28 69.28 0 014.85 7.85 67.49 67.49 0 015.8 17.11A158.66 158.66 0 0166 109.96c.45 6.48.75 13 1.11 19.53l1.06 19.55c.32 7.23.31 14.5.66 21.49a46.49 46.49 0 00.53 5.31c.28 1.59.25 2.09.42 2.66s.5.9.84.79c.9-.28 2.05-3.1 1.78-6.62z" fill="currentColor"/></svg>