<svg xmlns="http://www.w3.org/2000/svg" viewBox="0 0 11.38 221.99"><path d="M3.65 20.65c-.09.34-.36.63-.24 1 .23.71-.28.87-.63 1a1.83 1.83 0 01-2.06-.28c-.63-.54-.35-.94-.29-1.59.1-.88.66-2 1.56-1.91a1.73 1.73 0 01.92.49 2.73 2.73 0 01.58.43 1.33 1.33 0 01.18.48.7.7 0 01-.02.38zm-.75 7.99c.16.13.76.38.85.75.75 2.3-1.14 2.8-1.82 2.7S.51 31.56.46 31.2c-.23-1.71.47-2.44 2.44-2.56zM0 2.27c0-.06 0-.13.07-.18A10.63 10.63 0 00.23.83C.3.44.44.39.83.24a1.52 1.52 0 011.61 0c.47.23.64.46.92 1.22.35.91-.36 1.63-1.45 2.17a.79.79 0 01-.62 0C1 3.44.72 3.19.45 2.96S0 2.61 0 2.27zm3.65 9.62c-.19.86-1.79 1.72-2.23 1.44C.79 12.91 0 12.09 0 11.42s.84-1.39 1.31-2.09a2.18 2.18 0 012.34 2.56zm.79 46.75c-.09.34-.36.64-.24 1 .24.71-.26.87-.61 1a1.84 1.84 0 01-2.07-.26c-.63-.54-.36-.94-.3-1.58.09-.89.64-2 1.54-1.93a1.78 1.78 0 01.93.48c.18.15.42.23.57.43a1.14 1.14 0 01.19.47.81.81 0 01-.01.39zm-.69 8c.16.13.76.37.85.74.77 2.3-1.12 2.82-1.8 2.67s-1.42-.47-1.47-.83c-.25-1.71.45-2.45 2.42-2.58zM.65 40.3a1 1 0 01.05-.21 10.85 10.85 0 00.15-1.23c.07-.39.2-.45.59-.6a1.53 1.53 0 011.62 0c.46.22.64.45.93 1.21.35.92-.31 1.69-1.44 2.2a.79.79 0 01-.62 0 10.39 10.39 0 01-.85-.67c-.35-.31-.5-.36-.43-.7zm3.72 9.59c-.19.85-1.78 1.73-2.23 1.45-.63-.41-1.4-1.25-1.39-1.89s.82-1.36 1.25-2.1a2.18 2.18 0 012.37 2.54zm1.16 46.74c-.09.34-.35.64-.22 1 .24.71-.26.87-.61 1a1.84 1.84 0 01-2.07-.25c-.64-.53-.37-.94-.31-1.58.08-.89.63-2 1.53-1.94a1.68 1.68 0 01.92.48c.19.15.43.22.58.42a1.14 1.14 0 01.19.47.61.61 0 01-.01.4zm-.61 8c.16.13.76.37.86.74.79 2.29-1.1 2.82-1.78 2.68s-1.43-.46-1.48-.81c-.26-1.71.48-2.46 2.4-2.61zM1.6 78.32a1 1 0 010-.21 10.7 10.7 0 00.14-1.24c.07-.39.2-.44.59-.6a1.53 1.53 0 011.61 0c.47.21.64.44.94 1.2.36.92-.3 1.69-1.42 2.22a.79.79 0 01-.62 0A10.24 10.24 0 012 79c-.32-.29-.46-.34-.4-.68zm3.8 9.56c-.18.85-1.77 1.75-2.22 1.47-.63-.41-1.41-1.24-1.41-1.89s.81-1.37 1.23-2.11a2.2 2.2 0 012.4 2.53zM7 134.61c-.09.34-.35.64-.22 1 .25.7-.25.87-.6 1a1.84 1.84 0 01-2.07-.23c-.64-.53-.38-.93-.32-1.58.07-.89.61-2 1.51-1.95a1.8 1.8 0 01.93.47c.18.15.43.22.58.41a1.2 1.2 0 01.2.48.81.81 0 01-.01.4zm-.61 8c.17.14.77.36.87.74.81 2.28-1.07 2.83-1.76 2.69-.54-.11-1.43-.45-1.48-.8-.27-1.71.4-2.46 2.37-2.63zm-3.53-26.28c0-.06 0-.13.05-.21a10.65 10.65 0 00.09-1.24c.06-.39.19-.45.58-.61a1.55 1.55 0 011.61-.05c.47.21.65.44.95 1.19.37.92-.28 1.7-1.4 2.23a.76.76 0 01-.61 0 10.77 10.77 0 01-.86-.65c-.27-.27-.47-.32-.41-.66zm3.87 9.53c-.17.85-1.75 1.76-2.2 1.48-.63-.39-1.42-1.22-1.43-1.87s.8-1.41 1.25-2.12a2.18 2.18 0 012.38 2.51zm1.95 46.71c-.09.35-.35.65-.22 1 .26.71-.24.88-.59 1a1.83 1.83 0 01-2.07-.21c-.64-.52-.39-.93-.34-1.58.07-.89.59-2 1.49-2a1.77 1.77 0 01.94.46 3.45 3.45 0 01.59.41 1.52 1.52 0 01.2.47.81.81 0 010 .45zm-.5 8.01c.17.13.77.36.87.73.83 2.27-1 2.84-1.73 2.7s-1.44-.43-1.5-.78c-.28-1.71.39-2.46 2.36-2.65zm-3.75-26.25a1.31 1.31 0 01.05-.22 10.44 10.44 0 00.12-1.23c.06-.39.19-.45.58-.61a1.52 1.52 0 011.61-.07c.47.21.65.43 1 1.18.37.92-.27 1.7-1.38 2.24a.75.75 0 01-.62 0c-.3-.19-.58-.43-.87-.65s-.54-.3-.49-.64zm3.96 9.49c-.17.86-1.74 1.78-2.19 1.51a3 3 0 01-1.45-1.86c0-.7.79-1.42 1.24-2.13a2.18 2.18 0 012.4 2.48zm2.32 46.7c-.08.35-.34.65-.21 1 .26.71-.23.88-.58 1a1.83 1.83 0 01-2.07-.2c-.65-.52-.4-.92-.35-1.57 0-.89.58-2 1.48-2a1.75 1.75 0 01.94.45c.18.14.43.21.58.4a1.33 1.33 0 01.21.47.81.81 0 010 .45zm-.42 8.01c.17.13.77.35.88.72.84 2.27-1 2.85-1.72 2.72-.54-.1-1.44-.42-1.5-.77-.29-1.7.37-2.47 2.34-2.67zm-3.97-26.22a1 1 0 010-.21 10.57 10.57 0 00.11-1.24c0-.39.19-.45.57-.62a1.56 1.56 0 011.61-.08c.47.21.65.43 1 1.18.38.91-.26 1.7-1.37 2.25a.73.73 0 01-.61 0c-.3-.19-.59-.42-.87-.64s-.49-.3-.44-.64zm4.03 9.46c-.16.86-1.72 1.8-2.17 1.53-.65-.39-1.44-1.2-1.46-1.85s.77-1.43 1.21-2.14a2.19 2.19 0 012.42 2.46z" fill="currentColor"/></svg>