<svg xmlns="http://www.w3.org/2000/svg" viewBox="0 0 10.3 220.26"><path d="M1.55 30.14c-.36-2-.73-3.73-.94-5.45a31.36 31.36 0 01-.27-4.84c0-.33.94-.88 1.42-.85s1.33.67 1.34 1c0 2.85-.11 5.71-.19 8.57a7.23 7.23 0 01-.05 1.48c-.06.21-.54.39-.82.38s-.46-.27-.49-.29zm.99 7.85c1 .34.94 1.2 1 1.93a35.42 35.42 0 010 4.72 23.38 23.38 0 00-.25 3.21c.08.79-.21 1.2-1 1.47a.47.47 0 01-.39-.2c-.44-2.53-.44-4.9-.86-7.43-.09-.5-.24-1-.37-1.49a1.92 1.92 0 011.87-2.21zM1 9.51c-.22-1.47-.4-3.95-.56-5a18.67 18.67 0 01-.42-3A2.52 2.52 0 01.85-.01c.12-.12.66.21 1 .34 1.45.56 1 1.83 1 2.93s-.38 4.26-.3 5.42c.1 1.35-.2 1.53-1.4 1C1 9.7.9 9.36 1 9.51zm1.93 77.65c-.39-2-.77-3.73-1-5.45a31.33 31.33 0 01-.33-4.84c0-.32.93-.89 1.41-.85s1.34.65 1.35 1c.07 2.86 0 5.72-.08 8.58a6.62 6.62 0 010 1.48c-.05.2-.53.39-.81.39s-.47-.29-.54-.31zM4 94.99c1 .33 1 1.19 1 1.92a35.39 35.39 0 010 4.72 23.25 23.25 0 00-.2 3.21c.09.79-.2 1.2-1 1.48-.11 0-.38-.1-.39-.19-.48-2.53-.5-4.89-1-7.42-.1-.5-.26-1-.38-1.48A1.91 1.91 0 014 94.99zM2.11 66.53c-.25-1.47-.46-3.94-.63-5a19.76 19.76 0 01-.46-3 2.56 2.56 0 01.84-1.46c.12-.12.66.21 1 .33 1.46.54 1 1.82 1 2.92s-.33 4.26-.24 5.42c.12 1.35-.18 1.53-1.38 1.07-.14-.09-.24-.43-.13-.28zM5 144.15c-.41-2-.82-3.72-1.08-5.43a34.2 34.2 0 01-.39-4.84c0-.32.93-.9 1.41-.87s1.34.63 1.36 1c.1 2.85 0 5.71 0 8.57a6.17 6.17 0 010 1.49c0 .2-.52.4-.8.39s-.5-.29-.5-.31zm1.2 7.84c1 .31 1 1.18 1 1.9a35.36 35.36 0 01.08 4.72 23.41 23.41 0 00-.17 3.22c.1.78-.19 1.2-1 1.49a.45.45 0 01-.4-.19c-.5-2.52-.56-4.88-1-7.4-.1-.5-.26-1-.4-1.48a1.91 1.91 0 011.89-2.26zm-2.27-28.46c-.26-1.46-.5-3.93-.68-5a19.94 19.94 0 01-.5-3 2.61 2.61 0 01.82-1.47c.12-.13.66.19 1 .32 1.47.52 1 1.8 1.06 2.9s-.28 4.27-.17 5.42c.13 1.36-.16 1.54-1.37 1.09-.16-.06-.24-.41-.16-.26zm3.87 77.58c-.44-2-.87-3.7-1.15-5.42a34 34 0 01-.45-4.83c0-.32.92-.91 1.39-.89s1.41.62 1.41 1.02c.14 2.86.1 5.72.13 8.58a6.66 6.66 0 010 1.48c0 .21-.52.41-.8.41s-.5-.33-.53-.35zm1.28 7.81c1 .31 1 1.17 1.07 1.9a35.2 35.2 0 01.13 4.71 21.88 21.88 0 00-.12 3.22c.1.79-.18 1.2-1 1.51a.47.47 0 01-.4-.19c-.53-2.51-.62-4.87-1.14-7.39-.1-.5-.28-1-.42-1.47a1.93 1.93 0 011.88-2.29zm-2.62-28.41c-.28-1.46-.54-3.93-.74-5a17.82 17.82 0 01-.53-3 2.51 2.51 0 01.8-1.48c.11-.13.66.19 1 .31 1.47.5 1 1.79 1.1 2.88s-.23 4.28-.11 5.43c.15 1.35-.14 1.54-1.36 1.1-.16-.05-.24-.39-.16-.24z" fill="currentColor"/></svg>