<svg xmlns="http://www.w3.org/2000/svg" viewBox="0 0 23.2 222.8"><path d="M11.86 15.96l-2-1.13-4.75-2.65c-.28-.16-.53-.35-.79-.53l1-.31a5.19 5.19 0 01.73-.24c2.2-.2 6.05-.59 8-1.64.65-.35.78-.94.19-1.36-.37-.26 0-.17-.43-.39-1.64-.87-2.86-1.06-4.4-1.95-1.11-.64-4.34-2.1-5.38-2.83-.69-.47-.65-.85 0-.95 1.67-.26 3.53.15 5.23.13 1 0 2 .61 3.09.81.22 0 .46 0 .68.09s.79.39 1 .28c.47-.23 1.06-.62 1.13-1a1.45 1.45 0 00-.73-1.24A28.5 28.5 0 008.21.09a61.45 61.45 0 00-6.92.05 1.28 1.28 0 00-.81.35c-.24.32-.51.8-.4 1.11.63 1.79 2.33 2.76 3.89 3.78 1.28.83 2.64 1.54 4 2.27a28.54 28.54 0 003 1 10.36 10.36 0 01-1.25.09c-1 .22-2.67.15-3.64.37a43.89 43.89 0 01-4.36.92c-1 .12-1 .79-1.1 1.32a1.25 1.25 0 00.47 1.06c.66.48 1.45.81 2.16 1.23 1.23.7 2.53 1.51 3.84 2.2l.3.15zm-.54 63.88l-4.84-2.58c-.28-.15-.53-.34-.8-.51.14.09 1.17-.41 1.39-.47a27 27 0 013-.47c.95-.15 1.89-.31 2.83-.5.67-.14 1.37-.28 2.07-.45l.3-.07a10.09 10.09 0 002.32-.87.35.35 0 00.14-.55 1.76 1.76 0 00-.3-.81c-.66-.37-.38-.94-1-1.32a25.36 25.36 0 00-2.27-1.28c-1.27-.57-2.66-1-4-1.53s-3.21-1.28-4.35-1.91c-.22-.12-.34-.37-.51-.56a.67.67 0 01.25-.12c1.31-.14 3.51-.23 4.82-.29a17.38 17.38 0 012.28.08 23.29 23.29 0 003.08-.23c1.11-.11 2.21-.55 2.11-1.61 0-.07.13-.16.12-.22s-.06-.38-.16-.42l-3.44-1.13A35.38 35.38 0 0111 60.84c-1.52-.75-3.06-1.53-4.52-2.34a2.09 2.09 0 01-.69-.9 1 1 0 01.56-.4c1.35-.12 1.65-.55 3-.61s2.45 0 3.66-.15c.6-.05 1.16-.36 1.76-.47 1.14-.2.75-1.11.82-1.65.05-.39-.5-1-1-1.25a18.92 18.92 0 00-2.13-1c-.77-.34-1.52-.71-2.25-1.1s-1.42-.8-2.11-1.22c-.37-.23-.72-.48-1.08-.73a2.72 2.72 0 01.77-.18 2.88 2.88 0 01.61-.1c1.89-.12 3.8-.2 5.68-.41a15.06 15.06 0 002.58-.73c.07 0 .12-.16.13-.25 0-1.27-1-1.77-2-2.27-1.18-.61-2.42-1.13-3.59-1.74-1.79-1-3.55-2-5.32-3a2 2 0 01-.35-.3 2.14 2.14 0 01.53-.2l3.63-.2c2.16-.11 4.28-.41 5.95-1.77a1.37 1.37 0 00.1-1.45 42.45 42.45 0 00-4.14-2.68c-1.37-.8-5.66-1.62-7-2.39-.15-.08-.23-.26-.34-.39a2 2 0 01.52-.23c.31-.06 1.53.08 1.83 0 1.09-.31 4.15-.62 5.23-1a27.91 27.91 0 003.15-1.1c.57-.26.49-1.91 0-2.15-1.22-.56-2.44-1.11-3.68-1.65s-1.83-.79-3.26-1.35c-.57-.24-1.21-.33-1.78-.58a3 3 0 01-.79-.68s0-.09.1-.1a7.54 7.54 0 011.12-.28c1.47-.24 2-.74 3.5-1 1.18-.2 2.34-.49 3.5-.73s1.91-.95 1.72-1.91c-.11-.57-.67-.72-1.23-1a25.8 25.8 0 01-2.33-1.22l-4.47.07c1 .53 2 1 3 1.51a2.07 2.07 0 01.46.43 3.3 3.3 0 01-.65.39c-.57.19-1.17.34-1.75.49a3.82 3.82 0 01-.57.11 19 19 0 00-2.3.25c-1.28.32-1.65 1-2.87 1.5-.48.18-1.15.66-1.15 1a2 2 0 00.81 1.58c1.85 1 2.91 1.46 4.84 2.33l3.85 1.72a1.78 1.78 0 01.27.21 1.12 1.12 0 01-.33.16c-.7.14-3.41.2-4.08.42-1.64.54-4.22.8-5.77 1.5a1.69 1.69 0 00-.67 1.42 2.13 2.13 0 001 1.34c1 .6 3.11 1.3 4.2 1.82s4 1 5 1.54a13.79 13.79 0 011.38.85c.07 0 0 .43-.07.43l-5.3.59c-1.41.17-2.82.36-4.21.61-.28.05-.7.44-.69.65.08 1.06.14 2.17 1.43 2.74.8.35 1.58.74 2.35 1.15s1.23.76 1.91 1.05c.9.44 1.86.79 2.77 1.2a8.66 8.66 0 011.26.71 5 5 0 01.7.68 6.49 6.49 0 01-.74.09 33.67 33.67 0 00-3.89 0c-1.5.16-2.95.6-4.44.83-.64.11-.89.41-.79.9a1.76 1.76 0 00.51 1.14c1.19.73 2.47 1.33 3.71 2 1.65.88 2.23 1.42 3.87 2.31a4.59 4.59 0 01.44.33 1.66 1.66 0 01-.57.24c-1.21.08-1.36.42-2.56.54a14.46 14.46 0 00-2.76.6 8.29 8.29 0 00-2 .65c-.76.51-.53 2.48.26 3 1.17.75 2.32 1.53 3.55 2.19a31.64 31.64 0 003.09 1.34c.46.18.95.31 1.42.47a.75.75 0 01.19.17c-.06 0-.12.09-.19.09H8.06a14.55 14.55 0 00-2.38.24c-.66.13-2.47.54-3.13.61-.89.1-1.72 1.2-1.22 1.9.93 1.29 3.37 2.23 4.94 2.87 1.27.52 2.47 1.19 3.71 1.8l4.12 2h.06-.18a20.88 20.88 0 00-3.16.55h.08a18.23 18.23 0 00-3.48.78c-1.44.34-2.87.79-4.34 1-1 .13-1 .8-1.08 1.33a1.27 1.27 0 00.49 1c.66.47 1.46.79 2.18 1.2 1.3.74 2.56 1.53 3.89 2.24l.29.14 4.48-.13zm2.33 65l-4.87-2.52c-.28-.14-.53-.33-.8-.5.14.09 1.16-.42 1.38-.49a26.3 26.3 0 013-.51q1.41-.24 2.82-.54c.66-.15 1.37-.3 2.06-.48l.3-.07a9.9 9.9 0 002.31-.9.36.36 0 00.14-.56 1.86 1.86 0 00-.31-.8c-.67-.36-.39-.94-1.06-1.31a21.83 21.83 0 00-2.28-1.24c-1.28-.56-2.68-.93-4-1.48s-3.24-1.24-4.39-1.85c-.21-.12-.34-.37-.51-.55a.69.69 0 01.25-.14c1.3-.15 3.5-.28 4.81-.35a17.35 17.35 0 012.28 0 23 23 0 003.07-.27c1.12-.12 2.21-.58 2.09-1.64 0-.07.13-.16.12-.22s-.07-.38-.17-.42l-3.41-1.03c-1.13-.37-2.29-.71-3.37-1.18-1.57-.68-3.09-1.44-4.59-2.23a2 2 0 01-.69-.88s.34-.39.55-.42c1.35-.13 1.64-.56 3-.65s2.44-.07 3.65-.2c.59-.06 1.15-.38 1.75-.49 1.14-.22.74-1.12.8-1.66s-.52-1-1-1.24a19.07 19.07 0 00-2.15-1c-.77-.33-1.52-.69-2.27-1.07s-1.42-.78-2.12-1.19c-.38-.22-.73-.47-1.1-.71a3.27 3.27 0 01.76-.2 3.7 3.7 0 01.61-.1c1.89-.15 3.79-.25 5.67-.5a14 14 0 002.57-.76c.07 0 .13-.17.13-.25 0-1.27-1-1.75-2-2.25-1.19-.59-2.43-1.08-3.61-1.69-1.81-.92-3.58-1.9-5.37-2.86a3.37 3.37 0 01-.36-.3 2.34 2.34 0 01.53-.21l3.63-.25c2.16-.14 4.28-.47 5.92-1.85a1.38 1.38 0 00.08-1.46 45.85 45.85 0 00-4.18-2.62c-1.38-.78-5.68-1.54-7.08-2.28-.15-.08-.23-.26-.35-.39a3 3 0 01.47-.24c.31-.07 1.53.06 1.83 0 1.09-.32 4.15-.67 5.22-1a27.24 27.24 0 003.14-1.14c.56-.27.46-1.92 0-2.15-1.23-.55-2.46-1.08-3.71-1.6s-1.83-.85-3.22-1.39c-.57-.22-1.21-.31-1.78-.55a3.61 3.61 0 01-.81-.67s.06-.09.1-.1a9.63 9.63 0 011.08-.4c1.47-.25 2-.77 3.49-1 1.17-.22 2.32-.53 3.49-.79s1.9-1 1.69-1.93c-.12-.56-.68-.71-1.24-1a24.46 24.46 0 01-2.34-1.19l-4.48.13c1 .52 2 1 3.05 1.47a2.08 2.08 0 01.47.42 3.39 3.39 0 01-.65.41c-.57.19-1.16.35-1.74.51a3.86 3.86 0 01-.57.12 17.41 17.41 0 00-2.3.28c-1.27.36-1.6 1.08-2.84 1.57-.48.19-1.14.67-1.13 1a2 2 0 00.83 1.57c1.87 1 2.93 1.43 4.87 2.27l3.88 1.67a1.26 1.26 0 01.27.2 1.12 1.12 0 01-.33.16c-.7.16-3.4.25-4.07.48-1.63.56-4.21.85-5.75 1.58a1.7 1.7 0 00-.71 1.45 2.16 2.16 0 001 1.33c1 .58 3.13 1.25 4.22 1.75s4.05 1 5.07 1.48a13.78 13.78 0 011.39.83c.07 0 0 .42-.06.43l-5.24.67c-1.4.18-2.81.39-4.2.66-.28 0-.7.45-.68.66.09 1.06.18 2.16 1.47 2.72.8.34 1.59.72 2.37 1.11.62.33 1.19.75 1.83 1 .91.43 1.87.76 2.79 1.16a8.55 8.55 0 011.26.69 6.49 6.49 0 01.72.67 4.82 4.82 0 01-.75.1 36 36 0 00-3.89 0c-1.49.19-2.94.65-4.42.91-.65.11-.89.41-.79.91s.21.93.53 1.12c1.21.72 2.5 1.3 3.75 2 1.65.86 2.24 1.39 3.89 2.26a5.33 5.33 0 01.46.32 1.77 1.77 0 01-.57.25c-1.21.1-1.36.44-2.56.58a13.47 13.47 0 00-2.74.64 7.36 7.36 0 00-2 .68c-.76.51-.5 2.48.3 3 1.18.74 2.33 1.51 3.57 2.15a29.45 29.45 0 003.11 1.29c.46.18.95.3 1.42.46.08 0 .13.11.2.16s-.13.1-.19.1H10.1a14.46 14.46 0 00-2.37.27c-.66.14-2.46.58-3.12.66-.88.11-1.7 1.23-1.19 1.92 1 1.27 3.4 2.17 5 2.79 1.29.51 2.5 1.16 3.74 1.75l4.14 2h.07-.19a19.87 19.87 0 00-3.15.59h.09a17.9 17.9 0 00-3.47.83c-1.45.36-2.87.83-4.33 1-1 .15-1 .81-1.06 1.34a1.26 1.26 0 00.49 1.05c.67.46 1.48.77 2.2 1.17 1.32.72 2.59 1.49 3.93 2.18l.29.14 4.48-.19zm3.25 65l-4.89-2.44c-.29-.15-.54-.33-.81-.5.14.09 1.15-.43 1.37-.5a24.5 24.5 0 013-.55c.94-.18 1.88-.37 2.81-.59.66-.15 1.36-.31 2.06-.5l.29-.08a9.92 9.92 0 002.3-.94.35.35 0 00.13-.55 1.9 1.9 0 00-.32-.8c-.68-.35-.41-.94-1.08-1.3a23.87 23.87 0 00-2.3-1.2c-1.29-.55-2.69-.89-4-1.43s-3.26-1.19-4.41-1.79c-.22-.11-.35-.36-.52-.54.08-.05.16-.13.24-.14 1.31-.17 3.51-.33 4.82-.42a17.2 17.2 0 012.27 0 21.61 21.61 0 003.07-.32c1.11-.13 2.2-.6 2.07-1.66 0-.07.13-.16.11-.23s-.07-.38-.17-.41l-3.46-1.11a34.72 34.72 0 01-3.4-1.13c-1.57-.65-3.1-1.39-4.61-2.16a2 2 0 01-.71-.87s.33-.4.54-.43c1.35-.15 1.63-.59 3-.69 1.21-.1 2.44-.11 3.65-.25.59-.07 1.15-.4 1.74-.52 1.13-.24.72-1.13.77-1.67s-.52-1-1-1.23a22.06 22.06 0 00-2.16-1c-.77-.31-1.53-.66-2.28-1s-1.44-.76-2.14-1.16c-.38-.22-.74-.47-1.1-.7a3.07 3.07 0 01.75-.2 3.66 3.66 0 01.61-.12c1.89-.17 3.79-.3 5.67-.57a15.68 15.68 0 002.55-.8c.07 0 .12-.17.12-.26 0-1.26-1.06-1.73-2.06-2.21-1.2-.58-2.45-1.06-3.64-1.64-1.82-.9-3.61-1.85-5.4-2.79a2.06 2.06 0 01-.37-.29 2 2 0 01.53-.22l3.63-.3c2.15-.17 4.26-.53 5.89-1.94a1.36 1.36 0 00.06-1.45 40.84 40.84 0 00-4.22-2.56c-1.38-.77-5.69-1.47-7.11-2.19-.15-.08-.23-.25-.35-.38a2.08 2.08 0 01.52-.25c.31-.07 1.53 0 1.83-.05 1.08-.34 4.13-.73 5.19-1.11a27.3 27.3 0 003.13-1.19c.55-.27.43-1.92-.08-2.14-1.23-.53-2.47-1.05-3.72-1.55s-1.84-.82-3.24-1.34c-.57-.22-1.22-.3-1.79-.53a3 3 0 01-.81-.66.3.3 0 01.1-.1 7.19 7.19 0 011.11-.36c1.46-.28 2-.8 3.48-1.1 1.16-.23 2.31-.55 3.47-.83s1.88-1 1.66-2c-.13-.56-.68-.69-1.25-.93a24.5 24.5 0 01-2.36-1.15l-4.48.19c1 .5 2.06.94 3.08 1.42a2.08 2.08 0 01.47.42 2.9 2.9 0 01-.64.41c-.57.21-1.15.37-1.73.54a2.93 2.93 0 01-.57.13 17.43 17.43 0 00-2.3.31c-1.27.36-1.61 1.08-2.82 1.58-.47.2-1.13.69-1.12 1a2 2 0 00.85 1.56c1.88.93 2.95 1.38 4.9 2.2l3.91 1.61a1.26 1.26 0 01.27.2 1.59 1.59 0 01-.32.16c-.7.17-3.41.3-4.07.54-1.62.58-4.19.91-5.72 1.66a1.68 1.68 0 00-.69 1.47 2.15 2.15 0 001.07 1.3c1 .57 3.15 1.21 4.25 1.7s4.05.91 5.08 1.4a13.94 13.94 0 011.41.81c.06.05 0 .43-.06.44l-5.28.74c-1.4.2-2.81.43-4.2.72-.27.06-.68.46-.66.67.1 1.06.2 2.16 1.5 2.7.81.33 1.61.69 2.38 1.08s1.21.73 1.85 1c.92.41 1.88.73 2.81 1.12a9.59 9.59 0 011.27.67 5.72 5.72 0 01.73.66 4.85 4.85 0 01-.75.11 36 36 0 00-3.89.1c-1.48.2-2.92.68-4.4 1-.65.13-.88.43-.78.93s.23.93.55 1.12c1.21.69 2.51 1.26 3.77 1.89 1.67.83 2.26 1.36 3.92 2.2a5.33 5.33 0 01.46.32 1.94 1.94 0 01-.57.26c-1.2.11-1.35.46-2.54.61a14.26 14.26 0 00-2.74.68 7.69 7.69 0 00-2 .7c-.75.53-.46 2.49.35 3 1.19.72 2.36 1.47 3.6 2.09a28.35 28.35 0 003.13 1.25c.47.17 1 .29 1.43.44.08 0 .13.1.2.16s-.12.1-.19.1c-1.08 0-2.17 0-3.25.08a15.52 15.52 0 00-2.37.31c-.66.15-2.46.62-3.11.71-.89.11-1.69 1.24-1.17 1.92 1 1.26 3.43 2.13 5 2.73 1.29.49 2.51 1.13 3.76 1.7l4.22 1.99h.07-.18a19.54 19.54 0 00-3.15.64h.09a18.68 18.68 0 00-3.46.88c-1.44.38-2.85.87-4.31 1.11-1 .16-.95.83-1 1.36a1.25 1.25 0 00.51 1 24.15 24.15 0 002.14 1.22c1.33.71 2.61 1.46 3.95 2.13l.3.14 4.47-.26z" fill="currentColor"/><path d="M22.14 220.45c-1.24-.51-2.5-1-3.75-1.5s-2.49-.23-3.89-.73c-.58-.21-1.22-.28-1.8-.5a3.13 3.13 0 01-.82-.65s0-.09.09-.1a9.09 9.09 0 011.11-.38c1.46-.3 2.93-.53 4.38-.85 1.16-.25 2.31-.59 3.46-.89s1.87-1 1.63-2c-.13-.56-.69-.69-1.26-.92a23.44 23.44 0 01-2.38-1.09l-4.47.26c1 .49 2.07.91 3.09 1.38a2.1 2.1 0 01.49.41 4.14 4.14 0 01-.64.42c-.57.21-1.15.38-1.73.56a3.53 3.53 0 01-.56.14 15.61 15.61 0 00-2.29.35 29.85 29.85 0 00-3.72 1.32c-.47.2-1.12.71-1.1 1a2 2 0 00.87 1.55c1.9.9 4.48 1.5 6.44 2.29 1.31.52 1.75.31 3 .83.11 0 2.32 1 3.43 1.4.16-.07.32-.12.47-.2.6-.24.46-1.89-.05-2.1z" fill="currentColor"/></svg>