<svg xmlns="http://www.w3.org/2000/svg" viewBox="0 0 24.97 53.55"><path d="M2.61 17.68c-.08.29-.28.54-.2.85.16.62-.22.74-.49.85a1.25 1.25 0 01-1.54-.28c-.46-.48-.25-.81-.19-1.36.09-.76.53-1.66 1.2-1.61a1.32 1.32 0 01.69.44c.13.13.31.21.42.38a1.31 1.31 0 01.13.41.68.68 0 01-.02.32zm-.71 6.84c.12.13.56.34.62.67.52 2-.91 2.37-1.41 2.22S.05 26.94 0 26.64c-.12-1.47.42-2.12 1.9-2.12zM.17 1.92v-.18a9.71 9.71 0 00.13-1C.36.41.46.37.76.24A1.06 1.06 0 012 .2c.35.2.47.4.67 1.06s-.24 1.44-1.1 1.85a.5.5 0 01-.46 0c-.22-.18-.42-.39-.62-.59s-.37-.31-.32-.6zm2.58 8.28c-.15.73-1.37 1.44-1.69 1.19a2.53 2.53 0 01-1-1.65c0-.6.65-1.18 1-1.77 1.47-.03 1.8 1.44 1.69 2.23zm6.81 35.32c.23.16.37.45.69.44.6 0 .62.4.65.68a1.22 1.22 0 01-.65 1.42c-.61.31-.91 0-1.44-.24-.75-.33-1.43-1.16-1.08-1.74a1.33 1.33 0 01.66-.44 2.82 2.82 0 01.49-.25 1.35 1.35 0 01.4 0 .65.65 0 01.28.13zm6.29 1.88c.13-.11.37-.54.68-.59 1.93-.45 2.32.94 2.18 1.46s-.45 1-.76 1.08c-1.52.11-2.13-.47-2.1-1.95zM0 34.45v-.18c.09-.38.06-.72.12-1.08s.16-.38.45-.5a1 1 0 011.21 0c.35.2.47.4.69 1s-.23 1.39-1 1.86a.54.54 0 01-.46 0 7.09 7.09 0 01-.66-.57c-.27-.18-.35-.23-.35-.53zm4.39 7.14c.16.6-.28 1.89-.69 1.92a2.3 2.3 0 01-1.87-.86 3.49 3.49 0 01.08-2.13 2 2 0 012.48 1.07z" fill="currentColor"/><path d="M25 47.59c-.08-1.47-9.13-5.62-9.72-5s-.28 10.17.53 10.93c.51.46 9.19-4.62 9.19-5.93z" fill="currentColor"/></svg>