<svg xmlns="http://www.w3.org/2000/svg" viewBox="0 0 27.64 56.02"><path d="M2.66 32.7a3.85 3.85 0 01.06-.7c0-.22-.08-.53-.08-.74 0-.41-.1-.82-.11-1.23v-4.3a3.67 3.67 0 010-.45v-.37a2.55 2.55 0 01-.08-.25H.32c0 .32.07.65.08 1v3.59c-.04 1.03-.34 2.08-.4 3.1a1.54 1.54 0 00.19.77c.14.23.1.3.2.39a1 1 0 00.61.12c.74-.03 1.71-.42 1.66-.93zM2.51 23v-.38a.65.65 0 000-.24c0-.93 0-1.86-.07-2.79a4.59 4.59 0 010-1 17.3 17.3 0 00.1-1.76 2.87 2.87 0 010-.83c0-.16.1-.46.1-.62s-.06-.44-.07-.74c0-.65-.06-1.3-.07-2a2.24 2.24 0 01.07-.51 1.52 1.52 0 000-.79 1.33 1.33 0 01-.1-.74 7.23 7.23 0 000-1.32 15 15 0 01.08-1.77V6.9a12.11 12.11 0 00.16-1.4A28.19 28.19 0 012.86 2c0-.52-.25-1.77-.59-1.92s-.44 0-.64 0C1.16-.16.35.61.35 1.31l.06 2.21v2.31c0 .59.21 1.28.17 1.77a3.16 3.16 0 010 .81 4.56 4.56 0 000 1.28c0 .94 0 1.9-.11 2.84 0 .6.06 1.21.07 1.8v6.11a5.38 5.38 0 01-.07 1.5v.08a2.07 2.07 0 000 .5 4.1 4.1 0 010 1c.66.06 1.46.13 2.14.12a.77.77 0 000-.26 1.28 1.28 0 01-.1-.38z" fill="currentColor"/><path d="M2.39 29.82a6.87 6.87 0 010-.86c0-.39.1-1.11.1-1.49a5.41 5.41 0 000-.55 3.5 3.5 0 010-.37c0-.66-.06-1.31-.07-2a2.25 2.25 0 01.07-.52 1.42 1.42 0 000-.79 1.29 1.29 0 01-.09-.73 8.32 8.32 0 000-1.32V20.1a4.58 4.58 0 01-.09-.9c-.54.08-1.12.12-1.67.16a2.32 2.32 0 01-.18.71v.17a4.5 4.5 0 000 1.27c0 .94 0 1.9-.1 2.84a17.94 17.94 0 00.06 1.8v3.55a3.12 3.12 0 011.97.12zM6.38 47a1.13 1.13 0 01-.52 1A1.86 1.86 0 014 48c-.72-.54-1-1.54-1.44-2.27a14 14 0 01-1.72-3.26C.6 41.73.53 41 .34 40.22a8.63 8.63 0 01-.18-2 6.7 6.7 0 000-.9 2.31 2.31 0 01-.1-.86c.17-.79 1.71-.91 2.21-.45s.22 1.15.22 1.6a13.32 13.32 0 000 1.9 12.57 12.57 0 001.1 4.25 6.3 6.3 0 001.18 1.39A13.63 13.63 0 006 46.28a.91.91 0 01.38.72zm9.2 3.26a2.33 2.33 0 01-.06.79 1 1 0 01-.38.51 1.69 1.69 0 01-1.72.11 10.29 10.29 0 00-2.21-.51 5.87 5.87 0 01-2.33-.79 1.63 1.63 0 01-.64-.86c-.13-.57 0-1.1.66-1.19a2.55 2.55 0 011 .09 4.05 4.05 0 011 .34 8.37 8.37 0 003 .13 1.45 1.45 0 01.93.31 1.93 1.93 0 01.75 1.07zm5.63.45a2.38 2.38 0 01-.27.62 1.45 1.45 0 01-2.49.09c-.38-.49-.35-1.71.23-2a2.77 2.77 0 011-.29c.81-.07 1.49.19 1.53 1.58z" fill="currentColor"/><path d="M27.64 50.06c-.07-1.46-9.13-5.61-9.71-5s-.29 10.15.55 10.9c.52.5 9.23-4.58 9.16-5.9z" fill="currentColor"/></svg>