<svg xmlns="http://www.w3.org/2000/svg" viewBox="0 0 30.01 55.29"><path d="M4.49 17.75c-.32-.44-.64-.88-1-1.3-.17-.19-.52-.33-.62-.53s-.37-.54-.34-.75c.07-.44.58-.75.65-1.19 0-.06.23-.3.32-.49a1.55 1.55 0 01.26-.23c.1-.06.28-.08.38-.15s.64-.34.6-.46c-.11-.36-.29-.88-.65-1-1.15-.35-.62-1.34-1.5-1.73 0 0-.25-.15-.23-.19s-.31-.23-.22-.4c0 0 .06-.2 0-.2.05-.26.68-.39.77-.63s.48-.33.56-.4c.67-.56 1-.51 1.15-1a1.36 1.36 0 00-.23-1 2.64 2.64 0 01-.49-.84 13.41 13.41 0 00-.68-1.37c0-.06-.11-.26-.06-.33.15-.25.33-.3.42-.57a4.17 4.17 0 01.26-.57.89.89 0 01.28-.41 1.44 1.44 0 00.44-.4c.07-.15.21-.23.3-.36s0-.34 0-.46c0-.29.08-.39-.25-.59a1.33 1.33 0 00-.94-.2l-.56.26a1.18 1.18 0 00-.35.54c-.24.54-1.11.84-1.12 1.48 0 .08-.19.16-.2.25-.06.29-.27.38-.31.67 0 .1 0 .26-.06.29-.11.2-.35.51.07.78a2 2 0 01.62.69 6 6 0 01.56 1.3c.05.19.11.44 0 .57s-.73.43-1 .68-.76.73-.79 1c-.09.65-.48.8.29 1.67.17.18.07.46.19.66a2.39 2.39 0 00.58.61c.37.27.25.56.2.86s.18.32.13.45a5.24 5.24 0 01-.8 1.12L1 13.9H.93c0 .41-.46.81-.56 1.25s.6 1.49 1.2 1.81a1.88 1.88 0 01.52.42c-.17.14-.36.26-.54.39h2.94a.15.15 0 000-.02zm2.2 26c-.52-.05-1-.2-1.52-.3-.24-.06-.63.05-.81-.08l-.15-.11c-.19-.09-.44-.23-.49-.39-.13-.44.22-1 .15-1.39 0-.07.12-.37.16-.58a1.3 1.3 0 01.19-.31c.07-.1.24-.18.32-.27s.54-.52.48-.61c-.18-.25-.43-.64-.79-.64-1.19 0-.79-1.07-1.69-1.33 0 0-.26-.12-.24-.16.07-.19-.32-.2-.24-.39v-.21c0-.27.66-.43.74-.67s.47-.34.55-.41c.66-.57 1-.52 1.13-1a1.33 1.33 0 00-.23-1 2.64 2.64 0 01-.52-.73 13.41 13.41 0 00-.68-1.37c0-.06 0-.14.09-.21a3.71 3.71 0 00.49-.77c.06-.16 0-.33 0-.49s.61-.47.76-.75c0 0-.08-.14-.07-.15.4-.15.88-1 .74-1.29s-.48-.45-.56-.87c0 0-.11-.07-.14-.12-.38-.59-1-.92-1.21-1.54-.11-.36.38-.8.52-1.21.08-.23-.06-.5 0-.74s.39-.55.44-.84a1.73 1.73 0 00-.54-1.56c-.42-.34-1-.53-1.26-1-.38-.72.43-1 .84-1.48a8.46 8.46 0 011.24-.86.28.28 0 00.09-.1H1.54l-.73.55c-.25.16-.75.66-.75.8 0 .52-.15.75 0 1.25A2.06 2.06 0 001 21.55c.74.31.68.79.91 1.2.38.66-.44 1.17-.59 1.77s-.86.91-.29 1.47l.82.87a7.15 7.15 0 00.92 1c.49.37 0 .57-.15.83-.24.54-1.11.84-1.12 1.48 0 .08-.19.16-.2.25-.06.29-.27.38-.31.66 0 .11 0 .27-.06.3-.11.2-.35.51.07.78a2 2 0 01.62.69 6 6 0 01.56 1.28c0 .19.11.44 0 .57s-.72.44-1 .7-.75.77-.77 1c0 .7-.43 1 .42 1.86.18.19.11.52.27.72a1.72 1.72 0 00.66.53c.39.2.34.52.36.86 0 .15.25.27.23.41a14.41 14.41 0 01-.44 1.48l-.06.09a.43.43 0 010 .07c.13.45-.09 1.06.05 1.58a1 1 0 00.37.52 2.48 2.48 0 001.68.54 2.19 2.19 0 01.67 0c0 .21-.1.43-.14.65l2.31-1.93-.1-.03z" fill="currentColor"/><path d="M20.48 50.12a.46.46 0 01.17-.14 2.19 2.19 0 00.81-.51.92.92 0 00.17-.29c.11-.29-.06-.55-.14-.84s-.25-.47-.55-.52a1.08 1.08 0 00-.93.26 2.41 2.41 0 01-.71.52c-.46.15-.9.44-1.36.64-.06 0-.14-.05-.2-.1a8.27 8.27 0 00-.72-.53c-.16-.06-.33 0-.48-.07s-.4-.64-.65-.81c0 0-.14.06-.14 0-.11-.42-.81-1-1.1-.88s-.48.41-.86.43c0 0-.08.1-.12.12-.57.26-1 .87-1.67.87-.37 0-.61-.55-.9-.81s-.46-.1-.63-.24-.28-.54-.49-.68a1.83 1.83 0 00-1.56-.12c-.53.2-1.06.58-1.58.5-.87-.13-.54-1-.55-1.56a5.25 5.25 0 01.42-1.45.17.17 0 000-.12l-2.29 1.96-.16.95a2.13 2.13 0 00.14 1.15c.45.41.57.7 1.16.92a2.09 2.09 0 001.63 0c.7-.43 1.11-.14 1.63-.17.79 0 .93.85 1.51 1.22s.69 1.1 1.46.72l1.12-.6a4.89 4.89 0 001.17-.73c.43-.44.54.14.79.27.5.28.72 1.2 1.38 1.25.09 0 .16.2.25.23.29.07.37.29.66.35.11 0 .27 0 .3.07.21.13.53.38.82 0a2 2 0 01.72-.61 7.63 7.63 0 011.29-.56 1.08 1.08 0 01.19-.09z" fill="currentColor"/><path d="M30 49.33c-.07-1.47-9.13-5.62-9.72-5s-.28 10.17.57 10.93c.51.46 9.23-4.62 9.15-5.93z" fill="currentColor"/></svg>