<svg xmlns="http://www.w3.org/2000/svg" viewBox="0 0 30.53 56.03"><path d="M21.72 47.13c-.34.08-.5-.13-.85-.15a9.18 9.18 0 00-1 .23c-.53 0-1 .24-1.58.25a20.55 20.55 0 01-4.24-.46 8.75 8.75 0 01-1.29-.37h-.1c-.29-.08-.56-.21-.83-.31s-.55-.2-.81-.31a4.19 4.19 0 01-1-.5 7.71 7.71 0 00-.82-.39c-.1 0-.83-.47-1-.58a3.75 3.75 0 01-.37-.68 5.67 5.67 0 00-.86-1.61c-.09-.16-.15-.35-.23-.52v-.09a.74.74 0 00-.18-.38 30.71 30.71 0 01-.82-5.68 8.6 8.6 0 01-.07-2.27 38 38 0 00.26-4.12 5.51 5.51 0 010-1.94 12.68 12.68 0 00.24-1.46c0-.69-.14-1-.19-1.73-.12-1.53-.15-3.06-.18-4.59a5.06 5.06 0 01.18-1.21 2.93 2.93 0 000-1.85 2.72 2.72 0 01-.25-1.71 14 14 0 00.08-3.1 32.85 32.85 0 01.3-4.75 4.55 4.55 0 00.26-1.43A10.93 10.93 0 016.69 2 2.24 2.24 0 005.12.08C4.59 0 3.93.11 3.39 0 2.16-.15 0 .59 0 1.28s.16 1.45.18 2.18S.08 5 .16 5.73c.06.6.55 1.2.47 1.79S.8 8.75.56 9.42a9 9 0 00-.09 3c-.08 2.19-.08 4.43-.28 6.64a39.08 39.08 0 00.18 4.21c.06 3.82 0 7.64.13 11.47l.08 3a35.19 35.19 0 01.3 4 2 2 0 000 .23 5.79 5.79 0 00.65 2.21 12.43 12.43 0 001 2.1c.21.33.41.68.63 1l.84.92a11.59 11.59 0 004.37 2.89 20.07 20.07 0 004.28 1.37 27.25 27.25 0 004.23.55c1.52.26 3.05 1.07 4.53 1.09a1.42 1.42 0 001.1-.53c.32-.39.42-.29.53-.56a4.35 4.35 0 00.12-1.61c-.16-1.88-.78-4.4-1.44-4.27z" fill="currentColor"/><path d="M30.53 50.07c-.08-1.46-9.14-5.62-9.72-5s-.29 10.14.55 10.9c.52.49 9.23-4.59 9.17-5.9z" fill="currentColor"/></svg>