<svg xmlns="http://www.w3.org/2000/svg" viewBox="0 0 37.97 210.96"><path d="M27.79 159.07a7.29 7.29 0 01-.53-.76c-.19-.25-.56-.51-.75-.73-.4-.41-.87-.74-1.27-1.13-1.13-1.09-2.24-2.14-3.23-3.22l-.24-.27-.32-.37c-.14-.16-.27-.32-.4-.49a13.33 13.33 0 01-1.35-2c-.07-.11-.12-.24-.17-.33l-.06-.11a8.83 8.83 0 01-.57-6.15 12.13 12.13 0 011-2.47 13.91 13.91 0 011-1.72c.24-.4 2-2.83 2.33-3.21.12-.16 1-1.27 1.71-2.16-.68-.66-1.52-1-2.19-1.71-2.42 2.79-4.92 5.78-6.28 9.5a11.77 11.77 0 00-.23 7.4 13.12 13.12 0 001.61 3.35c.33.51.7 1 1.07 1.45.18.23.38.45.57.67l.27.31c.89 1 1.81 1.87 2.7 2.75a36.85 36.85 0 012.37 3.28 1.72 1.72 0 00.82.59c.34.11.36.22.54.22a1.35 1.35 0 00.74-.37c.71-.6 1.39-1.81.86-2.32zm7.04-41.76v-.51a9.56 9.56 0 00-.09-1.18 8.68 8.68 0 00-.28-1.4 11.67 11.67 0 00-.32-1.22l-.21-.54c-.18-.43-.36-.89-.6-1.34l-.89-1.31a18.54 18.54 0 00-6.62-5.28 74.88 74.88 0 00-7.39-3.19c-2.45-1-4.87-1.88-7.14-3-.58-.26-1.12-.57-1.67-.88a14.12 14.12 0 01-1.56-1 8 8 0 01-2.34-2.37 5.22 5.22 0 01-.38-4.28 11.71 11.71 0 012.51-4.31c4.07-4.79 10-7.85 15.61-11.4a51.8 51.8 0 003.61-2.49 38.92 38.92 0 004.06-3.43 30.49 30.49 0 002.46-2.79c.42-.55.83-1.11 1.17-1.65a15.9 15.9 0 00.87-1.47 20.92 20.92 0 001.68-4.12 17 17 0 00.65-4.5 13.14 13.14 0 00-1.39-6A14.13 14.13 0 0032.69 43 40.67 40.67 0 0028 39.83l-4.72-2.89c-1.66-1-3.3-2.08-4.92-3.13-2.65-1.72-4.94-3.21-7.58-4.69-1.21-.67-2.34-1.31-3.49-2A17.09 17.09 0 014 24.87a3.9 3.9 0 01-1.3-2.37 5.28 5.28 0 01.71-2.81 31.55 31.55 0 014.06-5.84 35.14 35.14 0 014-3.91c.7-.6 1.44-1.13 2.16-1.67l1.13-.75c.19-.13.37-.26.57-.37l.33-.2a24.66 24.66 0 012.76-1.42 15.51 15.51 0 001.73-.67 17.74 17.74 0 014.25-1.35c.63-.18 2.09-.87 2.19-1.37.06-.29-.17-.57-.13-.86.13-.66-1.12-1.47-2.08-1.28s-2 .63-2.91 1a28.4 28.4 0 00-3 1.18c-.75.4-1.41 1-2.15 1.33a9.73 9.73 0 00-1.13.65l-.57.35-.3.16-.19.1-.54.31a35.1 35.1 0 00-10.66 10.3A24.71 24.71 0 00.76 19a9.1 9.1 0 00-.69 2.25 6 6 0 00.16 2.55 7.74 7.74 0 002.89 3.78c1.19.89 2.36 1.54 3.48 2.26l13.64 8.49 8.64 5.32a19.84 19.84 0 013.68 3 8.41 8.41 0 011.32 1.8 11.27 11.27 0 01.91 2 11.72 11.72 0 01.05 6.14 19.19 19.19 0 01-2.59 5.89 25.31 25.31 0 01-4.24 5 41.72 41.72 0 01-5.37 4C18.83 73.91 14.74 76.13 11 79a31.52 31.52 0 00-5.2 5 13.43 13.43 0 00-3.2 6.78 7.7 7.7 0 00.6 4 9.13 9.13 0 002.44 3.09 17.77 17.77 0 003.05 2 16.86 16.86 0 001.57.83c.53.26 1.06.53 1.6.76 2.9 1.3 5.48 2.2 8 3.21a32.29 32.29 0 017.24 3.77l.7.5.1.09a11.91 11.91 0 013.2 3.89c.16.38.36.75.5 1.14l.29 1.19a8.92 8.92 0 01.19 2.41 11.89 11.89 0 01-1.5 4.77c.51.9 1 2.11 1.85 2.5a15.91 15.91 0 001.46-2.92 15.08 15.08 0 00.94-4.7z" fill="currentColor"/><path d="M24.86 156.34a8.64 8.64 0 01-.78-.85c-.35-.38-.95-1.13-1.29-1.47l-.81-.79-.18-.18-.09-.09-.28-.31a16.46 16.46 0 01-1.27-1.65 9 9 0 01-.86-9.17c1.33-3.1 3.79-5.84 6.2-8.58 1.28-1.44 2.65-2.86 3.94-4.37a20.87 20.87 0 004.8-8.11 13.77 13.77 0 00.41-4.46l-.12-1.12-.27-1.13a8.35 8.35 0 00-.32-1.16l-.48-1.17a14.2 14.2 0 00-5.5-5.92 43.86 43.86 0 00-6.96-3.34c-4-1.65-7.8-2.93-11.15-4.86a11.58 11.58 0 01-3.66-2.68 4.85 4.85 0 01-1.17-3.8c-.79.76-1.5 1.27-2.13 2a7.81 7.81 0 002.15 4 16.32 16.32 0 003.41 2.65l.2.13c.55.34 1.11.63 1.69.93 4.22 2.29 9.05 3.59 13.25 5.65a18.94 18.94 0 016.05 4.29 9.41 9.41 0 012.36 6.49 13 13 0 01-2.44 6.79 50.3 50.3 0 01-4.92 6.05 57.05 57.05 0 00-6.56 8.11A16.61 16.61 0 0016 143.3a11.41 11.41 0 00.16 5.6 14.46 14.46 0 003 5.35l.46.55.14.15.28.3.57.6 2.25 2.27a4.17 4.17 0 012-1.78zm9.83 23.05a1 1 0 01-1.06 0A1.47 1.47 0 0133 178c.09-1.27-.62-2.72-.95-3.92-.17-.71-.42-1.41-.65-2.11a11.82 11.82 0 00-.81-2c-.25-.46-.47-1.05-.72-1.62a8.8 8.8 0 00-.42-.81 3.11 3.11 0 00-.59-.61 2 2 0 01-.51-2.57 1.76 1.76 0 011.15-.85c1-.23 1.71 1 2.17 1.73a3.48 3.48 0 01.39 1.15 4.49 4.49 0 00.29 1.19c.18.4.26.84.42 1.25a21.91 21.91 0 01.72 2.21 22.52 22.52 0 01.61 2.24c.14.72.11 1.44.2 2.15s.52 1.37.6 2.08c.02.49.22 1.57-.21 1.88zm-1.46 5.24c0-.48-.09-1.93.59-2a1.55 1.55 0 01.94.28 9.75 9.75 0 011.25.84 1.64 1.64 0 01.5.61c.25.64 0 1.44 0 2.11a26.36 26.36 0 01-.67 3.55c-.22 1.26.13 2.37-1 3-.3-.33-.77-.77-.82-1.23l-.14-1.7-.18-1.7-.18-1.7-.25-1.69a2.09 2.09 0 01-.04-.37zm.07 14.94a2.3 2.3 0 01.41-1.3c.69-1 2.5-1.05 2.54.43a7.86 7.86 0 01-.51 2.36c-.14.56-.77 2.4-1.45 1.78a5.53 5.53 0 01-1-2.71 2.6 2.6 0 01.01-.56zm.55 11.43h-.08c-1.41 0-2.05-2.36-1.14-3.27a1.82 1.82 0 012.7.27c.42.85-.42 2.86-1.48 3z" fill="currentColor"/></svg>