<svg xmlns="http://www.w3.org/2000/svg" viewBox="0 0 35.88 203.36"><path d="M.71 17.83a27.49 27.49 0 012.32-4.71 17.55 17.55 0 013.24-3.79 2.48 2.48 0 011.9.17c.43.32.79 1.19.54 1.41a42.14 42.14 0 00-5.48 5.88 5.1 5.1 0 01-.85 1.15 2.62 2.62 0 01-1.29.23c-.34-.04-.34-.31-.38-.34zm.63 7.08a3.67 3.67 0 012.59.93c1.27.82 2.33 1.57 3.44 2.4A17.1 17.1 0 009.58 30c.68.34.72.73.22 1.4a.71.71 0 01-.51.14c-2.54-1.15-4.56-2.47-7.06-3.76-.5-.26-1.05-.51-1.55-.8a1.12 1.12 0 01-.65-1.13 1 1 0 01.34-.54 1.62 1.62 0 01.35-.22 4.9 4.9 0 01.62-.18zM15.57 3.72a37.63 37.63 0 014.46-2.44A12.92 12.92 0 0122.94 0a2.48 2.48 0 011.62.51c.14.09-.07.69-.13 1.06-.23 1.53-1.49 1.31-2.49 1.64s-4 .94-4.9 1.53c-1.1.6-1.41.47-1.62-.78-.03-.16.25-.38.15-.24zm18.58 52.34a13.67 13.67 0 00-1-5.05 17 17 0 00-.93-2c-.4-.62-.74-1.29-1.17-1.87-.09-.14.07-.49.31-.81a1.61 1.61 0 01.59-.53 1.55 1.55 0 01.59-.11 1.78 1.78 0 011.26.34 12.16 12.16 0 012 8.57 7 7 0 01-.28 1.53c-.1.2-.63.35-.91.32s-.43-.37-.46-.39zm-2.12 7.36c.7.73.09 1.46-.31 2.12a16.36 16.36 0 01-3.47 3.63 9.25 9.25 0 01-1.44 1 13.69 13.69 0 00-1.34.92c-.6.54-1.12.51-1.81 0a.47.47 0 010-.43c1.83-1.74 3.58-3.13 4.82-5.17.24-.4.4-.84.59-1.24.22-.92 1.64-1.36 2.96-.83zm-8-22.7c-1.34-.57-3.51-1.74-4.46-2.16a18.73 18.73 0 01-2.77-1.25 2.53 2.53 0 01-.77-1.49c0-.17.53-.45.82-.67 1.24-.93 2 .16 3 .72s3.36 2.58 4.37 3.12c1.22.66 1.2 1 .11 1.73-.16.11-.47-.01-.3 0zM4.61 97.27A7.71 7.71 0 01.9 92.89 7.07 7.07 0 011.45 88a2.71 2.71 0 011.86-.68c.68.09 1.64.67 1.51 1a8.75 8.75 0 00-.86 3.83 5.78 5.78 0 001.4 3.56c.28.35.75.64.9 1 .07.14-.45.48-.84.6a1.76 1.76 0 01-.81-.04zm7.65 3.25a3.13 3.13 0 012.59 0 27.68 27.68 0 013.89 1.69 24.08 24.08 0 002.56 1.41c.69.23.91.67.77 1.54a.46.46 0 01-.35.26c-2.51-.74-4.78-1.65-7.52-2.36-.55-.14-1.15-.23-1.73-.36-1.17-.25-1.55-1.28-.21-2.18zM8.88 80.16a46 46 0 013.66-3.28 15.12 15.12 0 012.39-2 3.33 3.33 0 011.9-.16c.18 0 .26.61.39.93.55 1.36-.76 1.57-1.62 2.13a47.07 47.07 0 00-4.47 2.63 1.78 1.78 0 01-1.1.59 1.77 1.77 0 01-1.15-.62c-.17-.1.04-.38 0-.22zm11.51 54.36c1.08-1.77 2-3.26 3-4.64s1.89-2.55 2.89-3.72c.2-.23 1.27-.08 1.63.24s.63 1.35.39 1.66c-1.81 2.26-3.93 4.23-5.83 6.21a6.57 6.57 0 01-1 1 1.2 1.2 0 01-.91-.21c-.19-.14-.17-.5-.17-.54zm-3.53 6.74a1 1 0 01.58.88 3.72 3.72 0 01-.16 1 14.44 14.44 0 00-.37 4.26 6 6 0 00.62 2.86c.41.62.29 1-.41 1.55a.62.62 0 01-.48 0 11.11 11.11 0 01-2.46-7.17c0-.53-.06-1.05-.07-1.57a2.19 2.19 0 012.75-1.81zm14.17-23.44c0-.34-.08-.75-.11-1.17s-.15-.85-.27-1.26a8.33 8.33 0 00-.78-2 11 11 0 00-.79-1.1 5.3 5.3 0 01-.82-1 2.42 2.42 0 01-.22-1.54c0-.17.61-.3 1-.43a1.42 1.42 0 011.66.39 17.76 17.76 0 011 1.6 9.76 9.76 0 01.82 2.88 10 10 0 01.17 1.66v1.27c.05.73-.08 1.14-.31 1.27s-.59 0-1.15-.31c-.28-.08-.31-.41-.2-.26zm1.9 66.62c-.12-.5-.24-1-.35-1.43l-.4-1.31c-.27-.85-.45-1.67-.71-2.47s-.43-1.5-.6-2.26-.41-1.51-.55-2.27c-.06-.3.72-1.06 1.19-1.15s1.44.32 1.54.7a46.31 46.31 0 011.15 8.58 6.22 6.22 0 010 1.49c-.05.21-.52.42-.8.42s-.45-.28-.47-.3zm1.04 7.76c1 .37.91 1.24.92 2a26.48 26.48 0 01-.4 4.7 30.49 30.49 0 00-.57 3.16c0 .79-.36 1.16-1.22 1.32a.45.45 0 01-.36-.24c-.14-2.52.11-4.84-.16-7.35 0-.5-.17-1-.26-1.48a1.91 1.91 0 012.05-2.11zm-6.57-27.02c-.22-.29-.44-.65-.72-1l-.86-1.05a13.74 13.74 0 00-1.48-1.7 19.3 19.3 0 01-2.14-2 2.71 2.71 0 01-.35-1.62c0-.17.64-.29 1-.44a1.4 1.4 0 011.62.24c.39.38.69.93 1.05 1.36.86.86 2.25 3.76 2.91 4.73.72 1.18.54 1.46-.74 1.6-.21.05-.43-.22-.29-.12z" fill="currentColor"/></svg>