<svg xmlns="http://www.w3.org/2000/svg" viewBox="0 0 29.54 196.83"><path d="M29.16 144.21a5.51 5.51 0 01.07-.89c0-.3-.11-.72-.13-1 0-.55-.16-1.09-.19-1.64q-.14-2.34-.3-4.68l-.09-1.22c-.05-.61-.09-1.22-.17-1.83v-.38c-.16-1.69-.41-3.36-.7-5-.19-.94-.66-3.24-.7-3.46s-.65-2.39-.75-2.74c0-.13-.41-1-.66-1.8-.91.24-1.7.68-2.62.92l.54 1.72.46 1.74c.33 1.15.55 2.33.79 3.48.27 1.45.51 2.91.69 4.37l.26 2.2.18 2c.13 1.24.16 2.48.25 3.73s-.36 2.78-.38 4.11a2 2 0 00.26 1c.19.3.14.4.28.51a1.21 1.21 0 00.8.16c.95-.08 2.19-.61 2.11-1.3zm-8.8-36.53s-.06-.11-.17-.27l-.4-.59-.94-1.36-.19-.3a16.76 16.76 0 00-1.16-1.46c-1.11-1.48-2.4-2.71-3.23-4a5.62 5.62 0 01-.85-1.91 4.58 4.58 0 01.05-2 40.68 40.68 0 011.73-4.72l2-4.9c.91-2.32 1.8-4.6 2.71-7a60.61 60.61 0 003.65-13.06 58.32 58.32 0 00.44-6.44 33.46 33.46 0 00-.29-4.91 30.79 30.79 0 00-1.47-5.64 26.08 26.08 0 00-3.71-6.89 16.65 16.65 0 00-1.26-1.52c-.44-.49-.89-1-1.37-1.41-1-.89-2-1.7-3-2.47s-2.08-1.61-3.06-2.42a50.69 50.69 0 01-4.15-3.83 9.43 9.43 0 01-2.48-4.28 14.14 14.14 0 01-.52-4.45A17.77 17.77 0 013 19.57l.23-1.14.35-1.13a16.57 16.57 0 01.65-1.75A15.84 15.84 0 015 13.88a16.49 16.49 0 01.85-1.61l.45-.79c.13-.24.38-.61.4-.64l.87-1.28c.3-.42.63-.84 1-1.26s.9-.92 1.23-1.44a24.08 24.08 0 013-3.41c.45-.49 1.3-1.93 1.1-2.4-.11-.26-.47-.36-.6-.62-.3-.61-1.78-.58-2.42.13S9.61 2.11 9 2.9 7.61 4.49 7 5.36c-.48.64-.75 1.51-1.25 2.15A8.86 8.86 0 005 8.6c-.11.19-.23.38-.35.56l-.55.77a25.72 25.72 0 00-3.77 9.31 15.54 15.54 0 001.91 11.28A19.54 19.54 0 006 34.86c1.4 1.25 2.87 2.34 4.27 3.43a35.69 35.69 0 014.94 4.3 20.63 20.63 0 013.51 5.27 32 32 0 012.19 17.42c-.79 6-2.84 11.73-5.09 17.43-1.13 2.84-2.35 5.66-3.52 8.52-.75 1.9-1.64 3.73-1.6 6a7.31 7.31 0 00.85 3.14 16.93 16.93 0 001.78 2.63l.39.5.07.08c.79.93 1.52 1.93 2.32 2.9a33.49 33.49 0 013.78 6.16 6.85 6.85 0 002.93-.49c-.29-.62-.58-1.19-.94-1.86s-1.03-1.72-1.52-2.61z" fill="currentColor"/><path d="M28.71 140.33v-1.16c0-.47.05-1.51 0-2s-.08-.82-.13-1.18v-.26l-.05-.45-.15-1.51a77.94 77.94 0 00-3-14.8c-.42-1.26-.81-2.54-1.27-3.79a27.87 27.87 0 00-2.61-5.57c-.55-.8-1-1.56-1.54-2.32s-1.07-1.54-1.67-2.42c-1.9-2.89-4.87-5.07-5-7.6a8.37 8.37 0 01.8-3.48c.5-1.25 1-2.5 1.55-3.74.8-2.1 1.64-4.21 2.51-6.35a7.37 7.37 0 01-2.55.36c-.72 1.66-1.49 3.29-2.3 4.91l-.08.14c-.17.38-.33.75-.52 1.14a28.34 28.34 0 00-1.82 4.62 8.07 8.07 0 00-.22 2.89 7.77 7.77 0 00.93 2.76A33.4 33.4 0 0015 105c.52.69 1.1 1.34 1.58 2.06s1 1.43 1.45 2.17a42.87 42.87 0 014.34 9.49 70.1 70.1 0 013 13c.15 1.23.3 2.46.39 3.71l.09 1c0 .26.05.52.06.79.06 1 .13 2.08.17 3.13a4.14 4.14 0 012.63-.02zm-1.9 24.99a1 1 0 01-1-.26 1.54 1.54 0 01-.36-1.45 18.41 18.41 0 00.16-4.14c.06-1.5.22-3 .16-4.54-.05-1.09.25-2.58-.16-3.63a2.09 2.09 0 01.87-2.55 1.78 1.78 0 011.43-.09c.91.35 1 1.71 1 2.55s-.45 1.44-.48 2.31c0 .42-.13.84-.17 1.27-.14 1.51-.23 3-.4 4.53-.08.71-.32 1.38-.45 2.08s.14 1.43.05 2.14c-.11.46-.16 1.57-.65 1.78zm-2.23 5.03c0-.5.13-2 .83-2a1.47 1.47 0 01.88.41 12.21 12.21 0 011.15 1 1.65 1.65 0 01.43.64c.2.65-.18 1.39-.21 2.05a30.11 30.11 0 01-.79 3.46c-.2 1.26.19 2.33-.89 3a2.51 2.51 0 01-.85-1.21c-.29-2.31-.36-4.65-.54-7a2.2 2.2 0 01-.01-.35zm.56 15.4a2.25 2.25 0 01.2-1.38c.56-1.07 2.34-1.37 2.58 0a9 9 0 01-.11 2.37c0 .56-.25 2.47-1 2a5.16 5.16 0 01-1.5-2.51 3.48 3.48 0 01-.17-.48zm3.57 10.96h-.07c-1.31.55-2.74-1.54-2.19-2.73a1.82 1.82 0 012.65-.58c.69.72.57 2.82-.39 3.31z" fill="currentColor"/></svg>