<svg xmlns="http://www.w3.org/2000/svg" viewBox="0 0 37.94 207.57"><path d="M8.47 12.18c-.29.14-.66.14-.8.47-.26.62-.73.38-1.07.23a1.9 1.9 0 01-1.35-1.57c-.1-.81.34-.93.84-1.31.68-.54 1.81-.83 2.39-.13a2 2 0 01.3 1 4 4 0 01.12.68 1.09 1.09 0 01-.18.43.59.59 0 01-.25.2zm-5.1 5.07c.08.19.45.69.35 1-.2 1-.65 1.35-1.21 1.47A2.2 2.2 0 011 19.53c-.48-.29-1.14-1-1-1.37.64-1.75 1.68-1.89 3.37-.91zM20.92.23h.21c.43 0 .77-.19 1.18-.21s.47.08.72.42A1.63 1.63 0 0123.48 2c-.06.51-.22.71-.78 1.19s-1.51.15-2.35-.72a.82.82 0 01-.22-.57 7.43 7.43 0 01.3-1c.15-.47.16-.63.49-.67zm-6.43 7.12c-.73.23-2.3-.64-2.33-1.15a2.71 2.71 0 01.76-2.15c.59-.36 1.6 0 2.38.11a2.12 2.12 0 01-.81 3.19zm4.69 26.38c.22.25.3.62.66.71.68.16.53.66.44 1A2 2 0 0119 37.06c-.77.26-.93-.17-1.4-.55-.64-.52-1.17-1.53-.65-2.27a1.76 1.76 0 01.87-.53 3.23 3.23 0 01.64-.27 1.11 1.11 0 01.48.09.58.58 0 01.24.2zM25 38.36c.2-.07.71-.45 1-.33a1.68 1.68 0 011.08 2.86c-.39.4-1.14 1-1.44.82-1.4-.71-1.64-1.62-.64-3.35zM2.79 27.53l-.14-.17c-.26-.38-.61-.6-.89-1s-.19-.49 0-.87a1.63 1.63 0 011.17-1.11 1.72 1.72 0 011.34 0c.78.2.92 1.09.7 2.3a.8.8 0 01-.33.52 7.05 7.05 0 01-1 .34c-.47.16-.64.25-.85-.01zm9.55 1.83c.57.59.39 2.37-.07 2.6a2.76 2.76 0 01-2.23.22c-.55-.36-.65-1.4-.94-2.14a2.07 2.07 0 013.24-.68zm22.84 32.7c-.25.25-.63.35-.73.71-.19.71-.69.57-1.05.47a2 2 0 01-1.57-1.37c-.27-.75.17-.86.5-1.32a1.89 1.89 0 012.18-.78 1.73 1.73 0 01.63.83 2.81 2.81 0 01.3.63 1.09 1.09 0 01-.07.5.82.82 0 01-.19.33zm-5.4 5.58c0 .21.25.8 0 1.11a1.75 1.75 0 01-1.92 1.12 1.82 1.82 0 01-1.17-.93c-.23-.5-.52-1.4-.31-1.62 1.04-1.07 1.93-1.04 3.4.32zM32 46.43v-.17a5.6 5.6 0 00-.59-.85c-.19-.28-.13-.4 0-.78s.23-.85 1.07-1.21c.48-.19.76-.17 1.52.19.92.47.92 1.58.24 2.6a.86.86 0 01-.5.36h-1c-.46.04-.6.11-.74-.14zm5.91 7.23a1.82 1.82 0 01-1.15 1 1.47 1.47 0 01-1.23.09 4.42 4.42 0 01-.81-.86 1.48 1.48 0 01-.41-.88c.07-.55.8-1.12 1.23-1.81a1.88 1.88 0 012 .69 2.3 2.3 0 01.37 1.77zM8.15 84.65c-.27.15-.64.17-.76.49-.24.62-.68.41-1 .29A1.88 1.88 0 014.87 84c-.14-.81.34-.94.8-1.37.66-.6 1.8-.91 2.39-.24a1.88 1.88 0 01.33 1 3.38 3.38 0 01.15.67 1 1 0 01-.16.42.66.66 0 01-.23.17zm-3.94 5.46c.15.15.69.43.77.69a1.36 1.36 0 01-.27 1.65 2.32 2.32 0 01-1.3.72c-.55.07-1.52-.11-1.63-.54a2.08 2.08 0 01.32-2.15 2.55 2.55 0 012.11-.37zM19.66 72a.74.74 0 01.19 0 8.29 8.29 0 001-.45c.34-.12.46 0 .78.22a1.65 1.65 0 01.86 1.37c.07.5 0 .77-.49 1.38s-1.52.53-2.5-.21a.83.83 0 01-.32-.52 9.35 9.35 0 01.11-1c.1-.58.07-.73.37-.79zM14 79.69c-.73.27-2.32-.57-2.36-1.08a2.68 2.68 0 01.69-2.16c.57-.36 1.56 0 2.36 0a2.09 2.09 0 01-.69 3.24zm11.38 23.99c.25.23.36.61.73.69.71.16.58.67.5 1a2 2 0 01-1.3 1.63c-.74.29-.87-.13-1.35-.46a1.82 1.82 0 01-.83-2.18 1.7 1.7 0 01.81-.62 2.61 2.61 0 01.62-.32 1.22 1.22 0 01.5 0 .72.72 0 01.32.26zm5.69 5.4c.21 0 .86-.19 1.14.11a3 3 0 01.9 1.21 1.43 1.43 0 01-.09 1 1.81 1.81 0 01-1.19.92c-.55.09-1.46.17-1.59 0a1.61 1.61 0 01-.43-1.5 3.8 3.8 0 011.26-1.74zM8.14 99.81a1.06 1.06 0 01-.14-.15c-.29-.32-.65-.47-1-.75s-.26-.41-.17-.82a1.64 1.64 0 01.9-1.34 1.71 1.71 0 011.4-.21c.87.11 1.1 1 1 2.24a.84.84 0 01-.28.54 7.7 7.7 0 01-1 .45c-.34.17-.46.23-.71.04zm9.67.47c.66.48.8 2.27.39 2.57a2.72 2.72 0 01-2.16.61c-.6-.26-.88-1.26-1.3-1.95a2.08 2.08 0 013.07-1.23zm6.06 34.28c-.28.17-.66.19-.79.52-.26.64-.72.42-1.07.28a1.91 1.91 0 01-1.4-1.53c-.14-.81.32-.91.77-1.32.64-.56 1.73-.91 2.36-.27a1.78 1.78 0 01.37.95 3.35 3.35 0 01.16.68 1.06 1.06 0 01-.16.45.69.69 0 01-.24.24zm-4.94 5.23c.09.2.51.67.45 1-.1 1-.54 1.4-1.09 1.58a2.22 2.22 0 01-1.5-.1c-.48-.27-1.19-.89-1.11-1.27.46-1.79 1.51-2.08 3.25-1.21zm11.9-20.58l.11-.14a5.43 5.43 0 00.4-.93c.13-.29.25-.32.66-.39a1.7 1.7 0 011.6.21c.43.3.58.56.66 1.4.1 1-.82 1.62-2 1.61a.88.88 0 01-.58-.23c-.2-.28-.36-.57-.56-.85s-.43-.44-.29-.68zm-1.47 9.3c-.68.51-2.42.05-2.57-.44a2.82 2.82 0 01.07-2.21c.41-.47 1.43-.44 2.19-.67a2 2 0 01.31 3.32zm.5 33.54c.1.33 0 .7.28 1 .52.5.15.88-.1 1.15a2 2 0 01-1.94.75c-.78-.12-.66-.58-.93-1.09a1.81 1.81 0 01.37-2.29 1.74 1.74 0 011-.12 2.72 2.72 0 01.7 0 1.21 1.21 0 01.41.3.64.64 0 01.21.3zm2.56 7.24c.2.07.83.09 1 .41 1.39 1.91-.3 2.88-1 2.91s-1.5 0-1.64-.33c-.64-1.37-.18-2.22 1.64-2.99zM16.16 150.5c0-.06 0-.14-.05-.23-.06-.46-.26-.83-.32-1.27s.06-.51.39-.76a1.61 1.61 0 011.55-.44 1.73 1.73 0 011.19.65c.57.54.26 1.33-.46 2.33a.88.88 0 01-.53.33 5.7 5.7 0 01-1.06-.17c-.46-.09-.61-.09-.71-.44zm8.5 4.85c.43.72-.19 2.42-.7 2.51a2.77 2.77 0 01-2.2-.3c-.45-.47-.31-1.51-.42-2.31a2.08 2.08 0 013.32.1zm11.61 41.8c-.12.31-.41.56-.32.92.16.68-.35.78-.71.87a2 2 0 01-2-.44c-.58-.55-.28-.89-.16-1.47.18-.81.78-1.74 1.69-1.65a1.9 1.9 0 01.89.52c.17.15.41.24.54.44a.93.93 0 01.15.46.59.59 0 01-.08.35zm-1.53 7.34c.15.15.71.45.75.81a1.69 1.69 0 01-2.14 2.2c-.52-.19-1.34-.64-1.34-1-.01-1.5.76-2.14 2.73-2.01zm-2.21-24.26v-.19a4.77 4.77 0 000-1.13c0-.35.14-.42.5-.62a1.65 1.65 0 011.59-.26c.49.13.72.32 1.1 1 .44.84-.15 1.65-1.23 2.22a.81.81 0 01-.61.07 10 10 0 01-.9-.52c-.33-.23-.48-.26-.45-.57zm4.12 8.69c-.19.81-1.83 1.59-2.26 1.31-.61-.39-1.36-1.16-1.37-1.75s.82-1.27 1.29-1.93a2.07 2.07 0 012.34 2.37z" fill="currentColor"/></svg>