<svg xmlns="http://www.w3.org/2000/svg" viewBox="0 0 54.09 218.19"><path d="M19.22 10.6c.29-1.18.6-2.41 1-3.6.11-.31.17-.79.4-.92.75-.42.49-.73.3-1.15s-.38-.71-.72-.81a1.79 1.79 0 00-1.4.18 3.51 3.51 0 00-.8 1.59c-.2.79-.34 1.56-.47 2.32zm3.72 1.79a33.67 33.67 0 012.43-6.68c.19-.44.56-.79.73-1.22a4.69 4.69 0 00.2-1.13 13.41 13.41 0 00.34-1.43c0-.55-.28-.73-.8-.61a3.25 3.25 0 00-2.22 1.32c-.17.27-.11.61-.21.91C23 4.78 22.64 6 22.33 7.27s-.49 2.51-.77 3.71c-.17.74-.33 1.49-.5 2.25l1.43 2 .07-.44c.13-.79.17-1.61.38-2.4zM30.87 0a3.81 3.81 0 00-1.77.86 10.11 10.11 0 00-.88 2.25 49.53 49.53 0 00-2.55 5.38c-.46 1.45-.83 2.94-1.15 4.38-.09.43-.23 1.16-.36 2s-.21 1.71-.29 2.45L25 18.87l.24-.91c.1-.47.28-1.48.51-2.52s.54-2.07.69-2.56c.37-1.17.74-2.35 1.16-3.55a22.37 22.37 0 011.6-3.16A28.75 28.75 0 0030.92 3c.26-.75 2.18-1.48.76-2.59-.27-.14-.6-.41-.81-.41zm3.47 12.47a.89.89 0 00-.17-.56c-.26-.4-.5-.92-1.05-.47-.28.21-.4.82-.54 1.14s-.39.89-.58 1.34a23.65 23.65 0 01-1.11 2.38c-.49.83.18 1 .45 1.37 0 0 .5-.17.67-.38s0-.54.1-.76a16.26 16.26 0 01.87-1.7c.35-.6.74-1.19 1.06-1.73a3.6 3.6 0 00.3-.63zm.66 4.77c.21-.11.25-.18.31-.48a.93.93 0 00-.09-.71.75.75 0 00-.37-.14c-.47.21-.4.26-.48.48a1 1 0 00.1.72.47.47 0 00.53.13zm-2.53-11.4c-.67-.14-.89.51-1.1 1s-.57 1.13-.86 1.7a39.17 39.17 0 00-1.78 4c-.21.64-.66 1.83-1 3.07a19 19 0 00-.57 3.07 1.35 1.35 0 00.47.79.78.78 0 00.69.09c.11 0 .11-.39.12-.6v-1.39a12 12 0 01.38-1.7c.22-.76.48-1.52.55-1.68.4-.83 1-1.63 1.39-2.48s.72-1.52 1.13-2.25a14.3 14.3 0 001.15-2.15 1.45 1.45 0 000-.85.9.9 0 00-.57-.62zm-24.4 16.8a14.71 14.71 0 001.39 3 10.6 10.6 0 00.88 1.49 6.72 6.72 0 001.38 1.27 9 9 0 005.72 1.37 19.21 19.21 0 002.21-.32c.33-.07.66-.19 1-.27l.17-.05a2.89 2.89 0 00.76-.32 3.24 3.24 0 00.72-.52c0-.06-.43.09-.64.13s-.78.22-1.15.27a11.88 11.88 0 01-2.36.19 9.91 9.91 0 01-2.76-.52 7.14 7.14 0 01-3.2-2.36 12.07 12.07 0 01-.74-1.08 7.51 7.51 0 01-.54-1.22 12 12 0 01-.57-2.62c-.16-1-.1-2.06-.16-3.2v-1.64a13.17 13.17 0 000-1.67 3.27 3.27 0 00-1.06-1.37.55.55 0 00-.36-.11h-.22l-.27.14A8.75 8.75 0 007 14.36c-.59 1.34-.91 2.19.2 2.55.57.22.33 1.69.47 2.6a17.51 17.51 0 00.4 3.13z" fill="currentColor"/><path d="M17.14 10.84c-.22 1.18-.39 2.4-.54 3.55a27.65 27.65 0 00-.2 3.49 17.16 17.16 0 00.27 3 10.67 10.67 0 00.88 2.46A8.25 8.25 0 0018.63 25a9.33 9.33 0 001.2 1.19c.46.4 1 .28 1.51.38.07 0 .13-.11 0-.21s-.48-.21-.62-.31a4.51 4.51 0 01-1.09-1.18 6.33 6.33 0 01-.73-1.55c-.09-.28-.2-.55-.31-.85a2.35 2.35 0 01-.14-.7c0-.25-.06-.49-.09-.74 0-.49-.08-1-.11-1.51a26.72 26.72 0 010-3.1c0-.61.4-1.2.48-1.82s0-1.4.08-2.11.23-1.27.38-1.9l-1.63-2.38c-.14.87-.28 1.79-.42 2.63z" fill="currentColor"/><path d="M20.69 18.26c0 .61-.06 1.81-.06 2.94s.11 2.26.18 2.84a2.65 2.65 0 010 .29 1.43 1.43 0 00.6.71 7.06 7.06 0 00.66.46c0 .05.1-.06.16-.2a.82.82 0 00.06-.4c-.07-.35-.32-.61-.33-.94s-.08-1.46 0-2.47.12-2.06.17-2.54c.11-1.21.23-2.42.4-3.67l-1.43-2a19.69 19.69 0 00-.35 2.13c-.15.91-.02 1.91-.06 2.85zm5.43 12.98c-.05-.06-.38-.43-.46-.44a6.15 6.15 0 00-1.59-.11c-.22 0-1.08.27-1.95.5a5.19 5.19 0 00-.63.19l-.39.27-.53.33c-1.69 1-4 1.33-6.78 1.32A15.23 15.23 0 017 31.82a12.25 12.25 0 01-4.64-4C2 27.45 2 26.76 1.68 26.5c-.77-.63-1.24-.24-1.48.44a5.69 5.69 0 00-.2 1.92c.14.18.31.37.47.6a12.14 12.14 0 003 2.55A11.85 11.85 0 008 34.07c.34.09 1.08.3 2 .46a18.54 18.54 0 003.17.27 20.64 20.64 0 004.25-.42c.36-.1 1.11-.25 1.77-.45a8.84 8.84 0 00.91-.3c.32-.06.62-.09.79-.12.42-.06 3-.91 3.44-.89s.57.27.93.09 1.21-1.03.86-1.47zM13.39 9.37a21.44 21.44 0 00-.75 4.25c-.09 1.25 0 2.36.06 3.62a15.3 15.3 0 00.61 5.06A8.45 8.45 0 0015 25.5a6.86 6.86 0 004.72 2.32 6.61 6.61 0 001.13-.17 1.49 1.49 0 00.54-.21 1.91 1.91 0 00-.54-.06 13.3 13.3 0 01-1.43-.17 5.69 5.69 0 01-1.42-.53 5.16 5.16 0 01-1.1-.79 8.29 8.29 0 01-1-1.79 11.26 11.26 0 01-1.21-5.65 35.75 35.75 0 01.41-5.3 1.76 1.76 0 000-.51 15 15 0 00.54-1.42c.08-.35-.07-.75.1-1.05.32-.57.29-1.8-.21-2.09-.8-.44-1.82.12-2.14 1.29z" fill="currentColor"/><path d="M2.84 21.06a1.81 1.81 0 00-.79 2.1c.46.9 1.17 1.53 1.66 2.36a13.56 13.56 0 004.64 4.93 8.89 8.89 0 002.29 1.27 18.35 18.35 0 004.11.38 16.1 16.1 0 002.67-.2 15.7 15.7 0 002.43-.68 9.62 9.62 0 001.87-.95 5.44 5.44 0 01.58-.38c.45-.48.34-.61.33-.71 0-.26-.54.28-1 .56a8.72 8.72 0 01-1.2.6 10.18 10.18 0 01-1.38.45A13.21 13.21 0 0116 31a16.77 16.77 0 01-4.26-.5 6.73 6.73 0 01-1.27-.5 4.15 4.15 0 01-1.12-.79 22 22 0 01-1.49-1.81 20.2 20.2 0 01-1.78-3.11A17.15 17.15 0 014.33 21c-.23-.95-.94-.38-1.49.06zm21.03-3.79c-.05.57-.07 1.09-.1 1.41-.05.59-.11 1.19-.16 1.8a16 16 0 00-.15 1.66c0 .15.31.35.47.52.38.1.87 0 .73-1a7.43 7.43 0 01.34-2.79zm-4.49 25.5l-3.38.82c-.3.07-.71.26-.9.13-.6-.39-.77 0-1 .38s-.42.68-.39 1 .32.95.59 1a3 3 0 001.54-.17c.69-.21 1.37-.45 2.05-.68zm.15-4.05l-1.66.38-.84.19a4.46 4.46 0 01-.89.15 31.7 31.7 0 01-4.33.11c-.6 0-1.27-.21-1.86-.23a11.17 11.17 0 00-1.43.18c-.6.06-1.29 0-1.85.08s-.67.47-.18 1a5.6 5.6 0 003.16 1.8 5.26 5.26 0 001.2-.12c.85 0 1.67-.09 2.44-.16l1.15-.1.54-.08a2.28 2.28 0 00.44-.14c1.15-.4 2.28-.85 3.45-1.17.72-.2 1.45-.36 2.19-.53l1.31-2.12-.45.11c-.8.16-1.58.46-2.39.65zm-1.2-3.27a29 29 0 01-4 .73A19.14 19.14 0 0110 36c-1.66-.23-3.27-.72-4.34-1a6.44 6.44 0 01-1.6-1c-.54-.34-1.08-.49-1.45.37-.08.32-.3.71-.17.95a4.46 4.46 0 001.65 1.86 10.45 10.45 0 003 .45c.92.13 2.4.37 3.85.46a18.17 18.17 0 003.62 0c.88-.12 1.71-.27 2.48-.45s1.46-.41 2.18-.6l4.42-1.24 1-1.66c-.35 0-.69.05-1 .1-.52.06-1.61.29-2.7.52l-1.56.35c-.47.16-.8.29-1.05.34zm12.88 14.43c1.15-.33 2.28-.76 3.44-1.05 1.34-.33 2.7-.55 4.08-.8a28.57 28.57 0 016.27-.41 12.34 12.34 0 011.33.14 8.21 8.21 0 011.4.37 8.66 8.66 0 011.37.48l.29.17a2 2 0 001.1.37c.29-.06.74-.28.38-.9a5.59 5.59 0 00-1.72-1.41 8.14 8.14 0 00-1.9-.72 12 12 0 00-3-.39 15.47 15.47 0 00-3.3.15 44.55 44.55 0 00-4.95.82c-1 .22-2.05.51-3.08.75L30.2 48c-1 .21-1.92.39-2.85.66a12.69 12.69 0 00-2.57 1 3.81 3.81 0 00-1.1 1.34.83.83 0 000 .72 3.19 3.19 0 00.64.63c.87.08 1.43.16 1.88-.86.24-.53 1.38-.71 2.14-1 .96-.22 1.93-.35 2.87-.61z" fill="currentColor"/><path d="M20.21 44.52c2.21-.59 4.45-1 6.66-1.59 2-.51 3.93-1.14 5.91-1.66a24.88 24.88 0 015.15-.92c1.13 0 .75-.68.89-1.14a2 2 0 00-.88-.43c-.24 0-.49.28-.75.32-1.29.19-3.68.41-5 .58a11.3 11.3 0 00-1.16.22C29 40.44 27 41 25 41.51c-.59.14-1.26 0-1.86.14s-1.28.52-1.94.69l-1.8.43-1.53 2.49c.76-.26 1.55-.53 2.34-.74zM26 38.65c1.25-.32 4.84-1 6.1-1.26a3.19 3.19 0 01.33 0c.74.12.87-.16 1.05-.43a1 1 0 000-1 1 1 0 00-.91-.27c-.38.1-.58.4-1 .46l-5.44.9c-1.27.22-2.51.54-3.75.85L21.06 40c.7-.15 1.4-.3 2.1-.48.95-.21 1.84-.63 2.84-.87zm27.81 26.13a5.7 5.7 0 00.28-1 7.53 7.53 0 00-.52-2.37 14.71 14.71 0 00-1.47-2.31 14.28 14.28 0 00-1.74-1.92 19.58 19.58 0 00-6-3.9c-.31-.1-.6-.2-.91-.28a10.29 10.29 0 00-5.67.33c-1.7.52-3.24 1.25-4.86 1.84-.36.14-.82 0-1.15.28-1.55 1.11.13 1.73.39 1.85.15-.06.34-.16.52-.22.75-.24 2-1.07 2.76-1.34a30.21 30.21 0 013.42-1.08 7.77 7.77 0 013.3.05 11.27 11.27 0 012.64.81c.75.37 1.33.73 1.5.81a10.32 10.32 0 011.7 1.38 16.75 16.75 0 011.47 1.81 17.12 17.12 0 012.41 3.67c.13.58-.07.93.22 1.31s1.35 1.06 1.71.28zm-33.98-16.4c1.29-.2 2.56-.45 3.82-.76 1.1-.28 2.15-.69 3.24-1 1.63-.46 3.26-.91 4.9-1.32 1.44-.35 2.9-.62 4.34-1 .67-.15 2-.45 3.32-.71s2.81-.44 3.56-.55c.27 0 .5-.45.53-.75a1.29 1.29 0 00-.48-.84c-.15-.12-.52 0-.76.05-.51.15-1 .37-1.45.54s-3.38.74-3.73.78c-1 .11-2 .07-3 .25-2.12.41-4.23.93-6.35 1.38l-5 1a2.36 2.36 0 00-.46.17 11.08 11.08 0 00-1.38 0c-.32 0-.63.34-.92.3-.58-.06-1.62.49-1.73 1-.17.98.51 1.62 1.55 1.46z" fill="currentColor"/><path d="M28.37 54.37a.81.81 0 001.27.51c.83-.39 1.59-.94 2.45-1.26 2.08-.77 4.07-1.53 6.15-2.15a15 15 0 012.33-.18 10.52 10.52 0 013.56.14 11.79 11.79 0 012.08.69c.22.11.43.21.65.3a13.58 13.58 0 012.87 1.64c.23.17.8.59 1.34 1.06s1 1 1.22 1.26.93 1.09.86 1.25c.72.71.68-.44.63-1a3.23 3.23 0 00-1.72-2.56c-.36-.3-1.06-.86-1.75-1.36s-1.49-.89-1.86-1.11-.48-.29-.74-.46a12.13 12.13 0 00-3-1.35 11.07 11.07 0 00-4.08-.11 33.3 33.3 0 00-5 .81c-1.18.38-2.43.61-3.6 1.06s-2.15 1.14-3.28 1.57c-.75.3-.51.81-.38 1.25zm-4.73-18.52l1.45-.38c.63-.15 1.28-.26 1.93-.36s1.26-.12 1.86-.26c.16 0 .24-.4.35-.61-.06-.41-.48-.92-1.42-.55a11.16 11.16 0 01-3.15.5zm16.99 26.69a9.58 9.58 0 00-1.09-1 5.77 5.77 0 00-1.17-.8c-.22-.11-.59-.2-.57-.29 0-.28-.44-.22-.88-.19s-.81.07-1 .13-.65.18-.56.22.58.27.92.46a9.85 9.85 0 011.54.91z" fill="currentColor"/><path d="M44.36 61.35a9 9 0 00-5.11-3 4.67 4.67 0 00-.94-.17 5.51 5.51 0 00-1 .23 8 8 0 00-1.17.38c-.45.21-.66.41-.69.52s-.05.32.51.29c.19 0 .52-.09.74-.1a9.31 9.31 0 011.47.08 7.56 7.56 0 011.46.35c.24.08.49.17.75.28a7.46 7.46 0 01.69.35 6.21 6.21 0 011.34 1 9.56 9.56 0 011.36 1.64l2.45.5c-.09-.14-.15-.27-.25-.4a17.45 17.45 0 00-1.61-1.95z" fill="currentColor"/><path d="M46.38 58.29a11.72 11.72 0 00-1.61-1.09 9 9 0 00-1.72-.7 12.87 12.87 0 00-2.63-.62 6.88 6.88 0 00-1.77.07 7.43 7.43 0 00-1.44.43c-.6.26-1.57-.18-2.05 1.25-.06.23-.24.58-.18.63s.39.36.65.19a15.93 15.93 0 011.74-.8 1.18 1.18 0 01.4 0 6.6 6.6 0 012.12-.06 13 13 0 012 .52 10 10 0 011.9.86 11 11 0 011.77 1.34A18.7 18.7 0 0147 61.88a18.27 18.27 0 011.54 2.35l1.91.39a9.39 9.39 0 00-.42-1.23 11.93 11.93 0 00-.6-1.23c-.29-.5-.67-1-1-1.58a15.93 15.93 0 00-2.05-2.29zM35 72.19a19.72 19.72 0 01.14 3.45 37.16 37.16 0 01-.75 4.07c-.4 1.92-.93 3.84-1.27 5.77-.09.52-.33 1.69-.48 2.18a10.44 10.44 0 01-.25 1l-.08.21a1.3 1.3 0 00-.11.86c.09.27.32.71.69.55s.61-.74.78-1 .28-.92.49-1.35.48-1.89.67-2.47c.33-1 .52-2 .77-3 .41-1.61.8-3.22 1.06-4.83a21.58 21.58 0 00.24-3.18 24.24 24.24 0 000-2.7 13.75 13.75 0 00-.41-2.68 8 8 0 00-1-2.33 4.94 4.94 0 00-1.31-1.1 1 1 0 00-.65-.12c-.21 0-.33.21-.49.33a1.56 1.56 0 00.87 1.66c.48.31.68 1.31.82 2a18.72 18.72 0 01.27 2.68zm4.33-8.77A16.59 16.59 0 0142 69.19a27.77 27.77 0 011.09 6.25 15.1 15.1 0 01-.81 5.84c-.56 1.27.36 1 .8 1.22a3.45 3.45 0 00.9-1c.14-.26-.09-.6 0-.91.17-.75.4-1.84.59-2.88s.3-2.1.32-2.85a9.41 9.41 0 000-1.31 27.64 27.64 0 00-.59-3.28 29.82 29.82 0 00-1-3.07c-.24-.58-.16-1.23-.45-1.77a14.9 14.9 0 00-1.16-1.6c-.34-.47-.68-.91-1-1.32L37.78 62a9.33 9.33 0 011.55 1.42zm6.93 4.35a18.42 18.42 0 01.74 3.32 31.6 31.6 0 01.33 3.55 3.66 3.66 0 010 .38c-.28.9 0 1 .24 1.25a1 1 0 001-.09 1.63 1.63 0 00.54-1.18c0-.48-.34-.68-.34-1.14a27.92 27.92 0 00-.26-3.25 26.53 26.53 0 00-.62-3.1 16.2 16.2 0 00-.71-2c-.3-.65-.63-1.26-1-1.83l-2.45-.5c.37.57.75 1.21 1.1 1.85a20.54 20.54 0 011.43 2.74zM25.49 94.64a1.44 1.44 0 00.46-.19 6.63 6.63 0 00.47-1.27c0-.37.28-3.36.36-3.8a33.65 33.65 0 011.76-6.66 37.14 37.14 0 001.39-11c0-.39.21-.76.1-1.14-.55-1.78-1.5-.61-1.79-.39a5.6 5.6 0 010 .58c-.06.8.1 2.36 0 3.2-.11 1.07-.32 2.78-.46 3.89s-1.84 7.14-1.9 7.7-.78 3-.92 3.67c-.12.39-.17 3-.26 3.34s-.36.37-.29.74.59 1.43 1.08 1.33z" fill="currentColor"/><path d="M35.67 63.26c.27.43.56.88.81 1.36s.49 1 .74 1.51A25.24 25.24 0 0138.39 69a20.58 20.58 0 01.82 4.85 25.85 25.85 0 01-.29 4.6c-.18 1.49-1.24 5.63-1.53 7 0 .25.25.62.5.77a1.12 1.12 0 00.9-.09c.16-.09.21-.47.23-.72 0-.52 0-1 .07-1.55 0-.19.23-1.1.43-2l.5-2.06a17.85 17.85 0 00.83-3.23 23.94 23.94 0 00-.39-6.57c-.17-.82-.35-1.61-.58-2.37a17.61 17.61 0 00-.88-2.15 1.74 1.74 0 00-.25-.37 4.93 4.93 0 00-.31-1.11c-.15-.24-.5-.45-.57-.65a2.16 2.16 0 00-1.52-1.07c-.85-.02-1.13.3-.68.98zm-4.33 5.04c-.54-.12-.65.25-.49.77a13.86 13.86 0 01.71 2.46 39.14 39.14 0 01-.22 6.47c0 .55-.53 1.75-.63 2.29-.19 1.11-.47 2.22-.77 3.32-.21.8-.54 1.58-.72 2.38s-.41 1.7-.61 2.56c-.11.42-.44 2-.51 2.44 0 .1-.19.94-.28.93 0 .76.52.48.8.4.75-.22.61-1 .74-1.68s.52-2.46.73-3.09c.31-1 .89-2 1.21-3a28 28 0 00.88-3.7c.27-1.43 1-3.53 1.06-4.93a16.19 16.19 0 00.09-3.6 29.73 29.73 0 00-.94-3.26c-.21-.69-.67-.68-1.05-.76zm17.25-4.12c.32.6.59 1.17.74 1.54A12.54 12.54 0 0150 68c.19.76.22 1.53.37 2.26 0 .19.43.18.65.26a1.52 1.52 0 00.54-2.07 11.17 11.17 0 01-.56-1.88l-.51-2zm-31.67 20.2c.2-1.2.43-2.43.71-3.63.07-.32.09-.79.3-.93.67-.44.37-.75.14-1.14s-.44-.66-.77-.74a1.61 1.61 0 00-1.31.23 3.47 3.47 0 00-.6 1.61c-.14.79-.22 1.57-.29 2.33zm3.83 1.53a68.56 68.56 0 011.56-6.79c.11-.42.37-.82.45-1.25a6 6 0 00-.06-1.11 10.71 10.71 0 000-1.39c-.09-.53-.4-.66-.82-.5a2.49 2.49 0 00-1.65 1.42c-.11.27 0 .59 0 .9l-.5 3.7c-.15 1.23-.23 2.5-.4 3.71q-.16 1.13-.33 2.28l1.56 1.94v-.44c.06-.81.04-1.66.19-2.47zm3.53.17c.28-1.2.49-2.44.72-3.67.34-1.76 1.55-4.91 1.54-6.64 0-.73 1.19-1.82-.29-2.55-.26-.08-.6-.32-.74-.22-.43.28-1 .62-1.1 1.06a13.73 13.73 0 00-.11 2.24c-.16 1.36-1.06 4.13-1.27 5.5s-.47 3-.67 4.45c-.11.88-.32 3-.34 4.46l1.23 1.52.18-.93.36-2.58c.21-1.06.38-2.14.49-2.64zM8.25 99.21a12.28 12.28 0 003.17 2.21l.35.19a9.85 9.85 0 004.2 1 12.71 12.71 0 005.94-1.1 13.94 13.94 0 001.69-.94c.24-.15.46-.36.68-.51l.13-.09a2.26 2.26 0 00.49-.52 2.32 2.32 0 00.38-.74c0-.06-.31.2-.47.3s-.56.43-.84.58a12.46 12.46 0 01-1.9.94 14.26 14.26 0 01-2.79.67 12.4 12.4 0 01-4.83-.44l-.3-.1a12.77 12.77 0 01-1.64-.66 3.11 3.11 0 01-.69-.43 7.22 7.22 0 01-.6-.5 10.34 10.34 0 01-1.75-2.18 22.07 22.07 0 01-1.35-2.69c-.41-.88-.76-1.85-1.23-2.67-.29-.5-.95-.65-1.51-.84-.19-.07-.63.18-.89.46a6.43 6.43 0 00-.76 1.32c-.08 1.32 0 2.16 1.15 2 .61 0 1 1.31 1.5 2a15.68 15.68 0 001.87 2.74z" fill="currentColor"/><path d="M14.7 84.89a15.85 15.85 0 00-.06 7.11 8.08 8.08 0 003 4.2 10.16 10.16 0 001.89 1.09 13.13 13.13 0 001.93.63 3.29 3.29 0 001.74-.26c.07 0 0-.15-.12-.2s-.6 0-.81 0a6 6 0 01-1.71-.65 6.5 6.5 0 01-1.4-1.1l-.57-.71a8.11 8.11 0 01-2.19-4.7 10.56 10.56 0 01.26-1.8 19.25 19.25 0 010-2.16c.13-.69.18-1.31.29-2l-1.85-2.23-.1 1.34c0 .43-.22.97-.3 1.44z" fill="currentColor"/><path d="M19.24 91.64a8.58 8.58 0 00.87 2.27 6.05 6.05 0 001.44 1.72 1.12 1.12 0 01.15.14c.18.31.53.36.88.45a3.92 3.92 0 00.93.1c.13 0 0-.15-.14-.26a6.67 6.67 0 01-.81-.47 5.72 5.72 0 01-1.17-1.48 7.1 7.1 0 01-.69-1.9 12.08 12.08 0 01-.23-1.57 11.2 11.2 0 010-1.82l-1.56-1.94a15.88 15.88 0 00-.16 2.12 11.07 11.07 0 00.49 2.64zm13.24 10.52a3 3 0 00-.58-.38 5.52 5.52 0 00-1.65.15c-.44.12-3.25 1.5-3.64 1.71a21.84 21.84 0 01-3.14 1.36l-.79.28a7.76 7.76 0 01-.72.3 12 12 0 01-1.63.51 30 30 0 01-6.72 1 16.85 16.85 0 01-6.93-1.2c-.5-.21-1-.77-1.46-.88-1.1-.26-1.26.24-1.06.92a5.71 5.71 0 001 1.7c.24.09.51.18.8.31a16.44 16.44 0 004.38.79 20.4 20.4 0 005.24 0c.34 0 1.1-.09 2-.24a20.56 20.56 0 002.83-.57c.92-.27 1.69-.57 2.34-.82s1.1-.43 1.23-.5c.64-.31 2.94-1.08 3.61-1.32.39-.13 2.83-1.42 3.28-1.46s.64.19 1 0 1.07-1.26.61-1.66z" fill="currentColor"/><path d="M10.19 84.42c-.23.89-.4 1.75-.53 2.56a14.46 14.46 0 00-.07 2.35 11.71 11.71 0 00.82 3.45 12.5 12.5 0 002.31 4.1 9.2 9.2 0 003.62 2.3c.36.12.93.3 1.65.49a12 12 0 002.75 0 10.3 10.3 0 002.06-.47 5.17 5.17 0 00.91-.54c.19-.14.33-.3.32-.35a3.28 3.28 0 00-.54.17 13.57 13.57 0 01-1.49.43 9 9 0 01-1.93.12 8.65 8.65 0 01-1.59-.26 9.37 9.37 0 01-2.19-1.26 9.18 9.18 0 01-2.11-1.92 8.17 8.17 0 01-.8-1.21 10.9 10.9 0 01-1-3.73 15.62 15.62 0 010-2.74 2 2 0 000-.53c.22-.78.45-1.24.56-1.67s-.08-.79.13-1.16c.37-.74.44-2.13-.15-2.31-.92-.3-2.26.76-2.73 2.18z" fill="currentColor"/><path d="M2.94 99.73a1.69 1.69 0 00.53 2.16c.89.6 1.84.92 2.77 1.44l.13.06a15.81 15.81 0 007.87 2 17.88 17.88 0 002.83 0 24.53 24.53 0 003.58-.84 10.82 10.82 0 002.1-.84c.34-.19.61-.41.92-.61l1.18-.5 2.29-1c.1 0 .93-.37 1-.28.65-.44.08-.72-.17-.9-.67-.5-1.22.06-1.83.35l-1.42.64-.41.18-.25.23c-.16.14-.31.26-.41.33a10.18 10.18 0 01-2.4.95 26 26 0 01-3.82.94 10.91 10.91 0 01-3 0 19.39 19.39 0 01-2.91-.66 11.27 11.27 0 01-2.37-1c-.54-.31-1-.65-1.56-1a16.42 16.42 0 01-3.38-2.33c-.67-.69-.98.08-1.27.68zM22 90.71v1.4a9.75 9.75 0 00.38 1.44A4.45 4.45 0 0023 94.7a4.09 4.09 0 00.59.41c.32.12.57.18.1-.49a3.3 3.3 0 01-.48-1.05l-.07-.27v-.35a6 6 0 01.12-.72zm5.69 23.92L24.56 116c-.28.12-.64.38-.84.29-.66-.27-.77.14-.95.55s-.31.75-.21 1.05.48.88.75.89a3.05 3.05 0 001.45-.44c.62-.34 1.21-.7 1.82-1zm-.49-4.01c-2.1.9-4.18 1.8-6.39 2.59-.42.15-.89.19-1.3.35s-.58.46-1 .62-1.14.35-1.61.6-.38.69.31 1.08l.45.25.39.2a3 3 0 00.55.24 2.19 2.19 0 001.14 0c.28-.07.48-.35.75-.49 1.11-.57 2.14-1.18 3.21-1.76s2.07-1.24 3.17-1.76c.68-.33 1.35-.61 2.05-.89l.95-2.31-.42.18c-.78.34-1.45.77-2.25 1.1zm-1.85-3.04c-1.16.47-2.27 1-3.42 1.53a7.53 7.53 0 01-1.54.54c-.65.15-1.39.3-2.15.4l-4.33.46a11.27 11.27 0 01-2-.27c-.69-.07-1.29 0-1.21.93.09.31.07.76.32.93s.81.54 1.23.77a2.88 2.88 0 001.22.39 12.41 12.41 0 002.92-.54l1.62-.25a17.17 17.17 0 001.89-.35 22 22 0 002.66-1.05l4-2c.8-.38 2.7-1.32 4.19-1.95l.74-1.8q-.53.11-1.05.24c-.99.27-4.14 1.64-5.09 2.02zm11.48 12.98a10.88 10.88 0 011.6.18 6.57 6.57 0 011.64.47 10.31 10.31 0 012 1.24 17.78 17.78 0 011.33 1.29 16.45 16.45 0 013.26 5.75 17.3 17.3 0 01.65 2.76 11.59 11.59 0 01.21 1.29v.3a1.54 1.54 0 00.23 1c.2.21.61.5.94 0A5 5 0 0049 133a5.43 5.43 0 000-1c0-.36-.07-.71-.07-1.08a14 14 0 00-.88-3.27 8.32 8.32 0 00-.75-1.75 18 18 0 00-2.82-3.85 16.33 16.33 0 00-1.94-1.54 7.06 7.06 0 00-1.48-.74 12.14 12.14 0 00-1.47-.5 10.63 10.63 0 00-2.61-.36 6.29 6.29 0 00-2.47.41 11.39 11.39 0 00-2.16 1.07 6 6 0 00-1.11 1.31 1.06 1.06 0 00-.16.61 3.23 3.23 0 00.18.4.52.52 0 00.27-.12l.26-.2a6.94 6.94 0 00.84-.78 3.69 3.69 0 011.8-.89 7.67 7.67 0 012.4-.16zm-8.15-4.37c1-.47 2-.89 3-1.26s2.08-.7 3.19-1a28 28 0 013.06-.66 11 11 0 011.64-.13 14.17 14.17 0 011.81.11 15.41 15.41 0 013.17.87 15 15 0 011.68.9 5.68 5.68 0 011.36 1.06c1.18 1.23 1.09.05 1.42-.35a4 4 0 00-.87-1.5c-.28-.28-.67-.15-1-.36l-1.39-.87c-.57-.28-1.17-.55-1.77-.8a14 14 0 00-3.23-1 4.93 4.93 0 00-1.37-.08A25 25 0 0033 112.6c-.58.21-1.23.12-1.81.34s-1.19.7-1.8 1l-1.66.72-1.11 2.7c.66-.44 1.38-.83 2.06-1.17z" fill="currentColor"/><path d="M33.66 109.65a18.66 18.66 0 013.22-.74c.68-.1 1.36-.2 2-.24s1.2 0 1.59 0a2.22 2.22 0 01.41 0c1 .3 1.11.09 1.32-.17a1 1 0 00-.12-1.08 2 2 0 00-1.24-.57c-.49 0-.7.31-1.17.29s-1.93.1-3.17.26-2.41.46-2.92.59a27.61 27.61 0 00-3.71 1.33l-.95 2.31 2-.8c.91-.33 1.77-.89 2.74-1.18zm7.46 34.47a2.7 2.7 0 00.54-.4 6.92 6.92 0 00.44-1.63c0-.44-.19-3.8-.27-4.26-.3-2.42-.23-5-.74-7.37a8.29 8.29 0 00-2.76-4.77 8.74 8.74 0 00-4.19-1.93 1.53 1.53 0 01-.25-.06 1.77 1.77 0 00-.67-.07c-1.12.12-1.36.3-1.35.38s0 .12.06.14h.49a9.59 9.59 0 012.64.74 8.09 8.09 0 011.37.91 11.55 11.55 0 011.22 1.2 9 9 0 011.53 3.57 33.85 33.85 0 01.63 3.79 28.49 28.49 0 01.07 4c0 .44.34 3.24.23 3.66s-.38.53-.28.92.78 1.47 1.29 1.18zM28.58 120l1.61-.64 1.58-.66a30.42 30.42 0 012.88-1.17 17.3 17.3 0 012.29-.52 9.47 9.47 0 012.5 0 8.92 8.92 0 012.28.55 10.81 10.81 0 012.27 1 10.15 10.15 0 011.7 1.15c.65.54 1.39 1.21 2.07 1.87.46.63.9 1.24 1.26 1.77l.83 1.31c.18.28.65.24.92 0a2 2 0 00.43-1.24c0-.28-.29-.66-.5-.89-.43-.46-.89-.83-1.33-1.22-.18-.15-1-1-1.78-1.8a14 14 0 00-1.91-1.51c-.53-.4-1-.85-1.52-1.2a10.36 10.36 0 00-1.64-.86 8.7 8.7 0 00-1.8-.48 10.76 10.76 0 00-1.72-.26 14.4 14.4 0 00-3.27.27 21.42 21.42 0 00-2.37.55c-.78.23-1.49.46-2.26.75a1.53 1.53 0 00-.41.22 8.66 8.66 0 00-1.22.23c-.29.11-.56.44-.82.46a2 2 0 00-1.47 1.3c-.11.86.55 1.33 1.4 1.02z" fill="currentColor"/><path d="M32.1 123.12c-.33.29-.22.31.32.17a8.62 8.62 0 012.41-.33 8.23 8.23 0 011.85.31 9.39 9.39 0 013.5 2 9 9 0 011.24 1.89 10.61 10.61 0 01.8 1.54c.2.55.4 1.16.55 1.74a11.34 11.34 0 01.25 1.34c.06.45.11.91.19 1.36.16 1 .25 2 .32 2.93 0 .5.11 2.37.1 2.86 0 .12 0 1.1-.11 1.14.17.83.69.26 1 0 .79-.67.49-1.46.44-2.26s-.18-2.93-.24-3.7a25.07 25.07 0 00-.2-3.78 8.77 8.77 0 00-.62-2.11 10.39 10.39 0 00-1-1.77c-.2-.3-.44-.65-.7-1a8.71 8.71 0 00-.83-1 6.57 6.57 0 00-1.84-1.5h-.06a15.28 15.28 0 00-1.56-.65 7.67 7.67 0 00-.74-.22 5.56 5.56 0 00-.82-.09 9.81 9.81 0 00-3.17.53 2.41 2.41 0 00-1.08.6zm-1.31-16c.58-.25 1.08-.47 1.42-.58a18.43 18.43 0 012-.57c.65-.17 1.37-.19 2-.35.17 0 .2-.41.29-.63a1.19 1.19 0 00-1.74-.53 16.35 16.35 0 01-3.27.86zm.21 28.32c-.08-1.15-.17-2.29-.29-3.41 0-.3-.17-.7 0-.86.43-.48.06-.7-.27-1s-.61-.52-.91-.54-.92.09-1 .32a3 3 0 000 1.45c.12.71.23 1.41.35 2.1zm3.92.87a39.59 39.59 0 00-.84-6.54 6.85 6.85 0 00-.22-1.13 5.34 5.34 0 00-.61-.85 5.57 5.57 0 00-.79-1c-.38-.35-.65-.4-.86-.22a1.27 1.27 0 00-.43.53 1.16 1.16 0 00-.07.8c.06.23.29.47.39.72a26.82 26.82 0 011 3.25 28.72 28.72 0 01.69 3.49c.09.74.11 1.49.15 2.24l1.85 1.66v-.45c-.05-.81-.18-1.67-.26-2.5z" fill="currentColor"/><path d="M38.41 135.51a20.52 20.52 0 00-.61-3.71 28.76 28.76 0 00-.83-3.15 10.16 10.16 0 00-.7-1.48 3 3 0 00-.91-.94c-.25-.19-.4-.5-.67-.72a2.3 2.3 0 00-1.4-.38 4.36 4.36 0 00-.61 0c0 .18 0 .15.16.5s.94.92 1.34 1.46a8.6 8.6 0 011 2.27c.28.92.46 1.91.63 2.55a32.55 32.55 0 01.78 4.36c.11.88.32 3 .44 4.6l1.45 1.31c.05-.36.09-.71.11-1.06.07-1.05-.09-4.57-.18-5.61zm-16.13 12.68a9.92 9.92 0 00.91 1.78c.34.55.71 1.06 1.09 1.56a10.45 10.45 0 002.93 2.82 7.89 7.89 0 004.89 1.21 11.86 11.86 0 001.73-.32 3.13 3.13 0 01.84-.18h.17a1.2 1.2 0 00.74-.17c.24-.15.62-.46.51-.68s-.57-.2-.71-.13a8 8 0 01-.9.29 8.39 8.39 0 01-1.86.22 7.93 7.93 0 01-2.35-.42 8.5 8.5 0 01-3.45-2.37 9.81 9.81 0 01-.95-1.18 7.36 7.36 0 01-.8-1.36 12 12 0 01-.92-2.88c-.22-1.09-.36-2.13-.55-3.2a17.66 17.66 0 00-.67-2.91 3.27 3.27 0 00-1.2-1.25.9.9 0 00-.8.08 4.48 4.48 0 00-.83.85c-.28 1.1-.46 1.88.6 2.26.55.22.59 1.57.81 2.53a16.58 16.58 0 00.77 3.45z" fill="currentColor"/><path d="M29.1 136c.17 2.29.15 4.64.44 6.91a22.76 22.76 0 001.5 5.72 7.85 7.85 0 002.35 3.17c.51.43 1 .27 1.4.36.06 0 .08-.13 0-.23s-.46-.21-.6-.32a4.31 4.31 0 01-.56-.52 2.24 2.24 0 01-.55-.77 12.82 12.82 0 01-.58-2l-.24-1a31.25 31.25 0 01-1-6c-.05-.61.21-1.25.18-1.86s-.29-1.36-.34-2.05-.07-1.23-.1-1.84l-2.17-1.95c.09.69.22 1.5.27 2.38zm4.79 6.64c0 .63.12 1.85.26 3a22.07 22.07 0 00.47 2.83v.28a.82.82 0 00.46.94 1.1 1.1 0 00.86.16.63.63 0 00.2-.68c-.1-.35-.38-.58-.43-.91a25 25 0 01-.26-2.54c-.07-1.06-.08-2.17-.09-2.66 0-1.26-.1-2.55-.19-3.83l-1.85-1.66c0 .72 0 1.44.1 2.15.12.99.37 1.96.47 2.92zm8.62 19.28a3.47 3.47 0 00-.41-.7 7.54 7.54 0 00-1.72-.91 14.71 14.71 0 00-2.19-.28c-1-.05-1.89 0-2.11 0a38.66 38.66 0 01-6.83-.34c-3.91-.45-8.23-1.87-11.27-5.46-.37-.4-.53-1.18-.9-1.46-.87-.68-1.23-.23-1.35.55a7 7 0 00.16 2.15l.57.63a9.16 9.16 0 001.66 1.43l1.77 1.09a14.38 14.38 0 004.4 2c.31.09 1 .31 1.79.51a19.56 19.56 0 002.63.39c1.79.15 3.47.17 3.78.16a25.56 25.56 0 013.93.34 21 21 0 013.8.48c.45.22.53.54 1 .54s1.57-.48 1.29-1.12z" fill="currentColor"/><path d="M25.32 135a37.55 37.55 0 000 4.11c.07 1.21.32 2.36.5 3.54a28 28 0 001.18 5.03 9.4 9.4 0 002 3.48 7.75 7.75 0 002.2 1.65 6.36 6.36 0 001.41.51 6.58 6.58 0 001.11.15 3.56 3.56 0 00.91-.21.8.8 0 00.4-.23 4.47 4.47 0 00-.47 0 9.48 9.48 0 01-1.28-.11 6.18 6.18 0 01-1.35-.53 5.68 5.68 0 01-1.17-.83 9.13 9.13 0 01-1.25-2 10.7 10.7 0 01-.62-1.27c-.18-.48-.31-1-.46-1.48a23.35 23.35 0 01-.59-3.19c-.19-1.72-.23-3.5-.27-5.24a1.54 1.54 0 00-.08-.5 11 11 0 00.24-1.4c0-.34-.21-.7-.12-1a1.91 1.91 0 00-.7-1.9c-.77-.29-1.52.27-1.59 1.42zm-8.1 11.57a2 2 0 00-.39 2.38c.57 1 1.37 1.7 2 2.61a14.77 14.77 0 005.72 5c.25.12.69.39 1.1.63a6.8 6.8 0 001.12.52 14.81 14.81 0 003.23.51c.76 0 1.51.18 2.29.16h5.06c.11 0 1 .07 1.06.18.83-.09.34-.65.17-.93-.46-.78-1.23-.5-1.9-.48s-2.45.1-3 .09c-.95 0-1.84-.29-2.67-.27a14.39 14.39 0 01-3.39-.53 7.47 7.47 0 01-2.23-1.16 23.14 23.14 0 01-2-1.75 11.72 11.72 0 01-1.39-1.6c-.39-.58-.81-1.21-1.19-1.81a16.54 16.54 0 01-2.17-3.65c-.34-1.04-.95-.4-1.42.1zM37 140.86l.11 1.5v1.95a15.61 15.61 0 000 1.81c0 .15.35.3.53.44.41 0 .94-.26.72-1.23a10.19 10.19 0 010-3.16zm-4.83 29.5c-1.12-.05-2.19-.05-3.22 0-.27 0-.66.11-.79 0-.39-.44-.67-.11-1 .18s-.58.56-.65.85-.05.86.12 1a2.37 2.37 0 001.26.06l2-.22zm1.55-3.66c-2.21-.2-4.41 0-6.74-.17-.44 0-.9-.2-1.35-.2a5.37 5.37 0 00-1.11.24 13.67 13.67 0 00-1.45.2c-.54.15-.58.51-.27 1a2.77 2.77 0 001.88 1.46c.29.05.58-.14.88-.16l3.5-.47a21.3 21.3 0 013.44-.33 21.15 21.15 0 012.21.17l2-1.53h-.47c-.87-.18-1.71-.15-2.52-.21zm-.36-3.58c-1.26-.06-2.5 0-3.76.06a18.65 18.65 0 01-3.54-.35c-1.31-.19-2.84-.75-3.84-1a7.19 7.19 0 01-1.59-1c-.55-.35-1.08-.49-1.37.51 0 .36-.23.83-.07 1.1a5.76 5.76 0 001.81 2.09 6 6 0 002.6.3c.77.07 1.92.26 3 .34a20.8 20.8 0 002.86.07c1.49-.11 3-.23 4.46-.22a42.41 42.41 0 014.71.38l1.54-1.19c-.37-.13-.74-.26-1.1-.36a25.35 25.35 0 00-2.88-.55c-1.19-.13-2.32-.16-2.83-.18zm4.36 18.13c1 .48 2.13.91 3.16 1.5a35.62 35.62 0 013.38 2.39c1.63 1.16 3.08 2.47 4.71 3.68a17.11 17.11 0 011.75 1.51 9.59 9.59 0 01.82.76l.15.19a1.35 1.35 0 00.72.56c.28 0 .77.06.8-.39a3.2 3.2 0 00-.57-1.31 11.71 11.71 0 00-1-1.14 25.15 25.15 0 00-2-1.79 24 24 0 00-2.38-2 47.38 47.38 0 00-3.94-3c-.91-.59-1.84-1.09-2.73-1.61s-1.64-.89-2.45-1.28a15.06 15.06 0 00-2.56-1.07 10 10 0 00-2.57-.44 4.58 4.58 0 00-1.63.53.88.88 0 00-.42.53 1.76 1.76 0 00.07.68 1.54 1.54 0 002 .18c.52-.27 1.45.16 2.16.4s1.67.75 2.53 1.12z" fill="currentColor"/><path d="M32.14 172.12a22.81 22.81 0 013.21.47c1 .25 2.11.56 3.22.88s1.94.62 2.93 1 2 .75 3 1.22a26.5 26.5 0 012.42 1.39 11.19 11.19 0 012.23 1.78c.84.94 1 .08 1.43-.19a2.6 2.6 0 00-.38-1.1c-.17-.23-.57-.17-.81-.35a50.33 50.33 0 00-4.46-3.27 9.35 9.35 0 00-1.12-.6 41 41 0 00-6.12-2c-.56-.16-1.15-.54-1.73-.67s-1.36 0-2-.1a16.28 16.28 0 00-1.74-.17l-2.31 1.78a11.59 11.59 0 012.23-.07zm7.69-2.93a24.07 24.07 0 013.09 1.11c.61.26 1.24.53 1.79.79s1 .5 1.29.67a1.74 1.74 0 01.3.21c.59.64.86.5 1.17.38a1 1 0 00.48-.89 1.53 1.53 0 00-.67-1c-.41-.18-.72 0-1.12-.26s-1.66-.85-2.78-1.36a21.6 21.6 0 00-2.79-1.1 20.38 20.38 0 00-3.9-.91l-2 1.53c.74.06 1.4.22 2.11.34.99.22 2.01.24 3.03.49zm13 32.96a3.26 3.26 0 00.16-.67 6.07 6.07 0 00-.7-1.55c-.28-.38-2.56-2.71-2.9-3-1.79-1.62-3.22-3.5-4.92-5.18a20.51 20.51 0 00-4.63-3.51c-1.55-.94-3.2-1.66-4.71-2.4-.35-.17-.59-.53-1-.59-1.81-.25-1.13 1.17-1.13 1.49a4.61 4.61 0 01.52.23c.7.4 2.22.83 2.92 1.26.92.52 2.36 1.41 3.31 2a29.28 29.28 0 013.25 2.65c1.31 1.21 2.47 2.47 2.71 2.67A17.49 17.49 0 0147 197c.51.62 1 1.25 1.24 1.54s2.34 2.25 2.51 2.65 0 .67.37.91 1.49.61 1.71.05z" fill="currentColor"/><path d="M30 175.15c1.13.17 2.2.44 3.4.66s2.11.37 3.14.67c.77.23 1.56.49 2.35.78s1.52.64 2.29 1 1.33.69 2 1.07 1.27.81 1.93 1.22 1.78 1.18 2.9 2.05 2.24 1.78 2.83 2.2a.93.93 0 00.91-.14 1.12 1.12 0 00.28-.87c0-.18-.34-.39-.55-.51-.46-.27-.93-.47-1.39-.71-.29-.2-3-2.19-3.24-2.4a19.1 19.1 0 00-2.45-2.06c-1-.6-1.94-1.13-2.9-1.62s-2-.88-3-1.27l-1.14-.44-1.2-.38c-.79-.23-1.56-.44-2.32-.62a2 2 0 00-.45 0 5.42 5.42 0 00-1.16-.42c-.3-.05-.69.09-.92 0a2 2 0 00-1.87.42c-.57.61-.38 1.22.56 1.37zm2.6 7.53c-.34.51-.08.86.49 1a20.52 20.52 0 012.58.59 44 44 0 015.79 2.89c.46.27 1.34 1.21 1.78 1.53a24.26 24.26 0 012.65 2.19c.62.57 1.16 1.25 1.79 1.84s1.32 1.28 1.93 1.94c.32.33 1.53 1.63 1.84 2 .08.08.69.8.62.89.65.49.7-.22.79-.55.2-.92-.55-1.32-1.06-1.84l-2.33-2.46c-.75-.83-1.33-1.83-2.08-2.61a23.63 23.63 0 00-3-2.46 44.19 44.19 0 00-4-3 21.64 21.64 0 00-3.24-1.68c-1.1-.4-2.28-.52-3.38-.83-.77-.24-.95.22-1.17.56zm6.01-17.28a13.88 13.88 0 011.57.3 17.46 17.46 0 012 .67c.65.25 1.31.59 2 .83.16.06.39-.24.58-.38.11-.45-.16-1.23-1.25-1.42a20.11 20.11 0 01-3.38-1.19zm.86 36.5c-.79-.82-1.57-1.63-2.39-2.42-.22-.21-.59-.44-.58-.65 0-.67-.4-.61-.85-.64s-.8 0-1 .17-.65.69-.57.93a3.08 3.08 0 00.93 1.13l1.6 1.36zm3.61-1.83c-1.59-1.65-3.13-3.25-4.78-4.74a12.2 12.2 0 00-.85-.91 4.86 4.86 0 00-1-.44 8.07 8.07 0 00-1.24-.55c-.51-.14-.77 0-.83.41a1.89 1.89 0 00.39 1.82c.18.19.52.25.75.41 1 .65 1.92 1.34 2.83 2.07s1.9 1.44 2.78 2.27c.53.52 1 1.07 1.52 1.63l2.49.11-.31-.34c-.55-.61-1.17-1.14-1.75-1.74zm2.18-2.82a31.34 31.34 0 00-2.75-2.55c-.67-.58-1.55-1.48-2.49-2.3a12 12 0 00-2.64-1.94c-.66-.31-1.13-1.75-2.42-.78-.19.19-.55.39-.53.54.09.45.14 1 .46 1.32a15.7 15.7 0 001.92 1A44.17 44.17 0 0141 196c1.17.92 2.26 1.9 3.35 2.94.64.6 2.18 2.1 3.27 3.27l1.95.08c-.19-.3-.38-.61-.59-.89-.61-.84-2.98-3.4-3.72-4.15z" fill="currentColor"/><path d="M51.33 216.82c-.07-.23-.46-.33-.61-.56-.7-1.11-1.92-3.24-2.62-4.35a10.81 10.81 0 00-.7-1c-1.38-1.62-2.76-3.18-4.16-4.76-.4-.46-.59-1.12-1-1.58s-1-.87-1.53-1.36-.83-.89-1.25-1.34l-2.91-.12c.61.52 1.22 1.06 1.8 1.63 1.54 1.6 3 3.37 4.47 5.09 1.35 1.53 2.9 3.89 4.18 5.53a17.56 17.56 0 012.51 3.71c.46 1.05 1.29.24 1.77.17a2.06 2.06 0 00.05-1.06zm-5.09-11.1c.87 1 3.09 3.95 3.86 5a1.52 1.52 0 01.16.3c.23.75.53.74.86.79a1 1 0 00.84-.45 1.17 1.17 0 00-.15-1c-.27-.31-.62-.36-.84-.69-.56-.86-2.65-3.79-3.27-4.59a34 34 0 00-2.54-2.95l-2.49-.13c.48.54.95 1.08 1.45 1.61.68.76 1.46 1.39 2.12 2.11zm5.24-.72a12.74 12.74 0 01-1.94-2.66l-1.95-.08c.43.45.8.86 1 1.12.44.51.86 1.06 1.24 1.6s.68 1.1 1.09 1.59c.1.14.45 0 .69 0 .39-.24.63-.89-.13-1.57zm-11.72 11.34c.46-.12 1-.15.85-.88-.08-.36-.58-.74-.82-1s-1.6-1.76-1.91-2.16a14.72 14.72 0 01-1.58-2.36c-.5-1-.95-.36-1.42-.29a1.89 1.89 0 000 .94c.08.22.47.31.62.52.69 1 2.51 3.5 3.21 4.64a2.91 2.91 0 00.47.57.86.86 0 00.58.02zM35.75 214a.94.94 0 00-.83-.27.82.82 0 00-.42.69.77.77 0 00.37.72c.17.12.5.37.83.24a1.33 1.33 0 00.34-.46c.01-.78-.04-.71-.29-.92zm9.25.84c-.41-.47-1.15-1.07-1.55-1.56-.94-1.15-1.79-2.35-2.75-3.48s-2.39-3.81-3.36-4.71c-.18-.17-1.2-.83-1.47-.73a2.45 2.45 0 00-.9 1c0 .14.24.37.42.51.37.31.87 1.13 1.24 1.44a29.24 29.24 0 012.3 2.29c.55.83 1 1.76 1.54 2.56s1 1.37 1.56 2a20.75 20.75 0 002.36 2.51 1.36 1.36 0 00.78.33.88.88 0 00.77-.34c.34-.53-.66-1.46-.94-1.82z" fill="currentColor"/></svg>