<svg xmlns="http://www.w3.org/2000/svg" viewBox="0 0 29.51 192.26"><path d="M3.49 17.43c-.16.26-.48.45-.44.79.1.64-.37.7-.74.77a1.92 1.92 0 01-2-.55c-.57-.66-.16-1 0-1.63.25-.87 1.17-1.68 2-1.36a1.9 1.9 0 01.74.7c.13.18.34.32.42.52a1.39 1.39 0 01.09.45.63.63 0 01-.07.31zm-.82 6.81c.19.08.83.12 1 .39a2.81 2.81 0 01.33.56 1.35 1.35 0 01.18.48 1.33 1.33 0 01-.17.85 2.16 2.16 0 01-1.13 1c-.53.15-1.47.2-1.67-.12a2.83 2.83 0 01-.46-1.07 1.62 1.62 0 01.13-.89 2.76 2.76 0 011.79-1.2zM8.84 1.05L9 .93a11.45 11.45 0 00.91-.74c.3-.23.44-.18.82 0a1.62 1.62 0 011.21 1 1.59 1.59 0 01-.06 1.45c-.29.87-1.23 1-2.41.6A.81.81 0 019 2.86c-.1-.33-.16-.69-.23-1s-.18-.61.07-.81zM6.5 10.41c-.55.54-2.35.47-2.61 0a2.7 2.7 0 01-.27-2.22c.35-.6 1.44-.7 2.19-1a2.13 2.13 0 01.69 3.22zm14.97 34.25c.06.35-.07.71.18 1 .46.58 0 .9-.25 1.14a2 2 0 01-2 .48c-.74-.24-.62-.64-.79-1.19-.2-.75-.17-1.84.64-2.24a1.71 1.71 0 011 0 2.85 2.85 0 01.71.12 1.13 1.13 0 01.36.36.62.62 0 01.15.33zm1.46 7.67c.18.11.82.25.94.6a1.78 1.78 0 01-.15 2.26 1.92 1.92 0 01-1.43.48c-.54-.09-1.44-.35-1.51-.66-.37-1.52.22-2.25 2.15-2.68zM7.15 34.39a.83.83 0 01-.15-.2c-.23-.37-.56-.57-.8-.9s-.19-.45 0-.84a1.61 1.61 0 011.08-1.16 1.63 1.63 0 011.43 0c.84.27 1 1.21.63 2.4a.83.83 0 01-.34.5 9.64 9.64 0 01-1 .25c-.5.13-.64.21-.85-.05zm9.38 3.03c.5.75-.18 2.48-.69 2.54a3 3 0 01-2.15-.26c-.44-.42-.34-1.45-.53-2.23a2 2 0 013.37-.05zm2.73 43.02c-.21.26-.57.41-.59.77-.06.71-.57.65-1 .63a1.94 1.94 0 01-1.79-1.05c-.39-.71 0-.94.3-1.47.4-.72 1.3-1.43 2.12-1.06a1.77 1.77 0 01.68.77 2.83 2.83 0 01.38.59 1.16 1.16 0 010 .49.77.77 0 01-.1.33zm-3.68 6.58c.1.18.55.63.49 1a1.69 1.69 0 01-2.66 1.53c-.45-.32-1.12-1-1-1.3.4-1.57 1.32-1.92 3.17-1.23zm5.11-23.94l.08-.18a7.15 7.15 0 00.28-1.08c.11-.35.26-.38.66-.48a1.61 1.61 0 011.6.12c.45.26.59.49.79 1.26.26 1-.55 1.6-1.73 1.87a.85.85 0 01-.61-.09c-.26-.24-.5-.5-.74-.75s-.44-.38-.33-.67zm1.47 9.55c-.43.72-2.21 1-2.54.59a2.81 2.81 0 01-.77-2.1c.18-.6 1.17-1 1.79-1.47a2.07 2.07 0 011.52 2.98zm1.1 38.04c.06.33-.08.7.16 1 .47.55.06.88-.22 1.13a2 2 0 01-2 .54c-.77-.22-.63-.67-.81-1.22a1.81 1.81 0 01.65-2.25 1.73 1.73 0 011 0 2.71 2.71 0 01.69.13 1.19 1.19 0 01.37.34.73.73 0 01.16.33zm1.87 7.45c.19.08.83.14 1 .47 1.32 2-.5 2.87-1.17 2.87s-1.48-.12-1.6-.42c-.57-1.45-.11-2.26 1.77-2.92zM10.71 97.59a1.69 1.69 0 010-.25 12.64 12.64 0 01-.12-1.48c0-.47.18-.53.57-.69a1.62 1.62 0 011.62 0 2.13 2.13 0 011 .81c.45.48 0 1.16-.73 2.14a.8.8 0 01-.54.3 4.18 4.18 0 01-1.11-.23c-.46-.17-.62-.2-.69-.6zm8.37 5.67c.31.82-.58 2.38-1.1 2.39a2.78 2.78 0 01-2.1-.65c-.37-.5-.09-1.49-.12-2.29a2.07 2.07 0 013.32.55zm10.08 42.93c-.11.32-.39.58-.28.94.19.68-.32.8-.67.91a1.94 1.94 0 01-2.05-.36c-.6-.53-.31-.89-.22-1.48.12-.82.72-1.79 1.62-1.73a1.77 1.77 0 01.9.48c.18.15.42.23.56.42a1.35 1.35 0 01.17.46.72.72 0 01-.03.36zM28 153.64c.15.14.73.4.79.76.6 2.21-1.32 2.54-2 2.35s-1.38-.55-1.41-.89c-.11-1.6.62-2.24 2.62-2.22zm-3-24.45v-.2a8.52 8.52 0 000-1.13c0-.37.15-.44.52-.63a1.63 1.63 0 011.59-.26c.49.15.69.34 1.08 1 .48.83-.14 1.65-1.21 2.23a.81.81 0 01-.61.08c-.31-.16-.61-.35-.9-.53s-.53-.26-.47-.56zm4.23 8.69c-.18.82-1.77 1.66-2.21 1.4-.64-.38-1.4-1.14-1.42-1.73s.78-1.31 1.23-2a2.08 2.08 0 012.4 2.33zm-.9 43.68c-.08.32-.34.6-.2.94.26.64-.23.81-.57 1a1.93 1.93 0 01-2.08-.12c-.65-.47-.4-.87-.36-1.48.05-.85.57-1.88 1.47-1.87a1.81 1.81 0 01.94.42 3.25 3.25 0 01.59.37 1.15 1.15 0 01.21.43.69.69 0 010 .31zm-.1 7.41c.18.1.81.24.95.56a1.71 1.71 0 01-1.41 2.73c-.56 0-1.47-.2-1.57-.53-.48-1.54.09-2.38 2.03-2.76zM25 164.37a1.14 1.14 0 010-.18 9.59 9.59 0 00.23-1.14c.09-.37.23-.41.63-.53a1.61 1.61 0 011.61.09c.45.24.61.46.85 1.19.29.88-.42 1.55-1.57 2a.88.88 0 01-.62 0 10.41 10.41 0 01-.81-.68c-.32-.38-.44-.44-.32-.75zm3.23 9.12c-.22.79-1.82 1.58-2.26 1.31-.63-.39-1.37-1.2-1.35-1.81s.86-1.3 1.35-1.94a2.1 2.1 0 012.26 2.44z" fill="currentColor"/></svg>