<svg xmlns="http://www.w3.org/2000/svg" viewBox="0 0 42.31 210.55"><path d="M30.88 38.43a53 53 0 014.66 3.1 16.17 16.17 0 014.17 4.58 13 13 0 011.91 6.12 17.4 17.4 0 01-.75 6.14 22.94 22.94 0 01-2.45 5.42 27.74 27.74 0 01-3.52 4.67 28.88 28.88 0 01-2.09 2l-1.12 1-1.12.86c-1.51 1.12-3 2.14-4.56 3.12-3 2-6.07 3.74-8.76 5.74a32.33 32.33 0 00-3.75 3.17 20.06 20.06 0 00-2.92 3.55 7.34 7.34 0 00-1.18 3.5 3.48 3.48 0 001.21 2.64 10.9 10.9 0 001.6 1.27c.65.39 1.36.81 2.07 1.19q2.19 1.1 4.6 2.1c1.88.8 3.78 1.55 5.7 2.4a44.23 44.23 0 015.73 2.92 19.29 19.29 0 015.31 4.54 14 14 0 012.77 7 13.63 13.63 0 01-.49 5.15 18.14 18.14 0 01-1.7 4 38.16 38.16 0 01-3.82 5.4c-2.39 2.89-4.26 4.92-5.86 7a27.81 27.81 0 00-2.18 3.24 12 12 0 00-1.42 3.66 7.07 7.07 0 00.49 4.2c.64 1.51 2.06 3.17 4.23 5.24l1.3 1.29a28.81 28.81 0 012.19 2.41l1.27 1.55a21.55 21.55 0 011.24 1.78c.4.63.87 1.24 1.23 1.91s.73 1.36 1.09 2.05a18.87 18.87 0 011 2.09l.87 2.08c.44 1.39.93 2.7 1.23 3.9s.58 2.27.76 3.14.28 1.54.35 1.93c.32 1.57.48 3.16.77 4.74s.43 3.13.57 4.62.41 2.94.56 4.36a27.19 27.19 0 01.23 4.4 88.77 88.77 0 01-1.38 11.87c-.12.76-.62 1.72-.84 1.69-1.24-.22-2.78 1.21-4.09 1.38s-2.39-.91-2.83-6c-.2-2.31-.25-5.32-.29-8.49s-.13-6.49-.26-9.46l-.16-2.15c0-.71-.1-1.43-.2-2.12l-.25-2.15-.38-2.06-.18-1-.26-1c-.17-.66-.32-1.34-.5-2-.45-1.28-.8-2.61-1.36-3.81-.28-.6-.48-1.26-.81-1.82l-.92-1.75c-.3-.59-.71-1.1-1-1.66a12.89 12.89 0 00-1.14-1.6l-1.23-1.53c-.43-.5-.9-1-1.43-1.53-1-1.06-2.22-2.22-3.41-3.63A20.27 20.27 0 0116 151.6a15.26 15.26 0 01-1.2-6.76 16.61 16.61 0 011.68-6.32 27.57 27.57 0 013-4.77c2.15-2.79 4.37-5.06 6.35-7.29a28.71 28.71 0 004.65-6.41 7.29 7.29 0 00.79-4 6.26 6.26 0 00-1.59-3.45 14.72 14.72 0 00-4.08-3 62.17 62.17 0 00-5.74-2.57c-2.05-.84-4.21-1.67-6.43-2.7-.55-.24-1.11-.51-1.67-.8s-1.12-.54-1.68-.89-1.11-.63-1.7-1a21.27 21.27 0 01-1.78-1.28 13 13 0 01-3.3-3.91 10.48 10.48 0 01-1.2-5.59 13.3 13.3 0 011.27-4.82 18.77 18.77 0 012.31-3.73C9 78.09 13.26 75.23 17.2 72.8l5.8-3.51a51.53 51.53 0 005.12-3.56 20.73 20.73 0 006.46-9.06 10.37 10.37 0 00.49-4.75c-.09-.35-.17-.7-.26-1s-.24-.67-.42-1a7.62 7.62 0 00-1.28-1.78 18.93 18.93 0 00-3.59-2.76l-4.65-2.86-9.38-5.82-9.34-5.87a21.13 21.13 0 01-2.76-2 11.7 11.7 0 01-1.57-1.67 9.17 9.17 0 01-1.21-2.1 8.53 8.53 0 01-.46-4.77 9.67 9.67 0 01.29-1.18c0-.19.13-.4.2-.59l.18-.48a18.59 18.59 0 01.82-1.67c.46-.83.93-1.5 1.41-2.24s1-1.42 1.56-2.13a36.72 36.72 0 013.63-4 33 33 0 018.47-5.83 21.65 21.65 0 017.9-2.2c2.23-.11 3.87.34 4.65 1.2.26.31-3.44 2.22-6.55 5a57.25 57.25 0 00-6.38 6.68 54.8 54.8 0 00-3.91 4.06c-.63.71-1.17 1.41-1.67 2a7.9 7.9 0 01-1.19 1.26c-.31.23-.59.46-.84.68s-.49.51-.6.5a1.14 1.14 0 00-.52 1 1.47 1.47 0 00.13.64l.08.16a.64.64 0 00.11.17 5.71 5.71 0 00.42.47 20.63 20.63 0 002.63 2c4.11 2.83 8.68 5.61 13 8.35z" fill="currentColor"/></svg>