<svg xmlns="http://www.w3.org/2000/svg" viewBox="0 0 33.08 80"><path d="M33.06 29.56v.06c-.06.13-.06.08 0-.06zm0-.03c.04-.14.02-.08 0 0zm-.06.09a1.65 1.65 0 00-.31-1.43c-1.84-.74-10 2.67-12 4C20 25 25.88 19.38 26.56 12.58c1.35-3.87-9.57.51-11.52.76a45.26 45.26 0 012.9-12.23 4.51 4.51 0 00-.51-.47 4.4 4.4 0 01.5.46 3 3 0 00-1.06-.82 3.42 3.42 0 01.4.26 4 4 0 00-.43-.28c-4.13-.93-8.59.86-12.74 1.33A89.83 89.83 0 000 24.76c.24 3.55 8.27-1.12 10.53-1.23A82 82 0 008 43.61V46c2.55-1 5-2.12 7.68-2.83C16.19 55.58 18.55 67.84 21 80c2.66-17.08 5.64-34.27 12-50.38z" fill="currentColor"/></svg>