<svg xmlns="http://www.w3.org/2000/svg" viewBox="0 0 33.08 80"><path d="M17.93 1.1a3 3 0 00-1.06-.82 3.86 3.86 0 011.06.82zm.01.01l-.05.13m15.17 28.32v.06c-.06.13-.06.08 0-.06zm0-.03c.04-.14.02-.08 0 0zM3.33 4.09c0-.09 0-.19.08-.28a2.29 2.29 0 00-.08.28z" fill="currentColor"/><path d="M32.73 28.19c-1.84-.74-10 2.67-12 4C20 25 25.88 19.38 26.56 12.58c1.35-3.87-9.57.51-11.52.76a45.26 45.26 0 012.9-12.23 4.16 4.16 0 00-1.1-.85c-4.13-.93-8.59.86-12.74 1.33A89.83 89.83 0 000 24.76c.24 3.55 8.27-1.12 10.53-1.23A82 82 0 008 43.61V46c2.55-1 5-2.12 7.68-2.83C16.19 55.58 18.55 67.84 21 80c2.66-17.08 5.63-34.27 12-50.38a1.65 1.65 0 00-.27-1.43zM13.82 13.92a4 4 0 01-.75.35c-.33.1-.24.58-.1.81 1.63 2.4 8.73-1.27 11.63-1.28-1.4 4.57-8.47 16.33-4.05 19.93 3.47-1 7.24-2.57 10.7-3.51-.59 1.27-1.17 2.55-1.7 3.85-4.43 11.85-6.73 24.34-9 36.75C18.78 60.59 17 50.29 17 39.89a56.66 56.66 0 00-7.76 2.92C9.09 19.72 20.38 17 1.31 24.06c.07-1.22.14-2.45.28-3.66A90 90 0 014.82 3.82c3.74-.67 7.53-1.15 11.32-1.46" fill="currentColor"/></svg>