<svg xmlns="http://www.w3.org/2000/svg" viewBox="0 0 41.44 80"><path d="M37 44.11c0 .18-.07.35-.11.53a1.84 1.84 0 000-.25c-.78 5.33-4.53 23.68-3 30.45-4.1-6.75-4.09-9.64-5.68-16.74 10.42-10-11.79.54-15.17.35.43-.79 4.08-14.35 4.59-19.76 3.39-1.51 2.89-4.16-3.25-2.17-1.58.88-9.21 1.61-11.85 2.89 1.64-10.34-.2-21.56-.8-32 4.37 1 11.41.46 18.51-2.08-1 6-6.05 20.18-2.92 21.23 4.73-.91 8.93-3.81 13.68-4.56-1.7 6.43-3.94 12.72-5.19 19.27-3.13 2.7.77 10 2.28 3.26.91-.53 1.78-1.08 2.7-1.53l2.14-1c1.65-.72 3.29-1.44 5-2.08-.3 1.45-.59 2.9-.89 4.35z" fill="currentColor"/><path d="M29.38 38.85c3-16.42 14.13-28.52-10.8-16.39.07-.8.21-1.58.32-2.37v.25c1-6.09 3.24-12 4-18.13L22.1.94C18.59-2.44 9.55 4.44 4.36 4.07a6 6 0 01-2-.31 4.09 4.09 0 01.4-.76 1.48 1.48 0 00-2.12.66c-1.77 8 .92 16.76.54 25 .48 3.69-1 8.14.56 11.53a.5.5 0 000 .38 2.39 2.39 0 01.35.28c2.12 1.55 4.87.29 7.19-.09l5.3-1.2h-.16a11 11 0 001.23-.19 1.78 1.78 0 000 1.14C14.23 55.87.09 69.21 26 59.06a8.49 8.49 0 00.24 1.22c1.47 6.47 2.16 14.76 7.63 19 1.27 1 1.51 1.4 2.17-1.28 1.12-11 1.64-19.36 3.5-29.76 2.67-13.86 4.79-17.02-10.16-9.39zM37 44.11c0 .18-.07.35-.11.53a1.84 1.84 0 000-.25c-.78 5.33-5.66 23.37-3 30.45L28.25 58.1c10.4-10-11.74.52-15.17.35.43-.79 4.08-14.35 4.59-19.76 3.39-1.51 2.89-4.16-3.25-2.17-1.58.88-9.21 1.61-11.85 2.89 1.64-10.34-.2-21.56-.8-32 4.35 1 11.43.46 18.51-2.08-1 6-6.05 20.1-2.92 21.23 4.69-.91 8.89-3.81 13.64-4.56-1.7 6.43-3.94 12.72-5.19 19.27-3.13 2.7.77 10 2.28 3.26.91-.53 1.78-1.08 2.7-1.53l2.14-1c1.65-.72 3.29-1.44 5-2.08-.3 1.45-.59 2.9-.89 4.35z" fill="currentColor"/></svg>