<svg xmlns="http://www.w3.org/2000/svg" viewBox="0 0 41.54 80"><path d="M22.2.94C18.69-2.44 9.64 4.44 4.46 4.07a6 6 0 01-2-.31 2.54 2.54 0 01.16-.38c.06-.12.24-.44.24-.43a1.48 1.48 0 00-2.12.66l-.07.14a.54.54 0 00-.05.11 9.18 9.18 0 00-.51 4.89C.56 15.36 1.05 22 1.24 28.6c.48 3.69-1 8.14.56 11.53a.55.55 0 000 .38l.34.25a4 4 0 001.31.63c2 .39 4-.37 5.89-.72l5.29-1.2h-.15a11.32 11.32 0 001.23-.19 1.66 1.66 0 000 1.14 88.78 88.78 0 01-3.32 13.34c-.4 2.57-4.34 8.26 0 8.92A55.27 55.27 0 0026.02 59a6.65 6.65 0 00.25 1.24l-.06-.24c1.57 6.56 2.21 15 7.79 19.25 1.28 1 1.52 1.4 2.17-1.28.62-4.5.47-8.17 1.16-11.25.56-6.2 1.18-12.4 2.35-18.51 2.68-13.83 4.8-17-10.15-9.36 3-16.42 14.12-28.52-10.8-16.39.07-.8.21-1.58.32-2.37l-.06.25c1-5.7 2.85-11.34 3.86-17a1.68 1.68 0 00.1-1.1m5.4 55.86l.2-.09c2.09-1.45 4.39-4.76.13-4.48-5.08 1.78-10.13 4.06-15.5 4.92.42-.79 4.08-14.35 4.59-19.76 3.39-1.51 2.89-4.16-3.25-2.17-1.58.88-9.22 1.61-11.85 2.89 1.53-5 .16-10.8.34-15.95-.7-5.22-.22-10.87-1.15-16.07a6.4 6.4 0 003.73.36C7 8 15.89 7.39 20.37 5.31c-1.46 5.13-2.65 12.75-3.37 14.51 0 2-2 5.61.41 6.72 4.69-.89 8.9-3.79 13.66-4.54-1.7 6.43-3.93 12.72-5.18 19.27-3.14 2.7.77 10 2.28 3.26.91-.53 1.83-1.08 2.72-1.53L33 42c1.64-.72 3.29-1.44 5-2.08-.29 1.45-.59 2.9-.88 4.35v-.14c0 .18-.08.35-.11.53v-.25c-.79 5.33-5.67 23.37-3 30.45" fill="currentColor"/><path d="M12.36 54c0-.07.05-.14.07-.21-.02.09-.05.21-.07.21z" fill="currentColor"/></svg>