<svg xmlns="http://www.w3.org/2000/svg" viewBox="0 0 68.91 72.57"><path d="M59.9 3.93c1.18 1.75 1.46 4 1.77 6a11.19 11.19 0 015-1.78A10.09 10.09 0 0165.4 2a25.66 25.66 0 01-5.76 1.66c.09.08.18.17.26.27zm.63 8.24c-.92-1.17-.21-3.12-.82-4.55.31-1.47-2.71-4-.92-4.51-.44-2.07 3.12-1.4 4.33-2.25h-.06.11C68-1.37 67 1 67.32 4.73c.56 3 4 5.32-1.32 5.25V10c-2.09 0-3.58 2.37-5.47 2.17z" fill="currentColor"/><path d="M53.11 8h-.54.06c-4.1-.19-7.63-2.9-11.72-3-8 .25-14.06 7.9-13 15.72-1.54.55-3.34.92-4.45 2.2a16 16 0 00.25 9.25c-3.43.81-6.06 1.08-10.36 3.17-22.07 8.23-15 38.61 9 37.08 24.17 2.73 37.11-35 11.32-41-.84-3.63 2.48-13.93-4.29-11.12a.66.66 0 00-.15-.19C29 13.44 33.58 7.34 40.4 6.74 46.25 7 52.2 12.3 58 8.77c2-3.39-3.45-.16-4.89-.77zM11.42 46.55c-1 1.45.53 3.87-1 4.73-2.33.15-1.45-3.41-1-4.77 1.43-5.48 6.46-7.94 11.63-8.66a.28.28 0 01.28-.25c1.49 2.3-8.75 1.7-9.91 8.95z" fill="currentColor"/></svg>