<svg xmlns="http://www.w3.org/2000/svg" viewBox="0 0 80 70.23"><path d="M19 53.48c11.6-1.44 15.65-18.63 1.8-19.59 1.44.86 1.16 3.86-.72 2.49a9.18 9.18 0 00-1.25-1.45h.09a1.32 1.32 0 00-.65-.15c-1.63 1.19-2.41 6.07-5 3.37C9.8 43.37 11.5 53.73 19 53.48zm-1.7 3.67C9.75 55.45 7.39 45.32 10.54 39c2.2-3.94 4.8-9.22 9.88-9.59 19.88.81 14.83 28.41-3.12 27.74zm36.16-6.44c5.46-.88 16.18-10.69 9.62-15.42-.26 1-2.86 1.89-3.18.91-10.61-8.1-22.54 15.6-6.44 14.51zm-1.67 3.87c-14.64-.87-9.13-20.74 2.21-22.35.64-4.28 7.6-1.32 9.94 0 10.34 7.45-2.06 23.25-12.15 22.35zM15.45 6.44zm-.01.19v-.01.01z" fill="currentColor"/><path d="M75.46 11.44a12.2 12.2 0 01-1.21.28c.32-3.64.28-9.22.55-9.9.64-3.54-4.91-.73-6.92-1.3Q48.77.84 29.67.94c-4 .08-8 .64-11.92.91-2 .27-2.11 2.93-2.29 4.55a1.64 1.64 0 000 .22c.15 1.68-.72 5.61-.27 8.11-2.87 1-4.53 2.37-4.4 4.29 1.38 2.62 4.57-.71 6.69-.83 19.56-3.54 39.64-.46 58.9-3.33C73.46 31.74 74.73 49 73.45 66c-5.52-.33-11.08.21-16.6-.35C39 63.58 20.16 61.7 2.4 65.39a213.31 213.31 0 005.71-38.95 76.29 76.29 0 011-8.26c1.16 1.64 1.92-.83.47-1.53l.07.06C7.22 15.28 7.48 21 7.08 22.47c-1.25 11.06-1.9 22.21-4.53 33.06-5 19.84-3.37 11 12 11.38 10.78.07 21.65-.32 32.35 1.32 8.9 1.89 18 1.37 27 2 4.15.24 2.36-6.7 3-9.4.54-9.51.66-19 1-28.55a133.69 133.69 0 011.42-15.22c.85-3.99 1.88-9.69-3.86-5.62zm-13.14.9c.22-.24-.21-.59-.2-.9 0-1.9-2.49-1-3.7-1h.14c-3.39.06-4 .32-4.08 1.89-3.13 0-6.4-.05-9.68-.05-.08-1.67-2.38-.79-3.46-.83h.12c-1.16.1-2.75.18-3.57.91-2.61 0-5.17.12-7.61.25a1.13 1.13 0 00-.39-1.11c-1.45-.46-3.83-.33-4.82 1a2.42 2.42 0 00-.14.51 60.6 60.6 0 00-6.72 1 61.35 61.35 0 01.33-8.47c18-1.31 36.09 0 54-2 .07 3.57.23 5.51.13 8.54a101.14 101.14 0 01-10.35.26zm-5.49 53.33z" fill="currentColor"/><path d="M33.82 31.44c1.73-2.47 6-2.1 8.84-2.32a.86.86 0 01.79.94c-.53 2-3.77.48-5.35 1.07-1.31-.29-3.84 2.21-4.28.31zm.91 7.15c.53-1.74 3.46-1.29 5-1.84 1.07-.13 1.13 1.64.17 1.82-1.43-.28-4.9 1.93-5.17.02zM31 59.53c-.67-3.09 7.87-1.85 10-2.16 3.13-.46 5.5-1.49 5.92.38-.35 3-11.93.73-14.79 1.79a.61.61 0 01-1.13-.01z" fill="currentColor"/></svg>