<svg xmlns="http://www.w3.org/2000/svg" viewBox="0 0 80 46.31"><path d="M3.05 46.25a3.05 3.05 0 01-3-3.74C.08 37.32.23 32.13.47 27c.69-3-.34-16.25 1.69-17 1.38.2.84 2.31.81 3.29-.42 10-.63 20-.71 30 5.93.88 12.06-.95 18-1.45l2.6-.29h-.06l.75-.08h-.07l.75-.09h-.18l2.15-.24h-.06l.51-.06h-.18.47-.14c12.2-1.43 24.48-1.71 36.75-1.93 3.72-.62 9 1 11.87-1.52l-.09.18c2.67-11.29-.55-23.34 1.93-34.73-19.9-.6-39.87 1.59-59.57 4.22C12.77 8.11 7.87 9 3 9.84c-1.88.24-2-2.92-.3-3.24C27.74 2.27 53.76-1.28 79.17.45c1.24.79.81 2.34.5 3.51-2 10.2-.26 20.72-1.35 31 .25 8.4-8.92 6.92-14.74 7.25-12.26.26-24.53.45-36.73 1.83L27 44c-4.59.5-9.18 1-13.75 1.65h.17l-2.07.24h.08a57.75 57.75 0 01-8.38.36z" fill="currentColor"/><path d="M16.25 28.19c3.31.3 9.43-7.16 3.24-6.61a1 1 0 01-1.51.53c-.77.61-1.91.79-2.33-.3-3.05 1.39-3.93 7.04.6 6.38zm-3.74 1.86c-4.14-3.41 0-11.4 5-10.94 14.34-3.85 4.37 16.98-5 10.94zm44.33-4.45c3.31-.38 5.52-4.86 2.14-6.83a.9.9 0 01-1.1.06c-2.54-.64-4.4 3.13-4.16 5.32a3 3 0 003.12 1.45zm-.65 2.78c-6.94-.44-4.91-9.74 0-11.81.12-5.43 8.08 2.33 7.05 5.15-.33 3.46-3.43 6.84-7.05 6.66zm-36.44-15.2c-.92-1.78-1.29-3.85-2.1-5.71-.91-.63-.17-2.6 1-2.08 1.27 1.46 1.6 3.64 2.49 5.36 8-2.44 16.36-1.54 24.55-2.36L49.12 8H49l3.12-.36h.15-.16l.81-.09h.36l.51-.06h-.16l.7-.08h-.16.33-.16.39-.16c2-.28 4-.33 5.92-.62.49-1.79 1.15-4 2.63-5.16 1.26-.42 1.83 1.35 1.12 2.19a11.74 11.74 0 00-2 4.61C58.26 10.3 53.32 9.85 49 10.68h.16-.35l-3.16.37h.16c-6.33.8-12.75.27-19.06 1.27-2.24-.03-4.87 1.75-7 .86z" fill="currentColor"/><path d="M19.3 25.34c-.79-1.08.54-1.72 1.5-1.62.76 0 1.81-1.09 2.26-.06.41 1.56-2.82 2.02-3.76 1.68zm-2.42 2.83c-.92-3 1.36-3.42.86-1.55 0 .64.59 1.49-.11 1.94a.52.52 0 01-.75-.39zm-3.74-1.81a.53.53 0 01-.57-.63c.15-.77 1.13-.39 1.67-.6.74-.1.73 1.17 0 1.2a10.78 10.78 0 00-1.1.03zm39.06-3.1c-.09-1.07 1.16-.79 1.83-1.05.46-.22 1.09-.27 1.21.36.5 1.17-3.07 1.81-3.04.69zm7.61-.39c-1.4-.6 1.27-2.32 1.67-1.23s-.96 1.19-1.67 1.23zm-3.55 2.88c-.21-.67-.62-2 .38-2.18 1.14.06.9 3.85-.38 2.18zm.3-6.18c-.1-.8-.89-2.43.14-2.81.67.06.39.93.53 1.39v-.08c0 .6.67 1.5-.06 1.87a.45.45 0 01-.61-.37zM14.33 37.24c-.05-.57.51-.71 1-.65 8.09-.89 16.1-2.61 24.2-3.52h.19l4.92-.57h-.09.18a178.83 178.83 0 0118.52-.71c.88.16 2.61-.46 2.65.87-.55 2-8.55.3-10.76.83a203.45 203.45 0 00-25.41 2.21c-4.7.53-9.34 1.56-14.06 2-.48-.09-1.26.23-1.34-.46zM65.9 15.3v-.2.1c0-2-3.48-2-3.09-3.76a.58.58 0 011.05 0c4.05 1.43 3.57 6.07 2.04 3.86zM7.85 22.31c-1-1.44 1-3.8 1.3-5.44 2.23-1.71 0 2.94-.18 3.69-.28.55-.22 1.9-1.12 1.75zm19-2.69c-1.74-1.55 2.71-1.45 3.58-1.66h-.07l1.58-.18h-.07l1.78-.21h-.07L38 17c12-2.22 11.41.39 0 1.23-.79.11-1.59.2-2.38.29h.07-.12.08c-2.8.35-5.62.53-8.41.93a.43.43 0 01-.39.17zm-.51 9.59c3.74-.55 7.49-1 11.23-1.45 1.89.2 7.71-1.9 8.51-.71-.47 1.45-3.13.94-4.43 1.4-2.18.27-4.37.5-6.56.72h.07l-2.45.26c-.85-.18-8.34 1.77-6.37-.22z" fill="currentColor"/></svg>