<svg xmlns="http://www.w3.org/2000/svg" viewBox="0 0 80 68.85"><path d="M59.16 2.8a.89.89 0 010 .23l-.4.05a1.11 1.11 0 01.34-.69 1.4 1.4 0 01.06.41zm-8.34.39a.57.57 0 010 .13h-.38a1.7 1.7 0 01.17-.66 1.34 1.34 0 01.21.53zM9.94 66.44h-.11zm43.74-2.69c.65-1.54-.08-6.5.21-7.57.3-6.52 1.06-13 1-19.57 0-4.2-5.75-1.5-8.18-1.13-2.74 1.12-5.7.65-8.49 1.25-.27-.11-.43 0-.48.15q-.14-4.47-.33-8.89a2.22 2.22 0 00-2.95-1.75c-3.88.36-7.72 1.08-11.6 1.45-15.28-.57-11-.41-11.68 12.92.61 4.32-2.54 20.07-.3 23.83C6.34 65.11.65 66.07 0 68.24c0 .43.43.21.7.19 3.11-.41 6.11-1.51 9.23-2a120.34 120.34 0 0157.59 2.39c5.71-1.14-5.05-3.54-13.84-5.07zm-37.77-.15c-.82.22-2.16.42-3.73.65.88-2.17.17-4.83.58-7.15a241.65 241.65 0 001.48-26.21 82.58 82.58 0 0020.61-1.81c.47 6.73 0 13.5.27 20.25.58 2.91-1.64 11.79 2.49 12 .39-7.91.38-16 .16-24a.91.91 0 00.46.57c4.59 2.19 9.61-1.11 14.34-1.21 0 5.93-.6 11.84-1 17.75.08 3-.85 6.38.58 9.07-4.07-.68-7.45-1.14-8.07-1.14a130.3 130.3 0 00-28.17 1.23zm51.66 5.25z" fill="currentColor"/><path d="M64 64.12c-1.23-20.43.81-41.09.21-61.6-5 .49-9.91 1.24-14.9.7.14 6.89-1.43 13.67-1.28 20.56-.54 3.22 1.29 7.63-.81 10.22-1.95-2.35-1.12-5.74-1.37-8.57-.35-7.62 1.29-15.13 1-22.74A1.66 1.66 0 0149 .65a60.73 60.73 0 007.75.13h-.15C66.9-.37 67-1.84 66.69 9.2c.15 15.8-.69 31.58-.35 47.34v-.13c.19 1.53.53 12.72-2.34 7.71zM19.35 41.68c-1-1.34-.64-3.5-.39-5.06 1.21-.5.56 3 .75 3.77a2.39 2.39 0 01-.36 1.29zm4.42-.13a3 3 0 01-.57-2.22c0-1.12-.42-2.36.23-3.37 1 1.07.52 2.9.72 4.28v-.06a2.3 2.3 0 01-.14.9 2 2 0 01-.24.47zm4.49-.06c-.9-.41-1.17-7.34 0-5.54.32 1.71.84 3.96 0 5.54zm-8.39 9.93a5.13 5.13 0 01-.07-4.9c.71 1 .33 2.4.45 3.6a2.32 2.32 0 01-.14.86 1.73 1.73 0 01-.24.44zm4.95-1.32c-.8-.91-1-4.05.1-4.67s0 0 0 .07a6.53 6.53 0 01-.1 4.6zm4.3.29a2 2 0 01-.57-1.52v.05c.05-1.29-.3-2.67.17-3.91 1.07 0 .48 2.93.71 3.82a.13.13 0 000 .06 2.5 2.5 0 01-.14 1.21 1.29 1.29 0 01-.17.29zm-8.66 9.99c-1-1.07-.78-3.17-.23-4.43.9.73.67 3.34.23 4.43zm4.62-2.29c-.87-.23-1.07-4.57-.16-3.76v.07a5.48 5.48 0 01.16 3.69zm4.63-.61a3.89 3.89 0 01-.09-4 4.2 4.2 0 01.09 4zM41.7 47.14c-.84-1.32-.47-3.27-.3-4.76 1.12-1.01.86 4.36.3 4.76zm4.74-.85A4.29 4.29 0 0146.8 42a2.82 2.82 0 01.27 1.85v-.07c-.07.82.02 1.83-.63 2.51zm-4.03 7.37a2.14 2.14 0 01-.52-1.45c-.21-4.58 1.74-.21.52 1.45zm4.44-.17a4.13 4.13 0 010-4.11 4.13 4.13 0 010 4.11zm-3.91 5.93a2.29 2.29 0 010-2.86 2.27 2.27 0 010 2.86zm3.82-1.12a1.08 1.08 0 01-.18-.24 2.11 2.11 0 01.11-2.44 2.06 2.06 0 01.07 2.68z" fill="currentColor"/><path d="M50.75 35.09a1.2 1.2 0 01-.17.67 2.11 2.11 0 01-.28-1.13l.4-.07c.02.18.03.36.05.53zm1.16-22.18a3.19 3.19 0 012-4.18c.83 1.51-.33 3.73-2 4.18zm3.01 1.46c-.2-2.48 2.15-5.89 4.57-6.51a7.6 7.6 0 01-4.57 6.51zM51 21.77a3.45 3.45 0 013-3.75 3.44 3.44 0 01-3 3.75zm-1.54 7.76c-.26-2.36 1.93-4 3.09-5.77 2.76-2.89 4.35-7.37 7.94-9.22.78 2.46-2.32 4.67-3.49 6.71-2.54 2.6-4 7.04-7.54 8.28zm6.1.47a5.81 5.81 0 014.71-5.31A6.21 6.21 0 0155.56 30zM58 35.61c-.71-1 .7-2.61 1.86-2.36.55 1.05-.68 2.52-1.86 2.36zm-1.74 11.87c.19-2.14 3-5.7 5.15-5.59-.41 2.43-2.62 5.27-5.15 5.59zM58.41 55a3 3 0 012.36-3.45C62 52.77 60 55.24 58.41 55zm.86 6.45a1.6 1.6 0 011-2.36c.95.72.1 2.49-1 2.36zM5.2 66.85a.54.54 0 01-.11-.28.67.67 0 00-.09-.15c-3.49-8.1 4.11-2.81.21.35s.01.08-.01.08z" fill="currentColor"/><path d="M4.2 63.07c-3.84-.4-1.5-6 1.52-4.13 1.55-.84 3.17 1 2.82 2.51S5.59 64 4.2 63.07zm63.87 4.34v-.05a.16.16 0 000-.1c-.82-2.38 1.44-7.22 2.52-9.52 2.71-3.07 3.09.16 1.56 2.33 0 0 0-.09.08-.14l-.21.4.07-.14c-1.16 2.07-1.53 4.61-3 6.48l.06-.07c-.32.32-.66.76-1.08.81z" fill="currentColor"/><path d="M71.31 63.23a1.92 1.92 0 01-1.3-.68c-2.89.42-3.62-6.1-.84-6.88C68.93 53 73.92 51 74.83 54c1.44-1.25 3.94-.33 3 1.74 2.09.7.86 3.26-.9 3.5a1.51 1.51 0 01-1.37 1.39c1.44 3.11-2.32 2.68-4.25 2.6z" fill="currentColor"/><path d="M72.5 67.66a2.78 2.78 0 01-.5-2.53 1.56 1.56 0 01-.13-1.6c-.15-2.63 4.93-4.27 6.43-2.14 1.34-.53 2.19.83 1.29 1.91 1 1.84-1.77 3.56-3.36 2.65A14.19 14.19 0 0174 66a5.43 5.43 0 01-1.32 1.47c-.04.06-.11.14-.18.19z" fill="currentColor"/></svg>