<svg xmlns="http://www.w3.org/2000/svg" viewBox="0 0 80 38.07"><path d="M25.77 18.35c-.24-2.08-4.31-1.5-7.59-.92a20 20 0 01.2-4.72c.13-2-2.54-1.67-2.53.1a43.36 43.36 0 01-.24 5.06 10.16 10.16 0 01-1 .11c-1.73.52-7.65.44-5.27 3.41a1 1 0 00.76 0c1.76-.41 3.54-.76 5.34-1a23 23 0 00.23 6.38c2.25 1.48 2.57-2.56 2.57-6.73a49.12 49.12 0 016.3-.28 1.45 1.45 0 001.23-1.41zm30.84 2.7c1.81.51 2.2-2.2.86-2.9-.09.75-2 2.79-2.88 2.59.19.08 1.82.26 2.02.31zm-3 1.31c-2.2-5.17 3.09-9.25 6.8-4.33 2.59 4.06-4.22 8.45-6.78 4.33zm12.62-1.66c1.42 0 .72-1.72 0-2.29h-.03.08a1.66 1.66 0 00-.37.14l.14-.06a1.9 1.9 0 00-.82 1.14.29.29 0 010-.1v-.1a.59.59 0 010 .13 1.09 1.09 0 00.05.44.65.65 0 010 .13v-.18a1.08 1.08 0 00.45.63l-.1-.07-.07-.05.1.07a1.66 1.66 0 00.33.15h-.08a1.64 1.64 0 00.32.02zm-1.1 2.65C61.62 22 63 16.33 66.48 16c4.13-1.41 4.52 9-1.35 7.35zM29.62 21c-1.73-3.66 4.28-2.7 6.33-3 1.59 0 1.27 2.64-.17 2.69-1.58.23-3.34 0-4.82.53a1.11 1.11 0 01-1.34-.22zm8.69-2c.44-2.32 3.8-1.26 5.52-1.78.69-.06 1.08.68 1.05 1.28-.44 2.31-3.8 1.25-5.52 1.78-.67.06-1.09-.69-1.05-1.28z" fill="currentColor"/><path d="M76.57 21.11v.19c.55-3.64 1.08-7.28 1.72-10.9.11-.62.23-1.24.35-1.86.26-1.35.54-2.7.85-4C80.19 3 80.58-1.11 77.91 1c-3.12 0-6.23-.38-9.35-.51h-.07C52.63-.46 36.73.16 20.86.81 17.58 1.61-.46 0 0 3.53a1.59 1.59 0 002.1 1.65c0 .55-.25 1.2.14 1.66C2.06 15.93 1.31 25 .5 34c.52 2.32 3.18-.26 4.73 0C27.51 32.65 50 33.17 72 37.41c10.1 2.44 1.38-1.64 4.57-16.3zM68.1 3.6c3 .16 5.91.4 8.86.43-.19 1.17-.4 2.34-.61 3.52C52.57 6 28.61 4.3 4.81 6.68A.91.91 0 004 6.41v-1.3c21.41-.87 42.75-2.58 64.1-1.51zM2.74 32C3.36 24.17 3.85 16.31 4 8.44h.15a382.81 382.81 0 0148.14.19c7.88.43 15.76.93 23.63 1.57-1.5 8.2-2.92 16.55-1.7 24.8-23.31-5.18-47.86-5.79-71.48-3zM68.44.48z" fill="currentColor"/></svg>