<svg xmlns="http://www.w3.org/2000/svg" viewBox="0 0 48.34 82.85"><path d="M24.19 65.11c-.41.35-1.32 1-1.66.42s-.33-2.43-.16-4.29c.08-.93.2-1.87.29-2.65a13.37 13.37 0 00.14-1.68c0-1.43.15-2.49.15-4v-3.68c0-.2.07-.35-.11-.39l-.41-.26-.77-.46a288.44 288.44 0 00-6.69-3.84l-7-3.87-3.43-1.88-3.26-1.83a3 3 0 01-1.23-2.45 13.42 13.42 0 010-1.76c.08-2 .3-4.61.41-7.66 0-1.52.08-3.14.07-4.81V17.5c0-1-.08-2-.13-3.06v-.54a2.44 2.44 0 010-.27l.23-.16.9-.66 1.25-.89 2.09-1.49 4-2.79c2.55-1.75 4.8-3.24 6.42-4.23C16 2.92 16.93 2.33 18 1.7c.56-.32 1.14-.65 1.79-1 .35-.17.62-.31 1.12-.51a2.85 2.85 0 011.76-.1A6.27 6.27 0 0124 .56c.37.15.72.32 1.07.49.71.34 1.41.69 2.1 1.06 1.4.72 2.8 1.49 4.17 2.24 5.48 3 10.57 6 12.61 7.08l1.11.6.55.3.85.49 1 .57a9.77 9.77 0 01.1 1.1l.1 1.65c.1 1.67.19 3.35.28 5 .16 3.37.37 6.71.41 10.2 0 .75 0 1.5-.11 2.31l-.09.62L48 35a7 7 0 01-.32.8 7.87 7.87 0 01-.53.72l-.68.52-.54.3c-.36.2-.67.31-1 .47-.66.28-1.31.53-2 .76q-1.93.68-3.87 1.23a15.23 15.23 0 01-5.79.52c-2-.27-1.19-.73.43-1.81 2.45-1.66 5.86-2.61 9.7-3.62l.85-.29.62-.28s.08-.06.08-.09v-.08l.06-.21a2.51 2.51 0 00.11-.5 3.66 3.66 0 00.07-.6 23.3 23.3 0 000-2.79c-.06-1.92-.2-3.8-.27-5.08-.12-2.07-.22-3.92-.32-5.66 0-.87-.09-1.72-.13-2.55l-.06-1.19c0-.12 0-.29-.06-.36l-3.75-2.26L35.83 10c-2-1.15-4.93-2.76-7.92-4.29-1.49-.75-3-1.5-4.36-2.11l-1-.4-.37-.14h-.11a.72.72 0 00-.24.08c-.22.09-.47.22-.7.34a178.28 178.28 0 00-16.7 10.84l-.91.68c-.1.07-.24.12-.19.31l.09 2.28c.06 1.83.07 3.64.05 5.28 0 3.3-.19 6-.26 7S3.08 31.6 3 32.55v1.39a.74.74 0 000 .26.23.23 0 00.14.18L8 37.22l5.77 3.41 7.23 4.2 4 2.32.35.21c.11.08.05.25.08.37v.8c0 .42.05.82.07 1.22 0 .57.06 1.1.09 1.6.05.95.11 1.89.16 2.83l.22 2.9a17 17 0 01-.25 3.06L25.29 63a3.32 3.32 0 01-1.1 2.11z" fill="currentColor"/><path d="M15.81 44.16c.47.26 1.42.86 1 1.4-.9 1.13-6.69 2.49-8.53 2.75-1.43.2-2.4.19-3.9.49l-.38.09-.34.11h-.75v1.24c0 .32 0 .64.05 1 0 .66.08 1.33.13 2 .1 1.38.26 2.79.42 4.28a30.79 30.79 0 01.17 4.62c0 1.53-.12 3-.2 4.53 0 .71-.1 1.65-.08 1.73v.19a1 1 0 00.18.1l.18.08h.08l.23.12c2.46 1.35 4.74 2.59 6.61 3.67 1.62.92 3.94 2.21 6.63 3.6 1.34.69 2.78 1.42 4.27 2.1.75.34 1.5.67 2.25 1a7.2 7.2 0 001.89.53 1.7 1.7 0 01.31-.06c.14 0 .34-.12.5-.18a8.26 8.26 0 001.06-.44c.72-.32 1.45-.74 2.16-1.11 1.43-.8 2.81-1.61 4.09-2.41 2.57-1.58 4.78-3 6.35-4l2.7-1.77 1.59-1.08a1.31 1.31 0 00.27-.19v-.44a78 78 0 00.52-8.94c-.07-1.45-.26-3-.39-4.45s-.23-2.85-.33-4.11c0-.32-.05-.63-.07-.93v-.54s-.07 0-.1-.06l-.2-.1-2-1.12c-5.86-3.09-11.47-6.82-17.21-10.23l-2.42-1.43c.17-2 .35-4 .52-6.05.07-.83.16-1.72.17-2.44a5.73 5.73 0 00-.08-1.05c-.06-.41-.13-.87-.17-1.3a13.89 13.89 0 01.63-5.79c.67-1.88 1-1 1.68.79a22.5 22.5 0 011.16 4.54c.07.41.13.83.2 1.27a7.19 7.19 0 01.05 1.83 25.37 25.37 0 01-.46 3.08c-.11.53-.21 1.2-.31 2-.05.39-.1.8-.16 1.23l-.06.34.22.14.86.52 1.95 1.16 3.3 2 9.07 5.48 4.27 2.55 1.73 1s.09 0 .1.08v.99l.06 1c.05.93.11 1.89.17 2.91s.2 2.5.38 4a35.41 35.41 0 01.31 5.07c0 1.73-.14 3.42-.24 5-.05.81-.11 1.58-.16 2.3l-.07.9c-.06.28.06.65-.27.76l-1.27.9c-1.12.77-3.38 2.28-6.37 4.19-1.49.95-3.16 2-5 3.09s-3.76 2.22-6 3.25a11.84 11.84 0 01-1.33.55 7.32 7.32 0 01-.75.25c-.32.07-.66.12-1 .17a6 6 0 01-1.79-.3c-.48-.15-1-.31-1.39-.49-1.77-.68-3.37-1.46-4.85-2.17-2.93-1.44-5.25-2.68-6.15-3.18-2.22-1.38-4.7-2.77-7.35-4.39L2 71.08l-.88-.52-.49-.26c-.06-.06-.19-.07-.18-.16v-.25l.18-2c.15-1.63.3-3.31.41-5a32.19 32.19 0 000-3.93C1 57.58.83 56.15.71 54.77s-.23-2.73-.32-4c0-.9-.1-1.76-.14-2.58v-1.06l.35-.09 1.31-.37 1.84-.5 1.38-.36 2.78-.66 5.55-1.27a3.32 3.32 0 012.35.28z" fill="currentColor"/></svg>