<svg xmlns="http://www.w3.org/2000/svg" viewBox="0 0 29.43 82.72"><path d="M14.58 69.38c.68-13 .29-8.06-.11-21.07L10.2 44s-7.68-7.64-8.52-8.57.32-8.04-.12-21.05c0 0 10.56-13 11.86-13s14 13 14 13c.4 13 1 19.54.12 21.07s-8.14 4.8-8.14 4.8M10.2 44l-8.64 4.31c.4 13 .8 8.07.12 21.07 0 0 11.83 12 13.85 12s12-12 12-12c.68-13 .28-8.06-.12-21.07L14.58 35.45c.68-13 .29-8.06-.11-21.07" fill="none"/><path d="M12.85 17c.06.69 0 1 0 1.76s.17 1.44.21 2c.08 1.09.26 2.18.32 3.26a79.75 79.75 0 01-.14 9.12L13.07 36l1 1 .17.17.06.06 3 3c.56.55 1.95 1.91 2.06 2.05S20.83 43.74 21 44l2.26 2.11c.47.48.92 1 1.37 1.49l.75.83c.13.15.28.3.43.46l.07.1v.78c0 .43 0 .82.08 1.14l.07 1.51a1.62 1.62 0 010 .21 8.6 8.6 0 00.08 1.08c.09 2.13.27 4.27.3 6.31s-.07 4.17-.12 6.29c0 .74 0 1.48-.05 2.22v.34a.15.15 0 01-.06.15l-.59.67c-1.79 2-3.54 4-5.36 5.88a24.37 24.37 0 01-2.6 2.64 21.87 21.87 0 01-2 1.56.26.26 0 01-.27.08h-.09a2.79 2.79 0 01-.27-.25c-.21-.12-.43-.27-.69-.45a73.18 73.18 0 01-6.65-5.71c-.57-.53-1.1-1.11-1.63-1.68a23.32 23.32 0 00-2.53-2.53L3.2 69h-.1s-.08 0-.1-.06v-.69c0-.14 0-.58.07-.89.21-2 .23-4 .28-6.06 0-1.64 0-3.23-.1-4.73s-.11-3-.11-4.6v-2.62a.23.23 0 01.1 0l1.22-.56 3.13-1.37c.9-.41 2.88-1.81 2.94-2.35 0-.31-.34-.49-.32-.8 0-.71-1.77-1-3-.42l-3.76 2-2.31.97-.92.45a1.14 1.14 0 00-.22.12v.77l.1 1.73c.07 1.17.36 2.34.38 3.48s.21 2.41.16 3.71c-.06 1.88.11 3.75 0 5.7-.12 2.31-.24 4.65-.37 7v.18l.13.13.25.25.51.52.61.62 1.15 1.16 2.3 2.31c2 1.94 4.09 3.75 6.23 5.49a20.84 20.84 0 002.43 1.75 3.76 3.76 0 00.53.27 2.86 2.86 0 001.15.28 3 3 0 00.58-.11 4.11 4.11 0 001.07-.53c.25-.16.44-.32.65-.48a44.12 44.12 0 004.16-4c1.28-1.37 2.53-2.78 3.75-4.19l1.82-2.15.44-.54a5.92 5.92 0 00.7-.91l.09-1.83.24-5.58c.11-2.54-.11-4.55-.06-7V55c0-1.16-.07-2.49-.15-3.65l-.05-1.79v-1.12a3.29 3.29 0 00-.06-.78l-.56-.57-2.64-2.69c-1.88-2-3.95-3.85-5.85-5.74L16 34.93l.19-4.07c.06-1.56.12-3.12.11-4.72 0-2.93.17-5.69.12-8.4a7.92 7.92 0 00-.33-2 7.87 7.87 0 00-.31-1 .82.82 0 00-.82-.3A2.58 2.58 0 0012.85 17z" fill="currentColor"/><path d="M22.42 40.68c.63-.36 1-.42 1.65-.77s1.28-.8 1.78-1.12a14.16 14.16 0 001.4-1c.24-.2.47-.38.72-.62l.39-.38c.15-.19.3-.39.44-.59l.11-.25a5.07 5.07 0 00.4-1.6c.05-.45.09-.88.1-1.29v-2.43c0-1.59-.09-3.15-.15-4.72l-.1-3.09a1.93 1.93 0 000-.24v-.08L29 18.29c0-.8-.13-2.76-.11-2.94v-1.52c0-.12-.14-.18-.21-.27l-1.17-1.13-2.28-2.14c-.48-.49-.95-1-1.4-1.5a40.91 40.91 0 00-3.55-3.54l-1.11-1L19 4a8.78 8.78 0 00-.82-.73c-.81-.73-1.61-1.46-2.5-2.17l-.49-.3-.58-.4a2.78 2.78 0 00-1.25-.4 4.16 4.16 0 00-2.19 1.31 60.24 60.24 0 00-4.41 4.87c-1 1.17-1.88 2.34-2.91 3.47s-1.79 2-2.66 3.07l-.95 1.15a13 13 0 000 1.52v2a33.64 33.64 0 010 3.8c0 .74-.14 2.12-.15 2.85v3.37l-.03 4.1v2.11c0 .38 0 .73.08 1.16a3.52 3.52 0 00.19.8 1.29 1.29 0 00.19.42.72.72 0 01.09.2l.13.17.68.68c.57.56 1.1 1.16 1.62 1.75a22.6 22.6 0 002.56 2.58 20.48 20.48 0 012.49 2.31c1.36 1.54 2.83 2.9 4.27 4.35l.73.73a.27.27 0 01.09.28c0 .78.05 1.54.07 2.31 0 1.54.07 3.07.11 4.69 0 .94-.07 1.9 0 2.78a41.13 41.13 0 01-.36 6.64c-.08 1 .17 3.42.61 3.74.25.19.59 0 .85.12.6.38 1.76-1 1.82-2.4s.06-2.86.1-4.3a43.92 43.92 0 000-4.59c-.09-1.2-.41-2.35-.43-3.5s-.2-2.4-.13-3.72v-3.1a4 4 0 00-.45-.47l-1.25-1.23-1.06-1C10 41.91 7 38.82 4 35.69l-1-1a.23.23 0 01-.06-.12c0-.12 0-.39-.06-.63v-4.89C3 25.24 3 21.45 3 17.67L2.91 15v-.17l.24-.28.88-1.09 3.6-4.36c1.19-1.43 2.42-2.83 3.68-4.17l1.21-1.28.54-.54.23-.2c.14-.17.33 0 .45.1l.48.43.62.61.27.26c.82.81 1.8 1.72 2.67 2.5 1.73 1.66 3.43 3.37 5.09 5.1.95 1 1.95 2 2.93 2.93.16.15.12 0 .18.91 0 .69.07 1.37.1 2l.33 7.67c.1 2.54.24 5.12.16 7.55a8.25 8.25 0 01-.14 1.06 1.37 1.37 0 01-.21.61h-.07l-.15.26c-.14.1-.35.22-.52.33l-1.22.66-2.59 1.26A7.56 7.56 0 0020 38.29c-.47.43-.67.47-.82.68a.81.81 0 00.05.87 2.54 2.54 0 003.19.84z" fill="currentColor"/></svg>