<svg xmlns="http://www.w3.org/2000/svg" viewBox="0 0 50.46 64"><path d="M47.09 3.71c1.91-1.13 1.07-1.95-1.35-2.52a5.76 5.76 0 00-1-1.19 5.1 5.1 0 00-.62.89C34.7-.55 11.75.5 8.76 2.75 7.06 2 1.38 13.28.35 18.86c-.44.14-.44.88-.12 2.07a1.48 1.48 0 00.1.39v-.07a4.91 4.91 0 00.25.93h.06c2.84 8 14.49 27.55 15.14 28.77l-.15-.22c2.44 3.6 4 7.72 6.35 11.37 2.65 3.08 3.51 2 3.43-.09 2.81-1.63 3.32-5.19 4.82-7.87 5.66-11 14.88-20.39 19.68-31.68a4.42 4.42 0 00-.09-.8c1.74-3.38-.3-12.55-2.73-17.95zm-8.48 29.82c-4.42 8.16-12.47 15.91-13.82 25.26a9.93 9.93 0 00-1.7-3.47C16.14 44 10.5 31.77 3.12 20.78 6.25 18 6.79 12.4 8.64 8.79l-.09.26.2-.57-.06.18.08-.21A20.72 20.72 0 009.23 4 13.37 13.37 0 0012 5c10.43-.88 21-.2 31.42-.58.2 2.38 1.4 4.89 2 7.09 0-.08 0-.17-.08-.25 1.12 3.12.81 6.87 2.64 9.63-2.98 1.86-8.42 11.2-9.37 12.64zM7.69 20.74v-.01.01z" fill="currentColor"/><path d="M9.27 17.85a.77.77 0 00.49.77c0 .09.05.18.08.13l.14-.07h.07a4 4 0 00-2.36 2 19.57 19.57 0 002.81.8 10.87 10.87 0 00.83 2v.13-.05c.39.84.77 1.68 1.17 2.51v-.1c.52 1.13 1 2.27 1.56 3.4s1.14 2.63 1.75 3.85a.37.37 0 01-.05-.11c1.6 3 2.62 6.35 4.48 9.18 3.51 2.77-.54-5.36-1.21-6.61-1.11-2.3-2.25-4.6-3.32-6.92-.9-2-1.86-4-2.81-6-.15-.49-.3-.9-.45-1.28 3-.21 6-.63 9-.71 3.88-.2 7.8 0 11.7 0-.47 2.22-.53 5.57-1 6.71-.39 4.71-4 9.82-2.48 14.35a5.16 5.16 0 001.24-2.34c1.22-6.13 3.95-12.44 3.78-18.73a69.78 69.78 0 007.79-.31c3.68-1.18 3.16-3.21-.55-3.25h.22c-2.57.07-5.14.08-7.71.07a42.63 42.63 0 00-3.12-7.17.76.76 0 01-.09-.18c-1.42 1.74.31 5.14 1.61 7.34-4.89 0-9.78 0-14.67.3h.22c-2.13.46-5.21.16-7.59.78a.77.77 0 00.25-.59.71.71 0 000-.21c2.5-3.06 7.3-11.3 3.14-8.81m-1.21 14a.36.36 0 010 .09.54.54 0 010-.11zm-1.63.86v-.01.01zM31.18 10z" fill="currentColor"/><path d="M14.09 29.54v-.1a.54.54 0 010 .1zm27.37-16.19a6.17 6.17 0 00-1.84-5.63 1 1 0 01-.13-.18c-1.15 1.1.24 3.84 1.06 5.07a3.1 3.1 0 00.91.74zm-.89-.72v-.01.01z" fill="currentColor"/></svg>