<svg xmlns="http://www.w3.org/2000/svg" viewBox="0 0 48.42 37.57"><path d="M3.62 27.11c.61-.09.9 0 1.54-.05s1.25-.2 1.74-.25c.95-.09 1.89-.26 2.84-.32 1.35-.08 2.69-.13 4-.13s2.72.09 4.08.13l2.69.12h.29c1.23.06 2.47.11 3.71.14.69 0 2.41.06 2.57.08s1.8 0 2.06 0h2.73c.6 0 1.2.08 1.79.13a33.43 33.43 0 004.38.17h1.54a7.78 7.78 0 001 0h3.17c1.63 0 3.52-.07 4.13-.66a1.69 1.69 0 00.43-.41.68.68 0 00.15-.32 2.28 2.28 0 000-.26 1.84 1.84 0 00-.17-.6l-.14-.33c0-.11-.22-.26-.33-.39s-.48-.54-.77-.81l-.93-.81-1.52-1.3c-1-.84-2-1.66-2.95-2.6-1.65-1.65-3.35-3.27-4.93-5a18.07 18.07 0 01-2.17-2.42c-.39-.51-1.07-1.52-1.47-2-.74-.9-1.15-1.34-1.88-2.25s-1.51-1.84-2.2-2.8l-1.14-1.59L26.11 0l-.91.83c-.44.41-.89.8-1.34 1.19l-.58.48-.4.33A16.74 16.74 0 0020.5 5a14.68 14.68 0 01-2.09 2c-1.39 1.11-2.64 2.36-4 3.57-2.1 1.9-4 3.59-6.14 5.41a24.33 24.33 0 00-1.91 1.55C5 19 3.51 20.05 1.88 21.43 1.21 22-.11 23.69 0 24.2c.06.3.45.39.53.68.19.67 1.88.59 2.75-.21s1.8-1.74 2.72-2.59 2-1.72 2.9-2.63c.74-.72 1.34-1.6 2.11-2.25s1.51-1.49 2.44-2.18a50.86 50.86 0 003.83-3.43l4.27-3.83 2.14-1.91 1.08-.95.54-.47.11-.08.18-.14 2.55 3.4a92.6 92.6 0 006.35 7.75c2.32 2.43 4.77 4.67 7.26 6.85L44 24.13l.19.17s.07.06.08.1a.16.16 0 01-.09.05 2 2 0 01-.44.06 2.48 2.48 0 01-.47 0H41.9c-1-.08-2.2-.08-3.23-.07-2.11-.06-4.22-.14-6.33-.26-2.41-.14-4.89 0-7.25-.13l-6.72-.22c-2.23-.07-4.48-.2-6.77-.1-2.52 0-5.07-.22-7.48 0a5.8 5.8 0 00-1.8.41c-.54.24-.71.2-.9.35a.87.87 0 00-.21.83 2.4 2.4 0 002.41 1.79zm-1.21 5.27c.25-.07.38 0 .65 0s.52-.14.72-.17c.4-.06.79-.2 1.19-.25 1.13-.13 2.26-.22 3.39-.29H9.6c.51 0 1 0 1.53-.06.29 0 1-.06 1.06 0a8.4 8.4 0 00.85-.08l1.12-.12a6 6 0 01.73.08 6.25 6.25 0 001.83.12h.63a1.09 1.09 0 00.4 0c1.57 0 3.14.12 4.71.06a9.11 9.11 0 011.65 0c1 .14 2 .17 3 .23a5.72 5.72 0 011.4.05c.28 0 .8.14 1.07.13.51 0 .76-.07 1.27-.1l3.34-.19a4.33 4.33 0 01.88 0 3 3 0 001.33 0 2.81 2.81 0 011.23-.18 16.5 16.5 0 002.22-.05 25.25 25.25 0 013.37.09 4.32 4.32 0 001 .15 8.54 8.54 0 012.38.3c.35.05 1.23-.22 1.39-.67.09-.25 0-.59.12-.85.21-.6-.23-1.73-.75-1.78s-1.09 0-1.63 0-1.12-.1-1.68-.07a10.44 10.44 0 01-1.32.23 10.82 10.82 0 01-1.39 0 8.84 8.84 0 00-2.18 0c-1.6 0-3.22.11-4.81.07-1 0-2 .16-3 .19-2.69.11-5.45-.11-8.21-.1-.69 0-1.37 0-2.06-.06a10.8 10.8 0 01-2.54-.18h-.14a6.22 6.22 0 00-1.4-.14l-2.66-.16a26.23 26.23 0 00-3.09.14q-2.85.12-5.67.38c-1.05 0-2.12-.29-3.13-.23a1.21 1.21 0 00-.74.32c-.21.21-.29.17-.36.31a1.67 1.67 0 00-.05.81c.1.93.61 2.19 1.11 2.07zm0 5.01c.25-.07.38 0 .65 0s.52-.15.72-.18c.4-.06.79-.2 1.19-.25 1.14-.13 2.27-.22 3.4-.29H9.6c.51 0 1 0 1.54-.06.28 0 1-.06 1 0a8.33 8.33 0 00.86-.08l1.12-.12a4.55 4.55 0 01.73.09 6.61 6.61 0 001.83.11h.63a1.36 1.36 0 00.4 0c1.57 0 3.14.11 4.71.05a10.1 10.1 0 011.65 0c1 .14 2 .17 3 .23a5.61 5.61 0 011.39 0 9.47 9.47 0 001 .15h1.24c1.09 0 2.19 0 3.3.07a5.14 5.14 0 01.86.14 2.92 2.92 0 001.34.09 2.9 2.9 0 011.25-.07 14.2 14.2 0 002.26.11c1.21 0 2.29 0 3.51.1a4.94 4.94 0 001.08.07 20.15 20.15 0 012.62-.1c.39 0 1.26-.57 1.28-1 0-.27-.15-.58-.15-.85 0-.63-.74-1.6-1.18-1.51s-1 .22-1.45.29-1 .06-1.56.13a6.79 6.79 0 01-1.24.3 6.58 6.58 0 01-1.33 0 10 10 0 00-2.12-.06c-1.56-.08-3.16-.16-4.75-.34-1-.12-2 0-3-.07-2.79-.09-5.55-.2-8.3-.22-.69 0-1.38 0-2.07-.05a12 12 0 01-2.54-.18h-.14a6.18 6.18 0 00-1.37-.13l-2.67-.17a26.16 26.16 0 00-3.08.14q-2.86.12-5.68.38c-1 0-2.12-.29-3.13-.23a1.21 1.21 0 00-.74.32c-.21.21-.29.17-.36.31a1.67 1.67 0 00-.05.81c.11.93.62 2.19 1.12 2.07z" fill="currentColor"/></svg>