<svg xmlns="http://www.w3.org/2000/svg" viewBox="0 0 64 63.41"><path d="M4.62 63.41A5.19 5.19 0 013 59.81v-.26.09C3.51 46 1.57 32.38.48 18.77l-.3-6.18v.22C.31 9.76-.83 6 1.38 3.54 4.82 2 2.86 18.48 4.08 21.5 4 32.48 10.64 55 4.62 63.41z" fill="currentColor"/><path d="M6.56 60.86c-.72 2.33-2.65 3.32-3.27.37zm57.38-6.69c.26 2-.26 4.83-2.52 5.42-5-19-4.35-39.91-6.82-59.59h3.69c2 18.08 3.13 36.19 5.65 54.17z" fill="currentColor"/><path d="M58.62 3l.15 1.31c-19.67-.94-39.2.92-58.7 3.1C-2.09-1.61 50.5.5 58.29 0c.2 1 .22 2 .33 3zM5.68 63.39c-13.09-3.64 50.53-12.1 51.81-6.88-4.49 3.74-11.67 1.14-17.18 2.15-11.65.74-23.09 3.34-34.63 4.73z" fill="currentColor"/><path d="M18.62 58.94c-3.41-3.15-1.55-9.64-3.3-14-1.5-17.54 5.64 9.15 3.62 13.25v-.08a5.12 5.12 0 01-.32.83zm23.71-5.21C42 51.28 38.9 36 41.83 36.47c1.17 1.83 5.11 22.09.5 17.26z" fill="currentColor"/><path d="M17.25 40.69c-5.31-2.27 12.28-5 14.41-4.91h.13l2.77-.15h2.69l2.12-.11c11.78 3.05-13.17 3-15.52 4.09h.16c-2.3.19-4.48 1.26-6.76 1.08z" fill="currentColor"/><path d="M21.38 47.72c-.36-.1-.43-.46-.46-.78a.13.13 0 000-.06c-.87-1.15-1.57-10.62-.28-5.51a23.4 23.4 0 001.16 4.86c6.37-2.29 7.11-.21.26 1.27a1.53 1.53 0 01-.21.14h-.07a.64.64 0 01-.4.08z" fill="currentColor"/><path d="M27.17 46.76c-1.24-.56-2.22-8.23-1.05-8.06a28.3 28.3 0 011.05 8.06zM5.52 13.92a.94.94 0 01-.67-.5c1.62-2.92 7.71.58.67.5zm.11 4.95c-1.63-3.22 4.85-3.5 3.75-1.66 1.91 1.07-.67 1.91-1.79 1.48-.72-.08-1.36.93-1.96.18zm4.8-11.11a.33.33 0 01.66 0 .33.33 0 01-.66 0z" fill="currentColor"/><path d="M10.88 28.09c1-7-1.75-14.11-.94-20.91 1.26 2.07.64 6.51 1.62 9.32a45.78 45.78 0 01.64 10.39 7.9 7.9 0 01.84-.2h.69l.48-.1h-.09.29l1.32-.26h.07c10.37-1.78 21.6-3.93 31.73-4.43-9.63 4.79-22.39 2.8-32.93 6.12h.07-.15l-.92.17h-.16c-.88-.19-2.11 1.06-2.56-.1z" fill="currentColor"/><path d="M47.23 24.26c-.59-.2-.45-1.11-.36-1.6v.09c.73-3.37.24-6.85.28-10.27a.15.15 0 010 .07c.47-2.07-1.74-8.55-.15-8.41.8 6.17 2.83 14.57.23 20.12zm-32.7-13.07c-.19 0-.38-.11-.58-.14 8.73-2.45 20.82-2.46 30.36-3.64C39.17 9.81 32.67 9.5 27 10.15l-3.62.2c-2.92.11-5.87.95-8.85.84z" fill="currentColor"/><path d="M14.94 16.37c-2.27-.28.3-1 1.3-.84 7.47-.83 14.94-1.72 22.45-2l2.56-.13h-.06c2 .13 4.06-1 5.92-.37-2.22 1.82-5.7 1.08-8.41 1.43h.06c-.92 0-1.85.06-2.77.11-.84.05-1.69.08-2.54.12-5.74.29-11.45 1-17.17 1.6h.05c-.5.02-.95.08-1.39.08zm-.49 6.04c6.62-2.26 14.21-2.52 21.22-3.46l4.21-.24c2.26.21 4.94-.78 7 .37-3.51 1.3-7.86.17-11.64.83-6.98.19-13.95 2.49-20.79 2.5zm37.14-7.08c-.22-.09-.77 0-.76-.28-2.69-1.38 3.7-2.73 3.76-.91-.54.86-1.97 1.14-3 1.19zm1.54-6.98s0-.19.08-.17 0 .07.07.09c.13.1-.11.2-.15.08z" fill="currentColor"/><path d="M53.21 9.14c-1.21-.14-.67-1.91.43-1.52.82.38.47 1.71-.43 1.52z" fill="currentColor"/></svg>