<svg xmlns="http://www.w3.org/2000/svg" viewBox="0 0 54.24 80"><path d="M4.06 79.93c-1.24 0-1-2.18.13-2.12a86.92 86.92 0 009.12-.48h-.06c7.51-.9 15-2.4 22.45-3.34h-.07L36 74h1.3l.53-.06h-.13.3l2-.43h-.19.33-.08c2.27.28 9-2.22 9.27.92A1.56 1.56 0 0148 76c-4.17.24-8.34.57-12.5.93-2.35.26-4.7.54-7.05.81h.17c-8.14 1.08-16.3 2.61-24.56 2.19zm7.63-16.53c-1.35-.9-.75-2.86-.95-4.24a1.93 1.93 0 000 .24c-.09-3.21-.34-6.43-.37-9.65 2.36-4.86 2.49 7.91 3.14 9.2 1.08 1.37.58 5.37-1.82 4.45z" fill="currentColor"/><path d="M7 56.21a1.76 1.76 0 010-.4c1.75-2.6 5.34-4.18 8.05-5.83 1.45-.54 2.37 1.39 1.79 2.54-.58 1.37-2.4 1.29-3.54 2-1.76.32-5.46 4.82-6.3 1.69zm28.27-7.77c2.38-.53.18-2.83-1.4-2.46a2.86 2.86 0 00-.58 1.17.85.85 0 000-.17 3.54 3.54 0 00-.08.45v-.18a.82.82 0 00.13.7v-.06a2.37 2.37 0 001.93.55zm-1.34 2.74c-3.49-.67-3.34-5.15-.91-7 .51-1.6 2.75-1 3.85-.39 3.68 2.21 1.51 8.77-2.94 7.39z" fill="currentColor"/><path d="M42.42 46.31c2.1-.48.2-2.24-.81-2.82a2.74 2.74 0 00-.36.59v-.09a3.63 3.63 0 00-.36 1.55v-.1a1.58 1.58 0 001.53.87zm-1.66 2.11c-3-1.5-1.46-6.4 1.31-7.22 5.06.57 4.22 9.61-1.31 7.22zm-21 21.33c-2.11-1.4 2-3 2.78-4.15 1.09-.59 2.56-3.34 3.75-1.73a1.4 1.4 0 01-.36 1.69c-2.12 1.23-3.93 3.37-6.17 4.19zm8.71-.96c-4-.6 4-6.43 5.13-7.23 3.41 1.67-3.16 4.4-4.2 5.87l.05-.05-.09.08-.24.22c.17.43-.12 1.1-.65 1.11zM10.42 27.68a46.85 46.85 0 01.41 8.32 21.73 21.73 0 003.64-1A65.85 65.85 0 0125 32.89h-.17c5.69-.7 11.41-1.11 17.13-1.39-.22-6.16-.2-12.33-.47-18.49v.1a2.62 2.62 0 000-.28 193.53 193.53 0 00-31.34 2.74c.03 4.05.02 8.09.27 12.11zM9 38.72c-1.1-1-.52-2.62-.45-3.9.07-6.3-.37-12.62 0-18.94-2.93.63-2.55-3.83.08-3.83-.14-.87 1.11-1.42 1.38-.43C19 9.28 28.54 9.23 37.8 8.89a21.59 21.59 0 004.33-.16 1.48 1.48 0 011.94.19c2.08 7.56-.47 16.11.61 23.92 0 2.54-7.26 1.17-9.28 1.75a98.44 98.44 0 00-18.72 2.74c-2.48.51-5.2 2.25-7.68 1.39z" fill="currentColor"/><path d="M1.41 12.61c-1 0-1.59.24-1.36 3.42.13 1.32-.24 2.31.92 2.75a1.78 1.78 0 00.67 0c.1 2.39.21 4.79.3 7.18v.7A239.72 239.72 0 011 64.49C.91 65.9.76 67.37.64 68.83a.13.13 0 000 .06c.11 2.77-.88 8.33 1.46 10 1-.05 1.21-1.28.91-2.06-1.11-7.42.71-14.88.92-22.31a254.92 254.92 0 00-.1-28.86v.12C3.6 19.41 3.09 13 3.06 6.64 18.32 3.1 34.33 2.88 50 3.4c.14 1.28.23 2.56.28 3.84a1.8 1.8 0 000-.22c-.66 18.9 1.12 37.78.39 56.66.18 2.39-1.82 13.71 2.38 11.88.77-.38.74-1.84-.23-1.89a29.72 29.72 0 01.14-6.73c1.52-12.78.7-25.65.75-38.49-.13-8.29 1-16.64.35-24.9L53.64.16 48.25 0C32.73-.18 15.77.8.69 4.45" fill="currentColor"/><path d="M44.92 69.14c-.53-.39-6.36-6.47-3.37-5 .36.94 6.13 5.13 3.37 5zm.72-2.23c-.66-.45-5-5.82-2.2-4.51a2.12 2.12 0 00.11.21v-.06c.27.42.57.81.87 1.22l.09.1c.38.63 3.37 3.36 1.13 3.04zm.89-1.91c-.88-1-1.75-2-2.67-3a.42.42 0 01-.34-.45v.06c-.22-2.32 5.48 4.3 3.01 3.39zm.73-2.35c-.8-1.21-2.52-2.3-2.52-3.83.74-1 1.2 1 1.78 1.39.48.5 2.64 2.79.74 2.44z" fill="currentColor"/></svg>