<svg xmlns="http://www.w3.org/2000/svg" viewBox="0 0 54.64 71.17"><path d="M31.06 29.18c0-1.94-.06-3.68.09-5.66 10.54-1.36 16.91-13 3.57-19.06-11.31-16.39-33.4 17.59-8.27 19-.05 1.51-.19 3-.36 4.52a76.21 76.21 0 00-24.36 11.7c-3.31-.37-.84 5-.85 6.94a51.61 51.61 0 01.84 6.55 3.16 3.16 0 00.12.61c.16 1 8.34 6.58 11.57 8.21 8.52 4.69 5.72 3.44 14.65 8.81 1.4.83 1.09.12 2.58-.57C37 67.3 43 63.72 49.17 60.56L52 59.2c.15-.06.27-.09.29-.15 1-4.28.51-7.17.81-10.76a1.35 1.35 0 001.3-.61c.78-1.09-.36-2.06-1.08-2.81a22.46 22.46 0 00-2.72-2.44M26.28 19.6c-9.2-1.19-12.19-8.48-2.11-15.34a1.61 1.61 0 002.33 2 13.14 13.14 0 015.5.94l-.21-.07c10.14 2.12 7.31 13.05-2.14 12.65m-3.92 11.4c0 3-1.17 9 1.13 11.4.75.87 2.62 1.54 3.47.27 2-2.28.29-7.79.79-10.63a132.64 132.64 0 0119 13.66 191.66 191.66 0 00-22.44 10.28c-7.61-6.53-13.51-9.73-23.09-15a73.14 73.14 0 0121.14-9.98zM9.54 55.2c-1.73-.74-3.33-2.2-5-3.18-.21-2.7-.66-4.87-1.14-8.25 8.87 4.32 16.6 10 24.35 15.72.29 2.71-.06 5.52.08 8.27C22.22 63 15.81 59 9.54 55.2zm21.87 11.59l-.51.26a60.45 60.45 0 01-.37-6.82 14.43 14.43 0 01-.05-1.94 1.79 1.79 0 000-.23A159.85 159.85 0 0150 49.29c-.28 2.65-.57 5.31-.72 8-6.07 2.92-11.92 6.3-17.87 9.5zm-9.2-34.45h-.18z" fill="currentColor"/></svg>