<svg xmlns="http://www.w3.org/2000/svg" viewBox="0 0 62.83 80"><path d="M62.83 64.73c.1-5.35-8.2-17.21-9.61-21.85l.07.17c-3.49-7.71-7-15.39-10.65-23a.77.77 0 00-.07-.16c-1.14-2.47-2.28-4.94-3.39-7.42-.8-1.86-1.61-3.71-2.41-5.56-1-1.9-2.2-3.81-3.18-5.58-2.31-4.17-4.2 2.51-5.27 4.07-.75 1.38-1.52 2.76-2.25 4.16C19.45 22.28 13 35.13 7.41 48.38c-.72 1.69-1.41 3.39-2.15 5.08-.41 1-.77 1.94-1.15 2.91-.8 2-1.59 4.05-2.38 6.08-.21.52-.43 1-.61 1.56s-.3.91-.43 1.37-.25.79-.35 1.19c-.16.66-.1 1-.23 1.62 0 0-.08.45-.09.47 0 .54-.15.44.2.93a4.15 4.15 0 001.71 1 8.18 8.18 0 001.54.51l1.65.45c1.29.35 2.57.75 3.88 1 14.83 3.07 30.06 3.61 44.82 7.14 3.31.94 6.24-1 2-2.61 1.16-1.76 2.12-4.57 2.86-5.7 1.4-2.13 2.46-3.09 3.58-5a2.2 2.2 0 00.41-.84M9 69.79c-1.44-.38-2.88-.78-4.31-1.17a10.24 10.24 0 00-2.17-.46A4 4 0 003.1 67c.22-.7.41-1.41.65-2.11.36-.99.75-1.89 1.12-2.89.65-1.66 1.3-3.31 2-5 5.5-13.84 12-27.25 18.88-40.47 1-1.88 2-3.76 3-5.65l-.09.17c.81-1.48 1.61-3 2.42-4.43.31 1.2.62 2.39.9 3.59 3.61 15.58 7.64 31.07 12.51 46.3 1.82 3.86 3.9 14.22 6.62 19.59l-4.67-.87C34 72.83 21.3 72.53 9 69.79zm44.8 6.3c-.93-6.41-6.71-19.1-7.64-23.73-4-13.25-7.68-26.57-10.77-40.06-.3-1.23-.58-2.46-.89-3.69-.1-.38-.19-.77-.29-1.15 1.2 2.79 2.4 5.59 3.66 8.36 7 15.07 13.64 30.33 21.05 45.22v-.06c.52 1 .81 2 1.25 3-2.53 3.02-5.61 8.37-6.41 12.11z" fill="currentColor"/></svg>