<svg xmlns="http://www.w3.org/2000/svg" viewBox="0 0 66.97 76"><path d="M66.41 8.43c-.92-1.57-6.41-3.56-8.74-3.77C54.24 4.35 41.86.47 35.32.52c-3.1-2.19-8.64 3.19-11.73 4.35C16.53 10.06 4.26 13.57.36 21.4c-.47.51-.59.81.32 3.49 9 17.1 21.49 31.9 33.77 46.67l-.19-.25C37.19 74.23 38.5 76 40.35 76l5.88-10.89c8.87-17 15.33-35.35 20.13-53.88v.24a21.34 21.34 0 01.59-2.71c.13-.11-.14-.24-.54-.33zM38.23 70.12c-5.89-9.57-17-18.87-22.08-27.91-3.85-5.59-7.88-11.09-11.25-17-.17-.3-.34-.62-.51-.94 11 1.62 22.49 3.1 33.1 5.88-.9 2.69 0 10.44 0 11.64.65 8.37.53 16.74.66 25.14a18.87 18.87 0 01.08 3.19zm-.95-45a161.69 161.69 0 00-18.15-3.3c-3.13.09-8.08-1.67-12.22-1.93 3.34-1.79 6.43-4.65 9.75-6.07C22 10.22 28.31 7.94 33.4 4.13c7.36 4.78 17.7 2.59 25.94 5.76l.9.1c-3.72 2-7.08 5.85-10.51 7.77-3 2.86-8.23 5.53-11 8.07-.41-.23-.9-.47-1.45-.7zm15.06 16c-2.53 8.64-8.59 18.21-11.26 27.47-.09-3-.63-5.89-.56-9.94-.6-9.1.14-18.93-.91-28 3-2.08 4.15-4 7.35-6.08 4-3.84 9.3-6.42 13.75-9.78-3.2 7.89-5.71 21.93-8.37 26.34z" fill="currentColor"/></svg>