<svg xmlns="http://www.w3.org/2000/svg" viewBox="0 0 75.57 75"><path d="M35.14 74.92a11.11 11.11 0 01-1.14-.08c-.23 0-.46 0-.69-.07s-.55-.09-.84-.13-.74-.08-1.12-.15-.87-.18-1.31-.28l-1.18-.27c-.71-.16-1.41-.37-2.12-.57s-1.54-.49-2.29-.77-1.28-.49-1.9-.78c-.8-.38-1.61-.73-2.39-1.15l-.21-.11 1.36-.09 2.94-.18 6.88-.52L36 69.4l2-.15 4.69-.32c1-.07 2-.15 3.06-.21l4.88-.23 3-.14 1.37-.06 4.57-.12-.7.5c-.43.29-.86.56-1.31.81-.6.36-1.21.7-1.82 1a31.41 31.41 0 01-3.62 1.71c-.49.19-1 .41-1.45.56-.87.27-1.72.58-2.6.82s-1.64.41-2.46.61q-.49.12-1 .21-.69.12-1.38.21c-.26 0-.53 0-.79.08a6.35 6.35 0 01-1.23.14.54.54 0 00-.18 0 1.07 1.07 0 01-.53.07 2.25 2.25 0 00-.26 0c-.27 0-.54.07-.8.07h-2.22c-.69.04-1.39.04-2.08-.04zm-17.35-5.61c-.75-.49-1.52-1-2.25-1.47s-1.6-1.22-2.38-1.86c-.54-.44-1.05-.92-1.56-1.4l4-.53 5.46-.71c.82-.11 1.66-.21 2.48-.33s1.71-.15 2.56-.22l5.62-.48 5.6-.49c.82-.07 1.64-.15 2.47-.21h-.13.6l1.35-.07 4.4-.23 8.8-.46c1.91-.1 3.83-.14 5.75-.2l7.23-.22-.44.55a24.43 24.43 0 01-1.62 1.89c-1 1.05-2.07 2.13-3.22 3.08-.55.45-1.09.91-1.66 1.34h-1.6l-2.88.08h-2.66l-3 .15c-1.62.08-3.25.15-4.87.24h-.63l-1.66.24-4.35.3c-1.73.12-3.45.25-5.18.39l-7.13.55c-1.1.08-2.21.18-3.31.25l-4.28.28h-.67c-.28-.1-.57-.28-.84-.46zm-8.34-7c-.39-.47-.81-.93-1.19-1.4s-1-1.22-1.44-1.86-.82-1.3-1.25-1.94a26.78 26.78 0 01-1.4-2.43c-.4-.73-.75-1.49-1.08-2.25l.87-.1 9.72-1.15 1.74-.2 3.93-.37 5.57-.53 3.12-.3c.8-.09 1.6-.14 2.4-.2l5.46-.47c2-.17 4.05-.35 6.08-.51l10-.81 6.33-.49c2.28-.17 4.57-.36 6.85-.5l9.39-.55c0 .11 0 .22-.08.34a23.64 23.64 0 01-.79 2.73c-.21.65-.47 1.3-.71 1.94a24.33 24.33 0 01-1 2.29c-.41.85-.86 1.69-1.31 2.52-.3.54-.62 1.07-1 1.59l-.58.86-4.48.12-5.82.15c-1.05 0-2.1 0-3.15.08-.71 0-1.41.07-2.12.1l-5.49.27-5.72.27c-.9.05-1.8.07-2.69.13-.88.09-1.77.15-2.65.23l-5.66.47-5.57.46L24 61c-.22 0-.44 0-.66.06h-.19l-9.4 1.21-3.9.51zM2.09 49.88c-.36-1-.64-2-.92-3C1 46.4.9 45.87.8 45.34s-.2-1.16-.29-1.73c-.06-.33-.12-.66-.17-1l8.34-.69q8-.68 16-1.31l18-1.45 6.32-.48 9.4-.68c3-.2 5.93-.35 8.9-.53.77 0 1.54-.1 2.31-.13l5.39-.21h.6v2.57a.54.54 0 00-.06.18c0 .46 0 .92-.06 1.39s-.11 1.18-.22 1.76-.12 1-.23 1.51v.2l-3.89.22-5.31.31c-.63 0-1.26.06-1.89.11l-9.66.7c-2.13.15-4.25.33-6.38.5-2.4.19-4.8.37-7.2.57-5 .42-10 .81-15 1.28l-10 1-1.53.17-4.67.55-5.4.64-1.58.19c-.18-.41-.31-.75-.43-1.1zM0 38.91v-1.6c0-.92 0-1.84.07-2.77v-.1c.16-.35 0-.73.13-1.09a5.3 5.3 0 00.08-.82c.07-.4.15-.79.22-1.19 0-.17 0-.35.07-.52l1.35-.06 2.2-.1L14.67 30c2.36-.14 4.73-.3 7.1-.46 6.06-.42 12.13-.8 18.21-1.19 2.25-.15 4.51-.26 6.76-.38l5.75-.3c.69 0 1.38-.08 2.07-.1l10.21-.34h2.5l5.86-.08h1.05c.08.33.16.66.25 1s.2.7.28 1.05.15.8.22 1.19l.15.86c.07.35.15.7.2 1.05s0 .58.08.86A8.92 8.92 0 0175.5 35a2.09 2.09 0 000 .25l.06.06v.14l-3.34.11c-1.1 0-2.19.05-3.29.11l-9.61.5c-2.4.13-4.8.3-7.2.46s-4.61.29-6.91.45l-17.35 1.26Q19 39 10.13 39.69l-6.69.53-3.36.26C0 40 0 39.43 0 38.91zm1.56-12.14a30.59 30.59 0 011-2.92c.28-.65.52-1.33.83-2v-.06l1.14-.11 8-.78c2.21-.17 4.41-.37 6.62-.55l6.24-.52c2.14-.11 4.27-.25 6.4-.37s4.37-.25 6.55-.39h-.1c.66 0 1.33-.05 2-.07l4.23-.15 4.3-.14 1.83-.07h1.61l3.65-.05c2.66 0 5.31-.09 8-.08h6.62a1.76 1.76 0 00.14.23c.43.76.84 1.52 1.23 2.31s.74 1.51 1 2.3c.18.48.39 1 .56 1.44l.18.49h-8.31c-.9 0-1.8.05-2.7.07l-6 .17c-.92 0-1.83 0-2.75.08-3.36.17-6.72.32-10.08.48-2.2.1-4.39.23-6.59.36l-18.55 1.1c-2.2.14-4.4.26-6.61.38l-6 .32c-.87.05-1.74.11-2.61.14l-2.3.09a18.81 18.81 0 01.47-1.7zM5 18.79c.39-.71.83-1.4 1.29-2.07a28.65 28.65 0 011.81-2.45c.61-.7 1.17-1.45 1.81-2.13.33-.34.67-.68 1-1l7.62-.67 2.5-.22 4.71-.47L33 9l10.46-1.08c.6-.07 1.19-.13 1.79-.18l5.2-.48 5.45-.51c.59 0 1.18-.12 1.78-.16l1.38-.09.63.43c1 .65 1.85 1.36 2.74 2.1.68.57 1.33 1.19 2 1.8s1 1.07 1.55 1.6c.22.23.43.46.63.7.47.57.92 1.13 1.37 1.71.31.4.61.82.9 1.23l.38.55h-2.68c-2.1 0-4.21 0-6.32.05l-6.14.12-2.57.05h-.95c-2.13.07-4.26.18-6.38.26l-4.22.2c-.58 0-1.17 0-1.76.07-1 .05-1.92.13-2.87.19h-.36l-6.38.44c-1.14.07-2.28.13-3.42.22h.11c-1.64.13-3.27.3-4.91.45l-7.21.64h.1-.23.1-.77c-.56 0-1.13.11-1.69.17l-4 .41-2.46.25c.26-.41.52-.88.75-1.35zm7.92-9.54a6.3 6.3 0 01.55-.48l1.6-1.23c.4-.29.8-.58 1.21-.86s1-.66 1.5-1c.82-.49 1.63-1 2.48-1.44a34.08 34.08 0 013.37-1.53c1-.41 2.06-.78 3.12-1.1.68-.21 1.36-.4 2.05-.57.47-.12.95-.18 1.42-.29.28-.07.57-.08.83-.15.65-.18 1.32-.21 2-.34a11 11 0 011.24-.11c.46 0 .93-.06 1.4-.08h.61s.06 0 .09-.07h2.85a1.9 1.9 0 00.4.05h.29a4.69 4.69 0 01.53 0l1.16.14c.32 0 .65.05 1 .08l.65.07c.35.07.7.15 1.06.21s.68.08 1 .15.95.24 1.43.35c.77.17 1.53.39 2.28.62a25.72 25.72 0 012.47.86c.65.28 1.33.49 2 .8s1.12.52 1.67.82c.7.38 1.4.75 2.09 1.15l.66.4h-.63l-.69.06-2.12.24-10.07 1-2.19.23-5.76.63c-2.22.23-4.44.48-6.66.7L24 9.11c-1.08.11-2.17.23-3.26.33l-3.88.35-4.94.44z" fill="currentColor"/></svg>