<svg xmlns="http://www.w3.org/2000/svg" viewBox="0 0 75.57 68.28"><path d="M35.14 68.18C24 67.53 13 62.1 6.3 53a455.08 455.08 0 0167.09-7.3C67.51 60.72 50.8 69.34 35.14 68.18zM2.69 46.85a31 31 0 01-1.45-3.94c12.93-1.7 25.93-2.83 38.93-3.87 11.74-.61 23.48-1.34 35.24-1.25-.14 1-.26 2.08-.5 3.09-11.2.42-22.34 1.56-33.5 2.52-12.57 1.71-25.17 3.18-37.6 5.73-.41-.74-.81-1.51-1.12-2.28zM.51 39.69a26.42 26.42 0 01-.47-7c25-3.08 50.2-3.25 75.31-2.6.22.65 0 1.45.22 2V34A594.93 594.93 0 00.65 40.5c-.05-.27-.09-.5-.14-.81zm-.3-9.33a31.39 31.39 0 012-7.65c23.05-1.9 46.12-3.63 69.25-4.23a30.58 30.58 0 013.47 8.91c-24.95-.26-50 .35-74.75 3.84.03-.23-.07-.58.03-.87zm2.37-8.64C8.21 8.53 22.39.44 36.39 0c13.35-.45 27.17 5.8 34.33 17.32-22.79.75-45.52 2.59-68.23 4.58z" fill="currentColor"/></svg>