<svg xmlns="http://www.w3.org/2000/svg" viewBox="0 0 75.57 75"><path d="M35.14 74.92a11.11 11.11 0 01-1.14-.08 5.36 5.36 0 00-.69-.06l-.83-.14c-.38-.06-.75-.08-1.13-.15s-.87-.18-1.31-.28L28.85 74c-.71-.16-1.41-.38-2.12-.58s-1.54-.49-2.29-.77-1.28-.49-1.9-.78-1.52-.69-2.26-1.08l3-.48q4.26-.69 8.54-1.33l7.1-1.07c.85-.13 1.69-.26 2.53-.37l12.93-1.73c3.11-.41 6.23-.7 9.35-1h.15c-.43.41-.88.82-1.34 1.2-.64.52-1.27 1.06-1.93 1.54s-1.12.83-1.68 1.22-.86.56-1.31.82c-.6.35-1.21.69-1.82 1a33.09 33.09 0 01-3.62 1.7c-.49.19-1 .41-1.45.56-.87.27-1.72.58-2.6.82s-1.64.42-2.46.61q-.49.12-1 .21-.69.12-1.38.21c-.26 0-.53 0-.79.08a6.35 6.35 0 01-1.23.14.54.54 0 00-.18 0 1.07 1.07 0 01-.53.07h-.26c-.27 0-.53.07-.8.07h-2.28c-.7-.06-1.39-.06-2.08-.14zm-19.6-7.08c-.81-.59-1.6-1.22-2.37-1.86-.55-.44-1.06-.92-1.57-1.4l-.43-.42c3.08-.44 6.16-.89 9.25-1.28l7.5-.94c1.42-.18 2.85-.38 4.28-.54L44.62 60c3.28-.36 6.57-.65 9.85-1l5.6-.54c1.16-.11 2.32-.14 3.48-.21l6-.37a36.24 36.24 0 01-2.2 3l-.09.12-3.26.4-7.13.73c-.84.09-1.69.17-2.53.28l-13 1.68c-3.11.4-6.22.9-9.33 1.36-2.89.43-5.78.86-8.66 1.32L15.74 68zm-8.72-8.79c-.44-.63-.82-1.3-1.25-1.94-.19-.27-.36-.55-.53-.84l2.14-.36c3.12-.52 6.23-1.08 9.35-1.54l12.6-1.86c.84-.12 1.68-.22 2.53-.33l7-.89 5.37-.69c1-.12 2-.2 3-.3l7.27-.73c1.38-.13 2.77-.24 4.14-.41 4.32-.25 8.64-.61 13-.86l2.6-.09c-.11.37-.24.74-.36 1.11-.21.65-.47 1.3-.71 1.94a24.33 24.33 0 01-1 2.29c-.15.32-.31.63-.47 1l-11 .59h-.71c-.5 0-1 .09-1.5.13l-4 .35-8 .7c-1 .08-2 .19-2.92.29l-7.6.8c-1.4.15-2.81.27-4.2.44l-5.18.62c-3.36.41-6.73.78-10.08 1.25L9 60.74l-.74.1c-.53-.59-1-1.17-1.44-1.79zm-4.13-7.57c-.22-.53-.41-1.06-.61-1.6s-.34-1-.49-1.51c1.42-.25 2.85-.49 4.28-.7l12.44-1.84c2.55-.38 5.11-.7 7.67-1 3-.39 5.92-.82 8.89-1.17 3.46-.42 6.93-.86 10.4-1.25h-.2l3.3-.3 6.69-.62c.89-.08 1.78-.16 2.68-.22 3.52-.23 7.05-.49 10.58-.69l2.24-.1h.16l4.77-.21a8.54 8.54 0 010 1c-.08.58-.11 1.18-.22 1.76s-.12 1-.23 1.51c0 .22-.09.43-.15.65h-1.1c-.86 0-1.73 0-2.59.08l-3.76.21h.19l-2.63.13-6.2.39c-.94.06-1.89.15-2.83.24L43.85 47.3h.08c-.88.08-1.75.2-2.61.31l-5.76.68c-2.86.35-5.73.67-8.59 1.08L15 51c-1.2.17-2.4.39-3.59.59l-7.27 1.22-.82.13c-.22-.48-.43-.94-.63-1.46zM.51 43.61c-.1-.61-.21-1.13-.28-1.7S.11 41 .08 40.48v-.3l4.83-.73c2.39-.36 4.78-.72 7.17-1 3.06-.41 6.12-.84 9.18-1.23l2.5-.29h-.13c3.07-.35 6.15-.71 9.22-1 2.56-.2 5.11-.44 7.66-.66l4.13-.36c.89-.08 1.79-.12 2.69-.17l5.93-.38c1.09-.07 2.17-.12 3.26-.2 3.57-.19 7.14-.32 10.72-.49.8 0 1.6 0 2.4-.07l5.78-.16A8.66 8.66 0 0175.5 35a2.09 2.09 0 000 .25h.06v2.26l-7 .2c-1.92.06-3.84.19-5.76.3-2.48.13-5 .23-7.44.42l-10.14.79h.09-.39c-1.13.09-2.25.23-3.38.35l-5.91.61c-2.18.23-4.35.5-6.53.77l-6.83.83c-1 .13-2.06.24-3.08.38l-11 1.55-4.22.59c-1.08.15-2.14.36-3.21.54-.12-.37-.18-.84-.25-1.23zM0 37.31c0-.92 0-1.84.07-2.77v-.1c.16-.35 0-.73.13-1.09a1.85 1.85 0 00.06-.58c2.84-.37 5.67-.77 8.5-1.09l6.12-.68c1.52-.18 3-.37 4.56-.53l5.92-.61c1.71-.18 3.41-.38 5.12-.54s3.66-.32 5.52-.51l5.45-.46H42l7-.42c1.22-.07 2.43-.16 3.65-.21 3.71-.13 7.41-.31 11.12-.41L74.14 27c.1.37.19.74.29 1.12s.2.7.28 1.05.15.79.22 1.19l.15.86.06.3-2.2.06c-2.46.06-4.93.12-7.39.22l-5.87.26-2.37.1h-.86c-2.69.14-5.39.31-8.08.47l-3.68.22c-1 .07-2 .16-3 .25l-6 .48c-1 .08-2 .14-3 .25l-2.55.27-5.91.63c-1.1.12-2.2.22-3.3.35l-2.08.27-4.39.65c-1.71.22-3.42.42-5.13.67L0 38v-.69zm1.56-10.54c.21-.69.43-1.39.69-2.07l3.68-.42 17.61-2c3.78-.33 7.54-.78 11.32-1.1s7.35-.55 11-.81H46c1.43-.1 2.86-.14 4.28-.21l5.84-.29c1.09-.05 2.18-.07 3.27-.1l6-.17c1.86-.06 3.71-.09 5.56-.11.3.54.59 1.07.86 1.62.37.76.74 1.52 1 2.31.08.22.17.43.25.65-3.38 0-6.77.06-10.16.13l-7 .15c-1.36 0-2.72 0-4.08.1l-6.39.27c-1.45.06-2.9.09-4.34.18l-6.41.43c-1.59.1-3.18.18-4.76.32-3.69.31-7.37.61-11.06.95h-.06c-.53 0-1.06.1-1.59.16l-3.6.37c-1.87.19-3.73.39-5.6.57-1.69.17-3.38.39-5.07.59l-1.92.22c.19-.59.36-1.17.54-1.74zM5 18.79c.39-.71.83-1.4 1.29-2.07.33-.48.66-1 1-1.43l5.4-.27 15.4-.78 7-.38 5.68-.33c1.08-.06 2.16-.11 3.24-.19h-.11l5.37-.34 3.73-.21c.66 0 1.32-.07 2-.12l2.69-.16 5.21-.3c.9-.06 1.8-.09 2.7-.16l.37.39c.22.23.43.46.63.7.47.56.92 1.13 1.37 1.71q.47.6.9 1.23l.55.81c-5.42 0-10.85.1-16.27.3-2.88.11-5.76.18-8.63.35l-6.25.38c-1.18.07-2.37.12-3.55.21H34l-4.25.35c-2.82.24-5.63.45-8.44.74-3.41.34-6.82.67-10.23 1-.75.06-1.51.17-2.26.25l-4.6.5h-.37Q4.4 19.93 5 18.79zm4.94-6.65c1-1 2-1.93 3-2.89a6.3 6.3 0 01.55-.48l1.16-.89c3.28-.14 6.56-.25 9.84-.36 1.49 0 3-.12 4.47-.15l5.88-.13L44.76 7l14.76-.23.17.12c1 .65 1.85 1.36 2.74 2.1.44.37.86.75 1.28 1.15l-3.5.24-3.76.25c-.57 0-1.14.06-1.71.12-2.38.15-4.76.33-7.14.5h.12-.35.12l-3.68.25h.11c-4.14.25-8.28.55-12.42.8l-8.71.53-9.22.51-4.92.27c.42-.47.83-.99 1.29-1.47zm7.84-6.43c.82-.49 1.63-1 2.48-1.44a34.08 34.08 0 013.37-1.53c1-.41 2.06-.78 3.12-1.1.68-.21 1.36-.4 2.05-.57.47-.12.95-.18 1.42-.29.28-.07.57-.08.83-.16.65-.17 1.32-.2 2-.33a11 11 0 011.24-.14c.46 0 .93-.06 1.4-.08h.61s.06 0 .09-.07h2.85a1.9 1.9 0 00.4.05h.3a4.51 4.51 0 01.52 0l1.16.14 1 .07.65.08 1.06.2c.33.06.68.09 1 .16s.95.24 1.43.34q1.15.27 2.28.63a25.72 25.72 0 012.47.86c.65.28 1.33.49 2 .8s1.12.52 1.67.81l1 .53h-1.41l-7.87.2C45.26 5 43.7 5 42.15 5c-4.1.14-8.2.25-12.3.38-3.71.11-7.41.3-11.11.46l-1.31.06z" fill="currentColor"/></svg>