<svg xmlns="http://www.w3.org/2000/svg" viewBox="0 0 88.07 73.65"><path d="M22 65h.09c-.58-.34-1.17-.7-1.74-1.06.51.37 1.06.7 1.65 1.06zm17.58 8c-9.08-1.16-18-4.64-24.86-10.78 4.69 0 9.38.08 14.08.12h-.38c18.21.12 36.42-.3 54.62-1C72.42 73.35 54.57 74.87 39.55 73zM5.47 51c-.2-.34-.39-.69-.58-1 27.69.67 55.38-.74 83.07-1a24.91 24.91 0 01-.88 4.52c-25.77 1.9-51.59 3-77.43 3.51A46 46 0 015.47 51zm2.17-3.65l-4.07-.05a41.67 41.67 0 01-2.72-8.12C29.21 37.5 57.62 36.89 86 36a28.74 28.74 0 012.06 9.28c-26.81.5-53.6 2.03-80.42 2.07zM0 30.05c22.77-1.27 45.55-2.29 68.35-2.85h-.07l13.38-.2a68.54 68.54 0 013.48 6.9c-28.21 1-56.44 1.8-84.6 3.71A34.76 34.76 0 010 30.05zm77.84-5.34c-.35-.49-.69-1-1.06-1.47.36.48.71.97 1.06 1.47zm-76-4a24.3 24.3 0 011.06-2.46c23.15-2.76 46.5-2.9 69.79-2.82A47.2 47.2 0 0181 25.84c-27 .44-54 1.78-80.9 3.43a30.34 30.34 0 011.78-8.57zm5.22-9.17C23.94-7.1 56.89-.82 71.46 13.84c-22.74 0-45.54.24-68.14 3a29.08 29.08 0 013.74-5.3z" fill="currentColor"/></svg>