<svg xmlns="http://www.w3.org/2000/svg" viewBox="0 0 160 45"><path d="M40.13 35.48a1.25 1.25 0 00.77-.3 1.15 1.15 0 00-.49-.64c-.54.09-.87-.65-1.47-.53H39a.8.8 0 00-.26 0 .77.77 0 00-.25.14l.06-.06-.13.12-.06.07c-.67.98 1.07 1.23 1.77 1.2zm-1.27 1.44a2.12 2.12 0 01-1-3.73c-.12-1.9 2.35-.74 3.2-.16 2.64 1.59.49 5.03-2.2 3.89z" fill="currentColor"/><path d="M159.14 2.31c-.7-2.32 0-2.74-3.74-1.94-6 5.58 7.75 14.45-9.23 15.72h.1c-20.6 1.21-41 4.82-61.67 5.19-22.81.4-45.64-.92-68.45-1.13-4.23-.47-5.78-.73-11.7-3.87C2 14.94-.77 15.41.2 17.8c6.89 10 22 6.37 32.64 7.59-6.62 6.08-6.84 19.14 5.84 19.51C49 46.3 53.29 32.73 48 25.9c9.5.45 19 1.1 28.52 1.1 14.84.26 29.55-1.23 44.26-2.76-2 2.44-2.65 6-.79 10.54 3.52 12.09 23.41 7.28 22.22-4.64a11.11 11.11 0 00-4.8-7.55c3.23-.28 6.46-.55 9.7-.76h-.15c10.32-.02 15.13-10.53 12.18-19.52zM40 41.55c-5.77 1-11-7.81-6-12.33 2.44-2.22 4.68-4 8.62-2.22 7.87 3.67 2.66 14.5-2.62 14.55zm83.61-7c-3.3-4.84 2.66-13.23 8.82-10.51 3 1.34 5.6 2.64 5.52 7-.16 8.74-12.18 8.37-14.36 3.54z" fill="currentColor"/><path d="M129.19 32.26c.15.23.31.5.59.58a1.11 1.11 0 00.38-.71c-.3-.45.25-1.05-.1-1.55v.07l-.15-.22a.72.72 0 00-.22-.17h.08l-.17-.08h-.08c-1.12-.24-.64 1.46-.33 2.08zm-1.83-.58a2.12 2.12 0 013-2.44c1.68-.88 1.62 1.85 1.44 2.86-.38 3.08-4.39 2.5-4.44-.42z" fill="currentColor"/></svg>