<svg xmlns="http://www.w3.org/2000/svg" viewBox="0 0 80 42.36"><path d="M55.41 17.4a37.91 37.91 0 016.81-4.15C67.15 4.34 58 9 55.7 13.47c-.03 1.31-.14 2.63-.29 3.93zm-13.28-1.94c.08 1.53.12 3.07.12 4.6C43.92 14 48.83 8.4 46.66 1.9c-3.78 2.81-5 9.02-4.53 13.56zm-13 1.19a32 32 0 011.74 4 40.91 40.91 0 01.13-5.33 3.14 3.14 0 00-3.2-1 20.5 20.5 0 011.37 2.33zM52 19.49l-.7 1.28c.72-.62 1.45-1.24 2.18-1.84q.21-1.26.33-2.52A38.68 38.68 0 0052 19.49zm2.66 2.43a1.29 1.29 0 000 .19 54 54 0 005.24-5.46c-.47.28-.93.58-1.39.88-1.19.8-2.34 1.65-3.45 2.54-.16.6-.29 1.23-.43 1.85zm-33.44 1.34c.46.35.89.72 1.31 1.11-.3-3.49.24-7.28 2.38-10.14-2.7-2.9-4.8.62-4.66 3.41a.31.31 0 000-.1 17.38 17.38 0 00-.06 2 20.52 20.52 0 00.39 3.22zm12.06-8.36a29.81 29.81 0 014.38 9.73c.07-5.54 3.1-10.82 2-16.29v.07a27.07 27.07 0 00-.89-3.89v.14c-1-4-4 .38-4.45 2.41a35.34 35.34 0 00-1.07 3.74v-.06a36 36 0 00-.55 3.58zm14.86 12.15a10.37 10.37 0 001.11-.65l-.12.08a36.52 36.52 0 003.07-2.29c.26-.77.48-1.56.67-2.35l-.56.48.07-.06c-1.49 1.52-3.48 2.74-4.24 4.79zm-5.77.12A21.43 21.43 0 0043.74 24l-.05.14a57.46 57.46 0 001.81-6.69v.07c.18-.82.33-1.64.46-2.47q-1 2.24-1.77 4.53v-.14a47.43 47.43 0 00-1.5 5.2v-.06.15-.05c-.14.72-.25 1.44-.32 2.17a.22.22 0 010-.08c.02.12.01.23 0 .4zm10.91-.85a21.79 21.79 0 01-1 2.08c4.51-4.4 8.66-10.94 15.13-12.11a5.77 5.77 0 00.91-1.78v.15a2.13 2.13 0 000-.25l-.21-.16.09.07c-1.48-.75-3.27-.08-4.72.46-2.48 4.59-7.05 7.66-10.2 11.54zm-38.43 1.37a28.69 28.69 0 015.75 1 20.39 20.39 0 01-1.6-4.35c-3.33-2.81-9.17-1.22-7.67 3.8a6.59 6.59 0 013.52-.45zm59.34 1.48l.62-.24h-.44a1.88 1.88 0 01-.18.24zm-45.07.72c3.05-2.14.19-7.3-.68-10.15l.06.13a21.88 21.88 0 00-2.34-4.24c-2.95 4.14-3.16 13.05 2.96 14.26zm10.5.18a7.38 7.38 0 00.38-1.53v.15a63.18 63.18 0 00.45-11.17 47 47 0 00-1.16 10 9.6 9.6 0 00.33 2.55zm13.58 0a107.93 107.93 0 0012.37-11.4l-.09.1c.07-.07.13-.15.19-.22a19.85 19.85 0 00-4.23 3l.1-.09a89.31 89.31 0 00-8.34 8.63zm-17.39.2a.39.39 0 00.11-.06h-.05c1.66-3-.72-6.85-1.63-9.82a24.77 24.77 0 00-1.66-3.14v2.1-.15c.42 3.68.06 8.71 3.23 11.09zm-11.26.23c.33.22.66.45 1 .7A21.11 21.11 0 0023.9 29l.09.11c-.68-.83-1.39-1.65-2.15-2.42A16.45 16.45 0 0023.92 30l-.09-.11a2.33 2.33 0 00.72.63zM61.07 32a19.46 19.46 0 008.37-2.49c-1.31.25-2.59.58-3.87.94a37.54 37.54 0 00-4.5 1.55zM46 33.07c2.12-1 3.38-3.21 4.54-5.14a6.59 6.59 0 01-3.41 1.51c-.12.3-.23.62-.34.93a18.15 18.15 0 00-.79 2.7zm-27 2.26h.23c-.6-.24-1.2-.45-1.81-.65.47.21 1 .44 1.58.65zm4.63-.46a7.67 7.67 0 012.92.53 16.34 16.34 0 00-14.26-5.2c.2.31.4.61.62.9a27.31 27.31 0 0110.7 3.77zM8.27 38.64c1.58-.67 3.18-1.29 4.81-1.81a8.15 8.15 0 01-3.19-3.59 22.25 22.25 0 00-2.83.11c-1.88.25-4 .78-5.14 2.38C3 38.12 6.05 38.2 8.27 38.64zm6.28.16c.8 0 1.6-.1 2.4-.17-.28-.08-.54-.17-.81-.27-.51.13-1 .27-1.52.42l.14-.05zM10 42.36c-1.39-.13-3.9.36-4-1.63-11-2.35-4.86-10.72 3.57-9.9a4.21 4.21 0 01.31-1c-2.61-5.62 3.12-11.58 8.61-8.27-1.06-5 1.79-14.78 7.94-8.79a4.35 4.35 0 014.79.13C31.58 5.25 39-6.84 41.36 7.58c1.73-7.24 8.28-12.19 7.39-1 3.72-4.33 6.8-.24 6.86 4 3.27-5.28 12.57-7.15 9.11 1.7 3.8-1.25 7 1.05 4.21 4.81 1.26 2.75-.49 6-1.83 8.41 2.35-.69 6-1.36 7.55 1.1 2.19-.07 6.92.84 4.83 3.89-1.82 1.63-4.47 1.84-6.7 2.65-.21.66-1.51 1.53-1.84.55-1.64.49-3.27 1-4.92 1.47-3.17.61-12.76 4.62-13.1-.68 2.79-5.57 12.13-5 14.22-13a8.91 8.91 0 00.57-2.64c-1.52 1.97-17.61 18.89-18.53 14.21-4.76 4.91-6.09.49-3.77-4-.68-1.44.23-2.82 1.27-3.78 2.76-3.87 4.41-8.54 7.3-12.39v-.67.07a.76.76 0 010-.15c.07-5.29-2.53-7.68-5.51-2.09-1.22 5.39-1.6 16.58-6.47 19.53h.12a1.14 1.14 0 01-.54.07c-.18 2.33-3.06 4.21-3.71 1-1.61 3.85-5.14.54-5.69-2.18-.14 2-1.82 4.18-4 3.59a2.55 2.55 0 010 1.92 3.24 3.24 0 01.45 3c2.43-.49 4.86-1 7.32-1.29h.16c1.57 0 3.5-.9 4.91-.17a1.42 1.42 0 01-1.24 2.33h.05-.31C29.55 38.7 20 42.18 10 42.36z" fill="currentColor"/></svg>