<svg xmlns="http://www.w3.org/2000/svg" viewBox="0 0 80 40.37"><path d="M39 9.14c.17-.56.33-1.12.51-1.67-.19.53-.63 1.08-.51 1.67zm34.11 2.31c-.37.56-.76 1.11-1.16 1.66.92-.85 1.88-1.67 2.77-2.55l-1.19.26zm-30.2-6.4a35.18 35.18 0 01.09 8.58 40.59 40.59 0 00.4-8.18v.1a1.74 1.74 0 00-.15-.85l-.37.3zm10.93 7.24c-.26 1.33-.59 2.65-1 3.95 2-2.63 3.85-5.21 4.27-8.58v.07-.16.06q.1-.57.24-1.14a8 8 0 00-2.76 2.94l.07-.12c-.66.83-.56 1.96-.82 2.98zm-27.13-.63a31.77 31.77 0 012.19 4.78c0-2.36.77-5.34-1.27-7a4.36 4.36 0 00-1 2.07 2 2 0 00.08.15zm33.92 4.8c3.66-2.92 7.4-6 11.85-7.61.49-1 1.59-2.16 1.41-3.33-3.5-.11-6.2 3-8.81 5l.1-.09c-1.96 1.57-3.02 4.03-4.55 6.03zm-3-3.5c-.42 1.3-.93 2.58-1.39 3.87 4.12-4.41 8.38-8.58 11.22-14l-.13.09A41.86 41.86 0 0059.86 10l-.09.1a17.18 17.18 0 00-2.16 2.9zm-30.8 4.49a51.9 51.9 0 00-.69-1.73v.11-.1 1.14c.21.18.45.38.69.58zm-9.08 2.26c.68-2.71 3.48-5.2 6.33-3.94.07-1.14.15-2.28.3-3.41-1.17-1.75-3.09-4.16-5.46-3.36h.14c-3 2.23-2.35 6.75-1.58 9.94a1.09 1.09 0 01.05.17v-.12c.04.18.13.45.22.72zm42 .26c2.46-1.79 5.55-2.74 7.88-4.59.87-1 1.73-2.07 2.54-3.14-.84.47-1.66 1-2.46 1.51a77.49 77.49 0 00-8 6.25zm-39.54.18a14.29 14.29 0 014 1.27c-.1-1-.15-1.92-.18-2.88a2.69 2.69 0 00-4.17 1.56zm19.39-3.08c0 1.65.09 3.31.09 5 1.58-4.58 1.49-9.66 1.63-14.47a60.06 60.06 0 00-1.76 6.3v-.15a22 22 0 00.04 3.32zm14.14 5.68a13.94 13.94 0 002.17-2.66c-.7.91-1.55 1.71-2.17 2.66zm-20.66-4.67c.43 1.77.85 3.55 1.21 5.33-.49-6.55 5-13.66.8-19.48l.11.1a2 2 0 00-.77-.42c-1.75.93-2.3 3.25-2.75 5.05v-.11.17c-1.13 3.2.87 6.18 1.4 9.36zm-4 6.53c-.28-1.78-1.64-3.1-2.82-4.37.06.73.15 1.44.26 2.16a1 1 0 010-.17c0 .16.05.33.08.5a23 23 0 012.4 1.88zm20.56.33a21 21 0 004-6.56 44.3 44.3 0 00-4.04 6.56zm-33.17-.79c.49.26 1 .52 1.46.79a22.28 22.28 0 01-1.37-2.31 2.41 2.41 0 00-1.53.81c.44.23.97.46 1.4.71zM32.59 26c-.47-2.55-1.05-5.09-1.66-7.61A20.28 20.28 0 0032.59 26zM16 26.71l-.86-.45.07.13a2.09 2.09 0 00.79.32zm37.18.05c2.71-1.6 5.31-3.4 7.92-5.15-2.6 1.72-5.61 3.05-7.91 5.15zM25.68 28a24.74 24.74 0 01-1-3.46 13.15 13.15 0 00-5.12-1.91c.85 2.44 3.69 4.59 6.12 5.37zm36.6-4.1c-1.7 1.56-3.44 3.1-5.28 4.53 7.53-3.06 14.25-8.31 20.16-13.88h-.39.15c-5.92.93-10.32 5.55-14.64 9.34zm-32.6 4.83a17.3 17.3 0 00-2.13-2.15c.13.35.26.69.41 1a.77.77 0 01-.07-.16c.16.37.32.73.5 1.08a6.3 6.3 0 001.29.22zm6.65.27c-.48-5.08.89-10.07 1.18-15.07l-.12.52v.15c-.93 4.67-1.74 9.57-1.06 14.4zm27.56.07l-2.22.48a31.86 31.86 0 004.42-.93zM45.2 27.42c-.44 1-.8 2.11-1.2 3.17l.31-.07c1.95-4.09 4.63-7.83 6-12.2v.09c.41-1.21.79-2.42 1.12-3.65-1.55 2.78-2.92 5.66-4.35 8.5l.07-.13q-1.01 2.15-1.95 4.29zM44.9 14c-.75 5.84-1.43 11.79-3.59 17.31l.57-.14c2.37-8.17 7.72-15.31 10.74-23a.49.49 0 010 .12v-.16c0-1.18.48-3-.43-3.82h.12c-3.73.11-5.28 5.64-7 8.42l.06-.13a2.92 2.92 0 00-.47 1.4zM22.58 33c.53-.14 1.05-.3 1.57-.46-.52-.14-1-.28-1.54-.44l-1.19.3c.38.25.77.45 1.16.6zm-9 1.79l-.34.11a49.87 49.87 0 005.8-1l-.84-.6c-1.51.52-3.05 1.03-4.59 1.53zm-4.71 2.79c-7.15-3.36 2.52-6.84 6-7.52-.22-.29-.43-.58-.63-.88-3.34-.13-6.88-.4-10 .87l.12-.05c-5.69 2.48.73 7.61 4.51 7.58zm-.52 2.56c-12.62-2.26-10.19-14.76 2.29-13.65C5.22 23.07 7 19.07 13 22.55a4.37 4.37 0 012.56-2.21c-3.11-6.85 1.87-20.17 9.56-11 .64-.93 1.42-3.11 2.84-2.42l-.14-.06a3.1 3.1 0 012 1.42c.8-5.95 6.37-10.61 8.5-2.38.74-.93 2.08-3.18 3.41-2.46C45.26.06 45.5 6.7 45.23 9c1.62-4.31 9.22-11.56 9.28-2.51 2.7-3.54 5.75-2.88 4.32 1.86 2.84-4.42 17-15 8.82-2.4 3.2-3.1 10.6-4.39 7.36 2.27 3.12-.64 2.75 3.12.67 4.26 2.52-1.08 6.08.63 3.31 3.23l.12-.1a72.59 72.59 0 01-13.77 10.88c2.91-.4 6.21-1.47 9-.39 2.14 2-1.22 3.14-2.87 3.49.72.17 1.62.36 1.9 1.14 1.78.13 3.62-.1 5.37.17 2 2.8-3.23 2-4.75 2-6.28 1.11-13.06 3.74-19.36.73-2.72-.36-5.41 1.59-8 .89a.89.89 0 01-1-.7c-.47.31-1.15.57-1.53 0-.6.61-2 1-2.56.19-4.11 1-8.24 2-12.4 2.8a2.35 2.35 0 01-2.42.44c-6.17.58-11.98 4.02-18.37 2.89z" fill="currentColor"/></svg>