<svg xmlns="http://www.w3.org/2000/svg" viewBox="0 0 87.16 39.52"><defs><clipPath id="a" transform="translate(-.08 -.14)"><path fill="none" d="M0 0h87.31v39.79H0z"/></clipPath></defs><g clip-path="url(#a)"><path d="M11.12 19.99c-1.21.92-7.7 3.13-6.33 4.68a.36.36 0 00.35-.43l.17-.18a41.18 41.18 0 015.78-3.38c.48-.03.69-.82.03-.69zm-4.13 6.74c-6.42 4.77 6.26-3.24 7.93-3.87 4-2.37 9.26-3.28 13.17-5.15-1.52-.52-3.75 1-5.46 1.28l-3.19 1.17h-.05l-4.27 1.95q-2.29 1.21-4.58 2.44l-3.26 2zm2.93 12.7c-3.54-.46-9-3.63-8.28-7.51.4-3.13-3.37-15.82-.55-16.36C10.77 9.1 22.13 5.48 32.83.97c1.81-.83 4.19-1.8 5.59.23.45.71 1.89 1.85.94 2.62-1.52.4-1.62-2.53-3.21-2.56A230.62 230.62 0 003.09 15.55c16.2-3.23 33-5.54 49.36-2h-.09c3.26.69 6.56 1.25 9.77 2.14 3.7-1.16 24.29-15 24.94-10.43.58 4.89-2.06 5.68-1.46.19a42.75 42.75 0 00-4.6 2h.08l-.17.08H81l-1.18.59h.09l-.23.11h-.06c-4.55 2.48-9.13 4.89-13.88 7h-.06a32.76 32.76 0 00-3.7 2.11c-.65 5.91-1.42 12.09-1.84 18-.1 1.38-1.37 1.5-2.14 1.93-7.62 3.21-17.65 2.91-22.55-4.63-1.33-2.51-2.43-6.85-5.07-7S26.21 40.86 9.92 39.43z" fill="currentColor"/></g></svg>