<svg xmlns="http://www.w3.org/2000/svg" viewBox="0 0 80 43.26"><path d="M70.8 40.08q-5.44.11-10.89.24c-1.86-12.47-17.25-24.73-29.13-16.83-5 3.33-11 11-9.91 17.6h-4.9c-.15-1.29-3.85-1.36-3.6.57.14 2.22 3.7 1.2 5.25 1.56 12.85 0 25.69-.68 38.54-.47 4.85 0 9.77.11 14.59-.39.88-.24 1.25-2.36.05-2.28zm-47.51 1c.05-1 0-2.25.09-3.69.83-10.65 14.51-17.46 23.84-11.27A25.12 25.12 0 0156.39 35a37.67 37.67 0 012 5.33c-11.68.3-23.39.61-35.1.74zM66 34a6.73 6.73 0 01-.9-.13c.72-2.38 4.36-2.6 6.41-3.62 2.78-.6 5.65-3 8.49-2.06-1.23 2.15-3.94 2.32-6 3.19-2.7.72-5.24 2.23-8 2.62zM54.83 23.22c-.76-2.7 5.85-6.9 7.71-8.86 1.11-1.1 5.48-5.06 3.38-1.08-2.65 3.06-6.27 5.18-9 8.18a.6.6 0 01.08-.08 6.05 6.05 0 01-2.11 1.69c-.04.04-.03.12-.06.15zm-18.12-7.43c-.1 0-.05-.21 0-.29-.18-2.83-.19-13.88 1.64-15.5.76 2.89-.31 6-.27 8.92-.43 1.98.38 5.66-1.37 6.87zM23 20.09c-1.85-1.15-2.72-3.42-4.32-4.88-1.38-1.84-3.58-3.1-4.32-5.36.95-2.42 9.57 8.31 9.31 10.23.07.2-.48.07-.67.01zm-7.85 12.65C10.67 31.4 6 30.83 1.47 29.81c-4.76-2.84 3.45-1.59 5.07-1 3.49 1.1 8.3.64 10.72 3.69a4 4 0 01-2.11.24z" fill="currentColor"/></svg>