<svg xmlns="http://www.w3.org/2000/svg" viewBox="0 0 56.7 73"><path d="M27.32 72.58c-64.24-30.06 2.32-90 22.24-67.71 17.73 19.57-.38 42.72-23.71 41.58C-1.63 44 19.36 1.14 39.6 14.93c10.23 6.83 3.62 20.36-8 17.29-8.74-2.78-3.09-14.5 2.46-4.13 2.13.06 4.57-.59 5.8-2.47l-.17.24a3.45 3.45 0 00.56-1.27l-.06.3c-.78-12.67-18.19-8.17-21.36 1.18-8.89 18.32 15 18.19 25 10l-.27.18a27.33 27.33 0 002.74-2l-.25.21c9.7-7.35 5.79-24.66-4.58-29.41C18.3 2-9.2 38.52 12.94 56.49c5 4.75 11.22 8 17.13 11.58 2.93 1.72.13 6.33-2.75 4.51z" fill="currentColor"/></svg>