<svg xmlns="http://www.w3.org/2000/svg" viewBox="0 0 28.84 78.64"><path d="M27.6 57.79a17 17 0 00-5.91-.86c3.22-8.08 2.38-19.2 6-27.86-.36-5.47-4.73-10.52-6.53-15.81l-.16-.15c-.17-.33-.33-.66-.5-1-.85-1.7-1.74-3.38-2.58-5.08-5-11.66-5.54-7.26-.81 1.28 3.2 6.43 6.29 13 9.11 19.56a169.66 169.66 0 00-5 24.15c.07 1.34-1 3.55-.55 4.88-3.22.14-6.51.78-9.77 1a.53.53 0 00.1-.06.55.55 0 00-.2-1c0-.09-.08-.17-.11-.26C-3.16 15.3.78 36.14 13.67.25c-4.09 4.27-5.75 12.19-9.34 17.5C2.81 21-.42 24.13 0 27.89a161.36 161.36 0 008.21 24.58v-.08c.79 1.77.79 3.87 1.89 5.47a.62.62 0 00.19.14 22 22 0 01-4.52-.17.79.79 0 10-1.57.17.89.89 0 00-.15 1.4c-1.23 6.73.93 8.32 6.67 8.43-.2 4.1-.94 10 4.23 10.58 3.46 1 6.72-1 6.68-4.73-.07-1.63.94-5.11-1-5.67-1.72 1.79.46 5.88-1.4 8.19-1.29 1.14-4 1.12-5.62 0 1.51 0 1.92-2.71 3.06-3.62.31-.2.73-.45.52-.91-.79-1.56-4.19 3.33-3.8 4.39a2.57 2.57 0 01-1.06-2c-.08-1.55-.16-3.1-.28-4.65a3.91 3.91 0 010-1.59h.07c4.58-.72 16.26 2.32 16.39-4.34.1-1.94 1.06-4.41-.91-5.69zM5.78 65.06L5.72 65zm6.58.89c-2.18-.17-4.7.19-6.63-1-.6-1.65-.21-3.62-.21-5.37 4.3 1.49 21.83-3.93 21.37 1.62-.18 1.32 0 2.81-.62 4a86.24 86.24 0 01-13.91.8z" fill="currentColor"/><path d="M12 69.31a.28.28 0 010 .09zm.64 3.07c1.33.08 1.44-2.2 2.38-2.95.81-.56-.29-1.69-.86-.9-.53 1.01-2.57 2.82-1.52 3.85zm-1.54-14.5zm-.02.02h-.01.01zm10.04-44.64zM8.56 26.7a.67.67 0 000 .71c1.15.9 1.65 2.4 2.68 3.44 3.13 1.46-1.72-5.85-2.68-4.15zm7.95 5.3c1.87-.76 2.17-4.31 3.47-5.95-.54-2.78-4.56 5.74-3.47 5.95zm-1.06 3.92c-2.63-.06-.11 9.78-.21 12 2.07 2.22.74-3.19.76-4.16-.46-2.56-.12-5.42-.55-7.84z" fill="currentColor"/></svg>