<svg xmlns="http://www.w3.org/2000/svg" viewBox="0 0 59.83 54.82"><path d="M12.8 24.79c.16.65.06 1 .21 1.67a16.21 16.21 0 00.62 1.82c.19.48.39 1 .62 1.43s.51.91.74 1.37a19.63 19.63 0 005.83 6.46 18.78 18.78 0 002.5 1.46l.2.11h.07a16.74 16.74 0 003.77 1.27 23.44 23.44 0 002.73.36h1.1c.48 0 1-.09 1.11-.09a11.92 11.92 0 001.33-.12l1.54-.32c.61-.16 1.23-.28 1.84-.41a22.67 22.67 0 002.17-.72 11.54 11.54 0 002-1.06l1.19-.71.17-.1a7.3 7.3 0 00.81-.58 22.66 22.66 0 004.33-4 18 18 0 003.07-5.07 22.63 22.63 0 001.12-4.05 13.59 13.59 0 00-.79-7.51c-.25-.54-.5-1-.76-1.46s-.62-1-1-1.68a16.26 16.26 0 00-1.65-2.12 18.48 18.48 0 00-2.41-2 24.65 24.65 0 00-7.38-3.59c-.35-.1-.69-.22-1-.33l-1-.29a9.42 9.42 0 00-1.65-.36 6.46 6.46 0 00-1.65-.1c-1.05 0-1.94.18-3.11.18a15.93 15.93 0 00-5.44 1.42 20.26 20.26 0 00-6.94 5.12 11.48 11.48 0 00-1.6 2.09 24.87 24.87 0 00-2.47 5.89 8 8 0 00-.06 2 2.66 2.66 0 00.51 1.49c.25.16.59-.07.86.07s.73-.1 1.1-.49a2.91 2.91 0 00.73-1.44 15.3 15.3 0 01.26-1.65 9 9 0 01.43-1.62c.1-.27.2-.55.31-.82l.39-.78c.24-.54.58-1 .85-1.53a10.66 10.66 0 011.53-2.33c.33-.36.68-.68 1-1a5.33 5.33 0 011.21-.91 22.64 22.64 0 014.09-2.15 16.85 16.85 0 015.1-.82 20.28 20.28 0 015.19.81 23.44 23.44 0 016.11 2.64 18.36 18.36 0 013.43 2.9 14.31 14.31 0 012.41 3.69 12 12 0 01.41 8.55 14.81 14.81 0 01-2 4 14.3 14.3 0 01-3.86 4l-.25.18c-.38.29-.81.56-1.23.85s-.84.59-1.25.83a17.42 17.42 0 01-5.4 2.1 16.68 16.68 0 01-6.48.27 15.63 15.63 0 01-10-6.42A15.74 15.74 0 0116.37 25a7.3 7.3 0 00-.45-1.58c-.22-.48-.17-.65-.32-.82a.92.92 0 00-.82-.26 2.34 2.34 0 00-1.42.72 1.91 1.91 0 00-.56 1.73z" fill="currentColor"/><path d="M43.74 1.49a25.08 25.08 0 019.28 4A18.13 18.13 0 0156.76 9a13.57 13.57 0 012.47 4.6 14.61 14.61 0 01.49 6A17.45 17.45 0 0158.2 25l-.43.95-.58 1a18.55 18.55 0 01-2 2.78 8.89 8.89 0 01-.82.85l-.66.63-.77.65a22.08 22.08 0 01-2.52 1.81c-.31.19-.61.4-.91.62s-.61.39-.9.6a11 11 0 01-1.71 1.17 11.46 11.46 0 01-2.78.77c-.18 0-.46 0-.48-.13-.1-.5-.59-.93-.77-1.41s-.06-1 .86-1.68a13.42 13.42 0 011.58-.95c.59-.36 1.24-.66 1.81-1a21.91 21.91 0 006-4.67 14.85 14.85 0 003.51-6.45 11.63 11.63 0 000-5.25 12.58 12.58 0 00-2.38-4.8 17.63 17.63 0 00-9.38-6c-.75-.25-1.52-.35-2.24-.49s-1.53-.24-2.29-.25a14.8 14.8 0 00-4.59.25c-1.22.26-2.59.76-3.77 1.13s-2.23.64-3 .15c-.12-.07.33-1 1-1.95a8.59 8.59 0 011.86-1.92 6.52 6.52 0 012.93-.77 16.7 16.7 0 003.36.27c.6 0 1.23 0 1.85.08a16.1 16.1 0 011.85.16c.64.1 1.28.18 1.91.34z" fill="currentColor"/><path d="M33.96 16.83c-.23-.08-.28-.23-.51-.35a4.22 4.22 0 00-.69-.14 7 7 0 00-1.13-.12 7.24 7.24 0 00-3 .28 7 7 0 00-1 .36h-.07a4.9 4.9 0 00-1.18.77c-.22.16-.65.66-.7.68a3.54 3.54 0 00-.44.65 6.28 6.28 0 00-.42.92c-.11.18-.23.36-.34.55a3 3 0 00-.52 1.57l-.05.49v.06a.69.69 0 000 .35 5.45 5.45 0 001.32 4 10.87 10.87 0 001.21 1c.19.13.4.26.6.37l.54.25a8.75 8.75 0 001.16.38 8.22 8.22 0 011.17.19 4.45 4.45 0 00.9.14 5.49 5.49 0 001.03-.23 7.77 7.77 0 002.59-1.15c.21-.13.43-.23.65-.35a1.7 1.7 0 00.86-.73 3.83 3.83 0 01.6-.94 3.62 3.62 0 00.83-1.83 6.59 6.59 0 00-.21-3.16 2.54 2.54 0 00-.29-.88c-.48-.58-.71-1.22-1.21-1.84a1.2 1.2 0 00-1.38-.14c-.2.18-.34.49-.53.68-.43.46-.81 1.52-.63 1.68a4.94 4.94 0 01.66.55 8.19 8.19 0 01.48.72c.13.17.44.28.48.51s.2.41.11.66 0 .65-.13 1a3.2 3.2 0 01-.6 1 4.31 4.31 0 01-1.05.81 8 8 0 01-1.44.77 4.66 4.66 0 01-2.26 0 6.5 6.5 0 01-1.17-.35 2.48 2.48 0 01-.84-.46 2 2 0 01-.56-.77 1.69 1.69 0 01-.17-1.38v-.07a2.52 2.52 0 00.07-.72 3.88 3.88 0 01.51-1.34 6 6 0 01.87-1.3 3.89 3.89 0 012.7-1c.56.1 1 .62 1.34.84a.53.53 0 00.45 0c.2-.1.21 0 .32-.12a2.93 2.93 0 00.53-.61c.56-.8 1.02-2.08.54-2.25zM29.42 4.74c0 .36-.19 1.06-.58 1.11s-1.15-.45-1.91-1-1.52-1.06-1.88-1.35a7.23 7.23 0 00-1.57-1.13 4.59 4.59 0 00-3.39-.25 4.94 4.94 0 00-2.67 3 16.22 16.22 0 00-.95 4.36c-.09.71-.1 1.42-.16 2.07s0 1.28-.08 1.85c-.15 4-.18 14.75-.56 18.75-.16 2-.4 5.49-.78 8.81a69.39 69.39 0 01-1.26 7.66 13.45 13.45 0 01-.85 2.71A7 7 0 0110.97 54a3.74 3.74 0 01-1.78.84 3.77 3.77 0 01-1.92-.25 7.92 7.92 0 01-2.55-1.83 26.25 26.25 0 01-4-5.48 6.14 6.14 0 01-.76-3.07c0-1.14.45-.8 1.3-.15a11.52 11.52 0 013.14 4.47 11.32 11.32 0 001.85 2.58 7.35 7.35 0 001.27 1.06 2.21 2.21 0 001 .36 1.09 1.09 0 00.75-.19 3.12 3.12 0 00.72-.73 9.55 9.55 0 001.06-2.12 30.32 30.32 0 001.32-5.3c.44-2.34.65-7 .79-9.45.1-1.43.47-5.73.61-10.62.11-3.7.08-8.2.13-9.29.07-1.42.1-3 .32-4.68a21.36 21.36 0 011.27-5.41 9.52 9.52 0 011.19-2.17A5.94 5.94 0 0121.19 0a7.55 7.55 0 012.12.22 13.65 13.65 0 015.59 3.25 1.5 1.5 0 01.52 1.27z" fill="currentColor"/></svg>